M48
; DRILL file {KiCad (5.1.5)-3} date 2020-06-07 12:28:15
; FORMAT={-:-/ absolute / metric / decimal}
; #@! TF.CreationDate,2020-06-07T12:28:15+08:00
; #@! TF.GenerationSoftware,Kicad,Pcbnew,(5.1.5)-3
; #@! TF.FileFunction,Plated,1,2,PTH
FMAT,2
METRIC
T1C0.300
T2C0.600
T3C0.900
T4C0.990
T5C1.000
T6C1.016
T7C1.300
T8C1.500
T9C2.800
%
G90
G05
T1
X87.376Y-53.848
X87.376Y-55.118
X87.376Y-56.388
X87.376Y-57.658
X87.376Y-58.928
X87.376Y-60.198
X88.646Y-53.848
X88.646Y-55.118
X88.646Y-56.388
X88.646Y-57.658
X88.646Y-58.928
X88.646Y-60.198
X89.916Y-53.848
X89.916Y-55.118
X89.916Y-56.388
X89.916Y-57.658
X89.916Y-58.928
X89.916Y-60.198
X91.186Y-53.848
X91.186Y-55.118
X91.186Y-56.388
X91.186Y-57.658
X91.186Y-58.928
X91.186Y-60.198
X92.456Y-53.848
X92.456Y-55.118
X92.456Y-56.388
X92.456Y-57.658
X92.456Y-58.928
X92.456Y-60.198
X93.726Y-53.848
X93.726Y-55.118
X93.726Y-56.388
X93.726Y-57.658
X93.726Y-58.928
X93.726Y-60.198
X94.996Y-53.848
X94.996Y-55.118
X94.996Y-56.388
X94.996Y-57.658
X94.996Y-58.928
X94.996Y-60.198
X96.266Y-53.848
X96.266Y-55.118
X96.266Y-56.388
X96.266Y-57.658
X96.266Y-58.928
X96.266Y-60.198
X97.536Y-53.848
X97.536Y-55.118
X97.536Y-56.388
X97.536Y-57.658
X97.536Y-58.928
X98.806Y-53.848
X98.806Y-55.118
X98.806Y-56.388
X98.806Y-57.658
X99.06Y-68.072
X100.076Y-53.848
X100.076Y-55.118
X100.076Y-56.388
X100.076Y-60.198
X100.076Y-69.088
X101.092Y-70.358
X101.346Y-53.848
X101.346Y-55.118
X101.346Y-58.928
X102.616Y-53.848
X102.616Y-57.658
X102.616Y-60.198
X102.616Y-71.374
X103.886Y-56.388
X103.886Y-58.928
X103.886Y-60.198
X104.14Y-73.406
X105.156Y-55.118
X105.156Y-57.658
X105.156Y-58.928
X105.156Y-60.198
X105.918Y-74.93
X106.426Y-56.388
X106.426Y-57.658
X106.426Y-58.928
X106.426Y-60.198
X107.696Y-55.118
X107.696Y-56.388
X107.696Y-57.658
X107.696Y-58.928
X107.696Y-60.198
X107.696Y-76.962
X108.966Y-55.118
X108.966Y-56.388
X108.966Y-57.658
X108.966Y-58.928
X109.284Y-68.302
X110.236Y-55.118
X110.236Y-56.388
X110.236Y-57.658
X110.236Y-60.198
X110.49Y-79.502
X110.576Y-125.697
X110.744Y-70.358
X110.744Y-72.898
X111.506Y-55.118
X111.506Y-56.388
X111.506Y-58.928
X111.506Y-60.198
X112.014Y-71.628
X112.014Y-80.772
X112.776Y-55.118
X112.776Y-57.658
X112.776Y-58.928
X112.776Y-60.198
X112.776Y-74.93
X113.284Y-72.898
X113.538Y-82.55
X114.046Y-56.388
X114.046Y-57.658
X114.046Y-58.928
X114.046Y-60.198
X114.3Y-76.708
X114.808Y-74.422
X115.062Y-84.328
X115.316Y-55.118
X115.316Y-56.388
X115.316Y-57.658
X115.316Y-58.928
X115.316Y-60.198
X116.078Y-78.232
X116.332Y-75.946
X116.586Y-55.118
X116.586Y-56.388
X116.586Y-57.658
X116.586Y-58.928
X116.586Y-60.198
X116.84Y-85.852
X117.348Y-79.756
X117.602Y-77.216
X117.856Y-55.118
X117.856Y-56.388
X117.856Y-57.658
X117.856Y-58.928
X117.856Y-60.198
X118.364Y-87.376
X119.126Y-55.118
X119.126Y-56.388
X119.126Y-57.658
X119.126Y-58.928
X119.126Y-60.198
X119.38Y-78.486
X119.38Y-81.534
X119.634Y-88.646
X120.396Y-55.118
X120.396Y-56.388
X120.396Y-57.658
X120.396Y-58.928
X120.396Y-60.198
X120.904Y-80.772
X121.158Y-87.63
X121.158Y-89.916
X121.666Y-55.118
X121.666Y-56.388
X121.666Y-57.658
X121.666Y-58.928
X121.666Y-60.198
X122.428Y-89.154
X122.936Y-55.118
X122.936Y-56.388
X122.936Y-57.658
X122.936Y-58.928
X122.936Y-60.198
X122.936Y-91.948
X124.206Y-55.118
X124.206Y-56.388
X124.206Y-57.658
X124.206Y-58.928
X124.206Y-60.198
X124.206Y-90.678
X124.46Y-93.472
X125.272Y-68.462
X125.476Y-55.118
X125.476Y-56.388
X125.476Y-57.658
X125.476Y-58.928
X125.476Y-60.198
X125.984Y-94.996
X126.238Y-92.71
X126.746Y-55.118
X126.746Y-56.388
X126.746Y-57.658
X126.746Y-58.928
X126.954Y-143.129
X127.508Y-93.98
X127.762Y-97.028
X128.016Y-55.118
X128.016Y-56.388
X128.016Y-57.658
X128.016Y-60.198
X129.286Y-55.118
X129.286Y-56.388
X129.286Y-58.928
X129.54Y-96.012
X129.54Y-98.552
X130.302Y-60.198
X130.556Y-55.118
X130.556Y-57.658
X131.064Y-97.536
X131.318Y-100.33
X131.572Y-58.928
X132.08Y-56.388
X132.08Y-60.452
X132.588Y-99.06
X132.588Y-101.6
X132.842Y-57.658
X133.604Y-59.436
X133.858Y-56.642
X134.62Y-103.632
X135.128Y-57.658
X135.89Y-102.362
X136.144Y-56.388
X136.144Y-59.436
X136.144Y-105.156
X137.16Y-103.632
X137.668Y-106.68
X137.922Y-57.658
X138.684Y-59.436
X139.444Y-72.053
X139.446Y-108.458
X139.7Y-57.658
X139.7Y-58.42
X139.7Y-59.436
X139.954Y-105.918
X140.073Y-138.45
X140.578Y-72.053
X140.716Y-57.658
X140.716Y-58.42
X140.716Y-59.436
X140.716Y-106.934
X140.716Y-109.728
X141.205Y-72.558
X141.732Y-57.658
X141.732Y-58.42
X141.732Y-59.436
X142.748Y-57.658
X142.748Y-58.42
X142.947Y-113.846
X143.51Y-109.22
X144.838Y-97.806
X145.523Y-99.381
X146.627Y-97.745
X147.613Y-143.086
X147.641Y-98.698
X150.241Y-141.859
X152.148Y-139.351
X152.456Y-95.377
X153.103Y-98.697
X160.326Y-104.713
X162.56Y-103.632
X162.56Y-106.172
X162.56Y-108.712
X162.56Y-109.982
X162.56Y-111.252
X162.56Y-112.522
X162.56Y-113.792
X162.56Y-115.062
X162.56Y-118.872
X162.56Y-123.698
X162.56Y-124.968
X162.56Y-126.238
X162.56Y-129.032
X162.56Y-130.302
X162.56Y-131.572
X162.56Y-132.842
X162.56Y-134.112
X162.56Y-135.382
X162.56Y-136.652
X162.56Y-137.922
X162.56Y-139.192
X162.56Y-140.462
X162.56Y-141.732
X162.596Y-97.409
X163.576Y-87.376
X163.83Y-103.632
X163.83Y-106.172
X163.83Y-107.442
X163.83Y-109.982
X163.83Y-111.252
X163.83Y-112.522
X163.83Y-113.792
X163.83Y-117.602
X163.83Y-118.872
X163.83Y-121.158
X163.83Y-122.428
X163.83Y-123.698
X163.83Y-124.968
X163.83Y-126.238
X163.83Y-129.032
X163.83Y-130.302
X163.83Y-131.572
X163.83Y-132.842
X163.83Y-134.112
X163.83Y-135.382
X163.83Y-136.652
X163.83Y-137.922
X163.83Y-139.192
X163.83Y-140.462
X163.83Y-141.732
X163.878Y-98.455
X164.084Y-53.848
X164.592Y-87.376
X165.1Y-53.848
X165.1Y-106.172
X165.1Y-107.442
X165.1Y-109.982
X165.1Y-111.252
X165.1Y-112.522
X165.1Y-116.332
X165.1Y-117.602
X165.1Y-118.872
X165.1Y-121.158
X165.1Y-122.428
X165.1Y-123.698
X165.1Y-124.968
X165.1Y-126.238
X165.1Y-129.032
X165.1Y-130.302
X165.1Y-131.572
X165.1Y-132.842
X165.1Y-134.112
X165.1Y-135.382
X165.1Y-136.652
X165.1Y-137.922
X165.1Y-139.192
X165.1Y-140.462
X165.1Y-143.002
X165.862Y-96.012
X166.116Y-53.848
X166.116Y-84.074
X166.116Y-87.376
X166.37Y-103.632
X166.37Y-106.172
X166.37Y-107.442
X166.37Y-109.982
X166.37Y-111.252
X166.37Y-115.062
X166.37Y-116.332
X166.37Y-117.602
X166.37Y-118.872
X166.37Y-121.158
X166.37Y-122.428
X166.37Y-123.698
X166.37Y-124.968
X166.37Y-126.238
X166.37Y-129.032
X166.37Y-130.302
X166.37Y-131.572
X166.37Y-132.842
X166.37Y-134.112
X166.37Y-135.382
X166.37Y-136.652
X166.37Y-137.922
X166.37Y-139.192
X166.37Y-141.732
X166.37Y-143.002
X166.624Y-96.774
X167.132Y-53.848
X167.64Y-103.632
X167.64Y-107.442
X167.64Y-109.982
X167.64Y-113.792
X167.64Y-115.062
X167.64Y-116.332
X167.64Y-117.602
X167.64Y-118.872
X167.64Y-121.158
X167.64Y-122.428
X167.64Y-123.698
X167.64Y-124.968
X167.64Y-126.238
X167.64Y-129.032
X167.64Y-130.302
X167.64Y-131.572
X167.64Y-132.842
X167.64Y-134.112
X167.64Y-135.382
X167.64Y-136.652
X167.64Y-137.922
X167.64Y-140.462
X167.64Y-141.732
X167.64Y-143.002
X167.894Y-82.296
X168.91Y-103.632
X168.91Y-106.172
X168.91Y-112.522
X168.91Y-113.792
X168.91Y-115.062
X168.91Y-116.332
X168.91Y-117.602
X168.91Y-118.872
X168.91Y-121.158
X168.91Y-122.428
X168.91Y-123.698
X168.91Y-124.968
X168.91Y-126.238
X168.91Y-129.032
X168.91Y-130.302
X168.91Y-131.572
X168.91Y-132.842
X168.91Y-134.112
X168.91Y-135.382
X168.91Y-136.652
X168.91Y-139.192
X168.91Y-140.462
X168.91Y-141.732
X168.91Y-143.002
X169.215Y-82.994
X169.856Y-90.049
X170.18Y-103.632
X170.18Y-106.172
X170.18Y-111.252
X170.18Y-112.522
X170.18Y-113.792
X170.18Y-115.062
X170.18Y-116.332
X170.18Y-117.602
X170.18Y-118.872
X170.18Y-121.158
X170.18Y-122.428
X170.18Y-123.698
X170.18Y-124.968
X170.18Y-126.238
X170.18Y-129.032
X170.18Y-130.302
X170.18Y-131.572
X170.18Y-132.842
X170.18Y-134.112
X170.18Y-135.382
X170.18Y-137.922
X170.18Y-139.192
X170.18Y-140.462
X170.18Y-141.732
X170.18Y-143.002
X170.519Y-99.108
X171.45Y-89.154
X171.45Y-103.632
X171.45Y-106.172
X171.45Y-109.982
X171.45Y-111.252
X171.45Y-112.522
X171.45Y-113.792
X171.45Y-115.062
X171.45Y-116.332
X171.45Y-117.602
X171.45Y-118.872
X171.45Y-121.158
X171.45Y-122.428
X171.45Y-123.698
X171.45Y-124.968
X171.45Y-126.238
X171.45Y-129.032
X171.45Y-130.302
X171.45Y-131.572
X171.45Y-132.842
X171.45Y-134.112
X171.45Y-136.652
X171.45Y-137.922
X171.45Y-139.192
X171.45Y-140.462
X171.45Y-141.732
X171.45Y-143.002
X171.704Y-78.74
X171.704Y-80.01
X171.704Y-81.28
X171.704Y-94.742
X171.704Y-96.774
X171.958Y-87.63
X172.72Y-104.902
X172.72Y-106.172
X172.72Y-109.982
X172.72Y-111.252
X172.72Y-112.522
X172.72Y-113.792
X172.72Y-115.062
X172.72Y-116.332
X172.72Y-117.602
X172.72Y-118.872
X172.72Y-121.158
X172.72Y-122.428
X172.72Y-123.698
X172.72Y-124.968
X172.72Y-126.238
X172.72Y-129.032
X172.72Y-130.302
X172.72Y-131.572
X172.72Y-132.842
X172.72Y-135.382
X172.72Y-136.652
X172.72Y-137.922
X172.72Y-139.192
X172.749Y-102.236
X172.803Y-89.432
X172.974Y-78.74
X172.974Y-80.01
X172.974Y-81.28
X173.228Y-53.848
X173.228Y-87.63
X173.482Y-94.742
X173.482Y-96.774
X173.651Y-101.329
X174.244Y-78.74
X174.244Y-80.01
X174.244Y-81.28
X174.392Y-89.424
X174.498Y-53.848
X175.26Y-94.742
X175.26Y-96.774
X175.768Y-53.848
X175.768Y-78.74
X175.768Y-80.01
X175.768Y-81.28
X176.066Y-73.074
X176.657Y-75.452
X176.69Y-101.994
X176.932Y-107.576
X176.983Y-129.804
X177.038Y-53.848
X177.038Y-94.742
X177.038Y-95.758
X177.146Y-88.25
X178.054Y-89.154
X178.054Y-95.758
X178.225Y-72.439
X178.308Y-53.848
X178.816Y-92.964
X179.578Y-53.848
X179.832Y-93.98
X180.086Y-91.694
X180.086Y-92.964
X180.848Y-53.848
X181.356Y-75.692
X181.356Y-77.216
X181.356Y-78.74
X181.356Y-80.264
X181.356Y-81.788
X181.356Y-83.312
X181.356Y-84.836
X182.118Y-53.848
X182.88Y-75.692
X182.88Y-77.216
X182.88Y-78.74
X182.88Y-80.264
X182.88Y-81.788
X182.88Y-83.312
X182.88Y-84.836
X183.388Y-53.848
X184.218Y-88.218
X184.658Y-53.848
X185.928Y-53.848
X187.198Y-53.848
X188.468Y-53.848
X189.738Y-53.848
X191.008Y-53.848
X191.008Y-88.9
X191.008Y-90.17
X191.008Y-91.44
X191.008Y-92.71
X191.008Y-93.98
X191.008Y-95.25
X191.008Y-96.52
X191.008Y-97.79
X191.008Y-99.314
X191.008Y-100.584
X191.008Y-101.854
X191.008Y-103.124
X191.008Y-104.394
X191.008Y-105.664
X191.008Y-106.934
X191.008Y-109.22
X191.008Y-110.49
X191.008Y-120.65
X191.008Y-121.92
X191.008Y-123.19
X191.008Y-124.46
X191.008Y-125.73
X191.008Y-127.0
X191.008Y-128.27
X191.008Y-129.54
X191.008Y-130.81
X191.008Y-132.08
X191.008Y-133.35
X191.008Y-134.62
X191.008Y-135.89
X191.008Y-137.16
X192.278Y-53.848
X192.278Y-88.9
X192.278Y-90.17
X192.278Y-91.44
X192.278Y-92.71
X192.278Y-93.98
X192.278Y-95.25
X192.278Y-96.52
X192.278Y-98.806
X192.278Y-109.22
X192.278Y-111.76
X192.278Y-113.03
X192.278Y-114.3
X192.278Y-115.57
X192.278Y-116.84
X192.278Y-118.11
X192.278Y-119.38
X192.278Y-120.65
X192.278Y-121.92
X192.278Y-130.81
X192.278Y-132.08
X192.278Y-133.35
X192.278Y-134.62
X192.278Y-135.89
X192.278Y-137.16
X193.548Y-53.848
X193.548Y-88.9
X193.548Y-90.17
X193.548Y-91.44
X193.548Y-92.71
X193.548Y-93.98
X193.548Y-95.25
X193.548Y-97.536
X193.548Y-107.95
X193.548Y-110.49
X193.548Y-111.76
X193.548Y-113.03
X193.548Y-114.3
X193.548Y-115.57
X193.548Y-116.84
X193.548Y-118.11
X193.548Y-119.38
X193.548Y-120.65
X193.548Y-129.54
X193.548Y-130.81
X193.548Y-132.08
X193.548Y-133.35
X193.548Y-134.62
X193.548Y-135.89
X194.818Y-53.848
X194.818Y-90.17
X194.818Y-91.44
X194.818Y-92.71
X194.818Y-93.98
X194.818Y-96.52
X194.818Y-106.68
X194.818Y-109.22
X194.818Y-110.49
X194.818Y-111.76
X194.818Y-113.03
X194.818Y-114.3
X194.818Y-115.57
X194.818Y-116.84
X194.818Y-118.11
X194.818Y-119.38
X194.818Y-120.65
X194.818Y-128.27
X194.818Y-129.54
X194.818Y-130.81
X194.818Y-132.08
X194.818Y-133.35
X194.818Y-134.62
X195.58Y-73.152
X195.58Y-74.168
X195.58Y-75.184
X195.58Y-76.2
X195.58Y-77.216
X196.088Y-53.848
X196.342Y-90.932
X196.562Y-80.338
X196.596Y-72.136
X196.596Y-73.152
X196.596Y-74.168
X196.596Y-75.184
X196.596Y-76.2
X196.596Y-77.216
X196.72Y-130.088
X197.039Y-144.486
X197.358Y-53.848
X197.612Y-90.424
X198.12Y-70.104
X198.12Y-71.12
X198.628Y-53.848
X198.882Y-91.44
X199.136Y-70.104
X199.136Y-71.12
X199.226Y-79.67
X199.31Y-131.21
X199.39Y-85.09
X199.898Y-53.848
X200.152Y-68.072
X200.152Y-69.088
X200.152Y-70.104
X200.152Y-71.12
X200.152Y-91.948
X200.269Y-77.722
X200.406Y-87.63
X201.168Y-53.848
X201.168Y-68.072
X201.168Y-69.088
X201.168Y-70.104
X201.168Y-71.12
X201.168Y-97.852
X201.168Y-110.49
X201.466Y-128.158
X202.184Y-68.072
X202.184Y-69.088
X202.184Y-70.104
X202.184Y-71.12
X202.212Y-119.311
X202.438Y-53.848
X203.2Y-68.072
X203.2Y-69.088
X203.2Y-70.104
X203.2Y-71.12
X203.708Y-53.848
X203.959Y-128.142
X204.216Y-68.072
X204.216Y-69.088
X204.216Y-70.104
X204.216Y-71.12
X204.978Y-53.848
X204.994Y-106.704
X205.232Y-68.072
X205.232Y-69.088
X206.248Y-53.848
X206.248Y-68.072
X206.248Y-69.088
X206.62Y-88.231
X207.264Y-68.072
X207.264Y-69.088
X207.518Y-53.848
X208.28Y-68.072
X208.28Y-69.088
X208.788Y-53.848
X209.296Y-68.072
X209.296Y-69.088
X210.058Y-53.848
X210.312Y-68.072
X210.312Y-69.088
X211.328Y-53.848
X211.328Y-68.072
X211.328Y-69.088
X211.836Y-116.84
X211.836Y-118.364
X211.836Y-119.634
X211.836Y-120.904
X211.836Y-122.174
X211.836Y-123.444
X211.836Y-124.714
X211.836Y-125.984
X211.836Y-127.254
X211.836Y-128.524
X211.836Y-129.794
X211.836Y-131.064
X211.836Y-132.334
X211.836Y-133.604
X211.836Y-134.874
X211.836Y-136.144
X211.836Y-137.414
X211.836Y-138.684
X211.836Y-139.954
X211.836Y-141.224
X211.836Y-142.494
X211.836Y-143.764
X211.836Y-145.034
X211.836Y-146.304
X212.344Y-69.088
X212.598Y-53.848
X213.106Y-59.944
X213.106Y-60.96
X213.106Y-61.976
X213.106Y-66.548
X213.106Y-67.564
X213.106Y-68.58
X213.106Y-71.374
X213.106Y-72.898
X213.106Y-74.168
X213.106Y-75.692
X213.106Y-76.708
X213.106Y-77.978
X213.106Y-79.248
X213.106Y-80.518
X213.106Y-81.788
X213.106Y-83.312
X213.106Y-84.328
X213.106Y-85.852
X213.106Y-86.868
X213.106Y-88.138
X213.106Y-90.678
X213.106Y-93.472
X213.106Y-94.488
X213.106Y-96.012
X213.106Y-97.028
X213.106Y-98.552
X213.106Y-99.568
X213.106Y-101.092
X213.106Y-102.108
X213.106Y-103.632
X213.106Y-104.648
X213.106Y-106.172
X213.106Y-107.188
X213.106Y-108.712
X213.106Y-109.728
X213.106Y-111.252
X213.106Y-112.268
X213.106Y-113.792
X213.106Y-114.808
X213.106Y-116.84
X213.106Y-118.364
X213.106Y-119.634
X213.106Y-120.904
X213.106Y-122.174
X213.106Y-123.444
X213.106Y-124.714
X213.106Y-125.984
X213.106Y-127.254
X213.106Y-128.524
X213.106Y-129.794
X213.106Y-131.064
X213.106Y-132.334
X213.106Y-133.604
X213.106Y-134.874
X213.106Y-136.144
X213.106Y-137.414
X213.106Y-138.684
X213.106Y-139.954
X213.106Y-141.224
X213.106Y-142.494
X213.106Y-143.764
X213.106Y-145.034
X213.106Y-146.304
X213.868Y-53.848
X214.376Y-59.944
X214.376Y-60.96
X214.376Y-61.976
X214.376Y-67.564
X214.376Y-68.58
X214.376Y-71.374
X214.376Y-72.898
X214.376Y-74.168
X214.376Y-75.692
X214.376Y-76.708
X214.376Y-77.978
X214.376Y-79.248
X214.376Y-80.518
X214.376Y-81.788
X214.376Y-83.312
X214.376Y-84.328
X214.376Y-85.852
X214.376Y-86.868
X214.376Y-88.138
X214.376Y-90.678
X214.376Y-93.472
X214.376Y-94.488
X214.376Y-96.012
X214.376Y-97.028
X214.376Y-98.552
X214.376Y-99.568
X214.376Y-101.092
X214.376Y-102.108
X214.376Y-103.632
X214.376Y-104.648
X214.376Y-106.172
X214.376Y-107.188
X214.376Y-108.712
X214.376Y-109.728
X214.376Y-111.252
X214.376Y-112.268
X214.376Y-113.792
X214.376Y-114.808
X214.376Y-116.84
X214.376Y-118.364
X214.376Y-119.634
X214.376Y-120.904
X214.376Y-122.174
X214.376Y-123.444
X214.376Y-124.714
X214.376Y-125.984
X214.376Y-127.254
X214.376Y-128.524
X214.376Y-129.794
X214.376Y-131.064
X214.376Y-132.334
X214.376Y-133.604
X214.376Y-134.874
X214.376Y-136.144
X214.376Y-137.414
X214.376Y-138.684
X214.376Y-139.954
X214.376Y-141.224
X214.376Y-142.494
X214.376Y-143.764
X214.376Y-145.034
X214.376Y-146.304
X215.138Y-53.848
X215.646Y-116.84
X215.646Y-118.364
X215.646Y-119.634
X215.646Y-120.904
X215.646Y-122.174
X215.646Y-123.444
X215.646Y-124.714
X215.646Y-125.984
X215.646Y-127.254
X215.646Y-128.524
X215.646Y-129.794
X215.646Y-131.064
X215.646Y-132.334
X215.646Y-133.604
X215.646Y-134.874
X215.646Y-136.144
X215.646Y-137.414
X215.646Y-138.684
X215.646Y-139.954
X215.646Y-141.224
X215.646Y-142.494
X215.646Y-143.764
X215.646Y-145.034
X215.646Y-146.304
X216.408Y-53.848
X217.424Y-53.848
X218.44Y-53.848
X221.488Y-59.436
X221.488Y-60.706
X221.488Y-61.976
X221.488Y-63.246
X221.488Y-64.516
X221.488Y-65.786
X221.488Y-67.056
X221.488Y-68.326
X221.488Y-69.596
X221.488Y-70.866
X221.488Y-72.136
X221.488Y-73.406
X221.488Y-74.676
X221.488Y-75.946
X221.488Y-77.216
X221.488Y-78.486
X221.488Y-79.756
X221.488Y-81.026
X221.488Y-82.296
X221.488Y-83.566
X221.488Y-84.836
X221.488Y-86.106
X221.488Y-87.376
X221.488Y-88.646
X221.488Y-89.916
X221.488Y-91.186
X221.488Y-92.456
X221.488Y-93.726
X221.488Y-94.996
X221.488Y-96.266
X221.488Y-97.536
X221.488Y-98.806
X221.488Y-100.076
X221.488Y-101.346
X221.488Y-102.616
X221.488Y-103.886
X221.488Y-105.156
X221.488Y-106.426
X221.488Y-107.696
X221.488Y-108.966
X221.488Y-110.236
X221.488Y-111.506
X221.488Y-112.776
X221.488Y-114.046
X221.488Y-115.316
X221.488Y-116.586
X221.488Y-117.856
X221.488Y-119.126
X221.488Y-120.396
X221.488Y-121.666
X221.488Y-122.936
X221.488Y-124.206
X221.488Y-125.476
X221.488Y-126.746
X221.488Y-128.016
X221.488Y-129.286
X221.488Y-130.556
X221.488Y-131.826
X221.488Y-133.096
X221.488Y-134.366
X221.488Y-135.636
X221.488Y-136.906
X221.488Y-138.176
X221.488Y-139.446
X221.488Y-140.716
X221.488Y-141.732
X222.758Y-59.436
X222.758Y-60.706
X222.758Y-61.976
X222.758Y-63.246
X222.758Y-64.516
X222.758Y-65.786
X222.758Y-67.056
X222.758Y-68.326
X222.758Y-69.596
X222.758Y-70.866
X222.758Y-72.136
X222.758Y-73.406
X222.758Y-74.676
X222.758Y-75.946
X222.758Y-77.216
X222.758Y-78.486
X222.758Y-79.756
X222.758Y-81.026
X222.758Y-82.296
X222.758Y-83.566
X222.758Y-84.836
X222.758Y-86.106
X222.758Y-87.376
X222.758Y-88.646
X222.758Y-89.916
X222.758Y-91.186
X222.758Y-92.456
X222.758Y-93.726
X222.758Y-94.996
X222.758Y-96.266
X222.758Y-97.536
X222.758Y-98.806
X222.758Y-100.076
X222.758Y-101.346
X222.758Y-102.616
X222.758Y-103.886
X222.758Y-105.156
X222.758Y-106.426
X222.758Y-107.696
X222.758Y-108.966
X222.758Y-110.236
X222.758Y-111.506
X222.758Y-112.776
X222.758Y-114.046
X222.758Y-115.316
X222.758Y-116.586
X222.758Y-117.856
X222.758Y-119.126
X222.758Y-120.396
X222.758Y-121.666
X222.758Y-122.936
X222.758Y-124.206
X222.758Y-125.476
X222.758Y-126.746
X222.758Y-128.016
X222.758Y-129.286
X222.758Y-130.556
X222.758Y-131.826
X222.758Y-133.096
X222.758Y-134.366
X222.758Y-135.636
X222.758Y-136.906
X222.758Y-138.176
X222.758Y-139.446
X222.758Y-140.716
X222.758Y-141.732
X224.028Y-59.436
X224.028Y-60.706
X224.028Y-61.976
X224.028Y-63.246
X224.028Y-64.516
X224.028Y-65.786
X224.028Y-67.056
X224.028Y-68.326
X224.028Y-69.596
X224.028Y-70.866
X224.028Y-72.136
X224.028Y-73.406
X224.028Y-74.676
X224.028Y-75.946
X224.028Y-77.216
X224.028Y-78.486
X224.028Y-79.756
X224.028Y-81.026
X224.028Y-82.296
X224.028Y-83.566
X224.028Y-84.836
X224.028Y-86.106
X224.028Y-87.376
X224.028Y-88.646
X224.028Y-89.916
X224.028Y-91.186
X224.028Y-92.456
X224.028Y-93.726
X224.028Y-94.996
X224.028Y-96.266
X224.028Y-97.536
X224.028Y-98.806
X224.028Y-100.076
X224.028Y-101.346
X224.028Y-102.616
X224.028Y-103.886
X224.028Y-105.156
X224.028Y-106.426
X224.028Y-107.696
X224.028Y-108.966
X224.028Y-110.236
X224.028Y-111.506
X224.028Y-112.776
X224.028Y-114.046
X224.028Y-115.316
X224.028Y-116.586
X224.028Y-117.856
X224.028Y-119.126
X224.028Y-120.396
X224.028Y-121.666
X224.028Y-122.936
X224.028Y-124.206
X224.028Y-125.476
X224.028Y-126.746
X224.028Y-128.016
X224.028Y-129.286
X224.028Y-130.556
X224.028Y-131.826
X224.028Y-133.096
X224.028Y-134.366
X224.028Y-135.636
X224.028Y-136.906
X224.028Y-138.176
X224.028Y-139.446
X224.028Y-140.716
X224.028Y-141.732
T2
X132.679Y-139.27
X139.859Y-136.767
X152.4Y-59.69
X152.4Y-60.706
X156.21Y-59.69
X156.21Y-60.706
X170.503Y-86.666
X184.641Y-127.062
X185.563Y-90.465
X185.633Y-109.831
X187.464Y-138.364
X199.164Y-129.403
T3
X189.484Y-140.716
X189.484Y-143.256
X195.58Y-140.716
X195.58Y-143.256
X183.896Y-140.716
X183.896Y-143.256
T4
X68.0Y-126.5
X68.0Y-131.0
T5
X217.17Y-60.96
X217.17Y-63.5
X217.17Y-66.04
X217.17Y-68.58
X217.17Y-71.12
X217.17Y-73.66
X217.17Y-76.2
X217.17Y-78.74
X217.17Y-81.28
X217.17Y-83.82
X217.17Y-86.36
X217.17Y-88.9
X217.17Y-91.44
X217.17Y-93.98
X217.17Y-96.52
X217.17Y-99.06
X217.17Y-101.6
X217.17Y-104.14
X217.17Y-106.68
X217.17Y-109.22
X217.17Y-111.76
X217.17Y-114.3
X217.17Y-116.84
X217.17Y-119.38
X217.17Y-121.92
X217.17Y-124.46
X217.17Y-127.0
X217.17Y-129.54
X217.17Y-132.08
X217.17Y-134.62
X217.17Y-137.16
X217.17Y-139.7
X219.71Y-60.96
X219.71Y-63.5
X219.71Y-66.04
X219.71Y-68.58
X219.71Y-71.12
X219.71Y-73.66
X219.71Y-76.2
X219.71Y-78.74
X219.71Y-81.28
X219.71Y-83.82
X219.71Y-86.36
X219.71Y-88.9
X219.71Y-91.44
X219.71Y-93.98
X219.71Y-96.52
X219.71Y-99.06
X219.71Y-101.6
X219.71Y-104.14
X219.71Y-106.68
X219.71Y-109.22
X219.71Y-111.76
X219.71Y-114.3
X219.71Y-116.84
X219.71Y-119.38
X219.71Y-121.92
X219.71Y-124.46
X219.71Y-127.0
X219.71Y-129.54
X219.71Y-132.08
X219.71Y-134.62
X219.71Y-137.16
X219.71Y-139.7
T6
X92.37Y-63.5
X92.37Y-66.04
X94.91Y-63.5
X94.91Y-66.04
X97.45Y-63.5
X97.45Y-66.04
X99.99Y-63.5
X99.99Y-66.04
X102.53Y-63.5
X102.53Y-66.04
X105.07Y-63.5
X105.07Y-66.04
X107.61Y-63.5
X107.61Y-66.04
X110.15Y-63.5
X110.15Y-66.04
X112.69Y-63.5
X112.69Y-66.04
X115.23Y-63.5
X115.23Y-66.04
X117.77Y-63.5
X117.77Y-66.04
X120.31Y-63.5
X120.31Y-66.04
X122.85Y-63.5
X122.85Y-66.04
X125.39Y-63.5
X125.39Y-66.04
X127.93Y-63.5
X127.93Y-66.04
X130.47Y-63.5
X130.47Y-66.04
X133.01Y-63.5
X133.01Y-66.04
X134.1Y-96.77
X135.55Y-63.5
X135.55Y-66.04
X137.0Y-96.77
X138.09Y-63.5
X138.09Y-66.04
X139.9Y-96.77
X140.63Y-63.5
X140.63Y-66.04
T7
X70.49Y-125.24
X70.49Y-132.25
T8
X183.976Y-64.008
X193.976Y-64.008
X170.688Y-56.976
X170.688Y-66.976
T9
X68.57Y-55.55
X68.57Y-144.45
T0
M30
