G04 #@! TF.GenerationSoftware,KiCad,Pcbnew,(5.1.5)-3*
G04 #@! TF.CreationDate,2020-06-07T12:27:59+08:00*
G04 #@! TF.ProjectId,HEMAC_MCU,48454d41-435f-44d4-9355-2e6b69636164,rev?*
G04 #@! TF.SameCoordinates,Original*
G04 #@! TF.FileFunction,Soldermask,Top*
G04 #@! TF.FilePolarity,Negative*
%FSLAX46Y46*%
G04 Gerber Fmt 4.6, Leading zero omitted, Abs format (unit mm)*
G04 Created by KiCad (PCBNEW (5.1.5)-3) date 2020-06-07 12:27:59*
%MOMM*%
%LPD*%
G04 APERTURE LIST*
%ADD10C,0.150000*%
%ADD11C,3.200000*%
%ADD12C,2.100000*%
%ADD13R,2.100000X2.100000*%
%ADD14R,6.400000X5.400000*%
%ADD15C,0.100000*%
%ADD16R,2.300000X1.000000*%
%ADD17R,2.200000X2.200000*%
%ADD18C,2.200000*%
%ADD19C,2.150000*%
%ADD20R,2.150000X2.150000*%
%ADD21C,3.150000*%
%ADD22C,3.400000*%
%ADD23C,2.500000*%
%ADD24R,1.000000X2.700000*%
%ADD25R,2.800000X1.000000*%
%ADD26R,1.700000X2.900000*%
%ADD27R,1.650000X1.700000*%
%ADD28R,1.700000X1.650000*%
%ADD29R,1.600000X1.200000*%
%ADD30R,1.600000X2.900000*%
%ADD31R,1.300000X1.700000*%
%ADD32R,1.700000X1.300000*%
%ADD33R,2.900000X1.600000*%
G04 APERTURE END LIST*
D10*
G36*
X225000000Y-150000000D02*
G01*
X65000000Y-150000000D01*
X65000000Y-147000000D01*
X225000000Y-147000000D01*
X225000000Y-150000000D01*
G37*
X225000000Y-150000000D02*
X65000000Y-150000000D01*
X65000000Y-147000000D01*
X225000000Y-147000000D01*
X225000000Y-150000000D01*
G36*
X225000000Y-53000000D02*
G01*
X65000000Y-53000000D01*
X65000000Y-50000000D01*
X225000000Y-50000000D01*
X225000000Y-53000000D01*
G37*
X225000000Y-53000000D02*
X65000000Y-53000000D01*
X65000000Y-50000000D01*
X225000000Y-50000000D01*
X225000000Y-53000000D01*
G36*
X219810000Y-58260000D02*
G01*
X224960000Y-58260000D01*
X224960000Y-53360000D01*
X219810000Y-53360000D01*
X219810000Y-58260000D01*
G37*
X219810000Y-58260000D02*
X224960000Y-58260000D01*
X224960000Y-53360000D01*
X219810000Y-53360000D01*
X219810000Y-58260000D01*
G36*
X219810000Y-147260000D02*
G01*
X224960000Y-147260000D01*
X224960000Y-142360000D01*
X219810000Y-142360000D01*
X219810000Y-147260000D01*
G37*
X219810000Y-147260000D02*
X224960000Y-147260000D01*
X224960000Y-142360000D01*
X219810000Y-142360000D01*
X219810000Y-147260000D01*
D11*
X222250000Y-144780000D03*
X222250000Y-55880000D03*
D12*
X217170000Y-139700000D03*
X219710000Y-139700000D03*
X217170000Y-137160000D03*
X219710000Y-137160000D03*
X217170000Y-134620000D03*
X219710000Y-134620000D03*
X217170000Y-132080000D03*
X219710000Y-132080000D03*
X217170000Y-129540000D03*
X219710000Y-129540000D03*
X217170000Y-127000000D03*
X219710000Y-127000000D03*
X217170000Y-124460000D03*
X219710000Y-124460000D03*
X217170000Y-121920000D03*
X219710000Y-121920000D03*
X217170000Y-119380000D03*
X219710000Y-119380000D03*
X217170000Y-116840000D03*
X219710000Y-116840000D03*
X217170000Y-114300000D03*
X219710000Y-114300000D03*
X217170000Y-111760000D03*
X219710000Y-111760000D03*
X217170000Y-109220000D03*
X219710000Y-109220000D03*
X217170000Y-106680000D03*
X219710000Y-106680000D03*
X217170000Y-104140000D03*
X219710000Y-104140000D03*
X217170000Y-101600000D03*
X219710000Y-101600000D03*
X217170000Y-99060000D03*
X219710000Y-99060000D03*
X217170000Y-96520000D03*
X219710000Y-96520000D03*
X217170000Y-93980000D03*
X219710000Y-93980000D03*
X217170000Y-91440000D03*
X219710000Y-91440000D03*
X217170000Y-88900000D03*
X219710000Y-88900000D03*
X217170000Y-86360000D03*
X219710000Y-86360000D03*
X217170000Y-83820000D03*
X219710000Y-83820000D03*
X217170000Y-81280000D03*
X219710000Y-81280000D03*
X217170000Y-78740000D03*
X219710000Y-78740000D03*
X217170000Y-76200000D03*
X219710000Y-76200000D03*
X217170000Y-73660000D03*
X219710000Y-73660000D03*
X217170000Y-71120000D03*
X219710000Y-71120000D03*
X217170000Y-68580000D03*
X219710000Y-68580000D03*
X217170000Y-66040000D03*
X219710000Y-66040000D03*
X217170000Y-63500000D03*
X219710000Y-63500000D03*
X217170000Y-60960000D03*
D13*
X219710000Y-60960000D03*
D14*
X68000000Y-55550000D03*
X68000000Y-144450000D03*
D15*
G36*
X160596504Y-93608204D02*
G01*
X160620773Y-93611804D01*
X160644571Y-93617765D01*
X160667671Y-93626030D01*
X160689849Y-93636520D01*
X160710893Y-93649133D01*
X160730598Y-93663747D01*
X160748777Y-93680223D01*
X160765253Y-93698402D01*
X160779867Y-93718107D01*
X160792480Y-93739151D01*
X160802970Y-93761329D01*
X160811235Y-93784429D01*
X160817196Y-93808227D01*
X160820796Y-93832496D01*
X160822000Y-93857000D01*
X160822000Y-94357000D01*
X160820796Y-94381504D01*
X160817196Y-94405773D01*
X160811235Y-94429571D01*
X160802970Y-94452671D01*
X160792480Y-94474849D01*
X160779867Y-94495893D01*
X160765253Y-94515598D01*
X160748777Y-94533777D01*
X160730598Y-94550253D01*
X160710893Y-94564867D01*
X160689849Y-94577480D01*
X160667671Y-94587970D01*
X160644571Y-94596235D01*
X160620773Y-94602196D01*
X160596504Y-94605796D01*
X160572000Y-94607000D01*
X158772000Y-94607000D01*
X158747496Y-94605796D01*
X158723227Y-94602196D01*
X158699429Y-94596235D01*
X158676329Y-94587970D01*
X158654151Y-94577480D01*
X158633107Y-94564867D01*
X158613402Y-94550253D01*
X158595223Y-94533777D01*
X158578747Y-94515598D01*
X158564133Y-94495893D01*
X158551520Y-94474849D01*
X158541030Y-94452671D01*
X158532765Y-94429571D01*
X158526804Y-94405773D01*
X158523204Y-94381504D01*
X158522000Y-94357000D01*
X158522000Y-93857000D01*
X158523204Y-93832496D01*
X158526804Y-93808227D01*
X158532765Y-93784429D01*
X158541030Y-93761329D01*
X158551520Y-93739151D01*
X158564133Y-93718107D01*
X158578747Y-93698402D01*
X158595223Y-93680223D01*
X158613402Y-93663747D01*
X158633107Y-93649133D01*
X158654151Y-93636520D01*
X158676329Y-93626030D01*
X158699429Y-93617765D01*
X158723227Y-93611804D01*
X158747496Y-93608204D01*
X158772000Y-93607000D01*
X160572000Y-93607000D01*
X160596504Y-93608204D01*
G37*
G36*
X160596504Y-94878204D02*
G01*
X160620773Y-94881804D01*
X160644571Y-94887765D01*
X160667671Y-94896030D01*
X160689849Y-94906520D01*
X160710893Y-94919133D01*
X160730598Y-94933747D01*
X160748777Y-94950223D01*
X160765253Y-94968402D01*
X160779867Y-94988107D01*
X160792480Y-95009151D01*
X160802970Y-95031329D01*
X160811235Y-95054429D01*
X160817196Y-95078227D01*
X160820796Y-95102496D01*
X160822000Y-95127000D01*
X160822000Y-95627000D01*
X160820796Y-95651504D01*
X160817196Y-95675773D01*
X160811235Y-95699571D01*
X160802970Y-95722671D01*
X160792480Y-95744849D01*
X160779867Y-95765893D01*
X160765253Y-95785598D01*
X160748777Y-95803777D01*
X160730598Y-95820253D01*
X160710893Y-95834867D01*
X160689849Y-95847480D01*
X160667671Y-95857970D01*
X160644571Y-95866235D01*
X160620773Y-95872196D01*
X160596504Y-95875796D01*
X160572000Y-95877000D01*
X158772000Y-95877000D01*
X158747496Y-95875796D01*
X158723227Y-95872196D01*
X158699429Y-95866235D01*
X158676329Y-95857970D01*
X158654151Y-95847480D01*
X158633107Y-95834867D01*
X158613402Y-95820253D01*
X158595223Y-95803777D01*
X158578747Y-95785598D01*
X158564133Y-95765893D01*
X158551520Y-95744849D01*
X158541030Y-95722671D01*
X158532765Y-95699571D01*
X158526804Y-95675773D01*
X158523204Y-95651504D01*
X158522000Y-95627000D01*
X158522000Y-95127000D01*
X158523204Y-95102496D01*
X158526804Y-95078227D01*
X158532765Y-95054429D01*
X158541030Y-95031329D01*
X158551520Y-95009151D01*
X158564133Y-94988107D01*
X158578747Y-94968402D01*
X158595223Y-94950223D01*
X158613402Y-94933747D01*
X158633107Y-94919133D01*
X158654151Y-94906520D01*
X158676329Y-94896030D01*
X158699429Y-94887765D01*
X158723227Y-94881804D01*
X158747496Y-94878204D01*
X158772000Y-94877000D01*
X160572000Y-94877000D01*
X160596504Y-94878204D01*
G37*
G36*
X160596504Y-96148204D02*
G01*
X160620773Y-96151804D01*
X160644571Y-96157765D01*
X160667671Y-96166030D01*
X160689849Y-96176520D01*
X160710893Y-96189133D01*
X160730598Y-96203747D01*
X160748777Y-96220223D01*
X160765253Y-96238402D01*
X160779867Y-96258107D01*
X160792480Y-96279151D01*
X160802970Y-96301329D01*
X160811235Y-96324429D01*
X160817196Y-96348227D01*
X160820796Y-96372496D01*
X160822000Y-96397000D01*
X160822000Y-96897000D01*
X160820796Y-96921504D01*
X160817196Y-96945773D01*
X160811235Y-96969571D01*
X160802970Y-96992671D01*
X160792480Y-97014849D01*
X160779867Y-97035893D01*
X160765253Y-97055598D01*
X160748777Y-97073777D01*
X160730598Y-97090253D01*
X160710893Y-97104867D01*
X160689849Y-97117480D01*
X160667671Y-97127970D01*
X160644571Y-97136235D01*
X160620773Y-97142196D01*
X160596504Y-97145796D01*
X160572000Y-97147000D01*
X158772000Y-97147000D01*
X158747496Y-97145796D01*
X158723227Y-97142196D01*
X158699429Y-97136235D01*
X158676329Y-97127970D01*
X158654151Y-97117480D01*
X158633107Y-97104867D01*
X158613402Y-97090253D01*
X158595223Y-97073777D01*
X158578747Y-97055598D01*
X158564133Y-97035893D01*
X158551520Y-97014849D01*
X158541030Y-96992671D01*
X158532765Y-96969571D01*
X158526804Y-96945773D01*
X158523204Y-96921504D01*
X158522000Y-96897000D01*
X158522000Y-96397000D01*
X158523204Y-96372496D01*
X158526804Y-96348227D01*
X158532765Y-96324429D01*
X158541030Y-96301329D01*
X158551520Y-96279151D01*
X158564133Y-96258107D01*
X158578747Y-96238402D01*
X158595223Y-96220223D01*
X158613402Y-96203747D01*
X158633107Y-96189133D01*
X158654151Y-96176520D01*
X158676329Y-96166030D01*
X158699429Y-96157765D01*
X158723227Y-96151804D01*
X158747496Y-96148204D01*
X158772000Y-96147000D01*
X160572000Y-96147000D01*
X160596504Y-96148204D01*
G37*
G36*
X160596504Y-97418204D02*
G01*
X160620773Y-97421804D01*
X160644571Y-97427765D01*
X160667671Y-97436030D01*
X160689849Y-97446520D01*
X160710893Y-97459133D01*
X160730598Y-97473747D01*
X160748777Y-97490223D01*
X160765253Y-97508402D01*
X160779867Y-97528107D01*
X160792480Y-97549151D01*
X160802970Y-97571329D01*
X160811235Y-97594429D01*
X160817196Y-97618227D01*
X160820796Y-97642496D01*
X160822000Y-97667000D01*
X160822000Y-98167000D01*
X160820796Y-98191504D01*
X160817196Y-98215773D01*
X160811235Y-98239571D01*
X160802970Y-98262671D01*
X160792480Y-98284849D01*
X160779867Y-98305893D01*
X160765253Y-98325598D01*
X160748777Y-98343777D01*
X160730598Y-98360253D01*
X160710893Y-98374867D01*
X160689849Y-98387480D01*
X160667671Y-98397970D01*
X160644571Y-98406235D01*
X160620773Y-98412196D01*
X160596504Y-98415796D01*
X160572000Y-98417000D01*
X158772000Y-98417000D01*
X158747496Y-98415796D01*
X158723227Y-98412196D01*
X158699429Y-98406235D01*
X158676329Y-98397970D01*
X158654151Y-98387480D01*
X158633107Y-98374867D01*
X158613402Y-98360253D01*
X158595223Y-98343777D01*
X158578747Y-98325598D01*
X158564133Y-98305893D01*
X158551520Y-98284849D01*
X158541030Y-98262671D01*
X158532765Y-98239571D01*
X158526804Y-98215773D01*
X158523204Y-98191504D01*
X158522000Y-98167000D01*
X158522000Y-97667000D01*
X158523204Y-97642496D01*
X158526804Y-97618227D01*
X158532765Y-97594429D01*
X158541030Y-97571329D01*
X158551520Y-97549151D01*
X158564133Y-97528107D01*
X158578747Y-97508402D01*
X158595223Y-97490223D01*
X158613402Y-97473747D01*
X158633107Y-97459133D01*
X158654151Y-97446520D01*
X158676329Y-97436030D01*
X158699429Y-97427765D01*
X158723227Y-97421804D01*
X158747496Y-97418204D01*
X158772000Y-97417000D01*
X160572000Y-97417000D01*
X160596504Y-97418204D01*
G37*
G36*
X155196504Y-97418204D02*
G01*
X155220773Y-97421804D01*
X155244571Y-97427765D01*
X155267671Y-97436030D01*
X155289849Y-97446520D01*
X155310893Y-97459133D01*
X155330598Y-97473747D01*
X155348777Y-97490223D01*
X155365253Y-97508402D01*
X155379867Y-97528107D01*
X155392480Y-97549151D01*
X155402970Y-97571329D01*
X155411235Y-97594429D01*
X155417196Y-97618227D01*
X155420796Y-97642496D01*
X155422000Y-97667000D01*
X155422000Y-98167000D01*
X155420796Y-98191504D01*
X155417196Y-98215773D01*
X155411235Y-98239571D01*
X155402970Y-98262671D01*
X155392480Y-98284849D01*
X155379867Y-98305893D01*
X155365253Y-98325598D01*
X155348777Y-98343777D01*
X155330598Y-98360253D01*
X155310893Y-98374867D01*
X155289849Y-98387480D01*
X155267671Y-98397970D01*
X155244571Y-98406235D01*
X155220773Y-98412196D01*
X155196504Y-98415796D01*
X155172000Y-98417000D01*
X153372000Y-98417000D01*
X153347496Y-98415796D01*
X153323227Y-98412196D01*
X153299429Y-98406235D01*
X153276329Y-98397970D01*
X153254151Y-98387480D01*
X153233107Y-98374867D01*
X153213402Y-98360253D01*
X153195223Y-98343777D01*
X153178747Y-98325598D01*
X153164133Y-98305893D01*
X153151520Y-98284849D01*
X153141030Y-98262671D01*
X153132765Y-98239571D01*
X153126804Y-98215773D01*
X153123204Y-98191504D01*
X153122000Y-98167000D01*
X153122000Y-97667000D01*
X153123204Y-97642496D01*
X153126804Y-97618227D01*
X153132765Y-97594429D01*
X153141030Y-97571329D01*
X153151520Y-97549151D01*
X153164133Y-97528107D01*
X153178747Y-97508402D01*
X153195223Y-97490223D01*
X153213402Y-97473747D01*
X153233107Y-97459133D01*
X153254151Y-97446520D01*
X153276329Y-97436030D01*
X153299429Y-97427765D01*
X153323227Y-97421804D01*
X153347496Y-97418204D01*
X153372000Y-97417000D01*
X155172000Y-97417000D01*
X155196504Y-97418204D01*
G37*
G36*
X155196504Y-96148204D02*
G01*
X155220773Y-96151804D01*
X155244571Y-96157765D01*
X155267671Y-96166030D01*
X155289849Y-96176520D01*
X155310893Y-96189133D01*
X155330598Y-96203747D01*
X155348777Y-96220223D01*
X155365253Y-96238402D01*
X155379867Y-96258107D01*
X155392480Y-96279151D01*
X155402970Y-96301329D01*
X155411235Y-96324429D01*
X155417196Y-96348227D01*
X155420796Y-96372496D01*
X155422000Y-96397000D01*
X155422000Y-96897000D01*
X155420796Y-96921504D01*
X155417196Y-96945773D01*
X155411235Y-96969571D01*
X155402970Y-96992671D01*
X155392480Y-97014849D01*
X155379867Y-97035893D01*
X155365253Y-97055598D01*
X155348777Y-97073777D01*
X155330598Y-97090253D01*
X155310893Y-97104867D01*
X155289849Y-97117480D01*
X155267671Y-97127970D01*
X155244571Y-97136235D01*
X155220773Y-97142196D01*
X155196504Y-97145796D01*
X155172000Y-97147000D01*
X153372000Y-97147000D01*
X153347496Y-97145796D01*
X153323227Y-97142196D01*
X153299429Y-97136235D01*
X153276329Y-97127970D01*
X153254151Y-97117480D01*
X153233107Y-97104867D01*
X153213402Y-97090253D01*
X153195223Y-97073777D01*
X153178747Y-97055598D01*
X153164133Y-97035893D01*
X153151520Y-97014849D01*
X153141030Y-96992671D01*
X153132765Y-96969571D01*
X153126804Y-96945773D01*
X153123204Y-96921504D01*
X153122000Y-96897000D01*
X153122000Y-96397000D01*
X153123204Y-96372496D01*
X153126804Y-96348227D01*
X153132765Y-96324429D01*
X153141030Y-96301329D01*
X153151520Y-96279151D01*
X153164133Y-96258107D01*
X153178747Y-96238402D01*
X153195223Y-96220223D01*
X153213402Y-96203747D01*
X153233107Y-96189133D01*
X153254151Y-96176520D01*
X153276329Y-96166030D01*
X153299429Y-96157765D01*
X153323227Y-96151804D01*
X153347496Y-96148204D01*
X153372000Y-96147000D01*
X155172000Y-96147000D01*
X155196504Y-96148204D01*
G37*
G36*
X155196504Y-94878204D02*
G01*
X155220773Y-94881804D01*
X155244571Y-94887765D01*
X155267671Y-94896030D01*
X155289849Y-94906520D01*
X155310893Y-94919133D01*
X155330598Y-94933747D01*
X155348777Y-94950223D01*
X155365253Y-94968402D01*
X155379867Y-94988107D01*
X155392480Y-95009151D01*
X155402970Y-95031329D01*
X155411235Y-95054429D01*
X155417196Y-95078227D01*
X155420796Y-95102496D01*
X155422000Y-95127000D01*
X155422000Y-95627000D01*
X155420796Y-95651504D01*
X155417196Y-95675773D01*
X155411235Y-95699571D01*
X155402970Y-95722671D01*
X155392480Y-95744849D01*
X155379867Y-95765893D01*
X155365253Y-95785598D01*
X155348777Y-95803777D01*
X155330598Y-95820253D01*
X155310893Y-95834867D01*
X155289849Y-95847480D01*
X155267671Y-95857970D01*
X155244571Y-95866235D01*
X155220773Y-95872196D01*
X155196504Y-95875796D01*
X155172000Y-95877000D01*
X153372000Y-95877000D01*
X153347496Y-95875796D01*
X153323227Y-95872196D01*
X153299429Y-95866235D01*
X153276329Y-95857970D01*
X153254151Y-95847480D01*
X153233107Y-95834867D01*
X153213402Y-95820253D01*
X153195223Y-95803777D01*
X153178747Y-95785598D01*
X153164133Y-95765893D01*
X153151520Y-95744849D01*
X153141030Y-95722671D01*
X153132765Y-95699571D01*
X153126804Y-95675773D01*
X153123204Y-95651504D01*
X153122000Y-95627000D01*
X153122000Y-95127000D01*
X153123204Y-95102496D01*
X153126804Y-95078227D01*
X153132765Y-95054429D01*
X153141030Y-95031329D01*
X153151520Y-95009151D01*
X153164133Y-94988107D01*
X153178747Y-94968402D01*
X153195223Y-94950223D01*
X153213402Y-94933747D01*
X153233107Y-94919133D01*
X153254151Y-94906520D01*
X153276329Y-94896030D01*
X153299429Y-94887765D01*
X153323227Y-94881804D01*
X153347496Y-94878204D01*
X153372000Y-94877000D01*
X155172000Y-94877000D01*
X155196504Y-94878204D01*
G37*
D16*
X154272000Y-94107000D03*
D15*
G36*
X146372504Y-138820204D02*
G01*
X146396773Y-138823804D01*
X146420571Y-138829765D01*
X146443671Y-138838030D01*
X146465849Y-138848520D01*
X146486893Y-138861133D01*
X146506598Y-138875747D01*
X146524777Y-138892223D01*
X146541253Y-138910402D01*
X146555867Y-138930107D01*
X146568480Y-138951151D01*
X146578970Y-138973329D01*
X146587235Y-138996429D01*
X146593196Y-139020227D01*
X146596796Y-139044496D01*
X146598000Y-139069000D01*
X146598000Y-139569000D01*
X146596796Y-139593504D01*
X146593196Y-139617773D01*
X146587235Y-139641571D01*
X146578970Y-139664671D01*
X146568480Y-139686849D01*
X146555867Y-139707893D01*
X146541253Y-139727598D01*
X146524777Y-139745777D01*
X146506598Y-139762253D01*
X146486893Y-139776867D01*
X146465849Y-139789480D01*
X146443671Y-139799970D01*
X146420571Y-139808235D01*
X146396773Y-139814196D01*
X146372504Y-139817796D01*
X146348000Y-139819000D01*
X144548000Y-139819000D01*
X144523496Y-139817796D01*
X144499227Y-139814196D01*
X144475429Y-139808235D01*
X144452329Y-139799970D01*
X144430151Y-139789480D01*
X144409107Y-139776867D01*
X144389402Y-139762253D01*
X144371223Y-139745777D01*
X144354747Y-139727598D01*
X144340133Y-139707893D01*
X144327520Y-139686849D01*
X144317030Y-139664671D01*
X144308765Y-139641571D01*
X144302804Y-139617773D01*
X144299204Y-139593504D01*
X144298000Y-139569000D01*
X144298000Y-139069000D01*
X144299204Y-139044496D01*
X144302804Y-139020227D01*
X144308765Y-138996429D01*
X144317030Y-138973329D01*
X144327520Y-138951151D01*
X144340133Y-138930107D01*
X144354747Y-138910402D01*
X144371223Y-138892223D01*
X144389402Y-138875747D01*
X144409107Y-138861133D01*
X144430151Y-138848520D01*
X144452329Y-138838030D01*
X144475429Y-138829765D01*
X144499227Y-138823804D01*
X144523496Y-138820204D01*
X144548000Y-138819000D01*
X146348000Y-138819000D01*
X146372504Y-138820204D01*
G37*
G36*
X146372504Y-140090204D02*
G01*
X146396773Y-140093804D01*
X146420571Y-140099765D01*
X146443671Y-140108030D01*
X146465849Y-140118520D01*
X146486893Y-140131133D01*
X146506598Y-140145747D01*
X146524777Y-140162223D01*
X146541253Y-140180402D01*
X146555867Y-140200107D01*
X146568480Y-140221151D01*
X146578970Y-140243329D01*
X146587235Y-140266429D01*
X146593196Y-140290227D01*
X146596796Y-140314496D01*
X146598000Y-140339000D01*
X146598000Y-140839000D01*
X146596796Y-140863504D01*
X146593196Y-140887773D01*
X146587235Y-140911571D01*
X146578970Y-140934671D01*
X146568480Y-140956849D01*
X146555867Y-140977893D01*
X146541253Y-140997598D01*
X146524777Y-141015777D01*
X146506598Y-141032253D01*
X146486893Y-141046867D01*
X146465849Y-141059480D01*
X146443671Y-141069970D01*
X146420571Y-141078235D01*
X146396773Y-141084196D01*
X146372504Y-141087796D01*
X146348000Y-141089000D01*
X144548000Y-141089000D01*
X144523496Y-141087796D01*
X144499227Y-141084196D01*
X144475429Y-141078235D01*
X144452329Y-141069970D01*
X144430151Y-141059480D01*
X144409107Y-141046867D01*
X144389402Y-141032253D01*
X144371223Y-141015777D01*
X144354747Y-140997598D01*
X144340133Y-140977893D01*
X144327520Y-140956849D01*
X144317030Y-140934671D01*
X144308765Y-140911571D01*
X144302804Y-140887773D01*
X144299204Y-140863504D01*
X144298000Y-140839000D01*
X144298000Y-140339000D01*
X144299204Y-140314496D01*
X144302804Y-140290227D01*
X144308765Y-140266429D01*
X144317030Y-140243329D01*
X144327520Y-140221151D01*
X144340133Y-140200107D01*
X144354747Y-140180402D01*
X144371223Y-140162223D01*
X144389402Y-140145747D01*
X144409107Y-140131133D01*
X144430151Y-140118520D01*
X144452329Y-140108030D01*
X144475429Y-140099765D01*
X144499227Y-140093804D01*
X144523496Y-140090204D01*
X144548000Y-140089000D01*
X146348000Y-140089000D01*
X146372504Y-140090204D01*
G37*
G36*
X146372504Y-141360204D02*
G01*
X146396773Y-141363804D01*
X146420571Y-141369765D01*
X146443671Y-141378030D01*
X146465849Y-141388520D01*
X146486893Y-141401133D01*
X146506598Y-141415747D01*
X146524777Y-141432223D01*
X146541253Y-141450402D01*
X146555867Y-141470107D01*
X146568480Y-141491151D01*
X146578970Y-141513329D01*
X146587235Y-141536429D01*
X146593196Y-141560227D01*
X146596796Y-141584496D01*
X146598000Y-141609000D01*
X146598000Y-142109000D01*
X146596796Y-142133504D01*
X146593196Y-142157773D01*
X146587235Y-142181571D01*
X146578970Y-142204671D01*
X146568480Y-142226849D01*
X146555867Y-142247893D01*
X146541253Y-142267598D01*
X146524777Y-142285777D01*
X146506598Y-142302253D01*
X146486893Y-142316867D01*
X146465849Y-142329480D01*
X146443671Y-142339970D01*
X146420571Y-142348235D01*
X146396773Y-142354196D01*
X146372504Y-142357796D01*
X146348000Y-142359000D01*
X144548000Y-142359000D01*
X144523496Y-142357796D01*
X144499227Y-142354196D01*
X144475429Y-142348235D01*
X144452329Y-142339970D01*
X144430151Y-142329480D01*
X144409107Y-142316867D01*
X144389402Y-142302253D01*
X144371223Y-142285777D01*
X144354747Y-142267598D01*
X144340133Y-142247893D01*
X144327520Y-142226849D01*
X144317030Y-142204671D01*
X144308765Y-142181571D01*
X144302804Y-142157773D01*
X144299204Y-142133504D01*
X144298000Y-142109000D01*
X144298000Y-141609000D01*
X144299204Y-141584496D01*
X144302804Y-141560227D01*
X144308765Y-141536429D01*
X144317030Y-141513329D01*
X144327520Y-141491151D01*
X144340133Y-141470107D01*
X144354747Y-141450402D01*
X144371223Y-141432223D01*
X144389402Y-141415747D01*
X144409107Y-141401133D01*
X144430151Y-141388520D01*
X144452329Y-141378030D01*
X144475429Y-141369765D01*
X144499227Y-141363804D01*
X144523496Y-141360204D01*
X144548000Y-141359000D01*
X146348000Y-141359000D01*
X146372504Y-141360204D01*
G37*
G36*
X146372504Y-142630204D02*
G01*
X146396773Y-142633804D01*
X146420571Y-142639765D01*
X146443671Y-142648030D01*
X146465849Y-142658520D01*
X146486893Y-142671133D01*
X146506598Y-142685747D01*
X146524777Y-142702223D01*
X146541253Y-142720402D01*
X146555867Y-142740107D01*
X146568480Y-142761151D01*
X146578970Y-142783329D01*
X146587235Y-142806429D01*
X146593196Y-142830227D01*
X146596796Y-142854496D01*
X146598000Y-142879000D01*
X146598000Y-143379000D01*
X146596796Y-143403504D01*
X146593196Y-143427773D01*
X146587235Y-143451571D01*
X146578970Y-143474671D01*
X146568480Y-143496849D01*
X146555867Y-143517893D01*
X146541253Y-143537598D01*
X146524777Y-143555777D01*
X146506598Y-143572253D01*
X146486893Y-143586867D01*
X146465849Y-143599480D01*
X146443671Y-143609970D01*
X146420571Y-143618235D01*
X146396773Y-143624196D01*
X146372504Y-143627796D01*
X146348000Y-143629000D01*
X144548000Y-143629000D01*
X144523496Y-143627796D01*
X144499227Y-143624196D01*
X144475429Y-143618235D01*
X144452329Y-143609970D01*
X144430151Y-143599480D01*
X144409107Y-143586867D01*
X144389402Y-143572253D01*
X144371223Y-143555777D01*
X144354747Y-143537598D01*
X144340133Y-143517893D01*
X144327520Y-143496849D01*
X144317030Y-143474671D01*
X144308765Y-143451571D01*
X144302804Y-143427773D01*
X144299204Y-143403504D01*
X144298000Y-143379000D01*
X144298000Y-142879000D01*
X144299204Y-142854496D01*
X144302804Y-142830227D01*
X144308765Y-142806429D01*
X144317030Y-142783329D01*
X144327520Y-142761151D01*
X144340133Y-142740107D01*
X144354747Y-142720402D01*
X144371223Y-142702223D01*
X144389402Y-142685747D01*
X144409107Y-142671133D01*
X144430151Y-142658520D01*
X144452329Y-142648030D01*
X144475429Y-142639765D01*
X144499227Y-142633804D01*
X144523496Y-142630204D01*
X144548000Y-142629000D01*
X146348000Y-142629000D01*
X146372504Y-142630204D01*
G37*
G36*
X140972504Y-142630204D02*
G01*
X140996773Y-142633804D01*
X141020571Y-142639765D01*
X141043671Y-142648030D01*
X141065849Y-142658520D01*
X141086893Y-142671133D01*
X141106598Y-142685747D01*
X141124777Y-142702223D01*
X141141253Y-142720402D01*
X141155867Y-142740107D01*
X141168480Y-142761151D01*
X141178970Y-142783329D01*
X141187235Y-142806429D01*
X141193196Y-142830227D01*
X141196796Y-142854496D01*
X141198000Y-142879000D01*
X141198000Y-143379000D01*
X141196796Y-143403504D01*
X141193196Y-143427773D01*
X141187235Y-143451571D01*
X141178970Y-143474671D01*
X141168480Y-143496849D01*
X141155867Y-143517893D01*
X141141253Y-143537598D01*
X141124777Y-143555777D01*
X141106598Y-143572253D01*
X141086893Y-143586867D01*
X141065849Y-143599480D01*
X141043671Y-143609970D01*
X141020571Y-143618235D01*
X140996773Y-143624196D01*
X140972504Y-143627796D01*
X140948000Y-143629000D01*
X139148000Y-143629000D01*
X139123496Y-143627796D01*
X139099227Y-143624196D01*
X139075429Y-143618235D01*
X139052329Y-143609970D01*
X139030151Y-143599480D01*
X139009107Y-143586867D01*
X138989402Y-143572253D01*
X138971223Y-143555777D01*
X138954747Y-143537598D01*
X138940133Y-143517893D01*
X138927520Y-143496849D01*
X138917030Y-143474671D01*
X138908765Y-143451571D01*
X138902804Y-143427773D01*
X138899204Y-143403504D01*
X138898000Y-143379000D01*
X138898000Y-142879000D01*
X138899204Y-142854496D01*
X138902804Y-142830227D01*
X138908765Y-142806429D01*
X138917030Y-142783329D01*
X138927520Y-142761151D01*
X138940133Y-142740107D01*
X138954747Y-142720402D01*
X138971223Y-142702223D01*
X138989402Y-142685747D01*
X139009107Y-142671133D01*
X139030151Y-142658520D01*
X139052329Y-142648030D01*
X139075429Y-142639765D01*
X139099227Y-142633804D01*
X139123496Y-142630204D01*
X139148000Y-142629000D01*
X140948000Y-142629000D01*
X140972504Y-142630204D01*
G37*
G36*
X140972504Y-141360204D02*
G01*
X140996773Y-141363804D01*
X141020571Y-141369765D01*
X141043671Y-141378030D01*
X141065849Y-141388520D01*
X141086893Y-141401133D01*
X141106598Y-141415747D01*
X141124777Y-141432223D01*
X141141253Y-141450402D01*
X141155867Y-141470107D01*
X141168480Y-141491151D01*
X141178970Y-141513329D01*
X141187235Y-141536429D01*
X141193196Y-141560227D01*
X141196796Y-141584496D01*
X141198000Y-141609000D01*
X141198000Y-142109000D01*
X141196796Y-142133504D01*
X141193196Y-142157773D01*
X141187235Y-142181571D01*
X141178970Y-142204671D01*
X141168480Y-142226849D01*
X141155867Y-142247893D01*
X141141253Y-142267598D01*
X141124777Y-142285777D01*
X141106598Y-142302253D01*
X141086893Y-142316867D01*
X141065849Y-142329480D01*
X141043671Y-142339970D01*
X141020571Y-142348235D01*
X140996773Y-142354196D01*
X140972504Y-142357796D01*
X140948000Y-142359000D01*
X139148000Y-142359000D01*
X139123496Y-142357796D01*
X139099227Y-142354196D01*
X139075429Y-142348235D01*
X139052329Y-142339970D01*
X139030151Y-142329480D01*
X139009107Y-142316867D01*
X138989402Y-142302253D01*
X138971223Y-142285777D01*
X138954747Y-142267598D01*
X138940133Y-142247893D01*
X138927520Y-142226849D01*
X138917030Y-142204671D01*
X138908765Y-142181571D01*
X138902804Y-142157773D01*
X138899204Y-142133504D01*
X138898000Y-142109000D01*
X138898000Y-141609000D01*
X138899204Y-141584496D01*
X138902804Y-141560227D01*
X138908765Y-141536429D01*
X138917030Y-141513329D01*
X138927520Y-141491151D01*
X138940133Y-141470107D01*
X138954747Y-141450402D01*
X138971223Y-141432223D01*
X138989402Y-141415747D01*
X139009107Y-141401133D01*
X139030151Y-141388520D01*
X139052329Y-141378030D01*
X139075429Y-141369765D01*
X139099227Y-141363804D01*
X139123496Y-141360204D01*
X139148000Y-141359000D01*
X140948000Y-141359000D01*
X140972504Y-141360204D01*
G37*
G36*
X140972504Y-140090204D02*
G01*
X140996773Y-140093804D01*
X141020571Y-140099765D01*
X141043671Y-140108030D01*
X141065849Y-140118520D01*
X141086893Y-140131133D01*
X141106598Y-140145747D01*
X141124777Y-140162223D01*
X141141253Y-140180402D01*
X141155867Y-140200107D01*
X141168480Y-140221151D01*
X141178970Y-140243329D01*
X141187235Y-140266429D01*
X141193196Y-140290227D01*
X141196796Y-140314496D01*
X141198000Y-140339000D01*
X141198000Y-140839000D01*
X141196796Y-140863504D01*
X141193196Y-140887773D01*
X141187235Y-140911571D01*
X141178970Y-140934671D01*
X141168480Y-140956849D01*
X141155867Y-140977893D01*
X141141253Y-140997598D01*
X141124777Y-141015777D01*
X141106598Y-141032253D01*
X141086893Y-141046867D01*
X141065849Y-141059480D01*
X141043671Y-141069970D01*
X141020571Y-141078235D01*
X140996773Y-141084196D01*
X140972504Y-141087796D01*
X140948000Y-141089000D01*
X139148000Y-141089000D01*
X139123496Y-141087796D01*
X139099227Y-141084196D01*
X139075429Y-141078235D01*
X139052329Y-141069970D01*
X139030151Y-141059480D01*
X139009107Y-141046867D01*
X138989402Y-141032253D01*
X138971223Y-141015777D01*
X138954747Y-140997598D01*
X138940133Y-140977893D01*
X138927520Y-140956849D01*
X138917030Y-140934671D01*
X138908765Y-140911571D01*
X138902804Y-140887773D01*
X138899204Y-140863504D01*
X138898000Y-140839000D01*
X138898000Y-140339000D01*
X138899204Y-140314496D01*
X138902804Y-140290227D01*
X138908765Y-140266429D01*
X138917030Y-140243329D01*
X138927520Y-140221151D01*
X138940133Y-140200107D01*
X138954747Y-140180402D01*
X138971223Y-140162223D01*
X138989402Y-140145747D01*
X139009107Y-140131133D01*
X139030151Y-140118520D01*
X139052329Y-140108030D01*
X139075429Y-140099765D01*
X139099227Y-140093804D01*
X139123496Y-140090204D01*
X139148000Y-140089000D01*
X140948000Y-140089000D01*
X140972504Y-140090204D01*
G37*
D16*
X140048000Y-139319000D03*
D17*
X189484000Y-140716000D03*
D18*
X189484000Y-143256000D03*
D17*
X183896000Y-140716000D03*
D18*
X183896000Y-143256000D03*
X195580000Y-143256000D03*
D17*
X195580000Y-140716000D03*
D19*
X139900000Y-96770000D03*
X137000000Y-96770000D03*
X134100000Y-96770000D03*
X107610000Y-66040000D03*
X107610000Y-63500000D03*
X105070000Y-66040000D03*
X105070000Y-63500000D03*
X112690000Y-63500000D03*
X112690000Y-66040000D03*
D20*
X140630000Y-66040000D03*
D19*
X140630000Y-63500000D03*
X138090000Y-66040000D03*
X138090000Y-63500000D03*
X135550000Y-66040000D03*
X135550000Y-63500000D03*
X133010000Y-66040000D03*
X133010000Y-63500000D03*
X130470000Y-66040000D03*
X130470000Y-63500000D03*
X127930000Y-66040000D03*
X127930000Y-63500000D03*
X125390000Y-66040000D03*
X125390000Y-63500000D03*
X122850000Y-66040000D03*
X122850000Y-63500000D03*
X120310000Y-66040000D03*
X120310000Y-63500000D03*
X117770000Y-66040000D03*
X117770000Y-63500000D03*
X115230000Y-66040000D03*
X115230000Y-63500000D03*
X110150000Y-66040000D03*
X110150000Y-63500000D03*
X102530000Y-63500000D03*
X102530000Y-66040000D03*
X99990000Y-63500000D03*
X99990000Y-66040000D03*
X97450000Y-63500000D03*
X97450000Y-66040000D03*
X94910000Y-63500000D03*
X94910000Y-66040000D03*
X92370000Y-63500000D03*
X92370000Y-66040000D03*
D21*
X87500000Y-64770000D03*
X145500000Y-64770000D03*
X87500000Y-113770000D03*
X145500000Y-113770000D03*
D15*
G36*
X82956207Y-54356542D02*
G01*
X82987287Y-54361152D01*
X83017766Y-54368787D01*
X83047350Y-54379372D01*
X83075754Y-54392806D01*
X83102704Y-54408959D01*
X83127942Y-54427677D01*
X83151223Y-54448777D01*
X83172323Y-54472058D01*
X83191041Y-54497296D01*
X83207194Y-54524246D01*
X83220628Y-54552650D01*
X83231213Y-54582234D01*
X83238848Y-54612713D01*
X83243458Y-54643793D01*
X83245000Y-54675176D01*
X83245000Y-57084824D01*
X83243458Y-57116207D01*
X83238848Y-57147287D01*
X83231213Y-57177766D01*
X83220628Y-57207350D01*
X83207194Y-57235754D01*
X83191041Y-57262704D01*
X83172323Y-57287942D01*
X83151223Y-57311223D01*
X83127942Y-57332323D01*
X83102704Y-57351041D01*
X83075754Y-57367194D01*
X83047350Y-57380628D01*
X83017766Y-57391213D01*
X82987287Y-57398848D01*
X82956207Y-57403458D01*
X82924824Y-57405000D01*
X81740176Y-57405000D01*
X81708793Y-57403458D01*
X81677713Y-57398848D01*
X81647234Y-57391213D01*
X81617650Y-57380628D01*
X81589246Y-57367194D01*
X81562296Y-57351041D01*
X81537058Y-57332323D01*
X81513777Y-57311223D01*
X81492677Y-57287942D01*
X81473959Y-57262704D01*
X81457806Y-57235754D01*
X81444372Y-57207350D01*
X81433787Y-57177766D01*
X81426152Y-57147287D01*
X81421542Y-57116207D01*
X81420000Y-57084824D01*
X81420000Y-54675176D01*
X81421542Y-54643793D01*
X81426152Y-54612713D01*
X81433787Y-54582234D01*
X81444372Y-54552650D01*
X81457806Y-54524246D01*
X81473959Y-54497296D01*
X81492677Y-54472058D01*
X81513777Y-54448777D01*
X81537058Y-54427677D01*
X81562296Y-54408959D01*
X81589246Y-54392806D01*
X81617650Y-54379372D01*
X81647234Y-54368787D01*
X81677713Y-54361152D01*
X81708793Y-54356542D01*
X81740176Y-54355000D01*
X82924824Y-54355000D01*
X82956207Y-54356542D01*
G37*
G36*
X85931207Y-54356542D02*
G01*
X85962287Y-54361152D01*
X85992766Y-54368787D01*
X86022350Y-54379372D01*
X86050754Y-54392806D01*
X86077704Y-54408959D01*
X86102942Y-54427677D01*
X86126223Y-54448777D01*
X86147323Y-54472058D01*
X86166041Y-54497296D01*
X86182194Y-54524246D01*
X86195628Y-54552650D01*
X86206213Y-54582234D01*
X86213848Y-54612713D01*
X86218458Y-54643793D01*
X86220000Y-54675176D01*
X86220000Y-57084824D01*
X86218458Y-57116207D01*
X86213848Y-57147287D01*
X86206213Y-57177766D01*
X86195628Y-57207350D01*
X86182194Y-57235754D01*
X86166041Y-57262704D01*
X86147323Y-57287942D01*
X86126223Y-57311223D01*
X86102942Y-57332323D01*
X86077704Y-57351041D01*
X86050754Y-57367194D01*
X86022350Y-57380628D01*
X85992766Y-57391213D01*
X85962287Y-57398848D01*
X85931207Y-57403458D01*
X85899824Y-57405000D01*
X84715176Y-57405000D01*
X84683793Y-57403458D01*
X84652713Y-57398848D01*
X84622234Y-57391213D01*
X84592650Y-57380628D01*
X84564246Y-57367194D01*
X84537296Y-57351041D01*
X84512058Y-57332323D01*
X84488777Y-57311223D01*
X84467677Y-57287942D01*
X84448959Y-57262704D01*
X84432806Y-57235754D01*
X84419372Y-57207350D01*
X84408787Y-57177766D01*
X84401152Y-57147287D01*
X84396542Y-57116207D01*
X84395000Y-57084824D01*
X84395000Y-54675176D01*
X84396542Y-54643793D01*
X84401152Y-54612713D01*
X84408787Y-54582234D01*
X84419372Y-54552650D01*
X84432806Y-54524246D01*
X84448959Y-54497296D01*
X84467677Y-54472058D01*
X84488777Y-54448777D01*
X84512058Y-54427677D01*
X84537296Y-54408959D01*
X84564246Y-54392806D01*
X84592650Y-54379372D01*
X84622234Y-54368787D01*
X84652713Y-54361152D01*
X84683793Y-54356542D01*
X84715176Y-54355000D01*
X85899824Y-54355000D01*
X85931207Y-54356542D01*
G37*
G36*
X84661207Y-141986542D02*
G01*
X84692287Y-141991152D01*
X84722766Y-141998787D01*
X84752350Y-142009372D01*
X84780754Y-142022806D01*
X84807704Y-142038959D01*
X84832942Y-142057677D01*
X84856223Y-142078777D01*
X84877323Y-142102058D01*
X84896041Y-142127296D01*
X84912194Y-142154246D01*
X84925628Y-142182650D01*
X84936213Y-142212234D01*
X84943848Y-142242713D01*
X84948458Y-142273793D01*
X84950000Y-142305176D01*
X84950000Y-144714824D01*
X84948458Y-144746207D01*
X84943848Y-144777287D01*
X84936213Y-144807766D01*
X84925628Y-144837350D01*
X84912194Y-144865754D01*
X84896041Y-144892704D01*
X84877323Y-144917942D01*
X84856223Y-144941223D01*
X84832942Y-144962323D01*
X84807704Y-144981041D01*
X84780754Y-144997194D01*
X84752350Y-145010628D01*
X84722766Y-145021213D01*
X84692287Y-145028848D01*
X84661207Y-145033458D01*
X84629824Y-145035000D01*
X83445176Y-145035000D01*
X83413793Y-145033458D01*
X83382713Y-145028848D01*
X83352234Y-145021213D01*
X83322650Y-145010628D01*
X83294246Y-144997194D01*
X83267296Y-144981041D01*
X83242058Y-144962323D01*
X83218777Y-144941223D01*
X83197677Y-144917942D01*
X83178959Y-144892704D01*
X83162806Y-144865754D01*
X83149372Y-144837350D01*
X83138787Y-144807766D01*
X83131152Y-144777287D01*
X83126542Y-144746207D01*
X83125000Y-144714824D01*
X83125000Y-142305176D01*
X83126542Y-142273793D01*
X83131152Y-142242713D01*
X83138787Y-142212234D01*
X83149372Y-142182650D01*
X83162806Y-142154246D01*
X83178959Y-142127296D01*
X83197677Y-142102058D01*
X83218777Y-142078777D01*
X83242058Y-142057677D01*
X83267296Y-142038959D01*
X83294246Y-142022806D01*
X83322650Y-142009372D01*
X83352234Y-141998787D01*
X83382713Y-141991152D01*
X83413793Y-141986542D01*
X83445176Y-141985000D01*
X84629824Y-141985000D01*
X84661207Y-141986542D01*
G37*
G36*
X81686207Y-141986542D02*
G01*
X81717287Y-141991152D01*
X81747766Y-141998787D01*
X81777350Y-142009372D01*
X81805754Y-142022806D01*
X81832704Y-142038959D01*
X81857942Y-142057677D01*
X81881223Y-142078777D01*
X81902323Y-142102058D01*
X81921041Y-142127296D01*
X81937194Y-142154246D01*
X81950628Y-142182650D01*
X81961213Y-142212234D01*
X81968848Y-142242713D01*
X81973458Y-142273793D01*
X81975000Y-142305176D01*
X81975000Y-144714824D01*
X81973458Y-144746207D01*
X81968848Y-144777287D01*
X81961213Y-144807766D01*
X81950628Y-144837350D01*
X81937194Y-144865754D01*
X81921041Y-144892704D01*
X81902323Y-144917942D01*
X81881223Y-144941223D01*
X81857942Y-144962323D01*
X81832704Y-144981041D01*
X81805754Y-144997194D01*
X81777350Y-145010628D01*
X81747766Y-145021213D01*
X81717287Y-145028848D01*
X81686207Y-145033458D01*
X81654824Y-145035000D01*
X80470176Y-145035000D01*
X80438793Y-145033458D01*
X80407713Y-145028848D01*
X80377234Y-145021213D01*
X80347650Y-145010628D01*
X80319246Y-144997194D01*
X80292296Y-144981041D01*
X80267058Y-144962323D01*
X80243777Y-144941223D01*
X80222677Y-144917942D01*
X80203959Y-144892704D01*
X80187806Y-144865754D01*
X80174372Y-144837350D01*
X80163787Y-144807766D01*
X80156152Y-144777287D01*
X80151542Y-144746207D01*
X80150000Y-144714824D01*
X80150000Y-142305176D01*
X80151542Y-142273793D01*
X80156152Y-142242713D01*
X80163787Y-142212234D01*
X80174372Y-142182650D01*
X80187806Y-142154246D01*
X80203959Y-142127296D01*
X80222677Y-142102058D01*
X80243777Y-142078777D01*
X80267058Y-142057677D01*
X80292296Y-142038959D01*
X80319246Y-142022806D01*
X80347650Y-142009372D01*
X80377234Y-141998787D01*
X80407713Y-141991152D01*
X80438793Y-141986542D01*
X80470176Y-141985000D01*
X81654824Y-141985000D01*
X81686207Y-141986542D01*
G37*
D22*
X170688000Y-56976000D03*
X170688000Y-66976000D03*
D23*
X70490000Y-132250000D03*
D19*
X68000000Y-131000000D03*
X68000000Y-126500000D03*
D23*
X70490000Y-125240000D03*
D15*
G36*
X208173504Y-133460204D02*
G01*
X208197773Y-133463804D01*
X208221571Y-133469765D01*
X208244671Y-133478030D01*
X208266849Y-133488520D01*
X208287893Y-133501133D01*
X208307598Y-133515747D01*
X208325777Y-133532223D01*
X208342253Y-133550402D01*
X208356867Y-133570107D01*
X208369480Y-133591151D01*
X208379970Y-133613329D01*
X208388235Y-133636429D01*
X208394196Y-133660227D01*
X208397796Y-133684496D01*
X208399000Y-133709000D01*
X208399000Y-135909000D01*
X208397796Y-135933504D01*
X208394196Y-135957773D01*
X208388235Y-135981571D01*
X208379970Y-136004671D01*
X208369480Y-136026849D01*
X208356867Y-136047893D01*
X208342253Y-136067598D01*
X208325777Y-136085777D01*
X208307598Y-136102253D01*
X208287893Y-136116867D01*
X208266849Y-136129480D01*
X208244671Y-136139970D01*
X208221571Y-136148235D01*
X208197773Y-136154196D01*
X208173504Y-136157796D01*
X208149000Y-136159000D01*
X207649000Y-136159000D01*
X207624496Y-136157796D01*
X207600227Y-136154196D01*
X207576429Y-136148235D01*
X207553329Y-136139970D01*
X207531151Y-136129480D01*
X207510107Y-136116867D01*
X207490402Y-136102253D01*
X207472223Y-136085777D01*
X207455747Y-136067598D01*
X207441133Y-136047893D01*
X207428520Y-136026849D01*
X207418030Y-136004671D01*
X207409765Y-135981571D01*
X207403804Y-135957773D01*
X207400204Y-135933504D01*
X207399000Y-135909000D01*
X207399000Y-133709000D01*
X207400204Y-133684496D01*
X207403804Y-133660227D01*
X207409765Y-133636429D01*
X207418030Y-133613329D01*
X207428520Y-133591151D01*
X207441133Y-133570107D01*
X207455747Y-133550402D01*
X207472223Y-133532223D01*
X207490402Y-133515747D01*
X207510107Y-133501133D01*
X207531151Y-133488520D01*
X207553329Y-133478030D01*
X207576429Y-133469765D01*
X207600227Y-133463804D01*
X207624496Y-133460204D01*
X207649000Y-133459000D01*
X208149000Y-133459000D01*
X208173504Y-133460204D01*
G37*
G36*
X206903504Y-133460204D02*
G01*
X206927773Y-133463804D01*
X206951571Y-133469765D01*
X206974671Y-133478030D01*
X206996849Y-133488520D01*
X207017893Y-133501133D01*
X207037598Y-133515747D01*
X207055777Y-133532223D01*
X207072253Y-133550402D01*
X207086867Y-133570107D01*
X207099480Y-133591151D01*
X207109970Y-133613329D01*
X207118235Y-133636429D01*
X207124196Y-133660227D01*
X207127796Y-133684496D01*
X207129000Y-133709000D01*
X207129000Y-135909000D01*
X207127796Y-135933504D01*
X207124196Y-135957773D01*
X207118235Y-135981571D01*
X207109970Y-136004671D01*
X207099480Y-136026849D01*
X207086867Y-136047893D01*
X207072253Y-136067598D01*
X207055777Y-136085777D01*
X207037598Y-136102253D01*
X207017893Y-136116867D01*
X206996849Y-136129480D01*
X206974671Y-136139970D01*
X206951571Y-136148235D01*
X206927773Y-136154196D01*
X206903504Y-136157796D01*
X206879000Y-136159000D01*
X206379000Y-136159000D01*
X206354496Y-136157796D01*
X206330227Y-136154196D01*
X206306429Y-136148235D01*
X206283329Y-136139970D01*
X206261151Y-136129480D01*
X206240107Y-136116867D01*
X206220402Y-136102253D01*
X206202223Y-136085777D01*
X206185747Y-136067598D01*
X206171133Y-136047893D01*
X206158520Y-136026849D01*
X206148030Y-136004671D01*
X206139765Y-135981571D01*
X206133804Y-135957773D01*
X206130204Y-135933504D01*
X206129000Y-135909000D01*
X206129000Y-133709000D01*
X206130204Y-133684496D01*
X206133804Y-133660227D01*
X206139765Y-133636429D01*
X206148030Y-133613329D01*
X206158520Y-133591151D01*
X206171133Y-133570107D01*
X206185747Y-133550402D01*
X206202223Y-133532223D01*
X206220402Y-133515747D01*
X206240107Y-133501133D01*
X206261151Y-133488520D01*
X206283329Y-133478030D01*
X206306429Y-133469765D01*
X206330227Y-133463804D01*
X206354496Y-133460204D01*
X206379000Y-133459000D01*
X206879000Y-133459000D01*
X206903504Y-133460204D01*
G37*
G36*
X205633504Y-133460204D02*
G01*
X205657773Y-133463804D01*
X205681571Y-133469765D01*
X205704671Y-133478030D01*
X205726849Y-133488520D01*
X205747893Y-133501133D01*
X205767598Y-133515747D01*
X205785777Y-133532223D01*
X205802253Y-133550402D01*
X205816867Y-133570107D01*
X205829480Y-133591151D01*
X205839970Y-133613329D01*
X205848235Y-133636429D01*
X205854196Y-133660227D01*
X205857796Y-133684496D01*
X205859000Y-133709000D01*
X205859000Y-135909000D01*
X205857796Y-135933504D01*
X205854196Y-135957773D01*
X205848235Y-135981571D01*
X205839970Y-136004671D01*
X205829480Y-136026849D01*
X205816867Y-136047893D01*
X205802253Y-136067598D01*
X205785777Y-136085777D01*
X205767598Y-136102253D01*
X205747893Y-136116867D01*
X205726849Y-136129480D01*
X205704671Y-136139970D01*
X205681571Y-136148235D01*
X205657773Y-136154196D01*
X205633504Y-136157796D01*
X205609000Y-136159000D01*
X205109000Y-136159000D01*
X205084496Y-136157796D01*
X205060227Y-136154196D01*
X205036429Y-136148235D01*
X205013329Y-136139970D01*
X204991151Y-136129480D01*
X204970107Y-136116867D01*
X204950402Y-136102253D01*
X204932223Y-136085777D01*
X204915747Y-136067598D01*
X204901133Y-136047893D01*
X204888520Y-136026849D01*
X204878030Y-136004671D01*
X204869765Y-135981571D01*
X204863804Y-135957773D01*
X204860204Y-135933504D01*
X204859000Y-135909000D01*
X204859000Y-133709000D01*
X204860204Y-133684496D01*
X204863804Y-133660227D01*
X204869765Y-133636429D01*
X204878030Y-133613329D01*
X204888520Y-133591151D01*
X204901133Y-133570107D01*
X204915747Y-133550402D01*
X204932223Y-133532223D01*
X204950402Y-133515747D01*
X204970107Y-133501133D01*
X204991151Y-133488520D01*
X205013329Y-133478030D01*
X205036429Y-133469765D01*
X205060227Y-133463804D01*
X205084496Y-133460204D01*
X205109000Y-133459000D01*
X205609000Y-133459000D01*
X205633504Y-133460204D01*
G37*
G36*
X204363504Y-133460204D02*
G01*
X204387773Y-133463804D01*
X204411571Y-133469765D01*
X204434671Y-133478030D01*
X204456849Y-133488520D01*
X204477893Y-133501133D01*
X204497598Y-133515747D01*
X204515777Y-133532223D01*
X204532253Y-133550402D01*
X204546867Y-133570107D01*
X204559480Y-133591151D01*
X204569970Y-133613329D01*
X204578235Y-133636429D01*
X204584196Y-133660227D01*
X204587796Y-133684496D01*
X204589000Y-133709000D01*
X204589000Y-135909000D01*
X204587796Y-135933504D01*
X204584196Y-135957773D01*
X204578235Y-135981571D01*
X204569970Y-136004671D01*
X204559480Y-136026849D01*
X204546867Y-136047893D01*
X204532253Y-136067598D01*
X204515777Y-136085777D01*
X204497598Y-136102253D01*
X204477893Y-136116867D01*
X204456849Y-136129480D01*
X204434671Y-136139970D01*
X204411571Y-136148235D01*
X204387773Y-136154196D01*
X204363504Y-136157796D01*
X204339000Y-136159000D01*
X203839000Y-136159000D01*
X203814496Y-136157796D01*
X203790227Y-136154196D01*
X203766429Y-136148235D01*
X203743329Y-136139970D01*
X203721151Y-136129480D01*
X203700107Y-136116867D01*
X203680402Y-136102253D01*
X203662223Y-136085777D01*
X203645747Y-136067598D01*
X203631133Y-136047893D01*
X203618520Y-136026849D01*
X203608030Y-136004671D01*
X203599765Y-135981571D01*
X203593804Y-135957773D01*
X203590204Y-135933504D01*
X203589000Y-135909000D01*
X203589000Y-133709000D01*
X203590204Y-133684496D01*
X203593804Y-133660227D01*
X203599765Y-133636429D01*
X203608030Y-133613329D01*
X203618520Y-133591151D01*
X203631133Y-133570107D01*
X203645747Y-133550402D01*
X203662223Y-133532223D01*
X203680402Y-133515747D01*
X203700107Y-133501133D01*
X203721151Y-133488520D01*
X203743329Y-133478030D01*
X203766429Y-133469765D01*
X203790227Y-133463804D01*
X203814496Y-133460204D01*
X203839000Y-133459000D01*
X204339000Y-133459000D01*
X204363504Y-133460204D01*
G37*
G36*
X203093504Y-133460204D02*
G01*
X203117773Y-133463804D01*
X203141571Y-133469765D01*
X203164671Y-133478030D01*
X203186849Y-133488520D01*
X203207893Y-133501133D01*
X203227598Y-133515747D01*
X203245777Y-133532223D01*
X203262253Y-133550402D01*
X203276867Y-133570107D01*
X203289480Y-133591151D01*
X203299970Y-133613329D01*
X203308235Y-133636429D01*
X203314196Y-133660227D01*
X203317796Y-133684496D01*
X203319000Y-133709000D01*
X203319000Y-135909000D01*
X203317796Y-135933504D01*
X203314196Y-135957773D01*
X203308235Y-135981571D01*
X203299970Y-136004671D01*
X203289480Y-136026849D01*
X203276867Y-136047893D01*
X203262253Y-136067598D01*
X203245777Y-136085777D01*
X203227598Y-136102253D01*
X203207893Y-136116867D01*
X203186849Y-136129480D01*
X203164671Y-136139970D01*
X203141571Y-136148235D01*
X203117773Y-136154196D01*
X203093504Y-136157796D01*
X203069000Y-136159000D01*
X202569000Y-136159000D01*
X202544496Y-136157796D01*
X202520227Y-136154196D01*
X202496429Y-136148235D01*
X202473329Y-136139970D01*
X202451151Y-136129480D01*
X202430107Y-136116867D01*
X202410402Y-136102253D01*
X202392223Y-136085777D01*
X202375747Y-136067598D01*
X202361133Y-136047893D01*
X202348520Y-136026849D01*
X202338030Y-136004671D01*
X202329765Y-135981571D01*
X202323804Y-135957773D01*
X202320204Y-135933504D01*
X202319000Y-135909000D01*
X202319000Y-133709000D01*
X202320204Y-133684496D01*
X202323804Y-133660227D01*
X202329765Y-133636429D01*
X202338030Y-133613329D01*
X202348520Y-133591151D01*
X202361133Y-133570107D01*
X202375747Y-133550402D01*
X202392223Y-133532223D01*
X202410402Y-133515747D01*
X202430107Y-133501133D01*
X202451151Y-133488520D01*
X202473329Y-133478030D01*
X202496429Y-133469765D01*
X202520227Y-133463804D01*
X202544496Y-133460204D01*
X202569000Y-133459000D01*
X203069000Y-133459000D01*
X203093504Y-133460204D01*
G37*
G36*
X201823504Y-133460204D02*
G01*
X201847773Y-133463804D01*
X201871571Y-133469765D01*
X201894671Y-133478030D01*
X201916849Y-133488520D01*
X201937893Y-133501133D01*
X201957598Y-133515747D01*
X201975777Y-133532223D01*
X201992253Y-133550402D01*
X202006867Y-133570107D01*
X202019480Y-133591151D01*
X202029970Y-133613329D01*
X202038235Y-133636429D01*
X202044196Y-133660227D01*
X202047796Y-133684496D01*
X202049000Y-133709000D01*
X202049000Y-135909000D01*
X202047796Y-135933504D01*
X202044196Y-135957773D01*
X202038235Y-135981571D01*
X202029970Y-136004671D01*
X202019480Y-136026849D01*
X202006867Y-136047893D01*
X201992253Y-136067598D01*
X201975777Y-136085777D01*
X201957598Y-136102253D01*
X201937893Y-136116867D01*
X201916849Y-136129480D01*
X201894671Y-136139970D01*
X201871571Y-136148235D01*
X201847773Y-136154196D01*
X201823504Y-136157796D01*
X201799000Y-136159000D01*
X201299000Y-136159000D01*
X201274496Y-136157796D01*
X201250227Y-136154196D01*
X201226429Y-136148235D01*
X201203329Y-136139970D01*
X201181151Y-136129480D01*
X201160107Y-136116867D01*
X201140402Y-136102253D01*
X201122223Y-136085777D01*
X201105747Y-136067598D01*
X201091133Y-136047893D01*
X201078520Y-136026849D01*
X201068030Y-136004671D01*
X201059765Y-135981571D01*
X201053804Y-135957773D01*
X201050204Y-135933504D01*
X201049000Y-135909000D01*
X201049000Y-133709000D01*
X201050204Y-133684496D01*
X201053804Y-133660227D01*
X201059765Y-133636429D01*
X201068030Y-133613329D01*
X201078520Y-133591151D01*
X201091133Y-133570107D01*
X201105747Y-133550402D01*
X201122223Y-133532223D01*
X201140402Y-133515747D01*
X201160107Y-133501133D01*
X201181151Y-133488520D01*
X201203329Y-133478030D01*
X201226429Y-133469765D01*
X201250227Y-133463804D01*
X201274496Y-133460204D01*
X201299000Y-133459000D01*
X201799000Y-133459000D01*
X201823504Y-133460204D01*
G37*
G36*
X200553504Y-133460204D02*
G01*
X200577773Y-133463804D01*
X200601571Y-133469765D01*
X200624671Y-133478030D01*
X200646849Y-133488520D01*
X200667893Y-133501133D01*
X200687598Y-133515747D01*
X200705777Y-133532223D01*
X200722253Y-133550402D01*
X200736867Y-133570107D01*
X200749480Y-133591151D01*
X200759970Y-133613329D01*
X200768235Y-133636429D01*
X200774196Y-133660227D01*
X200777796Y-133684496D01*
X200779000Y-133709000D01*
X200779000Y-135909000D01*
X200777796Y-135933504D01*
X200774196Y-135957773D01*
X200768235Y-135981571D01*
X200759970Y-136004671D01*
X200749480Y-136026849D01*
X200736867Y-136047893D01*
X200722253Y-136067598D01*
X200705777Y-136085777D01*
X200687598Y-136102253D01*
X200667893Y-136116867D01*
X200646849Y-136129480D01*
X200624671Y-136139970D01*
X200601571Y-136148235D01*
X200577773Y-136154196D01*
X200553504Y-136157796D01*
X200529000Y-136159000D01*
X200029000Y-136159000D01*
X200004496Y-136157796D01*
X199980227Y-136154196D01*
X199956429Y-136148235D01*
X199933329Y-136139970D01*
X199911151Y-136129480D01*
X199890107Y-136116867D01*
X199870402Y-136102253D01*
X199852223Y-136085777D01*
X199835747Y-136067598D01*
X199821133Y-136047893D01*
X199808520Y-136026849D01*
X199798030Y-136004671D01*
X199789765Y-135981571D01*
X199783804Y-135957773D01*
X199780204Y-135933504D01*
X199779000Y-135909000D01*
X199779000Y-133709000D01*
X199780204Y-133684496D01*
X199783804Y-133660227D01*
X199789765Y-133636429D01*
X199798030Y-133613329D01*
X199808520Y-133591151D01*
X199821133Y-133570107D01*
X199835747Y-133550402D01*
X199852223Y-133532223D01*
X199870402Y-133515747D01*
X199890107Y-133501133D01*
X199911151Y-133488520D01*
X199933329Y-133478030D01*
X199956429Y-133469765D01*
X199980227Y-133463804D01*
X200004496Y-133460204D01*
X200029000Y-133459000D01*
X200529000Y-133459000D01*
X200553504Y-133460204D01*
G37*
G36*
X200553504Y-128510204D02*
G01*
X200577773Y-128513804D01*
X200601571Y-128519765D01*
X200624671Y-128528030D01*
X200646849Y-128538520D01*
X200667893Y-128551133D01*
X200687598Y-128565747D01*
X200705777Y-128582223D01*
X200722253Y-128600402D01*
X200736867Y-128620107D01*
X200749480Y-128641151D01*
X200759970Y-128663329D01*
X200768235Y-128686429D01*
X200774196Y-128710227D01*
X200777796Y-128734496D01*
X200779000Y-128759000D01*
X200779000Y-130959000D01*
X200777796Y-130983504D01*
X200774196Y-131007773D01*
X200768235Y-131031571D01*
X200759970Y-131054671D01*
X200749480Y-131076849D01*
X200736867Y-131097893D01*
X200722253Y-131117598D01*
X200705777Y-131135777D01*
X200687598Y-131152253D01*
X200667893Y-131166867D01*
X200646849Y-131179480D01*
X200624671Y-131189970D01*
X200601571Y-131198235D01*
X200577773Y-131204196D01*
X200553504Y-131207796D01*
X200529000Y-131209000D01*
X200029000Y-131209000D01*
X200004496Y-131207796D01*
X199980227Y-131204196D01*
X199956429Y-131198235D01*
X199933329Y-131189970D01*
X199911151Y-131179480D01*
X199890107Y-131166867D01*
X199870402Y-131152253D01*
X199852223Y-131135777D01*
X199835747Y-131117598D01*
X199821133Y-131097893D01*
X199808520Y-131076849D01*
X199798030Y-131054671D01*
X199789765Y-131031571D01*
X199783804Y-131007773D01*
X199780204Y-130983504D01*
X199779000Y-130959000D01*
X199779000Y-128759000D01*
X199780204Y-128734496D01*
X199783804Y-128710227D01*
X199789765Y-128686429D01*
X199798030Y-128663329D01*
X199808520Y-128641151D01*
X199821133Y-128620107D01*
X199835747Y-128600402D01*
X199852223Y-128582223D01*
X199870402Y-128565747D01*
X199890107Y-128551133D01*
X199911151Y-128538520D01*
X199933329Y-128528030D01*
X199956429Y-128519765D01*
X199980227Y-128513804D01*
X200004496Y-128510204D01*
X200029000Y-128509000D01*
X200529000Y-128509000D01*
X200553504Y-128510204D01*
G37*
G36*
X201823504Y-128510204D02*
G01*
X201847773Y-128513804D01*
X201871571Y-128519765D01*
X201894671Y-128528030D01*
X201916849Y-128538520D01*
X201937893Y-128551133D01*
X201957598Y-128565747D01*
X201975777Y-128582223D01*
X201992253Y-128600402D01*
X202006867Y-128620107D01*
X202019480Y-128641151D01*
X202029970Y-128663329D01*
X202038235Y-128686429D01*
X202044196Y-128710227D01*
X202047796Y-128734496D01*
X202049000Y-128759000D01*
X202049000Y-130959000D01*
X202047796Y-130983504D01*
X202044196Y-131007773D01*
X202038235Y-131031571D01*
X202029970Y-131054671D01*
X202019480Y-131076849D01*
X202006867Y-131097893D01*
X201992253Y-131117598D01*
X201975777Y-131135777D01*
X201957598Y-131152253D01*
X201937893Y-131166867D01*
X201916849Y-131179480D01*
X201894671Y-131189970D01*
X201871571Y-131198235D01*
X201847773Y-131204196D01*
X201823504Y-131207796D01*
X201799000Y-131209000D01*
X201299000Y-131209000D01*
X201274496Y-131207796D01*
X201250227Y-131204196D01*
X201226429Y-131198235D01*
X201203329Y-131189970D01*
X201181151Y-131179480D01*
X201160107Y-131166867D01*
X201140402Y-131152253D01*
X201122223Y-131135777D01*
X201105747Y-131117598D01*
X201091133Y-131097893D01*
X201078520Y-131076849D01*
X201068030Y-131054671D01*
X201059765Y-131031571D01*
X201053804Y-131007773D01*
X201050204Y-130983504D01*
X201049000Y-130959000D01*
X201049000Y-128759000D01*
X201050204Y-128734496D01*
X201053804Y-128710227D01*
X201059765Y-128686429D01*
X201068030Y-128663329D01*
X201078520Y-128641151D01*
X201091133Y-128620107D01*
X201105747Y-128600402D01*
X201122223Y-128582223D01*
X201140402Y-128565747D01*
X201160107Y-128551133D01*
X201181151Y-128538520D01*
X201203329Y-128528030D01*
X201226429Y-128519765D01*
X201250227Y-128513804D01*
X201274496Y-128510204D01*
X201299000Y-128509000D01*
X201799000Y-128509000D01*
X201823504Y-128510204D01*
G37*
G36*
X203093504Y-128510204D02*
G01*
X203117773Y-128513804D01*
X203141571Y-128519765D01*
X203164671Y-128528030D01*
X203186849Y-128538520D01*
X203207893Y-128551133D01*
X203227598Y-128565747D01*
X203245777Y-128582223D01*
X203262253Y-128600402D01*
X203276867Y-128620107D01*
X203289480Y-128641151D01*
X203299970Y-128663329D01*
X203308235Y-128686429D01*
X203314196Y-128710227D01*
X203317796Y-128734496D01*
X203319000Y-128759000D01*
X203319000Y-130959000D01*
X203317796Y-130983504D01*
X203314196Y-131007773D01*
X203308235Y-131031571D01*
X203299970Y-131054671D01*
X203289480Y-131076849D01*
X203276867Y-131097893D01*
X203262253Y-131117598D01*
X203245777Y-131135777D01*
X203227598Y-131152253D01*
X203207893Y-131166867D01*
X203186849Y-131179480D01*
X203164671Y-131189970D01*
X203141571Y-131198235D01*
X203117773Y-131204196D01*
X203093504Y-131207796D01*
X203069000Y-131209000D01*
X202569000Y-131209000D01*
X202544496Y-131207796D01*
X202520227Y-131204196D01*
X202496429Y-131198235D01*
X202473329Y-131189970D01*
X202451151Y-131179480D01*
X202430107Y-131166867D01*
X202410402Y-131152253D01*
X202392223Y-131135777D01*
X202375747Y-131117598D01*
X202361133Y-131097893D01*
X202348520Y-131076849D01*
X202338030Y-131054671D01*
X202329765Y-131031571D01*
X202323804Y-131007773D01*
X202320204Y-130983504D01*
X202319000Y-130959000D01*
X202319000Y-128759000D01*
X202320204Y-128734496D01*
X202323804Y-128710227D01*
X202329765Y-128686429D01*
X202338030Y-128663329D01*
X202348520Y-128641151D01*
X202361133Y-128620107D01*
X202375747Y-128600402D01*
X202392223Y-128582223D01*
X202410402Y-128565747D01*
X202430107Y-128551133D01*
X202451151Y-128538520D01*
X202473329Y-128528030D01*
X202496429Y-128519765D01*
X202520227Y-128513804D01*
X202544496Y-128510204D01*
X202569000Y-128509000D01*
X203069000Y-128509000D01*
X203093504Y-128510204D01*
G37*
G36*
X204363504Y-128510204D02*
G01*
X204387773Y-128513804D01*
X204411571Y-128519765D01*
X204434671Y-128528030D01*
X204456849Y-128538520D01*
X204477893Y-128551133D01*
X204497598Y-128565747D01*
X204515777Y-128582223D01*
X204532253Y-128600402D01*
X204546867Y-128620107D01*
X204559480Y-128641151D01*
X204569970Y-128663329D01*
X204578235Y-128686429D01*
X204584196Y-128710227D01*
X204587796Y-128734496D01*
X204589000Y-128759000D01*
X204589000Y-130959000D01*
X204587796Y-130983504D01*
X204584196Y-131007773D01*
X204578235Y-131031571D01*
X204569970Y-131054671D01*
X204559480Y-131076849D01*
X204546867Y-131097893D01*
X204532253Y-131117598D01*
X204515777Y-131135777D01*
X204497598Y-131152253D01*
X204477893Y-131166867D01*
X204456849Y-131179480D01*
X204434671Y-131189970D01*
X204411571Y-131198235D01*
X204387773Y-131204196D01*
X204363504Y-131207796D01*
X204339000Y-131209000D01*
X203839000Y-131209000D01*
X203814496Y-131207796D01*
X203790227Y-131204196D01*
X203766429Y-131198235D01*
X203743329Y-131189970D01*
X203721151Y-131179480D01*
X203700107Y-131166867D01*
X203680402Y-131152253D01*
X203662223Y-131135777D01*
X203645747Y-131117598D01*
X203631133Y-131097893D01*
X203618520Y-131076849D01*
X203608030Y-131054671D01*
X203599765Y-131031571D01*
X203593804Y-131007773D01*
X203590204Y-130983504D01*
X203589000Y-130959000D01*
X203589000Y-128759000D01*
X203590204Y-128734496D01*
X203593804Y-128710227D01*
X203599765Y-128686429D01*
X203608030Y-128663329D01*
X203618520Y-128641151D01*
X203631133Y-128620107D01*
X203645747Y-128600402D01*
X203662223Y-128582223D01*
X203680402Y-128565747D01*
X203700107Y-128551133D01*
X203721151Y-128538520D01*
X203743329Y-128528030D01*
X203766429Y-128519765D01*
X203790227Y-128513804D01*
X203814496Y-128510204D01*
X203839000Y-128509000D01*
X204339000Y-128509000D01*
X204363504Y-128510204D01*
G37*
G36*
X205633504Y-128510204D02*
G01*
X205657773Y-128513804D01*
X205681571Y-128519765D01*
X205704671Y-128528030D01*
X205726849Y-128538520D01*
X205747893Y-128551133D01*
X205767598Y-128565747D01*
X205785777Y-128582223D01*
X205802253Y-128600402D01*
X205816867Y-128620107D01*
X205829480Y-128641151D01*
X205839970Y-128663329D01*
X205848235Y-128686429D01*
X205854196Y-128710227D01*
X205857796Y-128734496D01*
X205859000Y-128759000D01*
X205859000Y-130959000D01*
X205857796Y-130983504D01*
X205854196Y-131007773D01*
X205848235Y-131031571D01*
X205839970Y-131054671D01*
X205829480Y-131076849D01*
X205816867Y-131097893D01*
X205802253Y-131117598D01*
X205785777Y-131135777D01*
X205767598Y-131152253D01*
X205747893Y-131166867D01*
X205726849Y-131179480D01*
X205704671Y-131189970D01*
X205681571Y-131198235D01*
X205657773Y-131204196D01*
X205633504Y-131207796D01*
X205609000Y-131209000D01*
X205109000Y-131209000D01*
X205084496Y-131207796D01*
X205060227Y-131204196D01*
X205036429Y-131198235D01*
X205013329Y-131189970D01*
X204991151Y-131179480D01*
X204970107Y-131166867D01*
X204950402Y-131152253D01*
X204932223Y-131135777D01*
X204915747Y-131117598D01*
X204901133Y-131097893D01*
X204888520Y-131076849D01*
X204878030Y-131054671D01*
X204869765Y-131031571D01*
X204863804Y-131007773D01*
X204860204Y-130983504D01*
X204859000Y-130959000D01*
X204859000Y-128759000D01*
X204860204Y-128734496D01*
X204863804Y-128710227D01*
X204869765Y-128686429D01*
X204878030Y-128663329D01*
X204888520Y-128641151D01*
X204901133Y-128620107D01*
X204915747Y-128600402D01*
X204932223Y-128582223D01*
X204950402Y-128565747D01*
X204970107Y-128551133D01*
X204991151Y-128538520D01*
X205013329Y-128528030D01*
X205036429Y-128519765D01*
X205060227Y-128513804D01*
X205084496Y-128510204D01*
X205109000Y-128509000D01*
X205609000Y-128509000D01*
X205633504Y-128510204D01*
G37*
G36*
X206903504Y-128510204D02*
G01*
X206927773Y-128513804D01*
X206951571Y-128519765D01*
X206974671Y-128528030D01*
X206996849Y-128538520D01*
X207017893Y-128551133D01*
X207037598Y-128565747D01*
X207055777Y-128582223D01*
X207072253Y-128600402D01*
X207086867Y-128620107D01*
X207099480Y-128641151D01*
X207109970Y-128663329D01*
X207118235Y-128686429D01*
X207124196Y-128710227D01*
X207127796Y-128734496D01*
X207129000Y-128759000D01*
X207129000Y-130959000D01*
X207127796Y-130983504D01*
X207124196Y-131007773D01*
X207118235Y-131031571D01*
X207109970Y-131054671D01*
X207099480Y-131076849D01*
X207086867Y-131097893D01*
X207072253Y-131117598D01*
X207055777Y-131135777D01*
X207037598Y-131152253D01*
X207017893Y-131166867D01*
X206996849Y-131179480D01*
X206974671Y-131189970D01*
X206951571Y-131198235D01*
X206927773Y-131204196D01*
X206903504Y-131207796D01*
X206879000Y-131209000D01*
X206379000Y-131209000D01*
X206354496Y-131207796D01*
X206330227Y-131204196D01*
X206306429Y-131198235D01*
X206283329Y-131189970D01*
X206261151Y-131179480D01*
X206240107Y-131166867D01*
X206220402Y-131152253D01*
X206202223Y-131135777D01*
X206185747Y-131117598D01*
X206171133Y-131097893D01*
X206158520Y-131076849D01*
X206148030Y-131054671D01*
X206139765Y-131031571D01*
X206133804Y-131007773D01*
X206130204Y-130983504D01*
X206129000Y-130959000D01*
X206129000Y-128759000D01*
X206130204Y-128734496D01*
X206133804Y-128710227D01*
X206139765Y-128686429D01*
X206148030Y-128663329D01*
X206158520Y-128641151D01*
X206171133Y-128620107D01*
X206185747Y-128600402D01*
X206202223Y-128582223D01*
X206220402Y-128565747D01*
X206240107Y-128551133D01*
X206261151Y-128538520D01*
X206283329Y-128528030D01*
X206306429Y-128519765D01*
X206330227Y-128513804D01*
X206354496Y-128510204D01*
X206379000Y-128509000D01*
X206879000Y-128509000D01*
X206903504Y-128510204D01*
G37*
D24*
X207899000Y-129859000D03*
D25*
X188038000Y-86995000D03*
D15*
G36*
X189212504Y-85226204D02*
G01*
X189236773Y-85229804D01*
X189260571Y-85235765D01*
X189283671Y-85244030D01*
X189305849Y-85254520D01*
X189326893Y-85267133D01*
X189346598Y-85281747D01*
X189364777Y-85298223D01*
X189381253Y-85316402D01*
X189395867Y-85336107D01*
X189408480Y-85357151D01*
X189418970Y-85379329D01*
X189427235Y-85402429D01*
X189433196Y-85426227D01*
X189436796Y-85450496D01*
X189438000Y-85475000D01*
X189438000Y-85975000D01*
X189436796Y-85999504D01*
X189433196Y-86023773D01*
X189427235Y-86047571D01*
X189418970Y-86070671D01*
X189408480Y-86092849D01*
X189395867Y-86113893D01*
X189381253Y-86133598D01*
X189364777Y-86151777D01*
X189346598Y-86168253D01*
X189326893Y-86182867D01*
X189305849Y-86195480D01*
X189283671Y-86205970D01*
X189260571Y-86214235D01*
X189236773Y-86220196D01*
X189212504Y-86223796D01*
X189188000Y-86225000D01*
X186888000Y-86225000D01*
X186863496Y-86223796D01*
X186839227Y-86220196D01*
X186815429Y-86214235D01*
X186792329Y-86205970D01*
X186770151Y-86195480D01*
X186749107Y-86182867D01*
X186729402Y-86168253D01*
X186711223Y-86151777D01*
X186694747Y-86133598D01*
X186680133Y-86113893D01*
X186667520Y-86092849D01*
X186657030Y-86070671D01*
X186648765Y-86047571D01*
X186642804Y-86023773D01*
X186639204Y-85999504D01*
X186638000Y-85975000D01*
X186638000Y-85475000D01*
X186639204Y-85450496D01*
X186642804Y-85426227D01*
X186648765Y-85402429D01*
X186657030Y-85379329D01*
X186667520Y-85357151D01*
X186680133Y-85336107D01*
X186694747Y-85316402D01*
X186711223Y-85298223D01*
X186729402Y-85281747D01*
X186749107Y-85267133D01*
X186770151Y-85254520D01*
X186792329Y-85244030D01*
X186815429Y-85235765D01*
X186839227Y-85229804D01*
X186863496Y-85226204D01*
X186888000Y-85225000D01*
X189188000Y-85225000D01*
X189212504Y-85226204D01*
G37*
G36*
X189212504Y-83956204D02*
G01*
X189236773Y-83959804D01*
X189260571Y-83965765D01*
X189283671Y-83974030D01*
X189305849Y-83984520D01*
X189326893Y-83997133D01*
X189346598Y-84011747D01*
X189364777Y-84028223D01*
X189381253Y-84046402D01*
X189395867Y-84066107D01*
X189408480Y-84087151D01*
X189418970Y-84109329D01*
X189427235Y-84132429D01*
X189433196Y-84156227D01*
X189436796Y-84180496D01*
X189438000Y-84205000D01*
X189438000Y-84705000D01*
X189436796Y-84729504D01*
X189433196Y-84753773D01*
X189427235Y-84777571D01*
X189418970Y-84800671D01*
X189408480Y-84822849D01*
X189395867Y-84843893D01*
X189381253Y-84863598D01*
X189364777Y-84881777D01*
X189346598Y-84898253D01*
X189326893Y-84912867D01*
X189305849Y-84925480D01*
X189283671Y-84935970D01*
X189260571Y-84944235D01*
X189236773Y-84950196D01*
X189212504Y-84953796D01*
X189188000Y-84955000D01*
X186888000Y-84955000D01*
X186863496Y-84953796D01*
X186839227Y-84950196D01*
X186815429Y-84944235D01*
X186792329Y-84935970D01*
X186770151Y-84925480D01*
X186749107Y-84912867D01*
X186729402Y-84898253D01*
X186711223Y-84881777D01*
X186694747Y-84863598D01*
X186680133Y-84843893D01*
X186667520Y-84822849D01*
X186657030Y-84800671D01*
X186648765Y-84777571D01*
X186642804Y-84753773D01*
X186639204Y-84729504D01*
X186638000Y-84705000D01*
X186638000Y-84205000D01*
X186639204Y-84180496D01*
X186642804Y-84156227D01*
X186648765Y-84132429D01*
X186657030Y-84109329D01*
X186667520Y-84087151D01*
X186680133Y-84066107D01*
X186694747Y-84046402D01*
X186711223Y-84028223D01*
X186729402Y-84011747D01*
X186749107Y-83997133D01*
X186770151Y-83984520D01*
X186792329Y-83974030D01*
X186815429Y-83965765D01*
X186839227Y-83959804D01*
X186863496Y-83956204D01*
X186888000Y-83955000D01*
X189188000Y-83955000D01*
X189212504Y-83956204D01*
G37*
G36*
X189212504Y-82686204D02*
G01*
X189236773Y-82689804D01*
X189260571Y-82695765D01*
X189283671Y-82704030D01*
X189305849Y-82714520D01*
X189326893Y-82727133D01*
X189346598Y-82741747D01*
X189364777Y-82758223D01*
X189381253Y-82776402D01*
X189395867Y-82796107D01*
X189408480Y-82817151D01*
X189418970Y-82839329D01*
X189427235Y-82862429D01*
X189433196Y-82886227D01*
X189436796Y-82910496D01*
X189438000Y-82935000D01*
X189438000Y-83435000D01*
X189436796Y-83459504D01*
X189433196Y-83483773D01*
X189427235Y-83507571D01*
X189418970Y-83530671D01*
X189408480Y-83552849D01*
X189395867Y-83573893D01*
X189381253Y-83593598D01*
X189364777Y-83611777D01*
X189346598Y-83628253D01*
X189326893Y-83642867D01*
X189305849Y-83655480D01*
X189283671Y-83665970D01*
X189260571Y-83674235D01*
X189236773Y-83680196D01*
X189212504Y-83683796D01*
X189188000Y-83685000D01*
X186888000Y-83685000D01*
X186863496Y-83683796D01*
X186839227Y-83680196D01*
X186815429Y-83674235D01*
X186792329Y-83665970D01*
X186770151Y-83655480D01*
X186749107Y-83642867D01*
X186729402Y-83628253D01*
X186711223Y-83611777D01*
X186694747Y-83593598D01*
X186680133Y-83573893D01*
X186667520Y-83552849D01*
X186657030Y-83530671D01*
X186648765Y-83507571D01*
X186642804Y-83483773D01*
X186639204Y-83459504D01*
X186638000Y-83435000D01*
X186638000Y-82935000D01*
X186639204Y-82910496D01*
X186642804Y-82886227D01*
X186648765Y-82862429D01*
X186657030Y-82839329D01*
X186667520Y-82817151D01*
X186680133Y-82796107D01*
X186694747Y-82776402D01*
X186711223Y-82758223D01*
X186729402Y-82741747D01*
X186749107Y-82727133D01*
X186770151Y-82714520D01*
X186792329Y-82704030D01*
X186815429Y-82695765D01*
X186839227Y-82689804D01*
X186863496Y-82686204D01*
X186888000Y-82685000D01*
X189188000Y-82685000D01*
X189212504Y-82686204D01*
G37*
G36*
X189212504Y-81416204D02*
G01*
X189236773Y-81419804D01*
X189260571Y-81425765D01*
X189283671Y-81434030D01*
X189305849Y-81444520D01*
X189326893Y-81457133D01*
X189346598Y-81471747D01*
X189364777Y-81488223D01*
X189381253Y-81506402D01*
X189395867Y-81526107D01*
X189408480Y-81547151D01*
X189418970Y-81569329D01*
X189427235Y-81592429D01*
X189433196Y-81616227D01*
X189436796Y-81640496D01*
X189438000Y-81665000D01*
X189438000Y-82165000D01*
X189436796Y-82189504D01*
X189433196Y-82213773D01*
X189427235Y-82237571D01*
X189418970Y-82260671D01*
X189408480Y-82282849D01*
X189395867Y-82303893D01*
X189381253Y-82323598D01*
X189364777Y-82341777D01*
X189346598Y-82358253D01*
X189326893Y-82372867D01*
X189305849Y-82385480D01*
X189283671Y-82395970D01*
X189260571Y-82404235D01*
X189236773Y-82410196D01*
X189212504Y-82413796D01*
X189188000Y-82415000D01*
X186888000Y-82415000D01*
X186863496Y-82413796D01*
X186839227Y-82410196D01*
X186815429Y-82404235D01*
X186792329Y-82395970D01*
X186770151Y-82385480D01*
X186749107Y-82372867D01*
X186729402Y-82358253D01*
X186711223Y-82341777D01*
X186694747Y-82323598D01*
X186680133Y-82303893D01*
X186667520Y-82282849D01*
X186657030Y-82260671D01*
X186648765Y-82237571D01*
X186642804Y-82213773D01*
X186639204Y-82189504D01*
X186638000Y-82165000D01*
X186638000Y-81665000D01*
X186639204Y-81640496D01*
X186642804Y-81616227D01*
X186648765Y-81592429D01*
X186657030Y-81569329D01*
X186667520Y-81547151D01*
X186680133Y-81526107D01*
X186694747Y-81506402D01*
X186711223Y-81488223D01*
X186729402Y-81471747D01*
X186749107Y-81457133D01*
X186770151Y-81444520D01*
X186792329Y-81434030D01*
X186815429Y-81425765D01*
X186839227Y-81419804D01*
X186863496Y-81416204D01*
X186888000Y-81415000D01*
X189188000Y-81415000D01*
X189212504Y-81416204D01*
G37*
G36*
X189212504Y-80146204D02*
G01*
X189236773Y-80149804D01*
X189260571Y-80155765D01*
X189283671Y-80164030D01*
X189305849Y-80174520D01*
X189326893Y-80187133D01*
X189346598Y-80201747D01*
X189364777Y-80218223D01*
X189381253Y-80236402D01*
X189395867Y-80256107D01*
X189408480Y-80277151D01*
X189418970Y-80299329D01*
X189427235Y-80322429D01*
X189433196Y-80346227D01*
X189436796Y-80370496D01*
X189438000Y-80395000D01*
X189438000Y-80895000D01*
X189436796Y-80919504D01*
X189433196Y-80943773D01*
X189427235Y-80967571D01*
X189418970Y-80990671D01*
X189408480Y-81012849D01*
X189395867Y-81033893D01*
X189381253Y-81053598D01*
X189364777Y-81071777D01*
X189346598Y-81088253D01*
X189326893Y-81102867D01*
X189305849Y-81115480D01*
X189283671Y-81125970D01*
X189260571Y-81134235D01*
X189236773Y-81140196D01*
X189212504Y-81143796D01*
X189188000Y-81145000D01*
X186888000Y-81145000D01*
X186863496Y-81143796D01*
X186839227Y-81140196D01*
X186815429Y-81134235D01*
X186792329Y-81125970D01*
X186770151Y-81115480D01*
X186749107Y-81102867D01*
X186729402Y-81088253D01*
X186711223Y-81071777D01*
X186694747Y-81053598D01*
X186680133Y-81033893D01*
X186667520Y-81012849D01*
X186657030Y-80990671D01*
X186648765Y-80967571D01*
X186642804Y-80943773D01*
X186639204Y-80919504D01*
X186638000Y-80895000D01*
X186638000Y-80395000D01*
X186639204Y-80370496D01*
X186642804Y-80346227D01*
X186648765Y-80322429D01*
X186657030Y-80299329D01*
X186667520Y-80277151D01*
X186680133Y-80256107D01*
X186694747Y-80236402D01*
X186711223Y-80218223D01*
X186729402Y-80201747D01*
X186749107Y-80187133D01*
X186770151Y-80174520D01*
X186792329Y-80164030D01*
X186815429Y-80155765D01*
X186839227Y-80149804D01*
X186863496Y-80146204D01*
X186888000Y-80145000D01*
X189188000Y-80145000D01*
X189212504Y-80146204D01*
G37*
G36*
X189212504Y-78876204D02*
G01*
X189236773Y-78879804D01*
X189260571Y-78885765D01*
X189283671Y-78894030D01*
X189305849Y-78904520D01*
X189326893Y-78917133D01*
X189346598Y-78931747D01*
X189364777Y-78948223D01*
X189381253Y-78966402D01*
X189395867Y-78986107D01*
X189408480Y-79007151D01*
X189418970Y-79029329D01*
X189427235Y-79052429D01*
X189433196Y-79076227D01*
X189436796Y-79100496D01*
X189438000Y-79125000D01*
X189438000Y-79625000D01*
X189436796Y-79649504D01*
X189433196Y-79673773D01*
X189427235Y-79697571D01*
X189418970Y-79720671D01*
X189408480Y-79742849D01*
X189395867Y-79763893D01*
X189381253Y-79783598D01*
X189364777Y-79801777D01*
X189346598Y-79818253D01*
X189326893Y-79832867D01*
X189305849Y-79845480D01*
X189283671Y-79855970D01*
X189260571Y-79864235D01*
X189236773Y-79870196D01*
X189212504Y-79873796D01*
X189188000Y-79875000D01*
X186888000Y-79875000D01*
X186863496Y-79873796D01*
X186839227Y-79870196D01*
X186815429Y-79864235D01*
X186792329Y-79855970D01*
X186770151Y-79845480D01*
X186749107Y-79832867D01*
X186729402Y-79818253D01*
X186711223Y-79801777D01*
X186694747Y-79783598D01*
X186680133Y-79763893D01*
X186667520Y-79742849D01*
X186657030Y-79720671D01*
X186648765Y-79697571D01*
X186642804Y-79673773D01*
X186639204Y-79649504D01*
X186638000Y-79625000D01*
X186638000Y-79125000D01*
X186639204Y-79100496D01*
X186642804Y-79076227D01*
X186648765Y-79052429D01*
X186657030Y-79029329D01*
X186667520Y-79007151D01*
X186680133Y-78986107D01*
X186694747Y-78966402D01*
X186711223Y-78948223D01*
X186729402Y-78931747D01*
X186749107Y-78917133D01*
X186770151Y-78904520D01*
X186792329Y-78894030D01*
X186815429Y-78885765D01*
X186839227Y-78879804D01*
X186863496Y-78876204D01*
X186888000Y-78875000D01*
X189188000Y-78875000D01*
X189212504Y-78876204D01*
G37*
G36*
X189212504Y-77606204D02*
G01*
X189236773Y-77609804D01*
X189260571Y-77615765D01*
X189283671Y-77624030D01*
X189305849Y-77634520D01*
X189326893Y-77647133D01*
X189346598Y-77661747D01*
X189364777Y-77678223D01*
X189381253Y-77696402D01*
X189395867Y-77716107D01*
X189408480Y-77737151D01*
X189418970Y-77759329D01*
X189427235Y-77782429D01*
X189433196Y-77806227D01*
X189436796Y-77830496D01*
X189438000Y-77855000D01*
X189438000Y-78355000D01*
X189436796Y-78379504D01*
X189433196Y-78403773D01*
X189427235Y-78427571D01*
X189418970Y-78450671D01*
X189408480Y-78472849D01*
X189395867Y-78493893D01*
X189381253Y-78513598D01*
X189364777Y-78531777D01*
X189346598Y-78548253D01*
X189326893Y-78562867D01*
X189305849Y-78575480D01*
X189283671Y-78585970D01*
X189260571Y-78594235D01*
X189236773Y-78600196D01*
X189212504Y-78603796D01*
X189188000Y-78605000D01*
X186888000Y-78605000D01*
X186863496Y-78603796D01*
X186839227Y-78600196D01*
X186815429Y-78594235D01*
X186792329Y-78585970D01*
X186770151Y-78575480D01*
X186749107Y-78562867D01*
X186729402Y-78548253D01*
X186711223Y-78531777D01*
X186694747Y-78513598D01*
X186680133Y-78493893D01*
X186667520Y-78472849D01*
X186657030Y-78450671D01*
X186648765Y-78427571D01*
X186642804Y-78403773D01*
X186639204Y-78379504D01*
X186638000Y-78355000D01*
X186638000Y-77855000D01*
X186639204Y-77830496D01*
X186642804Y-77806227D01*
X186648765Y-77782429D01*
X186657030Y-77759329D01*
X186667520Y-77737151D01*
X186680133Y-77716107D01*
X186694747Y-77696402D01*
X186711223Y-77678223D01*
X186729402Y-77661747D01*
X186749107Y-77647133D01*
X186770151Y-77634520D01*
X186792329Y-77624030D01*
X186815429Y-77615765D01*
X186839227Y-77609804D01*
X186863496Y-77606204D01*
X186888000Y-77605000D01*
X189188000Y-77605000D01*
X189212504Y-77606204D01*
G37*
G36*
X189212504Y-76336204D02*
G01*
X189236773Y-76339804D01*
X189260571Y-76345765D01*
X189283671Y-76354030D01*
X189305849Y-76364520D01*
X189326893Y-76377133D01*
X189346598Y-76391747D01*
X189364777Y-76408223D01*
X189381253Y-76426402D01*
X189395867Y-76446107D01*
X189408480Y-76467151D01*
X189418970Y-76489329D01*
X189427235Y-76512429D01*
X189433196Y-76536227D01*
X189436796Y-76560496D01*
X189438000Y-76585000D01*
X189438000Y-77085000D01*
X189436796Y-77109504D01*
X189433196Y-77133773D01*
X189427235Y-77157571D01*
X189418970Y-77180671D01*
X189408480Y-77202849D01*
X189395867Y-77223893D01*
X189381253Y-77243598D01*
X189364777Y-77261777D01*
X189346598Y-77278253D01*
X189326893Y-77292867D01*
X189305849Y-77305480D01*
X189283671Y-77315970D01*
X189260571Y-77324235D01*
X189236773Y-77330196D01*
X189212504Y-77333796D01*
X189188000Y-77335000D01*
X186888000Y-77335000D01*
X186863496Y-77333796D01*
X186839227Y-77330196D01*
X186815429Y-77324235D01*
X186792329Y-77315970D01*
X186770151Y-77305480D01*
X186749107Y-77292867D01*
X186729402Y-77278253D01*
X186711223Y-77261777D01*
X186694747Y-77243598D01*
X186680133Y-77223893D01*
X186667520Y-77202849D01*
X186657030Y-77180671D01*
X186648765Y-77157571D01*
X186642804Y-77133773D01*
X186639204Y-77109504D01*
X186638000Y-77085000D01*
X186638000Y-76585000D01*
X186639204Y-76560496D01*
X186642804Y-76536227D01*
X186648765Y-76512429D01*
X186657030Y-76489329D01*
X186667520Y-76467151D01*
X186680133Y-76446107D01*
X186694747Y-76426402D01*
X186711223Y-76408223D01*
X186729402Y-76391747D01*
X186749107Y-76377133D01*
X186770151Y-76364520D01*
X186792329Y-76354030D01*
X186815429Y-76345765D01*
X186839227Y-76339804D01*
X186863496Y-76336204D01*
X186888000Y-76335000D01*
X189188000Y-76335000D01*
X189212504Y-76336204D01*
G37*
G36*
X189212504Y-75066204D02*
G01*
X189236773Y-75069804D01*
X189260571Y-75075765D01*
X189283671Y-75084030D01*
X189305849Y-75094520D01*
X189326893Y-75107133D01*
X189346598Y-75121747D01*
X189364777Y-75138223D01*
X189381253Y-75156402D01*
X189395867Y-75176107D01*
X189408480Y-75197151D01*
X189418970Y-75219329D01*
X189427235Y-75242429D01*
X189433196Y-75266227D01*
X189436796Y-75290496D01*
X189438000Y-75315000D01*
X189438000Y-75815000D01*
X189436796Y-75839504D01*
X189433196Y-75863773D01*
X189427235Y-75887571D01*
X189418970Y-75910671D01*
X189408480Y-75932849D01*
X189395867Y-75953893D01*
X189381253Y-75973598D01*
X189364777Y-75991777D01*
X189346598Y-76008253D01*
X189326893Y-76022867D01*
X189305849Y-76035480D01*
X189283671Y-76045970D01*
X189260571Y-76054235D01*
X189236773Y-76060196D01*
X189212504Y-76063796D01*
X189188000Y-76065000D01*
X186888000Y-76065000D01*
X186863496Y-76063796D01*
X186839227Y-76060196D01*
X186815429Y-76054235D01*
X186792329Y-76045970D01*
X186770151Y-76035480D01*
X186749107Y-76022867D01*
X186729402Y-76008253D01*
X186711223Y-75991777D01*
X186694747Y-75973598D01*
X186680133Y-75953893D01*
X186667520Y-75932849D01*
X186657030Y-75910671D01*
X186648765Y-75887571D01*
X186642804Y-75863773D01*
X186639204Y-75839504D01*
X186638000Y-75815000D01*
X186638000Y-75315000D01*
X186639204Y-75290496D01*
X186642804Y-75266227D01*
X186648765Y-75242429D01*
X186657030Y-75219329D01*
X186667520Y-75197151D01*
X186680133Y-75176107D01*
X186694747Y-75156402D01*
X186711223Y-75138223D01*
X186729402Y-75121747D01*
X186749107Y-75107133D01*
X186770151Y-75094520D01*
X186792329Y-75084030D01*
X186815429Y-75075765D01*
X186839227Y-75069804D01*
X186863496Y-75066204D01*
X186888000Y-75065000D01*
X189188000Y-75065000D01*
X189212504Y-75066204D01*
G37*
G36*
X179912504Y-75066204D02*
G01*
X179936773Y-75069804D01*
X179960571Y-75075765D01*
X179983671Y-75084030D01*
X180005849Y-75094520D01*
X180026893Y-75107133D01*
X180046598Y-75121747D01*
X180064777Y-75138223D01*
X180081253Y-75156402D01*
X180095867Y-75176107D01*
X180108480Y-75197151D01*
X180118970Y-75219329D01*
X180127235Y-75242429D01*
X180133196Y-75266227D01*
X180136796Y-75290496D01*
X180138000Y-75315000D01*
X180138000Y-75815000D01*
X180136796Y-75839504D01*
X180133196Y-75863773D01*
X180127235Y-75887571D01*
X180118970Y-75910671D01*
X180108480Y-75932849D01*
X180095867Y-75953893D01*
X180081253Y-75973598D01*
X180064777Y-75991777D01*
X180046598Y-76008253D01*
X180026893Y-76022867D01*
X180005849Y-76035480D01*
X179983671Y-76045970D01*
X179960571Y-76054235D01*
X179936773Y-76060196D01*
X179912504Y-76063796D01*
X179888000Y-76065000D01*
X177588000Y-76065000D01*
X177563496Y-76063796D01*
X177539227Y-76060196D01*
X177515429Y-76054235D01*
X177492329Y-76045970D01*
X177470151Y-76035480D01*
X177449107Y-76022867D01*
X177429402Y-76008253D01*
X177411223Y-75991777D01*
X177394747Y-75973598D01*
X177380133Y-75953893D01*
X177367520Y-75932849D01*
X177357030Y-75910671D01*
X177348765Y-75887571D01*
X177342804Y-75863773D01*
X177339204Y-75839504D01*
X177338000Y-75815000D01*
X177338000Y-75315000D01*
X177339204Y-75290496D01*
X177342804Y-75266227D01*
X177348765Y-75242429D01*
X177357030Y-75219329D01*
X177367520Y-75197151D01*
X177380133Y-75176107D01*
X177394747Y-75156402D01*
X177411223Y-75138223D01*
X177429402Y-75121747D01*
X177449107Y-75107133D01*
X177470151Y-75094520D01*
X177492329Y-75084030D01*
X177515429Y-75075765D01*
X177539227Y-75069804D01*
X177563496Y-75066204D01*
X177588000Y-75065000D01*
X179888000Y-75065000D01*
X179912504Y-75066204D01*
G37*
G36*
X179912504Y-76336204D02*
G01*
X179936773Y-76339804D01*
X179960571Y-76345765D01*
X179983671Y-76354030D01*
X180005849Y-76364520D01*
X180026893Y-76377133D01*
X180046598Y-76391747D01*
X180064777Y-76408223D01*
X180081253Y-76426402D01*
X180095867Y-76446107D01*
X180108480Y-76467151D01*
X180118970Y-76489329D01*
X180127235Y-76512429D01*
X180133196Y-76536227D01*
X180136796Y-76560496D01*
X180138000Y-76585000D01*
X180138000Y-77085000D01*
X180136796Y-77109504D01*
X180133196Y-77133773D01*
X180127235Y-77157571D01*
X180118970Y-77180671D01*
X180108480Y-77202849D01*
X180095867Y-77223893D01*
X180081253Y-77243598D01*
X180064777Y-77261777D01*
X180046598Y-77278253D01*
X180026893Y-77292867D01*
X180005849Y-77305480D01*
X179983671Y-77315970D01*
X179960571Y-77324235D01*
X179936773Y-77330196D01*
X179912504Y-77333796D01*
X179888000Y-77335000D01*
X177588000Y-77335000D01*
X177563496Y-77333796D01*
X177539227Y-77330196D01*
X177515429Y-77324235D01*
X177492329Y-77315970D01*
X177470151Y-77305480D01*
X177449107Y-77292867D01*
X177429402Y-77278253D01*
X177411223Y-77261777D01*
X177394747Y-77243598D01*
X177380133Y-77223893D01*
X177367520Y-77202849D01*
X177357030Y-77180671D01*
X177348765Y-77157571D01*
X177342804Y-77133773D01*
X177339204Y-77109504D01*
X177338000Y-77085000D01*
X177338000Y-76585000D01*
X177339204Y-76560496D01*
X177342804Y-76536227D01*
X177348765Y-76512429D01*
X177357030Y-76489329D01*
X177367520Y-76467151D01*
X177380133Y-76446107D01*
X177394747Y-76426402D01*
X177411223Y-76408223D01*
X177429402Y-76391747D01*
X177449107Y-76377133D01*
X177470151Y-76364520D01*
X177492329Y-76354030D01*
X177515429Y-76345765D01*
X177539227Y-76339804D01*
X177563496Y-76336204D01*
X177588000Y-76335000D01*
X179888000Y-76335000D01*
X179912504Y-76336204D01*
G37*
G36*
X179912504Y-77606204D02*
G01*
X179936773Y-77609804D01*
X179960571Y-77615765D01*
X179983671Y-77624030D01*
X180005849Y-77634520D01*
X180026893Y-77647133D01*
X180046598Y-77661747D01*
X180064777Y-77678223D01*
X180081253Y-77696402D01*
X180095867Y-77716107D01*
X180108480Y-77737151D01*
X180118970Y-77759329D01*
X180127235Y-77782429D01*
X180133196Y-77806227D01*
X180136796Y-77830496D01*
X180138000Y-77855000D01*
X180138000Y-78355000D01*
X180136796Y-78379504D01*
X180133196Y-78403773D01*
X180127235Y-78427571D01*
X180118970Y-78450671D01*
X180108480Y-78472849D01*
X180095867Y-78493893D01*
X180081253Y-78513598D01*
X180064777Y-78531777D01*
X180046598Y-78548253D01*
X180026893Y-78562867D01*
X180005849Y-78575480D01*
X179983671Y-78585970D01*
X179960571Y-78594235D01*
X179936773Y-78600196D01*
X179912504Y-78603796D01*
X179888000Y-78605000D01*
X177588000Y-78605000D01*
X177563496Y-78603796D01*
X177539227Y-78600196D01*
X177515429Y-78594235D01*
X177492329Y-78585970D01*
X177470151Y-78575480D01*
X177449107Y-78562867D01*
X177429402Y-78548253D01*
X177411223Y-78531777D01*
X177394747Y-78513598D01*
X177380133Y-78493893D01*
X177367520Y-78472849D01*
X177357030Y-78450671D01*
X177348765Y-78427571D01*
X177342804Y-78403773D01*
X177339204Y-78379504D01*
X177338000Y-78355000D01*
X177338000Y-77855000D01*
X177339204Y-77830496D01*
X177342804Y-77806227D01*
X177348765Y-77782429D01*
X177357030Y-77759329D01*
X177367520Y-77737151D01*
X177380133Y-77716107D01*
X177394747Y-77696402D01*
X177411223Y-77678223D01*
X177429402Y-77661747D01*
X177449107Y-77647133D01*
X177470151Y-77634520D01*
X177492329Y-77624030D01*
X177515429Y-77615765D01*
X177539227Y-77609804D01*
X177563496Y-77606204D01*
X177588000Y-77605000D01*
X179888000Y-77605000D01*
X179912504Y-77606204D01*
G37*
G36*
X179912504Y-78876204D02*
G01*
X179936773Y-78879804D01*
X179960571Y-78885765D01*
X179983671Y-78894030D01*
X180005849Y-78904520D01*
X180026893Y-78917133D01*
X180046598Y-78931747D01*
X180064777Y-78948223D01*
X180081253Y-78966402D01*
X180095867Y-78986107D01*
X180108480Y-79007151D01*
X180118970Y-79029329D01*
X180127235Y-79052429D01*
X180133196Y-79076227D01*
X180136796Y-79100496D01*
X180138000Y-79125000D01*
X180138000Y-79625000D01*
X180136796Y-79649504D01*
X180133196Y-79673773D01*
X180127235Y-79697571D01*
X180118970Y-79720671D01*
X180108480Y-79742849D01*
X180095867Y-79763893D01*
X180081253Y-79783598D01*
X180064777Y-79801777D01*
X180046598Y-79818253D01*
X180026893Y-79832867D01*
X180005849Y-79845480D01*
X179983671Y-79855970D01*
X179960571Y-79864235D01*
X179936773Y-79870196D01*
X179912504Y-79873796D01*
X179888000Y-79875000D01*
X177588000Y-79875000D01*
X177563496Y-79873796D01*
X177539227Y-79870196D01*
X177515429Y-79864235D01*
X177492329Y-79855970D01*
X177470151Y-79845480D01*
X177449107Y-79832867D01*
X177429402Y-79818253D01*
X177411223Y-79801777D01*
X177394747Y-79783598D01*
X177380133Y-79763893D01*
X177367520Y-79742849D01*
X177357030Y-79720671D01*
X177348765Y-79697571D01*
X177342804Y-79673773D01*
X177339204Y-79649504D01*
X177338000Y-79625000D01*
X177338000Y-79125000D01*
X177339204Y-79100496D01*
X177342804Y-79076227D01*
X177348765Y-79052429D01*
X177357030Y-79029329D01*
X177367520Y-79007151D01*
X177380133Y-78986107D01*
X177394747Y-78966402D01*
X177411223Y-78948223D01*
X177429402Y-78931747D01*
X177449107Y-78917133D01*
X177470151Y-78904520D01*
X177492329Y-78894030D01*
X177515429Y-78885765D01*
X177539227Y-78879804D01*
X177563496Y-78876204D01*
X177588000Y-78875000D01*
X179888000Y-78875000D01*
X179912504Y-78876204D01*
G37*
G36*
X179912504Y-80146204D02*
G01*
X179936773Y-80149804D01*
X179960571Y-80155765D01*
X179983671Y-80164030D01*
X180005849Y-80174520D01*
X180026893Y-80187133D01*
X180046598Y-80201747D01*
X180064777Y-80218223D01*
X180081253Y-80236402D01*
X180095867Y-80256107D01*
X180108480Y-80277151D01*
X180118970Y-80299329D01*
X180127235Y-80322429D01*
X180133196Y-80346227D01*
X180136796Y-80370496D01*
X180138000Y-80395000D01*
X180138000Y-80895000D01*
X180136796Y-80919504D01*
X180133196Y-80943773D01*
X180127235Y-80967571D01*
X180118970Y-80990671D01*
X180108480Y-81012849D01*
X180095867Y-81033893D01*
X180081253Y-81053598D01*
X180064777Y-81071777D01*
X180046598Y-81088253D01*
X180026893Y-81102867D01*
X180005849Y-81115480D01*
X179983671Y-81125970D01*
X179960571Y-81134235D01*
X179936773Y-81140196D01*
X179912504Y-81143796D01*
X179888000Y-81145000D01*
X177588000Y-81145000D01*
X177563496Y-81143796D01*
X177539227Y-81140196D01*
X177515429Y-81134235D01*
X177492329Y-81125970D01*
X177470151Y-81115480D01*
X177449107Y-81102867D01*
X177429402Y-81088253D01*
X177411223Y-81071777D01*
X177394747Y-81053598D01*
X177380133Y-81033893D01*
X177367520Y-81012849D01*
X177357030Y-80990671D01*
X177348765Y-80967571D01*
X177342804Y-80943773D01*
X177339204Y-80919504D01*
X177338000Y-80895000D01*
X177338000Y-80395000D01*
X177339204Y-80370496D01*
X177342804Y-80346227D01*
X177348765Y-80322429D01*
X177357030Y-80299329D01*
X177367520Y-80277151D01*
X177380133Y-80256107D01*
X177394747Y-80236402D01*
X177411223Y-80218223D01*
X177429402Y-80201747D01*
X177449107Y-80187133D01*
X177470151Y-80174520D01*
X177492329Y-80164030D01*
X177515429Y-80155765D01*
X177539227Y-80149804D01*
X177563496Y-80146204D01*
X177588000Y-80145000D01*
X179888000Y-80145000D01*
X179912504Y-80146204D01*
G37*
G36*
X179912504Y-81416204D02*
G01*
X179936773Y-81419804D01*
X179960571Y-81425765D01*
X179983671Y-81434030D01*
X180005849Y-81444520D01*
X180026893Y-81457133D01*
X180046598Y-81471747D01*
X180064777Y-81488223D01*
X180081253Y-81506402D01*
X180095867Y-81526107D01*
X180108480Y-81547151D01*
X180118970Y-81569329D01*
X180127235Y-81592429D01*
X180133196Y-81616227D01*
X180136796Y-81640496D01*
X180138000Y-81665000D01*
X180138000Y-82165000D01*
X180136796Y-82189504D01*
X180133196Y-82213773D01*
X180127235Y-82237571D01*
X180118970Y-82260671D01*
X180108480Y-82282849D01*
X180095867Y-82303893D01*
X180081253Y-82323598D01*
X180064777Y-82341777D01*
X180046598Y-82358253D01*
X180026893Y-82372867D01*
X180005849Y-82385480D01*
X179983671Y-82395970D01*
X179960571Y-82404235D01*
X179936773Y-82410196D01*
X179912504Y-82413796D01*
X179888000Y-82415000D01*
X177588000Y-82415000D01*
X177563496Y-82413796D01*
X177539227Y-82410196D01*
X177515429Y-82404235D01*
X177492329Y-82395970D01*
X177470151Y-82385480D01*
X177449107Y-82372867D01*
X177429402Y-82358253D01*
X177411223Y-82341777D01*
X177394747Y-82323598D01*
X177380133Y-82303893D01*
X177367520Y-82282849D01*
X177357030Y-82260671D01*
X177348765Y-82237571D01*
X177342804Y-82213773D01*
X177339204Y-82189504D01*
X177338000Y-82165000D01*
X177338000Y-81665000D01*
X177339204Y-81640496D01*
X177342804Y-81616227D01*
X177348765Y-81592429D01*
X177357030Y-81569329D01*
X177367520Y-81547151D01*
X177380133Y-81526107D01*
X177394747Y-81506402D01*
X177411223Y-81488223D01*
X177429402Y-81471747D01*
X177449107Y-81457133D01*
X177470151Y-81444520D01*
X177492329Y-81434030D01*
X177515429Y-81425765D01*
X177539227Y-81419804D01*
X177563496Y-81416204D01*
X177588000Y-81415000D01*
X179888000Y-81415000D01*
X179912504Y-81416204D01*
G37*
G36*
X179912504Y-82686204D02*
G01*
X179936773Y-82689804D01*
X179960571Y-82695765D01*
X179983671Y-82704030D01*
X180005849Y-82714520D01*
X180026893Y-82727133D01*
X180046598Y-82741747D01*
X180064777Y-82758223D01*
X180081253Y-82776402D01*
X180095867Y-82796107D01*
X180108480Y-82817151D01*
X180118970Y-82839329D01*
X180127235Y-82862429D01*
X180133196Y-82886227D01*
X180136796Y-82910496D01*
X180138000Y-82935000D01*
X180138000Y-83435000D01*
X180136796Y-83459504D01*
X180133196Y-83483773D01*
X180127235Y-83507571D01*
X180118970Y-83530671D01*
X180108480Y-83552849D01*
X180095867Y-83573893D01*
X180081253Y-83593598D01*
X180064777Y-83611777D01*
X180046598Y-83628253D01*
X180026893Y-83642867D01*
X180005849Y-83655480D01*
X179983671Y-83665970D01*
X179960571Y-83674235D01*
X179936773Y-83680196D01*
X179912504Y-83683796D01*
X179888000Y-83685000D01*
X177588000Y-83685000D01*
X177563496Y-83683796D01*
X177539227Y-83680196D01*
X177515429Y-83674235D01*
X177492329Y-83665970D01*
X177470151Y-83655480D01*
X177449107Y-83642867D01*
X177429402Y-83628253D01*
X177411223Y-83611777D01*
X177394747Y-83593598D01*
X177380133Y-83573893D01*
X177367520Y-83552849D01*
X177357030Y-83530671D01*
X177348765Y-83507571D01*
X177342804Y-83483773D01*
X177339204Y-83459504D01*
X177338000Y-83435000D01*
X177338000Y-82935000D01*
X177339204Y-82910496D01*
X177342804Y-82886227D01*
X177348765Y-82862429D01*
X177357030Y-82839329D01*
X177367520Y-82817151D01*
X177380133Y-82796107D01*
X177394747Y-82776402D01*
X177411223Y-82758223D01*
X177429402Y-82741747D01*
X177449107Y-82727133D01*
X177470151Y-82714520D01*
X177492329Y-82704030D01*
X177515429Y-82695765D01*
X177539227Y-82689804D01*
X177563496Y-82686204D01*
X177588000Y-82685000D01*
X179888000Y-82685000D01*
X179912504Y-82686204D01*
G37*
G36*
X179912504Y-83956204D02*
G01*
X179936773Y-83959804D01*
X179960571Y-83965765D01*
X179983671Y-83974030D01*
X180005849Y-83984520D01*
X180026893Y-83997133D01*
X180046598Y-84011747D01*
X180064777Y-84028223D01*
X180081253Y-84046402D01*
X180095867Y-84066107D01*
X180108480Y-84087151D01*
X180118970Y-84109329D01*
X180127235Y-84132429D01*
X180133196Y-84156227D01*
X180136796Y-84180496D01*
X180138000Y-84205000D01*
X180138000Y-84705000D01*
X180136796Y-84729504D01*
X180133196Y-84753773D01*
X180127235Y-84777571D01*
X180118970Y-84800671D01*
X180108480Y-84822849D01*
X180095867Y-84843893D01*
X180081253Y-84863598D01*
X180064777Y-84881777D01*
X180046598Y-84898253D01*
X180026893Y-84912867D01*
X180005849Y-84925480D01*
X179983671Y-84935970D01*
X179960571Y-84944235D01*
X179936773Y-84950196D01*
X179912504Y-84953796D01*
X179888000Y-84955000D01*
X177588000Y-84955000D01*
X177563496Y-84953796D01*
X177539227Y-84950196D01*
X177515429Y-84944235D01*
X177492329Y-84935970D01*
X177470151Y-84925480D01*
X177449107Y-84912867D01*
X177429402Y-84898253D01*
X177411223Y-84881777D01*
X177394747Y-84863598D01*
X177380133Y-84843893D01*
X177367520Y-84822849D01*
X177357030Y-84800671D01*
X177348765Y-84777571D01*
X177342804Y-84753773D01*
X177339204Y-84729504D01*
X177338000Y-84705000D01*
X177338000Y-84205000D01*
X177339204Y-84180496D01*
X177342804Y-84156227D01*
X177348765Y-84132429D01*
X177357030Y-84109329D01*
X177367520Y-84087151D01*
X177380133Y-84066107D01*
X177394747Y-84046402D01*
X177411223Y-84028223D01*
X177429402Y-84011747D01*
X177449107Y-83997133D01*
X177470151Y-83984520D01*
X177492329Y-83974030D01*
X177515429Y-83965765D01*
X177539227Y-83959804D01*
X177563496Y-83956204D01*
X177588000Y-83955000D01*
X179888000Y-83955000D01*
X179912504Y-83956204D01*
G37*
G36*
X179912504Y-85226204D02*
G01*
X179936773Y-85229804D01*
X179960571Y-85235765D01*
X179983671Y-85244030D01*
X180005849Y-85254520D01*
X180026893Y-85267133D01*
X180046598Y-85281747D01*
X180064777Y-85298223D01*
X180081253Y-85316402D01*
X180095867Y-85336107D01*
X180108480Y-85357151D01*
X180118970Y-85379329D01*
X180127235Y-85402429D01*
X180133196Y-85426227D01*
X180136796Y-85450496D01*
X180138000Y-85475000D01*
X180138000Y-85975000D01*
X180136796Y-85999504D01*
X180133196Y-86023773D01*
X180127235Y-86047571D01*
X180118970Y-86070671D01*
X180108480Y-86092849D01*
X180095867Y-86113893D01*
X180081253Y-86133598D01*
X180064777Y-86151777D01*
X180046598Y-86168253D01*
X180026893Y-86182867D01*
X180005849Y-86195480D01*
X179983671Y-86205970D01*
X179960571Y-86214235D01*
X179936773Y-86220196D01*
X179912504Y-86223796D01*
X179888000Y-86225000D01*
X177588000Y-86225000D01*
X177563496Y-86223796D01*
X177539227Y-86220196D01*
X177515429Y-86214235D01*
X177492329Y-86205970D01*
X177470151Y-86195480D01*
X177449107Y-86182867D01*
X177429402Y-86168253D01*
X177411223Y-86151777D01*
X177394747Y-86133598D01*
X177380133Y-86113893D01*
X177367520Y-86092849D01*
X177357030Y-86070671D01*
X177348765Y-86047571D01*
X177342804Y-86023773D01*
X177339204Y-85999504D01*
X177338000Y-85975000D01*
X177338000Y-85475000D01*
X177339204Y-85450496D01*
X177342804Y-85426227D01*
X177348765Y-85402429D01*
X177357030Y-85379329D01*
X177367520Y-85357151D01*
X177380133Y-85336107D01*
X177394747Y-85316402D01*
X177411223Y-85298223D01*
X177429402Y-85281747D01*
X177449107Y-85267133D01*
X177470151Y-85254520D01*
X177492329Y-85244030D01*
X177515429Y-85235765D01*
X177539227Y-85229804D01*
X177563496Y-85226204D01*
X177588000Y-85225000D01*
X179888000Y-85225000D01*
X179912504Y-85226204D01*
G37*
G36*
X179912504Y-86496204D02*
G01*
X179936773Y-86499804D01*
X179960571Y-86505765D01*
X179983671Y-86514030D01*
X180005849Y-86524520D01*
X180026893Y-86537133D01*
X180046598Y-86551747D01*
X180064777Y-86568223D01*
X180081253Y-86586402D01*
X180095867Y-86606107D01*
X180108480Y-86627151D01*
X180118970Y-86649329D01*
X180127235Y-86672429D01*
X180133196Y-86696227D01*
X180136796Y-86720496D01*
X180138000Y-86745000D01*
X180138000Y-87245000D01*
X180136796Y-87269504D01*
X180133196Y-87293773D01*
X180127235Y-87317571D01*
X180118970Y-87340671D01*
X180108480Y-87362849D01*
X180095867Y-87383893D01*
X180081253Y-87403598D01*
X180064777Y-87421777D01*
X180046598Y-87438253D01*
X180026893Y-87452867D01*
X180005849Y-87465480D01*
X179983671Y-87475970D01*
X179960571Y-87484235D01*
X179936773Y-87490196D01*
X179912504Y-87493796D01*
X179888000Y-87495000D01*
X177588000Y-87495000D01*
X177563496Y-87493796D01*
X177539227Y-87490196D01*
X177515429Y-87484235D01*
X177492329Y-87475970D01*
X177470151Y-87465480D01*
X177449107Y-87452867D01*
X177429402Y-87438253D01*
X177411223Y-87421777D01*
X177394747Y-87403598D01*
X177380133Y-87383893D01*
X177367520Y-87362849D01*
X177357030Y-87340671D01*
X177348765Y-87317571D01*
X177342804Y-87293773D01*
X177339204Y-87269504D01*
X177338000Y-87245000D01*
X177338000Y-86745000D01*
X177339204Y-86720496D01*
X177342804Y-86696227D01*
X177348765Y-86672429D01*
X177357030Y-86649329D01*
X177367520Y-86627151D01*
X177380133Y-86606107D01*
X177394747Y-86586402D01*
X177411223Y-86568223D01*
X177429402Y-86551747D01*
X177449107Y-86537133D01*
X177470151Y-86524520D01*
X177492329Y-86514030D01*
X177515429Y-86505765D01*
X177539227Y-86499804D01*
X177563496Y-86496204D01*
X177588000Y-86495000D01*
X179888000Y-86495000D01*
X179912504Y-86496204D01*
G37*
G36*
X179912504Y-108340204D02*
G01*
X179936773Y-108343804D01*
X179960571Y-108349765D01*
X179983671Y-108358030D01*
X180005849Y-108368520D01*
X180026893Y-108381133D01*
X180046598Y-108395747D01*
X180064777Y-108412223D01*
X180081253Y-108430402D01*
X180095867Y-108450107D01*
X180108480Y-108471151D01*
X180118970Y-108493329D01*
X180127235Y-108516429D01*
X180133196Y-108540227D01*
X180136796Y-108564496D01*
X180138000Y-108589000D01*
X180138000Y-109089000D01*
X180136796Y-109113504D01*
X180133196Y-109137773D01*
X180127235Y-109161571D01*
X180118970Y-109184671D01*
X180108480Y-109206849D01*
X180095867Y-109227893D01*
X180081253Y-109247598D01*
X180064777Y-109265777D01*
X180046598Y-109282253D01*
X180026893Y-109296867D01*
X180005849Y-109309480D01*
X179983671Y-109319970D01*
X179960571Y-109328235D01*
X179936773Y-109334196D01*
X179912504Y-109337796D01*
X179888000Y-109339000D01*
X177588000Y-109339000D01*
X177563496Y-109337796D01*
X177539227Y-109334196D01*
X177515429Y-109328235D01*
X177492329Y-109319970D01*
X177470151Y-109309480D01*
X177449107Y-109296867D01*
X177429402Y-109282253D01*
X177411223Y-109265777D01*
X177394747Y-109247598D01*
X177380133Y-109227893D01*
X177367520Y-109206849D01*
X177357030Y-109184671D01*
X177348765Y-109161571D01*
X177342804Y-109137773D01*
X177339204Y-109113504D01*
X177338000Y-109089000D01*
X177338000Y-108589000D01*
X177339204Y-108564496D01*
X177342804Y-108540227D01*
X177348765Y-108516429D01*
X177357030Y-108493329D01*
X177367520Y-108471151D01*
X177380133Y-108450107D01*
X177394747Y-108430402D01*
X177411223Y-108412223D01*
X177429402Y-108395747D01*
X177449107Y-108381133D01*
X177470151Y-108368520D01*
X177492329Y-108358030D01*
X177515429Y-108349765D01*
X177539227Y-108343804D01*
X177563496Y-108340204D01*
X177588000Y-108339000D01*
X179888000Y-108339000D01*
X179912504Y-108340204D01*
G37*
G36*
X179912504Y-107070204D02*
G01*
X179936773Y-107073804D01*
X179960571Y-107079765D01*
X179983671Y-107088030D01*
X180005849Y-107098520D01*
X180026893Y-107111133D01*
X180046598Y-107125747D01*
X180064777Y-107142223D01*
X180081253Y-107160402D01*
X180095867Y-107180107D01*
X180108480Y-107201151D01*
X180118970Y-107223329D01*
X180127235Y-107246429D01*
X180133196Y-107270227D01*
X180136796Y-107294496D01*
X180138000Y-107319000D01*
X180138000Y-107819000D01*
X180136796Y-107843504D01*
X180133196Y-107867773D01*
X180127235Y-107891571D01*
X180118970Y-107914671D01*
X180108480Y-107936849D01*
X180095867Y-107957893D01*
X180081253Y-107977598D01*
X180064777Y-107995777D01*
X180046598Y-108012253D01*
X180026893Y-108026867D01*
X180005849Y-108039480D01*
X179983671Y-108049970D01*
X179960571Y-108058235D01*
X179936773Y-108064196D01*
X179912504Y-108067796D01*
X179888000Y-108069000D01*
X177588000Y-108069000D01*
X177563496Y-108067796D01*
X177539227Y-108064196D01*
X177515429Y-108058235D01*
X177492329Y-108049970D01*
X177470151Y-108039480D01*
X177449107Y-108026867D01*
X177429402Y-108012253D01*
X177411223Y-107995777D01*
X177394747Y-107977598D01*
X177380133Y-107957893D01*
X177367520Y-107936849D01*
X177357030Y-107914671D01*
X177348765Y-107891571D01*
X177342804Y-107867773D01*
X177339204Y-107843504D01*
X177338000Y-107819000D01*
X177338000Y-107319000D01*
X177339204Y-107294496D01*
X177342804Y-107270227D01*
X177348765Y-107246429D01*
X177357030Y-107223329D01*
X177367520Y-107201151D01*
X177380133Y-107180107D01*
X177394747Y-107160402D01*
X177411223Y-107142223D01*
X177429402Y-107125747D01*
X177449107Y-107111133D01*
X177470151Y-107098520D01*
X177492329Y-107088030D01*
X177515429Y-107079765D01*
X177539227Y-107073804D01*
X177563496Y-107070204D01*
X177588000Y-107069000D01*
X179888000Y-107069000D01*
X179912504Y-107070204D01*
G37*
G36*
X179912504Y-105800204D02*
G01*
X179936773Y-105803804D01*
X179960571Y-105809765D01*
X179983671Y-105818030D01*
X180005849Y-105828520D01*
X180026893Y-105841133D01*
X180046598Y-105855747D01*
X180064777Y-105872223D01*
X180081253Y-105890402D01*
X180095867Y-105910107D01*
X180108480Y-105931151D01*
X180118970Y-105953329D01*
X180127235Y-105976429D01*
X180133196Y-106000227D01*
X180136796Y-106024496D01*
X180138000Y-106049000D01*
X180138000Y-106549000D01*
X180136796Y-106573504D01*
X180133196Y-106597773D01*
X180127235Y-106621571D01*
X180118970Y-106644671D01*
X180108480Y-106666849D01*
X180095867Y-106687893D01*
X180081253Y-106707598D01*
X180064777Y-106725777D01*
X180046598Y-106742253D01*
X180026893Y-106756867D01*
X180005849Y-106769480D01*
X179983671Y-106779970D01*
X179960571Y-106788235D01*
X179936773Y-106794196D01*
X179912504Y-106797796D01*
X179888000Y-106799000D01*
X177588000Y-106799000D01*
X177563496Y-106797796D01*
X177539227Y-106794196D01*
X177515429Y-106788235D01*
X177492329Y-106779970D01*
X177470151Y-106769480D01*
X177449107Y-106756867D01*
X177429402Y-106742253D01*
X177411223Y-106725777D01*
X177394747Y-106707598D01*
X177380133Y-106687893D01*
X177367520Y-106666849D01*
X177357030Y-106644671D01*
X177348765Y-106621571D01*
X177342804Y-106597773D01*
X177339204Y-106573504D01*
X177338000Y-106549000D01*
X177338000Y-106049000D01*
X177339204Y-106024496D01*
X177342804Y-106000227D01*
X177348765Y-105976429D01*
X177357030Y-105953329D01*
X177367520Y-105931151D01*
X177380133Y-105910107D01*
X177394747Y-105890402D01*
X177411223Y-105872223D01*
X177429402Y-105855747D01*
X177449107Y-105841133D01*
X177470151Y-105828520D01*
X177492329Y-105818030D01*
X177515429Y-105809765D01*
X177539227Y-105803804D01*
X177563496Y-105800204D01*
X177588000Y-105799000D01*
X179888000Y-105799000D01*
X179912504Y-105800204D01*
G37*
G36*
X179912504Y-104530204D02*
G01*
X179936773Y-104533804D01*
X179960571Y-104539765D01*
X179983671Y-104548030D01*
X180005849Y-104558520D01*
X180026893Y-104571133D01*
X180046598Y-104585747D01*
X180064777Y-104602223D01*
X180081253Y-104620402D01*
X180095867Y-104640107D01*
X180108480Y-104661151D01*
X180118970Y-104683329D01*
X180127235Y-104706429D01*
X180133196Y-104730227D01*
X180136796Y-104754496D01*
X180138000Y-104779000D01*
X180138000Y-105279000D01*
X180136796Y-105303504D01*
X180133196Y-105327773D01*
X180127235Y-105351571D01*
X180118970Y-105374671D01*
X180108480Y-105396849D01*
X180095867Y-105417893D01*
X180081253Y-105437598D01*
X180064777Y-105455777D01*
X180046598Y-105472253D01*
X180026893Y-105486867D01*
X180005849Y-105499480D01*
X179983671Y-105509970D01*
X179960571Y-105518235D01*
X179936773Y-105524196D01*
X179912504Y-105527796D01*
X179888000Y-105529000D01*
X177588000Y-105529000D01*
X177563496Y-105527796D01*
X177539227Y-105524196D01*
X177515429Y-105518235D01*
X177492329Y-105509970D01*
X177470151Y-105499480D01*
X177449107Y-105486867D01*
X177429402Y-105472253D01*
X177411223Y-105455777D01*
X177394747Y-105437598D01*
X177380133Y-105417893D01*
X177367520Y-105396849D01*
X177357030Y-105374671D01*
X177348765Y-105351571D01*
X177342804Y-105327773D01*
X177339204Y-105303504D01*
X177338000Y-105279000D01*
X177338000Y-104779000D01*
X177339204Y-104754496D01*
X177342804Y-104730227D01*
X177348765Y-104706429D01*
X177357030Y-104683329D01*
X177367520Y-104661151D01*
X177380133Y-104640107D01*
X177394747Y-104620402D01*
X177411223Y-104602223D01*
X177429402Y-104585747D01*
X177449107Y-104571133D01*
X177470151Y-104558520D01*
X177492329Y-104548030D01*
X177515429Y-104539765D01*
X177539227Y-104533804D01*
X177563496Y-104530204D01*
X177588000Y-104529000D01*
X179888000Y-104529000D01*
X179912504Y-104530204D01*
G37*
G36*
X179912504Y-103260204D02*
G01*
X179936773Y-103263804D01*
X179960571Y-103269765D01*
X179983671Y-103278030D01*
X180005849Y-103288520D01*
X180026893Y-103301133D01*
X180046598Y-103315747D01*
X180064777Y-103332223D01*
X180081253Y-103350402D01*
X180095867Y-103370107D01*
X180108480Y-103391151D01*
X180118970Y-103413329D01*
X180127235Y-103436429D01*
X180133196Y-103460227D01*
X180136796Y-103484496D01*
X180138000Y-103509000D01*
X180138000Y-104009000D01*
X180136796Y-104033504D01*
X180133196Y-104057773D01*
X180127235Y-104081571D01*
X180118970Y-104104671D01*
X180108480Y-104126849D01*
X180095867Y-104147893D01*
X180081253Y-104167598D01*
X180064777Y-104185777D01*
X180046598Y-104202253D01*
X180026893Y-104216867D01*
X180005849Y-104229480D01*
X179983671Y-104239970D01*
X179960571Y-104248235D01*
X179936773Y-104254196D01*
X179912504Y-104257796D01*
X179888000Y-104259000D01*
X177588000Y-104259000D01*
X177563496Y-104257796D01*
X177539227Y-104254196D01*
X177515429Y-104248235D01*
X177492329Y-104239970D01*
X177470151Y-104229480D01*
X177449107Y-104216867D01*
X177429402Y-104202253D01*
X177411223Y-104185777D01*
X177394747Y-104167598D01*
X177380133Y-104147893D01*
X177367520Y-104126849D01*
X177357030Y-104104671D01*
X177348765Y-104081571D01*
X177342804Y-104057773D01*
X177339204Y-104033504D01*
X177338000Y-104009000D01*
X177338000Y-103509000D01*
X177339204Y-103484496D01*
X177342804Y-103460227D01*
X177348765Y-103436429D01*
X177357030Y-103413329D01*
X177367520Y-103391151D01*
X177380133Y-103370107D01*
X177394747Y-103350402D01*
X177411223Y-103332223D01*
X177429402Y-103315747D01*
X177449107Y-103301133D01*
X177470151Y-103288520D01*
X177492329Y-103278030D01*
X177515429Y-103269765D01*
X177539227Y-103263804D01*
X177563496Y-103260204D01*
X177588000Y-103259000D01*
X179888000Y-103259000D01*
X179912504Y-103260204D01*
G37*
G36*
X179912504Y-101990204D02*
G01*
X179936773Y-101993804D01*
X179960571Y-101999765D01*
X179983671Y-102008030D01*
X180005849Y-102018520D01*
X180026893Y-102031133D01*
X180046598Y-102045747D01*
X180064777Y-102062223D01*
X180081253Y-102080402D01*
X180095867Y-102100107D01*
X180108480Y-102121151D01*
X180118970Y-102143329D01*
X180127235Y-102166429D01*
X180133196Y-102190227D01*
X180136796Y-102214496D01*
X180138000Y-102239000D01*
X180138000Y-102739000D01*
X180136796Y-102763504D01*
X180133196Y-102787773D01*
X180127235Y-102811571D01*
X180118970Y-102834671D01*
X180108480Y-102856849D01*
X180095867Y-102877893D01*
X180081253Y-102897598D01*
X180064777Y-102915777D01*
X180046598Y-102932253D01*
X180026893Y-102946867D01*
X180005849Y-102959480D01*
X179983671Y-102969970D01*
X179960571Y-102978235D01*
X179936773Y-102984196D01*
X179912504Y-102987796D01*
X179888000Y-102989000D01*
X177588000Y-102989000D01*
X177563496Y-102987796D01*
X177539227Y-102984196D01*
X177515429Y-102978235D01*
X177492329Y-102969970D01*
X177470151Y-102959480D01*
X177449107Y-102946867D01*
X177429402Y-102932253D01*
X177411223Y-102915777D01*
X177394747Y-102897598D01*
X177380133Y-102877893D01*
X177367520Y-102856849D01*
X177357030Y-102834671D01*
X177348765Y-102811571D01*
X177342804Y-102787773D01*
X177339204Y-102763504D01*
X177338000Y-102739000D01*
X177338000Y-102239000D01*
X177339204Y-102214496D01*
X177342804Y-102190227D01*
X177348765Y-102166429D01*
X177357030Y-102143329D01*
X177367520Y-102121151D01*
X177380133Y-102100107D01*
X177394747Y-102080402D01*
X177411223Y-102062223D01*
X177429402Y-102045747D01*
X177449107Y-102031133D01*
X177470151Y-102018520D01*
X177492329Y-102008030D01*
X177515429Y-101999765D01*
X177539227Y-101993804D01*
X177563496Y-101990204D01*
X177588000Y-101989000D01*
X179888000Y-101989000D01*
X179912504Y-101990204D01*
G37*
G36*
X179912504Y-100720204D02*
G01*
X179936773Y-100723804D01*
X179960571Y-100729765D01*
X179983671Y-100738030D01*
X180005849Y-100748520D01*
X180026893Y-100761133D01*
X180046598Y-100775747D01*
X180064777Y-100792223D01*
X180081253Y-100810402D01*
X180095867Y-100830107D01*
X180108480Y-100851151D01*
X180118970Y-100873329D01*
X180127235Y-100896429D01*
X180133196Y-100920227D01*
X180136796Y-100944496D01*
X180138000Y-100969000D01*
X180138000Y-101469000D01*
X180136796Y-101493504D01*
X180133196Y-101517773D01*
X180127235Y-101541571D01*
X180118970Y-101564671D01*
X180108480Y-101586849D01*
X180095867Y-101607893D01*
X180081253Y-101627598D01*
X180064777Y-101645777D01*
X180046598Y-101662253D01*
X180026893Y-101676867D01*
X180005849Y-101689480D01*
X179983671Y-101699970D01*
X179960571Y-101708235D01*
X179936773Y-101714196D01*
X179912504Y-101717796D01*
X179888000Y-101719000D01*
X177588000Y-101719000D01*
X177563496Y-101717796D01*
X177539227Y-101714196D01*
X177515429Y-101708235D01*
X177492329Y-101699970D01*
X177470151Y-101689480D01*
X177449107Y-101676867D01*
X177429402Y-101662253D01*
X177411223Y-101645777D01*
X177394747Y-101627598D01*
X177380133Y-101607893D01*
X177367520Y-101586849D01*
X177357030Y-101564671D01*
X177348765Y-101541571D01*
X177342804Y-101517773D01*
X177339204Y-101493504D01*
X177338000Y-101469000D01*
X177338000Y-100969000D01*
X177339204Y-100944496D01*
X177342804Y-100920227D01*
X177348765Y-100896429D01*
X177357030Y-100873329D01*
X177367520Y-100851151D01*
X177380133Y-100830107D01*
X177394747Y-100810402D01*
X177411223Y-100792223D01*
X177429402Y-100775747D01*
X177449107Y-100761133D01*
X177470151Y-100748520D01*
X177492329Y-100738030D01*
X177515429Y-100729765D01*
X177539227Y-100723804D01*
X177563496Y-100720204D01*
X177588000Y-100719000D01*
X179888000Y-100719000D01*
X179912504Y-100720204D01*
G37*
G36*
X179912504Y-99450204D02*
G01*
X179936773Y-99453804D01*
X179960571Y-99459765D01*
X179983671Y-99468030D01*
X180005849Y-99478520D01*
X180026893Y-99491133D01*
X180046598Y-99505747D01*
X180064777Y-99522223D01*
X180081253Y-99540402D01*
X180095867Y-99560107D01*
X180108480Y-99581151D01*
X180118970Y-99603329D01*
X180127235Y-99626429D01*
X180133196Y-99650227D01*
X180136796Y-99674496D01*
X180138000Y-99699000D01*
X180138000Y-100199000D01*
X180136796Y-100223504D01*
X180133196Y-100247773D01*
X180127235Y-100271571D01*
X180118970Y-100294671D01*
X180108480Y-100316849D01*
X180095867Y-100337893D01*
X180081253Y-100357598D01*
X180064777Y-100375777D01*
X180046598Y-100392253D01*
X180026893Y-100406867D01*
X180005849Y-100419480D01*
X179983671Y-100429970D01*
X179960571Y-100438235D01*
X179936773Y-100444196D01*
X179912504Y-100447796D01*
X179888000Y-100449000D01*
X177588000Y-100449000D01*
X177563496Y-100447796D01*
X177539227Y-100444196D01*
X177515429Y-100438235D01*
X177492329Y-100429970D01*
X177470151Y-100419480D01*
X177449107Y-100406867D01*
X177429402Y-100392253D01*
X177411223Y-100375777D01*
X177394747Y-100357598D01*
X177380133Y-100337893D01*
X177367520Y-100316849D01*
X177357030Y-100294671D01*
X177348765Y-100271571D01*
X177342804Y-100247773D01*
X177339204Y-100223504D01*
X177338000Y-100199000D01*
X177338000Y-99699000D01*
X177339204Y-99674496D01*
X177342804Y-99650227D01*
X177348765Y-99626429D01*
X177357030Y-99603329D01*
X177367520Y-99581151D01*
X177380133Y-99560107D01*
X177394747Y-99540402D01*
X177411223Y-99522223D01*
X177429402Y-99505747D01*
X177449107Y-99491133D01*
X177470151Y-99478520D01*
X177492329Y-99468030D01*
X177515429Y-99459765D01*
X177539227Y-99453804D01*
X177563496Y-99450204D01*
X177588000Y-99449000D01*
X179888000Y-99449000D01*
X179912504Y-99450204D01*
G37*
G36*
X179912504Y-98180204D02*
G01*
X179936773Y-98183804D01*
X179960571Y-98189765D01*
X179983671Y-98198030D01*
X180005849Y-98208520D01*
X180026893Y-98221133D01*
X180046598Y-98235747D01*
X180064777Y-98252223D01*
X180081253Y-98270402D01*
X180095867Y-98290107D01*
X180108480Y-98311151D01*
X180118970Y-98333329D01*
X180127235Y-98356429D01*
X180133196Y-98380227D01*
X180136796Y-98404496D01*
X180138000Y-98429000D01*
X180138000Y-98929000D01*
X180136796Y-98953504D01*
X180133196Y-98977773D01*
X180127235Y-99001571D01*
X180118970Y-99024671D01*
X180108480Y-99046849D01*
X180095867Y-99067893D01*
X180081253Y-99087598D01*
X180064777Y-99105777D01*
X180046598Y-99122253D01*
X180026893Y-99136867D01*
X180005849Y-99149480D01*
X179983671Y-99159970D01*
X179960571Y-99168235D01*
X179936773Y-99174196D01*
X179912504Y-99177796D01*
X179888000Y-99179000D01*
X177588000Y-99179000D01*
X177563496Y-99177796D01*
X177539227Y-99174196D01*
X177515429Y-99168235D01*
X177492329Y-99159970D01*
X177470151Y-99149480D01*
X177449107Y-99136867D01*
X177429402Y-99122253D01*
X177411223Y-99105777D01*
X177394747Y-99087598D01*
X177380133Y-99067893D01*
X177367520Y-99046849D01*
X177357030Y-99024671D01*
X177348765Y-99001571D01*
X177342804Y-98977773D01*
X177339204Y-98953504D01*
X177338000Y-98929000D01*
X177338000Y-98429000D01*
X177339204Y-98404496D01*
X177342804Y-98380227D01*
X177348765Y-98356429D01*
X177357030Y-98333329D01*
X177367520Y-98311151D01*
X177380133Y-98290107D01*
X177394747Y-98270402D01*
X177411223Y-98252223D01*
X177429402Y-98235747D01*
X177449107Y-98221133D01*
X177470151Y-98208520D01*
X177492329Y-98198030D01*
X177515429Y-98189765D01*
X177539227Y-98183804D01*
X177563496Y-98180204D01*
X177588000Y-98179000D01*
X179888000Y-98179000D01*
X179912504Y-98180204D01*
G37*
G36*
X179912504Y-96910204D02*
G01*
X179936773Y-96913804D01*
X179960571Y-96919765D01*
X179983671Y-96928030D01*
X180005849Y-96938520D01*
X180026893Y-96951133D01*
X180046598Y-96965747D01*
X180064777Y-96982223D01*
X180081253Y-97000402D01*
X180095867Y-97020107D01*
X180108480Y-97041151D01*
X180118970Y-97063329D01*
X180127235Y-97086429D01*
X180133196Y-97110227D01*
X180136796Y-97134496D01*
X180138000Y-97159000D01*
X180138000Y-97659000D01*
X180136796Y-97683504D01*
X180133196Y-97707773D01*
X180127235Y-97731571D01*
X180118970Y-97754671D01*
X180108480Y-97776849D01*
X180095867Y-97797893D01*
X180081253Y-97817598D01*
X180064777Y-97835777D01*
X180046598Y-97852253D01*
X180026893Y-97866867D01*
X180005849Y-97879480D01*
X179983671Y-97889970D01*
X179960571Y-97898235D01*
X179936773Y-97904196D01*
X179912504Y-97907796D01*
X179888000Y-97909000D01*
X177588000Y-97909000D01*
X177563496Y-97907796D01*
X177539227Y-97904196D01*
X177515429Y-97898235D01*
X177492329Y-97889970D01*
X177470151Y-97879480D01*
X177449107Y-97866867D01*
X177429402Y-97852253D01*
X177411223Y-97835777D01*
X177394747Y-97817598D01*
X177380133Y-97797893D01*
X177367520Y-97776849D01*
X177357030Y-97754671D01*
X177348765Y-97731571D01*
X177342804Y-97707773D01*
X177339204Y-97683504D01*
X177338000Y-97659000D01*
X177338000Y-97159000D01*
X177339204Y-97134496D01*
X177342804Y-97110227D01*
X177348765Y-97086429D01*
X177357030Y-97063329D01*
X177367520Y-97041151D01*
X177380133Y-97020107D01*
X177394747Y-97000402D01*
X177411223Y-96982223D01*
X177429402Y-96965747D01*
X177449107Y-96951133D01*
X177470151Y-96938520D01*
X177492329Y-96928030D01*
X177515429Y-96919765D01*
X177539227Y-96913804D01*
X177563496Y-96910204D01*
X177588000Y-96909000D01*
X179888000Y-96909000D01*
X179912504Y-96910204D01*
G37*
G36*
X189212504Y-96910204D02*
G01*
X189236773Y-96913804D01*
X189260571Y-96919765D01*
X189283671Y-96928030D01*
X189305849Y-96938520D01*
X189326893Y-96951133D01*
X189346598Y-96965747D01*
X189364777Y-96982223D01*
X189381253Y-97000402D01*
X189395867Y-97020107D01*
X189408480Y-97041151D01*
X189418970Y-97063329D01*
X189427235Y-97086429D01*
X189433196Y-97110227D01*
X189436796Y-97134496D01*
X189438000Y-97159000D01*
X189438000Y-97659000D01*
X189436796Y-97683504D01*
X189433196Y-97707773D01*
X189427235Y-97731571D01*
X189418970Y-97754671D01*
X189408480Y-97776849D01*
X189395867Y-97797893D01*
X189381253Y-97817598D01*
X189364777Y-97835777D01*
X189346598Y-97852253D01*
X189326893Y-97866867D01*
X189305849Y-97879480D01*
X189283671Y-97889970D01*
X189260571Y-97898235D01*
X189236773Y-97904196D01*
X189212504Y-97907796D01*
X189188000Y-97909000D01*
X186888000Y-97909000D01*
X186863496Y-97907796D01*
X186839227Y-97904196D01*
X186815429Y-97898235D01*
X186792329Y-97889970D01*
X186770151Y-97879480D01*
X186749107Y-97866867D01*
X186729402Y-97852253D01*
X186711223Y-97835777D01*
X186694747Y-97817598D01*
X186680133Y-97797893D01*
X186667520Y-97776849D01*
X186657030Y-97754671D01*
X186648765Y-97731571D01*
X186642804Y-97707773D01*
X186639204Y-97683504D01*
X186638000Y-97659000D01*
X186638000Y-97159000D01*
X186639204Y-97134496D01*
X186642804Y-97110227D01*
X186648765Y-97086429D01*
X186657030Y-97063329D01*
X186667520Y-97041151D01*
X186680133Y-97020107D01*
X186694747Y-97000402D01*
X186711223Y-96982223D01*
X186729402Y-96965747D01*
X186749107Y-96951133D01*
X186770151Y-96938520D01*
X186792329Y-96928030D01*
X186815429Y-96919765D01*
X186839227Y-96913804D01*
X186863496Y-96910204D01*
X186888000Y-96909000D01*
X189188000Y-96909000D01*
X189212504Y-96910204D01*
G37*
G36*
X189212504Y-98180204D02*
G01*
X189236773Y-98183804D01*
X189260571Y-98189765D01*
X189283671Y-98198030D01*
X189305849Y-98208520D01*
X189326893Y-98221133D01*
X189346598Y-98235747D01*
X189364777Y-98252223D01*
X189381253Y-98270402D01*
X189395867Y-98290107D01*
X189408480Y-98311151D01*
X189418970Y-98333329D01*
X189427235Y-98356429D01*
X189433196Y-98380227D01*
X189436796Y-98404496D01*
X189438000Y-98429000D01*
X189438000Y-98929000D01*
X189436796Y-98953504D01*
X189433196Y-98977773D01*
X189427235Y-99001571D01*
X189418970Y-99024671D01*
X189408480Y-99046849D01*
X189395867Y-99067893D01*
X189381253Y-99087598D01*
X189364777Y-99105777D01*
X189346598Y-99122253D01*
X189326893Y-99136867D01*
X189305849Y-99149480D01*
X189283671Y-99159970D01*
X189260571Y-99168235D01*
X189236773Y-99174196D01*
X189212504Y-99177796D01*
X189188000Y-99179000D01*
X186888000Y-99179000D01*
X186863496Y-99177796D01*
X186839227Y-99174196D01*
X186815429Y-99168235D01*
X186792329Y-99159970D01*
X186770151Y-99149480D01*
X186749107Y-99136867D01*
X186729402Y-99122253D01*
X186711223Y-99105777D01*
X186694747Y-99087598D01*
X186680133Y-99067893D01*
X186667520Y-99046849D01*
X186657030Y-99024671D01*
X186648765Y-99001571D01*
X186642804Y-98977773D01*
X186639204Y-98953504D01*
X186638000Y-98929000D01*
X186638000Y-98429000D01*
X186639204Y-98404496D01*
X186642804Y-98380227D01*
X186648765Y-98356429D01*
X186657030Y-98333329D01*
X186667520Y-98311151D01*
X186680133Y-98290107D01*
X186694747Y-98270402D01*
X186711223Y-98252223D01*
X186729402Y-98235747D01*
X186749107Y-98221133D01*
X186770151Y-98208520D01*
X186792329Y-98198030D01*
X186815429Y-98189765D01*
X186839227Y-98183804D01*
X186863496Y-98180204D01*
X186888000Y-98179000D01*
X189188000Y-98179000D01*
X189212504Y-98180204D01*
G37*
G36*
X189212504Y-99450204D02*
G01*
X189236773Y-99453804D01*
X189260571Y-99459765D01*
X189283671Y-99468030D01*
X189305849Y-99478520D01*
X189326893Y-99491133D01*
X189346598Y-99505747D01*
X189364777Y-99522223D01*
X189381253Y-99540402D01*
X189395867Y-99560107D01*
X189408480Y-99581151D01*
X189418970Y-99603329D01*
X189427235Y-99626429D01*
X189433196Y-99650227D01*
X189436796Y-99674496D01*
X189438000Y-99699000D01*
X189438000Y-100199000D01*
X189436796Y-100223504D01*
X189433196Y-100247773D01*
X189427235Y-100271571D01*
X189418970Y-100294671D01*
X189408480Y-100316849D01*
X189395867Y-100337893D01*
X189381253Y-100357598D01*
X189364777Y-100375777D01*
X189346598Y-100392253D01*
X189326893Y-100406867D01*
X189305849Y-100419480D01*
X189283671Y-100429970D01*
X189260571Y-100438235D01*
X189236773Y-100444196D01*
X189212504Y-100447796D01*
X189188000Y-100449000D01*
X186888000Y-100449000D01*
X186863496Y-100447796D01*
X186839227Y-100444196D01*
X186815429Y-100438235D01*
X186792329Y-100429970D01*
X186770151Y-100419480D01*
X186749107Y-100406867D01*
X186729402Y-100392253D01*
X186711223Y-100375777D01*
X186694747Y-100357598D01*
X186680133Y-100337893D01*
X186667520Y-100316849D01*
X186657030Y-100294671D01*
X186648765Y-100271571D01*
X186642804Y-100247773D01*
X186639204Y-100223504D01*
X186638000Y-100199000D01*
X186638000Y-99699000D01*
X186639204Y-99674496D01*
X186642804Y-99650227D01*
X186648765Y-99626429D01*
X186657030Y-99603329D01*
X186667520Y-99581151D01*
X186680133Y-99560107D01*
X186694747Y-99540402D01*
X186711223Y-99522223D01*
X186729402Y-99505747D01*
X186749107Y-99491133D01*
X186770151Y-99478520D01*
X186792329Y-99468030D01*
X186815429Y-99459765D01*
X186839227Y-99453804D01*
X186863496Y-99450204D01*
X186888000Y-99449000D01*
X189188000Y-99449000D01*
X189212504Y-99450204D01*
G37*
G36*
X189212504Y-100720204D02*
G01*
X189236773Y-100723804D01*
X189260571Y-100729765D01*
X189283671Y-100738030D01*
X189305849Y-100748520D01*
X189326893Y-100761133D01*
X189346598Y-100775747D01*
X189364777Y-100792223D01*
X189381253Y-100810402D01*
X189395867Y-100830107D01*
X189408480Y-100851151D01*
X189418970Y-100873329D01*
X189427235Y-100896429D01*
X189433196Y-100920227D01*
X189436796Y-100944496D01*
X189438000Y-100969000D01*
X189438000Y-101469000D01*
X189436796Y-101493504D01*
X189433196Y-101517773D01*
X189427235Y-101541571D01*
X189418970Y-101564671D01*
X189408480Y-101586849D01*
X189395867Y-101607893D01*
X189381253Y-101627598D01*
X189364777Y-101645777D01*
X189346598Y-101662253D01*
X189326893Y-101676867D01*
X189305849Y-101689480D01*
X189283671Y-101699970D01*
X189260571Y-101708235D01*
X189236773Y-101714196D01*
X189212504Y-101717796D01*
X189188000Y-101719000D01*
X186888000Y-101719000D01*
X186863496Y-101717796D01*
X186839227Y-101714196D01*
X186815429Y-101708235D01*
X186792329Y-101699970D01*
X186770151Y-101689480D01*
X186749107Y-101676867D01*
X186729402Y-101662253D01*
X186711223Y-101645777D01*
X186694747Y-101627598D01*
X186680133Y-101607893D01*
X186667520Y-101586849D01*
X186657030Y-101564671D01*
X186648765Y-101541571D01*
X186642804Y-101517773D01*
X186639204Y-101493504D01*
X186638000Y-101469000D01*
X186638000Y-100969000D01*
X186639204Y-100944496D01*
X186642804Y-100920227D01*
X186648765Y-100896429D01*
X186657030Y-100873329D01*
X186667520Y-100851151D01*
X186680133Y-100830107D01*
X186694747Y-100810402D01*
X186711223Y-100792223D01*
X186729402Y-100775747D01*
X186749107Y-100761133D01*
X186770151Y-100748520D01*
X186792329Y-100738030D01*
X186815429Y-100729765D01*
X186839227Y-100723804D01*
X186863496Y-100720204D01*
X186888000Y-100719000D01*
X189188000Y-100719000D01*
X189212504Y-100720204D01*
G37*
G36*
X189212504Y-101990204D02*
G01*
X189236773Y-101993804D01*
X189260571Y-101999765D01*
X189283671Y-102008030D01*
X189305849Y-102018520D01*
X189326893Y-102031133D01*
X189346598Y-102045747D01*
X189364777Y-102062223D01*
X189381253Y-102080402D01*
X189395867Y-102100107D01*
X189408480Y-102121151D01*
X189418970Y-102143329D01*
X189427235Y-102166429D01*
X189433196Y-102190227D01*
X189436796Y-102214496D01*
X189438000Y-102239000D01*
X189438000Y-102739000D01*
X189436796Y-102763504D01*
X189433196Y-102787773D01*
X189427235Y-102811571D01*
X189418970Y-102834671D01*
X189408480Y-102856849D01*
X189395867Y-102877893D01*
X189381253Y-102897598D01*
X189364777Y-102915777D01*
X189346598Y-102932253D01*
X189326893Y-102946867D01*
X189305849Y-102959480D01*
X189283671Y-102969970D01*
X189260571Y-102978235D01*
X189236773Y-102984196D01*
X189212504Y-102987796D01*
X189188000Y-102989000D01*
X186888000Y-102989000D01*
X186863496Y-102987796D01*
X186839227Y-102984196D01*
X186815429Y-102978235D01*
X186792329Y-102969970D01*
X186770151Y-102959480D01*
X186749107Y-102946867D01*
X186729402Y-102932253D01*
X186711223Y-102915777D01*
X186694747Y-102897598D01*
X186680133Y-102877893D01*
X186667520Y-102856849D01*
X186657030Y-102834671D01*
X186648765Y-102811571D01*
X186642804Y-102787773D01*
X186639204Y-102763504D01*
X186638000Y-102739000D01*
X186638000Y-102239000D01*
X186639204Y-102214496D01*
X186642804Y-102190227D01*
X186648765Y-102166429D01*
X186657030Y-102143329D01*
X186667520Y-102121151D01*
X186680133Y-102100107D01*
X186694747Y-102080402D01*
X186711223Y-102062223D01*
X186729402Y-102045747D01*
X186749107Y-102031133D01*
X186770151Y-102018520D01*
X186792329Y-102008030D01*
X186815429Y-101999765D01*
X186839227Y-101993804D01*
X186863496Y-101990204D01*
X186888000Y-101989000D01*
X189188000Y-101989000D01*
X189212504Y-101990204D01*
G37*
G36*
X189212504Y-103260204D02*
G01*
X189236773Y-103263804D01*
X189260571Y-103269765D01*
X189283671Y-103278030D01*
X189305849Y-103288520D01*
X189326893Y-103301133D01*
X189346598Y-103315747D01*
X189364777Y-103332223D01*
X189381253Y-103350402D01*
X189395867Y-103370107D01*
X189408480Y-103391151D01*
X189418970Y-103413329D01*
X189427235Y-103436429D01*
X189433196Y-103460227D01*
X189436796Y-103484496D01*
X189438000Y-103509000D01*
X189438000Y-104009000D01*
X189436796Y-104033504D01*
X189433196Y-104057773D01*
X189427235Y-104081571D01*
X189418970Y-104104671D01*
X189408480Y-104126849D01*
X189395867Y-104147893D01*
X189381253Y-104167598D01*
X189364777Y-104185777D01*
X189346598Y-104202253D01*
X189326893Y-104216867D01*
X189305849Y-104229480D01*
X189283671Y-104239970D01*
X189260571Y-104248235D01*
X189236773Y-104254196D01*
X189212504Y-104257796D01*
X189188000Y-104259000D01*
X186888000Y-104259000D01*
X186863496Y-104257796D01*
X186839227Y-104254196D01*
X186815429Y-104248235D01*
X186792329Y-104239970D01*
X186770151Y-104229480D01*
X186749107Y-104216867D01*
X186729402Y-104202253D01*
X186711223Y-104185777D01*
X186694747Y-104167598D01*
X186680133Y-104147893D01*
X186667520Y-104126849D01*
X186657030Y-104104671D01*
X186648765Y-104081571D01*
X186642804Y-104057773D01*
X186639204Y-104033504D01*
X186638000Y-104009000D01*
X186638000Y-103509000D01*
X186639204Y-103484496D01*
X186642804Y-103460227D01*
X186648765Y-103436429D01*
X186657030Y-103413329D01*
X186667520Y-103391151D01*
X186680133Y-103370107D01*
X186694747Y-103350402D01*
X186711223Y-103332223D01*
X186729402Y-103315747D01*
X186749107Y-103301133D01*
X186770151Y-103288520D01*
X186792329Y-103278030D01*
X186815429Y-103269765D01*
X186839227Y-103263804D01*
X186863496Y-103260204D01*
X186888000Y-103259000D01*
X189188000Y-103259000D01*
X189212504Y-103260204D01*
G37*
G36*
X189212504Y-104530204D02*
G01*
X189236773Y-104533804D01*
X189260571Y-104539765D01*
X189283671Y-104548030D01*
X189305849Y-104558520D01*
X189326893Y-104571133D01*
X189346598Y-104585747D01*
X189364777Y-104602223D01*
X189381253Y-104620402D01*
X189395867Y-104640107D01*
X189408480Y-104661151D01*
X189418970Y-104683329D01*
X189427235Y-104706429D01*
X189433196Y-104730227D01*
X189436796Y-104754496D01*
X189438000Y-104779000D01*
X189438000Y-105279000D01*
X189436796Y-105303504D01*
X189433196Y-105327773D01*
X189427235Y-105351571D01*
X189418970Y-105374671D01*
X189408480Y-105396849D01*
X189395867Y-105417893D01*
X189381253Y-105437598D01*
X189364777Y-105455777D01*
X189346598Y-105472253D01*
X189326893Y-105486867D01*
X189305849Y-105499480D01*
X189283671Y-105509970D01*
X189260571Y-105518235D01*
X189236773Y-105524196D01*
X189212504Y-105527796D01*
X189188000Y-105529000D01*
X186888000Y-105529000D01*
X186863496Y-105527796D01*
X186839227Y-105524196D01*
X186815429Y-105518235D01*
X186792329Y-105509970D01*
X186770151Y-105499480D01*
X186749107Y-105486867D01*
X186729402Y-105472253D01*
X186711223Y-105455777D01*
X186694747Y-105437598D01*
X186680133Y-105417893D01*
X186667520Y-105396849D01*
X186657030Y-105374671D01*
X186648765Y-105351571D01*
X186642804Y-105327773D01*
X186639204Y-105303504D01*
X186638000Y-105279000D01*
X186638000Y-104779000D01*
X186639204Y-104754496D01*
X186642804Y-104730227D01*
X186648765Y-104706429D01*
X186657030Y-104683329D01*
X186667520Y-104661151D01*
X186680133Y-104640107D01*
X186694747Y-104620402D01*
X186711223Y-104602223D01*
X186729402Y-104585747D01*
X186749107Y-104571133D01*
X186770151Y-104558520D01*
X186792329Y-104548030D01*
X186815429Y-104539765D01*
X186839227Y-104533804D01*
X186863496Y-104530204D01*
X186888000Y-104529000D01*
X189188000Y-104529000D01*
X189212504Y-104530204D01*
G37*
G36*
X189212504Y-105800204D02*
G01*
X189236773Y-105803804D01*
X189260571Y-105809765D01*
X189283671Y-105818030D01*
X189305849Y-105828520D01*
X189326893Y-105841133D01*
X189346598Y-105855747D01*
X189364777Y-105872223D01*
X189381253Y-105890402D01*
X189395867Y-105910107D01*
X189408480Y-105931151D01*
X189418970Y-105953329D01*
X189427235Y-105976429D01*
X189433196Y-106000227D01*
X189436796Y-106024496D01*
X189438000Y-106049000D01*
X189438000Y-106549000D01*
X189436796Y-106573504D01*
X189433196Y-106597773D01*
X189427235Y-106621571D01*
X189418970Y-106644671D01*
X189408480Y-106666849D01*
X189395867Y-106687893D01*
X189381253Y-106707598D01*
X189364777Y-106725777D01*
X189346598Y-106742253D01*
X189326893Y-106756867D01*
X189305849Y-106769480D01*
X189283671Y-106779970D01*
X189260571Y-106788235D01*
X189236773Y-106794196D01*
X189212504Y-106797796D01*
X189188000Y-106799000D01*
X186888000Y-106799000D01*
X186863496Y-106797796D01*
X186839227Y-106794196D01*
X186815429Y-106788235D01*
X186792329Y-106779970D01*
X186770151Y-106769480D01*
X186749107Y-106756867D01*
X186729402Y-106742253D01*
X186711223Y-106725777D01*
X186694747Y-106707598D01*
X186680133Y-106687893D01*
X186667520Y-106666849D01*
X186657030Y-106644671D01*
X186648765Y-106621571D01*
X186642804Y-106597773D01*
X186639204Y-106573504D01*
X186638000Y-106549000D01*
X186638000Y-106049000D01*
X186639204Y-106024496D01*
X186642804Y-106000227D01*
X186648765Y-105976429D01*
X186657030Y-105953329D01*
X186667520Y-105931151D01*
X186680133Y-105910107D01*
X186694747Y-105890402D01*
X186711223Y-105872223D01*
X186729402Y-105855747D01*
X186749107Y-105841133D01*
X186770151Y-105828520D01*
X186792329Y-105818030D01*
X186815429Y-105809765D01*
X186839227Y-105803804D01*
X186863496Y-105800204D01*
X186888000Y-105799000D01*
X189188000Y-105799000D01*
X189212504Y-105800204D01*
G37*
G36*
X189212504Y-107070204D02*
G01*
X189236773Y-107073804D01*
X189260571Y-107079765D01*
X189283671Y-107088030D01*
X189305849Y-107098520D01*
X189326893Y-107111133D01*
X189346598Y-107125747D01*
X189364777Y-107142223D01*
X189381253Y-107160402D01*
X189395867Y-107180107D01*
X189408480Y-107201151D01*
X189418970Y-107223329D01*
X189427235Y-107246429D01*
X189433196Y-107270227D01*
X189436796Y-107294496D01*
X189438000Y-107319000D01*
X189438000Y-107819000D01*
X189436796Y-107843504D01*
X189433196Y-107867773D01*
X189427235Y-107891571D01*
X189418970Y-107914671D01*
X189408480Y-107936849D01*
X189395867Y-107957893D01*
X189381253Y-107977598D01*
X189364777Y-107995777D01*
X189346598Y-108012253D01*
X189326893Y-108026867D01*
X189305849Y-108039480D01*
X189283671Y-108049970D01*
X189260571Y-108058235D01*
X189236773Y-108064196D01*
X189212504Y-108067796D01*
X189188000Y-108069000D01*
X186888000Y-108069000D01*
X186863496Y-108067796D01*
X186839227Y-108064196D01*
X186815429Y-108058235D01*
X186792329Y-108049970D01*
X186770151Y-108039480D01*
X186749107Y-108026867D01*
X186729402Y-108012253D01*
X186711223Y-107995777D01*
X186694747Y-107977598D01*
X186680133Y-107957893D01*
X186667520Y-107936849D01*
X186657030Y-107914671D01*
X186648765Y-107891571D01*
X186642804Y-107867773D01*
X186639204Y-107843504D01*
X186638000Y-107819000D01*
X186638000Y-107319000D01*
X186639204Y-107294496D01*
X186642804Y-107270227D01*
X186648765Y-107246429D01*
X186657030Y-107223329D01*
X186667520Y-107201151D01*
X186680133Y-107180107D01*
X186694747Y-107160402D01*
X186711223Y-107142223D01*
X186729402Y-107125747D01*
X186749107Y-107111133D01*
X186770151Y-107098520D01*
X186792329Y-107088030D01*
X186815429Y-107079765D01*
X186839227Y-107073804D01*
X186863496Y-107070204D01*
X186888000Y-107069000D01*
X189188000Y-107069000D01*
X189212504Y-107070204D01*
G37*
D25*
X188038000Y-108839000D03*
D15*
G36*
X179912504Y-130184204D02*
G01*
X179936773Y-130187804D01*
X179960571Y-130193765D01*
X179983671Y-130202030D01*
X180005849Y-130212520D01*
X180026893Y-130225133D01*
X180046598Y-130239747D01*
X180064777Y-130256223D01*
X180081253Y-130274402D01*
X180095867Y-130294107D01*
X180108480Y-130315151D01*
X180118970Y-130337329D01*
X180127235Y-130360429D01*
X180133196Y-130384227D01*
X180136796Y-130408496D01*
X180138000Y-130433000D01*
X180138000Y-130933000D01*
X180136796Y-130957504D01*
X180133196Y-130981773D01*
X180127235Y-131005571D01*
X180118970Y-131028671D01*
X180108480Y-131050849D01*
X180095867Y-131071893D01*
X180081253Y-131091598D01*
X180064777Y-131109777D01*
X180046598Y-131126253D01*
X180026893Y-131140867D01*
X180005849Y-131153480D01*
X179983671Y-131163970D01*
X179960571Y-131172235D01*
X179936773Y-131178196D01*
X179912504Y-131181796D01*
X179888000Y-131183000D01*
X177588000Y-131183000D01*
X177563496Y-131181796D01*
X177539227Y-131178196D01*
X177515429Y-131172235D01*
X177492329Y-131163970D01*
X177470151Y-131153480D01*
X177449107Y-131140867D01*
X177429402Y-131126253D01*
X177411223Y-131109777D01*
X177394747Y-131091598D01*
X177380133Y-131071893D01*
X177367520Y-131050849D01*
X177357030Y-131028671D01*
X177348765Y-131005571D01*
X177342804Y-130981773D01*
X177339204Y-130957504D01*
X177338000Y-130933000D01*
X177338000Y-130433000D01*
X177339204Y-130408496D01*
X177342804Y-130384227D01*
X177348765Y-130360429D01*
X177357030Y-130337329D01*
X177367520Y-130315151D01*
X177380133Y-130294107D01*
X177394747Y-130274402D01*
X177411223Y-130256223D01*
X177429402Y-130239747D01*
X177449107Y-130225133D01*
X177470151Y-130212520D01*
X177492329Y-130202030D01*
X177515429Y-130193765D01*
X177539227Y-130187804D01*
X177563496Y-130184204D01*
X177588000Y-130183000D01*
X179888000Y-130183000D01*
X179912504Y-130184204D01*
G37*
G36*
X179912504Y-128914204D02*
G01*
X179936773Y-128917804D01*
X179960571Y-128923765D01*
X179983671Y-128932030D01*
X180005849Y-128942520D01*
X180026893Y-128955133D01*
X180046598Y-128969747D01*
X180064777Y-128986223D01*
X180081253Y-129004402D01*
X180095867Y-129024107D01*
X180108480Y-129045151D01*
X180118970Y-129067329D01*
X180127235Y-129090429D01*
X180133196Y-129114227D01*
X180136796Y-129138496D01*
X180138000Y-129163000D01*
X180138000Y-129663000D01*
X180136796Y-129687504D01*
X180133196Y-129711773D01*
X180127235Y-129735571D01*
X180118970Y-129758671D01*
X180108480Y-129780849D01*
X180095867Y-129801893D01*
X180081253Y-129821598D01*
X180064777Y-129839777D01*
X180046598Y-129856253D01*
X180026893Y-129870867D01*
X180005849Y-129883480D01*
X179983671Y-129893970D01*
X179960571Y-129902235D01*
X179936773Y-129908196D01*
X179912504Y-129911796D01*
X179888000Y-129913000D01*
X177588000Y-129913000D01*
X177563496Y-129911796D01*
X177539227Y-129908196D01*
X177515429Y-129902235D01*
X177492329Y-129893970D01*
X177470151Y-129883480D01*
X177449107Y-129870867D01*
X177429402Y-129856253D01*
X177411223Y-129839777D01*
X177394747Y-129821598D01*
X177380133Y-129801893D01*
X177367520Y-129780849D01*
X177357030Y-129758671D01*
X177348765Y-129735571D01*
X177342804Y-129711773D01*
X177339204Y-129687504D01*
X177338000Y-129663000D01*
X177338000Y-129163000D01*
X177339204Y-129138496D01*
X177342804Y-129114227D01*
X177348765Y-129090429D01*
X177357030Y-129067329D01*
X177367520Y-129045151D01*
X177380133Y-129024107D01*
X177394747Y-129004402D01*
X177411223Y-128986223D01*
X177429402Y-128969747D01*
X177449107Y-128955133D01*
X177470151Y-128942520D01*
X177492329Y-128932030D01*
X177515429Y-128923765D01*
X177539227Y-128917804D01*
X177563496Y-128914204D01*
X177588000Y-128913000D01*
X179888000Y-128913000D01*
X179912504Y-128914204D01*
G37*
G36*
X179912504Y-127644204D02*
G01*
X179936773Y-127647804D01*
X179960571Y-127653765D01*
X179983671Y-127662030D01*
X180005849Y-127672520D01*
X180026893Y-127685133D01*
X180046598Y-127699747D01*
X180064777Y-127716223D01*
X180081253Y-127734402D01*
X180095867Y-127754107D01*
X180108480Y-127775151D01*
X180118970Y-127797329D01*
X180127235Y-127820429D01*
X180133196Y-127844227D01*
X180136796Y-127868496D01*
X180138000Y-127893000D01*
X180138000Y-128393000D01*
X180136796Y-128417504D01*
X180133196Y-128441773D01*
X180127235Y-128465571D01*
X180118970Y-128488671D01*
X180108480Y-128510849D01*
X180095867Y-128531893D01*
X180081253Y-128551598D01*
X180064777Y-128569777D01*
X180046598Y-128586253D01*
X180026893Y-128600867D01*
X180005849Y-128613480D01*
X179983671Y-128623970D01*
X179960571Y-128632235D01*
X179936773Y-128638196D01*
X179912504Y-128641796D01*
X179888000Y-128643000D01*
X177588000Y-128643000D01*
X177563496Y-128641796D01*
X177539227Y-128638196D01*
X177515429Y-128632235D01*
X177492329Y-128623970D01*
X177470151Y-128613480D01*
X177449107Y-128600867D01*
X177429402Y-128586253D01*
X177411223Y-128569777D01*
X177394747Y-128551598D01*
X177380133Y-128531893D01*
X177367520Y-128510849D01*
X177357030Y-128488671D01*
X177348765Y-128465571D01*
X177342804Y-128441773D01*
X177339204Y-128417504D01*
X177338000Y-128393000D01*
X177338000Y-127893000D01*
X177339204Y-127868496D01*
X177342804Y-127844227D01*
X177348765Y-127820429D01*
X177357030Y-127797329D01*
X177367520Y-127775151D01*
X177380133Y-127754107D01*
X177394747Y-127734402D01*
X177411223Y-127716223D01*
X177429402Y-127699747D01*
X177449107Y-127685133D01*
X177470151Y-127672520D01*
X177492329Y-127662030D01*
X177515429Y-127653765D01*
X177539227Y-127647804D01*
X177563496Y-127644204D01*
X177588000Y-127643000D01*
X179888000Y-127643000D01*
X179912504Y-127644204D01*
G37*
G36*
X179912504Y-126374204D02*
G01*
X179936773Y-126377804D01*
X179960571Y-126383765D01*
X179983671Y-126392030D01*
X180005849Y-126402520D01*
X180026893Y-126415133D01*
X180046598Y-126429747D01*
X180064777Y-126446223D01*
X180081253Y-126464402D01*
X180095867Y-126484107D01*
X180108480Y-126505151D01*
X180118970Y-126527329D01*
X180127235Y-126550429D01*
X180133196Y-126574227D01*
X180136796Y-126598496D01*
X180138000Y-126623000D01*
X180138000Y-127123000D01*
X180136796Y-127147504D01*
X180133196Y-127171773D01*
X180127235Y-127195571D01*
X180118970Y-127218671D01*
X180108480Y-127240849D01*
X180095867Y-127261893D01*
X180081253Y-127281598D01*
X180064777Y-127299777D01*
X180046598Y-127316253D01*
X180026893Y-127330867D01*
X180005849Y-127343480D01*
X179983671Y-127353970D01*
X179960571Y-127362235D01*
X179936773Y-127368196D01*
X179912504Y-127371796D01*
X179888000Y-127373000D01*
X177588000Y-127373000D01*
X177563496Y-127371796D01*
X177539227Y-127368196D01*
X177515429Y-127362235D01*
X177492329Y-127353970D01*
X177470151Y-127343480D01*
X177449107Y-127330867D01*
X177429402Y-127316253D01*
X177411223Y-127299777D01*
X177394747Y-127281598D01*
X177380133Y-127261893D01*
X177367520Y-127240849D01*
X177357030Y-127218671D01*
X177348765Y-127195571D01*
X177342804Y-127171773D01*
X177339204Y-127147504D01*
X177338000Y-127123000D01*
X177338000Y-126623000D01*
X177339204Y-126598496D01*
X177342804Y-126574227D01*
X177348765Y-126550429D01*
X177357030Y-126527329D01*
X177367520Y-126505151D01*
X177380133Y-126484107D01*
X177394747Y-126464402D01*
X177411223Y-126446223D01*
X177429402Y-126429747D01*
X177449107Y-126415133D01*
X177470151Y-126402520D01*
X177492329Y-126392030D01*
X177515429Y-126383765D01*
X177539227Y-126377804D01*
X177563496Y-126374204D01*
X177588000Y-126373000D01*
X179888000Y-126373000D01*
X179912504Y-126374204D01*
G37*
G36*
X179912504Y-125104204D02*
G01*
X179936773Y-125107804D01*
X179960571Y-125113765D01*
X179983671Y-125122030D01*
X180005849Y-125132520D01*
X180026893Y-125145133D01*
X180046598Y-125159747D01*
X180064777Y-125176223D01*
X180081253Y-125194402D01*
X180095867Y-125214107D01*
X180108480Y-125235151D01*
X180118970Y-125257329D01*
X180127235Y-125280429D01*
X180133196Y-125304227D01*
X180136796Y-125328496D01*
X180138000Y-125353000D01*
X180138000Y-125853000D01*
X180136796Y-125877504D01*
X180133196Y-125901773D01*
X180127235Y-125925571D01*
X180118970Y-125948671D01*
X180108480Y-125970849D01*
X180095867Y-125991893D01*
X180081253Y-126011598D01*
X180064777Y-126029777D01*
X180046598Y-126046253D01*
X180026893Y-126060867D01*
X180005849Y-126073480D01*
X179983671Y-126083970D01*
X179960571Y-126092235D01*
X179936773Y-126098196D01*
X179912504Y-126101796D01*
X179888000Y-126103000D01*
X177588000Y-126103000D01*
X177563496Y-126101796D01*
X177539227Y-126098196D01*
X177515429Y-126092235D01*
X177492329Y-126083970D01*
X177470151Y-126073480D01*
X177449107Y-126060867D01*
X177429402Y-126046253D01*
X177411223Y-126029777D01*
X177394747Y-126011598D01*
X177380133Y-125991893D01*
X177367520Y-125970849D01*
X177357030Y-125948671D01*
X177348765Y-125925571D01*
X177342804Y-125901773D01*
X177339204Y-125877504D01*
X177338000Y-125853000D01*
X177338000Y-125353000D01*
X177339204Y-125328496D01*
X177342804Y-125304227D01*
X177348765Y-125280429D01*
X177357030Y-125257329D01*
X177367520Y-125235151D01*
X177380133Y-125214107D01*
X177394747Y-125194402D01*
X177411223Y-125176223D01*
X177429402Y-125159747D01*
X177449107Y-125145133D01*
X177470151Y-125132520D01*
X177492329Y-125122030D01*
X177515429Y-125113765D01*
X177539227Y-125107804D01*
X177563496Y-125104204D01*
X177588000Y-125103000D01*
X179888000Y-125103000D01*
X179912504Y-125104204D01*
G37*
G36*
X179912504Y-123834204D02*
G01*
X179936773Y-123837804D01*
X179960571Y-123843765D01*
X179983671Y-123852030D01*
X180005849Y-123862520D01*
X180026893Y-123875133D01*
X180046598Y-123889747D01*
X180064777Y-123906223D01*
X180081253Y-123924402D01*
X180095867Y-123944107D01*
X180108480Y-123965151D01*
X180118970Y-123987329D01*
X180127235Y-124010429D01*
X180133196Y-124034227D01*
X180136796Y-124058496D01*
X180138000Y-124083000D01*
X180138000Y-124583000D01*
X180136796Y-124607504D01*
X180133196Y-124631773D01*
X180127235Y-124655571D01*
X180118970Y-124678671D01*
X180108480Y-124700849D01*
X180095867Y-124721893D01*
X180081253Y-124741598D01*
X180064777Y-124759777D01*
X180046598Y-124776253D01*
X180026893Y-124790867D01*
X180005849Y-124803480D01*
X179983671Y-124813970D01*
X179960571Y-124822235D01*
X179936773Y-124828196D01*
X179912504Y-124831796D01*
X179888000Y-124833000D01*
X177588000Y-124833000D01*
X177563496Y-124831796D01*
X177539227Y-124828196D01*
X177515429Y-124822235D01*
X177492329Y-124813970D01*
X177470151Y-124803480D01*
X177449107Y-124790867D01*
X177429402Y-124776253D01*
X177411223Y-124759777D01*
X177394747Y-124741598D01*
X177380133Y-124721893D01*
X177367520Y-124700849D01*
X177357030Y-124678671D01*
X177348765Y-124655571D01*
X177342804Y-124631773D01*
X177339204Y-124607504D01*
X177338000Y-124583000D01*
X177338000Y-124083000D01*
X177339204Y-124058496D01*
X177342804Y-124034227D01*
X177348765Y-124010429D01*
X177357030Y-123987329D01*
X177367520Y-123965151D01*
X177380133Y-123944107D01*
X177394747Y-123924402D01*
X177411223Y-123906223D01*
X177429402Y-123889747D01*
X177449107Y-123875133D01*
X177470151Y-123862520D01*
X177492329Y-123852030D01*
X177515429Y-123843765D01*
X177539227Y-123837804D01*
X177563496Y-123834204D01*
X177588000Y-123833000D01*
X179888000Y-123833000D01*
X179912504Y-123834204D01*
G37*
G36*
X179912504Y-122564204D02*
G01*
X179936773Y-122567804D01*
X179960571Y-122573765D01*
X179983671Y-122582030D01*
X180005849Y-122592520D01*
X180026893Y-122605133D01*
X180046598Y-122619747D01*
X180064777Y-122636223D01*
X180081253Y-122654402D01*
X180095867Y-122674107D01*
X180108480Y-122695151D01*
X180118970Y-122717329D01*
X180127235Y-122740429D01*
X180133196Y-122764227D01*
X180136796Y-122788496D01*
X180138000Y-122813000D01*
X180138000Y-123313000D01*
X180136796Y-123337504D01*
X180133196Y-123361773D01*
X180127235Y-123385571D01*
X180118970Y-123408671D01*
X180108480Y-123430849D01*
X180095867Y-123451893D01*
X180081253Y-123471598D01*
X180064777Y-123489777D01*
X180046598Y-123506253D01*
X180026893Y-123520867D01*
X180005849Y-123533480D01*
X179983671Y-123543970D01*
X179960571Y-123552235D01*
X179936773Y-123558196D01*
X179912504Y-123561796D01*
X179888000Y-123563000D01*
X177588000Y-123563000D01*
X177563496Y-123561796D01*
X177539227Y-123558196D01*
X177515429Y-123552235D01*
X177492329Y-123543970D01*
X177470151Y-123533480D01*
X177449107Y-123520867D01*
X177429402Y-123506253D01*
X177411223Y-123489777D01*
X177394747Y-123471598D01*
X177380133Y-123451893D01*
X177367520Y-123430849D01*
X177357030Y-123408671D01*
X177348765Y-123385571D01*
X177342804Y-123361773D01*
X177339204Y-123337504D01*
X177338000Y-123313000D01*
X177338000Y-122813000D01*
X177339204Y-122788496D01*
X177342804Y-122764227D01*
X177348765Y-122740429D01*
X177357030Y-122717329D01*
X177367520Y-122695151D01*
X177380133Y-122674107D01*
X177394747Y-122654402D01*
X177411223Y-122636223D01*
X177429402Y-122619747D01*
X177449107Y-122605133D01*
X177470151Y-122592520D01*
X177492329Y-122582030D01*
X177515429Y-122573765D01*
X177539227Y-122567804D01*
X177563496Y-122564204D01*
X177588000Y-122563000D01*
X179888000Y-122563000D01*
X179912504Y-122564204D01*
G37*
G36*
X179912504Y-121294204D02*
G01*
X179936773Y-121297804D01*
X179960571Y-121303765D01*
X179983671Y-121312030D01*
X180005849Y-121322520D01*
X180026893Y-121335133D01*
X180046598Y-121349747D01*
X180064777Y-121366223D01*
X180081253Y-121384402D01*
X180095867Y-121404107D01*
X180108480Y-121425151D01*
X180118970Y-121447329D01*
X180127235Y-121470429D01*
X180133196Y-121494227D01*
X180136796Y-121518496D01*
X180138000Y-121543000D01*
X180138000Y-122043000D01*
X180136796Y-122067504D01*
X180133196Y-122091773D01*
X180127235Y-122115571D01*
X180118970Y-122138671D01*
X180108480Y-122160849D01*
X180095867Y-122181893D01*
X180081253Y-122201598D01*
X180064777Y-122219777D01*
X180046598Y-122236253D01*
X180026893Y-122250867D01*
X180005849Y-122263480D01*
X179983671Y-122273970D01*
X179960571Y-122282235D01*
X179936773Y-122288196D01*
X179912504Y-122291796D01*
X179888000Y-122293000D01*
X177588000Y-122293000D01*
X177563496Y-122291796D01*
X177539227Y-122288196D01*
X177515429Y-122282235D01*
X177492329Y-122273970D01*
X177470151Y-122263480D01*
X177449107Y-122250867D01*
X177429402Y-122236253D01*
X177411223Y-122219777D01*
X177394747Y-122201598D01*
X177380133Y-122181893D01*
X177367520Y-122160849D01*
X177357030Y-122138671D01*
X177348765Y-122115571D01*
X177342804Y-122091773D01*
X177339204Y-122067504D01*
X177338000Y-122043000D01*
X177338000Y-121543000D01*
X177339204Y-121518496D01*
X177342804Y-121494227D01*
X177348765Y-121470429D01*
X177357030Y-121447329D01*
X177367520Y-121425151D01*
X177380133Y-121404107D01*
X177394747Y-121384402D01*
X177411223Y-121366223D01*
X177429402Y-121349747D01*
X177449107Y-121335133D01*
X177470151Y-121322520D01*
X177492329Y-121312030D01*
X177515429Y-121303765D01*
X177539227Y-121297804D01*
X177563496Y-121294204D01*
X177588000Y-121293000D01*
X179888000Y-121293000D01*
X179912504Y-121294204D01*
G37*
G36*
X179912504Y-120024204D02*
G01*
X179936773Y-120027804D01*
X179960571Y-120033765D01*
X179983671Y-120042030D01*
X180005849Y-120052520D01*
X180026893Y-120065133D01*
X180046598Y-120079747D01*
X180064777Y-120096223D01*
X180081253Y-120114402D01*
X180095867Y-120134107D01*
X180108480Y-120155151D01*
X180118970Y-120177329D01*
X180127235Y-120200429D01*
X180133196Y-120224227D01*
X180136796Y-120248496D01*
X180138000Y-120273000D01*
X180138000Y-120773000D01*
X180136796Y-120797504D01*
X180133196Y-120821773D01*
X180127235Y-120845571D01*
X180118970Y-120868671D01*
X180108480Y-120890849D01*
X180095867Y-120911893D01*
X180081253Y-120931598D01*
X180064777Y-120949777D01*
X180046598Y-120966253D01*
X180026893Y-120980867D01*
X180005849Y-120993480D01*
X179983671Y-121003970D01*
X179960571Y-121012235D01*
X179936773Y-121018196D01*
X179912504Y-121021796D01*
X179888000Y-121023000D01*
X177588000Y-121023000D01*
X177563496Y-121021796D01*
X177539227Y-121018196D01*
X177515429Y-121012235D01*
X177492329Y-121003970D01*
X177470151Y-120993480D01*
X177449107Y-120980867D01*
X177429402Y-120966253D01*
X177411223Y-120949777D01*
X177394747Y-120931598D01*
X177380133Y-120911893D01*
X177367520Y-120890849D01*
X177357030Y-120868671D01*
X177348765Y-120845571D01*
X177342804Y-120821773D01*
X177339204Y-120797504D01*
X177338000Y-120773000D01*
X177338000Y-120273000D01*
X177339204Y-120248496D01*
X177342804Y-120224227D01*
X177348765Y-120200429D01*
X177357030Y-120177329D01*
X177367520Y-120155151D01*
X177380133Y-120134107D01*
X177394747Y-120114402D01*
X177411223Y-120096223D01*
X177429402Y-120079747D01*
X177449107Y-120065133D01*
X177470151Y-120052520D01*
X177492329Y-120042030D01*
X177515429Y-120033765D01*
X177539227Y-120027804D01*
X177563496Y-120024204D01*
X177588000Y-120023000D01*
X179888000Y-120023000D01*
X179912504Y-120024204D01*
G37*
G36*
X179912504Y-118754204D02*
G01*
X179936773Y-118757804D01*
X179960571Y-118763765D01*
X179983671Y-118772030D01*
X180005849Y-118782520D01*
X180026893Y-118795133D01*
X180046598Y-118809747D01*
X180064777Y-118826223D01*
X180081253Y-118844402D01*
X180095867Y-118864107D01*
X180108480Y-118885151D01*
X180118970Y-118907329D01*
X180127235Y-118930429D01*
X180133196Y-118954227D01*
X180136796Y-118978496D01*
X180138000Y-119003000D01*
X180138000Y-119503000D01*
X180136796Y-119527504D01*
X180133196Y-119551773D01*
X180127235Y-119575571D01*
X180118970Y-119598671D01*
X180108480Y-119620849D01*
X180095867Y-119641893D01*
X180081253Y-119661598D01*
X180064777Y-119679777D01*
X180046598Y-119696253D01*
X180026893Y-119710867D01*
X180005849Y-119723480D01*
X179983671Y-119733970D01*
X179960571Y-119742235D01*
X179936773Y-119748196D01*
X179912504Y-119751796D01*
X179888000Y-119753000D01*
X177588000Y-119753000D01*
X177563496Y-119751796D01*
X177539227Y-119748196D01*
X177515429Y-119742235D01*
X177492329Y-119733970D01*
X177470151Y-119723480D01*
X177449107Y-119710867D01*
X177429402Y-119696253D01*
X177411223Y-119679777D01*
X177394747Y-119661598D01*
X177380133Y-119641893D01*
X177367520Y-119620849D01*
X177357030Y-119598671D01*
X177348765Y-119575571D01*
X177342804Y-119551773D01*
X177339204Y-119527504D01*
X177338000Y-119503000D01*
X177338000Y-119003000D01*
X177339204Y-118978496D01*
X177342804Y-118954227D01*
X177348765Y-118930429D01*
X177357030Y-118907329D01*
X177367520Y-118885151D01*
X177380133Y-118864107D01*
X177394747Y-118844402D01*
X177411223Y-118826223D01*
X177429402Y-118809747D01*
X177449107Y-118795133D01*
X177470151Y-118782520D01*
X177492329Y-118772030D01*
X177515429Y-118763765D01*
X177539227Y-118757804D01*
X177563496Y-118754204D01*
X177588000Y-118753000D01*
X179888000Y-118753000D01*
X179912504Y-118754204D01*
G37*
G36*
X189212504Y-118754204D02*
G01*
X189236773Y-118757804D01*
X189260571Y-118763765D01*
X189283671Y-118772030D01*
X189305849Y-118782520D01*
X189326893Y-118795133D01*
X189346598Y-118809747D01*
X189364777Y-118826223D01*
X189381253Y-118844402D01*
X189395867Y-118864107D01*
X189408480Y-118885151D01*
X189418970Y-118907329D01*
X189427235Y-118930429D01*
X189433196Y-118954227D01*
X189436796Y-118978496D01*
X189438000Y-119003000D01*
X189438000Y-119503000D01*
X189436796Y-119527504D01*
X189433196Y-119551773D01*
X189427235Y-119575571D01*
X189418970Y-119598671D01*
X189408480Y-119620849D01*
X189395867Y-119641893D01*
X189381253Y-119661598D01*
X189364777Y-119679777D01*
X189346598Y-119696253D01*
X189326893Y-119710867D01*
X189305849Y-119723480D01*
X189283671Y-119733970D01*
X189260571Y-119742235D01*
X189236773Y-119748196D01*
X189212504Y-119751796D01*
X189188000Y-119753000D01*
X186888000Y-119753000D01*
X186863496Y-119751796D01*
X186839227Y-119748196D01*
X186815429Y-119742235D01*
X186792329Y-119733970D01*
X186770151Y-119723480D01*
X186749107Y-119710867D01*
X186729402Y-119696253D01*
X186711223Y-119679777D01*
X186694747Y-119661598D01*
X186680133Y-119641893D01*
X186667520Y-119620849D01*
X186657030Y-119598671D01*
X186648765Y-119575571D01*
X186642804Y-119551773D01*
X186639204Y-119527504D01*
X186638000Y-119503000D01*
X186638000Y-119003000D01*
X186639204Y-118978496D01*
X186642804Y-118954227D01*
X186648765Y-118930429D01*
X186657030Y-118907329D01*
X186667520Y-118885151D01*
X186680133Y-118864107D01*
X186694747Y-118844402D01*
X186711223Y-118826223D01*
X186729402Y-118809747D01*
X186749107Y-118795133D01*
X186770151Y-118782520D01*
X186792329Y-118772030D01*
X186815429Y-118763765D01*
X186839227Y-118757804D01*
X186863496Y-118754204D01*
X186888000Y-118753000D01*
X189188000Y-118753000D01*
X189212504Y-118754204D01*
G37*
G36*
X189212504Y-120024204D02*
G01*
X189236773Y-120027804D01*
X189260571Y-120033765D01*
X189283671Y-120042030D01*
X189305849Y-120052520D01*
X189326893Y-120065133D01*
X189346598Y-120079747D01*
X189364777Y-120096223D01*
X189381253Y-120114402D01*
X189395867Y-120134107D01*
X189408480Y-120155151D01*
X189418970Y-120177329D01*
X189427235Y-120200429D01*
X189433196Y-120224227D01*
X189436796Y-120248496D01*
X189438000Y-120273000D01*
X189438000Y-120773000D01*
X189436796Y-120797504D01*
X189433196Y-120821773D01*
X189427235Y-120845571D01*
X189418970Y-120868671D01*
X189408480Y-120890849D01*
X189395867Y-120911893D01*
X189381253Y-120931598D01*
X189364777Y-120949777D01*
X189346598Y-120966253D01*
X189326893Y-120980867D01*
X189305849Y-120993480D01*
X189283671Y-121003970D01*
X189260571Y-121012235D01*
X189236773Y-121018196D01*
X189212504Y-121021796D01*
X189188000Y-121023000D01*
X186888000Y-121023000D01*
X186863496Y-121021796D01*
X186839227Y-121018196D01*
X186815429Y-121012235D01*
X186792329Y-121003970D01*
X186770151Y-120993480D01*
X186749107Y-120980867D01*
X186729402Y-120966253D01*
X186711223Y-120949777D01*
X186694747Y-120931598D01*
X186680133Y-120911893D01*
X186667520Y-120890849D01*
X186657030Y-120868671D01*
X186648765Y-120845571D01*
X186642804Y-120821773D01*
X186639204Y-120797504D01*
X186638000Y-120773000D01*
X186638000Y-120273000D01*
X186639204Y-120248496D01*
X186642804Y-120224227D01*
X186648765Y-120200429D01*
X186657030Y-120177329D01*
X186667520Y-120155151D01*
X186680133Y-120134107D01*
X186694747Y-120114402D01*
X186711223Y-120096223D01*
X186729402Y-120079747D01*
X186749107Y-120065133D01*
X186770151Y-120052520D01*
X186792329Y-120042030D01*
X186815429Y-120033765D01*
X186839227Y-120027804D01*
X186863496Y-120024204D01*
X186888000Y-120023000D01*
X189188000Y-120023000D01*
X189212504Y-120024204D01*
G37*
G36*
X189212504Y-121294204D02*
G01*
X189236773Y-121297804D01*
X189260571Y-121303765D01*
X189283671Y-121312030D01*
X189305849Y-121322520D01*
X189326893Y-121335133D01*
X189346598Y-121349747D01*
X189364777Y-121366223D01*
X189381253Y-121384402D01*
X189395867Y-121404107D01*
X189408480Y-121425151D01*
X189418970Y-121447329D01*
X189427235Y-121470429D01*
X189433196Y-121494227D01*
X189436796Y-121518496D01*
X189438000Y-121543000D01*
X189438000Y-122043000D01*
X189436796Y-122067504D01*
X189433196Y-122091773D01*
X189427235Y-122115571D01*
X189418970Y-122138671D01*
X189408480Y-122160849D01*
X189395867Y-122181893D01*
X189381253Y-122201598D01*
X189364777Y-122219777D01*
X189346598Y-122236253D01*
X189326893Y-122250867D01*
X189305849Y-122263480D01*
X189283671Y-122273970D01*
X189260571Y-122282235D01*
X189236773Y-122288196D01*
X189212504Y-122291796D01*
X189188000Y-122293000D01*
X186888000Y-122293000D01*
X186863496Y-122291796D01*
X186839227Y-122288196D01*
X186815429Y-122282235D01*
X186792329Y-122273970D01*
X186770151Y-122263480D01*
X186749107Y-122250867D01*
X186729402Y-122236253D01*
X186711223Y-122219777D01*
X186694747Y-122201598D01*
X186680133Y-122181893D01*
X186667520Y-122160849D01*
X186657030Y-122138671D01*
X186648765Y-122115571D01*
X186642804Y-122091773D01*
X186639204Y-122067504D01*
X186638000Y-122043000D01*
X186638000Y-121543000D01*
X186639204Y-121518496D01*
X186642804Y-121494227D01*
X186648765Y-121470429D01*
X186657030Y-121447329D01*
X186667520Y-121425151D01*
X186680133Y-121404107D01*
X186694747Y-121384402D01*
X186711223Y-121366223D01*
X186729402Y-121349747D01*
X186749107Y-121335133D01*
X186770151Y-121322520D01*
X186792329Y-121312030D01*
X186815429Y-121303765D01*
X186839227Y-121297804D01*
X186863496Y-121294204D01*
X186888000Y-121293000D01*
X189188000Y-121293000D01*
X189212504Y-121294204D01*
G37*
G36*
X189212504Y-122564204D02*
G01*
X189236773Y-122567804D01*
X189260571Y-122573765D01*
X189283671Y-122582030D01*
X189305849Y-122592520D01*
X189326893Y-122605133D01*
X189346598Y-122619747D01*
X189364777Y-122636223D01*
X189381253Y-122654402D01*
X189395867Y-122674107D01*
X189408480Y-122695151D01*
X189418970Y-122717329D01*
X189427235Y-122740429D01*
X189433196Y-122764227D01*
X189436796Y-122788496D01*
X189438000Y-122813000D01*
X189438000Y-123313000D01*
X189436796Y-123337504D01*
X189433196Y-123361773D01*
X189427235Y-123385571D01*
X189418970Y-123408671D01*
X189408480Y-123430849D01*
X189395867Y-123451893D01*
X189381253Y-123471598D01*
X189364777Y-123489777D01*
X189346598Y-123506253D01*
X189326893Y-123520867D01*
X189305849Y-123533480D01*
X189283671Y-123543970D01*
X189260571Y-123552235D01*
X189236773Y-123558196D01*
X189212504Y-123561796D01*
X189188000Y-123563000D01*
X186888000Y-123563000D01*
X186863496Y-123561796D01*
X186839227Y-123558196D01*
X186815429Y-123552235D01*
X186792329Y-123543970D01*
X186770151Y-123533480D01*
X186749107Y-123520867D01*
X186729402Y-123506253D01*
X186711223Y-123489777D01*
X186694747Y-123471598D01*
X186680133Y-123451893D01*
X186667520Y-123430849D01*
X186657030Y-123408671D01*
X186648765Y-123385571D01*
X186642804Y-123361773D01*
X186639204Y-123337504D01*
X186638000Y-123313000D01*
X186638000Y-122813000D01*
X186639204Y-122788496D01*
X186642804Y-122764227D01*
X186648765Y-122740429D01*
X186657030Y-122717329D01*
X186667520Y-122695151D01*
X186680133Y-122674107D01*
X186694747Y-122654402D01*
X186711223Y-122636223D01*
X186729402Y-122619747D01*
X186749107Y-122605133D01*
X186770151Y-122592520D01*
X186792329Y-122582030D01*
X186815429Y-122573765D01*
X186839227Y-122567804D01*
X186863496Y-122564204D01*
X186888000Y-122563000D01*
X189188000Y-122563000D01*
X189212504Y-122564204D01*
G37*
G36*
X189212504Y-123834204D02*
G01*
X189236773Y-123837804D01*
X189260571Y-123843765D01*
X189283671Y-123852030D01*
X189305849Y-123862520D01*
X189326893Y-123875133D01*
X189346598Y-123889747D01*
X189364777Y-123906223D01*
X189381253Y-123924402D01*
X189395867Y-123944107D01*
X189408480Y-123965151D01*
X189418970Y-123987329D01*
X189427235Y-124010429D01*
X189433196Y-124034227D01*
X189436796Y-124058496D01*
X189438000Y-124083000D01*
X189438000Y-124583000D01*
X189436796Y-124607504D01*
X189433196Y-124631773D01*
X189427235Y-124655571D01*
X189418970Y-124678671D01*
X189408480Y-124700849D01*
X189395867Y-124721893D01*
X189381253Y-124741598D01*
X189364777Y-124759777D01*
X189346598Y-124776253D01*
X189326893Y-124790867D01*
X189305849Y-124803480D01*
X189283671Y-124813970D01*
X189260571Y-124822235D01*
X189236773Y-124828196D01*
X189212504Y-124831796D01*
X189188000Y-124833000D01*
X186888000Y-124833000D01*
X186863496Y-124831796D01*
X186839227Y-124828196D01*
X186815429Y-124822235D01*
X186792329Y-124813970D01*
X186770151Y-124803480D01*
X186749107Y-124790867D01*
X186729402Y-124776253D01*
X186711223Y-124759777D01*
X186694747Y-124741598D01*
X186680133Y-124721893D01*
X186667520Y-124700849D01*
X186657030Y-124678671D01*
X186648765Y-124655571D01*
X186642804Y-124631773D01*
X186639204Y-124607504D01*
X186638000Y-124583000D01*
X186638000Y-124083000D01*
X186639204Y-124058496D01*
X186642804Y-124034227D01*
X186648765Y-124010429D01*
X186657030Y-123987329D01*
X186667520Y-123965151D01*
X186680133Y-123944107D01*
X186694747Y-123924402D01*
X186711223Y-123906223D01*
X186729402Y-123889747D01*
X186749107Y-123875133D01*
X186770151Y-123862520D01*
X186792329Y-123852030D01*
X186815429Y-123843765D01*
X186839227Y-123837804D01*
X186863496Y-123834204D01*
X186888000Y-123833000D01*
X189188000Y-123833000D01*
X189212504Y-123834204D01*
G37*
G36*
X189212504Y-125104204D02*
G01*
X189236773Y-125107804D01*
X189260571Y-125113765D01*
X189283671Y-125122030D01*
X189305849Y-125132520D01*
X189326893Y-125145133D01*
X189346598Y-125159747D01*
X189364777Y-125176223D01*
X189381253Y-125194402D01*
X189395867Y-125214107D01*
X189408480Y-125235151D01*
X189418970Y-125257329D01*
X189427235Y-125280429D01*
X189433196Y-125304227D01*
X189436796Y-125328496D01*
X189438000Y-125353000D01*
X189438000Y-125853000D01*
X189436796Y-125877504D01*
X189433196Y-125901773D01*
X189427235Y-125925571D01*
X189418970Y-125948671D01*
X189408480Y-125970849D01*
X189395867Y-125991893D01*
X189381253Y-126011598D01*
X189364777Y-126029777D01*
X189346598Y-126046253D01*
X189326893Y-126060867D01*
X189305849Y-126073480D01*
X189283671Y-126083970D01*
X189260571Y-126092235D01*
X189236773Y-126098196D01*
X189212504Y-126101796D01*
X189188000Y-126103000D01*
X186888000Y-126103000D01*
X186863496Y-126101796D01*
X186839227Y-126098196D01*
X186815429Y-126092235D01*
X186792329Y-126083970D01*
X186770151Y-126073480D01*
X186749107Y-126060867D01*
X186729402Y-126046253D01*
X186711223Y-126029777D01*
X186694747Y-126011598D01*
X186680133Y-125991893D01*
X186667520Y-125970849D01*
X186657030Y-125948671D01*
X186648765Y-125925571D01*
X186642804Y-125901773D01*
X186639204Y-125877504D01*
X186638000Y-125853000D01*
X186638000Y-125353000D01*
X186639204Y-125328496D01*
X186642804Y-125304227D01*
X186648765Y-125280429D01*
X186657030Y-125257329D01*
X186667520Y-125235151D01*
X186680133Y-125214107D01*
X186694747Y-125194402D01*
X186711223Y-125176223D01*
X186729402Y-125159747D01*
X186749107Y-125145133D01*
X186770151Y-125132520D01*
X186792329Y-125122030D01*
X186815429Y-125113765D01*
X186839227Y-125107804D01*
X186863496Y-125104204D01*
X186888000Y-125103000D01*
X189188000Y-125103000D01*
X189212504Y-125104204D01*
G37*
G36*
X189212504Y-126374204D02*
G01*
X189236773Y-126377804D01*
X189260571Y-126383765D01*
X189283671Y-126392030D01*
X189305849Y-126402520D01*
X189326893Y-126415133D01*
X189346598Y-126429747D01*
X189364777Y-126446223D01*
X189381253Y-126464402D01*
X189395867Y-126484107D01*
X189408480Y-126505151D01*
X189418970Y-126527329D01*
X189427235Y-126550429D01*
X189433196Y-126574227D01*
X189436796Y-126598496D01*
X189438000Y-126623000D01*
X189438000Y-127123000D01*
X189436796Y-127147504D01*
X189433196Y-127171773D01*
X189427235Y-127195571D01*
X189418970Y-127218671D01*
X189408480Y-127240849D01*
X189395867Y-127261893D01*
X189381253Y-127281598D01*
X189364777Y-127299777D01*
X189346598Y-127316253D01*
X189326893Y-127330867D01*
X189305849Y-127343480D01*
X189283671Y-127353970D01*
X189260571Y-127362235D01*
X189236773Y-127368196D01*
X189212504Y-127371796D01*
X189188000Y-127373000D01*
X186888000Y-127373000D01*
X186863496Y-127371796D01*
X186839227Y-127368196D01*
X186815429Y-127362235D01*
X186792329Y-127353970D01*
X186770151Y-127343480D01*
X186749107Y-127330867D01*
X186729402Y-127316253D01*
X186711223Y-127299777D01*
X186694747Y-127281598D01*
X186680133Y-127261893D01*
X186667520Y-127240849D01*
X186657030Y-127218671D01*
X186648765Y-127195571D01*
X186642804Y-127171773D01*
X186639204Y-127147504D01*
X186638000Y-127123000D01*
X186638000Y-126623000D01*
X186639204Y-126598496D01*
X186642804Y-126574227D01*
X186648765Y-126550429D01*
X186657030Y-126527329D01*
X186667520Y-126505151D01*
X186680133Y-126484107D01*
X186694747Y-126464402D01*
X186711223Y-126446223D01*
X186729402Y-126429747D01*
X186749107Y-126415133D01*
X186770151Y-126402520D01*
X186792329Y-126392030D01*
X186815429Y-126383765D01*
X186839227Y-126377804D01*
X186863496Y-126374204D01*
X186888000Y-126373000D01*
X189188000Y-126373000D01*
X189212504Y-126374204D01*
G37*
G36*
X189212504Y-127644204D02*
G01*
X189236773Y-127647804D01*
X189260571Y-127653765D01*
X189283671Y-127662030D01*
X189305849Y-127672520D01*
X189326893Y-127685133D01*
X189346598Y-127699747D01*
X189364777Y-127716223D01*
X189381253Y-127734402D01*
X189395867Y-127754107D01*
X189408480Y-127775151D01*
X189418970Y-127797329D01*
X189427235Y-127820429D01*
X189433196Y-127844227D01*
X189436796Y-127868496D01*
X189438000Y-127893000D01*
X189438000Y-128393000D01*
X189436796Y-128417504D01*
X189433196Y-128441773D01*
X189427235Y-128465571D01*
X189418970Y-128488671D01*
X189408480Y-128510849D01*
X189395867Y-128531893D01*
X189381253Y-128551598D01*
X189364777Y-128569777D01*
X189346598Y-128586253D01*
X189326893Y-128600867D01*
X189305849Y-128613480D01*
X189283671Y-128623970D01*
X189260571Y-128632235D01*
X189236773Y-128638196D01*
X189212504Y-128641796D01*
X189188000Y-128643000D01*
X186888000Y-128643000D01*
X186863496Y-128641796D01*
X186839227Y-128638196D01*
X186815429Y-128632235D01*
X186792329Y-128623970D01*
X186770151Y-128613480D01*
X186749107Y-128600867D01*
X186729402Y-128586253D01*
X186711223Y-128569777D01*
X186694747Y-128551598D01*
X186680133Y-128531893D01*
X186667520Y-128510849D01*
X186657030Y-128488671D01*
X186648765Y-128465571D01*
X186642804Y-128441773D01*
X186639204Y-128417504D01*
X186638000Y-128393000D01*
X186638000Y-127893000D01*
X186639204Y-127868496D01*
X186642804Y-127844227D01*
X186648765Y-127820429D01*
X186657030Y-127797329D01*
X186667520Y-127775151D01*
X186680133Y-127754107D01*
X186694747Y-127734402D01*
X186711223Y-127716223D01*
X186729402Y-127699747D01*
X186749107Y-127685133D01*
X186770151Y-127672520D01*
X186792329Y-127662030D01*
X186815429Y-127653765D01*
X186839227Y-127647804D01*
X186863496Y-127644204D01*
X186888000Y-127643000D01*
X189188000Y-127643000D01*
X189212504Y-127644204D01*
G37*
G36*
X189212504Y-128914204D02*
G01*
X189236773Y-128917804D01*
X189260571Y-128923765D01*
X189283671Y-128932030D01*
X189305849Y-128942520D01*
X189326893Y-128955133D01*
X189346598Y-128969747D01*
X189364777Y-128986223D01*
X189381253Y-129004402D01*
X189395867Y-129024107D01*
X189408480Y-129045151D01*
X189418970Y-129067329D01*
X189427235Y-129090429D01*
X189433196Y-129114227D01*
X189436796Y-129138496D01*
X189438000Y-129163000D01*
X189438000Y-129663000D01*
X189436796Y-129687504D01*
X189433196Y-129711773D01*
X189427235Y-129735571D01*
X189418970Y-129758671D01*
X189408480Y-129780849D01*
X189395867Y-129801893D01*
X189381253Y-129821598D01*
X189364777Y-129839777D01*
X189346598Y-129856253D01*
X189326893Y-129870867D01*
X189305849Y-129883480D01*
X189283671Y-129893970D01*
X189260571Y-129902235D01*
X189236773Y-129908196D01*
X189212504Y-129911796D01*
X189188000Y-129913000D01*
X186888000Y-129913000D01*
X186863496Y-129911796D01*
X186839227Y-129908196D01*
X186815429Y-129902235D01*
X186792329Y-129893970D01*
X186770151Y-129883480D01*
X186749107Y-129870867D01*
X186729402Y-129856253D01*
X186711223Y-129839777D01*
X186694747Y-129821598D01*
X186680133Y-129801893D01*
X186667520Y-129780849D01*
X186657030Y-129758671D01*
X186648765Y-129735571D01*
X186642804Y-129711773D01*
X186639204Y-129687504D01*
X186638000Y-129663000D01*
X186638000Y-129163000D01*
X186639204Y-129138496D01*
X186642804Y-129114227D01*
X186648765Y-129090429D01*
X186657030Y-129067329D01*
X186667520Y-129045151D01*
X186680133Y-129024107D01*
X186694747Y-129004402D01*
X186711223Y-128986223D01*
X186729402Y-128969747D01*
X186749107Y-128955133D01*
X186770151Y-128942520D01*
X186792329Y-128932030D01*
X186815429Y-128923765D01*
X186839227Y-128917804D01*
X186863496Y-128914204D01*
X186888000Y-128913000D01*
X189188000Y-128913000D01*
X189212504Y-128914204D01*
G37*
D25*
X188038000Y-130683000D03*
D26*
X84050000Y-139700000D03*
X81050000Y-139700000D03*
D27*
X201676000Y-55388000D03*
X201676000Y-57388000D03*
X203708000Y-57388000D03*
X203708000Y-55388000D03*
X205740000Y-55388000D03*
X205740000Y-57388000D03*
X207772000Y-57388000D03*
X207772000Y-55388000D03*
X209804000Y-55388000D03*
X209804000Y-57388000D03*
X211836000Y-57388000D03*
X211836000Y-55388000D03*
X151892000Y-70072000D03*
X151892000Y-68072000D03*
X153924000Y-68088000D03*
X153924000Y-70088000D03*
X155956000Y-70088000D03*
X155956000Y-68088000D03*
X157988000Y-68088000D03*
X157988000Y-70088000D03*
X160020000Y-68088000D03*
X160020000Y-70088000D03*
X162052000Y-68088000D03*
X162052000Y-70088000D03*
X210312000Y-131096000D03*
X210312000Y-133096000D03*
D28*
X127492000Y-137160000D03*
X125492000Y-137160000D03*
X141748000Y-137160000D03*
X143748000Y-137160000D03*
X182261000Y-89408000D03*
X184261000Y-89408000D03*
X184261000Y-111252000D03*
X182261000Y-111252000D03*
X184388000Y-133096000D03*
X182388000Y-133096000D03*
X157972000Y-91948000D03*
X155972000Y-91948000D03*
D27*
X211328000Y-66024000D03*
X211328000Y-64024000D03*
X209296000Y-64024000D03*
X209296000Y-66024000D03*
X207264000Y-66024000D03*
X207264000Y-64024000D03*
X205232000Y-64024000D03*
X205232000Y-66024000D03*
X203200000Y-66024000D03*
X203200000Y-64024000D03*
X201168000Y-64024000D03*
X201168000Y-66024000D03*
X162052000Y-83296000D03*
X162052000Y-81296000D03*
X160020000Y-81296000D03*
X160020000Y-83296000D03*
X157988000Y-83296000D03*
X157988000Y-81296000D03*
X155956000Y-83296000D03*
X155956000Y-81296000D03*
X153924000Y-81296000D03*
X153924000Y-83296000D03*
X151892000Y-83296000D03*
X151892000Y-81296000D03*
D22*
X183976000Y-64008000D03*
X193976000Y-64008000D03*
D29*
X154956000Y-106680000D03*
X156956000Y-105730000D03*
X156956000Y-107630000D03*
D30*
X74750000Y-143510000D03*
X77650000Y-143510000D03*
X77650000Y-55880000D03*
X74750000Y-55880000D03*
X74750000Y-139700000D03*
X77650000Y-139700000D03*
D31*
X211770000Y-71120000D03*
X209870000Y-71120000D03*
X202250000Y-72390000D03*
X204150000Y-72390000D03*
X209870000Y-73660000D03*
X211770000Y-73660000D03*
X204150000Y-74930000D03*
X202250000Y-74930000D03*
X209870000Y-76200000D03*
X211770000Y-76200000D03*
X204150000Y-77470000D03*
X202250000Y-77470000D03*
X211770000Y-78740000D03*
X209870000Y-78740000D03*
X204150000Y-80010000D03*
X202250000Y-80010000D03*
X209870000Y-81280000D03*
X211770000Y-81280000D03*
X204150000Y-82550000D03*
X202250000Y-82550000D03*
X211770000Y-83820000D03*
X209870000Y-83820000D03*
X202250000Y-85090000D03*
X204150000Y-85090000D03*
X209870000Y-86360000D03*
X211770000Y-86360000D03*
X204150000Y-87630000D03*
X202250000Y-87630000D03*
X209870000Y-88900000D03*
X211770000Y-88900000D03*
X202250000Y-90170000D03*
X204150000Y-90170000D03*
X209870000Y-91440000D03*
X211770000Y-91440000D03*
X204150000Y-92710000D03*
X202250000Y-92710000D03*
X211770000Y-93980000D03*
X209870000Y-93980000D03*
X202250000Y-95250000D03*
X204150000Y-95250000D03*
X209870000Y-96520000D03*
X211770000Y-96520000D03*
X204150000Y-97790000D03*
X202250000Y-97790000D03*
X211770000Y-99060000D03*
X209870000Y-99060000D03*
X202250000Y-100330000D03*
X204150000Y-100330000D03*
X211770000Y-101600000D03*
X209870000Y-101600000D03*
X204150000Y-102870000D03*
X202250000Y-102870000D03*
X209870000Y-104140000D03*
X211770000Y-104140000D03*
X202250000Y-105410000D03*
X204150000Y-105410000D03*
X209870000Y-106680000D03*
X211770000Y-106680000D03*
X204150000Y-107950000D03*
X202250000Y-107950000D03*
X211770000Y-109220000D03*
X209870000Y-109220000D03*
X202250000Y-110490000D03*
X204150000Y-110490000D03*
X209870000Y-111760000D03*
X211770000Y-111760000D03*
X204150000Y-113030000D03*
X202250000Y-113030000D03*
X211770000Y-114300000D03*
X209870000Y-114300000D03*
X202250000Y-115570000D03*
X204150000Y-115570000D03*
X204150000Y-118110000D03*
X202250000Y-118110000D03*
D32*
X206756000Y-124526000D03*
X206756000Y-126426000D03*
D31*
X204658000Y-138684000D03*
X202758000Y-138684000D03*
D32*
X173736000Y-141290000D03*
X173736000Y-143190000D03*
X176276000Y-143190000D03*
X176276000Y-141290000D03*
X178816000Y-141290000D03*
X178816000Y-143190000D03*
D31*
X202758000Y-141224000D03*
X204658000Y-141224000D03*
X150556000Y-139192000D03*
X148656000Y-139192000D03*
X148656000Y-143256000D03*
X150556000Y-143256000D03*
X135194000Y-139192000D03*
X137094000Y-139192000D03*
X137094000Y-143256000D03*
X135194000Y-143256000D03*
X182311000Y-91440000D03*
X184211000Y-91440000D03*
X182311000Y-93472000D03*
X184211000Y-93472000D03*
X182311000Y-113284000D03*
X184211000Y-113284000D03*
X182438000Y-135128000D03*
X184338000Y-135128000D03*
X182438000Y-115316000D03*
X184338000Y-115316000D03*
X182438000Y-137160000D03*
X184338000Y-137160000D03*
X156022000Y-89916000D03*
X157922000Y-89916000D03*
X157922000Y-87884000D03*
X156022000Y-87884000D03*
D32*
X159512000Y-105730000D03*
X159512000Y-107630000D03*
X152908000Y-105730000D03*
X152908000Y-107630000D03*
X150876000Y-105730000D03*
X150876000Y-107630000D03*
D31*
X156022000Y-102108000D03*
X157922000Y-102108000D03*
X156022000Y-100076000D03*
X157922000Y-100076000D03*
D33*
X152400000Y-75258000D03*
X152400000Y-78158000D03*
X156210000Y-78158000D03*
X156210000Y-75258000D03*
X156210000Y-62050000D03*
X156210000Y-64950000D03*
X152400000Y-64950000D03*
X152400000Y-62050000D03*
D31*
X77150000Y-126492000D03*
X75250000Y-126492000D03*
D16*
X123792000Y-139319000D03*
D15*
G36*
X124716504Y-140090204D02*
G01*
X124740773Y-140093804D01*
X124764571Y-140099765D01*
X124787671Y-140108030D01*
X124809849Y-140118520D01*
X124830893Y-140131133D01*
X124850598Y-140145747D01*
X124868777Y-140162223D01*
X124885253Y-140180402D01*
X124899867Y-140200107D01*
X124912480Y-140221151D01*
X124922970Y-140243329D01*
X124931235Y-140266429D01*
X124937196Y-140290227D01*
X124940796Y-140314496D01*
X124942000Y-140339000D01*
X124942000Y-140839000D01*
X124940796Y-140863504D01*
X124937196Y-140887773D01*
X124931235Y-140911571D01*
X124922970Y-140934671D01*
X124912480Y-140956849D01*
X124899867Y-140977893D01*
X124885253Y-140997598D01*
X124868777Y-141015777D01*
X124850598Y-141032253D01*
X124830893Y-141046867D01*
X124809849Y-141059480D01*
X124787671Y-141069970D01*
X124764571Y-141078235D01*
X124740773Y-141084196D01*
X124716504Y-141087796D01*
X124692000Y-141089000D01*
X122892000Y-141089000D01*
X122867496Y-141087796D01*
X122843227Y-141084196D01*
X122819429Y-141078235D01*
X122796329Y-141069970D01*
X122774151Y-141059480D01*
X122753107Y-141046867D01*
X122733402Y-141032253D01*
X122715223Y-141015777D01*
X122698747Y-140997598D01*
X122684133Y-140977893D01*
X122671520Y-140956849D01*
X122661030Y-140934671D01*
X122652765Y-140911571D01*
X122646804Y-140887773D01*
X122643204Y-140863504D01*
X122642000Y-140839000D01*
X122642000Y-140339000D01*
X122643204Y-140314496D01*
X122646804Y-140290227D01*
X122652765Y-140266429D01*
X122661030Y-140243329D01*
X122671520Y-140221151D01*
X122684133Y-140200107D01*
X122698747Y-140180402D01*
X122715223Y-140162223D01*
X122733402Y-140145747D01*
X122753107Y-140131133D01*
X122774151Y-140118520D01*
X122796329Y-140108030D01*
X122819429Y-140099765D01*
X122843227Y-140093804D01*
X122867496Y-140090204D01*
X122892000Y-140089000D01*
X124692000Y-140089000D01*
X124716504Y-140090204D01*
G37*
G36*
X124716504Y-141360204D02*
G01*
X124740773Y-141363804D01*
X124764571Y-141369765D01*
X124787671Y-141378030D01*
X124809849Y-141388520D01*
X124830893Y-141401133D01*
X124850598Y-141415747D01*
X124868777Y-141432223D01*
X124885253Y-141450402D01*
X124899867Y-141470107D01*
X124912480Y-141491151D01*
X124922970Y-141513329D01*
X124931235Y-141536429D01*
X124937196Y-141560227D01*
X124940796Y-141584496D01*
X124942000Y-141609000D01*
X124942000Y-142109000D01*
X124940796Y-142133504D01*
X124937196Y-142157773D01*
X124931235Y-142181571D01*
X124922970Y-142204671D01*
X124912480Y-142226849D01*
X124899867Y-142247893D01*
X124885253Y-142267598D01*
X124868777Y-142285777D01*
X124850598Y-142302253D01*
X124830893Y-142316867D01*
X124809849Y-142329480D01*
X124787671Y-142339970D01*
X124764571Y-142348235D01*
X124740773Y-142354196D01*
X124716504Y-142357796D01*
X124692000Y-142359000D01*
X122892000Y-142359000D01*
X122867496Y-142357796D01*
X122843227Y-142354196D01*
X122819429Y-142348235D01*
X122796329Y-142339970D01*
X122774151Y-142329480D01*
X122753107Y-142316867D01*
X122733402Y-142302253D01*
X122715223Y-142285777D01*
X122698747Y-142267598D01*
X122684133Y-142247893D01*
X122671520Y-142226849D01*
X122661030Y-142204671D01*
X122652765Y-142181571D01*
X122646804Y-142157773D01*
X122643204Y-142133504D01*
X122642000Y-142109000D01*
X122642000Y-141609000D01*
X122643204Y-141584496D01*
X122646804Y-141560227D01*
X122652765Y-141536429D01*
X122661030Y-141513329D01*
X122671520Y-141491151D01*
X122684133Y-141470107D01*
X122698747Y-141450402D01*
X122715223Y-141432223D01*
X122733402Y-141415747D01*
X122753107Y-141401133D01*
X122774151Y-141388520D01*
X122796329Y-141378030D01*
X122819429Y-141369765D01*
X122843227Y-141363804D01*
X122867496Y-141360204D01*
X122892000Y-141359000D01*
X124692000Y-141359000D01*
X124716504Y-141360204D01*
G37*
G36*
X124716504Y-142630204D02*
G01*
X124740773Y-142633804D01*
X124764571Y-142639765D01*
X124787671Y-142648030D01*
X124809849Y-142658520D01*
X124830893Y-142671133D01*
X124850598Y-142685747D01*
X124868777Y-142702223D01*
X124885253Y-142720402D01*
X124899867Y-142740107D01*
X124912480Y-142761151D01*
X124922970Y-142783329D01*
X124931235Y-142806429D01*
X124937196Y-142830227D01*
X124940796Y-142854496D01*
X124942000Y-142879000D01*
X124942000Y-143379000D01*
X124940796Y-143403504D01*
X124937196Y-143427773D01*
X124931235Y-143451571D01*
X124922970Y-143474671D01*
X124912480Y-143496849D01*
X124899867Y-143517893D01*
X124885253Y-143537598D01*
X124868777Y-143555777D01*
X124850598Y-143572253D01*
X124830893Y-143586867D01*
X124809849Y-143599480D01*
X124787671Y-143609970D01*
X124764571Y-143618235D01*
X124740773Y-143624196D01*
X124716504Y-143627796D01*
X124692000Y-143629000D01*
X122892000Y-143629000D01*
X122867496Y-143627796D01*
X122843227Y-143624196D01*
X122819429Y-143618235D01*
X122796329Y-143609970D01*
X122774151Y-143599480D01*
X122753107Y-143586867D01*
X122733402Y-143572253D01*
X122715223Y-143555777D01*
X122698747Y-143537598D01*
X122684133Y-143517893D01*
X122671520Y-143496849D01*
X122661030Y-143474671D01*
X122652765Y-143451571D01*
X122646804Y-143427773D01*
X122643204Y-143403504D01*
X122642000Y-143379000D01*
X122642000Y-142879000D01*
X122643204Y-142854496D01*
X122646804Y-142830227D01*
X122652765Y-142806429D01*
X122661030Y-142783329D01*
X122671520Y-142761151D01*
X122684133Y-142740107D01*
X122698747Y-142720402D01*
X122715223Y-142702223D01*
X122733402Y-142685747D01*
X122753107Y-142671133D01*
X122774151Y-142658520D01*
X122796329Y-142648030D01*
X122819429Y-142639765D01*
X122843227Y-142633804D01*
X122867496Y-142630204D01*
X122892000Y-142629000D01*
X124692000Y-142629000D01*
X124716504Y-142630204D01*
G37*
G36*
X130116504Y-142630204D02*
G01*
X130140773Y-142633804D01*
X130164571Y-142639765D01*
X130187671Y-142648030D01*
X130209849Y-142658520D01*
X130230893Y-142671133D01*
X130250598Y-142685747D01*
X130268777Y-142702223D01*
X130285253Y-142720402D01*
X130299867Y-142740107D01*
X130312480Y-142761151D01*
X130322970Y-142783329D01*
X130331235Y-142806429D01*
X130337196Y-142830227D01*
X130340796Y-142854496D01*
X130342000Y-142879000D01*
X130342000Y-143379000D01*
X130340796Y-143403504D01*
X130337196Y-143427773D01*
X130331235Y-143451571D01*
X130322970Y-143474671D01*
X130312480Y-143496849D01*
X130299867Y-143517893D01*
X130285253Y-143537598D01*
X130268777Y-143555777D01*
X130250598Y-143572253D01*
X130230893Y-143586867D01*
X130209849Y-143599480D01*
X130187671Y-143609970D01*
X130164571Y-143618235D01*
X130140773Y-143624196D01*
X130116504Y-143627796D01*
X130092000Y-143629000D01*
X128292000Y-143629000D01*
X128267496Y-143627796D01*
X128243227Y-143624196D01*
X128219429Y-143618235D01*
X128196329Y-143609970D01*
X128174151Y-143599480D01*
X128153107Y-143586867D01*
X128133402Y-143572253D01*
X128115223Y-143555777D01*
X128098747Y-143537598D01*
X128084133Y-143517893D01*
X128071520Y-143496849D01*
X128061030Y-143474671D01*
X128052765Y-143451571D01*
X128046804Y-143427773D01*
X128043204Y-143403504D01*
X128042000Y-143379000D01*
X128042000Y-142879000D01*
X128043204Y-142854496D01*
X128046804Y-142830227D01*
X128052765Y-142806429D01*
X128061030Y-142783329D01*
X128071520Y-142761151D01*
X128084133Y-142740107D01*
X128098747Y-142720402D01*
X128115223Y-142702223D01*
X128133402Y-142685747D01*
X128153107Y-142671133D01*
X128174151Y-142658520D01*
X128196329Y-142648030D01*
X128219429Y-142639765D01*
X128243227Y-142633804D01*
X128267496Y-142630204D01*
X128292000Y-142629000D01*
X130092000Y-142629000D01*
X130116504Y-142630204D01*
G37*
G36*
X130116504Y-141360204D02*
G01*
X130140773Y-141363804D01*
X130164571Y-141369765D01*
X130187671Y-141378030D01*
X130209849Y-141388520D01*
X130230893Y-141401133D01*
X130250598Y-141415747D01*
X130268777Y-141432223D01*
X130285253Y-141450402D01*
X130299867Y-141470107D01*
X130312480Y-141491151D01*
X130322970Y-141513329D01*
X130331235Y-141536429D01*
X130337196Y-141560227D01*
X130340796Y-141584496D01*
X130342000Y-141609000D01*
X130342000Y-142109000D01*
X130340796Y-142133504D01*
X130337196Y-142157773D01*
X130331235Y-142181571D01*
X130322970Y-142204671D01*
X130312480Y-142226849D01*
X130299867Y-142247893D01*
X130285253Y-142267598D01*
X130268777Y-142285777D01*
X130250598Y-142302253D01*
X130230893Y-142316867D01*
X130209849Y-142329480D01*
X130187671Y-142339970D01*
X130164571Y-142348235D01*
X130140773Y-142354196D01*
X130116504Y-142357796D01*
X130092000Y-142359000D01*
X128292000Y-142359000D01*
X128267496Y-142357796D01*
X128243227Y-142354196D01*
X128219429Y-142348235D01*
X128196329Y-142339970D01*
X128174151Y-142329480D01*
X128153107Y-142316867D01*
X128133402Y-142302253D01*
X128115223Y-142285777D01*
X128098747Y-142267598D01*
X128084133Y-142247893D01*
X128071520Y-142226849D01*
X128061030Y-142204671D01*
X128052765Y-142181571D01*
X128046804Y-142157773D01*
X128043204Y-142133504D01*
X128042000Y-142109000D01*
X128042000Y-141609000D01*
X128043204Y-141584496D01*
X128046804Y-141560227D01*
X128052765Y-141536429D01*
X128061030Y-141513329D01*
X128071520Y-141491151D01*
X128084133Y-141470107D01*
X128098747Y-141450402D01*
X128115223Y-141432223D01*
X128133402Y-141415747D01*
X128153107Y-141401133D01*
X128174151Y-141388520D01*
X128196329Y-141378030D01*
X128219429Y-141369765D01*
X128243227Y-141363804D01*
X128267496Y-141360204D01*
X128292000Y-141359000D01*
X130092000Y-141359000D01*
X130116504Y-141360204D01*
G37*
G36*
X130116504Y-140090204D02*
G01*
X130140773Y-140093804D01*
X130164571Y-140099765D01*
X130187671Y-140108030D01*
X130209849Y-140118520D01*
X130230893Y-140131133D01*
X130250598Y-140145747D01*
X130268777Y-140162223D01*
X130285253Y-140180402D01*
X130299867Y-140200107D01*
X130312480Y-140221151D01*
X130322970Y-140243329D01*
X130331235Y-140266429D01*
X130337196Y-140290227D01*
X130340796Y-140314496D01*
X130342000Y-140339000D01*
X130342000Y-140839000D01*
X130340796Y-140863504D01*
X130337196Y-140887773D01*
X130331235Y-140911571D01*
X130322970Y-140934671D01*
X130312480Y-140956849D01*
X130299867Y-140977893D01*
X130285253Y-140997598D01*
X130268777Y-141015777D01*
X130250598Y-141032253D01*
X130230893Y-141046867D01*
X130209849Y-141059480D01*
X130187671Y-141069970D01*
X130164571Y-141078235D01*
X130140773Y-141084196D01*
X130116504Y-141087796D01*
X130092000Y-141089000D01*
X128292000Y-141089000D01*
X128267496Y-141087796D01*
X128243227Y-141084196D01*
X128219429Y-141078235D01*
X128196329Y-141069970D01*
X128174151Y-141059480D01*
X128153107Y-141046867D01*
X128133402Y-141032253D01*
X128115223Y-141015777D01*
X128098747Y-140997598D01*
X128084133Y-140977893D01*
X128071520Y-140956849D01*
X128061030Y-140934671D01*
X128052765Y-140911571D01*
X128046804Y-140887773D01*
X128043204Y-140863504D01*
X128042000Y-140839000D01*
X128042000Y-140339000D01*
X128043204Y-140314496D01*
X128046804Y-140290227D01*
X128052765Y-140266429D01*
X128061030Y-140243329D01*
X128071520Y-140221151D01*
X128084133Y-140200107D01*
X128098747Y-140180402D01*
X128115223Y-140162223D01*
X128133402Y-140145747D01*
X128153107Y-140131133D01*
X128174151Y-140118520D01*
X128196329Y-140108030D01*
X128219429Y-140099765D01*
X128243227Y-140093804D01*
X128267496Y-140090204D01*
X128292000Y-140089000D01*
X130092000Y-140089000D01*
X130116504Y-140090204D01*
G37*
G36*
X130116504Y-138820204D02*
G01*
X130140773Y-138823804D01*
X130164571Y-138829765D01*
X130187671Y-138838030D01*
X130209849Y-138848520D01*
X130230893Y-138861133D01*
X130250598Y-138875747D01*
X130268777Y-138892223D01*
X130285253Y-138910402D01*
X130299867Y-138930107D01*
X130312480Y-138951151D01*
X130322970Y-138973329D01*
X130331235Y-138996429D01*
X130337196Y-139020227D01*
X130340796Y-139044496D01*
X130342000Y-139069000D01*
X130342000Y-139569000D01*
X130340796Y-139593504D01*
X130337196Y-139617773D01*
X130331235Y-139641571D01*
X130322970Y-139664671D01*
X130312480Y-139686849D01*
X130299867Y-139707893D01*
X130285253Y-139727598D01*
X130268777Y-139745777D01*
X130250598Y-139762253D01*
X130230893Y-139776867D01*
X130209849Y-139789480D01*
X130187671Y-139799970D01*
X130164571Y-139808235D01*
X130140773Y-139814196D01*
X130116504Y-139817796D01*
X130092000Y-139819000D01*
X128292000Y-139819000D01*
X128267496Y-139817796D01*
X128243227Y-139814196D01*
X128219429Y-139808235D01*
X128196329Y-139799970D01*
X128174151Y-139789480D01*
X128153107Y-139776867D01*
X128133402Y-139762253D01*
X128115223Y-139745777D01*
X128098747Y-139727598D01*
X128084133Y-139707893D01*
X128071520Y-139686849D01*
X128061030Y-139664671D01*
X128052765Y-139641571D01*
X128046804Y-139617773D01*
X128043204Y-139593504D01*
X128042000Y-139569000D01*
X128042000Y-139069000D01*
X128043204Y-139044496D01*
X128046804Y-139020227D01*
X128052765Y-138996429D01*
X128061030Y-138973329D01*
X128071520Y-138951151D01*
X128084133Y-138930107D01*
X128098747Y-138910402D01*
X128115223Y-138892223D01*
X128133402Y-138875747D01*
X128153107Y-138861133D01*
X128174151Y-138848520D01*
X128196329Y-138838030D01*
X128219429Y-138829765D01*
X128243227Y-138823804D01*
X128267496Y-138820204D01*
X128292000Y-138819000D01*
X130092000Y-138819000D01*
X130116504Y-138820204D01*
G37*
M02*
