G04 #@! TF.GenerationSoftware,KiCad,Pcbnew,(5.1.5)-3*
G04 #@! TF.CreationDate,2020-06-07T12:27:59+08:00*
G04 #@! TF.ProjectId,HEMAC_MCU,48454d41-435f-44d4-9355-2e6b69636164,rev?*
G04 #@! TF.SameCoordinates,Original*
G04 #@! TF.FileFunction,Soldermask,Bot*
G04 #@! TF.FilePolarity,Negative*
%FSLAX46Y46*%
G04 Gerber Fmt 4.6, Leading zero omitted, Abs format (unit mm)*
G04 Created by KiCad (PCBNEW (5.1.5)-3) date 2020-06-07 12:27:59*
%MOMM*%
%LPD*%
G04 APERTURE LIST*
%ADD10C,0.150000*%
%ADD11C,0.100000*%
%ADD12C,8.800000*%
%ADD13C,3.200000*%
%ADD14C,2.100000*%
%ADD15R,2.100000X2.100000*%
%ADD16R,6.400000X5.400000*%
%ADD17R,2.200000X2.200000*%
%ADD18C,2.200000*%
%ADD19C,2.150000*%
%ADD20R,2.150000X2.150000*%
%ADD21C,3.150000*%
%ADD22C,3.400000*%
%ADD23C,2.500000*%
G04 APERTURE END LIST*
D10*
G36*
X225000000Y-150000000D02*
G01*
X65000000Y-150000000D01*
X65000000Y-147000000D01*
X225000000Y-147000000D01*
X225000000Y-150000000D01*
G37*
X225000000Y-150000000D02*
X65000000Y-150000000D01*
X65000000Y-147000000D01*
X225000000Y-147000000D01*
X225000000Y-150000000D01*
G36*
X225000000Y-53000000D02*
G01*
X65000000Y-53000000D01*
X65000000Y-50000000D01*
X225000000Y-50000000D01*
X225000000Y-53000000D01*
G37*
X225000000Y-53000000D02*
X65000000Y-53000000D01*
X65000000Y-50000000D01*
X225000000Y-50000000D01*
X225000000Y-53000000D01*
D11*
G36*
X102196000Y-145716000D02*
G01*
X113196000Y-145716000D01*
X113196000Y-135716000D01*
X102196000Y-135716000D01*
X102196000Y-145716000D01*
G37*
X102196000Y-145716000D02*
X113196000Y-145716000D01*
X113196000Y-135716000D01*
X102196000Y-135716000D01*
X102196000Y-145716000D01*
D12*
X96377000Y-140716000D02*
G75*
G03X96377000Y-140716000I-1000000J0D01*
G01*
D10*
G36*
X219810000Y-58260000D02*
G01*
X224960000Y-58260000D01*
X224960000Y-53360000D01*
X219810000Y-53360000D01*
X219810000Y-58260000D01*
G37*
X219810000Y-58260000D02*
X224960000Y-58260000D01*
X224960000Y-53360000D01*
X219810000Y-53360000D01*
X219810000Y-58260000D01*
G36*
X219810000Y-147260000D02*
G01*
X224960000Y-147260000D01*
X224960000Y-142360000D01*
X219810000Y-142360000D01*
X219810000Y-147260000D01*
G37*
X219810000Y-147260000D02*
X224960000Y-147260000D01*
X224960000Y-142360000D01*
X219810000Y-142360000D01*
X219810000Y-147260000D01*
D13*
X222250000Y-144780000D03*
X222250000Y-55880000D03*
D14*
X217170000Y-139700000D03*
X219710000Y-139700000D03*
X217170000Y-137160000D03*
X219710000Y-137160000D03*
X217170000Y-134620000D03*
X219710000Y-134620000D03*
X217170000Y-132080000D03*
X219710000Y-132080000D03*
X217170000Y-129540000D03*
X219710000Y-129540000D03*
X217170000Y-127000000D03*
X219710000Y-127000000D03*
X217170000Y-124460000D03*
X219710000Y-124460000D03*
X217170000Y-121920000D03*
X219710000Y-121920000D03*
X217170000Y-119380000D03*
X219710000Y-119380000D03*
X217170000Y-116840000D03*
X219710000Y-116840000D03*
X217170000Y-114300000D03*
X219710000Y-114300000D03*
X217170000Y-111760000D03*
X219710000Y-111760000D03*
X217170000Y-109220000D03*
X219710000Y-109220000D03*
X217170000Y-106680000D03*
X219710000Y-106680000D03*
X217170000Y-104140000D03*
X219710000Y-104140000D03*
X217170000Y-101600000D03*
X219710000Y-101600000D03*
X217170000Y-99060000D03*
X219710000Y-99060000D03*
X217170000Y-96520000D03*
X219710000Y-96520000D03*
X217170000Y-93980000D03*
X219710000Y-93980000D03*
X217170000Y-91440000D03*
X219710000Y-91440000D03*
X217170000Y-88900000D03*
X219710000Y-88900000D03*
X217170000Y-86360000D03*
X219710000Y-86360000D03*
X217170000Y-83820000D03*
X219710000Y-83820000D03*
X217170000Y-81280000D03*
X219710000Y-81280000D03*
X217170000Y-78740000D03*
X219710000Y-78740000D03*
X217170000Y-76200000D03*
X219710000Y-76200000D03*
X217170000Y-73660000D03*
X219710000Y-73660000D03*
X217170000Y-71120000D03*
X219710000Y-71120000D03*
X217170000Y-68580000D03*
X219710000Y-68580000D03*
X217170000Y-66040000D03*
X219710000Y-66040000D03*
X217170000Y-63500000D03*
X219710000Y-63500000D03*
X217170000Y-60960000D03*
D15*
X219710000Y-60960000D03*
D16*
X68000000Y-55550000D03*
X68000000Y-144450000D03*
D17*
X189484000Y-140716000D03*
D18*
X189484000Y-143256000D03*
D17*
X183896000Y-140716000D03*
D18*
X183896000Y-143256000D03*
X195580000Y-143256000D03*
D17*
X195580000Y-140716000D03*
D19*
X139900000Y-96770000D03*
X137000000Y-96770000D03*
X134100000Y-96770000D03*
X107610000Y-66040000D03*
X107610000Y-63500000D03*
X105070000Y-66040000D03*
X105070000Y-63500000D03*
X112690000Y-63500000D03*
X112690000Y-66040000D03*
D20*
X140630000Y-66040000D03*
D19*
X140630000Y-63500000D03*
X138090000Y-66040000D03*
X138090000Y-63500000D03*
X135550000Y-66040000D03*
X135550000Y-63500000D03*
X133010000Y-66040000D03*
X133010000Y-63500000D03*
X130470000Y-66040000D03*
X130470000Y-63500000D03*
X127930000Y-66040000D03*
X127930000Y-63500000D03*
X125390000Y-66040000D03*
X125390000Y-63500000D03*
X122850000Y-66040000D03*
X122850000Y-63500000D03*
X120310000Y-66040000D03*
X120310000Y-63500000D03*
X117770000Y-66040000D03*
X117770000Y-63500000D03*
X115230000Y-66040000D03*
X115230000Y-63500000D03*
X110150000Y-66040000D03*
X110150000Y-63500000D03*
X102530000Y-63500000D03*
X102530000Y-66040000D03*
X99990000Y-63500000D03*
X99990000Y-66040000D03*
X97450000Y-63500000D03*
X97450000Y-66040000D03*
X94910000Y-63500000D03*
X94910000Y-66040000D03*
X92370000Y-63500000D03*
X92370000Y-66040000D03*
D21*
X87500000Y-64770000D03*
X145500000Y-64770000D03*
X87500000Y-113770000D03*
X145500000Y-113770000D03*
D22*
X170688000Y-56976000D03*
X170688000Y-66976000D03*
D23*
X70490000Y-132250000D03*
D19*
X68000000Y-131000000D03*
X68000000Y-126500000D03*
D23*
X70490000Y-125240000D03*
D22*
X183976000Y-64008000D03*
X193976000Y-64008000D03*
M02*
