G04 #@! TF.GenerationSoftware,KiCad,Pcbnew,(5.1.5)-3*
G04 #@! TF.CreationDate,2020-06-07T12:27:59+08:00*
G04 #@! TF.ProjectId,HEMAC_MCU,48454d41-435f-44d4-9355-2e6b69636164,rev?*
G04 #@! TF.SameCoordinates,Original*
G04 #@! TF.FileFunction,Paste,Top*
G04 #@! TF.FilePolarity,Positive*
%FSLAX46Y46*%
G04 Gerber Fmt 4.6, Leading zero omitted, Abs format (unit mm)*
G04 Created by KiCad (PCBNEW (5.1.5)-3) date 2020-06-07 12:27:59*
%MOMM*%
%LPD*%
G04 APERTURE LIST*
%ADD10C,0.100000*%
%ADD11R,1.900000X0.600000*%
%ADD12R,0.600000X2.300000*%
%ADD13R,2.400000X0.600000*%
%ADD14R,1.300000X2.500000*%
%ADD15R,1.250000X1.300000*%
%ADD16R,1.300000X1.250000*%
%ADD17R,1.200000X0.800000*%
%ADD18R,1.200000X2.500000*%
%ADD19R,0.900000X1.300000*%
%ADD20R,1.300000X0.900000*%
%ADD21R,2.500000X1.200000*%
G04 APERTURE END LIST*
D10*
G36*
X160486703Y-93807722D02*
G01*
X160501264Y-93809882D01*
X160515543Y-93813459D01*
X160529403Y-93818418D01*
X160542710Y-93824712D01*
X160555336Y-93832280D01*
X160567159Y-93841048D01*
X160578066Y-93850934D01*
X160587952Y-93861841D01*
X160596720Y-93873664D01*
X160604288Y-93886290D01*
X160610582Y-93899597D01*
X160615541Y-93913457D01*
X160619118Y-93927736D01*
X160621278Y-93942297D01*
X160622000Y-93957000D01*
X160622000Y-94257000D01*
X160621278Y-94271703D01*
X160619118Y-94286264D01*
X160615541Y-94300543D01*
X160610582Y-94314403D01*
X160604288Y-94327710D01*
X160596720Y-94340336D01*
X160587952Y-94352159D01*
X160578066Y-94363066D01*
X160567159Y-94372952D01*
X160555336Y-94381720D01*
X160542710Y-94389288D01*
X160529403Y-94395582D01*
X160515543Y-94400541D01*
X160501264Y-94404118D01*
X160486703Y-94406278D01*
X160472000Y-94407000D01*
X158872000Y-94407000D01*
X158857297Y-94406278D01*
X158842736Y-94404118D01*
X158828457Y-94400541D01*
X158814597Y-94395582D01*
X158801290Y-94389288D01*
X158788664Y-94381720D01*
X158776841Y-94372952D01*
X158765934Y-94363066D01*
X158756048Y-94352159D01*
X158747280Y-94340336D01*
X158739712Y-94327710D01*
X158733418Y-94314403D01*
X158728459Y-94300543D01*
X158724882Y-94286264D01*
X158722722Y-94271703D01*
X158722000Y-94257000D01*
X158722000Y-93957000D01*
X158722722Y-93942297D01*
X158724882Y-93927736D01*
X158728459Y-93913457D01*
X158733418Y-93899597D01*
X158739712Y-93886290D01*
X158747280Y-93873664D01*
X158756048Y-93861841D01*
X158765934Y-93850934D01*
X158776841Y-93841048D01*
X158788664Y-93832280D01*
X158801290Y-93824712D01*
X158814597Y-93818418D01*
X158828457Y-93813459D01*
X158842736Y-93809882D01*
X158857297Y-93807722D01*
X158872000Y-93807000D01*
X160472000Y-93807000D01*
X160486703Y-93807722D01*
G37*
G36*
X160486703Y-95077722D02*
G01*
X160501264Y-95079882D01*
X160515543Y-95083459D01*
X160529403Y-95088418D01*
X160542710Y-95094712D01*
X160555336Y-95102280D01*
X160567159Y-95111048D01*
X160578066Y-95120934D01*
X160587952Y-95131841D01*
X160596720Y-95143664D01*
X160604288Y-95156290D01*
X160610582Y-95169597D01*
X160615541Y-95183457D01*
X160619118Y-95197736D01*
X160621278Y-95212297D01*
X160622000Y-95227000D01*
X160622000Y-95527000D01*
X160621278Y-95541703D01*
X160619118Y-95556264D01*
X160615541Y-95570543D01*
X160610582Y-95584403D01*
X160604288Y-95597710D01*
X160596720Y-95610336D01*
X160587952Y-95622159D01*
X160578066Y-95633066D01*
X160567159Y-95642952D01*
X160555336Y-95651720D01*
X160542710Y-95659288D01*
X160529403Y-95665582D01*
X160515543Y-95670541D01*
X160501264Y-95674118D01*
X160486703Y-95676278D01*
X160472000Y-95677000D01*
X158872000Y-95677000D01*
X158857297Y-95676278D01*
X158842736Y-95674118D01*
X158828457Y-95670541D01*
X158814597Y-95665582D01*
X158801290Y-95659288D01*
X158788664Y-95651720D01*
X158776841Y-95642952D01*
X158765934Y-95633066D01*
X158756048Y-95622159D01*
X158747280Y-95610336D01*
X158739712Y-95597710D01*
X158733418Y-95584403D01*
X158728459Y-95570543D01*
X158724882Y-95556264D01*
X158722722Y-95541703D01*
X158722000Y-95527000D01*
X158722000Y-95227000D01*
X158722722Y-95212297D01*
X158724882Y-95197736D01*
X158728459Y-95183457D01*
X158733418Y-95169597D01*
X158739712Y-95156290D01*
X158747280Y-95143664D01*
X158756048Y-95131841D01*
X158765934Y-95120934D01*
X158776841Y-95111048D01*
X158788664Y-95102280D01*
X158801290Y-95094712D01*
X158814597Y-95088418D01*
X158828457Y-95083459D01*
X158842736Y-95079882D01*
X158857297Y-95077722D01*
X158872000Y-95077000D01*
X160472000Y-95077000D01*
X160486703Y-95077722D01*
G37*
G36*
X160486703Y-96347722D02*
G01*
X160501264Y-96349882D01*
X160515543Y-96353459D01*
X160529403Y-96358418D01*
X160542710Y-96364712D01*
X160555336Y-96372280D01*
X160567159Y-96381048D01*
X160578066Y-96390934D01*
X160587952Y-96401841D01*
X160596720Y-96413664D01*
X160604288Y-96426290D01*
X160610582Y-96439597D01*
X160615541Y-96453457D01*
X160619118Y-96467736D01*
X160621278Y-96482297D01*
X160622000Y-96497000D01*
X160622000Y-96797000D01*
X160621278Y-96811703D01*
X160619118Y-96826264D01*
X160615541Y-96840543D01*
X160610582Y-96854403D01*
X160604288Y-96867710D01*
X160596720Y-96880336D01*
X160587952Y-96892159D01*
X160578066Y-96903066D01*
X160567159Y-96912952D01*
X160555336Y-96921720D01*
X160542710Y-96929288D01*
X160529403Y-96935582D01*
X160515543Y-96940541D01*
X160501264Y-96944118D01*
X160486703Y-96946278D01*
X160472000Y-96947000D01*
X158872000Y-96947000D01*
X158857297Y-96946278D01*
X158842736Y-96944118D01*
X158828457Y-96940541D01*
X158814597Y-96935582D01*
X158801290Y-96929288D01*
X158788664Y-96921720D01*
X158776841Y-96912952D01*
X158765934Y-96903066D01*
X158756048Y-96892159D01*
X158747280Y-96880336D01*
X158739712Y-96867710D01*
X158733418Y-96854403D01*
X158728459Y-96840543D01*
X158724882Y-96826264D01*
X158722722Y-96811703D01*
X158722000Y-96797000D01*
X158722000Y-96497000D01*
X158722722Y-96482297D01*
X158724882Y-96467736D01*
X158728459Y-96453457D01*
X158733418Y-96439597D01*
X158739712Y-96426290D01*
X158747280Y-96413664D01*
X158756048Y-96401841D01*
X158765934Y-96390934D01*
X158776841Y-96381048D01*
X158788664Y-96372280D01*
X158801290Y-96364712D01*
X158814597Y-96358418D01*
X158828457Y-96353459D01*
X158842736Y-96349882D01*
X158857297Y-96347722D01*
X158872000Y-96347000D01*
X160472000Y-96347000D01*
X160486703Y-96347722D01*
G37*
G36*
X160486703Y-97617722D02*
G01*
X160501264Y-97619882D01*
X160515543Y-97623459D01*
X160529403Y-97628418D01*
X160542710Y-97634712D01*
X160555336Y-97642280D01*
X160567159Y-97651048D01*
X160578066Y-97660934D01*
X160587952Y-97671841D01*
X160596720Y-97683664D01*
X160604288Y-97696290D01*
X160610582Y-97709597D01*
X160615541Y-97723457D01*
X160619118Y-97737736D01*
X160621278Y-97752297D01*
X160622000Y-97767000D01*
X160622000Y-98067000D01*
X160621278Y-98081703D01*
X160619118Y-98096264D01*
X160615541Y-98110543D01*
X160610582Y-98124403D01*
X160604288Y-98137710D01*
X160596720Y-98150336D01*
X160587952Y-98162159D01*
X160578066Y-98173066D01*
X160567159Y-98182952D01*
X160555336Y-98191720D01*
X160542710Y-98199288D01*
X160529403Y-98205582D01*
X160515543Y-98210541D01*
X160501264Y-98214118D01*
X160486703Y-98216278D01*
X160472000Y-98217000D01*
X158872000Y-98217000D01*
X158857297Y-98216278D01*
X158842736Y-98214118D01*
X158828457Y-98210541D01*
X158814597Y-98205582D01*
X158801290Y-98199288D01*
X158788664Y-98191720D01*
X158776841Y-98182952D01*
X158765934Y-98173066D01*
X158756048Y-98162159D01*
X158747280Y-98150336D01*
X158739712Y-98137710D01*
X158733418Y-98124403D01*
X158728459Y-98110543D01*
X158724882Y-98096264D01*
X158722722Y-98081703D01*
X158722000Y-98067000D01*
X158722000Y-97767000D01*
X158722722Y-97752297D01*
X158724882Y-97737736D01*
X158728459Y-97723457D01*
X158733418Y-97709597D01*
X158739712Y-97696290D01*
X158747280Y-97683664D01*
X158756048Y-97671841D01*
X158765934Y-97660934D01*
X158776841Y-97651048D01*
X158788664Y-97642280D01*
X158801290Y-97634712D01*
X158814597Y-97628418D01*
X158828457Y-97623459D01*
X158842736Y-97619882D01*
X158857297Y-97617722D01*
X158872000Y-97617000D01*
X160472000Y-97617000D01*
X160486703Y-97617722D01*
G37*
G36*
X155086703Y-97617722D02*
G01*
X155101264Y-97619882D01*
X155115543Y-97623459D01*
X155129403Y-97628418D01*
X155142710Y-97634712D01*
X155155336Y-97642280D01*
X155167159Y-97651048D01*
X155178066Y-97660934D01*
X155187952Y-97671841D01*
X155196720Y-97683664D01*
X155204288Y-97696290D01*
X155210582Y-97709597D01*
X155215541Y-97723457D01*
X155219118Y-97737736D01*
X155221278Y-97752297D01*
X155222000Y-97767000D01*
X155222000Y-98067000D01*
X155221278Y-98081703D01*
X155219118Y-98096264D01*
X155215541Y-98110543D01*
X155210582Y-98124403D01*
X155204288Y-98137710D01*
X155196720Y-98150336D01*
X155187952Y-98162159D01*
X155178066Y-98173066D01*
X155167159Y-98182952D01*
X155155336Y-98191720D01*
X155142710Y-98199288D01*
X155129403Y-98205582D01*
X155115543Y-98210541D01*
X155101264Y-98214118D01*
X155086703Y-98216278D01*
X155072000Y-98217000D01*
X153472000Y-98217000D01*
X153457297Y-98216278D01*
X153442736Y-98214118D01*
X153428457Y-98210541D01*
X153414597Y-98205582D01*
X153401290Y-98199288D01*
X153388664Y-98191720D01*
X153376841Y-98182952D01*
X153365934Y-98173066D01*
X153356048Y-98162159D01*
X153347280Y-98150336D01*
X153339712Y-98137710D01*
X153333418Y-98124403D01*
X153328459Y-98110543D01*
X153324882Y-98096264D01*
X153322722Y-98081703D01*
X153322000Y-98067000D01*
X153322000Y-97767000D01*
X153322722Y-97752297D01*
X153324882Y-97737736D01*
X153328459Y-97723457D01*
X153333418Y-97709597D01*
X153339712Y-97696290D01*
X153347280Y-97683664D01*
X153356048Y-97671841D01*
X153365934Y-97660934D01*
X153376841Y-97651048D01*
X153388664Y-97642280D01*
X153401290Y-97634712D01*
X153414597Y-97628418D01*
X153428457Y-97623459D01*
X153442736Y-97619882D01*
X153457297Y-97617722D01*
X153472000Y-97617000D01*
X155072000Y-97617000D01*
X155086703Y-97617722D01*
G37*
G36*
X155086703Y-96347722D02*
G01*
X155101264Y-96349882D01*
X155115543Y-96353459D01*
X155129403Y-96358418D01*
X155142710Y-96364712D01*
X155155336Y-96372280D01*
X155167159Y-96381048D01*
X155178066Y-96390934D01*
X155187952Y-96401841D01*
X155196720Y-96413664D01*
X155204288Y-96426290D01*
X155210582Y-96439597D01*
X155215541Y-96453457D01*
X155219118Y-96467736D01*
X155221278Y-96482297D01*
X155222000Y-96497000D01*
X155222000Y-96797000D01*
X155221278Y-96811703D01*
X155219118Y-96826264D01*
X155215541Y-96840543D01*
X155210582Y-96854403D01*
X155204288Y-96867710D01*
X155196720Y-96880336D01*
X155187952Y-96892159D01*
X155178066Y-96903066D01*
X155167159Y-96912952D01*
X155155336Y-96921720D01*
X155142710Y-96929288D01*
X155129403Y-96935582D01*
X155115543Y-96940541D01*
X155101264Y-96944118D01*
X155086703Y-96946278D01*
X155072000Y-96947000D01*
X153472000Y-96947000D01*
X153457297Y-96946278D01*
X153442736Y-96944118D01*
X153428457Y-96940541D01*
X153414597Y-96935582D01*
X153401290Y-96929288D01*
X153388664Y-96921720D01*
X153376841Y-96912952D01*
X153365934Y-96903066D01*
X153356048Y-96892159D01*
X153347280Y-96880336D01*
X153339712Y-96867710D01*
X153333418Y-96854403D01*
X153328459Y-96840543D01*
X153324882Y-96826264D01*
X153322722Y-96811703D01*
X153322000Y-96797000D01*
X153322000Y-96497000D01*
X153322722Y-96482297D01*
X153324882Y-96467736D01*
X153328459Y-96453457D01*
X153333418Y-96439597D01*
X153339712Y-96426290D01*
X153347280Y-96413664D01*
X153356048Y-96401841D01*
X153365934Y-96390934D01*
X153376841Y-96381048D01*
X153388664Y-96372280D01*
X153401290Y-96364712D01*
X153414597Y-96358418D01*
X153428457Y-96353459D01*
X153442736Y-96349882D01*
X153457297Y-96347722D01*
X153472000Y-96347000D01*
X155072000Y-96347000D01*
X155086703Y-96347722D01*
G37*
G36*
X155086703Y-95077722D02*
G01*
X155101264Y-95079882D01*
X155115543Y-95083459D01*
X155129403Y-95088418D01*
X155142710Y-95094712D01*
X155155336Y-95102280D01*
X155167159Y-95111048D01*
X155178066Y-95120934D01*
X155187952Y-95131841D01*
X155196720Y-95143664D01*
X155204288Y-95156290D01*
X155210582Y-95169597D01*
X155215541Y-95183457D01*
X155219118Y-95197736D01*
X155221278Y-95212297D01*
X155222000Y-95227000D01*
X155222000Y-95527000D01*
X155221278Y-95541703D01*
X155219118Y-95556264D01*
X155215541Y-95570543D01*
X155210582Y-95584403D01*
X155204288Y-95597710D01*
X155196720Y-95610336D01*
X155187952Y-95622159D01*
X155178066Y-95633066D01*
X155167159Y-95642952D01*
X155155336Y-95651720D01*
X155142710Y-95659288D01*
X155129403Y-95665582D01*
X155115543Y-95670541D01*
X155101264Y-95674118D01*
X155086703Y-95676278D01*
X155072000Y-95677000D01*
X153472000Y-95677000D01*
X153457297Y-95676278D01*
X153442736Y-95674118D01*
X153428457Y-95670541D01*
X153414597Y-95665582D01*
X153401290Y-95659288D01*
X153388664Y-95651720D01*
X153376841Y-95642952D01*
X153365934Y-95633066D01*
X153356048Y-95622159D01*
X153347280Y-95610336D01*
X153339712Y-95597710D01*
X153333418Y-95584403D01*
X153328459Y-95570543D01*
X153324882Y-95556264D01*
X153322722Y-95541703D01*
X153322000Y-95527000D01*
X153322000Y-95227000D01*
X153322722Y-95212297D01*
X153324882Y-95197736D01*
X153328459Y-95183457D01*
X153333418Y-95169597D01*
X153339712Y-95156290D01*
X153347280Y-95143664D01*
X153356048Y-95131841D01*
X153365934Y-95120934D01*
X153376841Y-95111048D01*
X153388664Y-95102280D01*
X153401290Y-95094712D01*
X153414597Y-95088418D01*
X153428457Y-95083459D01*
X153442736Y-95079882D01*
X153457297Y-95077722D01*
X153472000Y-95077000D01*
X155072000Y-95077000D01*
X155086703Y-95077722D01*
G37*
D11*
X154272000Y-94107000D03*
D10*
G36*
X146262703Y-139019722D02*
G01*
X146277264Y-139021882D01*
X146291543Y-139025459D01*
X146305403Y-139030418D01*
X146318710Y-139036712D01*
X146331336Y-139044280D01*
X146343159Y-139053048D01*
X146354066Y-139062934D01*
X146363952Y-139073841D01*
X146372720Y-139085664D01*
X146380288Y-139098290D01*
X146386582Y-139111597D01*
X146391541Y-139125457D01*
X146395118Y-139139736D01*
X146397278Y-139154297D01*
X146398000Y-139169000D01*
X146398000Y-139469000D01*
X146397278Y-139483703D01*
X146395118Y-139498264D01*
X146391541Y-139512543D01*
X146386582Y-139526403D01*
X146380288Y-139539710D01*
X146372720Y-139552336D01*
X146363952Y-139564159D01*
X146354066Y-139575066D01*
X146343159Y-139584952D01*
X146331336Y-139593720D01*
X146318710Y-139601288D01*
X146305403Y-139607582D01*
X146291543Y-139612541D01*
X146277264Y-139616118D01*
X146262703Y-139618278D01*
X146248000Y-139619000D01*
X144648000Y-139619000D01*
X144633297Y-139618278D01*
X144618736Y-139616118D01*
X144604457Y-139612541D01*
X144590597Y-139607582D01*
X144577290Y-139601288D01*
X144564664Y-139593720D01*
X144552841Y-139584952D01*
X144541934Y-139575066D01*
X144532048Y-139564159D01*
X144523280Y-139552336D01*
X144515712Y-139539710D01*
X144509418Y-139526403D01*
X144504459Y-139512543D01*
X144500882Y-139498264D01*
X144498722Y-139483703D01*
X144498000Y-139469000D01*
X144498000Y-139169000D01*
X144498722Y-139154297D01*
X144500882Y-139139736D01*
X144504459Y-139125457D01*
X144509418Y-139111597D01*
X144515712Y-139098290D01*
X144523280Y-139085664D01*
X144532048Y-139073841D01*
X144541934Y-139062934D01*
X144552841Y-139053048D01*
X144564664Y-139044280D01*
X144577290Y-139036712D01*
X144590597Y-139030418D01*
X144604457Y-139025459D01*
X144618736Y-139021882D01*
X144633297Y-139019722D01*
X144648000Y-139019000D01*
X146248000Y-139019000D01*
X146262703Y-139019722D01*
G37*
G36*
X146262703Y-140289722D02*
G01*
X146277264Y-140291882D01*
X146291543Y-140295459D01*
X146305403Y-140300418D01*
X146318710Y-140306712D01*
X146331336Y-140314280D01*
X146343159Y-140323048D01*
X146354066Y-140332934D01*
X146363952Y-140343841D01*
X146372720Y-140355664D01*
X146380288Y-140368290D01*
X146386582Y-140381597D01*
X146391541Y-140395457D01*
X146395118Y-140409736D01*
X146397278Y-140424297D01*
X146398000Y-140439000D01*
X146398000Y-140739000D01*
X146397278Y-140753703D01*
X146395118Y-140768264D01*
X146391541Y-140782543D01*
X146386582Y-140796403D01*
X146380288Y-140809710D01*
X146372720Y-140822336D01*
X146363952Y-140834159D01*
X146354066Y-140845066D01*
X146343159Y-140854952D01*
X146331336Y-140863720D01*
X146318710Y-140871288D01*
X146305403Y-140877582D01*
X146291543Y-140882541D01*
X146277264Y-140886118D01*
X146262703Y-140888278D01*
X146248000Y-140889000D01*
X144648000Y-140889000D01*
X144633297Y-140888278D01*
X144618736Y-140886118D01*
X144604457Y-140882541D01*
X144590597Y-140877582D01*
X144577290Y-140871288D01*
X144564664Y-140863720D01*
X144552841Y-140854952D01*
X144541934Y-140845066D01*
X144532048Y-140834159D01*
X144523280Y-140822336D01*
X144515712Y-140809710D01*
X144509418Y-140796403D01*
X144504459Y-140782543D01*
X144500882Y-140768264D01*
X144498722Y-140753703D01*
X144498000Y-140739000D01*
X144498000Y-140439000D01*
X144498722Y-140424297D01*
X144500882Y-140409736D01*
X144504459Y-140395457D01*
X144509418Y-140381597D01*
X144515712Y-140368290D01*
X144523280Y-140355664D01*
X144532048Y-140343841D01*
X144541934Y-140332934D01*
X144552841Y-140323048D01*
X144564664Y-140314280D01*
X144577290Y-140306712D01*
X144590597Y-140300418D01*
X144604457Y-140295459D01*
X144618736Y-140291882D01*
X144633297Y-140289722D01*
X144648000Y-140289000D01*
X146248000Y-140289000D01*
X146262703Y-140289722D01*
G37*
G36*
X146262703Y-141559722D02*
G01*
X146277264Y-141561882D01*
X146291543Y-141565459D01*
X146305403Y-141570418D01*
X146318710Y-141576712D01*
X146331336Y-141584280D01*
X146343159Y-141593048D01*
X146354066Y-141602934D01*
X146363952Y-141613841D01*
X146372720Y-141625664D01*
X146380288Y-141638290D01*
X146386582Y-141651597D01*
X146391541Y-141665457D01*
X146395118Y-141679736D01*
X146397278Y-141694297D01*
X146398000Y-141709000D01*
X146398000Y-142009000D01*
X146397278Y-142023703D01*
X146395118Y-142038264D01*
X146391541Y-142052543D01*
X146386582Y-142066403D01*
X146380288Y-142079710D01*
X146372720Y-142092336D01*
X146363952Y-142104159D01*
X146354066Y-142115066D01*
X146343159Y-142124952D01*
X146331336Y-142133720D01*
X146318710Y-142141288D01*
X146305403Y-142147582D01*
X146291543Y-142152541D01*
X146277264Y-142156118D01*
X146262703Y-142158278D01*
X146248000Y-142159000D01*
X144648000Y-142159000D01*
X144633297Y-142158278D01*
X144618736Y-142156118D01*
X144604457Y-142152541D01*
X144590597Y-142147582D01*
X144577290Y-142141288D01*
X144564664Y-142133720D01*
X144552841Y-142124952D01*
X144541934Y-142115066D01*
X144532048Y-142104159D01*
X144523280Y-142092336D01*
X144515712Y-142079710D01*
X144509418Y-142066403D01*
X144504459Y-142052543D01*
X144500882Y-142038264D01*
X144498722Y-142023703D01*
X144498000Y-142009000D01*
X144498000Y-141709000D01*
X144498722Y-141694297D01*
X144500882Y-141679736D01*
X144504459Y-141665457D01*
X144509418Y-141651597D01*
X144515712Y-141638290D01*
X144523280Y-141625664D01*
X144532048Y-141613841D01*
X144541934Y-141602934D01*
X144552841Y-141593048D01*
X144564664Y-141584280D01*
X144577290Y-141576712D01*
X144590597Y-141570418D01*
X144604457Y-141565459D01*
X144618736Y-141561882D01*
X144633297Y-141559722D01*
X144648000Y-141559000D01*
X146248000Y-141559000D01*
X146262703Y-141559722D01*
G37*
G36*
X146262703Y-142829722D02*
G01*
X146277264Y-142831882D01*
X146291543Y-142835459D01*
X146305403Y-142840418D01*
X146318710Y-142846712D01*
X146331336Y-142854280D01*
X146343159Y-142863048D01*
X146354066Y-142872934D01*
X146363952Y-142883841D01*
X146372720Y-142895664D01*
X146380288Y-142908290D01*
X146386582Y-142921597D01*
X146391541Y-142935457D01*
X146395118Y-142949736D01*
X146397278Y-142964297D01*
X146398000Y-142979000D01*
X146398000Y-143279000D01*
X146397278Y-143293703D01*
X146395118Y-143308264D01*
X146391541Y-143322543D01*
X146386582Y-143336403D01*
X146380288Y-143349710D01*
X146372720Y-143362336D01*
X146363952Y-143374159D01*
X146354066Y-143385066D01*
X146343159Y-143394952D01*
X146331336Y-143403720D01*
X146318710Y-143411288D01*
X146305403Y-143417582D01*
X146291543Y-143422541D01*
X146277264Y-143426118D01*
X146262703Y-143428278D01*
X146248000Y-143429000D01*
X144648000Y-143429000D01*
X144633297Y-143428278D01*
X144618736Y-143426118D01*
X144604457Y-143422541D01*
X144590597Y-143417582D01*
X144577290Y-143411288D01*
X144564664Y-143403720D01*
X144552841Y-143394952D01*
X144541934Y-143385066D01*
X144532048Y-143374159D01*
X144523280Y-143362336D01*
X144515712Y-143349710D01*
X144509418Y-143336403D01*
X144504459Y-143322543D01*
X144500882Y-143308264D01*
X144498722Y-143293703D01*
X144498000Y-143279000D01*
X144498000Y-142979000D01*
X144498722Y-142964297D01*
X144500882Y-142949736D01*
X144504459Y-142935457D01*
X144509418Y-142921597D01*
X144515712Y-142908290D01*
X144523280Y-142895664D01*
X144532048Y-142883841D01*
X144541934Y-142872934D01*
X144552841Y-142863048D01*
X144564664Y-142854280D01*
X144577290Y-142846712D01*
X144590597Y-142840418D01*
X144604457Y-142835459D01*
X144618736Y-142831882D01*
X144633297Y-142829722D01*
X144648000Y-142829000D01*
X146248000Y-142829000D01*
X146262703Y-142829722D01*
G37*
G36*
X140862703Y-142829722D02*
G01*
X140877264Y-142831882D01*
X140891543Y-142835459D01*
X140905403Y-142840418D01*
X140918710Y-142846712D01*
X140931336Y-142854280D01*
X140943159Y-142863048D01*
X140954066Y-142872934D01*
X140963952Y-142883841D01*
X140972720Y-142895664D01*
X140980288Y-142908290D01*
X140986582Y-142921597D01*
X140991541Y-142935457D01*
X140995118Y-142949736D01*
X140997278Y-142964297D01*
X140998000Y-142979000D01*
X140998000Y-143279000D01*
X140997278Y-143293703D01*
X140995118Y-143308264D01*
X140991541Y-143322543D01*
X140986582Y-143336403D01*
X140980288Y-143349710D01*
X140972720Y-143362336D01*
X140963952Y-143374159D01*
X140954066Y-143385066D01*
X140943159Y-143394952D01*
X140931336Y-143403720D01*
X140918710Y-143411288D01*
X140905403Y-143417582D01*
X140891543Y-143422541D01*
X140877264Y-143426118D01*
X140862703Y-143428278D01*
X140848000Y-143429000D01*
X139248000Y-143429000D01*
X139233297Y-143428278D01*
X139218736Y-143426118D01*
X139204457Y-143422541D01*
X139190597Y-143417582D01*
X139177290Y-143411288D01*
X139164664Y-143403720D01*
X139152841Y-143394952D01*
X139141934Y-143385066D01*
X139132048Y-143374159D01*
X139123280Y-143362336D01*
X139115712Y-143349710D01*
X139109418Y-143336403D01*
X139104459Y-143322543D01*
X139100882Y-143308264D01*
X139098722Y-143293703D01*
X139098000Y-143279000D01*
X139098000Y-142979000D01*
X139098722Y-142964297D01*
X139100882Y-142949736D01*
X139104459Y-142935457D01*
X139109418Y-142921597D01*
X139115712Y-142908290D01*
X139123280Y-142895664D01*
X139132048Y-142883841D01*
X139141934Y-142872934D01*
X139152841Y-142863048D01*
X139164664Y-142854280D01*
X139177290Y-142846712D01*
X139190597Y-142840418D01*
X139204457Y-142835459D01*
X139218736Y-142831882D01*
X139233297Y-142829722D01*
X139248000Y-142829000D01*
X140848000Y-142829000D01*
X140862703Y-142829722D01*
G37*
G36*
X140862703Y-141559722D02*
G01*
X140877264Y-141561882D01*
X140891543Y-141565459D01*
X140905403Y-141570418D01*
X140918710Y-141576712D01*
X140931336Y-141584280D01*
X140943159Y-141593048D01*
X140954066Y-141602934D01*
X140963952Y-141613841D01*
X140972720Y-141625664D01*
X140980288Y-141638290D01*
X140986582Y-141651597D01*
X140991541Y-141665457D01*
X140995118Y-141679736D01*
X140997278Y-141694297D01*
X140998000Y-141709000D01*
X140998000Y-142009000D01*
X140997278Y-142023703D01*
X140995118Y-142038264D01*
X140991541Y-142052543D01*
X140986582Y-142066403D01*
X140980288Y-142079710D01*
X140972720Y-142092336D01*
X140963952Y-142104159D01*
X140954066Y-142115066D01*
X140943159Y-142124952D01*
X140931336Y-142133720D01*
X140918710Y-142141288D01*
X140905403Y-142147582D01*
X140891543Y-142152541D01*
X140877264Y-142156118D01*
X140862703Y-142158278D01*
X140848000Y-142159000D01*
X139248000Y-142159000D01*
X139233297Y-142158278D01*
X139218736Y-142156118D01*
X139204457Y-142152541D01*
X139190597Y-142147582D01*
X139177290Y-142141288D01*
X139164664Y-142133720D01*
X139152841Y-142124952D01*
X139141934Y-142115066D01*
X139132048Y-142104159D01*
X139123280Y-142092336D01*
X139115712Y-142079710D01*
X139109418Y-142066403D01*
X139104459Y-142052543D01*
X139100882Y-142038264D01*
X139098722Y-142023703D01*
X139098000Y-142009000D01*
X139098000Y-141709000D01*
X139098722Y-141694297D01*
X139100882Y-141679736D01*
X139104459Y-141665457D01*
X139109418Y-141651597D01*
X139115712Y-141638290D01*
X139123280Y-141625664D01*
X139132048Y-141613841D01*
X139141934Y-141602934D01*
X139152841Y-141593048D01*
X139164664Y-141584280D01*
X139177290Y-141576712D01*
X139190597Y-141570418D01*
X139204457Y-141565459D01*
X139218736Y-141561882D01*
X139233297Y-141559722D01*
X139248000Y-141559000D01*
X140848000Y-141559000D01*
X140862703Y-141559722D01*
G37*
G36*
X140862703Y-140289722D02*
G01*
X140877264Y-140291882D01*
X140891543Y-140295459D01*
X140905403Y-140300418D01*
X140918710Y-140306712D01*
X140931336Y-140314280D01*
X140943159Y-140323048D01*
X140954066Y-140332934D01*
X140963952Y-140343841D01*
X140972720Y-140355664D01*
X140980288Y-140368290D01*
X140986582Y-140381597D01*
X140991541Y-140395457D01*
X140995118Y-140409736D01*
X140997278Y-140424297D01*
X140998000Y-140439000D01*
X140998000Y-140739000D01*
X140997278Y-140753703D01*
X140995118Y-140768264D01*
X140991541Y-140782543D01*
X140986582Y-140796403D01*
X140980288Y-140809710D01*
X140972720Y-140822336D01*
X140963952Y-140834159D01*
X140954066Y-140845066D01*
X140943159Y-140854952D01*
X140931336Y-140863720D01*
X140918710Y-140871288D01*
X140905403Y-140877582D01*
X140891543Y-140882541D01*
X140877264Y-140886118D01*
X140862703Y-140888278D01*
X140848000Y-140889000D01*
X139248000Y-140889000D01*
X139233297Y-140888278D01*
X139218736Y-140886118D01*
X139204457Y-140882541D01*
X139190597Y-140877582D01*
X139177290Y-140871288D01*
X139164664Y-140863720D01*
X139152841Y-140854952D01*
X139141934Y-140845066D01*
X139132048Y-140834159D01*
X139123280Y-140822336D01*
X139115712Y-140809710D01*
X139109418Y-140796403D01*
X139104459Y-140782543D01*
X139100882Y-140768264D01*
X139098722Y-140753703D01*
X139098000Y-140739000D01*
X139098000Y-140439000D01*
X139098722Y-140424297D01*
X139100882Y-140409736D01*
X139104459Y-140395457D01*
X139109418Y-140381597D01*
X139115712Y-140368290D01*
X139123280Y-140355664D01*
X139132048Y-140343841D01*
X139141934Y-140332934D01*
X139152841Y-140323048D01*
X139164664Y-140314280D01*
X139177290Y-140306712D01*
X139190597Y-140300418D01*
X139204457Y-140295459D01*
X139218736Y-140291882D01*
X139233297Y-140289722D01*
X139248000Y-140289000D01*
X140848000Y-140289000D01*
X140862703Y-140289722D01*
G37*
D11*
X140048000Y-139319000D03*
D10*
G36*
X82819504Y-54556204D02*
G01*
X82843773Y-54559804D01*
X82867571Y-54565765D01*
X82890671Y-54574030D01*
X82912849Y-54584520D01*
X82933893Y-54597133D01*
X82953598Y-54611747D01*
X82971777Y-54628223D01*
X82988253Y-54646402D01*
X83002867Y-54666107D01*
X83015480Y-54687151D01*
X83025970Y-54709329D01*
X83034235Y-54732429D01*
X83040196Y-54756227D01*
X83043796Y-54780496D01*
X83045000Y-54805000D01*
X83045000Y-56955000D01*
X83043796Y-56979504D01*
X83040196Y-57003773D01*
X83034235Y-57027571D01*
X83025970Y-57050671D01*
X83015480Y-57072849D01*
X83002867Y-57093893D01*
X82988253Y-57113598D01*
X82971777Y-57131777D01*
X82953598Y-57148253D01*
X82933893Y-57162867D01*
X82912849Y-57175480D01*
X82890671Y-57185970D01*
X82867571Y-57194235D01*
X82843773Y-57200196D01*
X82819504Y-57203796D01*
X82795000Y-57205000D01*
X81870000Y-57205000D01*
X81845496Y-57203796D01*
X81821227Y-57200196D01*
X81797429Y-57194235D01*
X81774329Y-57185970D01*
X81752151Y-57175480D01*
X81731107Y-57162867D01*
X81711402Y-57148253D01*
X81693223Y-57131777D01*
X81676747Y-57113598D01*
X81662133Y-57093893D01*
X81649520Y-57072849D01*
X81639030Y-57050671D01*
X81630765Y-57027571D01*
X81624804Y-57003773D01*
X81621204Y-56979504D01*
X81620000Y-56955000D01*
X81620000Y-54805000D01*
X81621204Y-54780496D01*
X81624804Y-54756227D01*
X81630765Y-54732429D01*
X81639030Y-54709329D01*
X81649520Y-54687151D01*
X81662133Y-54666107D01*
X81676747Y-54646402D01*
X81693223Y-54628223D01*
X81711402Y-54611747D01*
X81731107Y-54597133D01*
X81752151Y-54584520D01*
X81774329Y-54574030D01*
X81797429Y-54565765D01*
X81821227Y-54559804D01*
X81845496Y-54556204D01*
X81870000Y-54555000D01*
X82795000Y-54555000D01*
X82819504Y-54556204D01*
G37*
G36*
X85794504Y-54556204D02*
G01*
X85818773Y-54559804D01*
X85842571Y-54565765D01*
X85865671Y-54574030D01*
X85887849Y-54584520D01*
X85908893Y-54597133D01*
X85928598Y-54611747D01*
X85946777Y-54628223D01*
X85963253Y-54646402D01*
X85977867Y-54666107D01*
X85990480Y-54687151D01*
X86000970Y-54709329D01*
X86009235Y-54732429D01*
X86015196Y-54756227D01*
X86018796Y-54780496D01*
X86020000Y-54805000D01*
X86020000Y-56955000D01*
X86018796Y-56979504D01*
X86015196Y-57003773D01*
X86009235Y-57027571D01*
X86000970Y-57050671D01*
X85990480Y-57072849D01*
X85977867Y-57093893D01*
X85963253Y-57113598D01*
X85946777Y-57131777D01*
X85928598Y-57148253D01*
X85908893Y-57162867D01*
X85887849Y-57175480D01*
X85865671Y-57185970D01*
X85842571Y-57194235D01*
X85818773Y-57200196D01*
X85794504Y-57203796D01*
X85770000Y-57205000D01*
X84845000Y-57205000D01*
X84820496Y-57203796D01*
X84796227Y-57200196D01*
X84772429Y-57194235D01*
X84749329Y-57185970D01*
X84727151Y-57175480D01*
X84706107Y-57162867D01*
X84686402Y-57148253D01*
X84668223Y-57131777D01*
X84651747Y-57113598D01*
X84637133Y-57093893D01*
X84624520Y-57072849D01*
X84614030Y-57050671D01*
X84605765Y-57027571D01*
X84599804Y-57003773D01*
X84596204Y-56979504D01*
X84595000Y-56955000D01*
X84595000Y-54805000D01*
X84596204Y-54780496D01*
X84599804Y-54756227D01*
X84605765Y-54732429D01*
X84614030Y-54709329D01*
X84624520Y-54687151D01*
X84637133Y-54666107D01*
X84651747Y-54646402D01*
X84668223Y-54628223D01*
X84686402Y-54611747D01*
X84706107Y-54597133D01*
X84727151Y-54584520D01*
X84749329Y-54574030D01*
X84772429Y-54565765D01*
X84796227Y-54559804D01*
X84820496Y-54556204D01*
X84845000Y-54555000D01*
X85770000Y-54555000D01*
X85794504Y-54556204D01*
G37*
G36*
X84524504Y-142186204D02*
G01*
X84548773Y-142189804D01*
X84572571Y-142195765D01*
X84595671Y-142204030D01*
X84617849Y-142214520D01*
X84638893Y-142227133D01*
X84658598Y-142241747D01*
X84676777Y-142258223D01*
X84693253Y-142276402D01*
X84707867Y-142296107D01*
X84720480Y-142317151D01*
X84730970Y-142339329D01*
X84739235Y-142362429D01*
X84745196Y-142386227D01*
X84748796Y-142410496D01*
X84750000Y-142435000D01*
X84750000Y-144585000D01*
X84748796Y-144609504D01*
X84745196Y-144633773D01*
X84739235Y-144657571D01*
X84730970Y-144680671D01*
X84720480Y-144702849D01*
X84707867Y-144723893D01*
X84693253Y-144743598D01*
X84676777Y-144761777D01*
X84658598Y-144778253D01*
X84638893Y-144792867D01*
X84617849Y-144805480D01*
X84595671Y-144815970D01*
X84572571Y-144824235D01*
X84548773Y-144830196D01*
X84524504Y-144833796D01*
X84500000Y-144835000D01*
X83575000Y-144835000D01*
X83550496Y-144833796D01*
X83526227Y-144830196D01*
X83502429Y-144824235D01*
X83479329Y-144815970D01*
X83457151Y-144805480D01*
X83436107Y-144792867D01*
X83416402Y-144778253D01*
X83398223Y-144761777D01*
X83381747Y-144743598D01*
X83367133Y-144723893D01*
X83354520Y-144702849D01*
X83344030Y-144680671D01*
X83335765Y-144657571D01*
X83329804Y-144633773D01*
X83326204Y-144609504D01*
X83325000Y-144585000D01*
X83325000Y-142435000D01*
X83326204Y-142410496D01*
X83329804Y-142386227D01*
X83335765Y-142362429D01*
X83344030Y-142339329D01*
X83354520Y-142317151D01*
X83367133Y-142296107D01*
X83381747Y-142276402D01*
X83398223Y-142258223D01*
X83416402Y-142241747D01*
X83436107Y-142227133D01*
X83457151Y-142214520D01*
X83479329Y-142204030D01*
X83502429Y-142195765D01*
X83526227Y-142189804D01*
X83550496Y-142186204D01*
X83575000Y-142185000D01*
X84500000Y-142185000D01*
X84524504Y-142186204D01*
G37*
G36*
X81549504Y-142186204D02*
G01*
X81573773Y-142189804D01*
X81597571Y-142195765D01*
X81620671Y-142204030D01*
X81642849Y-142214520D01*
X81663893Y-142227133D01*
X81683598Y-142241747D01*
X81701777Y-142258223D01*
X81718253Y-142276402D01*
X81732867Y-142296107D01*
X81745480Y-142317151D01*
X81755970Y-142339329D01*
X81764235Y-142362429D01*
X81770196Y-142386227D01*
X81773796Y-142410496D01*
X81775000Y-142435000D01*
X81775000Y-144585000D01*
X81773796Y-144609504D01*
X81770196Y-144633773D01*
X81764235Y-144657571D01*
X81755970Y-144680671D01*
X81745480Y-144702849D01*
X81732867Y-144723893D01*
X81718253Y-144743598D01*
X81701777Y-144761777D01*
X81683598Y-144778253D01*
X81663893Y-144792867D01*
X81642849Y-144805480D01*
X81620671Y-144815970D01*
X81597571Y-144824235D01*
X81573773Y-144830196D01*
X81549504Y-144833796D01*
X81525000Y-144835000D01*
X80600000Y-144835000D01*
X80575496Y-144833796D01*
X80551227Y-144830196D01*
X80527429Y-144824235D01*
X80504329Y-144815970D01*
X80482151Y-144805480D01*
X80461107Y-144792867D01*
X80441402Y-144778253D01*
X80423223Y-144761777D01*
X80406747Y-144743598D01*
X80392133Y-144723893D01*
X80379520Y-144702849D01*
X80369030Y-144680671D01*
X80360765Y-144657571D01*
X80354804Y-144633773D01*
X80351204Y-144609504D01*
X80350000Y-144585000D01*
X80350000Y-142435000D01*
X80351204Y-142410496D01*
X80354804Y-142386227D01*
X80360765Y-142362429D01*
X80369030Y-142339329D01*
X80379520Y-142317151D01*
X80392133Y-142296107D01*
X80406747Y-142276402D01*
X80423223Y-142258223D01*
X80441402Y-142241747D01*
X80461107Y-142227133D01*
X80482151Y-142214520D01*
X80504329Y-142204030D01*
X80527429Y-142195765D01*
X80551227Y-142189804D01*
X80575496Y-142186204D01*
X80600000Y-142185000D01*
X81525000Y-142185000D01*
X81549504Y-142186204D01*
G37*
G36*
X208063703Y-133659722D02*
G01*
X208078264Y-133661882D01*
X208092543Y-133665459D01*
X208106403Y-133670418D01*
X208119710Y-133676712D01*
X208132336Y-133684280D01*
X208144159Y-133693048D01*
X208155066Y-133702934D01*
X208164952Y-133713841D01*
X208173720Y-133725664D01*
X208181288Y-133738290D01*
X208187582Y-133751597D01*
X208192541Y-133765457D01*
X208196118Y-133779736D01*
X208198278Y-133794297D01*
X208199000Y-133809000D01*
X208199000Y-135809000D01*
X208198278Y-135823703D01*
X208196118Y-135838264D01*
X208192541Y-135852543D01*
X208187582Y-135866403D01*
X208181288Y-135879710D01*
X208173720Y-135892336D01*
X208164952Y-135904159D01*
X208155066Y-135915066D01*
X208144159Y-135924952D01*
X208132336Y-135933720D01*
X208119710Y-135941288D01*
X208106403Y-135947582D01*
X208092543Y-135952541D01*
X208078264Y-135956118D01*
X208063703Y-135958278D01*
X208049000Y-135959000D01*
X207749000Y-135959000D01*
X207734297Y-135958278D01*
X207719736Y-135956118D01*
X207705457Y-135952541D01*
X207691597Y-135947582D01*
X207678290Y-135941288D01*
X207665664Y-135933720D01*
X207653841Y-135924952D01*
X207642934Y-135915066D01*
X207633048Y-135904159D01*
X207624280Y-135892336D01*
X207616712Y-135879710D01*
X207610418Y-135866403D01*
X207605459Y-135852543D01*
X207601882Y-135838264D01*
X207599722Y-135823703D01*
X207599000Y-135809000D01*
X207599000Y-133809000D01*
X207599722Y-133794297D01*
X207601882Y-133779736D01*
X207605459Y-133765457D01*
X207610418Y-133751597D01*
X207616712Y-133738290D01*
X207624280Y-133725664D01*
X207633048Y-133713841D01*
X207642934Y-133702934D01*
X207653841Y-133693048D01*
X207665664Y-133684280D01*
X207678290Y-133676712D01*
X207691597Y-133670418D01*
X207705457Y-133665459D01*
X207719736Y-133661882D01*
X207734297Y-133659722D01*
X207749000Y-133659000D01*
X208049000Y-133659000D01*
X208063703Y-133659722D01*
G37*
G36*
X206793703Y-133659722D02*
G01*
X206808264Y-133661882D01*
X206822543Y-133665459D01*
X206836403Y-133670418D01*
X206849710Y-133676712D01*
X206862336Y-133684280D01*
X206874159Y-133693048D01*
X206885066Y-133702934D01*
X206894952Y-133713841D01*
X206903720Y-133725664D01*
X206911288Y-133738290D01*
X206917582Y-133751597D01*
X206922541Y-133765457D01*
X206926118Y-133779736D01*
X206928278Y-133794297D01*
X206929000Y-133809000D01*
X206929000Y-135809000D01*
X206928278Y-135823703D01*
X206926118Y-135838264D01*
X206922541Y-135852543D01*
X206917582Y-135866403D01*
X206911288Y-135879710D01*
X206903720Y-135892336D01*
X206894952Y-135904159D01*
X206885066Y-135915066D01*
X206874159Y-135924952D01*
X206862336Y-135933720D01*
X206849710Y-135941288D01*
X206836403Y-135947582D01*
X206822543Y-135952541D01*
X206808264Y-135956118D01*
X206793703Y-135958278D01*
X206779000Y-135959000D01*
X206479000Y-135959000D01*
X206464297Y-135958278D01*
X206449736Y-135956118D01*
X206435457Y-135952541D01*
X206421597Y-135947582D01*
X206408290Y-135941288D01*
X206395664Y-135933720D01*
X206383841Y-135924952D01*
X206372934Y-135915066D01*
X206363048Y-135904159D01*
X206354280Y-135892336D01*
X206346712Y-135879710D01*
X206340418Y-135866403D01*
X206335459Y-135852543D01*
X206331882Y-135838264D01*
X206329722Y-135823703D01*
X206329000Y-135809000D01*
X206329000Y-133809000D01*
X206329722Y-133794297D01*
X206331882Y-133779736D01*
X206335459Y-133765457D01*
X206340418Y-133751597D01*
X206346712Y-133738290D01*
X206354280Y-133725664D01*
X206363048Y-133713841D01*
X206372934Y-133702934D01*
X206383841Y-133693048D01*
X206395664Y-133684280D01*
X206408290Y-133676712D01*
X206421597Y-133670418D01*
X206435457Y-133665459D01*
X206449736Y-133661882D01*
X206464297Y-133659722D01*
X206479000Y-133659000D01*
X206779000Y-133659000D01*
X206793703Y-133659722D01*
G37*
G36*
X205523703Y-133659722D02*
G01*
X205538264Y-133661882D01*
X205552543Y-133665459D01*
X205566403Y-133670418D01*
X205579710Y-133676712D01*
X205592336Y-133684280D01*
X205604159Y-133693048D01*
X205615066Y-133702934D01*
X205624952Y-133713841D01*
X205633720Y-133725664D01*
X205641288Y-133738290D01*
X205647582Y-133751597D01*
X205652541Y-133765457D01*
X205656118Y-133779736D01*
X205658278Y-133794297D01*
X205659000Y-133809000D01*
X205659000Y-135809000D01*
X205658278Y-135823703D01*
X205656118Y-135838264D01*
X205652541Y-135852543D01*
X205647582Y-135866403D01*
X205641288Y-135879710D01*
X205633720Y-135892336D01*
X205624952Y-135904159D01*
X205615066Y-135915066D01*
X205604159Y-135924952D01*
X205592336Y-135933720D01*
X205579710Y-135941288D01*
X205566403Y-135947582D01*
X205552543Y-135952541D01*
X205538264Y-135956118D01*
X205523703Y-135958278D01*
X205509000Y-135959000D01*
X205209000Y-135959000D01*
X205194297Y-135958278D01*
X205179736Y-135956118D01*
X205165457Y-135952541D01*
X205151597Y-135947582D01*
X205138290Y-135941288D01*
X205125664Y-135933720D01*
X205113841Y-135924952D01*
X205102934Y-135915066D01*
X205093048Y-135904159D01*
X205084280Y-135892336D01*
X205076712Y-135879710D01*
X205070418Y-135866403D01*
X205065459Y-135852543D01*
X205061882Y-135838264D01*
X205059722Y-135823703D01*
X205059000Y-135809000D01*
X205059000Y-133809000D01*
X205059722Y-133794297D01*
X205061882Y-133779736D01*
X205065459Y-133765457D01*
X205070418Y-133751597D01*
X205076712Y-133738290D01*
X205084280Y-133725664D01*
X205093048Y-133713841D01*
X205102934Y-133702934D01*
X205113841Y-133693048D01*
X205125664Y-133684280D01*
X205138290Y-133676712D01*
X205151597Y-133670418D01*
X205165457Y-133665459D01*
X205179736Y-133661882D01*
X205194297Y-133659722D01*
X205209000Y-133659000D01*
X205509000Y-133659000D01*
X205523703Y-133659722D01*
G37*
G36*
X204253703Y-133659722D02*
G01*
X204268264Y-133661882D01*
X204282543Y-133665459D01*
X204296403Y-133670418D01*
X204309710Y-133676712D01*
X204322336Y-133684280D01*
X204334159Y-133693048D01*
X204345066Y-133702934D01*
X204354952Y-133713841D01*
X204363720Y-133725664D01*
X204371288Y-133738290D01*
X204377582Y-133751597D01*
X204382541Y-133765457D01*
X204386118Y-133779736D01*
X204388278Y-133794297D01*
X204389000Y-133809000D01*
X204389000Y-135809000D01*
X204388278Y-135823703D01*
X204386118Y-135838264D01*
X204382541Y-135852543D01*
X204377582Y-135866403D01*
X204371288Y-135879710D01*
X204363720Y-135892336D01*
X204354952Y-135904159D01*
X204345066Y-135915066D01*
X204334159Y-135924952D01*
X204322336Y-135933720D01*
X204309710Y-135941288D01*
X204296403Y-135947582D01*
X204282543Y-135952541D01*
X204268264Y-135956118D01*
X204253703Y-135958278D01*
X204239000Y-135959000D01*
X203939000Y-135959000D01*
X203924297Y-135958278D01*
X203909736Y-135956118D01*
X203895457Y-135952541D01*
X203881597Y-135947582D01*
X203868290Y-135941288D01*
X203855664Y-135933720D01*
X203843841Y-135924952D01*
X203832934Y-135915066D01*
X203823048Y-135904159D01*
X203814280Y-135892336D01*
X203806712Y-135879710D01*
X203800418Y-135866403D01*
X203795459Y-135852543D01*
X203791882Y-135838264D01*
X203789722Y-135823703D01*
X203789000Y-135809000D01*
X203789000Y-133809000D01*
X203789722Y-133794297D01*
X203791882Y-133779736D01*
X203795459Y-133765457D01*
X203800418Y-133751597D01*
X203806712Y-133738290D01*
X203814280Y-133725664D01*
X203823048Y-133713841D01*
X203832934Y-133702934D01*
X203843841Y-133693048D01*
X203855664Y-133684280D01*
X203868290Y-133676712D01*
X203881597Y-133670418D01*
X203895457Y-133665459D01*
X203909736Y-133661882D01*
X203924297Y-133659722D01*
X203939000Y-133659000D01*
X204239000Y-133659000D01*
X204253703Y-133659722D01*
G37*
G36*
X202983703Y-133659722D02*
G01*
X202998264Y-133661882D01*
X203012543Y-133665459D01*
X203026403Y-133670418D01*
X203039710Y-133676712D01*
X203052336Y-133684280D01*
X203064159Y-133693048D01*
X203075066Y-133702934D01*
X203084952Y-133713841D01*
X203093720Y-133725664D01*
X203101288Y-133738290D01*
X203107582Y-133751597D01*
X203112541Y-133765457D01*
X203116118Y-133779736D01*
X203118278Y-133794297D01*
X203119000Y-133809000D01*
X203119000Y-135809000D01*
X203118278Y-135823703D01*
X203116118Y-135838264D01*
X203112541Y-135852543D01*
X203107582Y-135866403D01*
X203101288Y-135879710D01*
X203093720Y-135892336D01*
X203084952Y-135904159D01*
X203075066Y-135915066D01*
X203064159Y-135924952D01*
X203052336Y-135933720D01*
X203039710Y-135941288D01*
X203026403Y-135947582D01*
X203012543Y-135952541D01*
X202998264Y-135956118D01*
X202983703Y-135958278D01*
X202969000Y-135959000D01*
X202669000Y-135959000D01*
X202654297Y-135958278D01*
X202639736Y-135956118D01*
X202625457Y-135952541D01*
X202611597Y-135947582D01*
X202598290Y-135941288D01*
X202585664Y-135933720D01*
X202573841Y-135924952D01*
X202562934Y-135915066D01*
X202553048Y-135904159D01*
X202544280Y-135892336D01*
X202536712Y-135879710D01*
X202530418Y-135866403D01*
X202525459Y-135852543D01*
X202521882Y-135838264D01*
X202519722Y-135823703D01*
X202519000Y-135809000D01*
X202519000Y-133809000D01*
X202519722Y-133794297D01*
X202521882Y-133779736D01*
X202525459Y-133765457D01*
X202530418Y-133751597D01*
X202536712Y-133738290D01*
X202544280Y-133725664D01*
X202553048Y-133713841D01*
X202562934Y-133702934D01*
X202573841Y-133693048D01*
X202585664Y-133684280D01*
X202598290Y-133676712D01*
X202611597Y-133670418D01*
X202625457Y-133665459D01*
X202639736Y-133661882D01*
X202654297Y-133659722D01*
X202669000Y-133659000D01*
X202969000Y-133659000D01*
X202983703Y-133659722D01*
G37*
G36*
X201713703Y-133659722D02*
G01*
X201728264Y-133661882D01*
X201742543Y-133665459D01*
X201756403Y-133670418D01*
X201769710Y-133676712D01*
X201782336Y-133684280D01*
X201794159Y-133693048D01*
X201805066Y-133702934D01*
X201814952Y-133713841D01*
X201823720Y-133725664D01*
X201831288Y-133738290D01*
X201837582Y-133751597D01*
X201842541Y-133765457D01*
X201846118Y-133779736D01*
X201848278Y-133794297D01*
X201849000Y-133809000D01*
X201849000Y-135809000D01*
X201848278Y-135823703D01*
X201846118Y-135838264D01*
X201842541Y-135852543D01*
X201837582Y-135866403D01*
X201831288Y-135879710D01*
X201823720Y-135892336D01*
X201814952Y-135904159D01*
X201805066Y-135915066D01*
X201794159Y-135924952D01*
X201782336Y-135933720D01*
X201769710Y-135941288D01*
X201756403Y-135947582D01*
X201742543Y-135952541D01*
X201728264Y-135956118D01*
X201713703Y-135958278D01*
X201699000Y-135959000D01*
X201399000Y-135959000D01*
X201384297Y-135958278D01*
X201369736Y-135956118D01*
X201355457Y-135952541D01*
X201341597Y-135947582D01*
X201328290Y-135941288D01*
X201315664Y-135933720D01*
X201303841Y-135924952D01*
X201292934Y-135915066D01*
X201283048Y-135904159D01*
X201274280Y-135892336D01*
X201266712Y-135879710D01*
X201260418Y-135866403D01*
X201255459Y-135852543D01*
X201251882Y-135838264D01*
X201249722Y-135823703D01*
X201249000Y-135809000D01*
X201249000Y-133809000D01*
X201249722Y-133794297D01*
X201251882Y-133779736D01*
X201255459Y-133765457D01*
X201260418Y-133751597D01*
X201266712Y-133738290D01*
X201274280Y-133725664D01*
X201283048Y-133713841D01*
X201292934Y-133702934D01*
X201303841Y-133693048D01*
X201315664Y-133684280D01*
X201328290Y-133676712D01*
X201341597Y-133670418D01*
X201355457Y-133665459D01*
X201369736Y-133661882D01*
X201384297Y-133659722D01*
X201399000Y-133659000D01*
X201699000Y-133659000D01*
X201713703Y-133659722D01*
G37*
G36*
X200443703Y-133659722D02*
G01*
X200458264Y-133661882D01*
X200472543Y-133665459D01*
X200486403Y-133670418D01*
X200499710Y-133676712D01*
X200512336Y-133684280D01*
X200524159Y-133693048D01*
X200535066Y-133702934D01*
X200544952Y-133713841D01*
X200553720Y-133725664D01*
X200561288Y-133738290D01*
X200567582Y-133751597D01*
X200572541Y-133765457D01*
X200576118Y-133779736D01*
X200578278Y-133794297D01*
X200579000Y-133809000D01*
X200579000Y-135809000D01*
X200578278Y-135823703D01*
X200576118Y-135838264D01*
X200572541Y-135852543D01*
X200567582Y-135866403D01*
X200561288Y-135879710D01*
X200553720Y-135892336D01*
X200544952Y-135904159D01*
X200535066Y-135915066D01*
X200524159Y-135924952D01*
X200512336Y-135933720D01*
X200499710Y-135941288D01*
X200486403Y-135947582D01*
X200472543Y-135952541D01*
X200458264Y-135956118D01*
X200443703Y-135958278D01*
X200429000Y-135959000D01*
X200129000Y-135959000D01*
X200114297Y-135958278D01*
X200099736Y-135956118D01*
X200085457Y-135952541D01*
X200071597Y-135947582D01*
X200058290Y-135941288D01*
X200045664Y-135933720D01*
X200033841Y-135924952D01*
X200022934Y-135915066D01*
X200013048Y-135904159D01*
X200004280Y-135892336D01*
X199996712Y-135879710D01*
X199990418Y-135866403D01*
X199985459Y-135852543D01*
X199981882Y-135838264D01*
X199979722Y-135823703D01*
X199979000Y-135809000D01*
X199979000Y-133809000D01*
X199979722Y-133794297D01*
X199981882Y-133779736D01*
X199985459Y-133765457D01*
X199990418Y-133751597D01*
X199996712Y-133738290D01*
X200004280Y-133725664D01*
X200013048Y-133713841D01*
X200022934Y-133702934D01*
X200033841Y-133693048D01*
X200045664Y-133684280D01*
X200058290Y-133676712D01*
X200071597Y-133670418D01*
X200085457Y-133665459D01*
X200099736Y-133661882D01*
X200114297Y-133659722D01*
X200129000Y-133659000D01*
X200429000Y-133659000D01*
X200443703Y-133659722D01*
G37*
G36*
X200443703Y-128709722D02*
G01*
X200458264Y-128711882D01*
X200472543Y-128715459D01*
X200486403Y-128720418D01*
X200499710Y-128726712D01*
X200512336Y-128734280D01*
X200524159Y-128743048D01*
X200535066Y-128752934D01*
X200544952Y-128763841D01*
X200553720Y-128775664D01*
X200561288Y-128788290D01*
X200567582Y-128801597D01*
X200572541Y-128815457D01*
X200576118Y-128829736D01*
X200578278Y-128844297D01*
X200579000Y-128859000D01*
X200579000Y-130859000D01*
X200578278Y-130873703D01*
X200576118Y-130888264D01*
X200572541Y-130902543D01*
X200567582Y-130916403D01*
X200561288Y-130929710D01*
X200553720Y-130942336D01*
X200544952Y-130954159D01*
X200535066Y-130965066D01*
X200524159Y-130974952D01*
X200512336Y-130983720D01*
X200499710Y-130991288D01*
X200486403Y-130997582D01*
X200472543Y-131002541D01*
X200458264Y-131006118D01*
X200443703Y-131008278D01*
X200429000Y-131009000D01*
X200129000Y-131009000D01*
X200114297Y-131008278D01*
X200099736Y-131006118D01*
X200085457Y-131002541D01*
X200071597Y-130997582D01*
X200058290Y-130991288D01*
X200045664Y-130983720D01*
X200033841Y-130974952D01*
X200022934Y-130965066D01*
X200013048Y-130954159D01*
X200004280Y-130942336D01*
X199996712Y-130929710D01*
X199990418Y-130916403D01*
X199985459Y-130902543D01*
X199981882Y-130888264D01*
X199979722Y-130873703D01*
X199979000Y-130859000D01*
X199979000Y-128859000D01*
X199979722Y-128844297D01*
X199981882Y-128829736D01*
X199985459Y-128815457D01*
X199990418Y-128801597D01*
X199996712Y-128788290D01*
X200004280Y-128775664D01*
X200013048Y-128763841D01*
X200022934Y-128752934D01*
X200033841Y-128743048D01*
X200045664Y-128734280D01*
X200058290Y-128726712D01*
X200071597Y-128720418D01*
X200085457Y-128715459D01*
X200099736Y-128711882D01*
X200114297Y-128709722D01*
X200129000Y-128709000D01*
X200429000Y-128709000D01*
X200443703Y-128709722D01*
G37*
G36*
X201713703Y-128709722D02*
G01*
X201728264Y-128711882D01*
X201742543Y-128715459D01*
X201756403Y-128720418D01*
X201769710Y-128726712D01*
X201782336Y-128734280D01*
X201794159Y-128743048D01*
X201805066Y-128752934D01*
X201814952Y-128763841D01*
X201823720Y-128775664D01*
X201831288Y-128788290D01*
X201837582Y-128801597D01*
X201842541Y-128815457D01*
X201846118Y-128829736D01*
X201848278Y-128844297D01*
X201849000Y-128859000D01*
X201849000Y-130859000D01*
X201848278Y-130873703D01*
X201846118Y-130888264D01*
X201842541Y-130902543D01*
X201837582Y-130916403D01*
X201831288Y-130929710D01*
X201823720Y-130942336D01*
X201814952Y-130954159D01*
X201805066Y-130965066D01*
X201794159Y-130974952D01*
X201782336Y-130983720D01*
X201769710Y-130991288D01*
X201756403Y-130997582D01*
X201742543Y-131002541D01*
X201728264Y-131006118D01*
X201713703Y-131008278D01*
X201699000Y-131009000D01*
X201399000Y-131009000D01*
X201384297Y-131008278D01*
X201369736Y-131006118D01*
X201355457Y-131002541D01*
X201341597Y-130997582D01*
X201328290Y-130991288D01*
X201315664Y-130983720D01*
X201303841Y-130974952D01*
X201292934Y-130965066D01*
X201283048Y-130954159D01*
X201274280Y-130942336D01*
X201266712Y-130929710D01*
X201260418Y-130916403D01*
X201255459Y-130902543D01*
X201251882Y-130888264D01*
X201249722Y-130873703D01*
X201249000Y-130859000D01*
X201249000Y-128859000D01*
X201249722Y-128844297D01*
X201251882Y-128829736D01*
X201255459Y-128815457D01*
X201260418Y-128801597D01*
X201266712Y-128788290D01*
X201274280Y-128775664D01*
X201283048Y-128763841D01*
X201292934Y-128752934D01*
X201303841Y-128743048D01*
X201315664Y-128734280D01*
X201328290Y-128726712D01*
X201341597Y-128720418D01*
X201355457Y-128715459D01*
X201369736Y-128711882D01*
X201384297Y-128709722D01*
X201399000Y-128709000D01*
X201699000Y-128709000D01*
X201713703Y-128709722D01*
G37*
G36*
X202983703Y-128709722D02*
G01*
X202998264Y-128711882D01*
X203012543Y-128715459D01*
X203026403Y-128720418D01*
X203039710Y-128726712D01*
X203052336Y-128734280D01*
X203064159Y-128743048D01*
X203075066Y-128752934D01*
X203084952Y-128763841D01*
X203093720Y-128775664D01*
X203101288Y-128788290D01*
X203107582Y-128801597D01*
X203112541Y-128815457D01*
X203116118Y-128829736D01*
X203118278Y-128844297D01*
X203119000Y-128859000D01*
X203119000Y-130859000D01*
X203118278Y-130873703D01*
X203116118Y-130888264D01*
X203112541Y-130902543D01*
X203107582Y-130916403D01*
X203101288Y-130929710D01*
X203093720Y-130942336D01*
X203084952Y-130954159D01*
X203075066Y-130965066D01*
X203064159Y-130974952D01*
X203052336Y-130983720D01*
X203039710Y-130991288D01*
X203026403Y-130997582D01*
X203012543Y-131002541D01*
X202998264Y-131006118D01*
X202983703Y-131008278D01*
X202969000Y-131009000D01*
X202669000Y-131009000D01*
X202654297Y-131008278D01*
X202639736Y-131006118D01*
X202625457Y-131002541D01*
X202611597Y-130997582D01*
X202598290Y-130991288D01*
X202585664Y-130983720D01*
X202573841Y-130974952D01*
X202562934Y-130965066D01*
X202553048Y-130954159D01*
X202544280Y-130942336D01*
X202536712Y-130929710D01*
X202530418Y-130916403D01*
X202525459Y-130902543D01*
X202521882Y-130888264D01*
X202519722Y-130873703D01*
X202519000Y-130859000D01*
X202519000Y-128859000D01*
X202519722Y-128844297D01*
X202521882Y-128829736D01*
X202525459Y-128815457D01*
X202530418Y-128801597D01*
X202536712Y-128788290D01*
X202544280Y-128775664D01*
X202553048Y-128763841D01*
X202562934Y-128752934D01*
X202573841Y-128743048D01*
X202585664Y-128734280D01*
X202598290Y-128726712D01*
X202611597Y-128720418D01*
X202625457Y-128715459D01*
X202639736Y-128711882D01*
X202654297Y-128709722D01*
X202669000Y-128709000D01*
X202969000Y-128709000D01*
X202983703Y-128709722D01*
G37*
G36*
X204253703Y-128709722D02*
G01*
X204268264Y-128711882D01*
X204282543Y-128715459D01*
X204296403Y-128720418D01*
X204309710Y-128726712D01*
X204322336Y-128734280D01*
X204334159Y-128743048D01*
X204345066Y-128752934D01*
X204354952Y-128763841D01*
X204363720Y-128775664D01*
X204371288Y-128788290D01*
X204377582Y-128801597D01*
X204382541Y-128815457D01*
X204386118Y-128829736D01*
X204388278Y-128844297D01*
X204389000Y-128859000D01*
X204389000Y-130859000D01*
X204388278Y-130873703D01*
X204386118Y-130888264D01*
X204382541Y-130902543D01*
X204377582Y-130916403D01*
X204371288Y-130929710D01*
X204363720Y-130942336D01*
X204354952Y-130954159D01*
X204345066Y-130965066D01*
X204334159Y-130974952D01*
X204322336Y-130983720D01*
X204309710Y-130991288D01*
X204296403Y-130997582D01*
X204282543Y-131002541D01*
X204268264Y-131006118D01*
X204253703Y-131008278D01*
X204239000Y-131009000D01*
X203939000Y-131009000D01*
X203924297Y-131008278D01*
X203909736Y-131006118D01*
X203895457Y-131002541D01*
X203881597Y-130997582D01*
X203868290Y-130991288D01*
X203855664Y-130983720D01*
X203843841Y-130974952D01*
X203832934Y-130965066D01*
X203823048Y-130954159D01*
X203814280Y-130942336D01*
X203806712Y-130929710D01*
X203800418Y-130916403D01*
X203795459Y-130902543D01*
X203791882Y-130888264D01*
X203789722Y-130873703D01*
X203789000Y-130859000D01*
X203789000Y-128859000D01*
X203789722Y-128844297D01*
X203791882Y-128829736D01*
X203795459Y-128815457D01*
X203800418Y-128801597D01*
X203806712Y-128788290D01*
X203814280Y-128775664D01*
X203823048Y-128763841D01*
X203832934Y-128752934D01*
X203843841Y-128743048D01*
X203855664Y-128734280D01*
X203868290Y-128726712D01*
X203881597Y-128720418D01*
X203895457Y-128715459D01*
X203909736Y-128711882D01*
X203924297Y-128709722D01*
X203939000Y-128709000D01*
X204239000Y-128709000D01*
X204253703Y-128709722D01*
G37*
G36*
X205523703Y-128709722D02*
G01*
X205538264Y-128711882D01*
X205552543Y-128715459D01*
X205566403Y-128720418D01*
X205579710Y-128726712D01*
X205592336Y-128734280D01*
X205604159Y-128743048D01*
X205615066Y-128752934D01*
X205624952Y-128763841D01*
X205633720Y-128775664D01*
X205641288Y-128788290D01*
X205647582Y-128801597D01*
X205652541Y-128815457D01*
X205656118Y-128829736D01*
X205658278Y-128844297D01*
X205659000Y-128859000D01*
X205659000Y-130859000D01*
X205658278Y-130873703D01*
X205656118Y-130888264D01*
X205652541Y-130902543D01*
X205647582Y-130916403D01*
X205641288Y-130929710D01*
X205633720Y-130942336D01*
X205624952Y-130954159D01*
X205615066Y-130965066D01*
X205604159Y-130974952D01*
X205592336Y-130983720D01*
X205579710Y-130991288D01*
X205566403Y-130997582D01*
X205552543Y-131002541D01*
X205538264Y-131006118D01*
X205523703Y-131008278D01*
X205509000Y-131009000D01*
X205209000Y-131009000D01*
X205194297Y-131008278D01*
X205179736Y-131006118D01*
X205165457Y-131002541D01*
X205151597Y-130997582D01*
X205138290Y-130991288D01*
X205125664Y-130983720D01*
X205113841Y-130974952D01*
X205102934Y-130965066D01*
X205093048Y-130954159D01*
X205084280Y-130942336D01*
X205076712Y-130929710D01*
X205070418Y-130916403D01*
X205065459Y-130902543D01*
X205061882Y-130888264D01*
X205059722Y-130873703D01*
X205059000Y-130859000D01*
X205059000Y-128859000D01*
X205059722Y-128844297D01*
X205061882Y-128829736D01*
X205065459Y-128815457D01*
X205070418Y-128801597D01*
X205076712Y-128788290D01*
X205084280Y-128775664D01*
X205093048Y-128763841D01*
X205102934Y-128752934D01*
X205113841Y-128743048D01*
X205125664Y-128734280D01*
X205138290Y-128726712D01*
X205151597Y-128720418D01*
X205165457Y-128715459D01*
X205179736Y-128711882D01*
X205194297Y-128709722D01*
X205209000Y-128709000D01*
X205509000Y-128709000D01*
X205523703Y-128709722D01*
G37*
G36*
X206793703Y-128709722D02*
G01*
X206808264Y-128711882D01*
X206822543Y-128715459D01*
X206836403Y-128720418D01*
X206849710Y-128726712D01*
X206862336Y-128734280D01*
X206874159Y-128743048D01*
X206885066Y-128752934D01*
X206894952Y-128763841D01*
X206903720Y-128775664D01*
X206911288Y-128788290D01*
X206917582Y-128801597D01*
X206922541Y-128815457D01*
X206926118Y-128829736D01*
X206928278Y-128844297D01*
X206929000Y-128859000D01*
X206929000Y-130859000D01*
X206928278Y-130873703D01*
X206926118Y-130888264D01*
X206922541Y-130902543D01*
X206917582Y-130916403D01*
X206911288Y-130929710D01*
X206903720Y-130942336D01*
X206894952Y-130954159D01*
X206885066Y-130965066D01*
X206874159Y-130974952D01*
X206862336Y-130983720D01*
X206849710Y-130991288D01*
X206836403Y-130997582D01*
X206822543Y-131002541D01*
X206808264Y-131006118D01*
X206793703Y-131008278D01*
X206779000Y-131009000D01*
X206479000Y-131009000D01*
X206464297Y-131008278D01*
X206449736Y-131006118D01*
X206435457Y-131002541D01*
X206421597Y-130997582D01*
X206408290Y-130991288D01*
X206395664Y-130983720D01*
X206383841Y-130974952D01*
X206372934Y-130965066D01*
X206363048Y-130954159D01*
X206354280Y-130942336D01*
X206346712Y-130929710D01*
X206340418Y-130916403D01*
X206335459Y-130902543D01*
X206331882Y-130888264D01*
X206329722Y-130873703D01*
X206329000Y-130859000D01*
X206329000Y-128859000D01*
X206329722Y-128844297D01*
X206331882Y-128829736D01*
X206335459Y-128815457D01*
X206340418Y-128801597D01*
X206346712Y-128788290D01*
X206354280Y-128775664D01*
X206363048Y-128763841D01*
X206372934Y-128752934D01*
X206383841Y-128743048D01*
X206395664Y-128734280D01*
X206408290Y-128726712D01*
X206421597Y-128720418D01*
X206435457Y-128715459D01*
X206449736Y-128711882D01*
X206464297Y-128709722D01*
X206479000Y-128709000D01*
X206779000Y-128709000D01*
X206793703Y-128709722D01*
G37*
D12*
X207899000Y-129859000D03*
D13*
X188038000Y-86995000D03*
D10*
G36*
X189102703Y-85425722D02*
G01*
X189117264Y-85427882D01*
X189131543Y-85431459D01*
X189145403Y-85436418D01*
X189158710Y-85442712D01*
X189171336Y-85450280D01*
X189183159Y-85459048D01*
X189194066Y-85468934D01*
X189203952Y-85479841D01*
X189212720Y-85491664D01*
X189220288Y-85504290D01*
X189226582Y-85517597D01*
X189231541Y-85531457D01*
X189235118Y-85545736D01*
X189237278Y-85560297D01*
X189238000Y-85575000D01*
X189238000Y-85875000D01*
X189237278Y-85889703D01*
X189235118Y-85904264D01*
X189231541Y-85918543D01*
X189226582Y-85932403D01*
X189220288Y-85945710D01*
X189212720Y-85958336D01*
X189203952Y-85970159D01*
X189194066Y-85981066D01*
X189183159Y-85990952D01*
X189171336Y-85999720D01*
X189158710Y-86007288D01*
X189145403Y-86013582D01*
X189131543Y-86018541D01*
X189117264Y-86022118D01*
X189102703Y-86024278D01*
X189088000Y-86025000D01*
X186988000Y-86025000D01*
X186973297Y-86024278D01*
X186958736Y-86022118D01*
X186944457Y-86018541D01*
X186930597Y-86013582D01*
X186917290Y-86007288D01*
X186904664Y-85999720D01*
X186892841Y-85990952D01*
X186881934Y-85981066D01*
X186872048Y-85970159D01*
X186863280Y-85958336D01*
X186855712Y-85945710D01*
X186849418Y-85932403D01*
X186844459Y-85918543D01*
X186840882Y-85904264D01*
X186838722Y-85889703D01*
X186838000Y-85875000D01*
X186838000Y-85575000D01*
X186838722Y-85560297D01*
X186840882Y-85545736D01*
X186844459Y-85531457D01*
X186849418Y-85517597D01*
X186855712Y-85504290D01*
X186863280Y-85491664D01*
X186872048Y-85479841D01*
X186881934Y-85468934D01*
X186892841Y-85459048D01*
X186904664Y-85450280D01*
X186917290Y-85442712D01*
X186930597Y-85436418D01*
X186944457Y-85431459D01*
X186958736Y-85427882D01*
X186973297Y-85425722D01*
X186988000Y-85425000D01*
X189088000Y-85425000D01*
X189102703Y-85425722D01*
G37*
G36*
X189102703Y-84155722D02*
G01*
X189117264Y-84157882D01*
X189131543Y-84161459D01*
X189145403Y-84166418D01*
X189158710Y-84172712D01*
X189171336Y-84180280D01*
X189183159Y-84189048D01*
X189194066Y-84198934D01*
X189203952Y-84209841D01*
X189212720Y-84221664D01*
X189220288Y-84234290D01*
X189226582Y-84247597D01*
X189231541Y-84261457D01*
X189235118Y-84275736D01*
X189237278Y-84290297D01*
X189238000Y-84305000D01*
X189238000Y-84605000D01*
X189237278Y-84619703D01*
X189235118Y-84634264D01*
X189231541Y-84648543D01*
X189226582Y-84662403D01*
X189220288Y-84675710D01*
X189212720Y-84688336D01*
X189203952Y-84700159D01*
X189194066Y-84711066D01*
X189183159Y-84720952D01*
X189171336Y-84729720D01*
X189158710Y-84737288D01*
X189145403Y-84743582D01*
X189131543Y-84748541D01*
X189117264Y-84752118D01*
X189102703Y-84754278D01*
X189088000Y-84755000D01*
X186988000Y-84755000D01*
X186973297Y-84754278D01*
X186958736Y-84752118D01*
X186944457Y-84748541D01*
X186930597Y-84743582D01*
X186917290Y-84737288D01*
X186904664Y-84729720D01*
X186892841Y-84720952D01*
X186881934Y-84711066D01*
X186872048Y-84700159D01*
X186863280Y-84688336D01*
X186855712Y-84675710D01*
X186849418Y-84662403D01*
X186844459Y-84648543D01*
X186840882Y-84634264D01*
X186838722Y-84619703D01*
X186838000Y-84605000D01*
X186838000Y-84305000D01*
X186838722Y-84290297D01*
X186840882Y-84275736D01*
X186844459Y-84261457D01*
X186849418Y-84247597D01*
X186855712Y-84234290D01*
X186863280Y-84221664D01*
X186872048Y-84209841D01*
X186881934Y-84198934D01*
X186892841Y-84189048D01*
X186904664Y-84180280D01*
X186917290Y-84172712D01*
X186930597Y-84166418D01*
X186944457Y-84161459D01*
X186958736Y-84157882D01*
X186973297Y-84155722D01*
X186988000Y-84155000D01*
X189088000Y-84155000D01*
X189102703Y-84155722D01*
G37*
G36*
X189102703Y-82885722D02*
G01*
X189117264Y-82887882D01*
X189131543Y-82891459D01*
X189145403Y-82896418D01*
X189158710Y-82902712D01*
X189171336Y-82910280D01*
X189183159Y-82919048D01*
X189194066Y-82928934D01*
X189203952Y-82939841D01*
X189212720Y-82951664D01*
X189220288Y-82964290D01*
X189226582Y-82977597D01*
X189231541Y-82991457D01*
X189235118Y-83005736D01*
X189237278Y-83020297D01*
X189238000Y-83035000D01*
X189238000Y-83335000D01*
X189237278Y-83349703D01*
X189235118Y-83364264D01*
X189231541Y-83378543D01*
X189226582Y-83392403D01*
X189220288Y-83405710D01*
X189212720Y-83418336D01*
X189203952Y-83430159D01*
X189194066Y-83441066D01*
X189183159Y-83450952D01*
X189171336Y-83459720D01*
X189158710Y-83467288D01*
X189145403Y-83473582D01*
X189131543Y-83478541D01*
X189117264Y-83482118D01*
X189102703Y-83484278D01*
X189088000Y-83485000D01*
X186988000Y-83485000D01*
X186973297Y-83484278D01*
X186958736Y-83482118D01*
X186944457Y-83478541D01*
X186930597Y-83473582D01*
X186917290Y-83467288D01*
X186904664Y-83459720D01*
X186892841Y-83450952D01*
X186881934Y-83441066D01*
X186872048Y-83430159D01*
X186863280Y-83418336D01*
X186855712Y-83405710D01*
X186849418Y-83392403D01*
X186844459Y-83378543D01*
X186840882Y-83364264D01*
X186838722Y-83349703D01*
X186838000Y-83335000D01*
X186838000Y-83035000D01*
X186838722Y-83020297D01*
X186840882Y-83005736D01*
X186844459Y-82991457D01*
X186849418Y-82977597D01*
X186855712Y-82964290D01*
X186863280Y-82951664D01*
X186872048Y-82939841D01*
X186881934Y-82928934D01*
X186892841Y-82919048D01*
X186904664Y-82910280D01*
X186917290Y-82902712D01*
X186930597Y-82896418D01*
X186944457Y-82891459D01*
X186958736Y-82887882D01*
X186973297Y-82885722D01*
X186988000Y-82885000D01*
X189088000Y-82885000D01*
X189102703Y-82885722D01*
G37*
G36*
X189102703Y-81615722D02*
G01*
X189117264Y-81617882D01*
X189131543Y-81621459D01*
X189145403Y-81626418D01*
X189158710Y-81632712D01*
X189171336Y-81640280D01*
X189183159Y-81649048D01*
X189194066Y-81658934D01*
X189203952Y-81669841D01*
X189212720Y-81681664D01*
X189220288Y-81694290D01*
X189226582Y-81707597D01*
X189231541Y-81721457D01*
X189235118Y-81735736D01*
X189237278Y-81750297D01*
X189238000Y-81765000D01*
X189238000Y-82065000D01*
X189237278Y-82079703D01*
X189235118Y-82094264D01*
X189231541Y-82108543D01*
X189226582Y-82122403D01*
X189220288Y-82135710D01*
X189212720Y-82148336D01*
X189203952Y-82160159D01*
X189194066Y-82171066D01*
X189183159Y-82180952D01*
X189171336Y-82189720D01*
X189158710Y-82197288D01*
X189145403Y-82203582D01*
X189131543Y-82208541D01*
X189117264Y-82212118D01*
X189102703Y-82214278D01*
X189088000Y-82215000D01*
X186988000Y-82215000D01*
X186973297Y-82214278D01*
X186958736Y-82212118D01*
X186944457Y-82208541D01*
X186930597Y-82203582D01*
X186917290Y-82197288D01*
X186904664Y-82189720D01*
X186892841Y-82180952D01*
X186881934Y-82171066D01*
X186872048Y-82160159D01*
X186863280Y-82148336D01*
X186855712Y-82135710D01*
X186849418Y-82122403D01*
X186844459Y-82108543D01*
X186840882Y-82094264D01*
X186838722Y-82079703D01*
X186838000Y-82065000D01*
X186838000Y-81765000D01*
X186838722Y-81750297D01*
X186840882Y-81735736D01*
X186844459Y-81721457D01*
X186849418Y-81707597D01*
X186855712Y-81694290D01*
X186863280Y-81681664D01*
X186872048Y-81669841D01*
X186881934Y-81658934D01*
X186892841Y-81649048D01*
X186904664Y-81640280D01*
X186917290Y-81632712D01*
X186930597Y-81626418D01*
X186944457Y-81621459D01*
X186958736Y-81617882D01*
X186973297Y-81615722D01*
X186988000Y-81615000D01*
X189088000Y-81615000D01*
X189102703Y-81615722D01*
G37*
G36*
X189102703Y-80345722D02*
G01*
X189117264Y-80347882D01*
X189131543Y-80351459D01*
X189145403Y-80356418D01*
X189158710Y-80362712D01*
X189171336Y-80370280D01*
X189183159Y-80379048D01*
X189194066Y-80388934D01*
X189203952Y-80399841D01*
X189212720Y-80411664D01*
X189220288Y-80424290D01*
X189226582Y-80437597D01*
X189231541Y-80451457D01*
X189235118Y-80465736D01*
X189237278Y-80480297D01*
X189238000Y-80495000D01*
X189238000Y-80795000D01*
X189237278Y-80809703D01*
X189235118Y-80824264D01*
X189231541Y-80838543D01*
X189226582Y-80852403D01*
X189220288Y-80865710D01*
X189212720Y-80878336D01*
X189203952Y-80890159D01*
X189194066Y-80901066D01*
X189183159Y-80910952D01*
X189171336Y-80919720D01*
X189158710Y-80927288D01*
X189145403Y-80933582D01*
X189131543Y-80938541D01*
X189117264Y-80942118D01*
X189102703Y-80944278D01*
X189088000Y-80945000D01*
X186988000Y-80945000D01*
X186973297Y-80944278D01*
X186958736Y-80942118D01*
X186944457Y-80938541D01*
X186930597Y-80933582D01*
X186917290Y-80927288D01*
X186904664Y-80919720D01*
X186892841Y-80910952D01*
X186881934Y-80901066D01*
X186872048Y-80890159D01*
X186863280Y-80878336D01*
X186855712Y-80865710D01*
X186849418Y-80852403D01*
X186844459Y-80838543D01*
X186840882Y-80824264D01*
X186838722Y-80809703D01*
X186838000Y-80795000D01*
X186838000Y-80495000D01*
X186838722Y-80480297D01*
X186840882Y-80465736D01*
X186844459Y-80451457D01*
X186849418Y-80437597D01*
X186855712Y-80424290D01*
X186863280Y-80411664D01*
X186872048Y-80399841D01*
X186881934Y-80388934D01*
X186892841Y-80379048D01*
X186904664Y-80370280D01*
X186917290Y-80362712D01*
X186930597Y-80356418D01*
X186944457Y-80351459D01*
X186958736Y-80347882D01*
X186973297Y-80345722D01*
X186988000Y-80345000D01*
X189088000Y-80345000D01*
X189102703Y-80345722D01*
G37*
G36*
X189102703Y-79075722D02*
G01*
X189117264Y-79077882D01*
X189131543Y-79081459D01*
X189145403Y-79086418D01*
X189158710Y-79092712D01*
X189171336Y-79100280D01*
X189183159Y-79109048D01*
X189194066Y-79118934D01*
X189203952Y-79129841D01*
X189212720Y-79141664D01*
X189220288Y-79154290D01*
X189226582Y-79167597D01*
X189231541Y-79181457D01*
X189235118Y-79195736D01*
X189237278Y-79210297D01*
X189238000Y-79225000D01*
X189238000Y-79525000D01*
X189237278Y-79539703D01*
X189235118Y-79554264D01*
X189231541Y-79568543D01*
X189226582Y-79582403D01*
X189220288Y-79595710D01*
X189212720Y-79608336D01*
X189203952Y-79620159D01*
X189194066Y-79631066D01*
X189183159Y-79640952D01*
X189171336Y-79649720D01*
X189158710Y-79657288D01*
X189145403Y-79663582D01*
X189131543Y-79668541D01*
X189117264Y-79672118D01*
X189102703Y-79674278D01*
X189088000Y-79675000D01*
X186988000Y-79675000D01*
X186973297Y-79674278D01*
X186958736Y-79672118D01*
X186944457Y-79668541D01*
X186930597Y-79663582D01*
X186917290Y-79657288D01*
X186904664Y-79649720D01*
X186892841Y-79640952D01*
X186881934Y-79631066D01*
X186872048Y-79620159D01*
X186863280Y-79608336D01*
X186855712Y-79595710D01*
X186849418Y-79582403D01*
X186844459Y-79568543D01*
X186840882Y-79554264D01*
X186838722Y-79539703D01*
X186838000Y-79525000D01*
X186838000Y-79225000D01*
X186838722Y-79210297D01*
X186840882Y-79195736D01*
X186844459Y-79181457D01*
X186849418Y-79167597D01*
X186855712Y-79154290D01*
X186863280Y-79141664D01*
X186872048Y-79129841D01*
X186881934Y-79118934D01*
X186892841Y-79109048D01*
X186904664Y-79100280D01*
X186917290Y-79092712D01*
X186930597Y-79086418D01*
X186944457Y-79081459D01*
X186958736Y-79077882D01*
X186973297Y-79075722D01*
X186988000Y-79075000D01*
X189088000Y-79075000D01*
X189102703Y-79075722D01*
G37*
G36*
X189102703Y-77805722D02*
G01*
X189117264Y-77807882D01*
X189131543Y-77811459D01*
X189145403Y-77816418D01*
X189158710Y-77822712D01*
X189171336Y-77830280D01*
X189183159Y-77839048D01*
X189194066Y-77848934D01*
X189203952Y-77859841D01*
X189212720Y-77871664D01*
X189220288Y-77884290D01*
X189226582Y-77897597D01*
X189231541Y-77911457D01*
X189235118Y-77925736D01*
X189237278Y-77940297D01*
X189238000Y-77955000D01*
X189238000Y-78255000D01*
X189237278Y-78269703D01*
X189235118Y-78284264D01*
X189231541Y-78298543D01*
X189226582Y-78312403D01*
X189220288Y-78325710D01*
X189212720Y-78338336D01*
X189203952Y-78350159D01*
X189194066Y-78361066D01*
X189183159Y-78370952D01*
X189171336Y-78379720D01*
X189158710Y-78387288D01*
X189145403Y-78393582D01*
X189131543Y-78398541D01*
X189117264Y-78402118D01*
X189102703Y-78404278D01*
X189088000Y-78405000D01*
X186988000Y-78405000D01*
X186973297Y-78404278D01*
X186958736Y-78402118D01*
X186944457Y-78398541D01*
X186930597Y-78393582D01*
X186917290Y-78387288D01*
X186904664Y-78379720D01*
X186892841Y-78370952D01*
X186881934Y-78361066D01*
X186872048Y-78350159D01*
X186863280Y-78338336D01*
X186855712Y-78325710D01*
X186849418Y-78312403D01*
X186844459Y-78298543D01*
X186840882Y-78284264D01*
X186838722Y-78269703D01*
X186838000Y-78255000D01*
X186838000Y-77955000D01*
X186838722Y-77940297D01*
X186840882Y-77925736D01*
X186844459Y-77911457D01*
X186849418Y-77897597D01*
X186855712Y-77884290D01*
X186863280Y-77871664D01*
X186872048Y-77859841D01*
X186881934Y-77848934D01*
X186892841Y-77839048D01*
X186904664Y-77830280D01*
X186917290Y-77822712D01*
X186930597Y-77816418D01*
X186944457Y-77811459D01*
X186958736Y-77807882D01*
X186973297Y-77805722D01*
X186988000Y-77805000D01*
X189088000Y-77805000D01*
X189102703Y-77805722D01*
G37*
G36*
X189102703Y-76535722D02*
G01*
X189117264Y-76537882D01*
X189131543Y-76541459D01*
X189145403Y-76546418D01*
X189158710Y-76552712D01*
X189171336Y-76560280D01*
X189183159Y-76569048D01*
X189194066Y-76578934D01*
X189203952Y-76589841D01*
X189212720Y-76601664D01*
X189220288Y-76614290D01*
X189226582Y-76627597D01*
X189231541Y-76641457D01*
X189235118Y-76655736D01*
X189237278Y-76670297D01*
X189238000Y-76685000D01*
X189238000Y-76985000D01*
X189237278Y-76999703D01*
X189235118Y-77014264D01*
X189231541Y-77028543D01*
X189226582Y-77042403D01*
X189220288Y-77055710D01*
X189212720Y-77068336D01*
X189203952Y-77080159D01*
X189194066Y-77091066D01*
X189183159Y-77100952D01*
X189171336Y-77109720D01*
X189158710Y-77117288D01*
X189145403Y-77123582D01*
X189131543Y-77128541D01*
X189117264Y-77132118D01*
X189102703Y-77134278D01*
X189088000Y-77135000D01*
X186988000Y-77135000D01*
X186973297Y-77134278D01*
X186958736Y-77132118D01*
X186944457Y-77128541D01*
X186930597Y-77123582D01*
X186917290Y-77117288D01*
X186904664Y-77109720D01*
X186892841Y-77100952D01*
X186881934Y-77091066D01*
X186872048Y-77080159D01*
X186863280Y-77068336D01*
X186855712Y-77055710D01*
X186849418Y-77042403D01*
X186844459Y-77028543D01*
X186840882Y-77014264D01*
X186838722Y-76999703D01*
X186838000Y-76985000D01*
X186838000Y-76685000D01*
X186838722Y-76670297D01*
X186840882Y-76655736D01*
X186844459Y-76641457D01*
X186849418Y-76627597D01*
X186855712Y-76614290D01*
X186863280Y-76601664D01*
X186872048Y-76589841D01*
X186881934Y-76578934D01*
X186892841Y-76569048D01*
X186904664Y-76560280D01*
X186917290Y-76552712D01*
X186930597Y-76546418D01*
X186944457Y-76541459D01*
X186958736Y-76537882D01*
X186973297Y-76535722D01*
X186988000Y-76535000D01*
X189088000Y-76535000D01*
X189102703Y-76535722D01*
G37*
G36*
X189102703Y-75265722D02*
G01*
X189117264Y-75267882D01*
X189131543Y-75271459D01*
X189145403Y-75276418D01*
X189158710Y-75282712D01*
X189171336Y-75290280D01*
X189183159Y-75299048D01*
X189194066Y-75308934D01*
X189203952Y-75319841D01*
X189212720Y-75331664D01*
X189220288Y-75344290D01*
X189226582Y-75357597D01*
X189231541Y-75371457D01*
X189235118Y-75385736D01*
X189237278Y-75400297D01*
X189238000Y-75415000D01*
X189238000Y-75715000D01*
X189237278Y-75729703D01*
X189235118Y-75744264D01*
X189231541Y-75758543D01*
X189226582Y-75772403D01*
X189220288Y-75785710D01*
X189212720Y-75798336D01*
X189203952Y-75810159D01*
X189194066Y-75821066D01*
X189183159Y-75830952D01*
X189171336Y-75839720D01*
X189158710Y-75847288D01*
X189145403Y-75853582D01*
X189131543Y-75858541D01*
X189117264Y-75862118D01*
X189102703Y-75864278D01*
X189088000Y-75865000D01*
X186988000Y-75865000D01*
X186973297Y-75864278D01*
X186958736Y-75862118D01*
X186944457Y-75858541D01*
X186930597Y-75853582D01*
X186917290Y-75847288D01*
X186904664Y-75839720D01*
X186892841Y-75830952D01*
X186881934Y-75821066D01*
X186872048Y-75810159D01*
X186863280Y-75798336D01*
X186855712Y-75785710D01*
X186849418Y-75772403D01*
X186844459Y-75758543D01*
X186840882Y-75744264D01*
X186838722Y-75729703D01*
X186838000Y-75715000D01*
X186838000Y-75415000D01*
X186838722Y-75400297D01*
X186840882Y-75385736D01*
X186844459Y-75371457D01*
X186849418Y-75357597D01*
X186855712Y-75344290D01*
X186863280Y-75331664D01*
X186872048Y-75319841D01*
X186881934Y-75308934D01*
X186892841Y-75299048D01*
X186904664Y-75290280D01*
X186917290Y-75282712D01*
X186930597Y-75276418D01*
X186944457Y-75271459D01*
X186958736Y-75267882D01*
X186973297Y-75265722D01*
X186988000Y-75265000D01*
X189088000Y-75265000D01*
X189102703Y-75265722D01*
G37*
G36*
X179802703Y-75265722D02*
G01*
X179817264Y-75267882D01*
X179831543Y-75271459D01*
X179845403Y-75276418D01*
X179858710Y-75282712D01*
X179871336Y-75290280D01*
X179883159Y-75299048D01*
X179894066Y-75308934D01*
X179903952Y-75319841D01*
X179912720Y-75331664D01*
X179920288Y-75344290D01*
X179926582Y-75357597D01*
X179931541Y-75371457D01*
X179935118Y-75385736D01*
X179937278Y-75400297D01*
X179938000Y-75415000D01*
X179938000Y-75715000D01*
X179937278Y-75729703D01*
X179935118Y-75744264D01*
X179931541Y-75758543D01*
X179926582Y-75772403D01*
X179920288Y-75785710D01*
X179912720Y-75798336D01*
X179903952Y-75810159D01*
X179894066Y-75821066D01*
X179883159Y-75830952D01*
X179871336Y-75839720D01*
X179858710Y-75847288D01*
X179845403Y-75853582D01*
X179831543Y-75858541D01*
X179817264Y-75862118D01*
X179802703Y-75864278D01*
X179788000Y-75865000D01*
X177688000Y-75865000D01*
X177673297Y-75864278D01*
X177658736Y-75862118D01*
X177644457Y-75858541D01*
X177630597Y-75853582D01*
X177617290Y-75847288D01*
X177604664Y-75839720D01*
X177592841Y-75830952D01*
X177581934Y-75821066D01*
X177572048Y-75810159D01*
X177563280Y-75798336D01*
X177555712Y-75785710D01*
X177549418Y-75772403D01*
X177544459Y-75758543D01*
X177540882Y-75744264D01*
X177538722Y-75729703D01*
X177538000Y-75715000D01*
X177538000Y-75415000D01*
X177538722Y-75400297D01*
X177540882Y-75385736D01*
X177544459Y-75371457D01*
X177549418Y-75357597D01*
X177555712Y-75344290D01*
X177563280Y-75331664D01*
X177572048Y-75319841D01*
X177581934Y-75308934D01*
X177592841Y-75299048D01*
X177604664Y-75290280D01*
X177617290Y-75282712D01*
X177630597Y-75276418D01*
X177644457Y-75271459D01*
X177658736Y-75267882D01*
X177673297Y-75265722D01*
X177688000Y-75265000D01*
X179788000Y-75265000D01*
X179802703Y-75265722D01*
G37*
G36*
X179802703Y-76535722D02*
G01*
X179817264Y-76537882D01*
X179831543Y-76541459D01*
X179845403Y-76546418D01*
X179858710Y-76552712D01*
X179871336Y-76560280D01*
X179883159Y-76569048D01*
X179894066Y-76578934D01*
X179903952Y-76589841D01*
X179912720Y-76601664D01*
X179920288Y-76614290D01*
X179926582Y-76627597D01*
X179931541Y-76641457D01*
X179935118Y-76655736D01*
X179937278Y-76670297D01*
X179938000Y-76685000D01*
X179938000Y-76985000D01*
X179937278Y-76999703D01*
X179935118Y-77014264D01*
X179931541Y-77028543D01*
X179926582Y-77042403D01*
X179920288Y-77055710D01*
X179912720Y-77068336D01*
X179903952Y-77080159D01*
X179894066Y-77091066D01*
X179883159Y-77100952D01*
X179871336Y-77109720D01*
X179858710Y-77117288D01*
X179845403Y-77123582D01*
X179831543Y-77128541D01*
X179817264Y-77132118D01*
X179802703Y-77134278D01*
X179788000Y-77135000D01*
X177688000Y-77135000D01*
X177673297Y-77134278D01*
X177658736Y-77132118D01*
X177644457Y-77128541D01*
X177630597Y-77123582D01*
X177617290Y-77117288D01*
X177604664Y-77109720D01*
X177592841Y-77100952D01*
X177581934Y-77091066D01*
X177572048Y-77080159D01*
X177563280Y-77068336D01*
X177555712Y-77055710D01*
X177549418Y-77042403D01*
X177544459Y-77028543D01*
X177540882Y-77014264D01*
X177538722Y-76999703D01*
X177538000Y-76985000D01*
X177538000Y-76685000D01*
X177538722Y-76670297D01*
X177540882Y-76655736D01*
X177544459Y-76641457D01*
X177549418Y-76627597D01*
X177555712Y-76614290D01*
X177563280Y-76601664D01*
X177572048Y-76589841D01*
X177581934Y-76578934D01*
X177592841Y-76569048D01*
X177604664Y-76560280D01*
X177617290Y-76552712D01*
X177630597Y-76546418D01*
X177644457Y-76541459D01*
X177658736Y-76537882D01*
X177673297Y-76535722D01*
X177688000Y-76535000D01*
X179788000Y-76535000D01*
X179802703Y-76535722D01*
G37*
G36*
X179802703Y-77805722D02*
G01*
X179817264Y-77807882D01*
X179831543Y-77811459D01*
X179845403Y-77816418D01*
X179858710Y-77822712D01*
X179871336Y-77830280D01*
X179883159Y-77839048D01*
X179894066Y-77848934D01*
X179903952Y-77859841D01*
X179912720Y-77871664D01*
X179920288Y-77884290D01*
X179926582Y-77897597D01*
X179931541Y-77911457D01*
X179935118Y-77925736D01*
X179937278Y-77940297D01*
X179938000Y-77955000D01*
X179938000Y-78255000D01*
X179937278Y-78269703D01*
X179935118Y-78284264D01*
X179931541Y-78298543D01*
X179926582Y-78312403D01*
X179920288Y-78325710D01*
X179912720Y-78338336D01*
X179903952Y-78350159D01*
X179894066Y-78361066D01*
X179883159Y-78370952D01*
X179871336Y-78379720D01*
X179858710Y-78387288D01*
X179845403Y-78393582D01*
X179831543Y-78398541D01*
X179817264Y-78402118D01*
X179802703Y-78404278D01*
X179788000Y-78405000D01*
X177688000Y-78405000D01*
X177673297Y-78404278D01*
X177658736Y-78402118D01*
X177644457Y-78398541D01*
X177630597Y-78393582D01*
X177617290Y-78387288D01*
X177604664Y-78379720D01*
X177592841Y-78370952D01*
X177581934Y-78361066D01*
X177572048Y-78350159D01*
X177563280Y-78338336D01*
X177555712Y-78325710D01*
X177549418Y-78312403D01*
X177544459Y-78298543D01*
X177540882Y-78284264D01*
X177538722Y-78269703D01*
X177538000Y-78255000D01*
X177538000Y-77955000D01*
X177538722Y-77940297D01*
X177540882Y-77925736D01*
X177544459Y-77911457D01*
X177549418Y-77897597D01*
X177555712Y-77884290D01*
X177563280Y-77871664D01*
X177572048Y-77859841D01*
X177581934Y-77848934D01*
X177592841Y-77839048D01*
X177604664Y-77830280D01*
X177617290Y-77822712D01*
X177630597Y-77816418D01*
X177644457Y-77811459D01*
X177658736Y-77807882D01*
X177673297Y-77805722D01*
X177688000Y-77805000D01*
X179788000Y-77805000D01*
X179802703Y-77805722D01*
G37*
G36*
X179802703Y-79075722D02*
G01*
X179817264Y-79077882D01*
X179831543Y-79081459D01*
X179845403Y-79086418D01*
X179858710Y-79092712D01*
X179871336Y-79100280D01*
X179883159Y-79109048D01*
X179894066Y-79118934D01*
X179903952Y-79129841D01*
X179912720Y-79141664D01*
X179920288Y-79154290D01*
X179926582Y-79167597D01*
X179931541Y-79181457D01*
X179935118Y-79195736D01*
X179937278Y-79210297D01*
X179938000Y-79225000D01*
X179938000Y-79525000D01*
X179937278Y-79539703D01*
X179935118Y-79554264D01*
X179931541Y-79568543D01*
X179926582Y-79582403D01*
X179920288Y-79595710D01*
X179912720Y-79608336D01*
X179903952Y-79620159D01*
X179894066Y-79631066D01*
X179883159Y-79640952D01*
X179871336Y-79649720D01*
X179858710Y-79657288D01*
X179845403Y-79663582D01*
X179831543Y-79668541D01*
X179817264Y-79672118D01*
X179802703Y-79674278D01*
X179788000Y-79675000D01*
X177688000Y-79675000D01*
X177673297Y-79674278D01*
X177658736Y-79672118D01*
X177644457Y-79668541D01*
X177630597Y-79663582D01*
X177617290Y-79657288D01*
X177604664Y-79649720D01*
X177592841Y-79640952D01*
X177581934Y-79631066D01*
X177572048Y-79620159D01*
X177563280Y-79608336D01*
X177555712Y-79595710D01*
X177549418Y-79582403D01*
X177544459Y-79568543D01*
X177540882Y-79554264D01*
X177538722Y-79539703D01*
X177538000Y-79525000D01*
X177538000Y-79225000D01*
X177538722Y-79210297D01*
X177540882Y-79195736D01*
X177544459Y-79181457D01*
X177549418Y-79167597D01*
X177555712Y-79154290D01*
X177563280Y-79141664D01*
X177572048Y-79129841D01*
X177581934Y-79118934D01*
X177592841Y-79109048D01*
X177604664Y-79100280D01*
X177617290Y-79092712D01*
X177630597Y-79086418D01*
X177644457Y-79081459D01*
X177658736Y-79077882D01*
X177673297Y-79075722D01*
X177688000Y-79075000D01*
X179788000Y-79075000D01*
X179802703Y-79075722D01*
G37*
G36*
X179802703Y-80345722D02*
G01*
X179817264Y-80347882D01*
X179831543Y-80351459D01*
X179845403Y-80356418D01*
X179858710Y-80362712D01*
X179871336Y-80370280D01*
X179883159Y-80379048D01*
X179894066Y-80388934D01*
X179903952Y-80399841D01*
X179912720Y-80411664D01*
X179920288Y-80424290D01*
X179926582Y-80437597D01*
X179931541Y-80451457D01*
X179935118Y-80465736D01*
X179937278Y-80480297D01*
X179938000Y-80495000D01*
X179938000Y-80795000D01*
X179937278Y-80809703D01*
X179935118Y-80824264D01*
X179931541Y-80838543D01*
X179926582Y-80852403D01*
X179920288Y-80865710D01*
X179912720Y-80878336D01*
X179903952Y-80890159D01*
X179894066Y-80901066D01*
X179883159Y-80910952D01*
X179871336Y-80919720D01*
X179858710Y-80927288D01*
X179845403Y-80933582D01*
X179831543Y-80938541D01*
X179817264Y-80942118D01*
X179802703Y-80944278D01*
X179788000Y-80945000D01*
X177688000Y-80945000D01*
X177673297Y-80944278D01*
X177658736Y-80942118D01*
X177644457Y-80938541D01*
X177630597Y-80933582D01*
X177617290Y-80927288D01*
X177604664Y-80919720D01*
X177592841Y-80910952D01*
X177581934Y-80901066D01*
X177572048Y-80890159D01*
X177563280Y-80878336D01*
X177555712Y-80865710D01*
X177549418Y-80852403D01*
X177544459Y-80838543D01*
X177540882Y-80824264D01*
X177538722Y-80809703D01*
X177538000Y-80795000D01*
X177538000Y-80495000D01*
X177538722Y-80480297D01*
X177540882Y-80465736D01*
X177544459Y-80451457D01*
X177549418Y-80437597D01*
X177555712Y-80424290D01*
X177563280Y-80411664D01*
X177572048Y-80399841D01*
X177581934Y-80388934D01*
X177592841Y-80379048D01*
X177604664Y-80370280D01*
X177617290Y-80362712D01*
X177630597Y-80356418D01*
X177644457Y-80351459D01*
X177658736Y-80347882D01*
X177673297Y-80345722D01*
X177688000Y-80345000D01*
X179788000Y-80345000D01*
X179802703Y-80345722D01*
G37*
G36*
X179802703Y-81615722D02*
G01*
X179817264Y-81617882D01*
X179831543Y-81621459D01*
X179845403Y-81626418D01*
X179858710Y-81632712D01*
X179871336Y-81640280D01*
X179883159Y-81649048D01*
X179894066Y-81658934D01*
X179903952Y-81669841D01*
X179912720Y-81681664D01*
X179920288Y-81694290D01*
X179926582Y-81707597D01*
X179931541Y-81721457D01*
X179935118Y-81735736D01*
X179937278Y-81750297D01*
X179938000Y-81765000D01*
X179938000Y-82065000D01*
X179937278Y-82079703D01*
X179935118Y-82094264D01*
X179931541Y-82108543D01*
X179926582Y-82122403D01*
X179920288Y-82135710D01*
X179912720Y-82148336D01*
X179903952Y-82160159D01*
X179894066Y-82171066D01*
X179883159Y-82180952D01*
X179871336Y-82189720D01*
X179858710Y-82197288D01*
X179845403Y-82203582D01*
X179831543Y-82208541D01*
X179817264Y-82212118D01*
X179802703Y-82214278D01*
X179788000Y-82215000D01*
X177688000Y-82215000D01*
X177673297Y-82214278D01*
X177658736Y-82212118D01*
X177644457Y-82208541D01*
X177630597Y-82203582D01*
X177617290Y-82197288D01*
X177604664Y-82189720D01*
X177592841Y-82180952D01*
X177581934Y-82171066D01*
X177572048Y-82160159D01*
X177563280Y-82148336D01*
X177555712Y-82135710D01*
X177549418Y-82122403D01*
X177544459Y-82108543D01*
X177540882Y-82094264D01*
X177538722Y-82079703D01*
X177538000Y-82065000D01*
X177538000Y-81765000D01*
X177538722Y-81750297D01*
X177540882Y-81735736D01*
X177544459Y-81721457D01*
X177549418Y-81707597D01*
X177555712Y-81694290D01*
X177563280Y-81681664D01*
X177572048Y-81669841D01*
X177581934Y-81658934D01*
X177592841Y-81649048D01*
X177604664Y-81640280D01*
X177617290Y-81632712D01*
X177630597Y-81626418D01*
X177644457Y-81621459D01*
X177658736Y-81617882D01*
X177673297Y-81615722D01*
X177688000Y-81615000D01*
X179788000Y-81615000D01*
X179802703Y-81615722D01*
G37*
G36*
X179802703Y-82885722D02*
G01*
X179817264Y-82887882D01*
X179831543Y-82891459D01*
X179845403Y-82896418D01*
X179858710Y-82902712D01*
X179871336Y-82910280D01*
X179883159Y-82919048D01*
X179894066Y-82928934D01*
X179903952Y-82939841D01*
X179912720Y-82951664D01*
X179920288Y-82964290D01*
X179926582Y-82977597D01*
X179931541Y-82991457D01*
X179935118Y-83005736D01*
X179937278Y-83020297D01*
X179938000Y-83035000D01*
X179938000Y-83335000D01*
X179937278Y-83349703D01*
X179935118Y-83364264D01*
X179931541Y-83378543D01*
X179926582Y-83392403D01*
X179920288Y-83405710D01*
X179912720Y-83418336D01*
X179903952Y-83430159D01*
X179894066Y-83441066D01*
X179883159Y-83450952D01*
X179871336Y-83459720D01*
X179858710Y-83467288D01*
X179845403Y-83473582D01*
X179831543Y-83478541D01*
X179817264Y-83482118D01*
X179802703Y-83484278D01*
X179788000Y-83485000D01*
X177688000Y-83485000D01*
X177673297Y-83484278D01*
X177658736Y-83482118D01*
X177644457Y-83478541D01*
X177630597Y-83473582D01*
X177617290Y-83467288D01*
X177604664Y-83459720D01*
X177592841Y-83450952D01*
X177581934Y-83441066D01*
X177572048Y-83430159D01*
X177563280Y-83418336D01*
X177555712Y-83405710D01*
X177549418Y-83392403D01*
X177544459Y-83378543D01*
X177540882Y-83364264D01*
X177538722Y-83349703D01*
X177538000Y-83335000D01*
X177538000Y-83035000D01*
X177538722Y-83020297D01*
X177540882Y-83005736D01*
X177544459Y-82991457D01*
X177549418Y-82977597D01*
X177555712Y-82964290D01*
X177563280Y-82951664D01*
X177572048Y-82939841D01*
X177581934Y-82928934D01*
X177592841Y-82919048D01*
X177604664Y-82910280D01*
X177617290Y-82902712D01*
X177630597Y-82896418D01*
X177644457Y-82891459D01*
X177658736Y-82887882D01*
X177673297Y-82885722D01*
X177688000Y-82885000D01*
X179788000Y-82885000D01*
X179802703Y-82885722D01*
G37*
G36*
X179802703Y-84155722D02*
G01*
X179817264Y-84157882D01*
X179831543Y-84161459D01*
X179845403Y-84166418D01*
X179858710Y-84172712D01*
X179871336Y-84180280D01*
X179883159Y-84189048D01*
X179894066Y-84198934D01*
X179903952Y-84209841D01*
X179912720Y-84221664D01*
X179920288Y-84234290D01*
X179926582Y-84247597D01*
X179931541Y-84261457D01*
X179935118Y-84275736D01*
X179937278Y-84290297D01*
X179938000Y-84305000D01*
X179938000Y-84605000D01*
X179937278Y-84619703D01*
X179935118Y-84634264D01*
X179931541Y-84648543D01*
X179926582Y-84662403D01*
X179920288Y-84675710D01*
X179912720Y-84688336D01*
X179903952Y-84700159D01*
X179894066Y-84711066D01*
X179883159Y-84720952D01*
X179871336Y-84729720D01*
X179858710Y-84737288D01*
X179845403Y-84743582D01*
X179831543Y-84748541D01*
X179817264Y-84752118D01*
X179802703Y-84754278D01*
X179788000Y-84755000D01*
X177688000Y-84755000D01*
X177673297Y-84754278D01*
X177658736Y-84752118D01*
X177644457Y-84748541D01*
X177630597Y-84743582D01*
X177617290Y-84737288D01*
X177604664Y-84729720D01*
X177592841Y-84720952D01*
X177581934Y-84711066D01*
X177572048Y-84700159D01*
X177563280Y-84688336D01*
X177555712Y-84675710D01*
X177549418Y-84662403D01*
X177544459Y-84648543D01*
X177540882Y-84634264D01*
X177538722Y-84619703D01*
X177538000Y-84605000D01*
X177538000Y-84305000D01*
X177538722Y-84290297D01*
X177540882Y-84275736D01*
X177544459Y-84261457D01*
X177549418Y-84247597D01*
X177555712Y-84234290D01*
X177563280Y-84221664D01*
X177572048Y-84209841D01*
X177581934Y-84198934D01*
X177592841Y-84189048D01*
X177604664Y-84180280D01*
X177617290Y-84172712D01*
X177630597Y-84166418D01*
X177644457Y-84161459D01*
X177658736Y-84157882D01*
X177673297Y-84155722D01*
X177688000Y-84155000D01*
X179788000Y-84155000D01*
X179802703Y-84155722D01*
G37*
G36*
X179802703Y-85425722D02*
G01*
X179817264Y-85427882D01*
X179831543Y-85431459D01*
X179845403Y-85436418D01*
X179858710Y-85442712D01*
X179871336Y-85450280D01*
X179883159Y-85459048D01*
X179894066Y-85468934D01*
X179903952Y-85479841D01*
X179912720Y-85491664D01*
X179920288Y-85504290D01*
X179926582Y-85517597D01*
X179931541Y-85531457D01*
X179935118Y-85545736D01*
X179937278Y-85560297D01*
X179938000Y-85575000D01*
X179938000Y-85875000D01*
X179937278Y-85889703D01*
X179935118Y-85904264D01*
X179931541Y-85918543D01*
X179926582Y-85932403D01*
X179920288Y-85945710D01*
X179912720Y-85958336D01*
X179903952Y-85970159D01*
X179894066Y-85981066D01*
X179883159Y-85990952D01*
X179871336Y-85999720D01*
X179858710Y-86007288D01*
X179845403Y-86013582D01*
X179831543Y-86018541D01*
X179817264Y-86022118D01*
X179802703Y-86024278D01*
X179788000Y-86025000D01*
X177688000Y-86025000D01*
X177673297Y-86024278D01*
X177658736Y-86022118D01*
X177644457Y-86018541D01*
X177630597Y-86013582D01*
X177617290Y-86007288D01*
X177604664Y-85999720D01*
X177592841Y-85990952D01*
X177581934Y-85981066D01*
X177572048Y-85970159D01*
X177563280Y-85958336D01*
X177555712Y-85945710D01*
X177549418Y-85932403D01*
X177544459Y-85918543D01*
X177540882Y-85904264D01*
X177538722Y-85889703D01*
X177538000Y-85875000D01*
X177538000Y-85575000D01*
X177538722Y-85560297D01*
X177540882Y-85545736D01*
X177544459Y-85531457D01*
X177549418Y-85517597D01*
X177555712Y-85504290D01*
X177563280Y-85491664D01*
X177572048Y-85479841D01*
X177581934Y-85468934D01*
X177592841Y-85459048D01*
X177604664Y-85450280D01*
X177617290Y-85442712D01*
X177630597Y-85436418D01*
X177644457Y-85431459D01*
X177658736Y-85427882D01*
X177673297Y-85425722D01*
X177688000Y-85425000D01*
X179788000Y-85425000D01*
X179802703Y-85425722D01*
G37*
G36*
X179802703Y-86695722D02*
G01*
X179817264Y-86697882D01*
X179831543Y-86701459D01*
X179845403Y-86706418D01*
X179858710Y-86712712D01*
X179871336Y-86720280D01*
X179883159Y-86729048D01*
X179894066Y-86738934D01*
X179903952Y-86749841D01*
X179912720Y-86761664D01*
X179920288Y-86774290D01*
X179926582Y-86787597D01*
X179931541Y-86801457D01*
X179935118Y-86815736D01*
X179937278Y-86830297D01*
X179938000Y-86845000D01*
X179938000Y-87145000D01*
X179937278Y-87159703D01*
X179935118Y-87174264D01*
X179931541Y-87188543D01*
X179926582Y-87202403D01*
X179920288Y-87215710D01*
X179912720Y-87228336D01*
X179903952Y-87240159D01*
X179894066Y-87251066D01*
X179883159Y-87260952D01*
X179871336Y-87269720D01*
X179858710Y-87277288D01*
X179845403Y-87283582D01*
X179831543Y-87288541D01*
X179817264Y-87292118D01*
X179802703Y-87294278D01*
X179788000Y-87295000D01*
X177688000Y-87295000D01*
X177673297Y-87294278D01*
X177658736Y-87292118D01*
X177644457Y-87288541D01*
X177630597Y-87283582D01*
X177617290Y-87277288D01*
X177604664Y-87269720D01*
X177592841Y-87260952D01*
X177581934Y-87251066D01*
X177572048Y-87240159D01*
X177563280Y-87228336D01*
X177555712Y-87215710D01*
X177549418Y-87202403D01*
X177544459Y-87188543D01*
X177540882Y-87174264D01*
X177538722Y-87159703D01*
X177538000Y-87145000D01*
X177538000Y-86845000D01*
X177538722Y-86830297D01*
X177540882Y-86815736D01*
X177544459Y-86801457D01*
X177549418Y-86787597D01*
X177555712Y-86774290D01*
X177563280Y-86761664D01*
X177572048Y-86749841D01*
X177581934Y-86738934D01*
X177592841Y-86729048D01*
X177604664Y-86720280D01*
X177617290Y-86712712D01*
X177630597Y-86706418D01*
X177644457Y-86701459D01*
X177658736Y-86697882D01*
X177673297Y-86695722D01*
X177688000Y-86695000D01*
X179788000Y-86695000D01*
X179802703Y-86695722D01*
G37*
G36*
X179802703Y-108539722D02*
G01*
X179817264Y-108541882D01*
X179831543Y-108545459D01*
X179845403Y-108550418D01*
X179858710Y-108556712D01*
X179871336Y-108564280D01*
X179883159Y-108573048D01*
X179894066Y-108582934D01*
X179903952Y-108593841D01*
X179912720Y-108605664D01*
X179920288Y-108618290D01*
X179926582Y-108631597D01*
X179931541Y-108645457D01*
X179935118Y-108659736D01*
X179937278Y-108674297D01*
X179938000Y-108689000D01*
X179938000Y-108989000D01*
X179937278Y-109003703D01*
X179935118Y-109018264D01*
X179931541Y-109032543D01*
X179926582Y-109046403D01*
X179920288Y-109059710D01*
X179912720Y-109072336D01*
X179903952Y-109084159D01*
X179894066Y-109095066D01*
X179883159Y-109104952D01*
X179871336Y-109113720D01*
X179858710Y-109121288D01*
X179845403Y-109127582D01*
X179831543Y-109132541D01*
X179817264Y-109136118D01*
X179802703Y-109138278D01*
X179788000Y-109139000D01*
X177688000Y-109139000D01*
X177673297Y-109138278D01*
X177658736Y-109136118D01*
X177644457Y-109132541D01*
X177630597Y-109127582D01*
X177617290Y-109121288D01*
X177604664Y-109113720D01*
X177592841Y-109104952D01*
X177581934Y-109095066D01*
X177572048Y-109084159D01*
X177563280Y-109072336D01*
X177555712Y-109059710D01*
X177549418Y-109046403D01*
X177544459Y-109032543D01*
X177540882Y-109018264D01*
X177538722Y-109003703D01*
X177538000Y-108989000D01*
X177538000Y-108689000D01*
X177538722Y-108674297D01*
X177540882Y-108659736D01*
X177544459Y-108645457D01*
X177549418Y-108631597D01*
X177555712Y-108618290D01*
X177563280Y-108605664D01*
X177572048Y-108593841D01*
X177581934Y-108582934D01*
X177592841Y-108573048D01*
X177604664Y-108564280D01*
X177617290Y-108556712D01*
X177630597Y-108550418D01*
X177644457Y-108545459D01*
X177658736Y-108541882D01*
X177673297Y-108539722D01*
X177688000Y-108539000D01*
X179788000Y-108539000D01*
X179802703Y-108539722D01*
G37*
G36*
X179802703Y-107269722D02*
G01*
X179817264Y-107271882D01*
X179831543Y-107275459D01*
X179845403Y-107280418D01*
X179858710Y-107286712D01*
X179871336Y-107294280D01*
X179883159Y-107303048D01*
X179894066Y-107312934D01*
X179903952Y-107323841D01*
X179912720Y-107335664D01*
X179920288Y-107348290D01*
X179926582Y-107361597D01*
X179931541Y-107375457D01*
X179935118Y-107389736D01*
X179937278Y-107404297D01*
X179938000Y-107419000D01*
X179938000Y-107719000D01*
X179937278Y-107733703D01*
X179935118Y-107748264D01*
X179931541Y-107762543D01*
X179926582Y-107776403D01*
X179920288Y-107789710D01*
X179912720Y-107802336D01*
X179903952Y-107814159D01*
X179894066Y-107825066D01*
X179883159Y-107834952D01*
X179871336Y-107843720D01*
X179858710Y-107851288D01*
X179845403Y-107857582D01*
X179831543Y-107862541D01*
X179817264Y-107866118D01*
X179802703Y-107868278D01*
X179788000Y-107869000D01*
X177688000Y-107869000D01*
X177673297Y-107868278D01*
X177658736Y-107866118D01*
X177644457Y-107862541D01*
X177630597Y-107857582D01*
X177617290Y-107851288D01*
X177604664Y-107843720D01*
X177592841Y-107834952D01*
X177581934Y-107825066D01*
X177572048Y-107814159D01*
X177563280Y-107802336D01*
X177555712Y-107789710D01*
X177549418Y-107776403D01*
X177544459Y-107762543D01*
X177540882Y-107748264D01*
X177538722Y-107733703D01*
X177538000Y-107719000D01*
X177538000Y-107419000D01*
X177538722Y-107404297D01*
X177540882Y-107389736D01*
X177544459Y-107375457D01*
X177549418Y-107361597D01*
X177555712Y-107348290D01*
X177563280Y-107335664D01*
X177572048Y-107323841D01*
X177581934Y-107312934D01*
X177592841Y-107303048D01*
X177604664Y-107294280D01*
X177617290Y-107286712D01*
X177630597Y-107280418D01*
X177644457Y-107275459D01*
X177658736Y-107271882D01*
X177673297Y-107269722D01*
X177688000Y-107269000D01*
X179788000Y-107269000D01*
X179802703Y-107269722D01*
G37*
G36*
X179802703Y-105999722D02*
G01*
X179817264Y-106001882D01*
X179831543Y-106005459D01*
X179845403Y-106010418D01*
X179858710Y-106016712D01*
X179871336Y-106024280D01*
X179883159Y-106033048D01*
X179894066Y-106042934D01*
X179903952Y-106053841D01*
X179912720Y-106065664D01*
X179920288Y-106078290D01*
X179926582Y-106091597D01*
X179931541Y-106105457D01*
X179935118Y-106119736D01*
X179937278Y-106134297D01*
X179938000Y-106149000D01*
X179938000Y-106449000D01*
X179937278Y-106463703D01*
X179935118Y-106478264D01*
X179931541Y-106492543D01*
X179926582Y-106506403D01*
X179920288Y-106519710D01*
X179912720Y-106532336D01*
X179903952Y-106544159D01*
X179894066Y-106555066D01*
X179883159Y-106564952D01*
X179871336Y-106573720D01*
X179858710Y-106581288D01*
X179845403Y-106587582D01*
X179831543Y-106592541D01*
X179817264Y-106596118D01*
X179802703Y-106598278D01*
X179788000Y-106599000D01*
X177688000Y-106599000D01*
X177673297Y-106598278D01*
X177658736Y-106596118D01*
X177644457Y-106592541D01*
X177630597Y-106587582D01*
X177617290Y-106581288D01*
X177604664Y-106573720D01*
X177592841Y-106564952D01*
X177581934Y-106555066D01*
X177572048Y-106544159D01*
X177563280Y-106532336D01*
X177555712Y-106519710D01*
X177549418Y-106506403D01*
X177544459Y-106492543D01*
X177540882Y-106478264D01*
X177538722Y-106463703D01*
X177538000Y-106449000D01*
X177538000Y-106149000D01*
X177538722Y-106134297D01*
X177540882Y-106119736D01*
X177544459Y-106105457D01*
X177549418Y-106091597D01*
X177555712Y-106078290D01*
X177563280Y-106065664D01*
X177572048Y-106053841D01*
X177581934Y-106042934D01*
X177592841Y-106033048D01*
X177604664Y-106024280D01*
X177617290Y-106016712D01*
X177630597Y-106010418D01*
X177644457Y-106005459D01*
X177658736Y-106001882D01*
X177673297Y-105999722D01*
X177688000Y-105999000D01*
X179788000Y-105999000D01*
X179802703Y-105999722D01*
G37*
G36*
X179802703Y-104729722D02*
G01*
X179817264Y-104731882D01*
X179831543Y-104735459D01*
X179845403Y-104740418D01*
X179858710Y-104746712D01*
X179871336Y-104754280D01*
X179883159Y-104763048D01*
X179894066Y-104772934D01*
X179903952Y-104783841D01*
X179912720Y-104795664D01*
X179920288Y-104808290D01*
X179926582Y-104821597D01*
X179931541Y-104835457D01*
X179935118Y-104849736D01*
X179937278Y-104864297D01*
X179938000Y-104879000D01*
X179938000Y-105179000D01*
X179937278Y-105193703D01*
X179935118Y-105208264D01*
X179931541Y-105222543D01*
X179926582Y-105236403D01*
X179920288Y-105249710D01*
X179912720Y-105262336D01*
X179903952Y-105274159D01*
X179894066Y-105285066D01*
X179883159Y-105294952D01*
X179871336Y-105303720D01*
X179858710Y-105311288D01*
X179845403Y-105317582D01*
X179831543Y-105322541D01*
X179817264Y-105326118D01*
X179802703Y-105328278D01*
X179788000Y-105329000D01*
X177688000Y-105329000D01*
X177673297Y-105328278D01*
X177658736Y-105326118D01*
X177644457Y-105322541D01*
X177630597Y-105317582D01*
X177617290Y-105311288D01*
X177604664Y-105303720D01*
X177592841Y-105294952D01*
X177581934Y-105285066D01*
X177572048Y-105274159D01*
X177563280Y-105262336D01*
X177555712Y-105249710D01*
X177549418Y-105236403D01*
X177544459Y-105222543D01*
X177540882Y-105208264D01*
X177538722Y-105193703D01*
X177538000Y-105179000D01*
X177538000Y-104879000D01*
X177538722Y-104864297D01*
X177540882Y-104849736D01*
X177544459Y-104835457D01*
X177549418Y-104821597D01*
X177555712Y-104808290D01*
X177563280Y-104795664D01*
X177572048Y-104783841D01*
X177581934Y-104772934D01*
X177592841Y-104763048D01*
X177604664Y-104754280D01*
X177617290Y-104746712D01*
X177630597Y-104740418D01*
X177644457Y-104735459D01*
X177658736Y-104731882D01*
X177673297Y-104729722D01*
X177688000Y-104729000D01*
X179788000Y-104729000D01*
X179802703Y-104729722D01*
G37*
G36*
X179802703Y-103459722D02*
G01*
X179817264Y-103461882D01*
X179831543Y-103465459D01*
X179845403Y-103470418D01*
X179858710Y-103476712D01*
X179871336Y-103484280D01*
X179883159Y-103493048D01*
X179894066Y-103502934D01*
X179903952Y-103513841D01*
X179912720Y-103525664D01*
X179920288Y-103538290D01*
X179926582Y-103551597D01*
X179931541Y-103565457D01*
X179935118Y-103579736D01*
X179937278Y-103594297D01*
X179938000Y-103609000D01*
X179938000Y-103909000D01*
X179937278Y-103923703D01*
X179935118Y-103938264D01*
X179931541Y-103952543D01*
X179926582Y-103966403D01*
X179920288Y-103979710D01*
X179912720Y-103992336D01*
X179903952Y-104004159D01*
X179894066Y-104015066D01*
X179883159Y-104024952D01*
X179871336Y-104033720D01*
X179858710Y-104041288D01*
X179845403Y-104047582D01*
X179831543Y-104052541D01*
X179817264Y-104056118D01*
X179802703Y-104058278D01*
X179788000Y-104059000D01*
X177688000Y-104059000D01*
X177673297Y-104058278D01*
X177658736Y-104056118D01*
X177644457Y-104052541D01*
X177630597Y-104047582D01*
X177617290Y-104041288D01*
X177604664Y-104033720D01*
X177592841Y-104024952D01*
X177581934Y-104015066D01*
X177572048Y-104004159D01*
X177563280Y-103992336D01*
X177555712Y-103979710D01*
X177549418Y-103966403D01*
X177544459Y-103952543D01*
X177540882Y-103938264D01*
X177538722Y-103923703D01*
X177538000Y-103909000D01*
X177538000Y-103609000D01*
X177538722Y-103594297D01*
X177540882Y-103579736D01*
X177544459Y-103565457D01*
X177549418Y-103551597D01*
X177555712Y-103538290D01*
X177563280Y-103525664D01*
X177572048Y-103513841D01*
X177581934Y-103502934D01*
X177592841Y-103493048D01*
X177604664Y-103484280D01*
X177617290Y-103476712D01*
X177630597Y-103470418D01*
X177644457Y-103465459D01*
X177658736Y-103461882D01*
X177673297Y-103459722D01*
X177688000Y-103459000D01*
X179788000Y-103459000D01*
X179802703Y-103459722D01*
G37*
G36*
X179802703Y-102189722D02*
G01*
X179817264Y-102191882D01*
X179831543Y-102195459D01*
X179845403Y-102200418D01*
X179858710Y-102206712D01*
X179871336Y-102214280D01*
X179883159Y-102223048D01*
X179894066Y-102232934D01*
X179903952Y-102243841D01*
X179912720Y-102255664D01*
X179920288Y-102268290D01*
X179926582Y-102281597D01*
X179931541Y-102295457D01*
X179935118Y-102309736D01*
X179937278Y-102324297D01*
X179938000Y-102339000D01*
X179938000Y-102639000D01*
X179937278Y-102653703D01*
X179935118Y-102668264D01*
X179931541Y-102682543D01*
X179926582Y-102696403D01*
X179920288Y-102709710D01*
X179912720Y-102722336D01*
X179903952Y-102734159D01*
X179894066Y-102745066D01*
X179883159Y-102754952D01*
X179871336Y-102763720D01*
X179858710Y-102771288D01*
X179845403Y-102777582D01*
X179831543Y-102782541D01*
X179817264Y-102786118D01*
X179802703Y-102788278D01*
X179788000Y-102789000D01*
X177688000Y-102789000D01*
X177673297Y-102788278D01*
X177658736Y-102786118D01*
X177644457Y-102782541D01*
X177630597Y-102777582D01*
X177617290Y-102771288D01*
X177604664Y-102763720D01*
X177592841Y-102754952D01*
X177581934Y-102745066D01*
X177572048Y-102734159D01*
X177563280Y-102722336D01*
X177555712Y-102709710D01*
X177549418Y-102696403D01*
X177544459Y-102682543D01*
X177540882Y-102668264D01*
X177538722Y-102653703D01*
X177538000Y-102639000D01*
X177538000Y-102339000D01*
X177538722Y-102324297D01*
X177540882Y-102309736D01*
X177544459Y-102295457D01*
X177549418Y-102281597D01*
X177555712Y-102268290D01*
X177563280Y-102255664D01*
X177572048Y-102243841D01*
X177581934Y-102232934D01*
X177592841Y-102223048D01*
X177604664Y-102214280D01*
X177617290Y-102206712D01*
X177630597Y-102200418D01*
X177644457Y-102195459D01*
X177658736Y-102191882D01*
X177673297Y-102189722D01*
X177688000Y-102189000D01*
X179788000Y-102189000D01*
X179802703Y-102189722D01*
G37*
G36*
X179802703Y-100919722D02*
G01*
X179817264Y-100921882D01*
X179831543Y-100925459D01*
X179845403Y-100930418D01*
X179858710Y-100936712D01*
X179871336Y-100944280D01*
X179883159Y-100953048D01*
X179894066Y-100962934D01*
X179903952Y-100973841D01*
X179912720Y-100985664D01*
X179920288Y-100998290D01*
X179926582Y-101011597D01*
X179931541Y-101025457D01*
X179935118Y-101039736D01*
X179937278Y-101054297D01*
X179938000Y-101069000D01*
X179938000Y-101369000D01*
X179937278Y-101383703D01*
X179935118Y-101398264D01*
X179931541Y-101412543D01*
X179926582Y-101426403D01*
X179920288Y-101439710D01*
X179912720Y-101452336D01*
X179903952Y-101464159D01*
X179894066Y-101475066D01*
X179883159Y-101484952D01*
X179871336Y-101493720D01*
X179858710Y-101501288D01*
X179845403Y-101507582D01*
X179831543Y-101512541D01*
X179817264Y-101516118D01*
X179802703Y-101518278D01*
X179788000Y-101519000D01*
X177688000Y-101519000D01*
X177673297Y-101518278D01*
X177658736Y-101516118D01*
X177644457Y-101512541D01*
X177630597Y-101507582D01*
X177617290Y-101501288D01*
X177604664Y-101493720D01*
X177592841Y-101484952D01*
X177581934Y-101475066D01*
X177572048Y-101464159D01*
X177563280Y-101452336D01*
X177555712Y-101439710D01*
X177549418Y-101426403D01*
X177544459Y-101412543D01*
X177540882Y-101398264D01*
X177538722Y-101383703D01*
X177538000Y-101369000D01*
X177538000Y-101069000D01*
X177538722Y-101054297D01*
X177540882Y-101039736D01*
X177544459Y-101025457D01*
X177549418Y-101011597D01*
X177555712Y-100998290D01*
X177563280Y-100985664D01*
X177572048Y-100973841D01*
X177581934Y-100962934D01*
X177592841Y-100953048D01*
X177604664Y-100944280D01*
X177617290Y-100936712D01*
X177630597Y-100930418D01*
X177644457Y-100925459D01*
X177658736Y-100921882D01*
X177673297Y-100919722D01*
X177688000Y-100919000D01*
X179788000Y-100919000D01*
X179802703Y-100919722D01*
G37*
G36*
X179802703Y-99649722D02*
G01*
X179817264Y-99651882D01*
X179831543Y-99655459D01*
X179845403Y-99660418D01*
X179858710Y-99666712D01*
X179871336Y-99674280D01*
X179883159Y-99683048D01*
X179894066Y-99692934D01*
X179903952Y-99703841D01*
X179912720Y-99715664D01*
X179920288Y-99728290D01*
X179926582Y-99741597D01*
X179931541Y-99755457D01*
X179935118Y-99769736D01*
X179937278Y-99784297D01*
X179938000Y-99799000D01*
X179938000Y-100099000D01*
X179937278Y-100113703D01*
X179935118Y-100128264D01*
X179931541Y-100142543D01*
X179926582Y-100156403D01*
X179920288Y-100169710D01*
X179912720Y-100182336D01*
X179903952Y-100194159D01*
X179894066Y-100205066D01*
X179883159Y-100214952D01*
X179871336Y-100223720D01*
X179858710Y-100231288D01*
X179845403Y-100237582D01*
X179831543Y-100242541D01*
X179817264Y-100246118D01*
X179802703Y-100248278D01*
X179788000Y-100249000D01*
X177688000Y-100249000D01*
X177673297Y-100248278D01*
X177658736Y-100246118D01*
X177644457Y-100242541D01*
X177630597Y-100237582D01*
X177617290Y-100231288D01*
X177604664Y-100223720D01*
X177592841Y-100214952D01*
X177581934Y-100205066D01*
X177572048Y-100194159D01*
X177563280Y-100182336D01*
X177555712Y-100169710D01*
X177549418Y-100156403D01*
X177544459Y-100142543D01*
X177540882Y-100128264D01*
X177538722Y-100113703D01*
X177538000Y-100099000D01*
X177538000Y-99799000D01*
X177538722Y-99784297D01*
X177540882Y-99769736D01*
X177544459Y-99755457D01*
X177549418Y-99741597D01*
X177555712Y-99728290D01*
X177563280Y-99715664D01*
X177572048Y-99703841D01*
X177581934Y-99692934D01*
X177592841Y-99683048D01*
X177604664Y-99674280D01*
X177617290Y-99666712D01*
X177630597Y-99660418D01*
X177644457Y-99655459D01*
X177658736Y-99651882D01*
X177673297Y-99649722D01*
X177688000Y-99649000D01*
X179788000Y-99649000D01*
X179802703Y-99649722D01*
G37*
G36*
X179802703Y-98379722D02*
G01*
X179817264Y-98381882D01*
X179831543Y-98385459D01*
X179845403Y-98390418D01*
X179858710Y-98396712D01*
X179871336Y-98404280D01*
X179883159Y-98413048D01*
X179894066Y-98422934D01*
X179903952Y-98433841D01*
X179912720Y-98445664D01*
X179920288Y-98458290D01*
X179926582Y-98471597D01*
X179931541Y-98485457D01*
X179935118Y-98499736D01*
X179937278Y-98514297D01*
X179938000Y-98529000D01*
X179938000Y-98829000D01*
X179937278Y-98843703D01*
X179935118Y-98858264D01*
X179931541Y-98872543D01*
X179926582Y-98886403D01*
X179920288Y-98899710D01*
X179912720Y-98912336D01*
X179903952Y-98924159D01*
X179894066Y-98935066D01*
X179883159Y-98944952D01*
X179871336Y-98953720D01*
X179858710Y-98961288D01*
X179845403Y-98967582D01*
X179831543Y-98972541D01*
X179817264Y-98976118D01*
X179802703Y-98978278D01*
X179788000Y-98979000D01*
X177688000Y-98979000D01*
X177673297Y-98978278D01*
X177658736Y-98976118D01*
X177644457Y-98972541D01*
X177630597Y-98967582D01*
X177617290Y-98961288D01*
X177604664Y-98953720D01*
X177592841Y-98944952D01*
X177581934Y-98935066D01*
X177572048Y-98924159D01*
X177563280Y-98912336D01*
X177555712Y-98899710D01*
X177549418Y-98886403D01*
X177544459Y-98872543D01*
X177540882Y-98858264D01*
X177538722Y-98843703D01*
X177538000Y-98829000D01*
X177538000Y-98529000D01*
X177538722Y-98514297D01*
X177540882Y-98499736D01*
X177544459Y-98485457D01*
X177549418Y-98471597D01*
X177555712Y-98458290D01*
X177563280Y-98445664D01*
X177572048Y-98433841D01*
X177581934Y-98422934D01*
X177592841Y-98413048D01*
X177604664Y-98404280D01*
X177617290Y-98396712D01*
X177630597Y-98390418D01*
X177644457Y-98385459D01*
X177658736Y-98381882D01*
X177673297Y-98379722D01*
X177688000Y-98379000D01*
X179788000Y-98379000D01*
X179802703Y-98379722D01*
G37*
G36*
X179802703Y-97109722D02*
G01*
X179817264Y-97111882D01*
X179831543Y-97115459D01*
X179845403Y-97120418D01*
X179858710Y-97126712D01*
X179871336Y-97134280D01*
X179883159Y-97143048D01*
X179894066Y-97152934D01*
X179903952Y-97163841D01*
X179912720Y-97175664D01*
X179920288Y-97188290D01*
X179926582Y-97201597D01*
X179931541Y-97215457D01*
X179935118Y-97229736D01*
X179937278Y-97244297D01*
X179938000Y-97259000D01*
X179938000Y-97559000D01*
X179937278Y-97573703D01*
X179935118Y-97588264D01*
X179931541Y-97602543D01*
X179926582Y-97616403D01*
X179920288Y-97629710D01*
X179912720Y-97642336D01*
X179903952Y-97654159D01*
X179894066Y-97665066D01*
X179883159Y-97674952D01*
X179871336Y-97683720D01*
X179858710Y-97691288D01*
X179845403Y-97697582D01*
X179831543Y-97702541D01*
X179817264Y-97706118D01*
X179802703Y-97708278D01*
X179788000Y-97709000D01*
X177688000Y-97709000D01*
X177673297Y-97708278D01*
X177658736Y-97706118D01*
X177644457Y-97702541D01*
X177630597Y-97697582D01*
X177617290Y-97691288D01*
X177604664Y-97683720D01*
X177592841Y-97674952D01*
X177581934Y-97665066D01*
X177572048Y-97654159D01*
X177563280Y-97642336D01*
X177555712Y-97629710D01*
X177549418Y-97616403D01*
X177544459Y-97602543D01*
X177540882Y-97588264D01*
X177538722Y-97573703D01*
X177538000Y-97559000D01*
X177538000Y-97259000D01*
X177538722Y-97244297D01*
X177540882Y-97229736D01*
X177544459Y-97215457D01*
X177549418Y-97201597D01*
X177555712Y-97188290D01*
X177563280Y-97175664D01*
X177572048Y-97163841D01*
X177581934Y-97152934D01*
X177592841Y-97143048D01*
X177604664Y-97134280D01*
X177617290Y-97126712D01*
X177630597Y-97120418D01*
X177644457Y-97115459D01*
X177658736Y-97111882D01*
X177673297Y-97109722D01*
X177688000Y-97109000D01*
X179788000Y-97109000D01*
X179802703Y-97109722D01*
G37*
G36*
X189102703Y-97109722D02*
G01*
X189117264Y-97111882D01*
X189131543Y-97115459D01*
X189145403Y-97120418D01*
X189158710Y-97126712D01*
X189171336Y-97134280D01*
X189183159Y-97143048D01*
X189194066Y-97152934D01*
X189203952Y-97163841D01*
X189212720Y-97175664D01*
X189220288Y-97188290D01*
X189226582Y-97201597D01*
X189231541Y-97215457D01*
X189235118Y-97229736D01*
X189237278Y-97244297D01*
X189238000Y-97259000D01*
X189238000Y-97559000D01*
X189237278Y-97573703D01*
X189235118Y-97588264D01*
X189231541Y-97602543D01*
X189226582Y-97616403D01*
X189220288Y-97629710D01*
X189212720Y-97642336D01*
X189203952Y-97654159D01*
X189194066Y-97665066D01*
X189183159Y-97674952D01*
X189171336Y-97683720D01*
X189158710Y-97691288D01*
X189145403Y-97697582D01*
X189131543Y-97702541D01*
X189117264Y-97706118D01*
X189102703Y-97708278D01*
X189088000Y-97709000D01*
X186988000Y-97709000D01*
X186973297Y-97708278D01*
X186958736Y-97706118D01*
X186944457Y-97702541D01*
X186930597Y-97697582D01*
X186917290Y-97691288D01*
X186904664Y-97683720D01*
X186892841Y-97674952D01*
X186881934Y-97665066D01*
X186872048Y-97654159D01*
X186863280Y-97642336D01*
X186855712Y-97629710D01*
X186849418Y-97616403D01*
X186844459Y-97602543D01*
X186840882Y-97588264D01*
X186838722Y-97573703D01*
X186838000Y-97559000D01*
X186838000Y-97259000D01*
X186838722Y-97244297D01*
X186840882Y-97229736D01*
X186844459Y-97215457D01*
X186849418Y-97201597D01*
X186855712Y-97188290D01*
X186863280Y-97175664D01*
X186872048Y-97163841D01*
X186881934Y-97152934D01*
X186892841Y-97143048D01*
X186904664Y-97134280D01*
X186917290Y-97126712D01*
X186930597Y-97120418D01*
X186944457Y-97115459D01*
X186958736Y-97111882D01*
X186973297Y-97109722D01*
X186988000Y-97109000D01*
X189088000Y-97109000D01*
X189102703Y-97109722D01*
G37*
G36*
X189102703Y-98379722D02*
G01*
X189117264Y-98381882D01*
X189131543Y-98385459D01*
X189145403Y-98390418D01*
X189158710Y-98396712D01*
X189171336Y-98404280D01*
X189183159Y-98413048D01*
X189194066Y-98422934D01*
X189203952Y-98433841D01*
X189212720Y-98445664D01*
X189220288Y-98458290D01*
X189226582Y-98471597D01*
X189231541Y-98485457D01*
X189235118Y-98499736D01*
X189237278Y-98514297D01*
X189238000Y-98529000D01*
X189238000Y-98829000D01*
X189237278Y-98843703D01*
X189235118Y-98858264D01*
X189231541Y-98872543D01*
X189226582Y-98886403D01*
X189220288Y-98899710D01*
X189212720Y-98912336D01*
X189203952Y-98924159D01*
X189194066Y-98935066D01*
X189183159Y-98944952D01*
X189171336Y-98953720D01*
X189158710Y-98961288D01*
X189145403Y-98967582D01*
X189131543Y-98972541D01*
X189117264Y-98976118D01*
X189102703Y-98978278D01*
X189088000Y-98979000D01*
X186988000Y-98979000D01*
X186973297Y-98978278D01*
X186958736Y-98976118D01*
X186944457Y-98972541D01*
X186930597Y-98967582D01*
X186917290Y-98961288D01*
X186904664Y-98953720D01*
X186892841Y-98944952D01*
X186881934Y-98935066D01*
X186872048Y-98924159D01*
X186863280Y-98912336D01*
X186855712Y-98899710D01*
X186849418Y-98886403D01*
X186844459Y-98872543D01*
X186840882Y-98858264D01*
X186838722Y-98843703D01*
X186838000Y-98829000D01*
X186838000Y-98529000D01*
X186838722Y-98514297D01*
X186840882Y-98499736D01*
X186844459Y-98485457D01*
X186849418Y-98471597D01*
X186855712Y-98458290D01*
X186863280Y-98445664D01*
X186872048Y-98433841D01*
X186881934Y-98422934D01*
X186892841Y-98413048D01*
X186904664Y-98404280D01*
X186917290Y-98396712D01*
X186930597Y-98390418D01*
X186944457Y-98385459D01*
X186958736Y-98381882D01*
X186973297Y-98379722D01*
X186988000Y-98379000D01*
X189088000Y-98379000D01*
X189102703Y-98379722D01*
G37*
G36*
X189102703Y-99649722D02*
G01*
X189117264Y-99651882D01*
X189131543Y-99655459D01*
X189145403Y-99660418D01*
X189158710Y-99666712D01*
X189171336Y-99674280D01*
X189183159Y-99683048D01*
X189194066Y-99692934D01*
X189203952Y-99703841D01*
X189212720Y-99715664D01*
X189220288Y-99728290D01*
X189226582Y-99741597D01*
X189231541Y-99755457D01*
X189235118Y-99769736D01*
X189237278Y-99784297D01*
X189238000Y-99799000D01*
X189238000Y-100099000D01*
X189237278Y-100113703D01*
X189235118Y-100128264D01*
X189231541Y-100142543D01*
X189226582Y-100156403D01*
X189220288Y-100169710D01*
X189212720Y-100182336D01*
X189203952Y-100194159D01*
X189194066Y-100205066D01*
X189183159Y-100214952D01*
X189171336Y-100223720D01*
X189158710Y-100231288D01*
X189145403Y-100237582D01*
X189131543Y-100242541D01*
X189117264Y-100246118D01*
X189102703Y-100248278D01*
X189088000Y-100249000D01*
X186988000Y-100249000D01*
X186973297Y-100248278D01*
X186958736Y-100246118D01*
X186944457Y-100242541D01*
X186930597Y-100237582D01*
X186917290Y-100231288D01*
X186904664Y-100223720D01*
X186892841Y-100214952D01*
X186881934Y-100205066D01*
X186872048Y-100194159D01*
X186863280Y-100182336D01*
X186855712Y-100169710D01*
X186849418Y-100156403D01*
X186844459Y-100142543D01*
X186840882Y-100128264D01*
X186838722Y-100113703D01*
X186838000Y-100099000D01*
X186838000Y-99799000D01*
X186838722Y-99784297D01*
X186840882Y-99769736D01*
X186844459Y-99755457D01*
X186849418Y-99741597D01*
X186855712Y-99728290D01*
X186863280Y-99715664D01*
X186872048Y-99703841D01*
X186881934Y-99692934D01*
X186892841Y-99683048D01*
X186904664Y-99674280D01*
X186917290Y-99666712D01*
X186930597Y-99660418D01*
X186944457Y-99655459D01*
X186958736Y-99651882D01*
X186973297Y-99649722D01*
X186988000Y-99649000D01*
X189088000Y-99649000D01*
X189102703Y-99649722D01*
G37*
G36*
X189102703Y-100919722D02*
G01*
X189117264Y-100921882D01*
X189131543Y-100925459D01*
X189145403Y-100930418D01*
X189158710Y-100936712D01*
X189171336Y-100944280D01*
X189183159Y-100953048D01*
X189194066Y-100962934D01*
X189203952Y-100973841D01*
X189212720Y-100985664D01*
X189220288Y-100998290D01*
X189226582Y-101011597D01*
X189231541Y-101025457D01*
X189235118Y-101039736D01*
X189237278Y-101054297D01*
X189238000Y-101069000D01*
X189238000Y-101369000D01*
X189237278Y-101383703D01*
X189235118Y-101398264D01*
X189231541Y-101412543D01*
X189226582Y-101426403D01*
X189220288Y-101439710D01*
X189212720Y-101452336D01*
X189203952Y-101464159D01*
X189194066Y-101475066D01*
X189183159Y-101484952D01*
X189171336Y-101493720D01*
X189158710Y-101501288D01*
X189145403Y-101507582D01*
X189131543Y-101512541D01*
X189117264Y-101516118D01*
X189102703Y-101518278D01*
X189088000Y-101519000D01*
X186988000Y-101519000D01*
X186973297Y-101518278D01*
X186958736Y-101516118D01*
X186944457Y-101512541D01*
X186930597Y-101507582D01*
X186917290Y-101501288D01*
X186904664Y-101493720D01*
X186892841Y-101484952D01*
X186881934Y-101475066D01*
X186872048Y-101464159D01*
X186863280Y-101452336D01*
X186855712Y-101439710D01*
X186849418Y-101426403D01*
X186844459Y-101412543D01*
X186840882Y-101398264D01*
X186838722Y-101383703D01*
X186838000Y-101369000D01*
X186838000Y-101069000D01*
X186838722Y-101054297D01*
X186840882Y-101039736D01*
X186844459Y-101025457D01*
X186849418Y-101011597D01*
X186855712Y-100998290D01*
X186863280Y-100985664D01*
X186872048Y-100973841D01*
X186881934Y-100962934D01*
X186892841Y-100953048D01*
X186904664Y-100944280D01*
X186917290Y-100936712D01*
X186930597Y-100930418D01*
X186944457Y-100925459D01*
X186958736Y-100921882D01*
X186973297Y-100919722D01*
X186988000Y-100919000D01*
X189088000Y-100919000D01*
X189102703Y-100919722D01*
G37*
G36*
X189102703Y-102189722D02*
G01*
X189117264Y-102191882D01*
X189131543Y-102195459D01*
X189145403Y-102200418D01*
X189158710Y-102206712D01*
X189171336Y-102214280D01*
X189183159Y-102223048D01*
X189194066Y-102232934D01*
X189203952Y-102243841D01*
X189212720Y-102255664D01*
X189220288Y-102268290D01*
X189226582Y-102281597D01*
X189231541Y-102295457D01*
X189235118Y-102309736D01*
X189237278Y-102324297D01*
X189238000Y-102339000D01*
X189238000Y-102639000D01*
X189237278Y-102653703D01*
X189235118Y-102668264D01*
X189231541Y-102682543D01*
X189226582Y-102696403D01*
X189220288Y-102709710D01*
X189212720Y-102722336D01*
X189203952Y-102734159D01*
X189194066Y-102745066D01*
X189183159Y-102754952D01*
X189171336Y-102763720D01*
X189158710Y-102771288D01*
X189145403Y-102777582D01*
X189131543Y-102782541D01*
X189117264Y-102786118D01*
X189102703Y-102788278D01*
X189088000Y-102789000D01*
X186988000Y-102789000D01*
X186973297Y-102788278D01*
X186958736Y-102786118D01*
X186944457Y-102782541D01*
X186930597Y-102777582D01*
X186917290Y-102771288D01*
X186904664Y-102763720D01*
X186892841Y-102754952D01*
X186881934Y-102745066D01*
X186872048Y-102734159D01*
X186863280Y-102722336D01*
X186855712Y-102709710D01*
X186849418Y-102696403D01*
X186844459Y-102682543D01*
X186840882Y-102668264D01*
X186838722Y-102653703D01*
X186838000Y-102639000D01*
X186838000Y-102339000D01*
X186838722Y-102324297D01*
X186840882Y-102309736D01*
X186844459Y-102295457D01*
X186849418Y-102281597D01*
X186855712Y-102268290D01*
X186863280Y-102255664D01*
X186872048Y-102243841D01*
X186881934Y-102232934D01*
X186892841Y-102223048D01*
X186904664Y-102214280D01*
X186917290Y-102206712D01*
X186930597Y-102200418D01*
X186944457Y-102195459D01*
X186958736Y-102191882D01*
X186973297Y-102189722D01*
X186988000Y-102189000D01*
X189088000Y-102189000D01*
X189102703Y-102189722D01*
G37*
G36*
X189102703Y-103459722D02*
G01*
X189117264Y-103461882D01*
X189131543Y-103465459D01*
X189145403Y-103470418D01*
X189158710Y-103476712D01*
X189171336Y-103484280D01*
X189183159Y-103493048D01*
X189194066Y-103502934D01*
X189203952Y-103513841D01*
X189212720Y-103525664D01*
X189220288Y-103538290D01*
X189226582Y-103551597D01*
X189231541Y-103565457D01*
X189235118Y-103579736D01*
X189237278Y-103594297D01*
X189238000Y-103609000D01*
X189238000Y-103909000D01*
X189237278Y-103923703D01*
X189235118Y-103938264D01*
X189231541Y-103952543D01*
X189226582Y-103966403D01*
X189220288Y-103979710D01*
X189212720Y-103992336D01*
X189203952Y-104004159D01*
X189194066Y-104015066D01*
X189183159Y-104024952D01*
X189171336Y-104033720D01*
X189158710Y-104041288D01*
X189145403Y-104047582D01*
X189131543Y-104052541D01*
X189117264Y-104056118D01*
X189102703Y-104058278D01*
X189088000Y-104059000D01*
X186988000Y-104059000D01*
X186973297Y-104058278D01*
X186958736Y-104056118D01*
X186944457Y-104052541D01*
X186930597Y-104047582D01*
X186917290Y-104041288D01*
X186904664Y-104033720D01*
X186892841Y-104024952D01*
X186881934Y-104015066D01*
X186872048Y-104004159D01*
X186863280Y-103992336D01*
X186855712Y-103979710D01*
X186849418Y-103966403D01*
X186844459Y-103952543D01*
X186840882Y-103938264D01*
X186838722Y-103923703D01*
X186838000Y-103909000D01*
X186838000Y-103609000D01*
X186838722Y-103594297D01*
X186840882Y-103579736D01*
X186844459Y-103565457D01*
X186849418Y-103551597D01*
X186855712Y-103538290D01*
X186863280Y-103525664D01*
X186872048Y-103513841D01*
X186881934Y-103502934D01*
X186892841Y-103493048D01*
X186904664Y-103484280D01*
X186917290Y-103476712D01*
X186930597Y-103470418D01*
X186944457Y-103465459D01*
X186958736Y-103461882D01*
X186973297Y-103459722D01*
X186988000Y-103459000D01*
X189088000Y-103459000D01*
X189102703Y-103459722D01*
G37*
G36*
X189102703Y-104729722D02*
G01*
X189117264Y-104731882D01*
X189131543Y-104735459D01*
X189145403Y-104740418D01*
X189158710Y-104746712D01*
X189171336Y-104754280D01*
X189183159Y-104763048D01*
X189194066Y-104772934D01*
X189203952Y-104783841D01*
X189212720Y-104795664D01*
X189220288Y-104808290D01*
X189226582Y-104821597D01*
X189231541Y-104835457D01*
X189235118Y-104849736D01*
X189237278Y-104864297D01*
X189238000Y-104879000D01*
X189238000Y-105179000D01*
X189237278Y-105193703D01*
X189235118Y-105208264D01*
X189231541Y-105222543D01*
X189226582Y-105236403D01*
X189220288Y-105249710D01*
X189212720Y-105262336D01*
X189203952Y-105274159D01*
X189194066Y-105285066D01*
X189183159Y-105294952D01*
X189171336Y-105303720D01*
X189158710Y-105311288D01*
X189145403Y-105317582D01*
X189131543Y-105322541D01*
X189117264Y-105326118D01*
X189102703Y-105328278D01*
X189088000Y-105329000D01*
X186988000Y-105329000D01*
X186973297Y-105328278D01*
X186958736Y-105326118D01*
X186944457Y-105322541D01*
X186930597Y-105317582D01*
X186917290Y-105311288D01*
X186904664Y-105303720D01*
X186892841Y-105294952D01*
X186881934Y-105285066D01*
X186872048Y-105274159D01*
X186863280Y-105262336D01*
X186855712Y-105249710D01*
X186849418Y-105236403D01*
X186844459Y-105222543D01*
X186840882Y-105208264D01*
X186838722Y-105193703D01*
X186838000Y-105179000D01*
X186838000Y-104879000D01*
X186838722Y-104864297D01*
X186840882Y-104849736D01*
X186844459Y-104835457D01*
X186849418Y-104821597D01*
X186855712Y-104808290D01*
X186863280Y-104795664D01*
X186872048Y-104783841D01*
X186881934Y-104772934D01*
X186892841Y-104763048D01*
X186904664Y-104754280D01*
X186917290Y-104746712D01*
X186930597Y-104740418D01*
X186944457Y-104735459D01*
X186958736Y-104731882D01*
X186973297Y-104729722D01*
X186988000Y-104729000D01*
X189088000Y-104729000D01*
X189102703Y-104729722D01*
G37*
G36*
X189102703Y-105999722D02*
G01*
X189117264Y-106001882D01*
X189131543Y-106005459D01*
X189145403Y-106010418D01*
X189158710Y-106016712D01*
X189171336Y-106024280D01*
X189183159Y-106033048D01*
X189194066Y-106042934D01*
X189203952Y-106053841D01*
X189212720Y-106065664D01*
X189220288Y-106078290D01*
X189226582Y-106091597D01*
X189231541Y-106105457D01*
X189235118Y-106119736D01*
X189237278Y-106134297D01*
X189238000Y-106149000D01*
X189238000Y-106449000D01*
X189237278Y-106463703D01*
X189235118Y-106478264D01*
X189231541Y-106492543D01*
X189226582Y-106506403D01*
X189220288Y-106519710D01*
X189212720Y-106532336D01*
X189203952Y-106544159D01*
X189194066Y-106555066D01*
X189183159Y-106564952D01*
X189171336Y-106573720D01*
X189158710Y-106581288D01*
X189145403Y-106587582D01*
X189131543Y-106592541D01*
X189117264Y-106596118D01*
X189102703Y-106598278D01*
X189088000Y-106599000D01*
X186988000Y-106599000D01*
X186973297Y-106598278D01*
X186958736Y-106596118D01*
X186944457Y-106592541D01*
X186930597Y-106587582D01*
X186917290Y-106581288D01*
X186904664Y-106573720D01*
X186892841Y-106564952D01*
X186881934Y-106555066D01*
X186872048Y-106544159D01*
X186863280Y-106532336D01*
X186855712Y-106519710D01*
X186849418Y-106506403D01*
X186844459Y-106492543D01*
X186840882Y-106478264D01*
X186838722Y-106463703D01*
X186838000Y-106449000D01*
X186838000Y-106149000D01*
X186838722Y-106134297D01*
X186840882Y-106119736D01*
X186844459Y-106105457D01*
X186849418Y-106091597D01*
X186855712Y-106078290D01*
X186863280Y-106065664D01*
X186872048Y-106053841D01*
X186881934Y-106042934D01*
X186892841Y-106033048D01*
X186904664Y-106024280D01*
X186917290Y-106016712D01*
X186930597Y-106010418D01*
X186944457Y-106005459D01*
X186958736Y-106001882D01*
X186973297Y-105999722D01*
X186988000Y-105999000D01*
X189088000Y-105999000D01*
X189102703Y-105999722D01*
G37*
G36*
X189102703Y-107269722D02*
G01*
X189117264Y-107271882D01*
X189131543Y-107275459D01*
X189145403Y-107280418D01*
X189158710Y-107286712D01*
X189171336Y-107294280D01*
X189183159Y-107303048D01*
X189194066Y-107312934D01*
X189203952Y-107323841D01*
X189212720Y-107335664D01*
X189220288Y-107348290D01*
X189226582Y-107361597D01*
X189231541Y-107375457D01*
X189235118Y-107389736D01*
X189237278Y-107404297D01*
X189238000Y-107419000D01*
X189238000Y-107719000D01*
X189237278Y-107733703D01*
X189235118Y-107748264D01*
X189231541Y-107762543D01*
X189226582Y-107776403D01*
X189220288Y-107789710D01*
X189212720Y-107802336D01*
X189203952Y-107814159D01*
X189194066Y-107825066D01*
X189183159Y-107834952D01*
X189171336Y-107843720D01*
X189158710Y-107851288D01*
X189145403Y-107857582D01*
X189131543Y-107862541D01*
X189117264Y-107866118D01*
X189102703Y-107868278D01*
X189088000Y-107869000D01*
X186988000Y-107869000D01*
X186973297Y-107868278D01*
X186958736Y-107866118D01*
X186944457Y-107862541D01*
X186930597Y-107857582D01*
X186917290Y-107851288D01*
X186904664Y-107843720D01*
X186892841Y-107834952D01*
X186881934Y-107825066D01*
X186872048Y-107814159D01*
X186863280Y-107802336D01*
X186855712Y-107789710D01*
X186849418Y-107776403D01*
X186844459Y-107762543D01*
X186840882Y-107748264D01*
X186838722Y-107733703D01*
X186838000Y-107719000D01*
X186838000Y-107419000D01*
X186838722Y-107404297D01*
X186840882Y-107389736D01*
X186844459Y-107375457D01*
X186849418Y-107361597D01*
X186855712Y-107348290D01*
X186863280Y-107335664D01*
X186872048Y-107323841D01*
X186881934Y-107312934D01*
X186892841Y-107303048D01*
X186904664Y-107294280D01*
X186917290Y-107286712D01*
X186930597Y-107280418D01*
X186944457Y-107275459D01*
X186958736Y-107271882D01*
X186973297Y-107269722D01*
X186988000Y-107269000D01*
X189088000Y-107269000D01*
X189102703Y-107269722D01*
G37*
D13*
X188038000Y-108839000D03*
D10*
G36*
X179802703Y-130383722D02*
G01*
X179817264Y-130385882D01*
X179831543Y-130389459D01*
X179845403Y-130394418D01*
X179858710Y-130400712D01*
X179871336Y-130408280D01*
X179883159Y-130417048D01*
X179894066Y-130426934D01*
X179903952Y-130437841D01*
X179912720Y-130449664D01*
X179920288Y-130462290D01*
X179926582Y-130475597D01*
X179931541Y-130489457D01*
X179935118Y-130503736D01*
X179937278Y-130518297D01*
X179938000Y-130533000D01*
X179938000Y-130833000D01*
X179937278Y-130847703D01*
X179935118Y-130862264D01*
X179931541Y-130876543D01*
X179926582Y-130890403D01*
X179920288Y-130903710D01*
X179912720Y-130916336D01*
X179903952Y-130928159D01*
X179894066Y-130939066D01*
X179883159Y-130948952D01*
X179871336Y-130957720D01*
X179858710Y-130965288D01*
X179845403Y-130971582D01*
X179831543Y-130976541D01*
X179817264Y-130980118D01*
X179802703Y-130982278D01*
X179788000Y-130983000D01*
X177688000Y-130983000D01*
X177673297Y-130982278D01*
X177658736Y-130980118D01*
X177644457Y-130976541D01*
X177630597Y-130971582D01*
X177617290Y-130965288D01*
X177604664Y-130957720D01*
X177592841Y-130948952D01*
X177581934Y-130939066D01*
X177572048Y-130928159D01*
X177563280Y-130916336D01*
X177555712Y-130903710D01*
X177549418Y-130890403D01*
X177544459Y-130876543D01*
X177540882Y-130862264D01*
X177538722Y-130847703D01*
X177538000Y-130833000D01*
X177538000Y-130533000D01*
X177538722Y-130518297D01*
X177540882Y-130503736D01*
X177544459Y-130489457D01*
X177549418Y-130475597D01*
X177555712Y-130462290D01*
X177563280Y-130449664D01*
X177572048Y-130437841D01*
X177581934Y-130426934D01*
X177592841Y-130417048D01*
X177604664Y-130408280D01*
X177617290Y-130400712D01*
X177630597Y-130394418D01*
X177644457Y-130389459D01*
X177658736Y-130385882D01*
X177673297Y-130383722D01*
X177688000Y-130383000D01*
X179788000Y-130383000D01*
X179802703Y-130383722D01*
G37*
G36*
X179802703Y-129113722D02*
G01*
X179817264Y-129115882D01*
X179831543Y-129119459D01*
X179845403Y-129124418D01*
X179858710Y-129130712D01*
X179871336Y-129138280D01*
X179883159Y-129147048D01*
X179894066Y-129156934D01*
X179903952Y-129167841D01*
X179912720Y-129179664D01*
X179920288Y-129192290D01*
X179926582Y-129205597D01*
X179931541Y-129219457D01*
X179935118Y-129233736D01*
X179937278Y-129248297D01*
X179938000Y-129263000D01*
X179938000Y-129563000D01*
X179937278Y-129577703D01*
X179935118Y-129592264D01*
X179931541Y-129606543D01*
X179926582Y-129620403D01*
X179920288Y-129633710D01*
X179912720Y-129646336D01*
X179903952Y-129658159D01*
X179894066Y-129669066D01*
X179883159Y-129678952D01*
X179871336Y-129687720D01*
X179858710Y-129695288D01*
X179845403Y-129701582D01*
X179831543Y-129706541D01*
X179817264Y-129710118D01*
X179802703Y-129712278D01*
X179788000Y-129713000D01*
X177688000Y-129713000D01*
X177673297Y-129712278D01*
X177658736Y-129710118D01*
X177644457Y-129706541D01*
X177630597Y-129701582D01*
X177617290Y-129695288D01*
X177604664Y-129687720D01*
X177592841Y-129678952D01*
X177581934Y-129669066D01*
X177572048Y-129658159D01*
X177563280Y-129646336D01*
X177555712Y-129633710D01*
X177549418Y-129620403D01*
X177544459Y-129606543D01*
X177540882Y-129592264D01*
X177538722Y-129577703D01*
X177538000Y-129563000D01*
X177538000Y-129263000D01*
X177538722Y-129248297D01*
X177540882Y-129233736D01*
X177544459Y-129219457D01*
X177549418Y-129205597D01*
X177555712Y-129192290D01*
X177563280Y-129179664D01*
X177572048Y-129167841D01*
X177581934Y-129156934D01*
X177592841Y-129147048D01*
X177604664Y-129138280D01*
X177617290Y-129130712D01*
X177630597Y-129124418D01*
X177644457Y-129119459D01*
X177658736Y-129115882D01*
X177673297Y-129113722D01*
X177688000Y-129113000D01*
X179788000Y-129113000D01*
X179802703Y-129113722D01*
G37*
G36*
X179802703Y-127843722D02*
G01*
X179817264Y-127845882D01*
X179831543Y-127849459D01*
X179845403Y-127854418D01*
X179858710Y-127860712D01*
X179871336Y-127868280D01*
X179883159Y-127877048D01*
X179894066Y-127886934D01*
X179903952Y-127897841D01*
X179912720Y-127909664D01*
X179920288Y-127922290D01*
X179926582Y-127935597D01*
X179931541Y-127949457D01*
X179935118Y-127963736D01*
X179937278Y-127978297D01*
X179938000Y-127993000D01*
X179938000Y-128293000D01*
X179937278Y-128307703D01*
X179935118Y-128322264D01*
X179931541Y-128336543D01*
X179926582Y-128350403D01*
X179920288Y-128363710D01*
X179912720Y-128376336D01*
X179903952Y-128388159D01*
X179894066Y-128399066D01*
X179883159Y-128408952D01*
X179871336Y-128417720D01*
X179858710Y-128425288D01*
X179845403Y-128431582D01*
X179831543Y-128436541D01*
X179817264Y-128440118D01*
X179802703Y-128442278D01*
X179788000Y-128443000D01*
X177688000Y-128443000D01*
X177673297Y-128442278D01*
X177658736Y-128440118D01*
X177644457Y-128436541D01*
X177630597Y-128431582D01*
X177617290Y-128425288D01*
X177604664Y-128417720D01*
X177592841Y-128408952D01*
X177581934Y-128399066D01*
X177572048Y-128388159D01*
X177563280Y-128376336D01*
X177555712Y-128363710D01*
X177549418Y-128350403D01*
X177544459Y-128336543D01*
X177540882Y-128322264D01*
X177538722Y-128307703D01*
X177538000Y-128293000D01*
X177538000Y-127993000D01*
X177538722Y-127978297D01*
X177540882Y-127963736D01*
X177544459Y-127949457D01*
X177549418Y-127935597D01*
X177555712Y-127922290D01*
X177563280Y-127909664D01*
X177572048Y-127897841D01*
X177581934Y-127886934D01*
X177592841Y-127877048D01*
X177604664Y-127868280D01*
X177617290Y-127860712D01*
X177630597Y-127854418D01*
X177644457Y-127849459D01*
X177658736Y-127845882D01*
X177673297Y-127843722D01*
X177688000Y-127843000D01*
X179788000Y-127843000D01*
X179802703Y-127843722D01*
G37*
G36*
X179802703Y-126573722D02*
G01*
X179817264Y-126575882D01*
X179831543Y-126579459D01*
X179845403Y-126584418D01*
X179858710Y-126590712D01*
X179871336Y-126598280D01*
X179883159Y-126607048D01*
X179894066Y-126616934D01*
X179903952Y-126627841D01*
X179912720Y-126639664D01*
X179920288Y-126652290D01*
X179926582Y-126665597D01*
X179931541Y-126679457D01*
X179935118Y-126693736D01*
X179937278Y-126708297D01*
X179938000Y-126723000D01*
X179938000Y-127023000D01*
X179937278Y-127037703D01*
X179935118Y-127052264D01*
X179931541Y-127066543D01*
X179926582Y-127080403D01*
X179920288Y-127093710D01*
X179912720Y-127106336D01*
X179903952Y-127118159D01*
X179894066Y-127129066D01*
X179883159Y-127138952D01*
X179871336Y-127147720D01*
X179858710Y-127155288D01*
X179845403Y-127161582D01*
X179831543Y-127166541D01*
X179817264Y-127170118D01*
X179802703Y-127172278D01*
X179788000Y-127173000D01*
X177688000Y-127173000D01*
X177673297Y-127172278D01*
X177658736Y-127170118D01*
X177644457Y-127166541D01*
X177630597Y-127161582D01*
X177617290Y-127155288D01*
X177604664Y-127147720D01*
X177592841Y-127138952D01*
X177581934Y-127129066D01*
X177572048Y-127118159D01*
X177563280Y-127106336D01*
X177555712Y-127093710D01*
X177549418Y-127080403D01*
X177544459Y-127066543D01*
X177540882Y-127052264D01*
X177538722Y-127037703D01*
X177538000Y-127023000D01*
X177538000Y-126723000D01*
X177538722Y-126708297D01*
X177540882Y-126693736D01*
X177544459Y-126679457D01*
X177549418Y-126665597D01*
X177555712Y-126652290D01*
X177563280Y-126639664D01*
X177572048Y-126627841D01*
X177581934Y-126616934D01*
X177592841Y-126607048D01*
X177604664Y-126598280D01*
X177617290Y-126590712D01*
X177630597Y-126584418D01*
X177644457Y-126579459D01*
X177658736Y-126575882D01*
X177673297Y-126573722D01*
X177688000Y-126573000D01*
X179788000Y-126573000D01*
X179802703Y-126573722D01*
G37*
G36*
X179802703Y-125303722D02*
G01*
X179817264Y-125305882D01*
X179831543Y-125309459D01*
X179845403Y-125314418D01*
X179858710Y-125320712D01*
X179871336Y-125328280D01*
X179883159Y-125337048D01*
X179894066Y-125346934D01*
X179903952Y-125357841D01*
X179912720Y-125369664D01*
X179920288Y-125382290D01*
X179926582Y-125395597D01*
X179931541Y-125409457D01*
X179935118Y-125423736D01*
X179937278Y-125438297D01*
X179938000Y-125453000D01*
X179938000Y-125753000D01*
X179937278Y-125767703D01*
X179935118Y-125782264D01*
X179931541Y-125796543D01*
X179926582Y-125810403D01*
X179920288Y-125823710D01*
X179912720Y-125836336D01*
X179903952Y-125848159D01*
X179894066Y-125859066D01*
X179883159Y-125868952D01*
X179871336Y-125877720D01*
X179858710Y-125885288D01*
X179845403Y-125891582D01*
X179831543Y-125896541D01*
X179817264Y-125900118D01*
X179802703Y-125902278D01*
X179788000Y-125903000D01*
X177688000Y-125903000D01*
X177673297Y-125902278D01*
X177658736Y-125900118D01*
X177644457Y-125896541D01*
X177630597Y-125891582D01*
X177617290Y-125885288D01*
X177604664Y-125877720D01*
X177592841Y-125868952D01*
X177581934Y-125859066D01*
X177572048Y-125848159D01*
X177563280Y-125836336D01*
X177555712Y-125823710D01*
X177549418Y-125810403D01*
X177544459Y-125796543D01*
X177540882Y-125782264D01*
X177538722Y-125767703D01*
X177538000Y-125753000D01*
X177538000Y-125453000D01*
X177538722Y-125438297D01*
X177540882Y-125423736D01*
X177544459Y-125409457D01*
X177549418Y-125395597D01*
X177555712Y-125382290D01*
X177563280Y-125369664D01*
X177572048Y-125357841D01*
X177581934Y-125346934D01*
X177592841Y-125337048D01*
X177604664Y-125328280D01*
X177617290Y-125320712D01*
X177630597Y-125314418D01*
X177644457Y-125309459D01*
X177658736Y-125305882D01*
X177673297Y-125303722D01*
X177688000Y-125303000D01*
X179788000Y-125303000D01*
X179802703Y-125303722D01*
G37*
G36*
X179802703Y-124033722D02*
G01*
X179817264Y-124035882D01*
X179831543Y-124039459D01*
X179845403Y-124044418D01*
X179858710Y-124050712D01*
X179871336Y-124058280D01*
X179883159Y-124067048D01*
X179894066Y-124076934D01*
X179903952Y-124087841D01*
X179912720Y-124099664D01*
X179920288Y-124112290D01*
X179926582Y-124125597D01*
X179931541Y-124139457D01*
X179935118Y-124153736D01*
X179937278Y-124168297D01*
X179938000Y-124183000D01*
X179938000Y-124483000D01*
X179937278Y-124497703D01*
X179935118Y-124512264D01*
X179931541Y-124526543D01*
X179926582Y-124540403D01*
X179920288Y-124553710D01*
X179912720Y-124566336D01*
X179903952Y-124578159D01*
X179894066Y-124589066D01*
X179883159Y-124598952D01*
X179871336Y-124607720D01*
X179858710Y-124615288D01*
X179845403Y-124621582D01*
X179831543Y-124626541D01*
X179817264Y-124630118D01*
X179802703Y-124632278D01*
X179788000Y-124633000D01*
X177688000Y-124633000D01*
X177673297Y-124632278D01*
X177658736Y-124630118D01*
X177644457Y-124626541D01*
X177630597Y-124621582D01*
X177617290Y-124615288D01*
X177604664Y-124607720D01*
X177592841Y-124598952D01*
X177581934Y-124589066D01*
X177572048Y-124578159D01*
X177563280Y-124566336D01*
X177555712Y-124553710D01*
X177549418Y-124540403D01*
X177544459Y-124526543D01*
X177540882Y-124512264D01*
X177538722Y-124497703D01*
X177538000Y-124483000D01*
X177538000Y-124183000D01*
X177538722Y-124168297D01*
X177540882Y-124153736D01*
X177544459Y-124139457D01*
X177549418Y-124125597D01*
X177555712Y-124112290D01*
X177563280Y-124099664D01*
X177572048Y-124087841D01*
X177581934Y-124076934D01*
X177592841Y-124067048D01*
X177604664Y-124058280D01*
X177617290Y-124050712D01*
X177630597Y-124044418D01*
X177644457Y-124039459D01*
X177658736Y-124035882D01*
X177673297Y-124033722D01*
X177688000Y-124033000D01*
X179788000Y-124033000D01*
X179802703Y-124033722D01*
G37*
G36*
X179802703Y-122763722D02*
G01*
X179817264Y-122765882D01*
X179831543Y-122769459D01*
X179845403Y-122774418D01*
X179858710Y-122780712D01*
X179871336Y-122788280D01*
X179883159Y-122797048D01*
X179894066Y-122806934D01*
X179903952Y-122817841D01*
X179912720Y-122829664D01*
X179920288Y-122842290D01*
X179926582Y-122855597D01*
X179931541Y-122869457D01*
X179935118Y-122883736D01*
X179937278Y-122898297D01*
X179938000Y-122913000D01*
X179938000Y-123213000D01*
X179937278Y-123227703D01*
X179935118Y-123242264D01*
X179931541Y-123256543D01*
X179926582Y-123270403D01*
X179920288Y-123283710D01*
X179912720Y-123296336D01*
X179903952Y-123308159D01*
X179894066Y-123319066D01*
X179883159Y-123328952D01*
X179871336Y-123337720D01*
X179858710Y-123345288D01*
X179845403Y-123351582D01*
X179831543Y-123356541D01*
X179817264Y-123360118D01*
X179802703Y-123362278D01*
X179788000Y-123363000D01*
X177688000Y-123363000D01*
X177673297Y-123362278D01*
X177658736Y-123360118D01*
X177644457Y-123356541D01*
X177630597Y-123351582D01*
X177617290Y-123345288D01*
X177604664Y-123337720D01*
X177592841Y-123328952D01*
X177581934Y-123319066D01*
X177572048Y-123308159D01*
X177563280Y-123296336D01*
X177555712Y-123283710D01*
X177549418Y-123270403D01*
X177544459Y-123256543D01*
X177540882Y-123242264D01*
X177538722Y-123227703D01*
X177538000Y-123213000D01*
X177538000Y-122913000D01*
X177538722Y-122898297D01*
X177540882Y-122883736D01*
X177544459Y-122869457D01*
X177549418Y-122855597D01*
X177555712Y-122842290D01*
X177563280Y-122829664D01*
X177572048Y-122817841D01*
X177581934Y-122806934D01*
X177592841Y-122797048D01*
X177604664Y-122788280D01*
X177617290Y-122780712D01*
X177630597Y-122774418D01*
X177644457Y-122769459D01*
X177658736Y-122765882D01*
X177673297Y-122763722D01*
X177688000Y-122763000D01*
X179788000Y-122763000D01*
X179802703Y-122763722D01*
G37*
G36*
X179802703Y-121493722D02*
G01*
X179817264Y-121495882D01*
X179831543Y-121499459D01*
X179845403Y-121504418D01*
X179858710Y-121510712D01*
X179871336Y-121518280D01*
X179883159Y-121527048D01*
X179894066Y-121536934D01*
X179903952Y-121547841D01*
X179912720Y-121559664D01*
X179920288Y-121572290D01*
X179926582Y-121585597D01*
X179931541Y-121599457D01*
X179935118Y-121613736D01*
X179937278Y-121628297D01*
X179938000Y-121643000D01*
X179938000Y-121943000D01*
X179937278Y-121957703D01*
X179935118Y-121972264D01*
X179931541Y-121986543D01*
X179926582Y-122000403D01*
X179920288Y-122013710D01*
X179912720Y-122026336D01*
X179903952Y-122038159D01*
X179894066Y-122049066D01*
X179883159Y-122058952D01*
X179871336Y-122067720D01*
X179858710Y-122075288D01*
X179845403Y-122081582D01*
X179831543Y-122086541D01*
X179817264Y-122090118D01*
X179802703Y-122092278D01*
X179788000Y-122093000D01*
X177688000Y-122093000D01*
X177673297Y-122092278D01*
X177658736Y-122090118D01*
X177644457Y-122086541D01*
X177630597Y-122081582D01*
X177617290Y-122075288D01*
X177604664Y-122067720D01*
X177592841Y-122058952D01*
X177581934Y-122049066D01*
X177572048Y-122038159D01*
X177563280Y-122026336D01*
X177555712Y-122013710D01*
X177549418Y-122000403D01*
X177544459Y-121986543D01*
X177540882Y-121972264D01*
X177538722Y-121957703D01*
X177538000Y-121943000D01*
X177538000Y-121643000D01*
X177538722Y-121628297D01*
X177540882Y-121613736D01*
X177544459Y-121599457D01*
X177549418Y-121585597D01*
X177555712Y-121572290D01*
X177563280Y-121559664D01*
X177572048Y-121547841D01*
X177581934Y-121536934D01*
X177592841Y-121527048D01*
X177604664Y-121518280D01*
X177617290Y-121510712D01*
X177630597Y-121504418D01*
X177644457Y-121499459D01*
X177658736Y-121495882D01*
X177673297Y-121493722D01*
X177688000Y-121493000D01*
X179788000Y-121493000D01*
X179802703Y-121493722D01*
G37*
G36*
X179802703Y-120223722D02*
G01*
X179817264Y-120225882D01*
X179831543Y-120229459D01*
X179845403Y-120234418D01*
X179858710Y-120240712D01*
X179871336Y-120248280D01*
X179883159Y-120257048D01*
X179894066Y-120266934D01*
X179903952Y-120277841D01*
X179912720Y-120289664D01*
X179920288Y-120302290D01*
X179926582Y-120315597D01*
X179931541Y-120329457D01*
X179935118Y-120343736D01*
X179937278Y-120358297D01*
X179938000Y-120373000D01*
X179938000Y-120673000D01*
X179937278Y-120687703D01*
X179935118Y-120702264D01*
X179931541Y-120716543D01*
X179926582Y-120730403D01*
X179920288Y-120743710D01*
X179912720Y-120756336D01*
X179903952Y-120768159D01*
X179894066Y-120779066D01*
X179883159Y-120788952D01*
X179871336Y-120797720D01*
X179858710Y-120805288D01*
X179845403Y-120811582D01*
X179831543Y-120816541D01*
X179817264Y-120820118D01*
X179802703Y-120822278D01*
X179788000Y-120823000D01*
X177688000Y-120823000D01*
X177673297Y-120822278D01*
X177658736Y-120820118D01*
X177644457Y-120816541D01*
X177630597Y-120811582D01*
X177617290Y-120805288D01*
X177604664Y-120797720D01*
X177592841Y-120788952D01*
X177581934Y-120779066D01*
X177572048Y-120768159D01*
X177563280Y-120756336D01*
X177555712Y-120743710D01*
X177549418Y-120730403D01*
X177544459Y-120716543D01*
X177540882Y-120702264D01*
X177538722Y-120687703D01*
X177538000Y-120673000D01*
X177538000Y-120373000D01*
X177538722Y-120358297D01*
X177540882Y-120343736D01*
X177544459Y-120329457D01*
X177549418Y-120315597D01*
X177555712Y-120302290D01*
X177563280Y-120289664D01*
X177572048Y-120277841D01*
X177581934Y-120266934D01*
X177592841Y-120257048D01*
X177604664Y-120248280D01*
X177617290Y-120240712D01*
X177630597Y-120234418D01*
X177644457Y-120229459D01*
X177658736Y-120225882D01*
X177673297Y-120223722D01*
X177688000Y-120223000D01*
X179788000Y-120223000D01*
X179802703Y-120223722D01*
G37*
G36*
X179802703Y-118953722D02*
G01*
X179817264Y-118955882D01*
X179831543Y-118959459D01*
X179845403Y-118964418D01*
X179858710Y-118970712D01*
X179871336Y-118978280D01*
X179883159Y-118987048D01*
X179894066Y-118996934D01*
X179903952Y-119007841D01*
X179912720Y-119019664D01*
X179920288Y-119032290D01*
X179926582Y-119045597D01*
X179931541Y-119059457D01*
X179935118Y-119073736D01*
X179937278Y-119088297D01*
X179938000Y-119103000D01*
X179938000Y-119403000D01*
X179937278Y-119417703D01*
X179935118Y-119432264D01*
X179931541Y-119446543D01*
X179926582Y-119460403D01*
X179920288Y-119473710D01*
X179912720Y-119486336D01*
X179903952Y-119498159D01*
X179894066Y-119509066D01*
X179883159Y-119518952D01*
X179871336Y-119527720D01*
X179858710Y-119535288D01*
X179845403Y-119541582D01*
X179831543Y-119546541D01*
X179817264Y-119550118D01*
X179802703Y-119552278D01*
X179788000Y-119553000D01*
X177688000Y-119553000D01*
X177673297Y-119552278D01*
X177658736Y-119550118D01*
X177644457Y-119546541D01*
X177630597Y-119541582D01*
X177617290Y-119535288D01*
X177604664Y-119527720D01*
X177592841Y-119518952D01*
X177581934Y-119509066D01*
X177572048Y-119498159D01*
X177563280Y-119486336D01*
X177555712Y-119473710D01*
X177549418Y-119460403D01*
X177544459Y-119446543D01*
X177540882Y-119432264D01*
X177538722Y-119417703D01*
X177538000Y-119403000D01*
X177538000Y-119103000D01*
X177538722Y-119088297D01*
X177540882Y-119073736D01*
X177544459Y-119059457D01*
X177549418Y-119045597D01*
X177555712Y-119032290D01*
X177563280Y-119019664D01*
X177572048Y-119007841D01*
X177581934Y-118996934D01*
X177592841Y-118987048D01*
X177604664Y-118978280D01*
X177617290Y-118970712D01*
X177630597Y-118964418D01*
X177644457Y-118959459D01*
X177658736Y-118955882D01*
X177673297Y-118953722D01*
X177688000Y-118953000D01*
X179788000Y-118953000D01*
X179802703Y-118953722D01*
G37*
G36*
X189102703Y-118953722D02*
G01*
X189117264Y-118955882D01*
X189131543Y-118959459D01*
X189145403Y-118964418D01*
X189158710Y-118970712D01*
X189171336Y-118978280D01*
X189183159Y-118987048D01*
X189194066Y-118996934D01*
X189203952Y-119007841D01*
X189212720Y-119019664D01*
X189220288Y-119032290D01*
X189226582Y-119045597D01*
X189231541Y-119059457D01*
X189235118Y-119073736D01*
X189237278Y-119088297D01*
X189238000Y-119103000D01*
X189238000Y-119403000D01*
X189237278Y-119417703D01*
X189235118Y-119432264D01*
X189231541Y-119446543D01*
X189226582Y-119460403D01*
X189220288Y-119473710D01*
X189212720Y-119486336D01*
X189203952Y-119498159D01*
X189194066Y-119509066D01*
X189183159Y-119518952D01*
X189171336Y-119527720D01*
X189158710Y-119535288D01*
X189145403Y-119541582D01*
X189131543Y-119546541D01*
X189117264Y-119550118D01*
X189102703Y-119552278D01*
X189088000Y-119553000D01*
X186988000Y-119553000D01*
X186973297Y-119552278D01*
X186958736Y-119550118D01*
X186944457Y-119546541D01*
X186930597Y-119541582D01*
X186917290Y-119535288D01*
X186904664Y-119527720D01*
X186892841Y-119518952D01*
X186881934Y-119509066D01*
X186872048Y-119498159D01*
X186863280Y-119486336D01*
X186855712Y-119473710D01*
X186849418Y-119460403D01*
X186844459Y-119446543D01*
X186840882Y-119432264D01*
X186838722Y-119417703D01*
X186838000Y-119403000D01*
X186838000Y-119103000D01*
X186838722Y-119088297D01*
X186840882Y-119073736D01*
X186844459Y-119059457D01*
X186849418Y-119045597D01*
X186855712Y-119032290D01*
X186863280Y-119019664D01*
X186872048Y-119007841D01*
X186881934Y-118996934D01*
X186892841Y-118987048D01*
X186904664Y-118978280D01*
X186917290Y-118970712D01*
X186930597Y-118964418D01*
X186944457Y-118959459D01*
X186958736Y-118955882D01*
X186973297Y-118953722D01*
X186988000Y-118953000D01*
X189088000Y-118953000D01*
X189102703Y-118953722D01*
G37*
G36*
X189102703Y-120223722D02*
G01*
X189117264Y-120225882D01*
X189131543Y-120229459D01*
X189145403Y-120234418D01*
X189158710Y-120240712D01*
X189171336Y-120248280D01*
X189183159Y-120257048D01*
X189194066Y-120266934D01*
X189203952Y-120277841D01*
X189212720Y-120289664D01*
X189220288Y-120302290D01*
X189226582Y-120315597D01*
X189231541Y-120329457D01*
X189235118Y-120343736D01*
X189237278Y-120358297D01*
X189238000Y-120373000D01*
X189238000Y-120673000D01*
X189237278Y-120687703D01*
X189235118Y-120702264D01*
X189231541Y-120716543D01*
X189226582Y-120730403D01*
X189220288Y-120743710D01*
X189212720Y-120756336D01*
X189203952Y-120768159D01*
X189194066Y-120779066D01*
X189183159Y-120788952D01*
X189171336Y-120797720D01*
X189158710Y-120805288D01*
X189145403Y-120811582D01*
X189131543Y-120816541D01*
X189117264Y-120820118D01*
X189102703Y-120822278D01*
X189088000Y-120823000D01*
X186988000Y-120823000D01*
X186973297Y-120822278D01*
X186958736Y-120820118D01*
X186944457Y-120816541D01*
X186930597Y-120811582D01*
X186917290Y-120805288D01*
X186904664Y-120797720D01*
X186892841Y-120788952D01*
X186881934Y-120779066D01*
X186872048Y-120768159D01*
X186863280Y-120756336D01*
X186855712Y-120743710D01*
X186849418Y-120730403D01*
X186844459Y-120716543D01*
X186840882Y-120702264D01*
X186838722Y-120687703D01*
X186838000Y-120673000D01*
X186838000Y-120373000D01*
X186838722Y-120358297D01*
X186840882Y-120343736D01*
X186844459Y-120329457D01*
X186849418Y-120315597D01*
X186855712Y-120302290D01*
X186863280Y-120289664D01*
X186872048Y-120277841D01*
X186881934Y-120266934D01*
X186892841Y-120257048D01*
X186904664Y-120248280D01*
X186917290Y-120240712D01*
X186930597Y-120234418D01*
X186944457Y-120229459D01*
X186958736Y-120225882D01*
X186973297Y-120223722D01*
X186988000Y-120223000D01*
X189088000Y-120223000D01*
X189102703Y-120223722D01*
G37*
G36*
X189102703Y-121493722D02*
G01*
X189117264Y-121495882D01*
X189131543Y-121499459D01*
X189145403Y-121504418D01*
X189158710Y-121510712D01*
X189171336Y-121518280D01*
X189183159Y-121527048D01*
X189194066Y-121536934D01*
X189203952Y-121547841D01*
X189212720Y-121559664D01*
X189220288Y-121572290D01*
X189226582Y-121585597D01*
X189231541Y-121599457D01*
X189235118Y-121613736D01*
X189237278Y-121628297D01*
X189238000Y-121643000D01*
X189238000Y-121943000D01*
X189237278Y-121957703D01*
X189235118Y-121972264D01*
X189231541Y-121986543D01*
X189226582Y-122000403D01*
X189220288Y-122013710D01*
X189212720Y-122026336D01*
X189203952Y-122038159D01*
X189194066Y-122049066D01*
X189183159Y-122058952D01*
X189171336Y-122067720D01*
X189158710Y-122075288D01*
X189145403Y-122081582D01*
X189131543Y-122086541D01*
X189117264Y-122090118D01*
X189102703Y-122092278D01*
X189088000Y-122093000D01*
X186988000Y-122093000D01*
X186973297Y-122092278D01*
X186958736Y-122090118D01*
X186944457Y-122086541D01*
X186930597Y-122081582D01*
X186917290Y-122075288D01*
X186904664Y-122067720D01*
X186892841Y-122058952D01*
X186881934Y-122049066D01*
X186872048Y-122038159D01*
X186863280Y-122026336D01*
X186855712Y-122013710D01*
X186849418Y-122000403D01*
X186844459Y-121986543D01*
X186840882Y-121972264D01*
X186838722Y-121957703D01*
X186838000Y-121943000D01*
X186838000Y-121643000D01*
X186838722Y-121628297D01*
X186840882Y-121613736D01*
X186844459Y-121599457D01*
X186849418Y-121585597D01*
X186855712Y-121572290D01*
X186863280Y-121559664D01*
X186872048Y-121547841D01*
X186881934Y-121536934D01*
X186892841Y-121527048D01*
X186904664Y-121518280D01*
X186917290Y-121510712D01*
X186930597Y-121504418D01*
X186944457Y-121499459D01*
X186958736Y-121495882D01*
X186973297Y-121493722D01*
X186988000Y-121493000D01*
X189088000Y-121493000D01*
X189102703Y-121493722D01*
G37*
G36*
X189102703Y-122763722D02*
G01*
X189117264Y-122765882D01*
X189131543Y-122769459D01*
X189145403Y-122774418D01*
X189158710Y-122780712D01*
X189171336Y-122788280D01*
X189183159Y-122797048D01*
X189194066Y-122806934D01*
X189203952Y-122817841D01*
X189212720Y-122829664D01*
X189220288Y-122842290D01*
X189226582Y-122855597D01*
X189231541Y-122869457D01*
X189235118Y-122883736D01*
X189237278Y-122898297D01*
X189238000Y-122913000D01*
X189238000Y-123213000D01*
X189237278Y-123227703D01*
X189235118Y-123242264D01*
X189231541Y-123256543D01*
X189226582Y-123270403D01*
X189220288Y-123283710D01*
X189212720Y-123296336D01*
X189203952Y-123308159D01*
X189194066Y-123319066D01*
X189183159Y-123328952D01*
X189171336Y-123337720D01*
X189158710Y-123345288D01*
X189145403Y-123351582D01*
X189131543Y-123356541D01*
X189117264Y-123360118D01*
X189102703Y-123362278D01*
X189088000Y-123363000D01*
X186988000Y-123363000D01*
X186973297Y-123362278D01*
X186958736Y-123360118D01*
X186944457Y-123356541D01*
X186930597Y-123351582D01*
X186917290Y-123345288D01*
X186904664Y-123337720D01*
X186892841Y-123328952D01*
X186881934Y-123319066D01*
X186872048Y-123308159D01*
X186863280Y-123296336D01*
X186855712Y-123283710D01*
X186849418Y-123270403D01*
X186844459Y-123256543D01*
X186840882Y-123242264D01*
X186838722Y-123227703D01*
X186838000Y-123213000D01*
X186838000Y-122913000D01*
X186838722Y-122898297D01*
X186840882Y-122883736D01*
X186844459Y-122869457D01*
X186849418Y-122855597D01*
X186855712Y-122842290D01*
X186863280Y-122829664D01*
X186872048Y-122817841D01*
X186881934Y-122806934D01*
X186892841Y-122797048D01*
X186904664Y-122788280D01*
X186917290Y-122780712D01*
X186930597Y-122774418D01*
X186944457Y-122769459D01*
X186958736Y-122765882D01*
X186973297Y-122763722D01*
X186988000Y-122763000D01*
X189088000Y-122763000D01*
X189102703Y-122763722D01*
G37*
G36*
X189102703Y-124033722D02*
G01*
X189117264Y-124035882D01*
X189131543Y-124039459D01*
X189145403Y-124044418D01*
X189158710Y-124050712D01*
X189171336Y-124058280D01*
X189183159Y-124067048D01*
X189194066Y-124076934D01*
X189203952Y-124087841D01*
X189212720Y-124099664D01*
X189220288Y-124112290D01*
X189226582Y-124125597D01*
X189231541Y-124139457D01*
X189235118Y-124153736D01*
X189237278Y-124168297D01*
X189238000Y-124183000D01*
X189238000Y-124483000D01*
X189237278Y-124497703D01*
X189235118Y-124512264D01*
X189231541Y-124526543D01*
X189226582Y-124540403D01*
X189220288Y-124553710D01*
X189212720Y-124566336D01*
X189203952Y-124578159D01*
X189194066Y-124589066D01*
X189183159Y-124598952D01*
X189171336Y-124607720D01*
X189158710Y-124615288D01*
X189145403Y-124621582D01*
X189131543Y-124626541D01*
X189117264Y-124630118D01*
X189102703Y-124632278D01*
X189088000Y-124633000D01*
X186988000Y-124633000D01*
X186973297Y-124632278D01*
X186958736Y-124630118D01*
X186944457Y-124626541D01*
X186930597Y-124621582D01*
X186917290Y-124615288D01*
X186904664Y-124607720D01*
X186892841Y-124598952D01*
X186881934Y-124589066D01*
X186872048Y-124578159D01*
X186863280Y-124566336D01*
X186855712Y-124553710D01*
X186849418Y-124540403D01*
X186844459Y-124526543D01*
X186840882Y-124512264D01*
X186838722Y-124497703D01*
X186838000Y-124483000D01*
X186838000Y-124183000D01*
X186838722Y-124168297D01*
X186840882Y-124153736D01*
X186844459Y-124139457D01*
X186849418Y-124125597D01*
X186855712Y-124112290D01*
X186863280Y-124099664D01*
X186872048Y-124087841D01*
X186881934Y-124076934D01*
X186892841Y-124067048D01*
X186904664Y-124058280D01*
X186917290Y-124050712D01*
X186930597Y-124044418D01*
X186944457Y-124039459D01*
X186958736Y-124035882D01*
X186973297Y-124033722D01*
X186988000Y-124033000D01*
X189088000Y-124033000D01*
X189102703Y-124033722D01*
G37*
G36*
X189102703Y-125303722D02*
G01*
X189117264Y-125305882D01*
X189131543Y-125309459D01*
X189145403Y-125314418D01*
X189158710Y-125320712D01*
X189171336Y-125328280D01*
X189183159Y-125337048D01*
X189194066Y-125346934D01*
X189203952Y-125357841D01*
X189212720Y-125369664D01*
X189220288Y-125382290D01*
X189226582Y-125395597D01*
X189231541Y-125409457D01*
X189235118Y-125423736D01*
X189237278Y-125438297D01*
X189238000Y-125453000D01*
X189238000Y-125753000D01*
X189237278Y-125767703D01*
X189235118Y-125782264D01*
X189231541Y-125796543D01*
X189226582Y-125810403D01*
X189220288Y-125823710D01*
X189212720Y-125836336D01*
X189203952Y-125848159D01*
X189194066Y-125859066D01*
X189183159Y-125868952D01*
X189171336Y-125877720D01*
X189158710Y-125885288D01*
X189145403Y-125891582D01*
X189131543Y-125896541D01*
X189117264Y-125900118D01*
X189102703Y-125902278D01*
X189088000Y-125903000D01*
X186988000Y-125903000D01*
X186973297Y-125902278D01*
X186958736Y-125900118D01*
X186944457Y-125896541D01*
X186930597Y-125891582D01*
X186917290Y-125885288D01*
X186904664Y-125877720D01*
X186892841Y-125868952D01*
X186881934Y-125859066D01*
X186872048Y-125848159D01*
X186863280Y-125836336D01*
X186855712Y-125823710D01*
X186849418Y-125810403D01*
X186844459Y-125796543D01*
X186840882Y-125782264D01*
X186838722Y-125767703D01*
X186838000Y-125753000D01*
X186838000Y-125453000D01*
X186838722Y-125438297D01*
X186840882Y-125423736D01*
X186844459Y-125409457D01*
X186849418Y-125395597D01*
X186855712Y-125382290D01*
X186863280Y-125369664D01*
X186872048Y-125357841D01*
X186881934Y-125346934D01*
X186892841Y-125337048D01*
X186904664Y-125328280D01*
X186917290Y-125320712D01*
X186930597Y-125314418D01*
X186944457Y-125309459D01*
X186958736Y-125305882D01*
X186973297Y-125303722D01*
X186988000Y-125303000D01*
X189088000Y-125303000D01*
X189102703Y-125303722D01*
G37*
G36*
X189102703Y-126573722D02*
G01*
X189117264Y-126575882D01*
X189131543Y-126579459D01*
X189145403Y-126584418D01*
X189158710Y-126590712D01*
X189171336Y-126598280D01*
X189183159Y-126607048D01*
X189194066Y-126616934D01*
X189203952Y-126627841D01*
X189212720Y-126639664D01*
X189220288Y-126652290D01*
X189226582Y-126665597D01*
X189231541Y-126679457D01*
X189235118Y-126693736D01*
X189237278Y-126708297D01*
X189238000Y-126723000D01*
X189238000Y-127023000D01*
X189237278Y-127037703D01*
X189235118Y-127052264D01*
X189231541Y-127066543D01*
X189226582Y-127080403D01*
X189220288Y-127093710D01*
X189212720Y-127106336D01*
X189203952Y-127118159D01*
X189194066Y-127129066D01*
X189183159Y-127138952D01*
X189171336Y-127147720D01*
X189158710Y-127155288D01*
X189145403Y-127161582D01*
X189131543Y-127166541D01*
X189117264Y-127170118D01*
X189102703Y-127172278D01*
X189088000Y-127173000D01*
X186988000Y-127173000D01*
X186973297Y-127172278D01*
X186958736Y-127170118D01*
X186944457Y-127166541D01*
X186930597Y-127161582D01*
X186917290Y-127155288D01*
X186904664Y-127147720D01*
X186892841Y-127138952D01*
X186881934Y-127129066D01*
X186872048Y-127118159D01*
X186863280Y-127106336D01*
X186855712Y-127093710D01*
X186849418Y-127080403D01*
X186844459Y-127066543D01*
X186840882Y-127052264D01*
X186838722Y-127037703D01*
X186838000Y-127023000D01*
X186838000Y-126723000D01*
X186838722Y-126708297D01*
X186840882Y-126693736D01*
X186844459Y-126679457D01*
X186849418Y-126665597D01*
X186855712Y-126652290D01*
X186863280Y-126639664D01*
X186872048Y-126627841D01*
X186881934Y-126616934D01*
X186892841Y-126607048D01*
X186904664Y-126598280D01*
X186917290Y-126590712D01*
X186930597Y-126584418D01*
X186944457Y-126579459D01*
X186958736Y-126575882D01*
X186973297Y-126573722D01*
X186988000Y-126573000D01*
X189088000Y-126573000D01*
X189102703Y-126573722D01*
G37*
G36*
X189102703Y-127843722D02*
G01*
X189117264Y-127845882D01*
X189131543Y-127849459D01*
X189145403Y-127854418D01*
X189158710Y-127860712D01*
X189171336Y-127868280D01*
X189183159Y-127877048D01*
X189194066Y-127886934D01*
X189203952Y-127897841D01*
X189212720Y-127909664D01*
X189220288Y-127922290D01*
X189226582Y-127935597D01*
X189231541Y-127949457D01*
X189235118Y-127963736D01*
X189237278Y-127978297D01*
X189238000Y-127993000D01*
X189238000Y-128293000D01*
X189237278Y-128307703D01*
X189235118Y-128322264D01*
X189231541Y-128336543D01*
X189226582Y-128350403D01*
X189220288Y-128363710D01*
X189212720Y-128376336D01*
X189203952Y-128388159D01*
X189194066Y-128399066D01*
X189183159Y-128408952D01*
X189171336Y-128417720D01*
X189158710Y-128425288D01*
X189145403Y-128431582D01*
X189131543Y-128436541D01*
X189117264Y-128440118D01*
X189102703Y-128442278D01*
X189088000Y-128443000D01*
X186988000Y-128443000D01*
X186973297Y-128442278D01*
X186958736Y-128440118D01*
X186944457Y-128436541D01*
X186930597Y-128431582D01*
X186917290Y-128425288D01*
X186904664Y-128417720D01*
X186892841Y-128408952D01*
X186881934Y-128399066D01*
X186872048Y-128388159D01*
X186863280Y-128376336D01*
X186855712Y-128363710D01*
X186849418Y-128350403D01*
X186844459Y-128336543D01*
X186840882Y-128322264D01*
X186838722Y-128307703D01*
X186838000Y-128293000D01*
X186838000Y-127993000D01*
X186838722Y-127978297D01*
X186840882Y-127963736D01*
X186844459Y-127949457D01*
X186849418Y-127935597D01*
X186855712Y-127922290D01*
X186863280Y-127909664D01*
X186872048Y-127897841D01*
X186881934Y-127886934D01*
X186892841Y-127877048D01*
X186904664Y-127868280D01*
X186917290Y-127860712D01*
X186930597Y-127854418D01*
X186944457Y-127849459D01*
X186958736Y-127845882D01*
X186973297Y-127843722D01*
X186988000Y-127843000D01*
X189088000Y-127843000D01*
X189102703Y-127843722D01*
G37*
G36*
X189102703Y-129113722D02*
G01*
X189117264Y-129115882D01*
X189131543Y-129119459D01*
X189145403Y-129124418D01*
X189158710Y-129130712D01*
X189171336Y-129138280D01*
X189183159Y-129147048D01*
X189194066Y-129156934D01*
X189203952Y-129167841D01*
X189212720Y-129179664D01*
X189220288Y-129192290D01*
X189226582Y-129205597D01*
X189231541Y-129219457D01*
X189235118Y-129233736D01*
X189237278Y-129248297D01*
X189238000Y-129263000D01*
X189238000Y-129563000D01*
X189237278Y-129577703D01*
X189235118Y-129592264D01*
X189231541Y-129606543D01*
X189226582Y-129620403D01*
X189220288Y-129633710D01*
X189212720Y-129646336D01*
X189203952Y-129658159D01*
X189194066Y-129669066D01*
X189183159Y-129678952D01*
X189171336Y-129687720D01*
X189158710Y-129695288D01*
X189145403Y-129701582D01*
X189131543Y-129706541D01*
X189117264Y-129710118D01*
X189102703Y-129712278D01*
X189088000Y-129713000D01*
X186988000Y-129713000D01*
X186973297Y-129712278D01*
X186958736Y-129710118D01*
X186944457Y-129706541D01*
X186930597Y-129701582D01*
X186917290Y-129695288D01*
X186904664Y-129687720D01*
X186892841Y-129678952D01*
X186881934Y-129669066D01*
X186872048Y-129658159D01*
X186863280Y-129646336D01*
X186855712Y-129633710D01*
X186849418Y-129620403D01*
X186844459Y-129606543D01*
X186840882Y-129592264D01*
X186838722Y-129577703D01*
X186838000Y-129563000D01*
X186838000Y-129263000D01*
X186838722Y-129248297D01*
X186840882Y-129233736D01*
X186844459Y-129219457D01*
X186849418Y-129205597D01*
X186855712Y-129192290D01*
X186863280Y-129179664D01*
X186872048Y-129167841D01*
X186881934Y-129156934D01*
X186892841Y-129147048D01*
X186904664Y-129138280D01*
X186917290Y-129130712D01*
X186930597Y-129124418D01*
X186944457Y-129119459D01*
X186958736Y-129115882D01*
X186973297Y-129113722D01*
X186988000Y-129113000D01*
X189088000Y-129113000D01*
X189102703Y-129113722D01*
G37*
D13*
X188038000Y-130683000D03*
D14*
X84050000Y-139700000D03*
X81050000Y-139700000D03*
D15*
X201676000Y-55388000D03*
X201676000Y-57388000D03*
X203708000Y-57388000D03*
X203708000Y-55388000D03*
X205740000Y-55388000D03*
X205740000Y-57388000D03*
X207772000Y-57388000D03*
X207772000Y-55388000D03*
X209804000Y-55388000D03*
X209804000Y-57388000D03*
X211836000Y-57388000D03*
X211836000Y-55388000D03*
X151892000Y-70072000D03*
X151892000Y-68072000D03*
X153924000Y-68088000D03*
X153924000Y-70088000D03*
X155956000Y-70088000D03*
X155956000Y-68088000D03*
X157988000Y-68088000D03*
X157988000Y-70088000D03*
X160020000Y-68088000D03*
X160020000Y-70088000D03*
X162052000Y-68088000D03*
X162052000Y-70088000D03*
X210312000Y-131096000D03*
X210312000Y-133096000D03*
D16*
X127492000Y-137160000D03*
X125492000Y-137160000D03*
X141748000Y-137160000D03*
X143748000Y-137160000D03*
X182261000Y-89408000D03*
X184261000Y-89408000D03*
X184261000Y-111252000D03*
X182261000Y-111252000D03*
X184388000Y-133096000D03*
X182388000Y-133096000D03*
X157972000Y-91948000D03*
X155972000Y-91948000D03*
D15*
X211328000Y-66024000D03*
X211328000Y-64024000D03*
X209296000Y-64024000D03*
X209296000Y-66024000D03*
X207264000Y-66024000D03*
X207264000Y-64024000D03*
X205232000Y-64024000D03*
X205232000Y-66024000D03*
X203200000Y-66024000D03*
X203200000Y-64024000D03*
X201168000Y-64024000D03*
X201168000Y-66024000D03*
X162052000Y-83296000D03*
X162052000Y-81296000D03*
X160020000Y-81296000D03*
X160020000Y-83296000D03*
X157988000Y-83296000D03*
X157988000Y-81296000D03*
X155956000Y-83296000D03*
X155956000Y-81296000D03*
X153924000Y-81296000D03*
X153924000Y-83296000D03*
X151892000Y-83296000D03*
X151892000Y-81296000D03*
D17*
X154956000Y-106680000D03*
X156956000Y-105730000D03*
X156956000Y-107630000D03*
D18*
X74750000Y-143510000D03*
X77650000Y-143510000D03*
X77650000Y-55880000D03*
X74750000Y-55880000D03*
X74750000Y-139700000D03*
X77650000Y-139700000D03*
D19*
X211770000Y-71120000D03*
X209870000Y-71120000D03*
X202250000Y-72390000D03*
X204150000Y-72390000D03*
X209870000Y-73660000D03*
X211770000Y-73660000D03*
X204150000Y-74930000D03*
X202250000Y-74930000D03*
X209870000Y-76200000D03*
X211770000Y-76200000D03*
X204150000Y-77470000D03*
X202250000Y-77470000D03*
X211770000Y-78740000D03*
X209870000Y-78740000D03*
X204150000Y-80010000D03*
X202250000Y-80010000D03*
X209870000Y-81280000D03*
X211770000Y-81280000D03*
X204150000Y-82550000D03*
X202250000Y-82550000D03*
X211770000Y-83820000D03*
X209870000Y-83820000D03*
X202250000Y-85090000D03*
X204150000Y-85090000D03*
X209870000Y-86360000D03*
X211770000Y-86360000D03*
X204150000Y-87630000D03*
X202250000Y-87630000D03*
X209870000Y-88900000D03*
X211770000Y-88900000D03*
X202250000Y-90170000D03*
X204150000Y-90170000D03*
X209870000Y-91440000D03*
X211770000Y-91440000D03*
X204150000Y-92710000D03*
X202250000Y-92710000D03*
X211770000Y-93980000D03*
X209870000Y-93980000D03*
X202250000Y-95250000D03*
X204150000Y-95250000D03*
X209870000Y-96520000D03*
X211770000Y-96520000D03*
X204150000Y-97790000D03*
X202250000Y-97790000D03*
X211770000Y-99060000D03*
X209870000Y-99060000D03*
X202250000Y-100330000D03*
X204150000Y-100330000D03*
X211770000Y-101600000D03*
X209870000Y-101600000D03*
X204150000Y-102870000D03*
X202250000Y-102870000D03*
X209870000Y-104140000D03*
X211770000Y-104140000D03*
X202250000Y-105410000D03*
X204150000Y-105410000D03*
X209870000Y-106680000D03*
X211770000Y-106680000D03*
X204150000Y-107950000D03*
X202250000Y-107950000D03*
X211770000Y-109220000D03*
X209870000Y-109220000D03*
X202250000Y-110490000D03*
X204150000Y-110490000D03*
X209870000Y-111760000D03*
X211770000Y-111760000D03*
X204150000Y-113030000D03*
X202250000Y-113030000D03*
X211770000Y-114300000D03*
X209870000Y-114300000D03*
X202250000Y-115570000D03*
X204150000Y-115570000D03*
X204150000Y-118110000D03*
X202250000Y-118110000D03*
D20*
X206756000Y-124526000D03*
X206756000Y-126426000D03*
D19*
X204658000Y-138684000D03*
X202758000Y-138684000D03*
D20*
X173736000Y-141290000D03*
X173736000Y-143190000D03*
X176276000Y-143190000D03*
X176276000Y-141290000D03*
X178816000Y-141290000D03*
X178816000Y-143190000D03*
D19*
X202758000Y-141224000D03*
X204658000Y-141224000D03*
X150556000Y-139192000D03*
X148656000Y-139192000D03*
X148656000Y-143256000D03*
X150556000Y-143256000D03*
X135194000Y-139192000D03*
X137094000Y-139192000D03*
X137094000Y-143256000D03*
X135194000Y-143256000D03*
X182311000Y-91440000D03*
X184211000Y-91440000D03*
X182311000Y-93472000D03*
X184211000Y-93472000D03*
X182311000Y-113284000D03*
X184211000Y-113284000D03*
X182438000Y-135128000D03*
X184338000Y-135128000D03*
X182438000Y-115316000D03*
X184338000Y-115316000D03*
X182438000Y-137160000D03*
X184338000Y-137160000D03*
X156022000Y-89916000D03*
X157922000Y-89916000D03*
X157922000Y-87884000D03*
X156022000Y-87884000D03*
D20*
X159512000Y-105730000D03*
X159512000Y-107630000D03*
X152908000Y-105730000D03*
X152908000Y-107630000D03*
X150876000Y-105730000D03*
X150876000Y-107630000D03*
D19*
X156022000Y-102108000D03*
X157922000Y-102108000D03*
X156022000Y-100076000D03*
X157922000Y-100076000D03*
D21*
X152400000Y-75258000D03*
X152400000Y-78158000D03*
X156210000Y-78158000D03*
X156210000Y-75258000D03*
X156210000Y-62050000D03*
X156210000Y-64950000D03*
X152400000Y-64950000D03*
X152400000Y-62050000D03*
D19*
X77150000Y-126492000D03*
X75250000Y-126492000D03*
D11*
X123792000Y-139319000D03*
D10*
G36*
X124606703Y-140289722D02*
G01*
X124621264Y-140291882D01*
X124635543Y-140295459D01*
X124649403Y-140300418D01*
X124662710Y-140306712D01*
X124675336Y-140314280D01*
X124687159Y-140323048D01*
X124698066Y-140332934D01*
X124707952Y-140343841D01*
X124716720Y-140355664D01*
X124724288Y-140368290D01*
X124730582Y-140381597D01*
X124735541Y-140395457D01*
X124739118Y-140409736D01*
X124741278Y-140424297D01*
X124742000Y-140439000D01*
X124742000Y-140739000D01*
X124741278Y-140753703D01*
X124739118Y-140768264D01*
X124735541Y-140782543D01*
X124730582Y-140796403D01*
X124724288Y-140809710D01*
X124716720Y-140822336D01*
X124707952Y-140834159D01*
X124698066Y-140845066D01*
X124687159Y-140854952D01*
X124675336Y-140863720D01*
X124662710Y-140871288D01*
X124649403Y-140877582D01*
X124635543Y-140882541D01*
X124621264Y-140886118D01*
X124606703Y-140888278D01*
X124592000Y-140889000D01*
X122992000Y-140889000D01*
X122977297Y-140888278D01*
X122962736Y-140886118D01*
X122948457Y-140882541D01*
X122934597Y-140877582D01*
X122921290Y-140871288D01*
X122908664Y-140863720D01*
X122896841Y-140854952D01*
X122885934Y-140845066D01*
X122876048Y-140834159D01*
X122867280Y-140822336D01*
X122859712Y-140809710D01*
X122853418Y-140796403D01*
X122848459Y-140782543D01*
X122844882Y-140768264D01*
X122842722Y-140753703D01*
X122842000Y-140739000D01*
X122842000Y-140439000D01*
X122842722Y-140424297D01*
X122844882Y-140409736D01*
X122848459Y-140395457D01*
X122853418Y-140381597D01*
X122859712Y-140368290D01*
X122867280Y-140355664D01*
X122876048Y-140343841D01*
X122885934Y-140332934D01*
X122896841Y-140323048D01*
X122908664Y-140314280D01*
X122921290Y-140306712D01*
X122934597Y-140300418D01*
X122948457Y-140295459D01*
X122962736Y-140291882D01*
X122977297Y-140289722D01*
X122992000Y-140289000D01*
X124592000Y-140289000D01*
X124606703Y-140289722D01*
G37*
G36*
X124606703Y-141559722D02*
G01*
X124621264Y-141561882D01*
X124635543Y-141565459D01*
X124649403Y-141570418D01*
X124662710Y-141576712D01*
X124675336Y-141584280D01*
X124687159Y-141593048D01*
X124698066Y-141602934D01*
X124707952Y-141613841D01*
X124716720Y-141625664D01*
X124724288Y-141638290D01*
X124730582Y-141651597D01*
X124735541Y-141665457D01*
X124739118Y-141679736D01*
X124741278Y-141694297D01*
X124742000Y-141709000D01*
X124742000Y-142009000D01*
X124741278Y-142023703D01*
X124739118Y-142038264D01*
X124735541Y-142052543D01*
X124730582Y-142066403D01*
X124724288Y-142079710D01*
X124716720Y-142092336D01*
X124707952Y-142104159D01*
X124698066Y-142115066D01*
X124687159Y-142124952D01*
X124675336Y-142133720D01*
X124662710Y-142141288D01*
X124649403Y-142147582D01*
X124635543Y-142152541D01*
X124621264Y-142156118D01*
X124606703Y-142158278D01*
X124592000Y-142159000D01*
X122992000Y-142159000D01*
X122977297Y-142158278D01*
X122962736Y-142156118D01*
X122948457Y-142152541D01*
X122934597Y-142147582D01*
X122921290Y-142141288D01*
X122908664Y-142133720D01*
X122896841Y-142124952D01*
X122885934Y-142115066D01*
X122876048Y-142104159D01*
X122867280Y-142092336D01*
X122859712Y-142079710D01*
X122853418Y-142066403D01*
X122848459Y-142052543D01*
X122844882Y-142038264D01*
X122842722Y-142023703D01*
X122842000Y-142009000D01*
X122842000Y-141709000D01*
X122842722Y-141694297D01*
X122844882Y-141679736D01*
X122848459Y-141665457D01*
X122853418Y-141651597D01*
X122859712Y-141638290D01*
X122867280Y-141625664D01*
X122876048Y-141613841D01*
X122885934Y-141602934D01*
X122896841Y-141593048D01*
X122908664Y-141584280D01*
X122921290Y-141576712D01*
X122934597Y-141570418D01*
X122948457Y-141565459D01*
X122962736Y-141561882D01*
X122977297Y-141559722D01*
X122992000Y-141559000D01*
X124592000Y-141559000D01*
X124606703Y-141559722D01*
G37*
G36*
X124606703Y-142829722D02*
G01*
X124621264Y-142831882D01*
X124635543Y-142835459D01*
X124649403Y-142840418D01*
X124662710Y-142846712D01*
X124675336Y-142854280D01*
X124687159Y-142863048D01*
X124698066Y-142872934D01*
X124707952Y-142883841D01*
X124716720Y-142895664D01*
X124724288Y-142908290D01*
X124730582Y-142921597D01*
X124735541Y-142935457D01*
X124739118Y-142949736D01*
X124741278Y-142964297D01*
X124742000Y-142979000D01*
X124742000Y-143279000D01*
X124741278Y-143293703D01*
X124739118Y-143308264D01*
X124735541Y-143322543D01*
X124730582Y-143336403D01*
X124724288Y-143349710D01*
X124716720Y-143362336D01*
X124707952Y-143374159D01*
X124698066Y-143385066D01*
X124687159Y-143394952D01*
X124675336Y-143403720D01*
X124662710Y-143411288D01*
X124649403Y-143417582D01*
X124635543Y-143422541D01*
X124621264Y-143426118D01*
X124606703Y-143428278D01*
X124592000Y-143429000D01*
X122992000Y-143429000D01*
X122977297Y-143428278D01*
X122962736Y-143426118D01*
X122948457Y-143422541D01*
X122934597Y-143417582D01*
X122921290Y-143411288D01*
X122908664Y-143403720D01*
X122896841Y-143394952D01*
X122885934Y-143385066D01*
X122876048Y-143374159D01*
X122867280Y-143362336D01*
X122859712Y-143349710D01*
X122853418Y-143336403D01*
X122848459Y-143322543D01*
X122844882Y-143308264D01*
X122842722Y-143293703D01*
X122842000Y-143279000D01*
X122842000Y-142979000D01*
X122842722Y-142964297D01*
X122844882Y-142949736D01*
X122848459Y-142935457D01*
X122853418Y-142921597D01*
X122859712Y-142908290D01*
X122867280Y-142895664D01*
X122876048Y-142883841D01*
X122885934Y-142872934D01*
X122896841Y-142863048D01*
X122908664Y-142854280D01*
X122921290Y-142846712D01*
X122934597Y-142840418D01*
X122948457Y-142835459D01*
X122962736Y-142831882D01*
X122977297Y-142829722D01*
X122992000Y-142829000D01*
X124592000Y-142829000D01*
X124606703Y-142829722D01*
G37*
G36*
X130006703Y-142829722D02*
G01*
X130021264Y-142831882D01*
X130035543Y-142835459D01*
X130049403Y-142840418D01*
X130062710Y-142846712D01*
X130075336Y-142854280D01*
X130087159Y-142863048D01*
X130098066Y-142872934D01*
X130107952Y-142883841D01*
X130116720Y-142895664D01*
X130124288Y-142908290D01*
X130130582Y-142921597D01*
X130135541Y-142935457D01*
X130139118Y-142949736D01*
X130141278Y-142964297D01*
X130142000Y-142979000D01*
X130142000Y-143279000D01*
X130141278Y-143293703D01*
X130139118Y-143308264D01*
X130135541Y-143322543D01*
X130130582Y-143336403D01*
X130124288Y-143349710D01*
X130116720Y-143362336D01*
X130107952Y-143374159D01*
X130098066Y-143385066D01*
X130087159Y-143394952D01*
X130075336Y-143403720D01*
X130062710Y-143411288D01*
X130049403Y-143417582D01*
X130035543Y-143422541D01*
X130021264Y-143426118D01*
X130006703Y-143428278D01*
X129992000Y-143429000D01*
X128392000Y-143429000D01*
X128377297Y-143428278D01*
X128362736Y-143426118D01*
X128348457Y-143422541D01*
X128334597Y-143417582D01*
X128321290Y-143411288D01*
X128308664Y-143403720D01*
X128296841Y-143394952D01*
X128285934Y-143385066D01*
X128276048Y-143374159D01*
X128267280Y-143362336D01*
X128259712Y-143349710D01*
X128253418Y-143336403D01*
X128248459Y-143322543D01*
X128244882Y-143308264D01*
X128242722Y-143293703D01*
X128242000Y-143279000D01*
X128242000Y-142979000D01*
X128242722Y-142964297D01*
X128244882Y-142949736D01*
X128248459Y-142935457D01*
X128253418Y-142921597D01*
X128259712Y-142908290D01*
X128267280Y-142895664D01*
X128276048Y-142883841D01*
X128285934Y-142872934D01*
X128296841Y-142863048D01*
X128308664Y-142854280D01*
X128321290Y-142846712D01*
X128334597Y-142840418D01*
X128348457Y-142835459D01*
X128362736Y-142831882D01*
X128377297Y-142829722D01*
X128392000Y-142829000D01*
X129992000Y-142829000D01*
X130006703Y-142829722D01*
G37*
G36*
X130006703Y-141559722D02*
G01*
X130021264Y-141561882D01*
X130035543Y-141565459D01*
X130049403Y-141570418D01*
X130062710Y-141576712D01*
X130075336Y-141584280D01*
X130087159Y-141593048D01*
X130098066Y-141602934D01*
X130107952Y-141613841D01*
X130116720Y-141625664D01*
X130124288Y-141638290D01*
X130130582Y-141651597D01*
X130135541Y-141665457D01*
X130139118Y-141679736D01*
X130141278Y-141694297D01*
X130142000Y-141709000D01*
X130142000Y-142009000D01*
X130141278Y-142023703D01*
X130139118Y-142038264D01*
X130135541Y-142052543D01*
X130130582Y-142066403D01*
X130124288Y-142079710D01*
X130116720Y-142092336D01*
X130107952Y-142104159D01*
X130098066Y-142115066D01*
X130087159Y-142124952D01*
X130075336Y-142133720D01*
X130062710Y-142141288D01*
X130049403Y-142147582D01*
X130035543Y-142152541D01*
X130021264Y-142156118D01*
X130006703Y-142158278D01*
X129992000Y-142159000D01*
X128392000Y-142159000D01*
X128377297Y-142158278D01*
X128362736Y-142156118D01*
X128348457Y-142152541D01*
X128334597Y-142147582D01*
X128321290Y-142141288D01*
X128308664Y-142133720D01*
X128296841Y-142124952D01*
X128285934Y-142115066D01*
X128276048Y-142104159D01*
X128267280Y-142092336D01*
X128259712Y-142079710D01*
X128253418Y-142066403D01*
X128248459Y-142052543D01*
X128244882Y-142038264D01*
X128242722Y-142023703D01*
X128242000Y-142009000D01*
X128242000Y-141709000D01*
X128242722Y-141694297D01*
X128244882Y-141679736D01*
X128248459Y-141665457D01*
X128253418Y-141651597D01*
X128259712Y-141638290D01*
X128267280Y-141625664D01*
X128276048Y-141613841D01*
X128285934Y-141602934D01*
X128296841Y-141593048D01*
X128308664Y-141584280D01*
X128321290Y-141576712D01*
X128334597Y-141570418D01*
X128348457Y-141565459D01*
X128362736Y-141561882D01*
X128377297Y-141559722D01*
X128392000Y-141559000D01*
X129992000Y-141559000D01*
X130006703Y-141559722D01*
G37*
G36*
X130006703Y-140289722D02*
G01*
X130021264Y-140291882D01*
X130035543Y-140295459D01*
X130049403Y-140300418D01*
X130062710Y-140306712D01*
X130075336Y-140314280D01*
X130087159Y-140323048D01*
X130098066Y-140332934D01*
X130107952Y-140343841D01*
X130116720Y-140355664D01*
X130124288Y-140368290D01*
X130130582Y-140381597D01*
X130135541Y-140395457D01*
X130139118Y-140409736D01*
X130141278Y-140424297D01*
X130142000Y-140439000D01*
X130142000Y-140739000D01*
X130141278Y-140753703D01*
X130139118Y-140768264D01*
X130135541Y-140782543D01*
X130130582Y-140796403D01*
X130124288Y-140809710D01*
X130116720Y-140822336D01*
X130107952Y-140834159D01*
X130098066Y-140845066D01*
X130087159Y-140854952D01*
X130075336Y-140863720D01*
X130062710Y-140871288D01*
X130049403Y-140877582D01*
X130035543Y-140882541D01*
X130021264Y-140886118D01*
X130006703Y-140888278D01*
X129992000Y-140889000D01*
X128392000Y-140889000D01*
X128377297Y-140888278D01*
X128362736Y-140886118D01*
X128348457Y-140882541D01*
X128334597Y-140877582D01*
X128321290Y-140871288D01*
X128308664Y-140863720D01*
X128296841Y-140854952D01*
X128285934Y-140845066D01*
X128276048Y-140834159D01*
X128267280Y-140822336D01*
X128259712Y-140809710D01*
X128253418Y-140796403D01*
X128248459Y-140782543D01*
X128244882Y-140768264D01*
X128242722Y-140753703D01*
X128242000Y-140739000D01*
X128242000Y-140439000D01*
X128242722Y-140424297D01*
X128244882Y-140409736D01*
X128248459Y-140395457D01*
X128253418Y-140381597D01*
X128259712Y-140368290D01*
X128267280Y-140355664D01*
X128276048Y-140343841D01*
X128285934Y-140332934D01*
X128296841Y-140323048D01*
X128308664Y-140314280D01*
X128321290Y-140306712D01*
X128334597Y-140300418D01*
X128348457Y-140295459D01*
X128362736Y-140291882D01*
X128377297Y-140289722D01*
X128392000Y-140289000D01*
X129992000Y-140289000D01*
X130006703Y-140289722D01*
G37*
G36*
X130006703Y-139019722D02*
G01*
X130021264Y-139021882D01*
X130035543Y-139025459D01*
X130049403Y-139030418D01*
X130062710Y-139036712D01*
X130075336Y-139044280D01*
X130087159Y-139053048D01*
X130098066Y-139062934D01*
X130107952Y-139073841D01*
X130116720Y-139085664D01*
X130124288Y-139098290D01*
X130130582Y-139111597D01*
X130135541Y-139125457D01*
X130139118Y-139139736D01*
X130141278Y-139154297D01*
X130142000Y-139169000D01*
X130142000Y-139469000D01*
X130141278Y-139483703D01*
X130139118Y-139498264D01*
X130135541Y-139512543D01*
X130130582Y-139526403D01*
X130124288Y-139539710D01*
X130116720Y-139552336D01*
X130107952Y-139564159D01*
X130098066Y-139575066D01*
X130087159Y-139584952D01*
X130075336Y-139593720D01*
X130062710Y-139601288D01*
X130049403Y-139607582D01*
X130035543Y-139612541D01*
X130021264Y-139616118D01*
X130006703Y-139618278D01*
X129992000Y-139619000D01*
X128392000Y-139619000D01*
X128377297Y-139618278D01*
X128362736Y-139616118D01*
X128348457Y-139612541D01*
X128334597Y-139607582D01*
X128321290Y-139601288D01*
X128308664Y-139593720D01*
X128296841Y-139584952D01*
X128285934Y-139575066D01*
X128276048Y-139564159D01*
X128267280Y-139552336D01*
X128259712Y-139539710D01*
X128253418Y-139526403D01*
X128248459Y-139512543D01*
X128244882Y-139498264D01*
X128242722Y-139483703D01*
X128242000Y-139469000D01*
X128242000Y-139169000D01*
X128242722Y-139154297D01*
X128244882Y-139139736D01*
X128248459Y-139125457D01*
X128253418Y-139111597D01*
X128259712Y-139098290D01*
X128267280Y-139085664D01*
X128276048Y-139073841D01*
X128285934Y-139062934D01*
X128296841Y-139053048D01*
X128308664Y-139044280D01*
X128321290Y-139036712D01*
X128334597Y-139030418D01*
X128348457Y-139025459D01*
X128362736Y-139021882D01*
X128377297Y-139019722D01*
X128392000Y-139019000D01*
X129992000Y-139019000D01*
X130006703Y-139019722D01*
G37*
M02*
