G04 #@! TF.GenerationSoftware,KiCad,Pcbnew,(5.1.5)-3*
G04 #@! TF.CreationDate,2020-04-19T00:38:59+08:00*
G04 #@! TF.ProjectId,HEMAC_POWER,48454d41-435f-4504-9f57-45522e6b6963,rev?*
G04 #@! TF.SameCoordinates,Original*
G04 #@! TF.FileFunction,Soldermask,Bot*
G04 #@! TF.FilePolarity,Negative*
%FSLAX46Y46*%
G04 Gerber Fmt 4.6, Leading zero omitted, Abs format (unit mm)*
G04 Created by KiCad (PCBNEW (5.1.5)-3) date 2020-04-19 00:38:59*
%MOMM*%
%LPD*%
G04 APERTURE LIST*
%ADD10C,0.150000*%
%ADD11C,0.200000*%
%ADD12C,8.800000*%
%ADD13C,0.100000*%
%ADD14R,2.000000X2.000000*%
%ADD15C,2.000000*%
%ADD16C,3.200000*%
%ADD17C,2.100000*%
%ADD18R,2.100000X2.100000*%
%ADD19C,2.200000*%
%ADD20R,2.200000X2.200000*%
%ADD21C,5.000000*%
%ADD22C,3.600000*%
%ADD23R,6.400000X4.400000*%
%ADD24O,2.400000X3.400000*%
G04 APERTURE END LIST*
D10*
G36*
X225000000Y-150000000D02*
G01*
X65000000Y-150000000D01*
X65000000Y-147000000D01*
X225000000Y-147000000D01*
X225000000Y-150000000D01*
G37*
X225000000Y-150000000D02*
X65000000Y-150000000D01*
X65000000Y-147000000D01*
X225000000Y-147000000D01*
X225000000Y-150000000D01*
G36*
X225000000Y-53000000D02*
G01*
X65000000Y-53000000D01*
X65000000Y-50000000D01*
X225000000Y-50000000D01*
X225000000Y-53000000D01*
G37*
X225000000Y-53000000D02*
X65000000Y-53000000D01*
X65000000Y-50000000D01*
X225000000Y-50000000D01*
X225000000Y-53000000D01*
D11*
X225000000Y-148000000D02*
G75*
G02X223000000Y-150000000I-2000000J0D01*
G01*
X67000000Y-150000000D02*
G75*
G02X65000000Y-148000000I0J2000000D01*
G01*
X65000000Y-52000000D02*
G75*
G02X67000000Y-50000000I2000000J0D01*
G01*
X223000000Y-50000000D02*
G75*
G02X225000000Y-52000000I0J-2000000D01*
G01*
X65000000Y-148000000D02*
X65000000Y-52000000D01*
X223000000Y-150000000D02*
X67000000Y-150000000D01*
X225000000Y-52000000D02*
X225000000Y-148000000D01*
X67000000Y-50000000D02*
X223000000Y-50000000D01*
D12*
X77952000Y-61646000D02*
G75*
G03X77952000Y-61646000I-1000000J0D01*
G01*
D13*
G36*
X84150000Y-113460000D02*
G01*
X82100000Y-114260000D01*
X81200000Y-116585000D01*
X81825000Y-118335000D01*
X84100000Y-120060000D01*
X86375000Y-120060000D01*
X86400000Y-112985000D01*
X84150000Y-112985000D01*
X84150000Y-113460000D01*
G37*
X84150000Y-113460000D02*
X82100000Y-114260000D01*
X81200000Y-116585000D01*
X81825000Y-118335000D01*
X84100000Y-120060000D01*
X86375000Y-120060000D01*
X86400000Y-112985000D01*
X84150000Y-112985000D01*
X84150000Y-113460000D01*
G36*
X73510000Y-119560000D02*
G01*
X75560000Y-118760000D01*
X76460000Y-116435000D01*
X75835000Y-114685000D01*
X73560000Y-112960000D01*
X71285000Y-112960000D01*
X71260000Y-120035000D01*
X73510000Y-120035000D01*
X73510000Y-119560000D01*
G37*
X73510000Y-119560000D02*
X75560000Y-118760000D01*
X76460000Y-116435000D01*
X75835000Y-114685000D01*
X73560000Y-112960000D01*
X71285000Y-112960000D01*
X71260000Y-120035000D01*
X73510000Y-120035000D01*
X73510000Y-119560000D01*
G36*
X71532000Y-140896000D02*
G01*
X73582000Y-140096000D01*
X74482000Y-137771000D01*
X73857000Y-136021000D01*
X71582000Y-134296000D01*
X69307000Y-134296000D01*
X69282000Y-141371000D01*
X71532000Y-141371000D01*
X71532000Y-140896000D01*
G37*
X71532000Y-140896000D02*
X73582000Y-140096000D01*
X74482000Y-137771000D01*
X73857000Y-136021000D01*
X71582000Y-134296000D01*
X69307000Y-134296000D01*
X69282000Y-141371000D01*
X71532000Y-141371000D01*
X71532000Y-140896000D01*
D10*
G36*
X219800000Y-57930000D02*
G01*
X224950000Y-57930000D01*
X224950000Y-53030000D01*
X219800000Y-53030000D01*
X219800000Y-57930000D01*
G37*
X219800000Y-57930000D02*
X224950000Y-57930000D01*
X224950000Y-53030000D01*
X219800000Y-53030000D01*
X219800000Y-57930000D01*
G36*
X219800000Y-146930000D02*
G01*
X224950000Y-146930000D01*
X224950000Y-142030000D01*
X219800000Y-142030000D01*
X219800000Y-146930000D01*
G37*
X219800000Y-146930000D02*
X224950000Y-146930000D01*
X224950000Y-142030000D01*
X219800000Y-142030000D01*
X219800000Y-146930000D01*
D14*
X158740000Y-139370000D03*
D15*
X158740000Y-142870000D03*
D13*
G36*
X85866664Y-120004849D02*
G01*
X85866619Y-120004849D01*
X85779157Y-120004829D01*
X85779009Y-120004829D01*
X85703222Y-120004767D01*
X85702950Y-120004767D01*
X85637998Y-120004643D01*
X85637538Y-120004642D01*
X85582584Y-120004436D01*
X85581964Y-120004432D01*
X85581856Y-120004431D01*
X85581856Y-120004432D01*
X85536059Y-120004127D01*
X85535674Y-120004124D01*
X85535441Y-120004122D01*
X85534896Y-120004116D01*
X85497416Y-120003692D01*
X85496444Y-120003679D01*
X85496073Y-120003673D01*
X85495561Y-120003664D01*
X85465561Y-120003102D01*
X85464333Y-120003075D01*
X85463730Y-120003060D01*
X85462543Y-120003027D01*
X85439182Y-120002307D01*
X85437215Y-120002237D01*
X85436207Y-120002196D01*
X85434144Y-120002101D01*
X85416583Y-120001205D01*
X85413095Y-120000997D01*
X85411330Y-120000876D01*
X85407756Y-120000598D01*
X85395156Y-119999507D01*
X85388514Y-119998820D01*
X85385215Y-119998423D01*
X85378664Y-119997525D01*
X85370185Y-119996219D01*
X85356900Y-119993711D01*
X85350304Y-119992233D01*
X85337202Y-119988827D01*
X85332006Y-119987287D01*
X85305011Y-119977117D01*
X85291949Y-119971087D01*
X85266698Y-119957138D01*
X85263944Y-119955346D01*
X85248042Y-119943850D01*
X85240390Y-119937725D01*
X85206510Y-119903089D01*
X85197754Y-119891641D01*
X85181903Y-119867481D01*
X85180753Y-119865417D01*
X85172049Y-119847814D01*
X85168141Y-119838825D01*
X85157669Y-119808148D01*
X85156095Y-119801928D01*
X85153343Y-119789371D01*
X85153299Y-119789134D01*
X85151232Y-119775333D01*
X85150440Y-119768402D01*
X85149340Y-119754478D01*
X85148946Y-119745514D01*
X85148853Y-119743059D01*
X85148816Y-119741890D01*
X85148758Y-119739673D01*
X85148329Y-119718801D01*
X85148324Y-119718561D01*
X85148318Y-119718251D01*
X85148302Y-119717250D01*
X85147842Y-119685181D01*
X85147840Y-119685033D01*
X85147838Y-119684886D01*
X85147832Y-119684444D01*
X85147347Y-119641888D01*
X85147347Y-119641856D01*
X85147346Y-119641767D01*
X85147342Y-119641446D01*
X85146838Y-119589111D01*
X85146837Y-119588821D01*
X85146836Y-119588821D01*
X85146316Y-119527419D01*
X85146317Y-119527419D01*
X85146314Y-119527201D01*
X85145784Y-119457441D01*
X85145783Y-119457263D01*
X85145250Y-119379854D01*
X85145249Y-119379716D01*
X85144715Y-119295370D01*
X85144715Y-119295242D01*
X85144714Y-119295242D01*
X85144187Y-119204667D01*
X85144187Y-119204557D01*
X85143670Y-119108463D01*
X85143670Y-119108357D01*
X85143669Y-119108357D01*
X85143169Y-119007455D01*
X85143169Y-119007356D01*
X85142690Y-118902355D01*
X85142692Y-118902355D01*
X85142689Y-118902260D01*
X85142236Y-118793870D01*
X85142236Y-118793855D01*
X85141552Y-118627929D01*
X85140746Y-118446288D01*
X85140747Y-118446282D01*
X85139929Y-118277007D01*
X85139930Y-118277007D01*
X85139101Y-118120102D01*
X85139100Y-118120102D01*
X85138259Y-117975433D01*
X85137408Y-117843135D01*
X85136545Y-117723020D01*
X85136546Y-117723005D01*
X85135677Y-117615833D01*
X85134797Y-117520937D01*
X85134039Y-117450648D01*
X85074335Y-117450738D01*
X85010143Y-117450900D01*
X84943706Y-117451126D01*
X84876740Y-117451410D01*
X84876729Y-117451409D01*
X84810448Y-117451747D01*
X84746027Y-117452131D01*
X84684192Y-117452561D01*
X84684181Y-117452560D01*
X84660040Y-117452756D01*
X84655292Y-117489948D01*
X84655144Y-117491079D01*
X84655069Y-117491641D01*
X84654918Y-117492755D01*
X84650264Y-117526194D01*
X84649962Y-117528282D01*
X84649817Y-117529249D01*
X84649541Y-117531032D01*
X84645448Y-117556744D01*
X84644467Y-117562387D01*
X84643933Y-117565217D01*
X84642776Y-117570893D01*
X84627216Y-117641988D01*
X84625690Y-117648447D01*
X84624877Y-117651649D01*
X84623154Y-117657997D01*
X84599991Y-117738085D01*
X84598391Y-117743344D01*
X84597552Y-117745972D01*
X84595794Y-117751227D01*
X84566570Y-117834709D01*
X84564828Y-117839490D01*
X84563927Y-117841868D01*
X84562065Y-117846599D01*
X84527897Y-117930293D01*
X84525847Y-117935132D01*
X84524795Y-117937527D01*
X84522639Y-117942267D01*
X84484645Y-118022990D01*
X84483348Y-118025691D01*
X84482697Y-118027022D01*
X84481390Y-118029647D01*
X84479129Y-118034103D01*
X84478116Y-118036072D01*
X84477568Y-118037123D01*
X84476385Y-118039357D01*
X84438270Y-118110257D01*
X84435423Y-118115372D01*
X84433963Y-118117907D01*
X84430972Y-118122930D01*
X84392743Y-118185036D01*
X84388885Y-118191060D01*
X84386901Y-118194039D01*
X84382822Y-118199930D01*
X84342007Y-118256696D01*
X84337639Y-118262544D01*
X84335406Y-118265422D01*
X84330843Y-118271087D01*
X84284969Y-118325968D01*
X84280967Y-118330610D01*
X84278926Y-118332905D01*
X84274764Y-118337442D01*
X84221358Y-118393895D01*
X84215809Y-118399533D01*
X84212986Y-118402290D01*
X84207245Y-118407680D01*
X84142212Y-118466372D01*
X84133878Y-118473489D01*
X84129620Y-118476928D01*
X84120920Y-118483570D01*
X84040476Y-118541567D01*
X84031396Y-118547741D01*
X84026777Y-118550700D01*
X84017382Y-118556362D01*
X83930527Y-118605505D01*
X83920977Y-118610572D01*
X83916135Y-118612976D01*
X83906318Y-118617524D01*
X83814982Y-118656867D01*
X83804669Y-118660974D01*
X83799459Y-118662883D01*
X83788932Y-118666412D01*
X83695044Y-118695013D01*
X83683592Y-118698133D01*
X83677829Y-118699521D01*
X83666228Y-118701954D01*
X83571718Y-118718866D01*
X83563795Y-118720120D01*
X83559826Y-118720667D01*
X83551872Y-118721602D01*
X83531114Y-118723620D01*
X83523304Y-118724225D01*
X83519377Y-118724452D01*
X83511480Y-118724752D01*
X83424204Y-118726343D01*
X83412986Y-118726233D01*
X83407391Y-118726021D01*
X83396227Y-118725284D01*
X83304875Y-118716688D01*
X83294878Y-118715493D01*
X83289891Y-118714769D01*
X83279941Y-118713067D01*
X83186729Y-118694691D01*
X83177368Y-118692612D01*
X83172725Y-118691463D01*
X83163513Y-118688948D01*
X83070659Y-118661204D01*
X83061560Y-118658246D01*
X83057042Y-118656657D01*
X83048072Y-118653259D01*
X82957792Y-118616554D01*
X82952864Y-118614473D01*
X82950417Y-118613401D01*
X82945556Y-118611194D01*
X82935375Y-118606406D01*
X82931984Y-118604771D01*
X82930296Y-118603938D01*
X82926935Y-118602241D01*
X82856125Y-118565624D01*
X82849526Y-118562053D01*
X82846250Y-118560200D01*
X82839745Y-118556356D01*
X82773900Y-118515755D01*
X82767222Y-118511452D01*
X82763933Y-118509239D01*
X82757455Y-118504692D01*
X82693980Y-118458232D01*
X82688144Y-118453794D01*
X82685275Y-118451528D01*
X82679633Y-118446901D01*
X82615936Y-118392704D01*
X82611474Y-118388793D01*
X82609260Y-118386793D01*
X82604867Y-118382703D01*
X82538354Y-118318892D01*
X82535935Y-118316531D01*
X82534754Y-118315359D01*
X82532449Y-118313034D01*
X82507854Y-118287814D01*
X82505060Y-118284891D01*
X82503673Y-118283410D01*
X82500918Y-118280408D01*
X82429774Y-118201271D01*
X82425352Y-118196182D01*
X82423192Y-118193610D01*
X82418974Y-118188413D01*
X82354533Y-118106247D01*
X82350364Y-118100738D01*
X82348326Y-118097946D01*
X82344343Y-118092286D01*
X82284926Y-118004674D01*
X82281369Y-117999242D01*
X82279636Y-117996499D01*
X82276261Y-117990959D01*
X82220188Y-117895483D01*
X82217420Y-117890616D01*
X82216073Y-117888168D01*
X82213453Y-117883244D01*
X82159045Y-117777485D01*
X82157972Y-117775369D01*
X82157426Y-117774276D01*
X82156315Y-117772018D01*
X82154645Y-117768567D01*
X82154505Y-117768276D01*
X82154385Y-117768027D01*
X82154047Y-117767322D01*
X82139756Y-117737369D01*
X82139064Y-117735904D01*
X82138722Y-117735172D01*
X82138045Y-117733708D01*
X82125588Y-117706475D01*
X82124657Y-117704408D01*
X82124207Y-117703394D01*
X82123337Y-117701405D01*
X82111719Y-117674440D01*
X82110811Y-117672299D01*
X82110368Y-117671237D01*
X82109504Y-117669131D01*
X82097731Y-117639978D01*
X82097072Y-117638324D01*
X82096732Y-117637460D01*
X82096033Y-117635658D01*
X82083109Y-117601861D01*
X82082637Y-117600615D01*
X82082423Y-117600044D01*
X82082037Y-117599006D01*
X82066968Y-117558111D01*
X82066780Y-117557599D01*
X82066666Y-117557287D01*
X82066399Y-117556551D01*
X82048190Y-117506104D01*
X82047861Y-117505185D01*
X82047711Y-117504763D01*
X82047440Y-117503996D01*
X82041553Y-117487218D01*
X82040818Y-117485086D01*
X82040452Y-117484004D01*
X82039723Y-117481805D01*
X82022072Y-117427561D01*
X82021264Y-117425023D01*
X82020879Y-117423784D01*
X82020145Y-117421369D01*
X82002582Y-117362224D01*
X82001990Y-117360188D01*
X82001680Y-117359102D01*
X82001035Y-117356792D01*
X81984718Y-117296918D01*
X81984088Y-117294546D01*
X81983784Y-117293374D01*
X81983197Y-117291058D01*
X81969278Y-117234631D01*
X81968508Y-117231390D01*
X81968144Y-117229801D01*
X81967456Y-117226686D01*
X81957092Y-117177879D01*
X81956634Y-117175661D01*
X81956412Y-117174554D01*
X81955981Y-117172341D01*
X81951242Y-117147245D01*
X81945261Y-117115846D01*
X81940069Y-117088860D01*
X81936442Y-117070349D01*
X81936272Y-117069471D01*
X81936228Y-117069241D01*
X81936220Y-117069199D01*
X81935903Y-117067540D01*
X81934794Y-117061180D01*
X81934289Y-117057980D01*
X81933380Y-117051541D01*
X81930560Y-117028917D01*
X81929893Y-117022807D01*
X81929606Y-117019739D01*
X81929126Y-117013575D01*
X81927321Y-116984668D01*
X81927077Y-116979808D01*
X81926985Y-116977390D01*
X81926859Y-116972579D01*
X81926449Y-116943219D01*
X81926430Y-116940287D01*
X81926431Y-116938843D01*
X81926453Y-116936002D01*
X81926630Y-116924125D01*
X81925780Y-116921197D01*
X81921649Y-116906386D01*
X81919417Y-116897623D01*
X81918404Y-116893233D01*
X81916582Y-116884438D01*
X81909830Y-116847723D01*
X81908637Y-116840496D01*
X81908105Y-116836859D01*
X81907172Y-116829537D01*
X81901967Y-116781681D01*
X81901519Y-116777065D01*
X81901322Y-116774757D01*
X81900981Y-116770139D01*
X81897296Y-116710773D01*
X81897124Y-116707597D01*
X81897052Y-116706036D01*
X81896935Y-116702969D01*
X81894744Y-116631723D01*
X81894689Y-116629563D01*
X81894667Y-116628460D01*
X81894635Y-116626209D01*
X81893910Y-116542714D01*
X81893902Y-116541280D01*
X81893901Y-116540619D01*
X81893903Y-116539410D01*
X81894010Y-116515801D01*
X81894038Y-116513254D01*
X81894060Y-116511980D01*
X81894120Y-116509429D01*
X81897704Y-116390105D01*
X81897859Y-116386217D01*
X81897957Y-116384238D01*
X81898197Y-116380208D01*
X81906609Y-116259655D01*
X81906923Y-116255721D01*
X81907096Y-116253791D01*
X81907471Y-116250006D01*
X81920360Y-116131589D01*
X81920842Y-116127549D01*
X81921106Y-116125510D01*
X81921682Y-116121395D01*
X81938694Y-116008479D01*
X81939465Y-116003748D01*
X81939876Y-116001403D01*
X81940747Y-115996755D01*
X81961530Y-115892706D01*
X81962091Y-115889995D01*
X81962381Y-115888641D01*
X81962984Y-115885920D01*
X81964047Y-115881273D01*
X81964048Y-115881266D01*
X81969687Y-115856576D01*
X81975248Y-115832167D01*
X81975488Y-115831123D01*
X81975608Y-115830609D01*
X81975847Y-115829597D01*
X81979806Y-115813029D01*
X81980463Y-115810362D01*
X81980805Y-115809013D01*
X81981518Y-115806282D01*
X81994050Y-115759624D01*
X81994763Y-115757040D01*
X81995123Y-115755768D01*
X81995849Y-115753265D01*
X82011890Y-115699281D01*
X82012501Y-115697263D01*
X82012797Y-115696304D01*
X82013368Y-115694483D01*
X82031944Y-115636276D01*
X82032500Y-115634561D01*
X82032785Y-115633695D01*
X82033369Y-115631948D01*
X82053502Y-115572618D01*
X82054104Y-115570871D01*
X82054425Y-115569953D01*
X82055110Y-115568027D01*
X82075825Y-115510674D01*
X82076651Y-115508429D01*
X82077052Y-115507359D01*
X82077827Y-115505324D01*
X82092500Y-115467432D01*
X82094153Y-115463299D01*
X82095001Y-115461246D01*
X82096739Y-115457168D01*
X82147429Y-115341766D01*
X82149996Y-115336159D01*
X82151327Y-115333366D01*
X82154086Y-115327801D01*
X82212793Y-115213861D01*
X82215666Y-115208487D01*
X82217143Y-115205823D01*
X82220177Y-115200541D01*
X82284900Y-115091753D01*
X82288360Y-115086151D01*
X82290134Y-115083381D01*
X82293771Y-115077901D01*
X82362514Y-114977958D01*
X82365094Y-114974296D01*
X82366409Y-114972473D01*
X82369090Y-114968843D01*
X82375871Y-114959876D01*
X82377913Y-114957223D01*
X82378955Y-114955892D01*
X82381082Y-114953223D01*
X82412573Y-114914382D01*
X82415051Y-114911384D01*
X82416307Y-114909895D01*
X82418852Y-114906938D01*
X82455947Y-114864663D01*
X82457952Y-114862412D01*
X82458956Y-114861302D01*
X82460966Y-114859113D01*
X82501454Y-114815666D01*
X82503354Y-114813655D01*
X82504291Y-114812677D01*
X82506138Y-114810775D01*
X82547811Y-114768417D01*
X82549796Y-114766427D01*
X82550818Y-114765417D01*
X82552922Y-114763369D01*
X82593570Y-114724361D01*
X82596168Y-114721911D01*
X82597491Y-114720686D01*
X82600187Y-114718235D01*
X82637599Y-114684839D01*
X82641799Y-114681194D01*
X82643900Y-114679421D01*
X82648100Y-114675973D01*
X82680068Y-114650450D01*
X82683793Y-114647548D01*
X82685684Y-114646110D01*
X82689525Y-114643260D01*
X82701671Y-114634474D01*
X82705468Y-114631794D01*
X82707372Y-114630483D01*
X82711190Y-114627919D01*
X82809448Y-114563543D01*
X82817207Y-114558709D01*
X82821155Y-114556373D01*
X82829191Y-114551865D01*
X82927163Y-114499832D01*
X82936364Y-114495244D01*
X82941014Y-114493073D01*
X82950411Y-114488976D01*
X83048865Y-114449018D01*
X83059223Y-114445144D01*
X83064439Y-114443356D01*
X83074944Y-114440075D01*
X83174649Y-114411921D01*
X83185597Y-114409161D01*
X83191121Y-114407933D01*
X83202271Y-114405784D01*
X83303996Y-114389163D01*
X83314998Y-114387678D01*
X83320501Y-114387090D01*
X83331510Y-114386220D01*
X83436025Y-114380862D01*
X83447454Y-114380604D01*
X83453174Y-114380638D01*
X83464624Y-114381034D01*
X83538454Y-114385709D01*
X83549989Y-114386775D01*
X83555738Y-114387475D01*
X83567202Y-114389210D01*
X83652509Y-114404658D01*
X83663090Y-114406871D01*
X83668340Y-114408118D01*
X83678757Y-114410891D01*
X83765479Y-114436497D01*
X83775039Y-114439582D01*
X83779786Y-114441247D01*
X83789216Y-114444824D01*
X83875162Y-114479929D01*
X83884272Y-114483918D01*
X83888766Y-114486020D01*
X83897630Y-114490436D01*
X83980610Y-114534380D01*
X83987390Y-114538141D01*
X83990747Y-114540089D01*
X83997396Y-114544122D01*
X84036991Y-114569205D01*
X84044188Y-114573985D01*
X84047738Y-114576455D01*
X84054741Y-114581556D01*
X84138778Y-114645601D01*
X84147747Y-114652855D01*
X84152122Y-114656607D01*
X84160653Y-114664361D01*
X84238566Y-114739389D01*
X84246190Y-114747140D01*
X84249896Y-114751119D01*
X84257094Y-114759283D01*
X84328718Y-114845105D01*
X84335001Y-114853032D01*
X84338039Y-114857071D01*
X84343910Y-114865301D01*
X84409082Y-114961731D01*
X84414119Y-114969573D01*
X84416540Y-114973542D01*
X84421188Y-114981574D01*
X84479744Y-115088424D01*
X84481877Y-115092424D01*
X84482934Y-115094461D01*
X84485026Y-115098609D01*
X84489906Y-115108573D01*
X84490390Y-115109569D01*
X84490602Y-115110008D01*
X84490968Y-115110770D01*
X84506959Y-115144244D01*
X84507559Y-115145511D01*
X84507863Y-115146159D01*
X84508478Y-115147483D01*
X84523054Y-115179152D01*
X84523767Y-115180718D01*
X84524126Y-115181516D01*
X84524849Y-115183144D01*
X84536571Y-115209833D01*
X84537871Y-115212860D01*
X84538506Y-115214373D01*
X84539746Y-115217395D01*
X84547171Y-115235929D01*
X84548464Y-115239243D01*
X84549095Y-115240903D01*
X84550326Y-115244230D01*
X84554956Y-115257092D01*
X84564535Y-115283431D01*
X84572798Y-115305852D01*
X84572799Y-115305852D01*
X84572854Y-115306001D01*
X84573108Y-115306695D01*
X84575837Y-115314173D01*
X84576548Y-115316153D01*
X84576894Y-115317133D01*
X84577568Y-115319075D01*
X84585140Y-115341245D01*
X84586193Y-115344413D01*
X84586704Y-115345995D01*
X84587695Y-115349152D01*
X84593175Y-115367129D01*
X84593873Y-115369470D01*
X84594224Y-115370674D01*
X84594927Y-115373145D01*
X84597192Y-115381301D01*
X84602746Y-115400562D01*
X84609370Y-115422890D01*
X84610365Y-115426358D01*
X84610842Y-115428079D01*
X84611755Y-115431489D01*
X84626004Y-115486665D01*
X84627447Y-115492632D01*
X84628122Y-115495622D01*
X84629380Y-115501617D01*
X84642577Y-115569723D01*
X84643396Y-115574225D01*
X84643780Y-115576482D01*
X84644497Y-115581008D01*
X84654207Y-115647225D01*
X85129225Y-115647225D01*
X85129225Y-115538450D01*
X85129222Y-115525392D01*
X85129155Y-115471282D01*
X85129156Y-115471282D01*
X85129009Y-115406260D01*
X85128787Y-115330893D01*
X85128495Y-115246533D01*
X85128138Y-115154260D01*
X85128139Y-115154260D01*
X85127722Y-115055344D01*
X85127723Y-115055337D01*
X85127251Y-114950943D01*
X85126730Y-114841993D01*
X85126731Y-114841993D01*
X85126164Y-114729859D01*
X85125558Y-114615520D01*
X85124918Y-114500172D01*
X85124248Y-114384891D01*
X85124249Y-114384891D01*
X85123555Y-114270938D01*
X85123232Y-114218814D01*
X85123232Y-114218771D01*
X85122493Y-114096113D01*
X85122493Y-114096031D01*
X85122492Y-114096031D01*
X85121861Y-113985261D01*
X85121861Y-113985147D01*
X85121340Y-113885683D01*
X85121340Y-113885525D01*
X85121339Y-113885525D01*
X85120930Y-113796786D01*
X85120931Y-113796786D01*
X85120928Y-113796573D01*
X85120633Y-113717977D01*
X85120632Y-113717226D01*
X85120632Y-113717167D01*
X85120455Y-113648650D01*
X85120454Y-113648134D01*
X85120454Y-113648056D01*
X85120393Y-113588207D01*
X85120393Y-113587668D01*
X85120452Y-113536016D01*
X85120454Y-113535263D01*
X85120636Y-113491428D01*
X85120643Y-113490353D01*
X85120645Y-113490143D01*
X85120949Y-113453779D01*
X85120952Y-113453464D01*
X85120955Y-113453162D01*
X85120966Y-113452270D01*
X85121397Y-113422329D01*
X85121415Y-113421235D01*
X85121424Y-113420782D01*
X85121440Y-113420064D01*
X85122000Y-113396197D01*
X85122033Y-113394942D01*
X85122054Y-113394236D01*
X85122107Y-113392666D01*
X85122798Y-113374292D01*
X85122903Y-113371897D01*
X85122961Y-113370728D01*
X85123087Y-113368449D01*
X85123909Y-113354988D01*
X85124218Y-113350683D01*
X85124397Y-113348520D01*
X85124805Y-113344170D01*
X85125762Y-113335038D01*
X85126991Y-113325522D01*
X85127719Y-113320782D01*
X85129402Y-113311339D01*
X85130495Y-113305957D01*
X85135341Y-113286934D01*
X85138224Y-113277566D01*
X85149477Y-113249009D01*
X85151895Y-113244031D01*
X85156997Y-113234226D01*
X85158228Y-113232012D01*
X85168585Y-113215363D01*
X85174164Y-113207304D01*
X85199550Y-113177394D01*
X85206595Y-113170579D01*
X85233572Y-113148681D01*
X85239840Y-113144440D01*
X85252690Y-113136437D01*
X85252697Y-113136433D01*
X85270186Y-113127548D01*
X85279132Y-113123542D01*
X85317166Y-113110910D01*
X85327151Y-113108674D01*
X85347352Y-113105226D01*
X85355067Y-113104313D01*
X85362392Y-113103583D01*
X85366039Y-113103287D01*
X85373303Y-113102830D01*
X85392735Y-113101963D01*
X85394423Y-113101895D01*
X85395308Y-113101863D01*
X85397160Y-113101804D01*
X85427328Y-113100993D01*
X85428377Y-113100968D01*
X85428793Y-113100959D01*
X85429408Y-113100946D01*
X85469333Y-113100205D01*
X85469832Y-113100197D01*
X85470579Y-113100185D01*
X85519281Y-113099524D01*
X85519709Y-113099519D01*
X85519884Y-113099517D01*
X85520152Y-113099514D01*
X85576653Y-113098944D01*
X85576653Y-113098945D01*
X85577331Y-113098937D01*
X85640651Y-113098470D01*
X85641223Y-113098468D01*
X85710381Y-113098116D01*
X85710887Y-113098113D01*
X85784906Y-113097886D01*
X85785390Y-113097885D01*
X85863288Y-113097797D01*
X85863519Y-113097797D01*
X86341514Y-113097700D01*
X86361122Y-113098660D01*
X86370877Y-113099619D01*
X86409322Y-113107257D01*
X86418702Y-113110100D01*
X86454940Y-113125102D01*
X86463585Y-113129721D01*
X86496176Y-113151488D01*
X86503754Y-113157704D01*
X86531490Y-113185427D01*
X86537710Y-113193003D01*
X86560876Y-113228221D01*
X86566044Y-113238239D01*
X86575245Y-113258854D01*
X86581256Y-113274664D01*
X86587086Y-113292467D01*
X86589579Y-113301488D01*
X86593720Y-113319768D01*
X86594412Y-113323662D01*
X86595987Y-113334124D01*
X86596634Y-113339359D01*
X86597650Y-113349838D01*
X86598797Y-113366122D01*
X86598992Y-113369239D01*
X86599080Y-113370846D01*
X86599234Y-113374158D01*
X86600285Y-113401708D01*
X86600331Y-113403029D01*
X86600352Y-113403695D01*
X86600390Y-113405039D01*
X86601330Y-113442941D01*
X86601346Y-113443679D01*
X86601354Y-113444058D01*
X86601369Y-113444836D01*
X86602184Y-113492176D01*
X86602200Y-113493285D01*
X86602203Y-113493542D01*
X86602877Y-113549327D01*
X86602881Y-113549681D01*
X86602883Y-113549875D01*
X86602887Y-113550296D01*
X86603408Y-113613776D01*
X86603411Y-113614167D01*
X86603412Y-113614327D01*
X86603413Y-113614577D01*
X86603762Y-113684318D01*
X86603763Y-113684457D01*
X86603768Y-113685451D01*
X86603937Y-113761417D01*
X86603937Y-113761900D01*
X86604026Y-113822441D01*
X86604205Y-113890964D01*
X86604458Y-113956122D01*
X86604457Y-113956128D01*
X86604775Y-114016498D01*
X86605145Y-114070561D01*
X86605561Y-114117448D01*
X86606010Y-114155481D01*
X86606455Y-114181837D01*
X86606905Y-114197359D01*
X86607000Y-114200256D01*
X86607044Y-114201776D01*
X86607063Y-114202529D01*
X86607096Y-114204035D01*
X86607402Y-114221327D01*
X86607406Y-114221598D01*
X86607411Y-114221904D01*
X86607425Y-114222856D01*
X86607762Y-114251952D01*
X86607767Y-114252574D01*
X86607768Y-114252574D01*
X86608134Y-114292836D01*
X86608133Y-114292836D01*
X86608137Y-114293189D01*
X86608527Y-114343981D01*
X86608528Y-114344204D01*
X86608940Y-114404889D01*
X86608941Y-114405049D01*
X86609371Y-114474989D01*
X86609371Y-114475110D01*
X86609372Y-114475110D01*
X86609817Y-114553668D01*
X86609817Y-114553767D01*
X86610273Y-114640306D01*
X86610273Y-114640388D01*
X86610274Y-114640388D01*
X86610738Y-114734271D01*
X86610738Y-114734338D01*
X86611208Y-114834928D01*
X86611206Y-114834928D01*
X86611209Y-114834992D01*
X86611680Y-114941651D01*
X86611680Y-114941706D01*
X86612150Y-115053798D01*
X86612150Y-115053852D01*
X86612615Y-115170740D01*
X86612615Y-115170791D01*
X86612616Y-115170791D01*
X86613073Y-115291837D01*
X86613073Y-115291888D01*
X86613518Y-115416455D01*
X86613518Y-115416504D01*
X86613948Y-115543956D01*
X86613948Y-115543976D01*
X86614055Y-115576471D01*
X86614484Y-115705260D01*
X86614915Y-115831969D01*
X86615345Y-115955896D01*
X86615720Y-116061548D01*
X86639018Y-116063843D01*
X86676537Y-116075224D01*
X86711114Y-116093706D01*
X86741421Y-116118579D01*
X86766294Y-116148886D01*
X86784776Y-116183463D01*
X86796157Y-116220982D01*
X86800000Y-116260000D01*
X86800000Y-116760000D01*
X86796157Y-116799018D01*
X86784776Y-116836537D01*
X86766294Y-116871114D01*
X86741421Y-116901421D01*
X86711114Y-116926294D01*
X86676537Y-116944776D01*
X86639018Y-116956157D01*
X86619383Y-116958091D01*
X86619439Y-116967757D01*
X86619605Y-116990799D01*
X86619606Y-116990965D01*
X86619690Y-117003812D01*
X86619689Y-117003812D01*
X86619693Y-117004368D01*
X86619808Y-117031033D01*
X86619809Y-117031287D01*
X86619933Y-117068850D01*
X86619934Y-117069510D01*
X86620066Y-117116726D01*
X86620067Y-117117283D01*
X86620067Y-117117299D01*
X86620207Y-117174021D01*
X86620207Y-117174080D01*
X86620208Y-117174080D01*
X86620355Y-117240049D01*
X86620355Y-117240090D01*
X86620508Y-117314096D01*
X86620508Y-117314126D01*
X86620666Y-117395455D01*
X86620666Y-117395483D01*
X86620827Y-117483420D01*
X86620827Y-117483438D01*
X86620992Y-117577268D01*
X86620992Y-117577289D01*
X86621158Y-117676297D01*
X86621158Y-117676312D01*
X86621325Y-117779782D01*
X86621325Y-117780108D01*
X86621493Y-117887012D01*
X86621493Y-117887328D01*
X86621659Y-117997277D01*
X86621659Y-117997580D01*
X86621824Y-118109854D01*
X86621824Y-118110149D01*
X86621985Y-118224036D01*
X86621985Y-118224320D01*
X86622143Y-118339101D01*
X86622143Y-118339378D01*
X86622297Y-118454339D01*
X86622297Y-118454609D01*
X86622444Y-118569038D01*
X86622444Y-118569296D01*
X86622585Y-118682473D01*
X86622585Y-118682724D01*
X86622719Y-118793937D01*
X86622719Y-118794180D01*
X86622844Y-118902714D01*
X86622844Y-118902946D01*
X86622959Y-119008089D01*
X86622959Y-119008310D01*
X86623064Y-119109345D01*
X86623064Y-119109555D01*
X86623158Y-119205769D01*
X86623158Y-119205968D01*
X86623239Y-119296649D01*
X86623239Y-119296832D01*
X86623307Y-119381266D01*
X86623307Y-119381432D01*
X86623361Y-119458910D01*
X86623361Y-119459056D01*
X86623400Y-119528866D01*
X86623400Y-119528987D01*
X86623423Y-119590424D01*
X86623423Y-119590512D01*
X86623429Y-119642877D01*
X86623429Y-119642982D01*
X86623416Y-119685531D01*
X86623416Y-119685697D01*
X86623385Y-119717691D01*
X86623384Y-119718064D01*
X86623333Y-119738788D01*
X86623329Y-119739680D01*
X86623327Y-119739969D01*
X86623325Y-119740233D01*
X86623253Y-119748972D01*
X86622129Y-119768566D01*
X86621088Y-119778312D01*
X86613125Y-119816692D01*
X86610203Y-119826048D01*
X86594895Y-119862162D01*
X86590203Y-119870768D01*
X86573597Y-119896364D01*
X86570285Y-119900704D01*
X86563416Y-119909212D01*
X86562676Y-119910079D01*
X86549214Y-119924368D01*
X86542150Y-119931164D01*
X86511373Y-119955442D01*
X86503120Y-119960729D01*
X86467094Y-119978967D01*
X86457403Y-119982698D01*
X86437637Y-119989150D01*
X86432377Y-119990569D01*
X86417648Y-119993951D01*
X86410228Y-119995362D01*
X86395275Y-119997623D01*
X86384367Y-119998853D01*
X86379286Y-119999361D01*
X86376722Y-119999584D01*
X86371548Y-119999966D01*
X86354287Y-120001017D01*
X86351769Y-120001155D01*
X86350546Y-120001214D01*
X86348174Y-120001314D01*
X86323854Y-120002198D01*
X86322469Y-120002244D01*
X86321789Y-120002264D01*
X86320452Y-120002298D01*
X86288367Y-120003027D01*
X86287679Y-120003042D01*
X86287264Y-120003050D01*
X86286294Y-120003066D01*
X86245741Y-120003651D01*
X86245111Y-120003659D01*
X86244845Y-120003662D01*
X86244412Y-120003667D01*
X86194684Y-120004120D01*
X86193992Y-120004125D01*
X86193815Y-120004126D01*
X86193799Y-120004126D01*
X86134193Y-120004458D01*
X86133595Y-120004461D01*
X86063404Y-120004684D01*
X86062994Y-120004685D01*
X85981513Y-120004810D01*
X85981236Y-120004810D01*
X85887760Y-120004850D01*
X85887641Y-120004850D01*
X85866664Y-120004849D01*
G37*
G36*
X84062275Y-120325078D02*
G01*
X84061481Y-120325073D01*
X84059798Y-120325055D01*
X84025470Y-120324550D01*
X84024389Y-120324532D01*
X84023892Y-120324522D01*
X84022988Y-120324501D01*
X83982652Y-120323507D01*
X83981730Y-120323482D01*
X83981354Y-120323471D01*
X83980769Y-120323453D01*
X83936278Y-120322021D01*
X83935595Y-120321998D01*
X83935258Y-120321986D01*
X83934594Y-120321962D01*
X83887798Y-120320140D01*
X83887446Y-120320126D01*
X83887102Y-120320112D01*
X83886080Y-120320067D01*
X83838832Y-120317902D01*
X83837638Y-120317844D01*
X83837252Y-120317824D01*
X83836899Y-120317805D01*
X83791048Y-120315348D01*
X83788985Y-120315227D01*
X83787953Y-120315161D01*
X83785889Y-120315018D01*
X83685379Y-120307545D01*
X83681764Y-120307244D01*
X83679950Y-120307076D01*
X83676310Y-120306705D01*
X83549874Y-120292658D01*
X83545977Y-120292186D01*
X83544023Y-120291930D01*
X83540106Y-120291378D01*
X83410362Y-120271762D01*
X83406781Y-120271187D01*
X83404967Y-120270879D01*
X83401289Y-120270219D01*
X83266392Y-120244713D01*
X83263116Y-120244065D01*
X83261498Y-120243731D01*
X83258302Y-120243044D01*
X83116406Y-120211326D01*
X83113604Y-120210679D01*
X83112213Y-120210347D01*
X83109453Y-120209667D01*
X82958711Y-120171416D01*
X82957452Y-120171093D01*
X82956773Y-120170916D01*
X82955316Y-120170530D01*
X82951621Y-120169537D01*
X82950675Y-120169280D01*
X82950248Y-120169163D01*
X82949485Y-120168952D01*
X82916804Y-120159858D01*
X82915623Y-120159526D01*
X82915107Y-120159379D01*
X82914225Y-120159125D01*
X82876468Y-120148181D01*
X82875827Y-120147994D01*
X82875459Y-120147886D01*
X82874625Y-120147640D01*
X82834676Y-120135727D01*
X82833829Y-120135472D01*
X82833499Y-120135372D01*
X82833027Y-120135228D01*
X82793769Y-120123226D01*
X82793207Y-120123053D01*
X82792838Y-120122939D01*
X82791924Y-120122655D01*
X82756242Y-120111444D01*
X82755223Y-120111121D01*
X82754695Y-120110952D01*
X82753601Y-120110598D01*
X82724378Y-120101059D01*
X82722181Y-120100328D01*
X82721117Y-120099967D01*
X82719061Y-120099257D01*
X82699181Y-120092270D01*
X82696444Y-120091285D01*
X82695074Y-120090781D01*
X82692329Y-120089749D01*
X82637335Y-120068597D01*
X82636114Y-120068123D01*
X82635502Y-120067883D01*
X82634276Y-120067397D01*
X82533578Y-120027139D01*
X82531544Y-120026313D01*
X82530526Y-120025893D01*
X82528489Y-120025039D01*
X82436059Y-119985705D01*
X82433665Y-119984668D01*
X82432452Y-119984133D01*
X82429994Y-119983029D01*
X82343112Y-119943303D01*
X82340426Y-119942051D01*
X82339111Y-119941426D01*
X82336537Y-119940180D01*
X82252483Y-119898747D01*
X82249873Y-119897436D01*
X82248580Y-119896775D01*
X82246016Y-119895441D01*
X82162072Y-119850986D01*
X82159775Y-119849750D01*
X82158622Y-119849120D01*
X82156307Y-119847835D01*
X82069753Y-119799043D01*
X82067883Y-119797976D01*
X82066947Y-119797435D01*
X82065075Y-119796340D01*
X81973192Y-119741895D01*
X81972294Y-119741360D01*
X81971752Y-119741035D01*
X81970483Y-119740267D01*
X81921236Y-119710238D01*
X81920054Y-119709511D01*
X81919526Y-119709184D01*
X81918592Y-119708603D01*
X81858723Y-119671068D01*
X81856924Y-119669927D01*
X81856036Y-119669357D01*
X81854287Y-119668220D01*
X81801435Y-119633511D01*
X81799153Y-119631991D01*
X81798003Y-119631213D01*
X81795683Y-119629619D01*
X81747395Y-119595951D01*
X81744829Y-119594131D01*
X81743550Y-119593209D01*
X81741001Y-119591341D01*
X81694826Y-119556933D01*
X81692355Y-119555063D01*
X81691140Y-119554128D01*
X81688750Y-119552259D01*
X81642237Y-119515328D01*
X81640252Y-119513732D01*
X81639263Y-119512926D01*
X81637293Y-119511299D01*
X81587992Y-119470061D01*
X81586608Y-119468893D01*
X81585919Y-119468306D01*
X81584547Y-119467126D01*
X81530006Y-119419801D01*
X81529679Y-119419516D01*
X81529500Y-119419360D01*
X81529115Y-119419024D01*
X81520091Y-119411118D01*
X81493771Y-119388336D01*
X81470064Y-119368177D01*
X81452016Y-119353173D01*
X81441596Y-119344897D01*
X81441358Y-119344715D01*
X81437115Y-119341370D01*
X81435016Y-119339669D01*
X81430851Y-119336199D01*
X81412198Y-119320226D01*
X81408824Y-119317271D01*
X81407142Y-119315764D01*
X81403787Y-119312689D01*
X81378610Y-119289077D01*
X81376848Y-119287403D01*
X81376003Y-119286591D01*
X81374385Y-119285019D01*
X81344305Y-119255454D01*
X81343206Y-119254366D01*
X81342651Y-119253812D01*
X81341528Y-119252681D01*
X81308167Y-119218845D01*
X81307265Y-119217925D01*
X81306827Y-119217475D01*
X81305977Y-119216596D01*
X81270957Y-119180174D01*
X81270160Y-119179341D01*
X81269757Y-119178917D01*
X81268944Y-119178056D01*
X81233886Y-119140731D01*
X81233061Y-119139847D01*
X81232636Y-119139389D01*
X81231759Y-119138439D01*
X81198286Y-119101896D01*
X81197225Y-119100728D01*
X81196712Y-119100159D01*
X81195721Y-119099051D01*
X81165453Y-119064973D01*
X81163982Y-119063298D01*
X81163269Y-119062477D01*
X81161889Y-119060871D01*
X81136448Y-119030942D01*
X81135415Y-119029717D01*
X81134858Y-119029051D01*
X81133663Y-119027608D01*
X81096828Y-118982717D01*
X81096321Y-118982097D01*
X81096098Y-118981823D01*
X81095715Y-118981351D01*
X81063092Y-118941017D01*
X81062296Y-118940027D01*
X81061904Y-118939536D01*
X81061129Y-118938558D01*
X81033243Y-118903179D01*
X81032123Y-118901745D01*
X81031573Y-118901034D01*
X81030495Y-118899628D01*
X81005547Y-118866780D01*
X81004288Y-118865104D01*
X81003669Y-118864271D01*
X81002449Y-118862612D01*
X80978640Y-118829873D01*
X80977560Y-118828372D01*
X80976998Y-118827584D01*
X80975834Y-118825935D01*
X80951365Y-118790883D01*
X80950454Y-118789567D01*
X80950045Y-118788971D01*
X80949317Y-118787903D01*
X80922390Y-118748116D01*
X80921970Y-118747492D01*
X80921729Y-118747133D01*
X80921186Y-118746321D01*
X80890003Y-118699376D01*
X80889928Y-118699262D01*
X80889863Y-118699164D01*
X80889677Y-118698884D01*
X80885928Y-118693211D01*
X80885929Y-118693211D01*
X80867713Y-118665709D01*
X80851251Y-118640948D01*
X80838569Y-118621971D01*
X80831557Y-118611600D01*
X80831225Y-118611115D01*
X80829143Y-118608015D01*
X80828133Y-118606481D01*
X80826175Y-118603449D01*
X80818293Y-118590994D01*
X80811868Y-118580093D01*
X80808832Y-118574548D01*
X80803113Y-118563270D01*
X80799869Y-118556338D01*
X80799036Y-118554301D01*
X80798671Y-118553667D01*
X80797997Y-118552182D01*
X80793503Y-118543456D01*
X80783016Y-118523787D01*
X80769176Y-118498380D01*
X80767451Y-118495218D01*
X80766490Y-118493435D01*
X80765998Y-118492511D01*
X80765004Y-118490620D01*
X80748435Y-118458685D01*
X80747399Y-118456660D01*
X80746893Y-118455657D01*
X80745905Y-118453672D01*
X80726137Y-118413383D01*
X80725575Y-118412227D01*
X80725268Y-118411591D01*
X80724603Y-118410201D01*
X80702913Y-118364368D01*
X80702400Y-118363273D01*
X80702168Y-118362775D01*
X80701753Y-118361879D01*
X80679420Y-118313315D01*
X80679000Y-118312397D01*
X80678789Y-118311932D01*
X80678365Y-118310990D01*
X80656666Y-118262506D01*
X80656237Y-118261542D01*
X80656008Y-118261023D01*
X80655522Y-118259911D01*
X80635735Y-118214319D01*
X80635073Y-118212777D01*
X80634777Y-118212079D01*
X80634251Y-118210827D01*
X80617654Y-118170938D01*
X80616700Y-118168603D01*
X80616228Y-118167427D01*
X80615295Y-118165059D01*
X80603164Y-118133685D01*
X80601743Y-118129898D01*
X80601046Y-118127981D01*
X80599680Y-118124098D01*
X80571453Y-118041189D01*
X80570014Y-118036797D01*
X80569315Y-118034577D01*
X80567960Y-118030091D01*
X80528386Y-117893296D01*
X80526936Y-117888014D01*
X80526256Y-117885397D01*
X80524982Y-117880210D01*
X80492609Y-117740384D01*
X80491475Y-117735173D01*
X80490942Y-117732555D01*
X80489945Y-117727295D01*
X80465330Y-117587322D01*
X80464442Y-117581828D01*
X80464035Y-117579065D01*
X80463296Y-117573505D01*
X80450583Y-117466462D01*
X80434991Y-117466358D01*
X80185068Y-117464696D01*
X80165463Y-117463601D01*
X80155715Y-117462575D01*
X80117336Y-117454676D01*
X80107975Y-117451769D01*
X80071833Y-117436517D01*
X80063220Y-117431839D01*
X80030772Y-117409844D01*
X80023236Y-117403575D01*
X79995692Y-117375660D01*
X79989525Y-117368042D01*
X79967970Y-117335315D01*
X79963407Y-117326641D01*
X79948640Y-117290310D01*
X79945857Y-117280911D01*
X79938494Y-117242732D01*
X79937597Y-117233130D01*
X79936731Y-117213830D01*
X79937620Y-116958781D01*
X79910982Y-116956157D01*
X79873463Y-116944776D01*
X79838886Y-116926294D01*
X79808579Y-116901421D01*
X79783706Y-116871114D01*
X79765224Y-116836537D01*
X79753843Y-116799018D01*
X79750000Y-116760000D01*
X79750000Y-116260000D01*
X79753843Y-116220982D01*
X79765224Y-116183463D01*
X79783706Y-116148886D01*
X79808579Y-116118579D01*
X79838886Y-116093706D01*
X79873463Y-116075224D01*
X79910982Y-116063843D01*
X79940747Y-116060911D01*
X79941276Y-115909054D01*
X79942308Y-115889448D01*
X79943303Y-115879697D01*
X79951085Y-115841277D01*
X79953963Y-115831907D01*
X79969098Y-115795729D01*
X79973749Y-115787101D01*
X79995636Y-115754590D01*
X80001880Y-115747035D01*
X80029706Y-115719402D01*
X80037305Y-115713210D01*
X80069980Y-115691542D01*
X80078640Y-115686952D01*
X80114902Y-115672079D01*
X80124291Y-115669266D01*
X80163123Y-115661716D01*
X80173054Y-115660790D01*
X80193009Y-115659931D01*
X80431088Y-115661583D01*
X80431088Y-115661582D01*
X80435862Y-115661614D01*
X80458424Y-115661704D01*
X80458612Y-115660426D01*
X80459427Y-115655351D01*
X80481483Y-115528416D01*
X80482402Y-115523493D01*
X80482891Y-115521044D01*
X80483927Y-115516170D01*
X80512086Y-115391418D01*
X80513270Y-115386468D01*
X80513896Y-115383990D01*
X80515218Y-115379027D01*
X80548853Y-115258958D01*
X80550437Y-115253593D01*
X80551259Y-115250946D01*
X80552959Y-115245725D01*
X80591444Y-115132837D01*
X80593596Y-115126838D01*
X80594721Y-115123853D01*
X80597070Y-115117911D01*
X80639780Y-115014704D01*
X80640821Y-115012235D01*
X80641352Y-115010999D01*
X80642435Y-115008525D01*
X80648169Y-114995659D01*
X80650662Y-114989664D01*
X80653353Y-114981389D01*
X80657263Y-114971207D01*
X80659442Y-114965772D01*
X80660566Y-114963083D01*
X80662882Y-114957762D01*
X80671392Y-114938956D01*
X80672163Y-114937272D01*
X80672572Y-114936390D01*
X80673438Y-114934548D01*
X80685473Y-114909272D01*
X80686007Y-114908159D01*
X80686245Y-114907667D01*
X80686660Y-114906814D01*
X80701148Y-114877223D01*
X80701394Y-114876721D01*
X80701572Y-114876360D01*
X80702041Y-114875417D01*
X80717906Y-114843664D01*
X80718361Y-114842758D01*
X80718530Y-114842424D01*
X80718749Y-114841992D01*
X80734917Y-114810230D01*
X80735205Y-114809667D01*
X80735402Y-114809283D01*
X80735904Y-114808311D01*
X80751303Y-114778695D01*
X80751960Y-114777442D01*
X80752243Y-114776907D01*
X80752716Y-114776018D01*
X80766271Y-114750702D01*
X80767233Y-114748928D01*
X80767759Y-114747969D01*
X80768904Y-114745910D01*
X80779541Y-114727047D01*
X80780529Y-114725316D01*
X80780978Y-114724538D01*
X80781786Y-114723149D01*
X80787570Y-114713311D01*
X80797622Y-114695887D01*
X80800415Y-114690860D01*
X80801042Y-114689435D01*
X80803753Y-114683767D01*
X80809534Y-114672597D01*
X80817143Y-114658963D01*
X80818793Y-114656063D01*
X80819636Y-114654610D01*
X80821359Y-114651698D01*
X80834582Y-114629770D01*
X80835382Y-114628455D01*
X80835771Y-114627821D01*
X80836526Y-114626600D01*
X80854516Y-114597746D01*
X80855103Y-114596810D01*
X80855358Y-114596406D01*
X80855789Y-114595726D01*
X80877703Y-114561315D01*
X80878043Y-114560784D01*
X80878245Y-114560469D01*
X80878715Y-114559739D01*
X80903705Y-114521139D01*
X80904370Y-114520119D01*
X80904618Y-114519741D01*
X80904942Y-114519248D01*
X80911835Y-114508809D01*
X80912694Y-114507520D01*
X80913158Y-114506829D01*
X80914157Y-114505355D01*
X80938830Y-114469309D01*
X80939801Y-114467903D01*
X80940259Y-114467246D01*
X80941119Y-114466023D01*
X80970708Y-114424247D01*
X80971359Y-114423333D01*
X80971693Y-114422867D01*
X80972378Y-114421917D01*
X81004882Y-114377123D01*
X81005461Y-114376329D01*
X81005755Y-114375928D01*
X81006353Y-114375117D01*
X81039770Y-114330016D01*
X81040281Y-114329329D01*
X81040592Y-114328913D01*
X81041327Y-114327937D01*
X81073657Y-114285238D01*
X81074435Y-114284217D01*
X81074834Y-114283697D01*
X81075650Y-114282640D01*
X81104890Y-114245055D01*
X81106250Y-114243327D01*
X81106889Y-114242524D01*
X81108083Y-114241038D01*
X81132232Y-114211278D01*
X81133582Y-114209632D01*
X81134296Y-114208771D01*
X81135806Y-114206972D01*
X81187076Y-114146603D01*
X81188170Y-114145326D01*
X81188703Y-114144709D01*
X81189740Y-114143518D01*
X81236878Y-114089814D01*
X81238417Y-114088081D01*
X81239178Y-114087234D01*
X81240681Y-114085580D01*
X81285236Y-114037091D01*
X81286996Y-114035200D01*
X81287922Y-114034218D01*
X81289869Y-114032182D01*
X81334309Y-113986365D01*
X81336229Y-113984412D01*
X81337190Y-113983448D01*
X81339113Y-113981545D01*
X81385909Y-113935856D01*
X81387688Y-113934141D01*
X81388530Y-113933339D01*
X81390116Y-113931844D01*
X81441737Y-113883737D01*
X81442946Y-113882620D01*
X81443570Y-113882048D01*
X81444858Y-113880878D01*
X81503771Y-113827810D01*
X81503800Y-113827784D01*
X81504031Y-113827576D01*
X81504928Y-113826773D01*
X81521031Y-113812448D01*
X81521156Y-113812338D01*
X81521155Y-113812337D01*
X81564585Y-113773754D01*
X81564943Y-113773438D01*
X81600478Y-113741990D01*
X81600479Y-113741991D01*
X81601151Y-113741396D01*
X81629972Y-113716074D01*
X81630681Y-113715454D01*
X81630920Y-113715246D01*
X81631164Y-113715034D01*
X81654453Y-113694832D01*
X81655252Y-113694143D01*
X81655640Y-113693810D01*
X81656394Y-113693166D01*
X81675333Y-113677074D01*
X81676540Y-113676057D01*
X81677126Y-113675567D01*
X81678263Y-113674622D01*
X81694031Y-113661634D01*
X81695548Y-113660397D01*
X81696332Y-113659764D01*
X81697952Y-113658471D01*
X81711732Y-113647579D01*
X81713462Y-113646226D01*
X81714320Y-113645563D01*
X81716020Y-113644264D01*
X81728992Y-113634460D01*
X81730275Y-113633498D01*
X81730980Y-113632974D01*
X81732519Y-113631842D01*
X81745865Y-113622119D01*
X81746535Y-113621633D01*
X81746859Y-113621399D01*
X81747486Y-113620948D01*
X81752101Y-113617642D01*
X81753038Y-113616975D01*
X81753428Y-113616699D01*
X81754050Y-113616260D01*
X81783553Y-113595549D01*
X81784438Y-113594932D01*
X81784853Y-113594644D01*
X81785628Y-113594108D01*
X81821943Y-113569159D01*
X81822280Y-113568928D01*
X81822549Y-113568744D01*
X81823288Y-113568241D01*
X81864494Y-113540325D01*
X81865167Y-113539872D01*
X81865371Y-113539735D01*
X81865513Y-113539639D01*
X81909690Y-113510026D01*
X81910111Y-113509745D01*
X81910288Y-113509627D01*
X81910575Y-113509436D01*
X81955804Y-113479396D01*
X81955957Y-113479294D01*
X81956132Y-113479178D01*
X81956679Y-113478817D01*
X82001041Y-113449620D01*
X82001430Y-113449365D01*
X82001627Y-113449236D01*
X82002025Y-113448975D01*
X82043600Y-113421892D01*
X82044116Y-113421558D01*
X82044371Y-113421393D01*
X82044875Y-113421067D01*
X82081743Y-113397368D01*
X82082653Y-113396787D01*
X82083045Y-113396538D01*
X82083703Y-113396122D01*
X82113945Y-113377077D01*
X82115457Y-113376134D01*
X82116228Y-113375658D01*
X82117802Y-113374697D01*
X82139498Y-113361577D01*
X82141198Y-113360560D01*
X82142069Y-113360045D01*
X82143853Y-113359003D01*
X82161615Y-113348747D01*
X82162096Y-113348470D01*
X82162408Y-113348291D01*
X82163173Y-113347854D01*
X82216403Y-113317626D01*
X82217226Y-113317161D01*
X82217664Y-113316915D01*
X82218596Y-113316395D01*
X82271338Y-113287142D01*
X82272246Y-113286641D01*
X82272695Y-113286395D01*
X82273582Y-113285912D01*
X82323756Y-113258751D01*
X82324815Y-113258182D01*
X82325336Y-113257904D01*
X82326360Y-113257362D01*
X82371889Y-113233406D01*
X82373379Y-113232630D01*
X82374089Y-113232264D01*
X82375440Y-113231574D01*
X82414246Y-113211941D01*
X82416548Y-113210795D01*
X82417734Y-113210214D01*
X82420176Y-113209038D01*
X82450181Y-113194840D01*
X82452262Y-113193870D01*
X82453255Y-113193414D01*
X82455135Y-113192562D01*
X82459475Y-113190623D01*
X82491254Y-113176292D01*
X82523387Y-113161624D01*
X82551484Y-113148621D01*
X82556913Y-113146096D01*
X82557703Y-113145730D01*
X82558164Y-113145518D01*
X82559219Y-113145037D01*
X82580265Y-113135506D01*
X82582273Y-113134609D01*
X82583276Y-113134168D01*
X82585279Y-113133301D01*
X82600924Y-113126625D01*
X82607193Y-113124074D01*
X82610351Y-113122851D01*
X82616714Y-113120510D01*
X82623790Y-113118042D01*
X82630265Y-113115262D01*
X82648391Y-113107001D01*
X82653486Y-113104668D01*
X82656102Y-113103493D01*
X82657425Y-113102910D01*
X82660103Y-113101753D01*
X82690191Y-113089015D01*
X82692699Y-113087974D01*
X82693909Y-113087481D01*
X82696241Y-113086547D01*
X82735529Y-113071112D01*
X82736917Y-113070573D01*
X82737643Y-113070294D01*
X82739159Y-113069719D01*
X82785231Y-113052441D01*
X82786170Y-113052091D01*
X82786698Y-113051896D01*
X82787872Y-113051467D01*
X82838315Y-113033195D01*
X82839321Y-113032833D01*
X82839773Y-113032672D01*
X82840573Y-113032389D01*
X82892972Y-113013975D01*
X82894004Y-113013615D01*
X82894450Y-113013461D01*
X82895201Y-113013204D01*
X82947141Y-112995500D01*
X82948083Y-112995182D01*
X82948587Y-112995013D01*
X82949665Y-112994655D01*
X82998733Y-112978511D01*
X82999981Y-112978104D01*
X83000643Y-112977891D01*
X83002041Y-112977447D01*
X83045821Y-112963714D01*
X83047870Y-112963083D01*
X83048900Y-112962772D01*
X83050971Y-112962159D01*
X83087050Y-112951689D01*
X83088896Y-112951163D01*
X83089793Y-112950912D01*
X83091534Y-112950434D01*
X83166892Y-112930079D01*
X83167552Y-112929901D01*
X83167856Y-112929820D01*
X83168413Y-112929673D01*
X83245211Y-112909447D01*
X83245941Y-112909256D01*
X83246450Y-112909124D01*
X83247757Y-112908790D01*
X83316614Y-112891428D01*
X83318208Y-112891033D01*
X83318931Y-112890857D01*
X83320228Y-112890546D01*
X83383393Y-112875615D01*
X83385205Y-112875195D01*
X83386123Y-112874987D01*
X83387983Y-112874575D01*
X83447705Y-112861640D01*
X83449811Y-112861196D01*
X83450858Y-112860981D01*
X83452942Y-112860564D01*
X83511471Y-112849192D01*
X83513629Y-112848786D01*
X83514695Y-112848591D01*
X83516799Y-112848217D01*
X83576384Y-112837974D01*
X83578184Y-112837673D01*
X83579150Y-112837516D01*
X83581214Y-112837192D01*
X83644105Y-112827644D01*
X83645805Y-112827393D01*
X83646588Y-112827281D01*
X83648021Y-112827082D01*
X83716467Y-112817796D01*
X83717471Y-112817662D01*
X83718038Y-112817588D01*
X83719302Y-112817427D01*
X83795553Y-112807969D01*
X83796645Y-112807837D01*
X83797008Y-112807794D01*
X83797368Y-112807751D01*
X83883673Y-112797686D01*
X83885026Y-112797533D01*
X83885746Y-112797454D01*
X83887271Y-112797293D01*
X83918015Y-112794158D01*
X83920000Y-112793965D01*
X83921001Y-112793873D01*
X83923022Y-112793698D01*
X83956834Y-112790936D01*
X83958544Y-112790804D01*
X83959420Y-112790740D01*
X83961212Y-112790617D01*
X83994256Y-112788501D01*
X83996195Y-112788386D01*
X83997116Y-112788336D01*
X83998864Y-112788249D01*
X84028764Y-112786888D01*
X84031286Y-112786789D01*
X84032533Y-112786748D01*
X84034996Y-112786682D01*
X84059378Y-112786181D01*
X84064224Y-112786140D01*
X84066667Y-112786149D01*
X84071593Y-112786228D01*
X84088080Y-112786695D01*
X84109475Y-112788454D01*
X84120094Y-112789904D01*
X84141176Y-112793945D01*
X84147394Y-112795487D01*
X84166185Y-112801139D01*
X84175421Y-112804419D01*
X84210918Y-112821106D01*
X84219337Y-112826126D01*
X84250859Y-112849389D01*
X84258138Y-112855954D01*
X84284552Y-112884959D01*
X84290409Y-112892818D01*
X84310647Y-112926407D01*
X84314858Y-112935258D01*
X84328147Y-112972128D01*
X84330551Y-112981630D01*
X84335823Y-113012409D01*
X84336354Y-113018196D01*
X84337080Y-113029808D01*
X84337091Y-113030138D01*
X84337147Y-113032104D01*
X84337170Y-113033083D01*
X84337206Y-113035032D01*
X84337329Y-113043984D01*
X84337337Y-113044569D01*
X84337569Y-113064919D01*
X84337570Y-113065071D01*
X84337901Y-113095741D01*
X84337901Y-113095814D01*
X84337902Y-113095814D01*
X84338321Y-113135726D01*
X84338321Y-113135782D01*
X84338815Y-113183858D01*
X84338815Y-113183889D01*
X84338816Y-113183889D01*
X84339376Y-113239051D01*
X84339376Y-113239080D01*
X84339990Y-113300250D01*
X84339989Y-113300250D01*
X84339991Y-113300278D01*
X84340647Y-113366378D01*
X84340647Y-113366397D01*
X84341336Y-113436348D01*
X84341336Y-113436404D01*
X84341337Y-113436404D01*
X84341694Y-113473491D01*
X84341695Y-113473667D01*
X84342385Y-113551035D01*
X84342389Y-113551415D01*
X84342877Y-113617348D01*
X84342879Y-113617957D01*
X84342880Y-113617957D01*
X84343155Y-113673335D01*
X84343154Y-113673335D01*
X84343155Y-113673485D01*
X84343158Y-113674302D01*
X84343208Y-113720009D01*
X84343207Y-113720882D01*
X84343206Y-113721188D01*
X84343204Y-113721536D01*
X84343019Y-113758453D01*
X84343012Y-113759483D01*
X84343007Y-113759975D01*
X84342995Y-113760914D01*
X84342564Y-113789924D01*
X84342538Y-113791337D01*
X84342520Y-113792158D01*
X84342470Y-113794030D01*
X84341782Y-113816014D01*
X84341666Y-113819002D01*
X84341599Y-113820450D01*
X84341450Y-113823253D01*
X84340494Y-113839095D01*
X84340079Y-113844677D01*
X84339833Y-113847457D01*
X84339265Y-113852996D01*
X84338031Y-113863577D01*
X84336203Y-113875901D01*
X84335096Y-113882040D01*
X84332492Y-113894274D01*
X84330968Y-113900476D01*
X84325354Y-113919285D01*
X84322093Y-113928529D01*
X84307528Y-113960528D01*
X84303698Y-113967293D01*
X84295516Y-113980518D01*
X84293692Y-113983225D01*
X84281939Y-113998944D01*
X84275692Y-114006496D01*
X84247865Y-114034109D01*
X84240264Y-114040298D01*
X84213230Y-114058844D01*
X84207509Y-114062114D01*
X84195846Y-114068280D01*
X84195109Y-114068639D01*
X84170002Y-114078827D01*
X84157163Y-114083049D01*
X84130914Y-114089749D01*
X84119681Y-114091818D01*
X84109730Y-114093393D01*
X84104735Y-114094055D01*
X84094707Y-114095128D01*
X84073901Y-114096824D01*
X84069964Y-114097106D01*
X84067986Y-114097228D01*
X84064009Y-114097433D01*
X84036319Y-114098588D01*
X84033477Y-114098687D01*
X84032094Y-114098725D01*
X84029405Y-114098780D01*
X83998266Y-114099217D01*
X83966099Y-114099796D01*
X83908401Y-114102826D01*
X83844576Y-114108277D01*
X83779426Y-114115769D01*
X83715943Y-114125093D01*
X83711085Y-114125897D01*
X83711054Y-114125903D01*
X83678963Y-114131206D01*
X83678893Y-114131217D01*
X83647558Y-114136386D01*
X83647558Y-114136385D01*
X83647473Y-114136400D01*
X83624824Y-114140128D01*
X83615911Y-114141747D01*
X83593973Y-114146477D01*
X83574142Y-114151570D01*
X83562682Y-114154803D01*
X83561290Y-114155190D01*
X83560561Y-114155390D01*
X83559038Y-114155802D01*
X83537630Y-114161494D01*
X83535066Y-114162157D01*
X83533783Y-114162480D01*
X83531217Y-114163108D01*
X83516604Y-114166582D01*
X83498587Y-114170937D01*
X83473049Y-114178118D01*
X83438648Y-114188520D01*
X83400398Y-114200660D01*
X83362250Y-114213278D01*
X83327721Y-114225219D01*
X83301959Y-114234676D01*
X83285970Y-114241195D01*
X83283383Y-114242332D01*
X83282511Y-114242712D01*
X83281967Y-114242948D01*
X83280645Y-114243516D01*
X83262030Y-114251433D01*
X83261261Y-114251758D01*
X83260947Y-114251890D01*
X83260460Y-114252094D01*
X83235690Y-114262430D01*
X83235189Y-114262639D01*
X83234962Y-114262733D01*
X83234554Y-114262901D01*
X83209580Y-114273178D01*
X83190094Y-114281622D01*
X83158145Y-114296512D01*
X83118484Y-114315838D01*
X83074849Y-114337780D01*
X83030612Y-114360636D01*
X82988690Y-114382911D01*
X82953036Y-114402524D01*
X82926448Y-114417927D01*
X82894879Y-114437473D01*
X82806002Y-114497222D01*
X82716954Y-114563384D01*
X82629325Y-114634582D01*
X82546278Y-114708204D01*
X82470992Y-114781422D01*
X82403815Y-114854153D01*
X82399866Y-114858722D01*
X82306345Y-114971703D01*
X82224249Y-115079889D01*
X82152696Y-115183964D01*
X82092262Y-115282682D01*
X82042767Y-115375903D01*
X81971861Y-115531660D01*
X81909309Y-115692659D01*
X81868464Y-115820330D01*
X81868463Y-115820333D01*
X81858077Y-115852795D01*
X81817581Y-116013589D01*
X81786920Y-116178904D01*
X81784483Y-116196068D01*
X81777651Y-116257382D01*
X81771998Y-116327902D01*
X81767671Y-116405242D01*
X81764860Y-116485594D01*
X81763679Y-116565655D01*
X81764197Y-116641732D01*
X81766421Y-116710224D01*
X81770186Y-116766760D01*
X81784096Y-116887448D01*
X81812717Y-117051410D01*
X81851692Y-117213119D01*
X81851693Y-117213119D01*
X81852304Y-117215652D01*
X81902839Y-117380134D01*
X81964080Y-117543758D01*
X82036744Y-117707664D01*
X82053575Y-117741910D01*
X82073756Y-117780268D01*
X82095134Y-117817723D01*
X82120744Y-117859481D01*
X82152636Y-117908862D01*
X82204288Y-117985350D01*
X82289396Y-118102254D01*
X82374118Y-118207262D01*
X82460520Y-118303110D01*
X82550299Y-118391828D01*
X82645283Y-118475373D01*
X82749196Y-118556995D01*
X82793804Y-118589714D01*
X82853188Y-118631397D01*
X82907583Y-118667074D01*
X82961538Y-118699750D01*
X83019600Y-118732207D01*
X83084894Y-118766304D01*
X83166592Y-118805814D01*
X83299932Y-118862238D01*
X83433109Y-118909159D01*
X83565466Y-118946594D01*
X83694924Y-118974087D01*
X83824481Y-118992032D01*
X83832369Y-118992819D01*
X83832518Y-118992834D01*
X83832518Y-118992833D01*
X83871880Y-118996785D01*
X83871880Y-118996786D01*
X83872046Y-118996802D01*
X83912877Y-119000929D01*
X83913080Y-119000952D01*
X83913080Y-119000950D01*
X83947711Y-119004479D01*
X83952262Y-119004917D01*
X83984480Y-119007279D01*
X84019217Y-119008928D01*
X84050609Y-119009557D01*
X84059827Y-119009585D01*
X84061947Y-119009603D01*
X84062975Y-119009617D01*
X84064964Y-119009654D01*
X84091145Y-119010271D01*
X84098721Y-119010593D01*
X84102506Y-119010826D01*
X84110070Y-119011436D01*
X84126591Y-119013084D01*
X84148314Y-119016465D01*
X84159052Y-119018747D01*
X84180279Y-119024494D01*
X84189404Y-119027512D01*
X84207714Y-119034582D01*
X84216673Y-119038557D01*
X84250781Y-119057895D01*
X84258793Y-119063542D01*
X84285732Y-119086338D01*
X84291248Y-119091912D01*
X84301842Y-119103493D01*
X84305837Y-119108220D01*
X84317757Y-119123817D01*
X84323320Y-119131888D01*
X84344673Y-119171944D01*
X84349408Y-119183937D01*
X84357326Y-119208538D01*
X84357428Y-119208943D01*
X84360995Y-119226335D01*
X84362390Y-119235095D01*
X84364402Y-119252743D01*
X84365077Y-119262499D01*
X84365308Y-119266378D01*
X84365405Y-119268330D01*
X84365561Y-119272262D01*
X84366196Y-119293440D01*
X84366234Y-119294874D01*
X84366247Y-119295444D01*
X84366264Y-119296289D01*
X84366849Y-119327775D01*
X84366853Y-119327994D01*
X84366858Y-119328280D01*
X84366872Y-119329205D01*
X84367395Y-119369887D01*
X84367400Y-119370236D01*
X84367402Y-119370416D01*
X84367405Y-119370784D01*
X84367857Y-119419548D01*
X84367860Y-119419875D01*
X84367861Y-119420006D01*
X84367863Y-119420205D01*
X84368233Y-119475936D01*
X84368235Y-119476467D01*
X84368513Y-119538053D01*
X84368512Y-119538053D01*
X84368515Y-119538526D01*
X84368689Y-119604854D01*
X84368690Y-119605379D01*
X84368690Y-119605467D01*
X84368750Y-119675250D01*
X84368750Y-119675569D01*
X84368728Y-119728868D01*
X84368728Y-119729214D01*
X84368586Y-119808071D01*
X84368585Y-119808071D01*
X84368584Y-119808674D01*
X84368301Y-119875877D01*
X84368294Y-119876768D01*
X84368295Y-119876768D01*
X84367901Y-119927432D01*
X84367858Y-119932966D01*
X84367856Y-119933173D01*
X84367845Y-119934307D01*
X84367243Y-119980160D01*
X84367224Y-119981334D01*
X84367216Y-119981755D01*
X84367206Y-119982263D01*
X84366427Y-120018420D01*
X84366394Y-120019736D01*
X84366374Y-120020447D01*
X84366325Y-120021973D01*
X84365355Y-120049087D01*
X84365238Y-120051827D01*
X84365172Y-120053160D01*
X84365027Y-120055754D01*
X84363856Y-120074477D01*
X84363365Y-120080742D01*
X84363070Y-120083875D01*
X84362380Y-120090142D01*
X84360995Y-120101128D01*
X84355915Y-120127261D01*
X84352518Y-120140102D01*
X84344009Y-120165334D01*
X84342397Y-120169235D01*
X84334021Y-120186983D01*
X84329408Y-120195631D01*
X84307658Y-120228244D01*
X84301446Y-120235827D01*
X84273740Y-120263581D01*
X84266169Y-120269805D01*
X84233588Y-120291614D01*
X84224947Y-120296242D01*
X84183693Y-120312739D01*
X84171731Y-120316038D01*
X84147403Y-120321145D01*
X84142758Y-120321822D01*
X84132027Y-120323091D01*
X84126650Y-120323580D01*
X84115871Y-120324267D01*
X84099113Y-120324882D01*
X84095608Y-120324980D01*
X84093833Y-120325014D01*
X84090237Y-120325051D01*
X84063768Y-120325082D01*
X84062275Y-120325078D01*
G37*
G36*
X71793336Y-113015151D02*
G01*
X71793381Y-113015151D01*
X71880843Y-113015171D01*
X71880991Y-113015171D01*
X71956778Y-113015233D01*
X71957050Y-113015233D01*
X72022002Y-113015357D01*
X72022462Y-113015358D01*
X72077416Y-113015564D01*
X72078036Y-113015568D01*
X72078144Y-113015569D01*
X72078144Y-113015568D01*
X72123941Y-113015873D01*
X72124326Y-113015876D01*
X72124559Y-113015878D01*
X72125104Y-113015884D01*
X72162584Y-113016308D01*
X72163556Y-113016321D01*
X72163927Y-113016327D01*
X72164439Y-113016336D01*
X72194439Y-113016898D01*
X72195667Y-113016925D01*
X72196270Y-113016940D01*
X72197457Y-113016973D01*
X72220818Y-113017693D01*
X72222785Y-113017763D01*
X72223793Y-113017804D01*
X72225856Y-113017899D01*
X72243417Y-113018795D01*
X72246905Y-113019003D01*
X72248670Y-113019124D01*
X72252244Y-113019402D01*
X72264844Y-113020493D01*
X72271486Y-113021180D01*
X72274785Y-113021577D01*
X72281336Y-113022475D01*
X72289815Y-113023781D01*
X72303100Y-113026289D01*
X72309696Y-113027767D01*
X72322798Y-113031173D01*
X72327994Y-113032713D01*
X72354989Y-113042883D01*
X72368051Y-113048913D01*
X72393302Y-113062862D01*
X72396056Y-113064654D01*
X72411958Y-113076150D01*
X72419610Y-113082275D01*
X72453490Y-113116911D01*
X72462246Y-113128359D01*
X72478097Y-113152519D01*
X72479247Y-113154583D01*
X72487951Y-113172186D01*
X72491859Y-113181175D01*
X72502331Y-113211852D01*
X72503905Y-113218072D01*
X72506657Y-113230629D01*
X72506701Y-113230866D01*
X72508768Y-113244667D01*
X72509560Y-113251598D01*
X72510660Y-113265522D01*
X72511054Y-113274486D01*
X72511147Y-113276941D01*
X72511184Y-113278110D01*
X72511242Y-113280327D01*
X72511671Y-113301199D01*
X72511676Y-113301439D01*
X72511682Y-113301749D01*
X72511698Y-113302750D01*
X72512158Y-113334819D01*
X72512160Y-113334967D01*
X72512162Y-113335114D01*
X72512168Y-113335556D01*
X72512653Y-113378112D01*
X72512653Y-113378144D01*
X72512654Y-113378233D01*
X72512658Y-113378554D01*
X72513162Y-113430889D01*
X72513163Y-113431179D01*
X72513164Y-113431179D01*
X72513684Y-113492581D01*
X72513683Y-113492581D01*
X72513686Y-113492799D01*
X72514216Y-113562559D01*
X72514217Y-113562737D01*
X72514750Y-113640146D01*
X72514751Y-113640284D01*
X72515285Y-113724630D01*
X72515285Y-113724758D01*
X72515286Y-113724758D01*
X72515813Y-113815333D01*
X72515813Y-113815443D01*
X72516330Y-113911537D01*
X72516330Y-113911643D01*
X72516331Y-113911643D01*
X72516831Y-114012545D01*
X72516831Y-114012644D01*
X72517310Y-114117645D01*
X72517308Y-114117645D01*
X72517311Y-114117740D01*
X72517764Y-114226130D01*
X72517764Y-114226145D01*
X72518448Y-114392071D01*
X72519254Y-114573712D01*
X72519253Y-114573718D01*
X72520071Y-114742993D01*
X72520070Y-114742993D01*
X72520899Y-114899898D01*
X72520900Y-114899898D01*
X72521741Y-115044567D01*
X72522592Y-115176865D01*
X72523455Y-115296980D01*
X72523454Y-115296995D01*
X72524323Y-115404167D01*
X72525203Y-115499063D01*
X72525961Y-115569352D01*
X72585665Y-115569262D01*
X72649857Y-115569100D01*
X72716294Y-115568874D01*
X72783260Y-115568590D01*
X72783271Y-115568591D01*
X72849552Y-115568253D01*
X72913973Y-115567869D01*
X72975808Y-115567439D01*
X72975819Y-115567440D01*
X72999960Y-115567244D01*
X73004708Y-115530052D01*
X73004856Y-115528921D01*
X73004931Y-115528359D01*
X73005082Y-115527245D01*
X73009736Y-115493806D01*
X73010038Y-115491718D01*
X73010183Y-115490751D01*
X73010459Y-115488968D01*
X73014552Y-115463256D01*
X73015533Y-115457613D01*
X73016067Y-115454783D01*
X73017224Y-115449107D01*
X73032784Y-115378012D01*
X73034310Y-115371553D01*
X73035123Y-115368351D01*
X73036846Y-115362003D01*
X73060009Y-115281915D01*
X73061609Y-115276656D01*
X73062448Y-115274028D01*
X73064206Y-115268773D01*
X73093430Y-115185291D01*
X73095172Y-115180510D01*
X73096073Y-115178132D01*
X73097935Y-115173401D01*
X73132103Y-115089707D01*
X73134153Y-115084868D01*
X73135205Y-115082473D01*
X73137361Y-115077733D01*
X73175355Y-114997010D01*
X73176652Y-114994309D01*
X73177303Y-114992978D01*
X73178610Y-114990353D01*
X73180871Y-114985897D01*
X73181884Y-114983928D01*
X73182432Y-114982877D01*
X73183615Y-114980643D01*
X73221730Y-114909743D01*
X73224577Y-114904628D01*
X73226037Y-114902093D01*
X73229028Y-114897070D01*
X73267257Y-114834964D01*
X73271115Y-114828940D01*
X73273099Y-114825961D01*
X73277178Y-114820070D01*
X73317993Y-114763304D01*
X73322361Y-114757456D01*
X73324594Y-114754578D01*
X73329157Y-114748913D01*
X73375031Y-114694032D01*
X73379033Y-114689390D01*
X73381074Y-114687095D01*
X73385236Y-114682558D01*
X73438642Y-114626105D01*
X73444191Y-114620467D01*
X73447014Y-114617710D01*
X73452755Y-114612320D01*
X73517788Y-114553628D01*
X73526122Y-114546511D01*
X73530380Y-114543072D01*
X73539080Y-114536430D01*
X73619524Y-114478433D01*
X73628604Y-114472259D01*
X73633223Y-114469300D01*
X73642618Y-114463638D01*
X73729473Y-114414495D01*
X73739023Y-114409428D01*
X73743865Y-114407024D01*
X73753682Y-114402476D01*
X73845018Y-114363133D01*
X73855331Y-114359026D01*
X73860541Y-114357117D01*
X73871068Y-114353588D01*
X73964956Y-114324987D01*
X73976408Y-114321867D01*
X73982171Y-114320479D01*
X73993772Y-114318046D01*
X74088282Y-114301134D01*
X74096205Y-114299880D01*
X74100174Y-114299333D01*
X74108128Y-114298398D01*
X74128886Y-114296380D01*
X74136696Y-114295775D01*
X74140623Y-114295548D01*
X74148520Y-114295248D01*
X74235796Y-114293657D01*
X74247014Y-114293767D01*
X74252609Y-114293979D01*
X74263773Y-114294716D01*
X74355125Y-114303312D01*
X74365122Y-114304507D01*
X74370109Y-114305231D01*
X74380059Y-114306933D01*
X74473271Y-114325309D01*
X74482632Y-114327388D01*
X74487275Y-114328537D01*
X74496487Y-114331052D01*
X74589341Y-114358796D01*
X74598440Y-114361754D01*
X74602958Y-114363343D01*
X74611928Y-114366741D01*
X74702208Y-114403446D01*
X74707136Y-114405527D01*
X74709583Y-114406599D01*
X74714444Y-114408806D01*
X74724625Y-114413594D01*
X74728016Y-114415229D01*
X74729704Y-114416062D01*
X74733065Y-114417759D01*
X74803875Y-114454376D01*
X74810474Y-114457947D01*
X74813750Y-114459800D01*
X74820255Y-114463644D01*
X74886100Y-114504245D01*
X74892778Y-114508548D01*
X74896067Y-114510761D01*
X74902545Y-114515308D01*
X74966020Y-114561768D01*
X74971856Y-114566206D01*
X74974725Y-114568472D01*
X74980367Y-114573099D01*
X75044064Y-114627296D01*
X75048526Y-114631207D01*
X75050740Y-114633207D01*
X75055133Y-114637297D01*
X75121646Y-114701108D01*
X75124065Y-114703469D01*
X75125246Y-114704641D01*
X75127551Y-114706966D01*
X75152146Y-114732186D01*
X75154940Y-114735109D01*
X75156327Y-114736590D01*
X75159082Y-114739592D01*
X75230226Y-114818729D01*
X75234648Y-114823818D01*
X75236808Y-114826390D01*
X75241026Y-114831587D01*
X75305467Y-114913753D01*
X75309636Y-114919262D01*
X75311674Y-114922054D01*
X75315657Y-114927714D01*
X75375074Y-115015326D01*
X75378631Y-115020758D01*
X75380364Y-115023501D01*
X75383739Y-115029041D01*
X75439812Y-115124517D01*
X75442580Y-115129384D01*
X75443927Y-115131832D01*
X75446547Y-115136756D01*
X75500955Y-115242515D01*
X75502028Y-115244631D01*
X75502574Y-115245724D01*
X75503685Y-115247982D01*
X75505355Y-115251433D01*
X75505495Y-115251724D01*
X75505615Y-115251973D01*
X75505953Y-115252678D01*
X75520244Y-115282631D01*
X75520936Y-115284096D01*
X75521278Y-115284828D01*
X75521955Y-115286292D01*
X75534412Y-115313525D01*
X75535343Y-115315592D01*
X75535793Y-115316606D01*
X75536663Y-115318595D01*
X75548281Y-115345560D01*
X75549189Y-115347701D01*
X75549632Y-115348763D01*
X75550496Y-115350869D01*
X75562269Y-115380022D01*
X75562928Y-115381676D01*
X75563268Y-115382540D01*
X75563967Y-115384342D01*
X75576891Y-115418139D01*
X75577363Y-115419385D01*
X75577577Y-115419956D01*
X75577963Y-115420994D01*
X75593032Y-115461889D01*
X75593220Y-115462401D01*
X75593334Y-115462713D01*
X75593601Y-115463449D01*
X75611810Y-115513896D01*
X75612139Y-115514815D01*
X75612289Y-115515237D01*
X75612560Y-115516004D01*
X75618447Y-115532782D01*
X75619182Y-115534914D01*
X75619548Y-115535996D01*
X75620277Y-115538195D01*
X75637928Y-115592439D01*
X75638736Y-115594977D01*
X75639121Y-115596216D01*
X75639855Y-115598631D01*
X75657418Y-115657776D01*
X75658010Y-115659812D01*
X75658320Y-115660898D01*
X75658965Y-115663208D01*
X75675282Y-115723082D01*
X75675912Y-115725454D01*
X75676216Y-115726626D01*
X75676803Y-115728942D01*
X75690722Y-115785369D01*
X75691492Y-115788610D01*
X75691856Y-115790199D01*
X75692544Y-115793314D01*
X75702908Y-115842121D01*
X75703366Y-115844339D01*
X75703588Y-115845446D01*
X75704019Y-115847659D01*
X75708758Y-115872755D01*
X75714739Y-115904154D01*
X75719931Y-115931140D01*
X75723558Y-115949651D01*
X75723728Y-115950529D01*
X75723772Y-115950759D01*
X75723780Y-115950801D01*
X75724097Y-115952460D01*
X75725206Y-115958820D01*
X75725711Y-115962020D01*
X75726620Y-115968459D01*
X75729440Y-115991083D01*
X75730107Y-115997193D01*
X75730394Y-116000261D01*
X75730874Y-116006425D01*
X75732679Y-116035332D01*
X75732923Y-116040192D01*
X75733015Y-116042610D01*
X75733141Y-116047421D01*
X75733551Y-116076781D01*
X75733570Y-116079713D01*
X75733569Y-116081157D01*
X75733547Y-116083998D01*
X75733370Y-116095875D01*
X75734220Y-116098803D01*
X75738351Y-116113614D01*
X75740583Y-116122377D01*
X75741596Y-116126767D01*
X75743418Y-116135562D01*
X75750170Y-116172277D01*
X75751363Y-116179504D01*
X75751895Y-116183141D01*
X75752828Y-116190463D01*
X75758033Y-116238319D01*
X75758481Y-116242935D01*
X75758678Y-116245243D01*
X75759019Y-116249861D01*
X75762704Y-116309227D01*
X75762876Y-116312403D01*
X75762948Y-116313964D01*
X75763065Y-116317031D01*
X75765256Y-116388277D01*
X75765311Y-116390437D01*
X75765333Y-116391540D01*
X75765365Y-116393791D01*
X75766090Y-116477286D01*
X75766098Y-116478720D01*
X75766099Y-116479381D01*
X75766097Y-116480590D01*
X75765990Y-116504199D01*
X75765962Y-116506746D01*
X75765940Y-116508020D01*
X75765880Y-116510571D01*
X75762296Y-116629895D01*
X75762141Y-116633783D01*
X75762043Y-116635762D01*
X75761803Y-116639792D01*
X75753391Y-116760345D01*
X75753077Y-116764279D01*
X75752904Y-116766209D01*
X75752529Y-116769994D01*
X75739640Y-116888411D01*
X75739158Y-116892451D01*
X75738894Y-116894490D01*
X75738318Y-116898605D01*
X75721306Y-117011521D01*
X75720535Y-117016252D01*
X75720124Y-117018597D01*
X75719253Y-117023245D01*
X75698470Y-117127294D01*
X75697909Y-117130005D01*
X75697619Y-117131359D01*
X75697016Y-117134080D01*
X75695953Y-117138727D01*
X75695952Y-117138734D01*
X75690313Y-117163424D01*
X75684752Y-117187833D01*
X75684512Y-117188877D01*
X75684392Y-117189391D01*
X75684153Y-117190403D01*
X75680194Y-117206971D01*
X75679537Y-117209638D01*
X75679195Y-117210987D01*
X75678482Y-117213718D01*
X75665950Y-117260376D01*
X75665237Y-117262960D01*
X75664877Y-117264232D01*
X75664151Y-117266735D01*
X75648110Y-117320719D01*
X75647499Y-117322737D01*
X75647203Y-117323696D01*
X75646632Y-117325517D01*
X75628056Y-117383724D01*
X75627500Y-117385439D01*
X75627215Y-117386305D01*
X75626631Y-117388052D01*
X75606498Y-117447382D01*
X75605896Y-117449129D01*
X75605575Y-117450047D01*
X75604890Y-117451973D01*
X75584175Y-117509326D01*
X75583349Y-117511571D01*
X75582948Y-117512641D01*
X75582173Y-117514676D01*
X75567500Y-117552568D01*
X75565847Y-117556701D01*
X75564999Y-117558754D01*
X75563261Y-117562832D01*
X75512571Y-117678234D01*
X75510004Y-117683841D01*
X75508673Y-117686634D01*
X75505914Y-117692199D01*
X75447207Y-117806139D01*
X75444334Y-117811513D01*
X75442857Y-117814177D01*
X75439823Y-117819459D01*
X75375100Y-117928247D01*
X75371640Y-117933849D01*
X75369866Y-117936619D01*
X75366229Y-117942099D01*
X75297486Y-118042042D01*
X75294906Y-118045704D01*
X75293591Y-118047527D01*
X75290910Y-118051157D01*
X75284129Y-118060124D01*
X75282087Y-118062777D01*
X75281045Y-118064108D01*
X75278918Y-118066777D01*
X75247427Y-118105618D01*
X75244949Y-118108616D01*
X75243693Y-118110105D01*
X75241148Y-118113062D01*
X75204053Y-118155337D01*
X75202048Y-118157588D01*
X75201044Y-118158698D01*
X75199034Y-118160887D01*
X75158546Y-118204334D01*
X75156646Y-118206345D01*
X75155709Y-118207323D01*
X75153862Y-118209225D01*
X75112189Y-118251583D01*
X75110204Y-118253573D01*
X75109182Y-118254583D01*
X75107078Y-118256631D01*
X75066430Y-118295639D01*
X75063832Y-118298089D01*
X75062509Y-118299314D01*
X75059813Y-118301765D01*
X75022401Y-118335161D01*
X75018201Y-118338806D01*
X75016100Y-118340579D01*
X75011900Y-118344027D01*
X74979932Y-118369550D01*
X74976207Y-118372452D01*
X74974316Y-118373890D01*
X74970475Y-118376740D01*
X74958329Y-118385526D01*
X74954532Y-118388206D01*
X74952628Y-118389517D01*
X74948810Y-118392081D01*
X74850552Y-118456457D01*
X74842793Y-118461291D01*
X74838845Y-118463627D01*
X74830809Y-118468135D01*
X74732837Y-118520168D01*
X74723636Y-118524756D01*
X74718986Y-118526927D01*
X74709589Y-118531024D01*
X74611135Y-118570982D01*
X74600777Y-118574856D01*
X74595561Y-118576644D01*
X74585056Y-118579925D01*
X74485351Y-118608079D01*
X74474403Y-118610839D01*
X74468879Y-118612067D01*
X74457729Y-118614216D01*
X74356004Y-118630837D01*
X74345002Y-118632322D01*
X74339499Y-118632910D01*
X74328490Y-118633780D01*
X74223975Y-118639138D01*
X74212546Y-118639396D01*
X74206826Y-118639362D01*
X74195376Y-118638966D01*
X74121546Y-118634291D01*
X74110011Y-118633225D01*
X74104262Y-118632525D01*
X74092798Y-118630790D01*
X74007491Y-118615342D01*
X73996910Y-118613129D01*
X73991660Y-118611882D01*
X73981243Y-118609109D01*
X73894521Y-118583503D01*
X73884961Y-118580418D01*
X73880214Y-118578753D01*
X73870784Y-118575176D01*
X73784838Y-118540071D01*
X73775728Y-118536082D01*
X73771234Y-118533980D01*
X73762370Y-118529564D01*
X73679390Y-118485620D01*
X73672610Y-118481859D01*
X73669253Y-118479911D01*
X73662604Y-118475878D01*
X73623009Y-118450795D01*
X73615812Y-118446015D01*
X73612262Y-118443545D01*
X73605259Y-118438444D01*
X73521222Y-118374399D01*
X73512253Y-118367145D01*
X73507878Y-118363393D01*
X73499347Y-118355639D01*
X73421434Y-118280611D01*
X73413810Y-118272860D01*
X73410104Y-118268881D01*
X73402906Y-118260717D01*
X73331282Y-118174895D01*
X73324999Y-118166968D01*
X73321961Y-118162929D01*
X73316090Y-118154699D01*
X73250918Y-118058269D01*
X73245881Y-118050427D01*
X73243460Y-118046458D01*
X73238812Y-118038426D01*
X73180256Y-117931576D01*
X73178123Y-117927576D01*
X73177066Y-117925539D01*
X73174974Y-117921391D01*
X73170094Y-117911427D01*
X73169610Y-117910431D01*
X73169398Y-117909992D01*
X73169032Y-117909230D01*
X73153041Y-117875756D01*
X73152441Y-117874489D01*
X73152137Y-117873841D01*
X73151522Y-117872517D01*
X73136946Y-117840848D01*
X73136233Y-117839282D01*
X73135874Y-117838484D01*
X73135151Y-117836856D01*
X73123429Y-117810167D01*
X73122129Y-117807140D01*
X73121494Y-117805627D01*
X73120254Y-117802605D01*
X73112829Y-117784071D01*
X73111536Y-117780757D01*
X73110905Y-117779097D01*
X73109674Y-117775770D01*
X73105044Y-117762908D01*
X73095465Y-117736569D01*
X73087202Y-117714148D01*
X73087201Y-117714148D01*
X73087146Y-117713999D01*
X73086892Y-117713305D01*
X73084163Y-117705827D01*
X73083452Y-117703847D01*
X73083106Y-117702867D01*
X73082432Y-117700925D01*
X73074860Y-117678755D01*
X73073807Y-117675587D01*
X73073296Y-117674005D01*
X73072305Y-117670848D01*
X73066825Y-117652871D01*
X73066127Y-117650530D01*
X73065776Y-117649326D01*
X73065073Y-117646855D01*
X73062808Y-117638699D01*
X73057254Y-117619438D01*
X73050630Y-117597110D01*
X73049635Y-117593642D01*
X73049158Y-117591921D01*
X73048245Y-117588511D01*
X73033996Y-117533335D01*
X73032553Y-117527368D01*
X73031878Y-117524378D01*
X73030620Y-117518383D01*
X73017423Y-117450277D01*
X73016604Y-117445775D01*
X73016220Y-117443518D01*
X73015503Y-117438992D01*
X73005793Y-117372775D01*
X72530775Y-117372775D01*
X72530775Y-117481550D01*
X72530778Y-117494608D01*
X72530845Y-117548718D01*
X72530844Y-117548718D01*
X72530991Y-117613740D01*
X72531213Y-117689107D01*
X72531505Y-117773467D01*
X72531862Y-117865740D01*
X72531861Y-117865740D01*
X72532278Y-117964656D01*
X72532277Y-117964663D01*
X72532749Y-118069057D01*
X72533270Y-118178007D01*
X72533269Y-118178007D01*
X72533836Y-118290141D01*
X72534442Y-118404480D01*
X72535082Y-118519828D01*
X72535752Y-118635109D01*
X72535751Y-118635109D01*
X72536445Y-118749062D01*
X72536768Y-118801186D01*
X72536768Y-118801229D01*
X72537507Y-118923887D01*
X72537507Y-118923969D01*
X72537508Y-118923969D01*
X72538139Y-119034739D01*
X72538139Y-119034853D01*
X72538660Y-119134317D01*
X72538660Y-119134475D01*
X72538661Y-119134475D01*
X72539070Y-119223214D01*
X72539069Y-119223214D01*
X72539072Y-119223427D01*
X72539367Y-119302023D01*
X72539368Y-119302774D01*
X72539368Y-119302833D01*
X72539545Y-119371350D01*
X72539546Y-119371866D01*
X72539546Y-119371944D01*
X72539607Y-119431793D01*
X72539607Y-119432332D01*
X72539548Y-119483984D01*
X72539546Y-119484737D01*
X72539364Y-119528572D01*
X72539357Y-119529647D01*
X72539355Y-119529857D01*
X72539051Y-119566221D01*
X72539048Y-119566536D01*
X72539045Y-119566838D01*
X72539034Y-119567730D01*
X72538603Y-119597671D01*
X72538585Y-119598765D01*
X72538576Y-119599218D01*
X72538560Y-119599936D01*
X72538000Y-119623803D01*
X72537967Y-119625058D01*
X72537946Y-119625764D01*
X72537893Y-119627334D01*
X72537202Y-119645708D01*
X72537097Y-119648103D01*
X72537039Y-119649272D01*
X72536913Y-119651551D01*
X72536091Y-119665012D01*
X72535782Y-119669317D01*
X72535603Y-119671480D01*
X72535195Y-119675830D01*
X72534238Y-119684962D01*
X72533009Y-119694478D01*
X72532281Y-119699218D01*
X72530598Y-119708661D01*
X72529505Y-119714043D01*
X72524659Y-119733066D01*
X72521776Y-119742434D01*
X72510523Y-119770991D01*
X72508105Y-119775969D01*
X72503003Y-119785774D01*
X72501772Y-119787988D01*
X72491415Y-119804637D01*
X72485836Y-119812696D01*
X72460450Y-119842606D01*
X72453405Y-119849421D01*
X72426428Y-119871319D01*
X72420160Y-119875560D01*
X72407310Y-119883563D01*
X72407303Y-119883567D01*
X72389814Y-119892452D01*
X72380868Y-119896458D01*
X72342834Y-119909090D01*
X72332849Y-119911326D01*
X72312648Y-119914774D01*
X72304933Y-119915687D01*
X72297608Y-119916417D01*
X72293961Y-119916713D01*
X72286697Y-119917170D01*
X72267265Y-119918037D01*
X72265577Y-119918105D01*
X72264692Y-119918137D01*
X72262840Y-119918196D01*
X72232672Y-119919007D01*
X72231623Y-119919032D01*
X72231207Y-119919041D01*
X72230592Y-119919054D01*
X72190667Y-119919795D01*
X72190168Y-119919803D01*
X72189421Y-119919815D01*
X72140719Y-119920476D01*
X72140291Y-119920481D01*
X72140116Y-119920483D01*
X72139848Y-119920486D01*
X72083347Y-119921056D01*
X72083347Y-119921055D01*
X72082669Y-119921063D01*
X72019349Y-119921530D01*
X72018777Y-119921532D01*
X71949619Y-119921884D01*
X71949113Y-119921887D01*
X71875094Y-119922114D01*
X71874610Y-119922115D01*
X71796712Y-119922203D01*
X71796481Y-119922203D01*
X71318486Y-119922300D01*
X71298878Y-119921340D01*
X71289123Y-119920381D01*
X71250678Y-119912743D01*
X71241298Y-119909900D01*
X71205060Y-119894898D01*
X71196415Y-119890279D01*
X71163824Y-119868512D01*
X71156246Y-119862296D01*
X71128510Y-119834573D01*
X71122290Y-119826997D01*
X71099124Y-119791779D01*
X71093956Y-119781761D01*
X71084755Y-119761146D01*
X71078744Y-119745336D01*
X71072914Y-119727533D01*
X71070421Y-119718512D01*
X71066280Y-119700232D01*
X71065588Y-119696338D01*
X71064013Y-119685876D01*
X71063366Y-119680641D01*
X71062350Y-119670162D01*
X71061203Y-119653878D01*
X71061008Y-119650761D01*
X71060920Y-119649154D01*
X71060766Y-119645842D01*
X71059715Y-119618292D01*
X71059669Y-119616971D01*
X71059648Y-119616305D01*
X71059610Y-119614961D01*
X71058670Y-119577059D01*
X71058654Y-119576321D01*
X71058646Y-119575942D01*
X71058631Y-119575164D01*
X71057816Y-119527824D01*
X71057800Y-119526715D01*
X71057797Y-119526458D01*
X71057123Y-119470673D01*
X71057119Y-119470319D01*
X71057117Y-119470125D01*
X71057113Y-119469704D01*
X71056592Y-119406224D01*
X71056589Y-119405833D01*
X71056588Y-119405673D01*
X71056587Y-119405423D01*
X71056238Y-119335682D01*
X71056237Y-119335543D01*
X71056232Y-119334549D01*
X71056063Y-119258583D01*
X71056063Y-119258100D01*
X71055974Y-119197559D01*
X71055795Y-119129036D01*
X71055542Y-119063878D01*
X71055543Y-119063872D01*
X71055225Y-119003502D01*
X71054855Y-118949439D01*
X71054439Y-118902552D01*
X71053990Y-118864519D01*
X71053545Y-118838163D01*
X71053095Y-118822641D01*
X71053000Y-118819744D01*
X71052956Y-118818224D01*
X71052937Y-118817471D01*
X71052904Y-118815965D01*
X71052598Y-118798673D01*
X71052594Y-118798402D01*
X71052589Y-118798096D01*
X71052575Y-118797144D01*
X71052238Y-118768048D01*
X71052233Y-118767426D01*
X71052232Y-118767426D01*
X71051866Y-118727164D01*
X71051867Y-118727164D01*
X71051863Y-118726811D01*
X71051473Y-118676019D01*
X71051472Y-118675796D01*
X71051060Y-118615111D01*
X71051059Y-118614951D01*
X71050629Y-118545011D01*
X71050629Y-118544890D01*
X71050628Y-118544890D01*
X71050183Y-118466332D01*
X71050183Y-118466233D01*
X71049727Y-118379694D01*
X71049727Y-118379612D01*
X71049726Y-118379612D01*
X71049262Y-118285729D01*
X71049262Y-118285662D01*
X71048792Y-118185072D01*
X71048794Y-118185072D01*
X71048791Y-118185008D01*
X71048320Y-118078349D01*
X71048320Y-118078294D01*
X71047850Y-117966202D01*
X71047850Y-117966148D01*
X71047385Y-117849260D01*
X71047385Y-117849209D01*
X71047384Y-117849209D01*
X71046927Y-117728163D01*
X71046927Y-117728112D01*
X71046482Y-117603545D01*
X71046482Y-117603496D01*
X71046052Y-117476044D01*
X71046052Y-117476024D01*
X71045945Y-117443529D01*
X71045516Y-117314740D01*
X71045085Y-117188031D01*
X71044655Y-117064104D01*
X71044280Y-116958452D01*
X71020982Y-116956157D01*
X70983463Y-116944776D01*
X70948886Y-116926294D01*
X70918579Y-116901421D01*
X70893706Y-116871114D01*
X70875224Y-116836537D01*
X70863843Y-116799018D01*
X70860000Y-116760000D01*
X70860000Y-116260000D01*
X70863843Y-116220982D01*
X70875224Y-116183463D01*
X70893706Y-116148886D01*
X70918579Y-116118579D01*
X70948886Y-116093706D01*
X70983463Y-116075224D01*
X71020982Y-116063843D01*
X71040617Y-116061909D01*
X71040561Y-116052243D01*
X71040395Y-116029201D01*
X71040394Y-116029035D01*
X71040310Y-116016188D01*
X71040311Y-116016188D01*
X71040307Y-116015632D01*
X71040192Y-115988967D01*
X71040191Y-115988713D01*
X71040067Y-115951150D01*
X71040066Y-115950490D01*
X71039934Y-115903274D01*
X71039933Y-115902717D01*
X71039933Y-115902701D01*
X71039793Y-115845979D01*
X71039793Y-115845920D01*
X71039792Y-115845920D01*
X71039645Y-115779951D01*
X71039645Y-115779910D01*
X71039492Y-115705904D01*
X71039492Y-115705874D01*
X71039334Y-115624545D01*
X71039334Y-115624517D01*
X71039173Y-115536580D01*
X71039173Y-115536562D01*
X71039008Y-115442732D01*
X71039008Y-115442711D01*
X71038842Y-115343703D01*
X71038842Y-115343688D01*
X71038675Y-115240218D01*
X71038675Y-115239892D01*
X71038507Y-115132988D01*
X71038507Y-115132672D01*
X71038341Y-115022723D01*
X71038341Y-115022420D01*
X71038176Y-114910146D01*
X71038176Y-114909851D01*
X71038015Y-114795964D01*
X71038015Y-114795680D01*
X71037857Y-114680899D01*
X71037857Y-114680622D01*
X71037703Y-114565661D01*
X71037703Y-114565391D01*
X71037556Y-114450962D01*
X71037556Y-114450704D01*
X71037415Y-114337527D01*
X71037415Y-114337276D01*
X71037281Y-114226063D01*
X71037281Y-114225820D01*
X71037156Y-114117286D01*
X71037156Y-114117054D01*
X71037041Y-114011911D01*
X71037041Y-114011690D01*
X71036936Y-113910655D01*
X71036936Y-113910445D01*
X71036842Y-113814231D01*
X71036842Y-113814032D01*
X71036761Y-113723351D01*
X71036761Y-113723168D01*
X71036693Y-113638734D01*
X71036693Y-113638568D01*
X71036639Y-113561090D01*
X71036639Y-113560944D01*
X71036600Y-113491134D01*
X71036600Y-113491013D01*
X71036577Y-113429576D01*
X71036577Y-113429488D01*
X71036571Y-113377123D01*
X71036571Y-113377018D01*
X71036584Y-113334469D01*
X71036584Y-113334303D01*
X71036615Y-113302309D01*
X71036616Y-113301936D01*
X71036667Y-113281212D01*
X71036671Y-113280320D01*
X71036673Y-113280031D01*
X71036675Y-113279767D01*
X71036747Y-113271028D01*
X71037871Y-113251434D01*
X71038912Y-113241688D01*
X71046875Y-113203308D01*
X71049797Y-113193952D01*
X71065105Y-113157838D01*
X71069797Y-113149232D01*
X71086403Y-113123636D01*
X71089715Y-113119296D01*
X71096584Y-113110788D01*
X71097324Y-113109921D01*
X71110786Y-113095632D01*
X71117850Y-113088836D01*
X71148627Y-113064558D01*
X71156880Y-113059271D01*
X71192906Y-113041033D01*
X71202597Y-113037302D01*
X71222363Y-113030850D01*
X71227623Y-113029431D01*
X71242352Y-113026049D01*
X71249772Y-113024638D01*
X71264725Y-113022377D01*
X71275633Y-113021147D01*
X71280714Y-113020639D01*
X71283278Y-113020416D01*
X71288452Y-113020034D01*
X71305713Y-113018983D01*
X71308231Y-113018845D01*
X71309454Y-113018786D01*
X71311826Y-113018686D01*
X71336146Y-113017802D01*
X71337531Y-113017756D01*
X71338211Y-113017736D01*
X71339548Y-113017702D01*
X71371633Y-113016973D01*
X71372321Y-113016958D01*
X71372736Y-113016950D01*
X71373706Y-113016934D01*
X71414259Y-113016349D01*
X71414889Y-113016341D01*
X71415155Y-113016338D01*
X71415588Y-113016333D01*
X71465316Y-113015880D01*
X71466008Y-113015875D01*
X71466185Y-113015874D01*
X71466201Y-113015874D01*
X71525807Y-113015542D01*
X71526405Y-113015539D01*
X71596596Y-113015316D01*
X71597006Y-113015315D01*
X71678487Y-113015190D01*
X71678764Y-113015190D01*
X71772240Y-113015150D01*
X71772359Y-113015150D01*
X71793336Y-113015151D01*
G37*
G36*
X73597725Y-112694922D02*
G01*
X73598519Y-112694927D01*
X73600202Y-112694945D01*
X73634530Y-112695450D01*
X73635611Y-112695468D01*
X73636108Y-112695478D01*
X73637012Y-112695499D01*
X73677348Y-112696493D01*
X73678270Y-112696518D01*
X73678646Y-112696529D01*
X73679231Y-112696547D01*
X73723722Y-112697979D01*
X73724405Y-112698002D01*
X73724742Y-112698014D01*
X73725406Y-112698038D01*
X73772202Y-112699860D01*
X73772554Y-112699874D01*
X73772898Y-112699888D01*
X73773920Y-112699933D01*
X73821168Y-112702098D01*
X73822362Y-112702156D01*
X73822748Y-112702176D01*
X73823101Y-112702195D01*
X73868952Y-112704652D01*
X73871015Y-112704773D01*
X73872047Y-112704839D01*
X73874111Y-112704982D01*
X73974621Y-112712455D01*
X73978236Y-112712756D01*
X73980050Y-112712924D01*
X73983690Y-112713295D01*
X74110126Y-112727342D01*
X74114023Y-112727814D01*
X74115977Y-112728070D01*
X74119894Y-112728622D01*
X74249638Y-112748238D01*
X74253219Y-112748813D01*
X74255033Y-112749121D01*
X74258711Y-112749781D01*
X74393608Y-112775287D01*
X74396884Y-112775935D01*
X74398502Y-112776269D01*
X74401698Y-112776956D01*
X74543594Y-112808674D01*
X74546396Y-112809321D01*
X74547787Y-112809653D01*
X74550547Y-112810333D01*
X74701289Y-112848584D01*
X74702548Y-112848907D01*
X74703227Y-112849084D01*
X74704684Y-112849470D01*
X74708379Y-112850463D01*
X74709325Y-112850720D01*
X74709752Y-112850837D01*
X74710515Y-112851048D01*
X74743196Y-112860142D01*
X74744377Y-112860474D01*
X74744893Y-112860621D01*
X74745775Y-112860875D01*
X74783532Y-112871819D01*
X74784173Y-112872006D01*
X74784541Y-112872114D01*
X74785375Y-112872360D01*
X74825324Y-112884273D01*
X74826171Y-112884528D01*
X74826501Y-112884628D01*
X74826973Y-112884772D01*
X74866231Y-112896774D01*
X74866793Y-112896947D01*
X74867162Y-112897061D01*
X74868076Y-112897345D01*
X74903758Y-112908556D01*
X74904777Y-112908879D01*
X74905305Y-112909048D01*
X74906399Y-112909402D01*
X74935622Y-112918941D01*
X74937819Y-112919672D01*
X74938883Y-112920033D01*
X74940939Y-112920743D01*
X74960819Y-112927730D01*
X74963556Y-112928715D01*
X74964926Y-112929219D01*
X74967671Y-112930251D01*
X75022665Y-112951403D01*
X75023886Y-112951877D01*
X75024498Y-112952117D01*
X75025724Y-112952603D01*
X75126422Y-112992861D01*
X75128456Y-112993687D01*
X75129474Y-112994107D01*
X75131511Y-112994961D01*
X75223941Y-113034295D01*
X75226335Y-113035332D01*
X75227548Y-113035867D01*
X75230006Y-113036971D01*
X75316888Y-113076697D01*
X75319574Y-113077949D01*
X75320889Y-113078574D01*
X75323463Y-113079820D01*
X75407517Y-113121253D01*
X75410127Y-113122564D01*
X75411420Y-113123225D01*
X75413984Y-113124559D01*
X75497928Y-113169014D01*
X75500225Y-113170250D01*
X75501378Y-113170880D01*
X75503693Y-113172165D01*
X75590247Y-113220957D01*
X75592117Y-113222024D01*
X75593053Y-113222565D01*
X75594925Y-113223660D01*
X75686808Y-113278105D01*
X75687706Y-113278640D01*
X75688248Y-113278965D01*
X75689517Y-113279733D01*
X75738764Y-113309762D01*
X75739946Y-113310489D01*
X75740474Y-113310816D01*
X75741408Y-113311397D01*
X75801277Y-113348932D01*
X75803076Y-113350073D01*
X75803964Y-113350643D01*
X75805713Y-113351780D01*
X75858565Y-113386489D01*
X75860847Y-113388009D01*
X75861997Y-113388787D01*
X75864317Y-113390381D01*
X75912605Y-113424049D01*
X75915171Y-113425869D01*
X75916450Y-113426791D01*
X75918999Y-113428659D01*
X75965174Y-113463067D01*
X75967645Y-113464937D01*
X75968860Y-113465872D01*
X75971250Y-113467741D01*
X76017763Y-113504672D01*
X76019748Y-113506268D01*
X76020737Y-113507074D01*
X76022707Y-113508701D01*
X76072008Y-113549939D01*
X76073392Y-113551107D01*
X76074081Y-113551694D01*
X76075453Y-113552874D01*
X76129994Y-113600199D01*
X76130321Y-113600484D01*
X76130500Y-113600640D01*
X76130885Y-113600976D01*
X76139909Y-113608882D01*
X76166229Y-113631664D01*
X76189936Y-113651823D01*
X76207984Y-113666827D01*
X76218404Y-113675103D01*
X76218642Y-113675285D01*
X76222885Y-113678630D01*
X76224984Y-113680331D01*
X76229149Y-113683801D01*
X76247802Y-113699774D01*
X76251176Y-113702729D01*
X76252858Y-113704236D01*
X76256213Y-113707311D01*
X76281390Y-113730923D01*
X76283152Y-113732597D01*
X76283997Y-113733409D01*
X76285615Y-113734981D01*
X76315695Y-113764546D01*
X76316794Y-113765634D01*
X76317349Y-113766188D01*
X76318472Y-113767319D01*
X76351833Y-113801155D01*
X76352735Y-113802075D01*
X76353173Y-113802525D01*
X76354023Y-113803404D01*
X76389043Y-113839826D01*
X76389840Y-113840659D01*
X76390243Y-113841083D01*
X76391056Y-113841944D01*
X76426114Y-113879269D01*
X76426939Y-113880153D01*
X76427364Y-113880611D01*
X76428241Y-113881561D01*
X76461714Y-113918104D01*
X76462775Y-113919272D01*
X76463288Y-113919841D01*
X76464279Y-113920949D01*
X76494547Y-113955027D01*
X76496018Y-113956702D01*
X76496731Y-113957523D01*
X76498111Y-113959129D01*
X76523552Y-113989058D01*
X76524585Y-113990283D01*
X76525142Y-113990949D01*
X76526337Y-113992392D01*
X76563172Y-114037283D01*
X76563679Y-114037903D01*
X76563902Y-114038177D01*
X76564285Y-114038649D01*
X76596908Y-114078983D01*
X76597704Y-114079973D01*
X76598096Y-114080464D01*
X76598871Y-114081442D01*
X76626757Y-114116821D01*
X76627877Y-114118255D01*
X76628427Y-114118966D01*
X76629505Y-114120372D01*
X76654453Y-114153220D01*
X76655712Y-114154896D01*
X76656331Y-114155729D01*
X76657551Y-114157388D01*
X76681360Y-114190127D01*
X76682440Y-114191628D01*
X76683002Y-114192416D01*
X76684166Y-114194065D01*
X76708635Y-114229117D01*
X76709546Y-114230433D01*
X76709955Y-114231029D01*
X76710683Y-114232097D01*
X76737610Y-114271884D01*
X76738030Y-114272508D01*
X76738271Y-114272867D01*
X76738814Y-114273679D01*
X76769997Y-114320624D01*
X76770072Y-114320738D01*
X76770137Y-114320836D01*
X76770323Y-114321116D01*
X76774072Y-114326789D01*
X76774071Y-114326789D01*
X76792287Y-114354291D01*
X76808749Y-114379052D01*
X76821431Y-114398029D01*
X76828443Y-114408400D01*
X76828775Y-114408885D01*
X76830857Y-114411985D01*
X76831867Y-114413519D01*
X76833825Y-114416551D01*
X76841707Y-114429006D01*
X76848132Y-114439907D01*
X76851168Y-114445452D01*
X76856887Y-114456730D01*
X76860131Y-114463662D01*
X76860964Y-114465699D01*
X76861329Y-114466333D01*
X76862003Y-114467818D01*
X76866497Y-114476544D01*
X76876984Y-114496213D01*
X76890824Y-114521620D01*
X76892549Y-114524782D01*
X76893510Y-114526565D01*
X76894002Y-114527489D01*
X76894996Y-114529380D01*
X76911565Y-114561315D01*
X76912601Y-114563340D01*
X76913107Y-114564343D01*
X76914095Y-114566328D01*
X76933863Y-114606617D01*
X76934425Y-114607773D01*
X76934732Y-114608409D01*
X76935397Y-114609799D01*
X76957087Y-114655632D01*
X76957600Y-114656727D01*
X76957832Y-114657225D01*
X76958247Y-114658121D01*
X76980580Y-114706685D01*
X76981000Y-114707603D01*
X76981211Y-114708068D01*
X76981635Y-114709010D01*
X77003334Y-114757494D01*
X77003763Y-114758458D01*
X77003992Y-114758977D01*
X77004478Y-114760089D01*
X77024265Y-114805681D01*
X77024927Y-114807223D01*
X77025223Y-114807921D01*
X77025749Y-114809173D01*
X77042346Y-114849062D01*
X77043300Y-114851397D01*
X77043772Y-114852573D01*
X77044705Y-114854941D01*
X77056836Y-114886315D01*
X77058257Y-114890102D01*
X77058954Y-114892019D01*
X77060320Y-114895902D01*
X77088547Y-114978811D01*
X77089986Y-114983203D01*
X77090685Y-114985423D01*
X77092040Y-114989909D01*
X77131614Y-115126704D01*
X77133064Y-115131986D01*
X77133744Y-115134603D01*
X77135018Y-115139790D01*
X77167391Y-115279616D01*
X77168525Y-115284827D01*
X77169058Y-115287445D01*
X77170055Y-115292705D01*
X77194670Y-115432678D01*
X77195558Y-115438172D01*
X77195965Y-115440935D01*
X77196704Y-115446495D01*
X77209417Y-115553538D01*
X77225009Y-115553642D01*
X77474932Y-115555304D01*
X77494537Y-115556399D01*
X77504285Y-115557425D01*
X77542664Y-115565324D01*
X77552025Y-115568231D01*
X77588167Y-115583483D01*
X77596780Y-115588161D01*
X77629228Y-115610156D01*
X77636764Y-115616425D01*
X77664308Y-115644340D01*
X77670475Y-115651958D01*
X77692030Y-115684685D01*
X77696593Y-115693359D01*
X77711360Y-115729690D01*
X77714143Y-115739089D01*
X77721506Y-115777268D01*
X77722403Y-115786870D01*
X77723269Y-115806170D01*
X77722380Y-116061219D01*
X77749018Y-116063843D01*
X77786537Y-116075224D01*
X77821114Y-116093706D01*
X77851421Y-116118579D01*
X77876294Y-116148886D01*
X77894776Y-116183463D01*
X77906157Y-116220982D01*
X77910000Y-116260000D01*
X77910000Y-116760000D01*
X77906157Y-116799018D01*
X77894776Y-116836537D01*
X77876294Y-116871114D01*
X77851421Y-116901421D01*
X77821114Y-116926294D01*
X77786537Y-116944776D01*
X77749018Y-116956157D01*
X77719253Y-116959089D01*
X77718724Y-117110946D01*
X77717692Y-117130552D01*
X77716697Y-117140303D01*
X77708915Y-117178723D01*
X77706037Y-117188093D01*
X77690902Y-117224271D01*
X77686251Y-117232899D01*
X77664364Y-117265410D01*
X77658120Y-117272965D01*
X77630294Y-117300598D01*
X77622695Y-117306790D01*
X77590020Y-117328458D01*
X77581360Y-117333048D01*
X77545098Y-117347921D01*
X77535709Y-117350734D01*
X77496877Y-117358284D01*
X77486946Y-117359210D01*
X77466991Y-117360069D01*
X77228912Y-117358417D01*
X77228912Y-117358418D01*
X77224138Y-117358386D01*
X77201576Y-117358296D01*
X77201388Y-117359574D01*
X77200573Y-117364649D01*
X77178517Y-117491584D01*
X77177598Y-117496507D01*
X77177109Y-117498956D01*
X77176073Y-117503830D01*
X77147914Y-117628582D01*
X77146730Y-117633532D01*
X77146104Y-117636010D01*
X77144782Y-117640973D01*
X77111147Y-117761042D01*
X77109563Y-117766407D01*
X77108741Y-117769054D01*
X77107041Y-117774275D01*
X77068556Y-117887163D01*
X77066404Y-117893162D01*
X77065279Y-117896147D01*
X77062930Y-117902089D01*
X77020220Y-118005296D01*
X77019179Y-118007765D01*
X77018648Y-118009001D01*
X77017565Y-118011475D01*
X77011831Y-118024341D01*
X77009338Y-118030336D01*
X77006647Y-118038611D01*
X77002737Y-118048793D01*
X77000558Y-118054228D01*
X76999434Y-118056917D01*
X76997118Y-118062238D01*
X76988608Y-118081044D01*
X76987837Y-118082728D01*
X76987428Y-118083610D01*
X76986562Y-118085452D01*
X76974527Y-118110728D01*
X76973993Y-118111841D01*
X76973755Y-118112333D01*
X76973340Y-118113186D01*
X76958852Y-118142777D01*
X76958606Y-118143279D01*
X76958428Y-118143640D01*
X76957959Y-118144583D01*
X76942094Y-118176336D01*
X76941639Y-118177242D01*
X76941470Y-118177576D01*
X76941251Y-118178008D01*
X76925083Y-118209770D01*
X76924795Y-118210333D01*
X76924598Y-118210717D01*
X76924096Y-118211689D01*
X76908697Y-118241305D01*
X76908040Y-118242558D01*
X76907757Y-118243093D01*
X76907284Y-118243982D01*
X76893729Y-118269298D01*
X76892767Y-118271072D01*
X76892241Y-118272031D01*
X76891096Y-118274090D01*
X76880459Y-118292953D01*
X76879471Y-118294684D01*
X76879022Y-118295462D01*
X76878214Y-118296851D01*
X76872430Y-118306689D01*
X76862378Y-118324113D01*
X76859585Y-118329140D01*
X76858958Y-118330565D01*
X76856247Y-118336233D01*
X76850466Y-118347403D01*
X76842857Y-118361037D01*
X76841207Y-118363937D01*
X76840364Y-118365390D01*
X76838641Y-118368302D01*
X76825418Y-118390230D01*
X76824618Y-118391545D01*
X76824229Y-118392179D01*
X76823474Y-118393400D01*
X76805484Y-118422254D01*
X76804897Y-118423190D01*
X76804642Y-118423594D01*
X76804211Y-118424274D01*
X76782297Y-118458685D01*
X76781957Y-118459216D01*
X76781755Y-118459531D01*
X76781285Y-118460261D01*
X76756295Y-118498861D01*
X76755630Y-118499881D01*
X76755382Y-118500259D01*
X76755058Y-118500752D01*
X76748165Y-118511191D01*
X76747306Y-118512480D01*
X76746842Y-118513171D01*
X76745843Y-118514645D01*
X76721170Y-118550691D01*
X76720199Y-118552097D01*
X76719741Y-118552754D01*
X76718881Y-118553977D01*
X76689292Y-118595753D01*
X76688641Y-118596667D01*
X76688307Y-118597133D01*
X76687622Y-118598083D01*
X76655118Y-118642877D01*
X76654539Y-118643671D01*
X76654245Y-118644072D01*
X76653647Y-118644883D01*
X76620230Y-118689984D01*
X76619719Y-118690671D01*
X76619408Y-118691087D01*
X76618673Y-118692063D01*
X76586343Y-118734762D01*
X76585565Y-118735783D01*
X76585166Y-118736303D01*
X76584350Y-118737360D01*
X76555110Y-118774945D01*
X76553750Y-118776673D01*
X76553111Y-118777476D01*
X76551917Y-118778962D01*
X76527768Y-118808722D01*
X76526418Y-118810368D01*
X76525704Y-118811229D01*
X76524194Y-118813028D01*
X76472924Y-118873397D01*
X76471830Y-118874674D01*
X76471297Y-118875291D01*
X76470260Y-118876482D01*
X76423122Y-118930186D01*
X76421583Y-118931919D01*
X76420822Y-118932766D01*
X76419319Y-118934420D01*
X76374764Y-118982909D01*
X76373004Y-118984800D01*
X76372078Y-118985782D01*
X76370131Y-118987818D01*
X76325691Y-119033635D01*
X76323771Y-119035588D01*
X76322810Y-119036552D01*
X76320887Y-119038455D01*
X76274091Y-119084144D01*
X76272312Y-119085859D01*
X76271470Y-119086661D01*
X76269884Y-119088156D01*
X76218263Y-119136263D01*
X76217054Y-119137380D01*
X76216430Y-119137952D01*
X76215142Y-119139122D01*
X76156229Y-119192190D01*
X76156200Y-119192216D01*
X76155969Y-119192424D01*
X76155072Y-119193227D01*
X76138969Y-119207552D01*
X76138844Y-119207662D01*
X76138845Y-119207663D01*
X76095415Y-119246246D01*
X76095057Y-119246562D01*
X76059522Y-119278010D01*
X76059521Y-119278009D01*
X76058849Y-119278604D01*
X76030028Y-119303926D01*
X76029319Y-119304546D01*
X76029080Y-119304754D01*
X76028836Y-119304966D01*
X76005547Y-119325168D01*
X76004748Y-119325857D01*
X76004360Y-119326190D01*
X76003606Y-119326834D01*
X75984667Y-119342926D01*
X75983460Y-119343943D01*
X75982874Y-119344433D01*
X75981737Y-119345378D01*
X75965969Y-119358366D01*
X75964452Y-119359603D01*
X75963668Y-119360236D01*
X75962048Y-119361529D01*
X75948268Y-119372421D01*
X75946538Y-119373774D01*
X75945680Y-119374437D01*
X75943980Y-119375736D01*
X75931008Y-119385540D01*
X75929725Y-119386502D01*
X75929020Y-119387026D01*
X75927481Y-119388158D01*
X75914135Y-119397881D01*
X75913465Y-119398367D01*
X75913141Y-119398601D01*
X75912514Y-119399052D01*
X75907899Y-119402358D01*
X75906962Y-119403025D01*
X75906572Y-119403301D01*
X75905950Y-119403740D01*
X75876447Y-119424451D01*
X75875562Y-119425068D01*
X75875147Y-119425356D01*
X75874372Y-119425892D01*
X75838057Y-119450841D01*
X75837720Y-119451072D01*
X75837451Y-119451256D01*
X75836712Y-119451759D01*
X75795506Y-119479675D01*
X75794833Y-119480128D01*
X75794629Y-119480265D01*
X75794487Y-119480361D01*
X75750310Y-119509974D01*
X75749889Y-119510255D01*
X75749712Y-119510373D01*
X75749425Y-119510564D01*
X75704196Y-119540604D01*
X75704043Y-119540706D01*
X75703868Y-119540822D01*
X75703321Y-119541183D01*
X75658959Y-119570380D01*
X75658570Y-119570635D01*
X75658373Y-119570764D01*
X75657975Y-119571025D01*
X75616400Y-119598108D01*
X75615884Y-119598442D01*
X75615629Y-119598607D01*
X75615125Y-119598933D01*
X75578257Y-119622632D01*
X75577347Y-119623213D01*
X75576955Y-119623462D01*
X75576297Y-119623878D01*
X75546055Y-119642923D01*
X75544543Y-119643866D01*
X75543772Y-119644342D01*
X75542198Y-119645303D01*
X75520502Y-119658423D01*
X75518802Y-119659440D01*
X75517931Y-119659955D01*
X75516147Y-119660997D01*
X75498385Y-119671253D01*
X75497904Y-119671530D01*
X75497592Y-119671709D01*
X75496827Y-119672146D01*
X75443597Y-119702374D01*
X75442774Y-119702839D01*
X75442336Y-119703085D01*
X75441404Y-119703605D01*
X75388662Y-119732858D01*
X75387754Y-119733359D01*
X75387305Y-119733605D01*
X75386418Y-119734088D01*
X75336244Y-119761249D01*
X75335185Y-119761818D01*
X75334664Y-119762096D01*
X75333640Y-119762638D01*
X75288111Y-119786594D01*
X75286621Y-119787370D01*
X75285911Y-119787736D01*
X75284560Y-119788426D01*
X75245754Y-119808059D01*
X75243452Y-119809205D01*
X75242266Y-119809786D01*
X75239824Y-119810962D01*
X75209819Y-119825160D01*
X75207738Y-119826130D01*
X75206745Y-119826586D01*
X75204865Y-119827438D01*
X75200525Y-119829377D01*
X75168746Y-119843708D01*
X75136613Y-119858376D01*
X75108516Y-119871379D01*
X75103087Y-119873904D01*
X75102297Y-119874270D01*
X75101836Y-119874482D01*
X75100781Y-119874963D01*
X75079735Y-119884494D01*
X75077727Y-119885391D01*
X75076724Y-119885832D01*
X75074721Y-119886699D01*
X75059076Y-119893375D01*
X75052807Y-119895926D01*
X75049649Y-119897149D01*
X75043286Y-119899490D01*
X75036210Y-119901958D01*
X75029735Y-119904738D01*
X75011609Y-119912999D01*
X75006514Y-119915332D01*
X75003898Y-119916507D01*
X75002575Y-119917090D01*
X74999897Y-119918247D01*
X74969809Y-119930985D01*
X74967301Y-119932026D01*
X74966091Y-119932519D01*
X74963759Y-119933453D01*
X74924471Y-119948888D01*
X74923083Y-119949427D01*
X74922357Y-119949706D01*
X74920841Y-119950281D01*
X74874769Y-119967559D01*
X74873830Y-119967909D01*
X74873302Y-119968104D01*
X74872128Y-119968533D01*
X74821685Y-119986805D01*
X74820679Y-119987167D01*
X74820227Y-119987328D01*
X74819427Y-119987611D01*
X74767028Y-120006025D01*
X74765996Y-120006385D01*
X74765550Y-120006539D01*
X74764799Y-120006796D01*
X74712859Y-120024500D01*
X74711917Y-120024818D01*
X74711413Y-120024987D01*
X74710335Y-120025345D01*
X74661267Y-120041489D01*
X74660019Y-120041896D01*
X74659357Y-120042109D01*
X74657959Y-120042553D01*
X74614179Y-120056286D01*
X74612130Y-120056917D01*
X74611100Y-120057228D01*
X74609029Y-120057841D01*
X74572950Y-120068311D01*
X74571104Y-120068837D01*
X74570207Y-120069088D01*
X74568466Y-120069566D01*
X74493108Y-120089921D01*
X74492448Y-120090099D01*
X74492144Y-120090180D01*
X74491587Y-120090327D01*
X74414789Y-120110553D01*
X74414059Y-120110744D01*
X74413550Y-120110876D01*
X74412243Y-120111210D01*
X74343386Y-120128572D01*
X74341792Y-120128967D01*
X74341069Y-120129143D01*
X74339772Y-120129454D01*
X74276607Y-120144385D01*
X74274795Y-120144805D01*
X74273877Y-120145013D01*
X74272017Y-120145425D01*
X74212295Y-120158360D01*
X74210189Y-120158804D01*
X74209142Y-120159019D01*
X74207058Y-120159436D01*
X74148529Y-120170808D01*
X74146371Y-120171214D01*
X74145305Y-120171409D01*
X74143201Y-120171783D01*
X74083616Y-120182026D01*
X74081816Y-120182327D01*
X74080850Y-120182484D01*
X74078786Y-120182808D01*
X74015895Y-120192356D01*
X74014195Y-120192607D01*
X74013412Y-120192719D01*
X74011979Y-120192918D01*
X73943533Y-120202204D01*
X73942529Y-120202338D01*
X73941962Y-120202412D01*
X73940698Y-120202573D01*
X73864447Y-120212031D01*
X73863355Y-120212163D01*
X73862992Y-120212206D01*
X73862632Y-120212249D01*
X73776327Y-120222314D01*
X73774974Y-120222467D01*
X73774254Y-120222546D01*
X73772729Y-120222707D01*
X73741985Y-120225842D01*
X73740000Y-120226035D01*
X73738999Y-120226127D01*
X73736978Y-120226302D01*
X73703166Y-120229064D01*
X73701456Y-120229196D01*
X73700580Y-120229260D01*
X73698788Y-120229383D01*
X73665744Y-120231499D01*
X73663805Y-120231614D01*
X73662884Y-120231664D01*
X73661136Y-120231751D01*
X73631236Y-120233112D01*
X73628714Y-120233211D01*
X73627467Y-120233252D01*
X73625004Y-120233318D01*
X73600622Y-120233819D01*
X73595776Y-120233860D01*
X73593333Y-120233851D01*
X73588407Y-120233772D01*
X73571920Y-120233305D01*
X73550525Y-120231546D01*
X73539906Y-120230096D01*
X73518824Y-120226055D01*
X73512606Y-120224513D01*
X73493815Y-120218861D01*
X73484579Y-120215581D01*
X73449082Y-120198894D01*
X73440663Y-120193874D01*
X73409141Y-120170611D01*
X73401862Y-120164046D01*
X73375448Y-120135041D01*
X73369591Y-120127182D01*
X73349353Y-120093593D01*
X73345142Y-120084742D01*
X73331853Y-120047872D01*
X73329449Y-120038370D01*
X73324177Y-120007591D01*
X73323646Y-120001804D01*
X73322920Y-119990192D01*
X73322909Y-119989862D01*
X73322853Y-119987896D01*
X73322830Y-119986917D01*
X73322794Y-119984968D01*
X73322671Y-119976016D01*
X73322663Y-119975431D01*
X73322431Y-119955081D01*
X73322430Y-119954929D01*
X73322099Y-119924259D01*
X73322099Y-119924186D01*
X73322098Y-119924186D01*
X73321679Y-119884274D01*
X73321679Y-119884218D01*
X73321185Y-119836142D01*
X73321185Y-119836111D01*
X73321184Y-119836111D01*
X73320624Y-119780949D01*
X73320624Y-119780920D01*
X73320010Y-119719750D01*
X73320011Y-119719750D01*
X73320009Y-119719722D01*
X73319353Y-119653622D01*
X73319353Y-119653603D01*
X73318664Y-119583652D01*
X73318664Y-119583596D01*
X73318663Y-119583596D01*
X73318306Y-119546509D01*
X73318305Y-119546333D01*
X73317615Y-119468965D01*
X73317611Y-119468585D01*
X73317123Y-119402652D01*
X73317121Y-119402043D01*
X73317120Y-119402043D01*
X73316845Y-119346665D01*
X73316846Y-119346665D01*
X73316845Y-119346515D01*
X73316842Y-119345698D01*
X73316792Y-119299991D01*
X73316793Y-119299118D01*
X73316794Y-119298812D01*
X73316796Y-119298464D01*
X73316981Y-119261547D01*
X73316988Y-119260517D01*
X73316993Y-119260025D01*
X73317005Y-119259086D01*
X73317436Y-119230076D01*
X73317462Y-119228663D01*
X73317480Y-119227842D01*
X73317530Y-119225970D01*
X73318218Y-119203986D01*
X73318334Y-119200998D01*
X73318401Y-119199550D01*
X73318550Y-119196747D01*
X73319506Y-119180905D01*
X73319921Y-119175323D01*
X73320167Y-119172543D01*
X73320735Y-119167004D01*
X73321969Y-119156423D01*
X73323797Y-119144099D01*
X73324904Y-119137960D01*
X73327508Y-119125726D01*
X73329032Y-119119524D01*
X73334646Y-119100715D01*
X73337907Y-119091471D01*
X73352472Y-119059472D01*
X73356302Y-119052707D01*
X73364484Y-119039482D01*
X73366308Y-119036775D01*
X73378061Y-119021056D01*
X73384308Y-119013504D01*
X73412135Y-118985891D01*
X73419736Y-118979702D01*
X73446770Y-118961156D01*
X73452491Y-118957886D01*
X73464154Y-118951720D01*
X73464891Y-118951361D01*
X73489998Y-118941173D01*
X73502837Y-118936951D01*
X73529086Y-118930251D01*
X73540319Y-118928182D01*
X73550270Y-118926607D01*
X73555265Y-118925945D01*
X73565293Y-118924872D01*
X73586099Y-118923176D01*
X73590036Y-118922894D01*
X73592014Y-118922772D01*
X73595991Y-118922567D01*
X73623681Y-118921412D01*
X73626523Y-118921313D01*
X73627906Y-118921275D01*
X73630595Y-118921220D01*
X73661734Y-118920783D01*
X73693901Y-118920204D01*
X73751599Y-118917174D01*
X73815424Y-118911723D01*
X73880574Y-118904231D01*
X73944057Y-118894907D01*
X73948915Y-118894103D01*
X73948946Y-118894097D01*
X73981037Y-118888794D01*
X73981107Y-118888783D01*
X74012442Y-118883614D01*
X74012442Y-118883615D01*
X74012527Y-118883600D01*
X74035176Y-118879872D01*
X74044089Y-118878253D01*
X74066027Y-118873523D01*
X74085858Y-118868430D01*
X74097318Y-118865197D01*
X74098710Y-118864810D01*
X74099439Y-118864610D01*
X74100962Y-118864198D01*
X74122370Y-118858506D01*
X74124934Y-118857843D01*
X74126217Y-118857520D01*
X74128783Y-118856892D01*
X74143396Y-118853418D01*
X74161413Y-118849063D01*
X74186951Y-118841882D01*
X74221352Y-118831480D01*
X74259602Y-118819340D01*
X74297750Y-118806722D01*
X74332279Y-118794781D01*
X74358041Y-118785324D01*
X74374030Y-118778805D01*
X74376617Y-118777668D01*
X74377489Y-118777288D01*
X74378033Y-118777052D01*
X74379355Y-118776484D01*
X74397970Y-118768567D01*
X74398739Y-118768242D01*
X74399053Y-118768110D01*
X74399540Y-118767906D01*
X74424310Y-118757570D01*
X74424811Y-118757361D01*
X74425038Y-118757267D01*
X74425446Y-118757099D01*
X74450420Y-118746822D01*
X74469906Y-118738378D01*
X74501855Y-118723488D01*
X74541516Y-118704162D01*
X74585151Y-118682220D01*
X74629388Y-118659364D01*
X74671310Y-118637089D01*
X74706964Y-118617476D01*
X74733552Y-118602073D01*
X74765121Y-118582527D01*
X74853998Y-118522778D01*
X74943046Y-118456616D01*
X75030675Y-118385418D01*
X75113722Y-118311796D01*
X75189008Y-118238578D01*
X75256185Y-118165847D01*
X75260134Y-118161278D01*
X75353655Y-118048297D01*
X75435751Y-117940111D01*
X75507304Y-117836036D01*
X75567738Y-117737318D01*
X75617233Y-117644097D01*
X75688139Y-117488340D01*
X75750691Y-117327341D01*
X75791536Y-117199670D01*
X75791537Y-117199667D01*
X75801923Y-117167205D01*
X75842419Y-117006411D01*
X75873080Y-116841096D01*
X75875517Y-116823932D01*
X75882349Y-116762618D01*
X75888002Y-116692098D01*
X75892329Y-116614758D01*
X75895140Y-116534406D01*
X75896321Y-116454345D01*
X75895803Y-116378268D01*
X75893579Y-116309776D01*
X75889814Y-116253240D01*
X75875904Y-116132552D01*
X75847283Y-115968590D01*
X75808308Y-115806881D01*
X75808307Y-115806881D01*
X75807696Y-115804348D01*
X75757161Y-115639866D01*
X75695920Y-115476242D01*
X75623256Y-115312336D01*
X75606425Y-115278090D01*
X75586244Y-115239732D01*
X75564866Y-115202277D01*
X75539256Y-115160519D01*
X75507364Y-115111138D01*
X75455712Y-115034650D01*
X75370604Y-114917746D01*
X75285882Y-114812738D01*
X75199480Y-114716890D01*
X75109701Y-114628172D01*
X75014717Y-114544627D01*
X74910804Y-114463005D01*
X74866196Y-114430286D01*
X74806812Y-114388603D01*
X74752417Y-114352926D01*
X74698462Y-114320250D01*
X74640400Y-114287793D01*
X74575106Y-114253696D01*
X74493408Y-114214186D01*
X74360068Y-114157762D01*
X74226891Y-114110841D01*
X74094534Y-114073406D01*
X73965076Y-114045913D01*
X73835519Y-114027968D01*
X73827631Y-114027181D01*
X73827482Y-114027166D01*
X73827482Y-114027167D01*
X73788120Y-114023215D01*
X73788120Y-114023214D01*
X73787954Y-114023198D01*
X73747123Y-114019071D01*
X73746920Y-114019048D01*
X73746920Y-114019050D01*
X73712289Y-114015521D01*
X73707738Y-114015083D01*
X73675520Y-114012721D01*
X73640783Y-114011072D01*
X73609391Y-114010443D01*
X73600173Y-114010415D01*
X73598053Y-114010397D01*
X73597025Y-114010383D01*
X73595036Y-114010346D01*
X73568855Y-114009729D01*
X73561279Y-114009407D01*
X73557494Y-114009174D01*
X73549930Y-114008564D01*
X73533409Y-114006916D01*
X73511686Y-114003535D01*
X73500948Y-114001253D01*
X73479721Y-113995506D01*
X73470596Y-113992488D01*
X73452286Y-113985418D01*
X73443327Y-113981443D01*
X73409219Y-113962105D01*
X73401207Y-113956458D01*
X73374268Y-113933662D01*
X73368752Y-113928088D01*
X73358158Y-113916507D01*
X73354163Y-113911780D01*
X73342243Y-113896183D01*
X73336680Y-113888112D01*
X73315327Y-113848056D01*
X73310592Y-113836063D01*
X73302674Y-113811462D01*
X73302572Y-113811057D01*
X73299005Y-113793665D01*
X73297610Y-113784905D01*
X73295598Y-113767257D01*
X73294923Y-113757501D01*
X73294692Y-113753622D01*
X73294595Y-113751670D01*
X73294439Y-113747738D01*
X73293804Y-113726560D01*
X73293766Y-113725126D01*
X73293753Y-113724556D01*
X73293736Y-113723711D01*
X73293151Y-113692225D01*
X73293147Y-113692006D01*
X73293142Y-113691720D01*
X73293128Y-113690795D01*
X73292605Y-113650113D01*
X73292600Y-113649764D01*
X73292598Y-113649584D01*
X73292595Y-113649216D01*
X73292143Y-113600452D01*
X73292140Y-113600125D01*
X73292139Y-113599994D01*
X73292137Y-113599795D01*
X73291767Y-113544064D01*
X73291765Y-113543533D01*
X73291487Y-113481947D01*
X73291488Y-113481947D01*
X73291485Y-113481474D01*
X73291311Y-113415146D01*
X73291310Y-113414621D01*
X73291310Y-113414533D01*
X73291250Y-113344750D01*
X73291250Y-113344431D01*
X73291272Y-113291132D01*
X73291272Y-113290786D01*
X73291414Y-113211929D01*
X73291415Y-113211929D01*
X73291416Y-113211326D01*
X73291699Y-113144123D01*
X73291706Y-113143232D01*
X73291705Y-113143232D01*
X73292099Y-113092568D01*
X73292142Y-113087034D01*
X73292144Y-113086827D01*
X73292155Y-113085693D01*
X73292757Y-113039840D01*
X73292776Y-113038666D01*
X73292784Y-113038245D01*
X73292794Y-113037737D01*
X73293573Y-113001580D01*
X73293606Y-113000264D01*
X73293626Y-112999553D01*
X73293675Y-112998027D01*
X73294645Y-112970913D01*
X73294762Y-112968173D01*
X73294828Y-112966840D01*
X73294973Y-112964246D01*
X73296144Y-112945523D01*
X73296635Y-112939258D01*
X73296930Y-112936125D01*
X73297620Y-112929858D01*
X73299005Y-112918872D01*
X73304085Y-112892739D01*
X73307482Y-112879898D01*
X73315991Y-112854666D01*
X73317603Y-112850765D01*
X73325979Y-112833017D01*
X73330592Y-112824369D01*
X73352342Y-112791756D01*
X73358554Y-112784173D01*
X73386260Y-112756419D01*
X73393831Y-112750195D01*
X73426412Y-112728386D01*
X73435053Y-112723758D01*
X73476307Y-112707261D01*
X73488269Y-112703962D01*
X73512597Y-112698855D01*
X73517242Y-112698178D01*
X73527973Y-112696909D01*
X73533350Y-112696420D01*
X73544129Y-112695733D01*
X73560887Y-112695118D01*
X73564392Y-112695020D01*
X73566167Y-112694986D01*
X73569763Y-112694949D01*
X73596232Y-112694918D01*
X73597725Y-112694922D01*
G37*
G36*
X69815336Y-134351151D02*
G01*
X69815381Y-134351151D01*
X69902843Y-134351171D01*
X69902991Y-134351171D01*
X69978778Y-134351233D01*
X69979050Y-134351233D01*
X70044002Y-134351357D01*
X70044462Y-134351358D01*
X70099416Y-134351564D01*
X70100036Y-134351568D01*
X70100144Y-134351569D01*
X70100144Y-134351568D01*
X70145941Y-134351873D01*
X70146326Y-134351876D01*
X70146559Y-134351878D01*
X70147104Y-134351884D01*
X70184584Y-134352308D01*
X70185556Y-134352321D01*
X70185927Y-134352327D01*
X70186439Y-134352336D01*
X70216439Y-134352898D01*
X70217667Y-134352925D01*
X70218270Y-134352940D01*
X70219457Y-134352973D01*
X70242818Y-134353693D01*
X70244785Y-134353763D01*
X70245793Y-134353804D01*
X70247856Y-134353899D01*
X70265417Y-134354795D01*
X70268905Y-134355003D01*
X70270670Y-134355124D01*
X70274244Y-134355402D01*
X70286844Y-134356493D01*
X70293486Y-134357180D01*
X70296785Y-134357577D01*
X70303336Y-134358475D01*
X70311815Y-134359781D01*
X70325100Y-134362289D01*
X70331696Y-134363767D01*
X70344798Y-134367173D01*
X70349994Y-134368713D01*
X70376989Y-134378883D01*
X70390051Y-134384913D01*
X70415302Y-134398862D01*
X70418056Y-134400654D01*
X70433958Y-134412150D01*
X70441610Y-134418275D01*
X70475490Y-134452911D01*
X70484246Y-134464359D01*
X70500097Y-134488519D01*
X70501247Y-134490583D01*
X70509951Y-134508186D01*
X70513859Y-134517175D01*
X70524331Y-134547852D01*
X70525905Y-134554072D01*
X70528657Y-134566629D01*
X70528701Y-134566866D01*
X70530768Y-134580667D01*
X70531560Y-134587598D01*
X70532660Y-134601522D01*
X70533054Y-134610486D01*
X70533147Y-134612941D01*
X70533184Y-134614110D01*
X70533242Y-134616327D01*
X70533671Y-134637199D01*
X70533676Y-134637439D01*
X70533682Y-134637749D01*
X70533698Y-134638750D01*
X70534158Y-134670819D01*
X70534160Y-134670967D01*
X70534162Y-134671114D01*
X70534168Y-134671556D01*
X70534653Y-134714112D01*
X70534653Y-134714144D01*
X70534654Y-134714233D01*
X70534658Y-134714554D01*
X70535162Y-134766889D01*
X70535163Y-134767179D01*
X70535164Y-134767179D01*
X70535684Y-134828581D01*
X70535683Y-134828581D01*
X70535686Y-134828799D01*
X70536216Y-134898559D01*
X70536217Y-134898737D01*
X70536750Y-134976146D01*
X70536751Y-134976284D01*
X70537285Y-135060630D01*
X70537285Y-135060758D01*
X70537286Y-135060758D01*
X70537813Y-135151333D01*
X70537813Y-135151443D01*
X70538330Y-135247537D01*
X70538330Y-135247643D01*
X70538331Y-135247643D01*
X70538831Y-135348545D01*
X70538831Y-135348644D01*
X70539310Y-135453645D01*
X70539308Y-135453645D01*
X70539311Y-135453740D01*
X70539764Y-135562130D01*
X70539764Y-135562145D01*
X70540448Y-135728071D01*
X70541254Y-135909712D01*
X70541253Y-135909718D01*
X70542071Y-136078993D01*
X70542070Y-136078993D01*
X70542899Y-136235898D01*
X70542900Y-136235898D01*
X70543741Y-136380567D01*
X70544592Y-136512865D01*
X70545455Y-136632980D01*
X70545454Y-136632995D01*
X70546323Y-136740167D01*
X70547203Y-136835063D01*
X70547961Y-136905352D01*
X70607665Y-136905262D01*
X70671857Y-136905100D01*
X70738294Y-136904874D01*
X70805260Y-136904590D01*
X70805271Y-136904591D01*
X70871552Y-136904253D01*
X70935973Y-136903869D01*
X70997808Y-136903439D01*
X70997819Y-136903440D01*
X71021960Y-136903244D01*
X71026708Y-136866052D01*
X71026856Y-136864921D01*
X71026931Y-136864359D01*
X71027082Y-136863245D01*
X71031736Y-136829806D01*
X71032038Y-136827718D01*
X71032183Y-136826751D01*
X71032459Y-136824968D01*
X71036552Y-136799256D01*
X71037533Y-136793613D01*
X71038067Y-136790783D01*
X71039224Y-136785107D01*
X71054784Y-136714012D01*
X71056310Y-136707553D01*
X71057123Y-136704351D01*
X71058846Y-136698003D01*
X71082009Y-136617915D01*
X71083609Y-136612656D01*
X71084448Y-136610028D01*
X71086206Y-136604773D01*
X71115430Y-136521291D01*
X71117172Y-136516510D01*
X71118073Y-136514132D01*
X71119935Y-136509401D01*
X71154103Y-136425707D01*
X71156153Y-136420868D01*
X71157205Y-136418473D01*
X71159361Y-136413733D01*
X71197355Y-136333010D01*
X71198652Y-136330309D01*
X71199303Y-136328978D01*
X71200610Y-136326353D01*
X71202871Y-136321897D01*
X71203884Y-136319928D01*
X71204432Y-136318877D01*
X71205615Y-136316643D01*
X71243730Y-136245743D01*
X71246577Y-136240628D01*
X71248037Y-136238093D01*
X71251028Y-136233070D01*
X71289257Y-136170964D01*
X71293115Y-136164940D01*
X71295099Y-136161961D01*
X71299178Y-136156070D01*
X71339993Y-136099304D01*
X71344361Y-136093456D01*
X71346594Y-136090578D01*
X71351157Y-136084913D01*
X71397031Y-136030032D01*
X71401033Y-136025390D01*
X71403074Y-136023095D01*
X71407236Y-136018558D01*
X71460642Y-135962105D01*
X71466191Y-135956467D01*
X71469014Y-135953710D01*
X71474755Y-135948320D01*
X71539788Y-135889628D01*
X71548122Y-135882511D01*
X71552380Y-135879072D01*
X71561080Y-135872430D01*
X71641524Y-135814433D01*
X71650604Y-135808259D01*
X71655223Y-135805300D01*
X71664618Y-135799638D01*
X71751473Y-135750495D01*
X71761023Y-135745428D01*
X71765865Y-135743024D01*
X71775682Y-135738476D01*
X71867018Y-135699133D01*
X71877331Y-135695026D01*
X71882541Y-135693117D01*
X71893068Y-135689588D01*
X71986956Y-135660987D01*
X71998408Y-135657867D01*
X72004171Y-135656479D01*
X72015772Y-135654046D01*
X72110282Y-135637134D01*
X72118205Y-135635880D01*
X72122174Y-135635333D01*
X72130128Y-135634398D01*
X72150886Y-135632380D01*
X72158696Y-135631775D01*
X72162623Y-135631548D01*
X72170520Y-135631248D01*
X72257796Y-135629657D01*
X72269014Y-135629767D01*
X72274609Y-135629979D01*
X72285773Y-135630716D01*
X72377125Y-135639312D01*
X72387122Y-135640507D01*
X72392109Y-135641231D01*
X72402059Y-135642933D01*
X72495271Y-135661309D01*
X72504632Y-135663388D01*
X72509275Y-135664537D01*
X72518487Y-135667052D01*
X72611341Y-135694796D01*
X72620440Y-135697754D01*
X72624958Y-135699343D01*
X72633928Y-135702741D01*
X72724208Y-135739446D01*
X72729136Y-135741527D01*
X72731583Y-135742599D01*
X72736444Y-135744806D01*
X72746625Y-135749594D01*
X72750016Y-135751229D01*
X72751704Y-135752062D01*
X72755065Y-135753759D01*
X72825875Y-135790376D01*
X72832474Y-135793947D01*
X72835750Y-135795800D01*
X72842255Y-135799644D01*
X72908100Y-135840245D01*
X72914778Y-135844548D01*
X72918067Y-135846761D01*
X72924545Y-135851308D01*
X72988020Y-135897768D01*
X72993856Y-135902206D01*
X72996725Y-135904472D01*
X73002367Y-135909099D01*
X73066064Y-135963296D01*
X73070526Y-135967207D01*
X73072740Y-135969207D01*
X73077133Y-135973297D01*
X73143646Y-136037108D01*
X73146065Y-136039469D01*
X73147246Y-136040641D01*
X73149551Y-136042966D01*
X73174146Y-136068186D01*
X73176940Y-136071109D01*
X73178327Y-136072590D01*
X73181082Y-136075592D01*
X73252226Y-136154729D01*
X73256648Y-136159818D01*
X73258808Y-136162390D01*
X73263026Y-136167587D01*
X73327467Y-136249753D01*
X73331636Y-136255262D01*
X73333674Y-136258054D01*
X73337657Y-136263714D01*
X73397074Y-136351326D01*
X73400631Y-136356758D01*
X73402364Y-136359501D01*
X73405739Y-136365041D01*
X73461812Y-136460517D01*
X73464580Y-136465384D01*
X73465927Y-136467832D01*
X73468547Y-136472756D01*
X73522955Y-136578515D01*
X73524028Y-136580631D01*
X73524574Y-136581724D01*
X73525685Y-136583982D01*
X73527355Y-136587433D01*
X73527495Y-136587724D01*
X73527615Y-136587973D01*
X73527953Y-136588678D01*
X73542244Y-136618631D01*
X73542936Y-136620096D01*
X73543278Y-136620828D01*
X73543955Y-136622292D01*
X73556412Y-136649525D01*
X73557343Y-136651592D01*
X73557793Y-136652606D01*
X73558663Y-136654595D01*
X73570281Y-136681560D01*
X73571189Y-136683701D01*
X73571632Y-136684763D01*
X73572496Y-136686869D01*
X73584269Y-136716022D01*
X73584928Y-136717676D01*
X73585268Y-136718540D01*
X73585967Y-136720342D01*
X73598891Y-136754139D01*
X73599363Y-136755385D01*
X73599577Y-136755956D01*
X73599963Y-136756994D01*
X73615032Y-136797889D01*
X73615220Y-136798401D01*
X73615334Y-136798713D01*
X73615601Y-136799449D01*
X73633810Y-136849896D01*
X73634139Y-136850815D01*
X73634289Y-136851237D01*
X73634560Y-136852004D01*
X73640447Y-136868782D01*
X73641182Y-136870914D01*
X73641548Y-136871996D01*
X73642277Y-136874195D01*
X73659928Y-136928439D01*
X73660736Y-136930977D01*
X73661121Y-136932216D01*
X73661855Y-136934631D01*
X73679418Y-136993776D01*
X73680010Y-136995812D01*
X73680320Y-136996898D01*
X73680965Y-136999208D01*
X73697282Y-137059082D01*
X73697912Y-137061454D01*
X73698216Y-137062626D01*
X73698803Y-137064942D01*
X73712722Y-137121369D01*
X73713492Y-137124610D01*
X73713856Y-137126199D01*
X73714544Y-137129314D01*
X73724908Y-137178121D01*
X73725366Y-137180339D01*
X73725588Y-137181446D01*
X73726019Y-137183659D01*
X73730758Y-137208755D01*
X73736739Y-137240154D01*
X73741931Y-137267140D01*
X73745558Y-137285651D01*
X73745728Y-137286529D01*
X73745772Y-137286759D01*
X73745780Y-137286801D01*
X73746097Y-137288460D01*
X73747206Y-137294820D01*
X73747711Y-137298020D01*
X73748620Y-137304459D01*
X73751440Y-137327083D01*
X73752107Y-137333193D01*
X73752394Y-137336261D01*
X73752874Y-137342425D01*
X73754679Y-137371332D01*
X73754923Y-137376192D01*
X73755015Y-137378610D01*
X73755141Y-137383421D01*
X73755551Y-137412781D01*
X73755570Y-137415713D01*
X73755569Y-137417157D01*
X73755547Y-137419998D01*
X73755370Y-137431875D01*
X73756220Y-137434803D01*
X73760351Y-137449614D01*
X73762583Y-137458377D01*
X73763596Y-137462767D01*
X73765418Y-137471562D01*
X73772170Y-137508277D01*
X73773363Y-137515504D01*
X73773895Y-137519141D01*
X73774828Y-137526463D01*
X73780033Y-137574319D01*
X73780481Y-137578935D01*
X73780678Y-137581243D01*
X73781019Y-137585861D01*
X73784704Y-137645227D01*
X73784876Y-137648403D01*
X73784948Y-137649964D01*
X73785065Y-137653031D01*
X73787256Y-137724277D01*
X73787311Y-137726437D01*
X73787333Y-137727540D01*
X73787365Y-137729791D01*
X73788090Y-137813286D01*
X73788098Y-137814720D01*
X73788099Y-137815381D01*
X73788097Y-137816590D01*
X73787990Y-137840199D01*
X73787962Y-137842746D01*
X73787940Y-137844020D01*
X73787880Y-137846571D01*
X73784296Y-137965895D01*
X73784141Y-137969783D01*
X73784043Y-137971762D01*
X73783803Y-137975792D01*
X73775391Y-138096345D01*
X73775077Y-138100279D01*
X73774904Y-138102209D01*
X73774529Y-138105994D01*
X73761640Y-138224411D01*
X73761158Y-138228451D01*
X73760894Y-138230490D01*
X73760318Y-138234605D01*
X73743306Y-138347521D01*
X73742535Y-138352252D01*
X73742124Y-138354597D01*
X73741253Y-138359245D01*
X73720470Y-138463294D01*
X73719909Y-138466005D01*
X73719619Y-138467359D01*
X73719016Y-138470080D01*
X73717953Y-138474727D01*
X73717952Y-138474734D01*
X73712313Y-138499424D01*
X73706752Y-138523833D01*
X73706512Y-138524877D01*
X73706392Y-138525391D01*
X73706153Y-138526403D01*
X73702194Y-138542971D01*
X73701537Y-138545638D01*
X73701195Y-138546987D01*
X73700482Y-138549718D01*
X73687950Y-138596376D01*
X73687237Y-138598960D01*
X73686877Y-138600232D01*
X73686151Y-138602735D01*
X73670110Y-138656719D01*
X73669499Y-138658737D01*
X73669203Y-138659696D01*
X73668632Y-138661517D01*
X73650056Y-138719724D01*
X73649500Y-138721439D01*
X73649215Y-138722305D01*
X73648631Y-138724052D01*
X73628498Y-138783382D01*
X73627896Y-138785129D01*
X73627575Y-138786047D01*
X73626890Y-138787973D01*
X73606175Y-138845326D01*
X73605349Y-138847571D01*
X73604948Y-138848641D01*
X73604173Y-138850676D01*
X73589500Y-138888568D01*
X73587847Y-138892701D01*
X73586999Y-138894754D01*
X73585261Y-138898832D01*
X73534571Y-139014234D01*
X73532004Y-139019841D01*
X73530673Y-139022634D01*
X73527914Y-139028199D01*
X73469207Y-139142139D01*
X73466334Y-139147513D01*
X73464857Y-139150177D01*
X73461823Y-139155459D01*
X73397100Y-139264247D01*
X73393640Y-139269849D01*
X73391866Y-139272619D01*
X73388229Y-139278099D01*
X73319486Y-139378042D01*
X73316906Y-139381704D01*
X73315591Y-139383527D01*
X73312910Y-139387157D01*
X73306129Y-139396124D01*
X73304087Y-139398777D01*
X73303045Y-139400108D01*
X73300918Y-139402777D01*
X73269427Y-139441618D01*
X73266949Y-139444616D01*
X73265693Y-139446105D01*
X73263148Y-139449062D01*
X73226053Y-139491337D01*
X73224048Y-139493588D01*
X73223044Y-139494698D01*
X73221034Y-139496887D01*
X73180546Y-139540334D01*
X73178646Y-139542345D01*
X73177709Y-139543323D01*
X73175862Y-139545225D01*
X73134189Y-139587583D01*
X73132204Y-139589573D01*
X73131182Y-139590583D01*
X73129078Y-139592631D01*
X73088430Y-139631639D01*
X73085832Y-139634089D01*
X73084509Y-139635314D01*
X73081813Y-139637765D01*
X73044401Y-139671161D01*
X73040201Y-139674806D01*
X73038100Y-139676579D01*
X73033900Y-139680027D01*
X73001932Y-139705550D01*
X72998207Y-139708452D01*
X72996316Y-139709890D01*
X72992475Y-139712740D01*
X72980329Y-139721526D01*
X72976532Y-139724206D01*
X72974628Y-139725517D01*
X72970810Y-139728081D01*
X72872552Y-139792457D01*
X72864793Y-139797291D01*
X72860845Y-139799627D01*
X72852809Y-139804135D01*
X72754837Y-139856168D01*
X72745636Y-139860756D01*
X72740986Y-139862927D01*
X72731589Y-139867024D01*
X72633135Y-139906982D01*
X72622777Y-139910856D01*
X72617561Y-139912644D01*
X72607056Y-139915925D01*
X72507351Y-139944079D01*
X72496403Y-139946839D01*
X72490879Y-139948067D01*
X72479729Y-139950216D01*
X72378004Y-139966837D01*
X72367002Y-139968322D01*
X72361499Y-139968910D01*
X72350490Y-139969780D01*
X72245975Y-139975138D01*
X72234546Y-139975396D01*
X72228826Y-139975362D01*
X72217376Y-139974966D01*
X72143546Y-139970291D01*
X72132011Y-139969225D01*
X72126262Y-139968525D01*
X72114798Y-139966790D01*
X72029491Y-139951342D01*
X72018910Y-139949129D01*
X72013660Y-139947882D01*
X72003243Y-139945109D01*
X71916521Y-139919503D01*
X71906961Y-139916418D01*
X71902214Y-139914753D01*
X71892784Y-139911176D01*
X71806838Y-139876071D01*
X71797728Y-139872082D01*
X71793234Y-139869980D01*
X71784370Y-139865564D01*
X71701390Y-139821620D01*
X71694610Y-139817859D01*
X71691253Y-139815911D01*
X71684604Y-139811878D01*
X71645009Y-139786795D01*
X71637812Y-139782015D01*
X71634262Y-139779545D01*
X71627259Y-139774444D01*
X71543222Y-139710399D01*
X71534253Y-139703145D01*
X71529878Y-139699393D01*
X71521347Y-139691639D01*
X71443434Y-139616611D01*
X71435810Y-139608860D01*
X71432104Y-139604881D01*
X71424906Y-139596717D01*
X71353282Y-139510895D01*
X71346999Y-139502968D01*
X71343961Y-139498929D01*
X71338090Y-139490699D01*
X71272918Y-139394269D01*
X71267881Y-139386427D01*
X71265460Y-139382458D01*
X71260812Y-139374426D01*
X71202256Y-139267576D01*
X71200123Y-139263576D01*
X71199066Y-139261539D01*
X71196974Y-139257391D01*
X71192094Y-139247427D01*
X71191610Y-139246431D01*
X71191398Y-139245992D01*
X71191032Y-139245230D01*
X71175041Y-139211756D01*
X71174441Y-139210489D01*
X71174137Y-139209841D01*
X71173522Y-139208517D01*
X71158946Y-139176848D01*
X71158233Y-139175282D01*
X71157874Y-139174484D01*
X71157151Y-139172856D01*
X71145429Y-139146167D01*
X71144129Y-139143140D01*
X71143494Y-139141627D01*
X71142254Y-139138605D01*
X71134829Y-139120071D01*
X71133536Y-139116757D01*
X71132905Y-139115097D01*
X71131674Y-139111770D01*
X71127044Y-139098908D01*
X71117465Y-139072569D01*
X71109202Y-139050148D01*
X71109201Y-139050148D01*
X71109146Y-139049999D01*
X71108892Y-139049305D01*
X71106163Y-139041827D01*
X71105452Y-139039847D01*
X71105106Y-139038867D01*
X71104432Y-139036925D01*
X71096860Y-139014755D01*
X71095807Y-139011587D01*
X71095296Y-139010005D01*
X71094305Y-139006848D01*
X71088825Y-138988871D01*
X71088127Y-138986530D01*
X71087776Y-138985326D01*
X71087073Y-138982855D01*
X71084808Y-138974699D01*
X71079254Y-138955438D01*
X71072630Y-138933110D01*
X71071635Y-138929642D01*
X71071158Y-138927921D01*
X71070245Y-138924511D01*
X71055996Y-138869335D01*
X71054553Y-138863368D01*
X71053878Y-138860378D01*
X71052620Y-138854383D01*
X71039423Y-138786277D01*
X71038604Y-138781775D01*
X71038220Y-138779518D01*
X71037503Y-138774992D01*
X71027793Y-138708775D01*
X70552775Y-138708775D01*
X70552775Y-138817550D01*
X70552778Y-138830608D01*
X70552845Y-138884718D01*
X70552844Y-138884718D01*
X70552991Y-138949740D01*
X70553213Y-139025107D01*
X70553505Y-139109467D01*
X70553862Y-139201740D01*
X70553861Y-139201740D01*
X70554278Y-139300656D01*
X70554277Y-139300663D01*
X70554749Y-139405057D01*
X70555270Y-139514007D01*
X70555269Y-139514007D01*
X70555836Y-139626141D01*
X70556442Y-139740480D01*
X70557082Y-139855828D01*
X70557752Y-139971109D01*
X70557751Y-139971109D01*
X70558445Y-140085062D01*
X70558768Y-140137186D01*
X70558768Y-140137229D01*
X70559507Y-140259887D01*
X70559507Y-140259969D01*
X70559508Y-140259969D01*
X70560139Y-140370739D01*
X70560139Y-140370853D01*
X70560660Y-140470317D01*
X70560660Y-140470475D01*
X70560661Y-140470475D01*
X70561070Y-140559214D01*
X70561069Y-140559214D01*
X70561072Y-140559427D01*
X70561367Y-140638023D01*
X70561368Y-140638774D01*
X70561368Y-140638833D01*
X70561545Y-140707350D01*
X70561546Y-140707866D01*
X70561546Y-140707944D01*
X70561607Y-140767793D01*
X70561607Y-140768332D01*
X70561548Y-140819984D01*
X70561546Y-140820737D01*
X70561364Y-140864572D01*
X70561357Y-140865647D01*
X70561355Y-140865857D01*
X70561051Y-140902221D01*
X70561048Y-140902536D01*
X70561045Y-140902838D01*
X70561034Y-140903730D01*
X70560603Y-140933671D01*
X70560585Y-140934765D01*
X70560576Y-140935218D01*
X70560560Y-140935936D01*
X70560000Y-140959803D01*
X70559967Y-140961058D01*
X70559946Y-140961764D01*
X70559893Y-140963334D01*
X70559202Y-140981708D01*
X70559097Y-140984103D01*
X70559039Y-140985272D01*
X70558913Y-140987551D01*
X70558091Y-141001012D01*
X70557782Y-141005317D01*
X70557603Y-141007480D01*
X70557195Y-141011830D01*
X70556238Y-141020962D01*
X70555009Y-141030478D01*
X70554281Y-141035218D01*
X70552598Y-141044661D01*
X70551505Y-141050043D01*
X70546659Y-141069066D01*
X70543776Y-141078434D01*
X70532523Y-141106991D01*
X70530105Y-141111969D01*
X70525003Y-141121774D01*
X70523772Y-141123988D01*
X70513415Y-141140637D01*
X70507836Y-141148696D01*
X70482450Y-141178606D01*
X70475405Y-141185421D01*
X70448428Y-141207319D01*
X70442160Y-141211560D01*
X70429310Y-141219563D01*
X70429303Y-141219567D01*
X70411814Y-141228452D01*
X70402868Y-141232458D01*
X70364834Y-141245090D01*
X70354849Y-141247326D01*
X70334648Y-141250774D01*
X70326933Y-141251687D01*
X70319608Y-141252417D01*
X70315961Y-141252713D01*
X70308697Y-141253170D01*
X70289265Y-141254037D01*
X70287577Y-141254105D01*
X70286692Y-141254137D01*
X70284840Y-141254196D01*
X70254672Y-141255007D01*
X70253623Y-141255032D01*
X70253207Y-141255041D01*
X70252592Y-141255054D01*
X70212667Y-141255795D01*
X70212168Y-141255803D01*
X70211421Y-141255815D01*
X70162719Y-141256476D01*
X70162291Y-141256481D01*
X70162116Y-141256483D01*
X70161848Y-141256486D01*
X70105347Y-141257056D01*
X70105347Y-141257055D01*
X70104669Y-141257063D01*
X70041349Y-141257530D01*
X70040777Y-141257532D01*
X69971619Y-141257884D01*
X69971113Y-141257887D01*
X69897094Y-141258114D01*
X69896610Y-141258115D01*
X69818712Y-141258203D01*
X69818481Y-141258203D01*
X69340486Y-141258300D01*
X69320878Y-141257340D01*
X69311123Y-141256381D01*
X69272678Y-141248743D01*
X69263298Y-141245900D01*
X69227060Y-141230898D01*
X69218415Y-141226279D01*
X69185824Y-141204512D01*
X69178246Y-141198296D01*
X69150510Y-141170573D01*
X69144290Y-141162997D01*
X69121124Y-141127779D01*
X69115956Y-141117761D01*
X69106755Y-141097146D01*
X69100744Y-141081336D01*
X69094914Y-141063533D01*
X69092421Y-141054512D01*
X69088280Y-141036232D01*
X69087588Y-141032338D01*
X69086013Y-141021876D01*
X69085366Y-141016641D01*
X69084350Y-141006162D01*
X69083203Y-140989878D01*
X69083008Y-140986761D01*
X69082920Y-140985154D01*
X69082766Y-140981842D01*
X69081715Y-140954292D01*
X69081669Y-140952971D01*
X69081648Y-140952305D01*
X69081610Y-140950961D01*
X69080670Y-140913059D01*
X69080654Y-140912321D01*
X69080646Y-140911942D01*
X69080631Y-140911164D01*
X69079816Y-140863824D01*
X69079800Y-140862715D01*
X69079797Y-140862458D01*
X69079123Y-140806673D01*
X69079119Y-140806319D01*
X69079117Y-140806125D01*
X69079113Y-140805704D01*
X69078592Y-140742224D01*
X69078589Y-140741833D01*
X69078588Y-140741673D01*
X69078587Y-140741423D01*
X69078238Y-140671682D01*
X69078237Y-140671543D01*
X69078232Y-140670549D01*
X69078063Y-140594583D01*
X69078063Y-140594100D01*
X69077974Y-140533559D01*
X69077795Y-140465036D01*
X69077542Y-140399878D01*
X69077543Y-140399872D01*
X69077225Y-140339502D01*
X69076855Y-140285439D01*
X69076439Y-140238552D01*
X69075990Y-140200519D01*
X69075545Y-140174163D01*
X69075095Y-140158641D01*
X69075000Y-140155744D01*
X69074956Y-140154224D01*
X69074937Y-140153471D01*
X69074904Y-140151965D01*
X69074598Y-140134673D01*
X69074594Y-140134402D01*
X69074589Y-140134096D01*
X69074575Y-140133144D01*
X69074238Y-140104048D01*
X69074233Y-140103426D01*
X69074232Y-140103426D01*
X69073866Y-140063164D01*
X69073867Y-140063164D01*
X69073863Y-140062811D01*
X69073473Y-140012019D01*
X69073472Y-140011796D01*
X69073060Y-139951111D01*
X69073059Y-139950951D01*
X69072629Y-139881011D01*
X69072629Y-139880890D01*
X69072628Y-139880890D01*
X69072183Y-139802332D01*
X69072183Y-139802233D01*
X69071727Y-139715694D01*
X69071727Y-139715612D01*
X69071726Y-139715612D01*
X69071262Y-139621729D01*
X69071262Y-139621662D01*
X69070792Y-139521072D01*
X69070794Y-139521072D01*
X69070791Y-139521008D01*
X69070320Y-139414349D01*
X69070320Y-139414294D01*
X69069850Y-139302202D01*
X69069850Y-139302148D01*
X69069385Y-139185260D01*
X69069385Y-139185209D01*
X69069384Y-139185209D01*
X69068927Y-139064163D01*
X69068927Y-139064112D01*
X69068482Y-138939545D01*
X69068482Y-138939496D01*
X69068052Y-138812044D01*
X69068052Y-138812024D01*
X69067945Y-138779529D01*
X69067516Y-138650740D01*
X69067085Y-138524031D01*
X69066655Y-138400104D01*
X69066280Y-138294452D01*
X69042982Y-138292157D01*
X69005463Y-138280776D01*
X68970886Y-138262294D01*
X68940579Y-138237421D01*
X68915706Y-138207114D01*
X68897224Y-138172537D01*
X68885843Y-138135018D01*
X68882000Y-138096000D01*
X68882000Y-137596000D01*
X68885843Y-137556982D01*
X68897224Y-137519463D01*
X68915706Y-137484886D01*
X68940579Y-137454579D01*
X68970886Y-137429706D01*
X69005463Y-137411224D01*
X69042982Y-137399843D01*
X69062617Y-137397909D01*
X69062561Y-137388243D01*
X69062395Y-137365201D01*
X69062394Y-137365035D01*
X69062310Y-137352188D01*
X69062311Y-137352188D01*
X69062307Y-137351632D01*
X69062192Y-137324967D01*
X69062191Y-137324713D01*
X69062067Y-137287150D01*
X69062066Y-137286490D01*
X69061934Y-137239274D01*
X69061933Y-137238717D01*
X69061933Y-137238701D01*
X69061793Y-137181979D01*
X69061793Y-137181920D01*
X69061792Y-137181920D01*
X69061645Y-137115951D01*
X69061645Y-137115910D01*
X69061492Y-137041904D01*
X69061492Y-137041874D01*
X69061334Y-136960545D01*
X69061334Y-136960517D01*
X69061173Y-136872580D01*
X69061173Y-136872562D01*
X69061008Y-136778732D01*
X69061008Y-136778711D01*
X69060842Y-136679703D01*
X69060842Y-136679688D01*
X69060675Y-136576218D01*
X69060675Y-136575892D01*
X69060507Y-136468988D01*
X69060507Y-136468672D01*
X69060341Y-136358723D01*
X69060341Y-136358420D01*
X69060176Y-136246146D01*
X69060176Y-136245851D01*
X69060015Y-136131964D01*
X69060015Y-136131680D01*
X69059857Y-136016899D01*
X69059857Y-136016622D01*
X69059703Y-135901661D01*
X69059703Y-135901391D01*
X69059556Y-135786962D01*
X69059556Y-135786704D01*
X69059415Y-135673527D01*
X69059415Y-135673276D01*
X69059281Y-135562063D01*
X69059281Y-135561820D01*
X69059156Y-135453286D01*
X69059156Y-135453054D01*
X69059041Y-135347911D01*
X69059041Y-135347690D01*
X69058936Y-135246655D01*
X69058936Y-135246445D01*
X69058842Y-135150231D01*
X69058842Y-135150032D01*
X69058761Y-135059351D01*
X69058761Y-135059168D01*
X69058693Y-134974734D01*
X69058693Y-134974568D01*
X69058639Y-134897090D01*
X69058639Y-134896944D01*
X69058600Y-134827134D01*
X69058600Y-134827013D01*
X69058577Y-134765576D01*
X69058577Y-134765488D01*
X69058571Y-134713123D01*
X69058571Y-134713018D01*
X69058584Y-134670469D01*
X69058584Y-134670303D01*
X69058615Y-134638309D01*
X69058616Y-134637936D01*
X69058667Y-134617212D01*
X69058671Y-134616320D01*
X69058673Y-134616031D01*
X69058675Y-134615767D01*
X69058747Y-134607028D01*
X69059871Y-134587434D01*
X69060912Y-134577688D01*
X69068875Y-134539308D01*
X69071797Y-134529952D01*
X69087105Y-134493838D01*
X69091797Y-134485232D01*
X69108403Y-134459636D01*
X69111715Y-134455296D01*
X69118584Y-134446788D01*
X69119324Y-134445921D01*
X69132786Y-134431632D01*
X69139850Y-134424836D01*
X69170627Y-134400558D01*
X69178880Y-134395271D01*
X69214906Y-134377033D01*
X69224597Y-134373302D01*
X69244363Y-134366850D01*
X69249623Y-134365431D01*
X69264352Y-134362049D01*
X69271772Y-134360638D01*
X69286725Y-134358377D01*
X69297633Y-134357147D01*
X69302714Y-134356639D01*
X69305278Y-134356416D01*
X69310452Y-134356034D01*
X69327713Y-134354983D01*
X69330231Y-134354845D01*
X69331454Y-134354786D01*
X69333826Y-134354686D01*
X69358146Y-134353802D01*
X69359531Y-134353756D01*
X69360211Y-134353736D01*
X69361548Y-134353702D01*
X69393633Y-134352973D01*
X69394321Y-134352958D01*
X69394736Y-134352950D01*
X69395706Y-134352934D01*
X69436259Y-134352349D01*
X69436889Y-134352341D01*
X69437155Y-134352338D01*
X69437588Y-134352333D01*
X69487316Y-134351880D01*
X69488008Y-134351875D01*
X69488185Y-134351874D01*
X69488201Y-134351874D01*
X69547807Y-134351542D01*
X69548405Y-134351539D01*
X69618596Y-134351316D01*
X69619006Y-134351315D01*
X69700487Y-134351190D01*
X69700764Y-134351190D01*
X69794240Y-134351150D01*
X69794359Y-134351150D01*
X69815336Y-134351151D01*
G37*
G36*
X71619725Y-134030922D02*
G01*
X71620519Y-134030927D01*
X71622202Y-134030945D01*
X71656530Y-134031450D01*
X71657611Y-134031468D01*
X71658108Y-134031478D01*
X71659012Y-134031499D01*
X71699348Y-134032493D01*
X71700270Y-134032518D01*
X71700646Y-134032529D01*
X71701231Y-134032547D01*
X71745722Y-134033979D01*
X71746405Y-134034002D01*
X71746742Y-134034014D01*
X71747406Y-134034038D01*
X71794202Y-134035860D01*
X71794554Y-134035874D01*
X71794898Y-134035888D01*
X71795920Y-134035933D01*
X71843168Y-134038098D01*
X71844362Y-134038156D01*
X71844748Y-134038176D01*
X71845101Y-134038195D01*
X71890952Y-134040652D01*
X71893015Y-134040773D01*
X71894047Y-134040839D01*
X71896111Y-134040982D01*
X71996621Y-134048455D01*
X72000236Y-134048756D01*
X72002050Y-134048924D01*
X72005690Y-134049295D01*
X72132126Y-134063342D01*
X72136023Y-134063814D01*
X72137977Y-134064070D01*
X72141894Y-134064622D01*
X72271638Y-134084238D01*
X72275219Y-134084813D01*
X72277033Y-134085121D01*
X72280711Y-134085781D01*
X72415608Y-134111287D01*
X72418884Y-134111935D01*
X72420502Y-134112269D01*
X72423698Y-134112956D01*
X72565594Y-134144674D01*
X72568396Y-134145321D01*
X72569787Y-134145653D01*
X72572547Y-134146333D01*
X72723289Y-134184584D01*
X72724548Y-134184907D01*
X72725227Y-134185084D01*
X72726684Y-134185470D01*
X72730379Y-134186463D01*
X72731325Y-134186720D01*
X72731752Y-134186837D01*
X72732515Y-134187048D01*
X72765196Y-134196142D01*
X72766377Y-134196474D01*
X72766893Y-134196621D01*
X72767775Y-134196875D01*
X72805532Y-134207819D01*
X72806173Y-134208006D01*
X72806541Y-134208114D01*
X72807375Y-134208360D01*
X72847324Y-134220273D01*
X72848171Y-134220528D01*
X72848501Y-134220628D01*
X72848973Y-134220772D01*
X72888231Y-134232774D01*
X72888793Y-134232947D01*
X72889162Y-134233061D01*
X72890076Y-134233345D01*
X72925758Y-134244556D01*
X72926777Y-134244879D01*
X72927305Y-134245048D01*
X72928399Y-134245402D01*
X72957622Y-134254941D01*
X72959819Y-134255672D01*
X72960883Y-134256033D01*
X72962939Y-134256743D01*
X72982819Y-134263730D01*
X72985556Y-134264715D01*
X72986926Y-134265219D01*
X72989671Y-134266251D01*
X73044665Y-134287403D01*
X73045886Y-134287877D01*
X73046498Y-134288117D01*
X73047724Y-134288603D01*
X73148422Y-134328861D01*
X73150456Y-134329687D01*
X73151474Y-134330107D01*
X73153511Y-134330961D01*
X73245941Y-134370295D01*
X73248335Y-134371332D01*
X73249548Y-134371867D01*
X73252006Y-134372971D01*
X73338888Y-134412697D01*
X73341574Y-134413949D01*
X73342889Y-134414574D01*
X73345463Y-134415820D01*
X73429517Y-134457253D01*
X73432127Y-134458564D01*
X73433420Y-134459225D01*
X73435984Y-134460559D01*
X73519928Y-134505014D01*
X73522225Y-134506250D01*
X73523378Y-134506880D01*
X73525693Y-134508165D01*
X73612247Y-134556957D01*
X73614117Y-134558024D01*
X73615053Y-134558565D01*
X73616925Y-134559660D01*
X73708808Y-134614105D01*
X73709706Y-134614640D01*
X73710248Y-134614965D01*
X73711517Y-134615733D01*
X73760764Y-134645762D01*
X73761946Y-134646489D01*
X73762474Y-134646816D01*
X73763408Y-134647397D01*
X73823277Y-134684932D01*
X73825076Y-134686073D01*
X73825964Y-134686643D01*
X73827713Y-134687780D01*
X73880565Y-134722489D01*
X73882847Y-134724009D01*
X73883997Y-134724787D01*
X73886317Y-134726381D01*
X73934605Y-134760049D01*
X73937171Y-134761869D01*
X73938450Y-134762791D01*
X73940999Y-134764659D01*
X73987174Y-134799067D01*
X73989645Y-134800937D01*
X73990860Y-134801872D01*
X73993250Y-134803741D01*
X74039763Y-134840672D01*
X74041748Y-134842268D01*
X74042737Y-134843074D01*
X74044707Y-134844701D01*
X74094008Y-134885939D01*
X74095392Y-134887107D01*
X74096081Y-134887694D01*
X74097453Y-134888874D01*
X74151994Y-134936199D01*
X74152321Y-134936484D01*
X74152500Y-134936640D01*
X74152885Y-134936976D01*
X74161909Y-134944882D01*
X74188229Y-134967664D01*
X74211936Y-134987823D01*
X74229984Y-135002827D01*
X74240404Y-135011103D01*
X74240642Y-135011285D01*
X74244885Y-135014630D01*
X74246984Y-135016331D01*
X74251149Y-135019801D01*
X74269802Y-135035774D01*
X74273176Y-135038729D01*
X74274858Y-135040236D01*
X74278213Y-135043311D01*
X74303390Y-135066923D01*
X74305152Y-135068597D01*
X74305997Y-135069409D01*
X74307615Y-135070981D01*
X74337695Y-135100546D01*
X74338794Y-135101634D01*
X74339349Y-135102188D01*
X74340472Y-135103319D01*
X74373833Y-135137155D01*
X74374735Y-135138075D01*
X74375173Y-135138525D01*
X74376023Y-135139404D01*
X74411043Y-135175826D01*
X74411840Y-135176659D01*
X74412243Y-135177083D01*
X74413056Y-135177944D01*
X74448114Y-135215269D01*
X74448939Y-135216153D01*
X74449364Y-135216611D01*
X74450241Y-135217561D01*
X74483714Y-135254104D01*
X74484775Y-135255272D01*
X74485288Y-135255841D01*
X74486279Y-135256949D01*
X74516547Y-135291027D01*
X74518018Y-135292702D01*
X74518731Y-135293523D01*
X74520111Y-135295129D01*
X74545552Y-135325058D01*
X74546585Y-135326283D01*
X74547142Y-135326949D01*
X74548337Y-135328392D01*
X74585172Y-135373283D01*
X74585679Y-135373903D01*
X74585902Y-135374177D01*
X74586285Y-135374649D01*
X74618908Y-135414983D01*
X74619704Y-135415973D01*
X74620096Y-135416464D01*
X74620871Y-135417442D01*
X74648757Y-135452821D01*
X74649877Y-135454255D01*
X74650427Y-135454966D01*
X74651505Y-135456372D01*
X74676453Y-135489220D01*
X74677712Y-135490896D01*
X74678331Y-135491729D01*
X74679551Y-135493388D01*
X74703360Y-135526127D01*
X74704440Y-135527628D01*
X74705002Y-135528416D01*
X74706166Y-135530065D01*
X74730635Y-135565117D01*
X74731546Y-135566433D01*
X74731955Y-135567029D01*
X74732683Y-135568097D01*
X74759610Y-135607884D01*
X74760030Y-135608508D01*
X74760271Y-135608867D01*
X74760814Y-135609679D01*
X74791997Y-135656624D01*
X74792072Y-135656738D01*
X74792137Y-135656836D01*
X74792323Y-135657116D01*
X74796072Y-135662789D01*
X74796071Y-135662789D01*
X74814287Y-135690291D01*
X74830749Y-135715052D01*
X74843431Y-135734029D01*
X74850443Y-135744400D01*
X74850775Y-135744885D01*
X74852857Y-135747985D01*
X74853867Y-135749519D01*
X74855825Y-135752551D01*
X74863707Y-135765006D01*
X74870132Y-135775907D01*
X74873168Y-135781452D01*
X74878887Y-135792730D01*
X74882131Y-135799662D01*
X74882964Y-135801699D01*
X74883329Y-135802333D01*
X74884003Y-135803818D01*
X74888497Y-135812544D01*
X74898984Y-135832213D01*
X74912824Y-135857620D01*
X74914549Y-135860782D01*
X74915510Y-135862565D01*
X74916002Y-135863489D01*
X74916996Y-135865380D01*
X74933565Y-135897315D01*
X74934601Y-135899340D01*
X74935107Y-135900343D01*
X74936095Y-135902328D01*
X74955863Y-135942617D01*
X74956425Y-135943773D01*
X74956732Y-135944409D01*
X74957397Y-135945799D01*
X74979087Y-135991632D01*
X74979600Y-135992727D01*
X74979832Y-135993225D01*
X74980247Y-135994121D01*
X75002580Y-136042685D01*
X75003000Y-136043603D01*
X75003211Y-136044068D01*
X75003635Y-136045010D01*
X75025334Y-136093494D01*
X75025763Y-136094458D01*
X75025992Y-136094977D01*
X75026478Y-136096089D01*
X75046265Y-136141681D01*
X75046927Y-136143223D01*
X75047223Y-136143921D01*
X75047749Y-136145173D01*
X75064346Y-136185062D01*
X75065300Y-136187397D01*
X75065772Y-136188573D01*
X75066705Y-136190941D01*
X75078836Y-136222315D01*
X75080257Y-136226102D01*
X75080954Y-136228019D01*
X75082320Y-136231902D01*
X75110547Y-136314811D01*
X75111986Y-136319203D01*
X75112685Y-136321423D01*
X75114040Y-136325909D01*
X75153614Y-136462704D01*
X75155064Y-136467986D01*
X75155744Y-136470603D01*
X75157018Y-136475790D01*
X75189391Y-136615616D01*
X75190525Y-136620827D01*
X75191058Y-136623445D01*
X75192055Y-136628705D01*
X75216670Y-136768678D01*
X75217558Y-136774172D01*
X75217965Y-136776935D01*
X75218704Y-136782495D01*
X75231417Y-136889538D01*
X75247009Y-136889642D01*
X75496932Y-136891304D01*
X75516537Y-136892399D01*
X75526285Y-136893425D01*
X75564664Y-136901324D01*
X75574025Y-136904231D01*
X75610167Y-136919483D01*
X75618780Y-136924161D01*
X75651228Y-136946156D01*
X75658764Y-136952425D01*
X75686308Y-136980340D01*
X75692475Y-136987958D01*
X75714030Y-137020685D01*
X75718593Y-137029359D01*
X75733360Y-137065690D01*
X75736143Y-137075089D01*
X75743506Y-137113268D01*
X75744403Y-137122870D01*
X75745269Y-137142170D01*
X75744380Y-137397219D01*
X75771018Y-137399843D01*
X75808537Y-137411224D01*
X75843114Y-137429706D01*
X75873421Y-137454579D01*
X75898294Y-137484886D01*
X75916776Y-137519463D01*
X75928157Y-137556982D01*
X75932000Y-137596000D01*
X75932000Y-138096000D01*
X75928157Y-138135018D01*
X75916776Y-138172537D01*
X75898294Y-138207114D01*
X75873421Y-138237421D01*
X75843114Y-138262294D01*
X75808537Y-138280776D01*
X75771018Y-138292157D01*
X75741253Y-138295089D01*
X75740724Y-138446946D01*
X75739692Y-138466552D01*
X75738697Y-138476303D01*
X75730915Y-138514723D01*
X75728037Y-138524093D01*
X75712902Y-138560271D01*
X75708251Y-138568899D01*
X75686364Y-138601410D01*
X75680120Y-138608965D01*
X75652294Y-138636598D01*
X75644695Y-138642790D01*
X75612020Y-138664458D01*
X75603360Y-138669048D01*
X75567098Y-138683921D01*
X75557709Y-138686734D01*
X75518877Y-138694284D01*
X75508946Y-138695210D01*
X75488991Y-138696069D01*
X75250912Y-138694417D01*
X75250912Y-138694418D01*
X75246138Y-138694386D01*
X75223576Y-138694296D01*
X75223388Y-138695574D01*
X75222573Y-138700649D01*
X75200517Y-138827584D01*
X75199598Y-138832507D01*
X75199109Y-138834956D01*
X75198073Y-138839830D01*
X75169914Y-138964582D01*
X75168730Y-138969532D01*
X75168104Y-138972010D01*
X75166782Y-138976973D01*
X75133147Y-139097042D01*
X75131563Y-139102407D01*
X75130741Y-139105054D01*
X75129041Y-139110275D01*
X75090556Y-139223163D01*
X75088404Y-139229162D01*
X75087279Y-139232147D01*
X75084930Y-139238089D01*
X75042220Y-139341296D01*
X75041179Y-139343765D01*
X75040648Y-139345001D01*
X75039565Y-139347475D01*
X75033831Y-139360341D01*
X75031338Y-139366336D01*
X75028647Y-139374611D01*
X75024737Y-139384793D01*
X75022558Y-139390228D01*
X75021434Y-139392917D01*
X75019118Y-139398238D01*
X75010608Y-139417044D01*
X75009837Y-139418728D01*
X75009428Y-139419610D01*
X75008562Y-139421452D01*
X74996527Y-139446728D01*
X74995993Y-139447841D01*
X74995755Y-139448333D01*
X74995340Y-139449186D01*
X74980852Y-139478777D01*
X74980606Y-139479279D01*
X74980428Y-139479640D01*
X74979959Y-139480583D01*
X74964094Y-139512336D01*
X74963639Y-139513242D01*
X74963470Y-139513576D01*
X74963251Y-139514008D01*
X74947083Y-139545770D01*
X74946795Y-139546333D01*
X74946598Y-139546717D01*
X74946096Y-139547689D01*
X74930697Y-139577305D01*
X74930040Y-139578558D01*
X74929757Y-139579093D01*
X74929284Y-139579982D01*
X74915729Y-139605298D01*
X74914767Y-139607072D01*
X74914241Y-139608031D01*
X74913096Y-139610090D01*
X74902459Y-139628953D01*
X74901471Y-139630684D01*
X74901022Y-139631462D01*
X74900214Y-139632851D01*
X74894430Y-139642689D01*
X74884378Y-139660113D01*
X74881585Y-139665140D01*
X74880958Y-139666565D01*
X74878247Y-139672233D01*
X74872466Y-139683403D01*
X74864857Y-139697037D01*
X74863207Y-139699937D01*
X74862364Y-139701390D01*
X74860641Y-139704302D01*
X74847418Y-139726230D01*
X74846618Y-139727545D01*
X74846229Y-139728179D01*
X74845474Y-139729400D01*
X74827484Y-139758254D01*
X74826897Y-139759190D01*
X74826642Y-139759594D01*
X74826211Y-139760274D01*
X74804297Y-139794685D01*
X74803957Y-139795216D01*
X74803755Y-139795531D01*
X74803285Y-139796261D01*
X74778295Y-139834861D01*
X74777630Y-139835881D01*
X74777382Y-139836259D01*
X74777058Y-139836752D01*
X74770165Y-139847191D01*
X74769306Y-139848480D01*
X74768842Y-139849171D01*
X74767843Y-139850645D01*
X74743170Y-139886691D01*
X74742199Y-139888097D01*
X74741741Y-139888754D01*
X74740881Y-139889977D01*
X74711292Y-139931753D01*
X74710641Y-139932667D01*
X74710307Y-139933133D01*
X74709622Y-139934083D01*
X74677118Y-139978877D01*
X74676539Y-139979671D01*
X74676245Y-139980072D01*
X74675647Y-139980883D01*
X74642230Y-140025984D01*
X74641719Y-140026671D01*
X74641408Y-140027087D01*
X74640673Y-140028063D01*
X74608343Y-140070762D01*
X74607565Y-140071783D01*
X74607166Y-140072303D01*
X74606350Y-140073360D01*
X74577110Y-140110945D01*
X74575750Y-140112673D01*
X74575111Y-140113476D01*
X74573917Y-140114962D01*
X74549768Y-140144722D01*
X74548418Y-140146368D01*
X74547704Y-140147229D01*
X74546194Y-140149028D01*
X74494924Y-140209397D01*
X74493830Y-140210674D01*
X74493297Y-140211291D01*
X74492260Y-140212482D01*
X74445122Y-140266186D01*
X74443583Y-140267919D01*
X74442822Y-140268766D01*
X74441319Y-140270420D01*
X74396764Y-140318909D01*
X74395004Y-140320800D01*
X74394078Y-140321782D01*
X74392131Y-140323818D01*
X74347691Y-140369635D01*
X74345771Y-140371588D01*
X74344810Y-140372552D01*
X74342887Y-140374455D01*
X74296091Y-140420144D01*
X74294312Y-140421859D01*
X74293470Y-140422661D01*
X74291884Y-140424156D01*
X74240263Y-140472263D01*
X74239054Y-140473380D01*
X74238430Y-140473952D01*
X74237142Y-140475122D01*
X74178229Y-140528190D01*
X74178200Y-140528216D01*
X74177969Y-140528424D01*
X74177072Y-140529227D01*
X74160969Y-140543552D01*
X74160844Y-140543662D01*
X74160845Y-140543663D01*
X74117415Y-140582246D01*
X74117057Y-140582562D01*
X74081522Y-140614010D01*
X74081521Y-140614009D01*
X74080849Y-140614604D01*
X74052028Y-140639926D01*
X74051319Y-140640546D01*
X74051080Y-140640754D01*
X74050836Y-140640966D01*
X74027547Y-140661168D01*
X74026748Y-140661857D01*
X74026360Y-140662190D01*
X74025606Y-140662834D01*
X74006667Y-140678926D01*
X74005460Y-140679943D01*
X74004874Y-140680433D01*
X74003737Y-140681378D01*
X73987969Y-140694366D01*
X73986452Y-140695603D01*
X73985668Y-140696236D01*
X73984048Y-140697529D01*
X73970268Y-140708421D01*
X73968538Y-140709774D01*
X73967680Y-140710437D01*
X73965980Y-140711736D01*
X73953008Y-140721540D01*
X73951725Y-140722502D01*
X73951020Y-140723026D01*
X73949481Y-140724158D01*
X73936135Y-140733881D01*
X73935465Y-140734367D01*
X73935141Y-140734601D01*
X73934514Y-140735052D01*
X73929899Y-140738358D01*
X73928962Y-140739025D01*
X73928572Y-140739301D01*
X73927950Y-140739740D01*
X73898447Y-140760451D01*
X73897562Y-140761068D01*
X73897147Y-140761356D01*
X73896372Y-140761892D01*
X73860057Y-140786841D01*
X73859720Y-140787072D01*
X73859451Y-140787256D01*
X73858712Y-140787759D01*
X73817506Y-140815675D01*
X73816833Y-140816128D01*
X73816629Y-140816265D01*
X73816487Y-140816361D01*
X73772310Y-140845974D01*
X73771889Y-140846255D01*
X73771712Y-140846373D01*
X73771425Y-140846564D01*
X73726196Y-140876604D01*
X73726043Y-140876706D01*
X73725868Y-140876822D01*
X73725321Y-140877183D01*
X73680959Y-140906380D01*
X73680570Y-140906635D01*
X73680373Y-140906764D01*
X73679975Y-140907025D01*
X73638400Y-140934108D01*
X73637884Y-140934442D01*
X73637629Y-140934607D01*
X73637125Y-140934933D01*
X73600257Y-140958632D01*
X73599347Y-140959213D01*
X73598955Y-140959462D01*
X73598297Y-140959878D01*
X73568055Y-140978923D01*
X73566543Y-140979866D01*
X73565772Y-140980342D01*
X73564198Y-140981303D01*
X73542502Y-140994423D01*
X73540802Y-140995440D01*
X73539931Y-140995955D01*
X73538147Y-140996997D01*
X73520385Y-141007253D01*
X73519904Y-141007530D01*
X73519592Y-141007709D01*
X73518827Y-141008146D01*
X73465597Y-141038374D01*
X73464774Y-141038839D01*
X73464336Y-141039085D01*
X73463404Y-141039605D01*
X73410662Y-141068858D01*
X73409754Y-141069359D01*
X73409305Y-141069605D01*
X73408418Y-141070088D01*
X73358244Y-141097249D01*
X73357185Y-141097818D01*
X73356664Y-141098096D01*
X73355640Y-141098638D01*
X73310111Y-141122594D01*
X73308621Y-141123370D01*
X73307911Y-141123736D01*
X73306560Y-141124426D01*
X73267754Y-141144059D01*
X73265452Y-141145205D01*
X73264266Y-141145786D01*
X73261824Y-141146962D01*
X73231819Y-141161160D01*
X73229738Y-141162130D01*
X73228745Y-141162586D01*
X73226865Y-141163438D01*
X73222525Y-141165377D01*
X73190746Y-141179708D01*
X73158613Y-141194376D01*
X73130516Y-141207379D01*
X73125087Y-141209904D01*
X73124297Y-141210270D01*
X73123836Y-141210482D01*
X73122781Y-141210963D01*
X73101735Y-141220494D01*
X73099727Y-141221391D01*
X73098724Y-141221832D01*
X73096721Y-141222699D01*
X73081076Y-141229375D01*
X73074807Y-141231926D01*
X73071649Y-141233149D01*
X73065286Y-141235490D01*
X73058210Y-141237958D01*
X73051735Y-141240738D01*
X73033609Y-141248999D01*
X73028514Y-141251332D01*
X73025898Y-141252507D01*
X73024575Y-141253090D01*
X73021897Y-141254247D01*
X72991809Y-141266985D01*
X72989301Y-141268026D01*
X72988091Y-141268519D01*
X72985759Y-141269453D01*
X72946471Y-141284888D01*
X72945083Y-141285427D01*
X72944357Y-141285706D01*
X72942841Y-141286281D01*
X72896769Y-141303559D01*
X72895830Y-141303909D01*
X72895302Y-141304104D01*
X72894128Y-141304533D01*
X72843685Y-141322805D01*
X72842679Y-141323167D01*
X72842227Y-141323328D01*
X72841427Y-141323611D01*
X72789028Y-141342025D01*
X72787996Y-141342385D01*
X72787550Y-141342539D01*
X72786799Y-141342796D01*
X72734859Y-141360500D01*
X72733917Y-141360818D01*
X72733413Y-141360987D01*
X72732335Y-141361345D01*
X72683267Y-141377489D01*
X72682019Y-141377896D01*
X72681357Y-141378109D01*
X72679959Y-141378553D01*
X72636179Y-141392286D01*
X72634130Y-141392917D01*
X72633100Y-141393228D01*
X72631029Y-141393841D01*
X72594950Y-141404311D01*
X72593104Y-141404837D01*
X72592207Y-141405088D01*
X72590466Y-141405566D01*
X72515108Y-141425921D01*
X72514448Y-141426099D01*
X72514144Y-141426180D01*
X72513587Y-141426327D01*
X72436789Y-141446553D01*
X72436059Y-141446744D01*
X72435550Y-141446876D01*
X72434243Y-141447210D01*
X72365386Y-141464572D01*
X72363792Y-141464967D01*
X72363069Y-141465143D01*
X72361772Y-141465454D01*
X72298607Y-141480385D01*
X72296795Y-141480805D01*
X72295877Y-141481013D01*
X72294017Y-141481425D01*
X72234295Y-141494360D01*
X72232189Y-141494804D01*
X72231142Y-141495019D01*
X72229058Y-141495436D01*
X72170529Y-141506808D01*
X72168371Y-141507214D01*
X72167305Y-141507409D01*
X72165201Y-141507783D01*
X72105616Y-141518026D01*
X72103816Y-141518327D01*
X72102850Y-141518484D01*
X72100786Y-141518808D01*
X72037895Y-141528356D01*
X72036195Y-141528607D01*
X72035412Y-141528719D01*
X72033979Y-141528918D01*
X71965533Y-141538204D01*
X71964529Y-141538338D01*
X71963962Y-141538412D01*
X71962698Y-141538573D01*
X71886447Y-141548031D01*
X71885355Y-141548163D01*
X71884992Y-141548206D01*
X71884632Y-141548249D01*
X71798327Y-141558314D01*
X71796974Y-141558467D01*
X71796254Y-141558546D01*
X71794729Y-141558707D01*
X71763985Y-141561842D01*
X71762000Y-141562035D01*
X71760999Y-141562127D01*
X71758978Y-141562302D01*
X71725166Y-141565064D01*
X71723456Y-141565196D01*
X71722580Y-141565260D01*
X71720788Y-141565383D01*
X71687744Y-141567499D01*
X71685805Y-141567614D01*
X71684884Y-141567664D01*
X71683136Y-141567751D01*
X71653236Y-141569112D01*
X71650714Y-141569211D01*
X71649467Y-141569252D01*
X71647004Y-141569318D01*
X71622622Y-141569819D01*
X71617776Y-141569860D01*
X71615333Y-141569851D01*
X71610407Y-141569772D01*
X71593920Y-141569305D01*
X71572525Y-141567546D01*
X71561906Y-141566096D01*
X71540824Y-141562055D01*
X71534606Y-141560513D01*
X71515815Y-141554861D01*
X71506579Y-141551581D01*
X71471082Y-141534894D01*
X71462663Y-141529874D01*
X71431141Y-141506611D01*
X71423862Y-141500046D01*
X71397448Y-141471041D01*
X71391591Y-141463182D01*
X71371353Y-141429593D01*
X71367142Y-141420742D01*
X71353853Y-141383872D01*
X71351449Y-141374370D01*
X71346177Y-141343591D01*
X71345646Y-141337804D01*
X71344920Y-141326192D01*
X71344909Y-141325862D01*
X71344853Y-141323896D01*
X71344830Y-141322917D01*
X71344794Y-141320968D01*
X71344671Y-141312016D01*
X71344663Y-141311431D01*
X71344431Y-141291081D01*
X71344430Y-141290929D01*
X71344099Y-141260259D01*
X71344099Y-141260186D01*
X71344098Y-141260186D01*
X71343679Y-141220274D01*
X71343679Y-141220218D01*
X71343185Y-141172142D01*
X71343185Y-141172111D01*
X71343184Y-141172111D01*
X71342624Y-141116949D01*
X71342624Y-141116920D01*
X71342010Y-141055750D01*
X71342011Y-141055750D01*
X71342009Y-141055722D01*
X71341353Y-140989622D01*
X71341353Y-140989603D01*
X71340664Y-140919652D01*
X71340664Y-140919596D01*
X71340663Y-140919596D01*
X71340306Y-140882509D01*
X71340305Y-140882333D01*
X71339615Y-140804965D01*
X71339611Y-140804585D01*
X71339123Y-140738652D01*
X71339121Y-140738043D01*
X71339120Y-140738043D01*
X71338845Y-140682665D01*
X71338846Y-140682665D01*
X71338845Y-140682515D01*
X71338842Y-140681698D01*
X71338792Y-140635991D01*
X71338793Y-140635118D01*
X71338794Y-140634812D01*
X71338796Y-140634464D01*
X71338981Y-140597547D01*
X71338988Y-140596517D01*
X71338993Y-140596025D01*
X71339005Y-140595086D01*
X71339436Y-140566076D01*
X71339462Y-140564663D01*
X71339480Y-140563842D01*
X71339530Y-140561970D01*
X71340218Y-140539986D01*
X71340334Y-140536998D01*
X71340401Y-140535550D01*
X71340550Y-140532747D01*
X71341506Y-140516905D01*
X71341921Y-140511323D01*
X71342167Y-140508543D01*
X71342735Y-140503004D01*
X71343969Y-140492423D01*
X71345797Y-140480099D01*
X71346904Y-140473960D01*
X71349508Y-140461726D01*
X71351032Y-140455524D01*
X71356646Y-140436715D01*
X71359907Y-140427471D01*
X71374472Y-140395472D01*
X71378302Y-140388707D01*
X71386484Y-140375482D01*
X71388308Y-140372775D01*
X71400061Y-140357056D01*
X71406308Y-140349504D01*
X71434135Y-140321891D01*
X71441736Y-140315702D01*
X71468770Y-140297156D01*
X71474491Y-140293886D01*
X71486154Y-140287720D01*
X71486891Y-140287361D01*
X71511998Y-140277173D01*
X71524837Y-140272951D01*
X71551086Y-140266251D01*
X71562319Y-140264182D01*
X71572270Y-140262607D01*
X71577265Y-140261945D01*
X71587293Y-140260872D01*
X71608099Y-140259176D01*
X71612036Y-140258894D01*
X71614014Y-140258772D01*
X71617991Y-140258567D01*
X71645681Y-140257412D01*
X71648523Y-140257313D01*
X71649906Y-140257275D01*
X71652595Y-140257220D01*
X71683734Y-140256783D01*
X71715901Y-140256204D01*
X71773599Y-140253174D01*
X71837424Y-140247723D01*
X71902574Y-140240231D01*
X71966057Y-140230907D01*
X71970915Y-140230103D01*
X71970946Y-140230097D01*
X72003037Y-140224794D01*
X72003107Y-140224783D01*
X72034442Y-140219614D01*
X72034442Y-140219615D01*
X72034527Y-140219600D01*
X72057176Y-140215872D01*
X72066089Y-140214253D01*
X72088027Y-140209523D01*
X72107858Y-140204430D01*
X72119318Y-140201197D01*
X72120710Y-140200810D01*
X72121439Y-140200610D01*
X72122962Y-140200198D01*
X72144370Y-140194506D01*
X72146934Y-140193843D01*
X72148217Y-140193520D01*
X72150783Y-140192892D01*
X72165396Y-140189418D01*
X72183413Y-140185063D01*
X72208951Y-140177882D01*
X72243352Y-140167480D01*
X72281602Y-140155340D01*
X72319750Y-140142722D01*
X72354279Y-140130781D01*
X72380041Y-140121324D01*
X72396030Y-140114805D01*
X72398617Y-140113668D01*
X72399489Y-140113288D01*
X72400033Y-140113052D01*
X72401355Y-140112484D01*
X72419970Y-140104567D01*
X72420739Y-140104242D01*
X72421053Y-140104110D01*
X72421540Y-140103906D01*
X72446310Y-140093570D01*
X72446811Y-140093361D01*
X72447038Y-140093267D01*
X72447446Y-140093099D01*
X72472420Y-140082822D01*
X72491906Y-140074378D01*
X72523855Y-140059488D01*
X72563516Y-140040162D01*
X72607151Y-140018220D01*
X72651388Y-139995364D01*
X72693310Y-139973089D01*
X72728964Y-139953476D01*
X72755552Y-139938073D01*
X72787121Y-139918527D01*
X72875998Y-139858778D01*
X72965046Y-139792616D01*
X73052675Y-139721418D01*
X73135722Y-139647796D01*
X73211008Y-139574578D01*
X73278185Y-139501847D01*
X73282134Y-139497278D01*
X73375655Y-139384297D01*
X73457751Y-139276111D01*
X73529304Y-139172036D01*
X73589738Y-139073318D01*
X73639233Y-138980097D01*
X73710139Y-138824340D01*
X73772691Y-138663341D01*
X73813536Y-138535670D01*
X73813537Y-138535667D01*
X73823923Y-138503205D01*
X73864419Y-138342411D01*
X73895080Y-138177096D01*
X73897517Y-138159932D01*
X73904349Y-138098618D01*
X73910002Y-138028098D01*
X73914329Y-137950758D01*
X73917140Y-137870406D01*
X73918321Y-137790345D01*
X73917803Y-137714268D01*
X73915579Y-137645776D01*
X73911814Y-137589240D01*
X73897904Y-137468552D01*
X73869283Y-137304590D01*
X73830308Y-137142881D01*
X73830307Y-137142881D01*
X73829696Y-137140348D01*
X73779161Y-136975866D01*
X73717920Y-136812242D01*
X73645256Y-136648336D01*
X73628425Y-136614090D01*
X73608244Y-136575732D01*
X73586866Y-136538277D01*
X73561256Y-136496519D01*
X73529364Y-136447138D01*
X73477712Y-136370650D01*
X73392604Y-136253746D01*
X73307882Y-136148738D01*
X73221480Y-136052890D01*
X73131701Y-135964172D01*
X73036717Y-135880627D01*
X72932804Y-135799005D01*
X72888196Y-135766286D01*
X72828812Y-135724603D01*
X72774417Y-135688926D01*
X72720462Y-135656250D01*
X72662400Y-135623793D01*
X72597106Y-135589696D01*
X72515408Y-135550186D01*
X72382068Y-135493762D01*
X72248891Y-135446841D01*
X72116534Y-135409406D01*
X71987076Y-135381913D01*
X71857519Y-135363968D01*
X71849631Y-135363181D01*
X71849482Y-135363166D01*
X71849482Y-135363167D01*
X71810120Y-135359215D01*
X71810120Y-135359214D01*
X71809954Y-135359198D01*
X71769123Y-135355071D01*
X71768920Y-135355048D01*
X71768920Y-135355050D01*
X71734289Y-135351521D01*
X71729738Y-135351083D01*
X71697520Y-135348721D01*
X71662783Y-135347072D01*
X71631391Y-135346443D01*
X71622173Y-135346415D01*
X71620053Y-135346397D01*
X71619025Y-135346383D01*
X71617036Y-135346346D01*
X71590855Y-135345729D01*
X71583279Y-135345407D01*
X71579494Y-135345174D01*
X71571930Y-135344564D01*
X71555409Y-135342916D01*
X71533686Y-135339535D01*
X71522948Y-135337253D01*
X71501721Y-135331506D01*
X71492596Y-135328488D01*
X71474286Y-135321418D01*
X71465327Y-135317443D01*
X71431219Y-135298105D01*
X71423207Y-135292458D01*
X71396268Y-135269662D01*
X71390752Y-135264088D01*
X71380158Y-135252507D01*
X71376163Y-135247780D01*
X71364243Y-135232183D01*
X71358680Y-135224112D01*
X71337327Y-135184056D01*
X71332592Y-135172063D01*
X71324674Y-135147462D01*
X71324572Y-135147057D01*
X71321005Y-135129665D01*
X71319610Y-135120905D01*
X71317598Y-135103257D01*
X71316923Y-135093501D01*
X71316692Y-135089622D01*
X71316595Y-135087670D01*
X71316439Y-135083738D01*
X71315804Y-135062560D01*
X71315766Y-135061126D01*
X71315753Y-135060556D01*
X71315736Y-135059711D01*
X71315151Y-135028225D01*
X71315147Y-135028006D01*
X71315142Y-135027720D01*
X71315128Y-135026795D01*
X71314605Y-134986113D01*
X71314600Y-134985764D01*
X71314598Y-134985584D01*
X71314595Y-134985216D01*
X71314143Y-134936452D01*
X71314140Y-134936125D01*
X71314139Y-134935994D01*
X71314137Y-134935795D01*
X71313767Y-134880064D01*
X71313765Y-134879533D01*
X71313487Y-134817947D01*
X71313488Y-134817947D01*
X71313485Y-134817474D01*
X71313311Y-134751146D01*
X71313310Y-134750621D01*
X71313310Y-134750533D01*
X71313250Y-134680750D01*
X71313250Y-134680431D01*
X71313272Y-134627132D01*
X71313272Y-134626786D01*
X71313414Y-134547929D01*
X71313415Y-134547929D01*
X71313416Y-134547326D01*
X71313699Y-134480123D01*
X71313706Y-134479232D01*
X71313705Y-134479232D01*
X71314099Y-134428568D01*
X71314142Y-134423034D01*
X71314144Y-134422827D01*
X71314155Y-134421693D01*
X71314757Y-134375840D01*
X71314776Y-134374666D01*
X71314784Y-134374245D01*
X71314794Y-134373737D01*
X71315573Y-134337580D01*
X71315606Y-134336264D01*
X71315626Y-134335553D01*
X71315675Y-134334027D01*
X71316645Y-134306913D01*
X71316762Y-134304173D01*
X71316828Y-134302840D01*
X71316973Y-134300246D01*
X71318144Y-134281523D01*
X71318635Y-134275258D01*
X71318930Y-134272125D01*
X71319620Y-134265858D01*
X71321005Y-134254872D01*
X71326085Y-134228739D01*
X71329482Y-134215898D01*
X71337991Y-134190666D01*
X71339603Y-134186765D01*
X71347979Y-134169017D01*
X71352592Y-134160369D01*
X71374342Y-134127756D01*
X71380554Y-134120173D01*
X71408260Y-134092419D01*
X71415831Y-134086195D01*
X71448412Y-134064386D01*
X71457053Y-134059758D01*
X71498307Y-134043261D01*
X71510269Y-134039962D01*
X71534597Y-134034855D01*
X71539242Y-134034178D01*
X71549973Y-134032909D01*
X71555350Y-134032420D01*
X71566129Y-134031733D01*
X71582887Y-134031118D01*
X71586392Y-134031020D01*
X71588167Y-134030986D01*
X71591763Y-134030949D01*
X71618232Y-134030918D01*
X71619725Y-134030922D01*
G37*
D16*
X222240000Y-144450000D03*
X222240000Y-55550000D03*
D17*
X217160000Y-139370000D03*
X219700000Y-139370000D03*
X217160000Y-136830000D03*
X219700000Y-136830000D03*
X217160000Y-134290000D03*
X219700000Y-134290000D03*
X217160000Y-131750000D03*
X219700000Y-131750000D03*
X217160000Y-129210000D03*
X219700000Y-129210000D03*
X217160000Y-126670000D03*
X219700000Y-126670000D03*
X217160000Y-124130000D03*
X219700000Y-124130000D03*
X217160000Y-121590000D03*
X219700000Y-121590000D03*
X217160000Y-119050000D03*
X219700000Y-119050000D03*
X217160000Y-116510000D03*
X219700000Y-116510000D03*
X217160000Y-113970000D03*
X219700000Y-113970000D03*
X217160000Y-111430000D03*
X219700000Y-111430000D03*
X217160000Y-108890000D03*
X219700000Y-108890000D03*
X217160000Y-106350000D03*
X219700000Y-106350000D03*
X217160000Y-103810000D03*
X219700000Y-103810000D03*
X217160000Y-101270000D03*
X219700000Y-101270000D03*
X217160000Y-98730000D03*
X219700000Y-98730000D03*
X217160000Y-96190000D03*
X219700000Y-96190000D03*
X217160000Y-93650000D03*
X219700000Y-93650000D03*
X217160000Y-91110000D03*
X219700000Y-91110000D03*
X217160000Y-88570000D03*
X219700000Y-88570000D03*
X217160000Y-86030000D03*
X219700000Y-86030000D03*
X217160000Y-83490000D03*
X219700000Y-83490000D03*
X217160000Y-80950000D03*
X219700000Y-80950000D03*
X217160000Y-78410000D03*
X219700000Y-78410000D03*
X217160000Y-75870000D03*
X219700000Y-75870000D03*
X217160000Y-73330000D03*
X219700000Y-73330000D03*
X217160000Y-70790000D03*
X219700000Y-70790000D03*
X217160000Y-68250000D03*
X219700000Y-68250000D03*
X217160000Y-65710000D03*
X219700000Y-65710000D03*
X217160000Y-63170000D03*
X219700000Y-63170000D03*
X217160000Y-60630000D03*
D18*
X219700000Y-60630000D03*
D19*
X74920000Y-69774000D03*
D20*
X77460000Y-69774000D03*
D19*
X74920000Y-74854000D03*
D20*
X77460000Y-74854000D03*
X77460000Y-79934000D03*
D19*
X74920000Y-79934000D03*
D13*
G36*
X104878414Y-136403852D02*
G01*
X104956072Y-136415372D01*
X105032228Y-136434448D01*
X105106147Y-136460896D01*
X105177117Y-136494463D01*
X105244456Y-136534824D01*
X105307515Y-136581592D01*
X105365685Y-136634315D01*
X105418408Y-136692485D01*
X105465176Y-136755544D01*
X105505537Y-136822883D01*
X105539104Y-136893853D01*
X105565552Y-136967772D01*
X105584628Y-137043928D01*
X105596148Y-137121586D01*
X105600000Y-137200000D01*
X105600000Y-138800000D01*
X105596148Y-138878414D01*
X105584628Y-138956072D01*
X105565552Y-139032228D01*
X105539104Y-139106147D01*
X105505537Y-139177117D01*
X105465176Y-139244456D01*
X105418408Y-139307515D01*
X105365685Y-139365685D01*
X105307515Y-139418408D01*
X105244456Y-139465176D01*
X105177117Y-139505537D01*
X105106147Y-139539104D01*
X105032228Y-139565552D01*
X104956072Y-139584628D01*
X104878414Y-139596148D01*
X104800000Y-139600000D01*
X103200000Y-139600000D01*
X103121586Y-139596148D01*
X103043928Y-139584628D01*
X102967772Y-139565552D01*
X102893853Y-139539104D01*
X102822883Y-139505537D01*
X102755544Y-139465176D01*
X102692485Y-139418408D01*
X102634315Y-139365685D01*
X102581592Y-139307515D01*
X102534824Y-139244456D01*
X102494463Y-139177117D01*
X102460896Y-139106147D01*
X102434448Y-139032228D01*
X102415372Y-138956072D01*
X102403852Y-138878414D01*
X102400000Y-138800000D01*
X102400000Y-137200000D01*
X102403852Y-137121586D01*
X102415372Y-137043928D01*
X102434448Y-136967772D01*
X102460896Y-136893853D01*
X102494463Y-136822883D01*
X102534824Y-136755544D01*
X102581592Y-136692485D01*
X102634315Y-136634315D01*
X102692485Y-136581592D01*
X102755544Y-136534824D01*
X102822883Y-136494463D01*
X102893853Y-136460896D01*
X102967772Y-136434448D01*
X103043928Y-136415372D01*
X103121586Y-136403852D01*
X103200000Y-136400000D01*
X104800000Y-136400000D01*
X104878414Y-136403852D01*
G37*
D16*
X110750000Y-138000000D03*
D21*
X139750000Y-62000000D03*
X145250000Y-62000000D03*
D22*
X95000000Y-130000000D03*
X95000000Y-70000000D03*
X155000000Y-130000000D03*
X155000000Y-70000000D03*
X115000000Y-110000000D03*
X135000000Y-110000000D03*
X135000000Y-90000000D03*
X115000000Y-90000000D03*
D19*
X85976000Y-144326000D03*
X78476000Y-142926000D03*
D23*
X68000000Y-144450000D03*
X68000000Y-55550000D03*
D24*
X78730000Y-130440000D03*
X78730000Y-125440000D03*
X86350000Y-125440000D03*
X86350000Y-130440000D03*
X71110000Y-125440000D03*
X71110000Y-130440000D03*
D19*
X78476000Y-136830000D03*
X85976000Y-139230000D03*
D15*
X155748000Y-120574000D03*
D14*
X159248000Y-120574000D03*
X159248000Y-110414000D03*
D15*
X155748000Y-110414000D03*
X155748000Y-100254000D03*
D14*
X159248000Y-100254000D03*
D15*
X167630000Y-132060000D03*
D14*
X167630000Y-135560000D03*
X159248000Y-90094000D03*
D15*
X155748000Y-90094000D03*
M02*
