M48
; DRILL file {KiCad (5.1.5)-3} date 2020-04-19 00:39:34
; FORMAT={-:-/ absolute / metric / decimal}
; #@! TF.CreationDate,2020-04-19T00:39:34+08:00
; #@! TF.GenerationSoftware,Kicad,Pcbnew,(5.1.5)-3
; #@! TF.FileFunction,Plated,1,2,PTH
FMAT,2
METRIC
T1C0.300
T2C0.500
T3C0.600
T4C0.800
T5C0.900
T6C1.000
T7C1.400
T8C2.400
T9C2.800
%
G90
G05
T1
X78.984Y-76.886
X80.0Y-74.346
X83.556Y-75.362
X84.572Y-76.26
X90.668Y-75.362
X92.192Y-77.394
X97.154Y-72.822
X100.32Y-72.822
X149.088Y-93.142
X150.612Y-73.838
X154.676Y-80.95
X156.2Y-103.81
X157.216Y-54.195
X157.724Y-66.218
X157.724Y-73.838
X159.248Y-54.195
X159.248Y-75.87
X159.248Y-77.902
X160.772Y-66.218
X161.28Y-54.195
X162.296Y-103.81
X162.804Y-93.142
X162.804Y-85.014
X162.804Y-87.85
X163.82Y-88.062
X164.328Y-92.126
X164.328Y-95.174
X164.328Y-99.238
X164.718Y-67.742
X164.718Y-69.774
X164.836Y-60.122
X165.344Y-73.034
X165.344Y-74.642
X165.97Y-66.364
X170.424Y-94.666
X171.948Y-88.062
X171.948Y-97.206
X174.299Y-93.331
X175.504Y-92.126
X180.584Y-106.858
X183.124Y-106.858
X183.632Y-106.35
X184.648Y-95.174
X184.648Y-99.238
X184.648Y-101.778
X185.664Y-99.238
X187.696Y-117.018
X190.236Y-145.076
X191.76Y-117.526
X191.76Y-120.066
X198.364Y-117.018
X198.364Y-121.59
X206.492Y-110.414
X206.492Y-118.034
X207.508Y-113.462
X207.508Y-118.034
T2
X169.916Y-109.398
X170.424Y-77.902
X170.932Y-109.398
X171.44Y-77.902
X171.948Y-109.398
X172.456Y-77.902
X172.964Y-109.398
X173.472Y-77.902
X173.98Y-109.398
X174.488Y-77.902
X185.156Y-109.398
X185.664Y-77.902
X186.172Y-109.398
X186.68Y-77.902
T3
X67.808Y-137.846
X80.112Y-77.79
X85.588Y-55.042
X85.588Y-58.598
X85.588Y-62.154
X85.588Y-65.71
X87.62Y-64.186
X147.31Y-66.98
X147.31Y-69.52
X147.31Y-72.06
X147.31Y-74.6
X147.31Y-77.14
X147.31Y-79.68
X147.31Y-82.22
X147.31Y-84.76
X147.31Y-87.3
X147.31Y-89.84
X147.31Y-92.38
X147.31Y-94.92
X147.31Y-97.46
X147.31Y-100.0
X147.31Y-102.54
X147.31Y-105.08
X147.31Y-107.62
X147.31Y-110.16
X147.31Y-112.7
X147.31Y-115.24
X147.31Y-117.78
X147.31Y-120.32
X147.31Y-122.86
X147.31Y-125.4
X147.31Y-127.94
X147.31Y-130.48
X147.31Y-136.83
X147.31Y-139.37
X147.31Y-141.91
X148.58Y-131.75
X149.85Y-122.86
X149.85Y-125.4
X149.85Y-127.94
X149.85Y-130.48
X149.85Y-139.37
X149.85Y-141.91
X151.12Y-61.9
X151.12Y-64.44
X151.12Y-66.98
X151.12Y-69.52
X151.12Y-72.06
X151.12Y-134.29
X152.39Y-105.08
X152.39Y-107.62
X152.39Y-110.16
X152.39Y-112.7
X152.39Y-115.24
X152.39Y-117.78
X152.39Y-125.4
X152.39Y-129.21
X152.39Y-131.75
X152.39Y-141.91
X153.094Y-55.74
X153.152Y-59.614
X153.66Y-63.17
X153.66Y-65.71
X153.66Y-77.14
X153.66Y-79.68
X153.66Y-82.22
X153.66Y-86.03
X153.66Y-88.57
X153.66Y-91.11
X153.66Y-94.92
X153.66Y-97.46
X153.66Y-100.0
X153.66Y-126.67
X153.66Y-136.83
X154.168Y-60.63
X154.168Y-75.108
X154.93Y-94.92
X154.93Y-97.46
X154.93Y-102.54
X154.93Y-105.08
X154.93Y-107.62
X154.93Y-112.7
X154.93Y-115.24
X154.93Y-117.78
X155.946Y-63.17
X155.946Y-65.71
X156.2Y-60.63
X156.2Y-75.108
X156.2Y-77.14
X156.2Y-86.03
X156.2Y-88.57
X156.2Y-94.92
X156.2Y-97.46
X156.2Y-139.37
X157.47Y-136.83
X160.01Y-134.29
X162.55Y-106.35
X162.55Y-108.89
X162.55Y-111.43
X162.55Y-113.97
X162.55Y-116.51
X162.55Y-119.05
X162.55Y-121.59
X162.55Y-124.13
X163.82Y-138.1
X163.82Y-139.37
X165.09Y-106.35
X165.09Y-108.89
X165.09Y-111.43
X165.09Y-113.97
X165.09Y-116.51
X165.09Y-119.05
X165.09Y-121.59
X165.09Y-124.13
X165.09Y-138.1
X165.09Y-139.37
X166.36Y-138.1
X167.63Y-55.55
X167.63Y-58.09
X167.63Y-60.63
X167.63Y-63.17
X167.63Y-65.71
X167.63Y-68.25
X167.63Y-70.79
X167.63Y-119.05
X167.63Y-121.59
X167.63Y-124.13
X167.63Y-138.1
X168.9Y-54.534
X168.9Y-138.1
X170.17Y-55.55
X170.17Y-58.09
X170.17Y-60.63
X170.17Y-63.17
X170.17Y-65.71
X170.17Y-68.25
X170.17Y-119.05
X170.17Y-121.59
X170.17Y-124.13
X170.17Y-138.1
X171.44Y-54.534
X172.71Y-55.55
X172.71Y-58.09
X172.71Y-60.63
X172.71Y-63.17
X172.71Y-65.71
X172.71Y-68.25
X172.71Y-119.05
X172.71Y-121.59
X172.71Y-124.13
X172.71Y-138.1
X172.71Y-139.37
X173.98Y-54.534
X173.98Y-141.91
X173.98Y-143.18
X175.25Y-55.55
X175.25Y-58.09
X175.25Y-60.63
X175.25Y-63.17
X175.25Y-65.71
X175.25Y-68.25
X175.25Y-119.05
X175.25Y-121.59
X175.25Y-124.13
X176.52Y-54.534
X177.028Y-103.81
X177.79Y-119.05
X177.79Y-121.59
X177.79Y-124.13
X179.06Y-54.534
X180.33Y-60.63
X180.33Y-61.9
X180.33Y-63.17
X180.33Y-64.44
X180.33Y-65.71
X180.33Y-66.98
X180.33Y-68.25
X180.33Y-69.52
X180.33Y-124.13
X180.584Y-112.446
X181.092Y-113.462
X181.346Y-89.332
X181.346Y-90.856
X181.6Y-59.36
X181.6Y-60.63
X181.6Y-61.9
X181.6Y-63.17
X181.6Y-64.44
X181.6Y-65.71
X181.6Y-66.98
X181.6Y-68.25
X181.6Y-69.52
X181.6Y-80.95
X182.108Y-81.966
X182.108Y-112.446
X182.616Y-89.332
X182.616Y-90.856
X182.616Y-113.462
X182.87Y-58.09
X182.87Y-59.36
X182.87Y-60.63
X182.87Y-61.9
X182.87Y-63.17
X182.87Y-64.44
X182.87Y-65.71
X182.87Y-66.98
X182.87Y-68.25
X182.87Y-69.52
X182.87Y-136.83
X182.87Y-138.1
X183.124Y-80.95
X183.632Y-81.966
X183.632Y-91.618
X183.632Y-112.446
X183.886Y-89.84
X184.14Y-58.09
X184.14Y-59.36
X184.14Y-60.63
X184.14Y-65.71
X184.14Y-66.98
X184.14Y-68.25
X184.14Y-69.52
X184.14Y-113.462
X184.14Y-136.83
X184.14Y-138.1
X184.648Y-80.95
X184.648Y-90.602
X184.648Y-111.43
X185.156Y-81.966
X185.156Y-112.446
X185.41Y-58.09
X185.41Y-59.36
X185.41Y-60.63
X185.41Y-65.71
X185.41Y-66.98
X185.41Y-68.25
X185.41Y-69.52
X185.41Y-70.79
X185.41Y-136.83
X185.41Y-138.1
X185.664Y-79.426
X185.664Y-111.43
X185.664Y-113.462
X186.172Y-80.95
X186.68Y-58.09
X186.68Y-59.36
X186.68Y-60.63
X186.68Y-65.71
X186.68Y-66.98
X186.68Y-68.25
X186.68Y-69.52
X186.68Y-70.79
X186.68Y-81.966
X186.68Y-111.43
X186.68Y-136.83
X186.68Y-138.1
X187.188Y-79.426
X187.95Y-58.09
X187.95Y-59.36
X187.95Y-60.63
X187.95Y-65.71
X187.95Y-66.98
X187.95Y-68.25
X187.95Y-69.52
X187.95Y-70.79
X187.95Y-74.854
X187.95Y-106.35
X187.95Y-136.83
X187.95Y-138.1
X189.22Y-58.09
X189.22Y-59.36
X189.22Y-60.63
X189.22Y-65.71
X189.22Y-66.98
X189.22Y-68.25
X189.22Y-69.52
X189.22Y-70.79
X190.49Y-58.09
X190.49Y-59.36
X190.49Y-60.63
X190.49Y-65.71
X190.49Y-66.98
X190.49Y-68.25
X190.49Y-69.52
X190.49Y-70.79
X191.76Y-54.28
X191.76Y-55.55
X191.76Y-56.82
X191.76Y-58.09
X191.76Y-59.36
X191.76Y-60.63
X191.76Y-65.71
X191.76Y-66.98
X191.76Y-68.25
X191.76Y-69.52
X191.76Y-70.79
X191.76Y-136.83
X191.76Y-138.1
X193.03Y-54.28
X193.03Y-55.55
X193.03Y-56.82
X193.03Y-69.52
X193.03Y-70.79
X193.03Y-136.83
X193.03Y-138.1
X194.3Y-54.28
X194.3Y-136.83
X194.3Y-138.1
X195.316Y-56.566
X195.57Y-54.28
X195.57Y-136.83
X195.57Y-138.1
X196.84Y-54.28
X198.11Y-54.28
X198.11Y-55.55
X198.11Y-56.82
X198.11Y-70.79
X198.11Y-73.33
X198.11Y-75.87
X198.11Y-78.41
X198.11Y-80.95
X198.11Y-83.49
X198.11Y-86.03
X198.11Y-88.57
X198.11Y-91.11
X198.11Y-93.65
X198.11Y-96.19
X198.11Y-98.73
X198.11Y-101.27
X198.11Y-103.81
X198.11Y-106.35
X198.11Y-108.89
X198.11Y-111.43
X198.11Y-113.97
X198.11Y-122.86
X198.11Y-125.4
X198.11Y-127.94
X198.11Y-130.48
X198.11Y-135.56
X198.11Y-138.1
X198.11Y-140.64
X199.38Y-54.28
X199.38Y-55.55
X199.38Y-56.82
X199.38Y-70.79
X199.38Y-73.33
X199.38Y-75.87
X199.38Y-78.41
X199.38Y-80.95
X199.38Y-83.49
X199.38Y-86.03
X199.38Y-88.57
X199.38Y-91.11
X199.38Y-93.65
X199.38Y-96.19
X199.38Y-98.73
X199.38Y-101.27
X199.38Y-103.81
X199.38Y-106.35
X199.38Y-108.89
X199.38Y-111.43
X199.38Y-112.954
X199.38Y-122.86
X199.38Y-125.4
X199.38Y-127.94
X199.38Y-130.48
X199.38Y-135.56
X199.38Y-138.1
X199.38Y-140.64
X200.65Y-54.28
X200.65Y-55.55
X200.65Y-56.82
X201.92Y-54.28
X201.92Y-55.55
X201.92Y-56.82
X203.19Y-54.28
X203.19Y-55.55
X203.19Y-56.82
X203.19Y-122.86
X203.19Y-125.4
X203.19Y-127.94
X203.19Y-130.48
X203.19Y-135.56
X203.19Y-138.1
X203.19Y-140.64
X204.46Y-54.28
X204.46Y-55.55
X204.46Y-56.82
X205.73Y-54.28
X205.73Y-55.55
X205.73Y-56.82
X207.0Y-54.28
X207.0Y-55.55
X207.0Y-56.82
X207.0Y-58.09
X207.0Y-59.36
X207.0Y-122.86
X207.0Y-125.4
X207.0Y-127.94
X207.0Y-130.48
X207.0Y-135.56
X207.0Y-138.1
X207.0Y-140.64
X208.27Y-59.36
X208.27Y-122.86
X208.27Y-125.4
X208.27Y-127.94
X208.27Y-130.48
X208.27Y-135.56
X208.27Y-138.1
X208.27Y-140.64
X209.54Y-59.36
X210.81Y-59.36
X212.08Y-59.36
X213.35Y-59.36
X213.35Y-143.18
X214.62Y-54.28
X214.62Y-55.55
X214.62Y-56.82
X214.62Y-58.09
X214.62Y-59.36
X214.62Y-69.52
X214.62Y-141.91
X214.62Y-143.18
X215.89Y-54.28
X215.89Y-55.55
X215.89Y-56.82
X215.89Y-58.09
X215.89Y-141.91
X217.16Y-54.28
X217.16Y-55.55
X217.16Y-56.82
X217.16Y-58.09
X218.43Y-54.28
X218.43Y-55.55
X218.43Y-56.82
X218.43Y-58.09
X222.24Y-59.36
X222.24Y-61.9
X222.24Y-64.44
X222.24Y-66.98
X222.24Y-69.52
X222.24Y-72.06
X222.24Y-74.6
X222.24Y-77.14
X222.24Y-79.68
X222.24Y-82.22
X222.24Y-84.76
X222.24Y-87.3
X222.24Y-89.84
X222.24Y-92.38
X222.24Y-94.92
X222.24Y-97.46
X222.24Y-100.0
X222.24Y-102.54
X222.24Y-105.08
X222.24Y-107.62
X222.24Y-110.16
X222.24Y-112.7
X222.24Y-115.24
X222.24Y-117.78
X222.24Y-120.32
X222.24Y-122.86
X222.24Y-125.4
X222.24Y-127.94
X222.24Y-130.48
X222.24Y-133.02
X222.24Y-135.56
X222.24Y-138.1
X222.24Y-140.64
X223.51Y-59.36
X223.51Y-61.9
X223.51Y-64.44
X223.51Y-66.98
X223.51Y-69.52
X223.51Y-72.06
X223.51Y-74.6
X223.51Y-77.14
X223.51Y-79.68
X223.51Y-82.22
X223.51Y-84.76
X223.51Y-87.3
X223.51Y-89.84
X223.51Y-92.38
X223.51Y-94.92
X223.51Y-97.46
X223.51Y-100.0
X223.51Y-102.54
X223.51Y-105.08
X223.51Y-107.62
X223.51Y-110.16
X223.51Y-112.7
X223.51Y-115.24
X223.51Y-117.78
X223.51Y-120.32
X223.51Y-122.86
X223.51Y-125.4
X223.51Y-127.94
X223.51Y-130.48
X223.51Y-133.02
X223.51Y-135.56
X223.51Y-138.1
X223.51Y-140.64
T4
X167.63Y-132.06
X167.63Y-135.56
X78.476Y-142.926
X85.976Y-144.326
X155.748Y-100.254
X159.248Y-100.254
X155.748Y-120.574
X159.248Y-120.574
X155.748Y-110.414
X159.248Y-110.414
X158.74Y-139.37
X158.74Y-142.87
X78.476Y-136.83
X85.976Y-139.23
X155.748Y-90.094
X159.248Y-90.094
T5
X74.92Y-74.854
X77.46Y-74.854
X74.92Y-79.934
X77.46Y-79.934
X74.92Y-69.774
X77.46Y-69.774
T6
X217.16Y-60.63
X217.16Y-63.17
X217.16Y-65.71
X217.16Y-68.25
X217.16Y-70.79
X217.16Y-73.33
X217.16Y-75.87
X217.16Y-78.41
X217.16Y-80.95
X217.16Y-83.49
X217.16Y-86.03
X217.16Y-88.57
X217.16Y-91.11
X217.16Y-93.65
X217.16Y-96.19
X217.16Y-98.73
X217.16Y-101.27
X217.16Y-103.81
X217.16Y-106.35
X217.16Y-108.89
X217.16Y-111.43
X217.16Y-113.97
X217.16Y-116.51
X217.16Y-119.05
X217.16Y-121.59
X217.16Y-124.13
X217.16Y-126.67
X217.16Y-129.21
X217.16Y-131.75
X217.16Y-134.29
X217.16Y-136.83
X217.16Y-139.37
X219.7Y-60.63
X219.7Y-63.17
X219.7Y-65.71
X219.7Y-68.25
X219.7Y-70.79
X219.7Y-73.33
X219.7Y-75.87
X219.7Y-78.41
X219.7Y-80.95
X219.7Y-83.49
X219.7Y-86.03
X219.7Y-88.57
X219.7Y-91.11
X219.7Y-93.65
X219.7Y-96.19
X219.7Y-98.73
X219.7Y-101.27
X219.7Y-103.81
X219.7Y-106.35
X219.7Y-108.89
X219.7Y-111.43
X219.7Y-113.97
X219.7Y-116.51
X219.7Y-119.05
X219.7Y-121.59
X219.7Y-124.13
X219.7Y-126.67
X219.7Y-129.21
X219.7Y-131.75
X219.7Y-134.29
X219.7Y-136.83
X219.7Y-139.37
T7
X104.0Y-138.0
X110.75Y-138.0
T8
X139.75Y-62.0
X145.25Y-62.0
T9
X68.57Y-55.55
X68.57Y-144.45
T6
G00X86.35Y-125.79
M15
G01X86.35Y-125.09
M16
G05
G00X86.35Y-130.79
M15
G01X86.35Y-130.09
M16
G05
G00X78.73Y-125.79
M15
G01X78.73Y-125.09
M16
G05
G00X78.73Y-130.79
M15
G01X78.73Y-130.09
M16
G05
G00X71.11Y-125.09
M15
G01X71.11Y-125.79
M16
G05
G00X71.11Y-130.09
M15
G01X71.11Y-130.79
M16
G05
T0
M30
