G04 #@! TF.GenerationSoftware,KiCad,Pcbnew,(5.1.5)-3*
G04 #@! TF.CreationDate,2020-04-19T00:38:59+08:00*
G04 #@! TF.ProjectId,HEMAC_POWER,48454d41-435f-4504-9f57-45522e6b6963,rev?*
G04 #@! TF.SameCoordinates,Original*
G04 #@! TF.FileFunction,Legend,Top*
G04 #@! TF.FilePolarity,Positive*
%FSLAX46Y46*%
G04 Gerber Fmt 4.6, Leading zero omitted, Abs format (unit mm)*
G04 Created by KiCad (PCBNEW (5.1.5)-3) date 2020-04-19 00:38:59*
%MOMM*%
%LPD*%
G04 APERTURE LIST*
%ADD10C,0.150000*%
%ADD11C,0.200000*%
%ADD12C,0.010000*%
%ADD13C,0.120000*%
G04 APERTURE END LIST*
D10*
X68824000Y-109906000D02*
X68824000Y-83998000D01*
X65776000Y-83998000D02*
X68824000Y-83998000D01*
X65776000Y-109906000D02*
X68824000Y-109906000D01*
X65776000Y-83998000D02*
X65776000Y-109906000D01*
D11*
X66395238Y-84317047D02*
X68395238Y-84317047D01*
X68395238Y-85078952D01*
X68300000Y-85269428D01*
X68204761Y-85364666D01*
X68014285Y-85459904D01*
X67728571Y-85459904D01*
X67538095Y-85364666D01*
X67442857Y-85269428D01*
X67347619Y-85078952D01*
X67347619Y-84317047D01*
X68395238Y-86698000D02*
X68395238Y-87078952D01*
X68300000Y-87269428D01*
X68109523Y-87459904D01*
X67728571Y-87555142D01*
X67061904Y-87555142D01*
X66680952Y-87459904D01*
X66490476Y-87269428D01*
X66395238Y-87078952D01*
X66395238Y-86698000D01*
X66490476Y-86507523D01*
X66680952Y-86317047D01*
X67061904Y-86221809D01*
X67728571Y-86221809D01*
X68109523Y-86317047D01*
X68300000Y-86507523D01*
X68395238Y-86698000D01*
X68395238Y-88221809D02*
X66395238Y-88698000D01*
X67823809Y-89078952D01*
X66395238Y-89459904D01*
X68395238Y-89936095D01*
X67442857Y-90698000D02*
X67442857Y-91364666D01*
X66395238Y-91650380D02*
X66395238Y-90698000D01*
X68395238Y-90698000D01*
X68395238Y-91650380D01*
X66395238Y-93650380D02*
X67347619Y-92983714D01*
X66395238Y-92507523D02*
X68395238Y-92507523D01*
X68395238Y-93269428D01*
X68300000Y-93459904D01*
X68204761Y-93555142D01*
X68014285Y-93650380D01*
X67728571Y-93650380D01*
X67538095Y-93555142D01*
X67442857Y-93459904D01*
X67347619Y-93269428D01*
X67347619Y-92507523D01*
X66585714Y-97174190D02*
X66490476Y-97078952D01*
X66395238Y-96793238D01*
X66395238Y-96602761D01*
X66490476Y-96317047D01*
X66680952Y-96126571D01*
X66871428Y-96031333D01*
X67252380Y-95936095D01*
X67538095Y-95936095D01*
X67919047Y-96031333D01*
X68109523Y-96126571D01*
X68300000Y-96317047D01*
X68395238Y-96602761D01*
X68395238Y-96793238D01*
X68300000Y-97078952D01*
X68204761Y-97174190D01*
X66966666Y-97936095D02*
X66966666Y-98888476D01*
X66395238Y-97745619D02*
X68395238Y-98412285D01*
X66395238Y-99078952D01*
X66395238Y-100888476D02*
X67347619Y-100221809D01*
X66395238Y-99745619D02*
X68395238Y-99745619D01*
X68395238Y-100507523D01*
X68300000Y-100698000D01*
X68204761Y-100793238D01*
X68014285Y-100888476D01*
X67728571Y-100888476D01*
X67538095Y-100793238D01*
X67442857Y-100698000D01*
X67347619Y-100507523D01*
X67347619Y-99745619D01*
X66395238Y-101745619D02*
X68395238Y-101745619D01*
X68395238Y-102221809D01*
X68300000Y-102507523D01*
X68109523Y-102698000D01*
X67919047Y-102793238D01*
X67538095Y-102888476D01*
X67252380Y-102888476D01*
X66871428Y-102793238D01*
X66680952Y-102698000D01*
X66490476Y-102507523D01*
X66395238Y-102221809D01*
X66395238Y-101745619D01*
X68395238Y-105650380D02*
X68395238Y-105840857D01*
X68300000Y-106031333D01*
X68204761Y-106126571D01*
X68014285Y-106221809D01*
X67633333Y-106317047D01*
X67157142Y-106317047D01*
X66776190Y-106221809D01*
X66585714Y-106126571D01*
X66490476Y-106031333D01*
X66395238Y-105840857D01*
X66395238Y-105650380D01*
X66490476Y-105459904D01*
X66585714Y-105364666D01*
X66776190Y-105269428D01*
X67157142Y-105174190D01*
X67633333Y-105174190D01*
X68014285Y-105269428D01*
X68204761Y-105364666D01*
X68300000Y-105459904D01*
X68395238Y-105650380D01*
X66585714Y-107174190D02*
X66490476Y-107269428D01*
X66395238Y-107174190D01*
X66490476Y-107078952D01*
X66585714Y-107174190D01*
X66395238Y-107174190D01*
X66395238Y-109174190D02*
X66395238Y-108031333D01*
X66395238Y-108602761D02*
X68395238Y-108602761D01*
X68109523Y-108412285D01*
X67919047Y-108221809D01*
X67823809Y-108031333D01*
D10*
X90668000Y-112446000D02*
X66284000Y-112446000D01*
X90668000Y-115494000D02*
X90668000Y-112446000D01*
X66284000Y-115494000D02*
X90668000Y-115494000D01*
X66284000Y-112446000D02*
X66284000Y-115494000D01*
D11*
X68047428Y-114874761D02*
X66904571Y-114874761D01*
X67476000Y-114874761D02*
X67476000Y-112874761D01*
X67285523Y-113160476D01*
X67095047Y-113350952D01*
X66904571Y-113446190D01*
X69952190Y-114874761D02*
X68809333Y-114874761D01*
X69380761Y-114874761D02*
X69380761Y-112874761D01*
X69190285Y-113160476D01*
X68999809Y-113350952D01*
X68809333Y-113446190D01*
X71190285Y-112874761D02*
X71380761Y-112874761D01*
X71571238Y-112970000D01*
X71666476Y-113065238D01*
X71761714Y-113255714D01*
X71856952Y-113636666D01*
X71856952Y-114112857D01*
X71761714Y-114493809D01*
X71666476Y-114684285D01*
X71571238Y-114779523D01*
X71380761Y-114874761D01*
X71190285Y-114874761D01*
X70999809Y-114779523D01*
X70904571Y-114684285D01*
X70809333Y-114493809D01*
X70714095Y-114112857D01*
X70714095Y-113636666D01*
X70809333Y-113255714D01*
X70904571Y-113065238D01*
X70999809Y-112970000D01*
X71190285Y-112874761D01*
X74237904Y-114112857D02*
X75761714Y-114112857D01*
X78142666Y-113065238D02*
X78237904Y-112970000D01*
X78428380Y-112874761D01*
X78904571Y-112874761D01*
X79095047Y-112970000D01*
X79190285Y-113065238D01*
X79285523Y-113255714D01*
X79285523Y-113446190D01*
X79190285Y-113731904D01*
X78047428Y-114874761D01*
X79285523Y-114874761D01*
X79952190Y-112874761D02*
X81190285Y-112874761D01*
X80523619Y-113636666D01*
X80809333Y-113636666D01*
X80999809Y-113731904D01*
X81095047Y-113827142D01*
X81190285Y-114017619D01*
X81190285Y-114493809D01*
X81095047Y-114684285D01*
X80999809Y-114779523D01*
X80809333Y-114874761D01*
X80237904Y-114874761D01*
X80047428Y-114779523D01*
X79952190Y-114684285D01*
X82428380Y-112874761D02*
X82618857Y-112874761D01*
X82809333Y-112970000D01*
X82904571Y-113065238D01*
X82999809Y-113255714D01*
X83095047Y-113636666D01*
X83095047Y-114112857D01*
X82999809Y-114493809D01*
X82904571Y-114684285D01*
X82809333Y-114779523D01*
X82618857Y-114874761D01*
X82428380Y-114874761D01*
X82237904Y-114779523D01*
X82142666Y-114684285D01*
X82047428Y-114493809D01*
X81952190Y-114112857D01*
X81952190Y-113636666D01*
X82047428Y-113255714D01*
X82142666Y-113065238D01*
X82237904Y-112970000D01*
X82428380Y-112874761D01*
X83666476Y-112874761D02*
X84333142Y-114874761D01*
X84999809Y-112874761D01*
X87095047Y-114303333D02*
X88047428Y-114303333D01*
X86904571Y-114874761D02*
X87571238Y-112874761D01*
X88237904Y-114874761D01*
X90047428Y-114684285D02*
X89952190Y-114779523D01*
X89666476Y-114874761D01*
X89476000Y-114874761D01*
X89190285Y-114779523D01*
X88999809Y-114589047D01*
X88904571Y-114398571D01*
X88809333Y-114017619D01*
X88809333Y-113731904D01*
X88904571Y-113350952D01*
X88999809Y-113160476D01*
X89190285Y-112970000D01*
X89476000Y-112874761D01*
X89666476Y-112874761D01*
X89952190Y-112970000D01*
X90047428Y-113065238D01*
X69427428Y-121478761D02*
X69427428Y-119478761D01*
X70189333Y-119478761D01*
X70379809Y-119574000D01*
X70475047Y-119669238D01*
X70570285Y-119859714D01*
X70570285Y-120145428D01*
X70475047Y-120335904D01*
X70379809Y-120431142D01*
X70189333Y-120526380D01*
X69427428Y-120526380D01*
X71427428Y-120431142D02*
X72094095Y-120431142D01*
X72379809Y-121478761D02*
X71427428Y-121478761D01*
X71427428Y-119478761D01*
X72379809Y-119478761D01*
X85524571Y-121478761D02*
X85524571Y-119478761D01*
X86667428Y-121478761D01*
X86667428Y-119478761D01*
X79095047Y-121478761D02*
X78142666Y-121478761D01*
X78142666Y-119478761D01*
D10*
X86096000Y-64186000D02*
X85080000Y-65710000D01*
X166868000Y-56566000D02*
X168392000Y-56566000D01*
X178044000Y-55042000D02*
X168392000Y-55042000D01*
X178044000Y-58598000D02*
X178044000Y-55042000D01*
X168392000Y-58598000D02*
X178044000Y-58598000D01*
X168392000Y-55042000D02*
X168392000Y-58598000D01*
X166360000Y-68758000D02*
X164836000Y-71806000D01*
X169408000Y-64186000D02*
X169408000Y-70282000D01*
X166360000Y-64186000D02*
X169408000Y-64186000D01*
X166360000Y-64186000D02*
X166360000Y-70282000D01*
X158740000Y-76886000D02*
X159756000Y-76886000D01*
X158740000Y-72822000D02*
X158740000Y-78918000D01*
X155692000Y-72822000D02*
X158740000Y-72822000D01*
X155692000Y-78918000D02*
X155692000Y-72822000D01*
D11*
X225000000Y-148000000D02*
G75*
G02X223000000Y-150000000I-2000000J0D01*
G01*
X67000000Y-150000000D02*
G75*
G02X65000000Y-148000000I0J2000000D01*
G01*
X65000000Y-52000000D02*
G75*
G02X67000000Y-50000000I2000000J0D01*
G01*
X223000000Y-50000000D02*
G75*
G02X225000000Y-52000000I0J-2000000D01*
G01*
X65000000Y-148000000D02*
X65000000Y-52000000D01*
X223000000Y-150000000D02*
X67000000Y-150000000D01*
X225000000Y-52000000D02*
X225000000Y-148000000D01*
X67000000Y-50000000D02*
X223000000Y-50000000D01*
D12*
G36*
X74612187Y-103884317D02*
G01*
X74677237Y-103909473D01*
X74776385Y-103959425D01*
X74918747Y-104037752D01*
X74929832Y-104043977D01*
X75060947Y-104118952D01*
X75171596Y-104184638D01*
X75250910Y-104234410D01*
X75288023Y-104261641D01*
X75289061Y-104262974D01*
X75280096Y-104300780D01*
X75238971Y-104385210D01*
X75168366Y-104511665D01*
X75070960Y-104675544D01*
X74949435Y-104872245D01*
X74806471Y-105097170D01*
X74770890Y-105152331D01*
X74678186Y-105305398D01*
X74610683Y-105437112D01*
X74574305Y-105535565D01*
X74570572Y-105555014D01*
X74572229Y-105640624D01*
X74590788Y-105776418D01*
X74623936Y-105953687D01*
X74669360Y-106163719D01*
X74724746Y-106397804D01*
X74787780Y-106647232D01*
X74856150Y-106903290D01*
X74927542Y-107157269D01*
X74999641Y-107400457D01*
X75070136Y-107624145D01*
X75136712Y-107819621D01*
X75197055Y-107978174D01*
X75239121Y-108072244D01*
X75288673Y-108172451D01*
X75335460Y-108268337D01*
X75337993Y-108273586D01*
X75415397Y-108370440D01*
X75528368Y-108435656D01*
X75659878Y-108466909D01*
X75792901Y-108461875D01*
X75910410Y-108418228D01*
X75976516Y-108360764D01*
X76071718Y-108203166D01*
X76141478Y-108006756D01*
X76179753Y-107791559D01*
X76185176Y-107669561D01*
X76163339Y-107441870D01*
X76099247Y-107253320D01*
X75989451Y-107094759D01*
X75955213Y-107059467D01*
X75853322Y-106960470D01*
X75839328Y-105560978D01*
X76017635Y-105291062D01*
X76101307Y-105168891D01*
X76181889Y-105058987D01*
X76247885Y-104976673D01*
X76276252Y-104946384D01*
X76356562Y-104871621D01*
X76465330Y-104930196D01*
X76534077Y-104972168D01*
X76571692Y-105004756D01*
X76574097Y-105010615D01*
X76599806Y-105035456D01*
X76643792Y-105053954D01*
X76686299Y-105070626D01*
X76751387Y-105102299D01*
X76844644Y-105152066D01*
X76971658Y-105223018D01*
X77138016Y-105318247D01*
X77349305Y-105440844D01*
X77464124Y-105507864D01*
X77599187Y-105588143D01*
X77687770Y-105645319D01*
X77737710Y-105686078D01*
X77756846Y-105717107D01*
X77753016Y-105745092D01*
X77749822Y-105751593D01*
X77718752Y-105792533D01*
X77652271Y-105869330D01*
X77558124Y-105973393D01*
X77444056Y-106096132D01*
X77345400Y-106200180D01*
X77118059Y-106447134D01*
X76940210Y-106661183D01*
X76810267Y-106844480D01*
X76726642Y-106999176D01*
X76698434Y-107077732D01*
X76686783Y-107146498D01*
X76674749Y-107263799D01*
X76663391Y-107416234D01*
X76653767Y-107590404D01*
X76649238Y-107700537D01*
X76642918Y-107890929D01*
X76640137Y-108030124D01*
X76641715Y-108128819D01*
X76648469Y-108197708D01*
X76661216Y-108247487D01*
X76680773Y-108288850D01*
X76696134Y-108314106D01*
X76784842Y-108411453D01*
X76899147Y-108479291D01*
X77019416Y-108508876D01*
X77109545Y-108498172D01*
X77191152Y-108451861D01*
X77293447Y-108368924D01*
X77402083Y-108263825D01*
X77502713Y-108151032D01*
X77580988Y-108045010D01*
X77609809Y-107993778D01*
X77652982Y-107923628D01*
X77731505Y-107816778D01*
X77838203Y-107681578D01*
X77965903Y-107526381D01*
X78107429Y-107359536D01*
X78255607Y-107189396D01*
X78403263Y-107024311D01*
X78543222Y-106872633D01*
X78668310Y-106742713D01*
X78766520Y-106647339D01*
X78875557Y-106552065D01*
X78967284Y-106481817D01*
X79031621Y-106443898D01*
X79052978Y-106439729D01*
X79085706Y-106456548D01*
X79167341Y-106501692D01*
X79293172Y-106572449D01*
X79458488Y-106666109D01*
X79658578Y-106779962D01*
X79888732Y-106911298D01*
X80144238Y-107057406D01*
X80420387Y-107215576D01*
X80712467Y-107383097D01*
X81015768Y-107557259D01*
X81325579Y-107735352D01*
X81637189Y-107914665D01*
X81945888Y-108092487D01*
X82246964Y-108266109D01*
X82535708Y-108432819D01*
X82807408Y-108589908D01*
X83057354Y-108734666D01*
X83280834Y-108864380D01*
X83473139Y-108976342D01*
X83629557Y-109067841D01*
X83745378Y-109136167D01*
X83815891Y-109178608D01*
X83836329Y-109191927D01*
X83808803Y-109194560D01*
X83722208Y-109197118D01*
X83579428Y-109199592D01*
X83383346Y-109201966D01*
X83136844Y-109204231D01*
X82842806Y-109206373D01*
X82504114Y-109208379D01*
X82123652Y-109210238D01*
X81704301Y-109211937D01*
X81248946Y-109213464D01*
X80760469Y-109214807D01*
X80241753Y-109215952D01*
X79695681Y-109216889D01*
X79125136Y-109217604D01*
X78533000Y-109218085D01*
X77922157Y-109218319D01*
X77665848Y-109218342D01*
X71465939Y-109218342D01*
X71908106Y-108451695D01*
X72001711Y-108289360D01*
X72122204Y-108080332D01*
X72265556Y-107831603D01*
X72427738Y-107550164D01*
X72604723Y-107243007D01*
X72792480Y-106917125D01*
X72986982Y-106579509D01*
X73184200Y-106237151D01*
X73380105Y-105897043D01*
X73429649Y-105811025D01*
X73610304Y-105497715D01*
X73782578Y-105199606D01*
X73943884Y-104921136D01*
X74091632Y-104666743D01*
X74223233Y-104440864D01*
X74336099Y-104247937D01*
X74427641Y-104092401D01*
X74495270Y-103978692D01*
X74536396Y-103911250D01*
X74547905Y-103894080D01*
X74572115Y-103880379D01*
X74612187Y-103884317D01*
G37*
X74612187Y-103884317D02*
X74677237Y-103909473D01*
X74776385Y-103959425D01*
X74918747Y-104037752D01*
X74929832Y-104043977D01*
X75060947Y-104118952D01*
X75171596Y-104184638D01*
X75250910Y-104234410D01*
X75288023Y-104261641D01*
X75289061Y-104262974D01*
X75280096Y-104300780D01*
X75238971Y-104385210D01*
X75168366Y-104511665D01*
X75070960Y-104675544D01*
X74949435Y-104872245D01*
X74806471Y-105097170D01*
X74770890Y-105152331D01*
X74678186Y-105305398D01*
X74610683Y-105437112D01*
X74574305Y-105535565D01*
X74570572Y-105555014D01*
X74572229Y-105640624D01*
X74590788Y-105776418D01*
X74623936Y-105953687D01*
X74669360Y-106163719D01*
X74724746Y-106397804D01*
X74787780Y-106647232D01*
X74856150Y-106903290D01*
X74927542Y-107157269D01*
X74999641Y-107400457D01*
X75070136Y-107624145D01*
X75136712Y-107819621D01*
X75197055Y-107978174D01*
X75239121Y-108072244D01*
X75288673Y-108172451D01*
X75335460Y-108268337D01*
X75337993Y-108273586D01*
X75415397Y-108370440D01*
X75528368Y-108435656D01*
X75659878Y-108466909D01*
X75792901Y-108461875D01*
X75910410Y-108418228D01*
X75976516Y-108360764D01*
X76071718Y-108203166D01*
X76141478Y-108006756D01*
X76179753Y-107791559D01*
X76185176Y-107669561D01*
X76163339Y-107441870D01*
X76099247Y-107253320D01*
X75989451Y-107094759D01*
X75955213Y-107059467D01*
X75853322Y-106960470D01*
X75839328Y-105560978D01*
X76017635Y-105291062D01*
X76101307Y-105168891D01*
X76181889Y-105058987D01*
X76247885Y-104976673D01*
X76276252Y-104946384D01*
X76356562Y-104871621D01*
X76465330Y-104930196D01*
X76534077Y-104972168D01*
X76571692Y-105004756D01*
X76574097Y-105010615D01*
X76599806Y-105035456D01*
X76643792Y-105053954D01*
X76686299Y-105070626D01*
X76751387Y-105102299D01*
X76844644Y-105152066D01*
X76971658Y-105223018D01*
X77138016Y-105318247D01*
X77349305Y-105440844D01*
X77464124Y-105507864D01*
X77599187Y-105588143D01*
X77687770Y-105645319D01*
X77737710Y-105686078D01*
X77756846Y-105717107D01*
X77753016Y-105745092D01*
X77749822Y-105751593D01*
X77718752Y-105792533D01*
X77652271Y-105869330D01*
X77558124Y-105973393D01*
X77444056Y-106096132D01*
X77345400Y-106200180D01*
X77118059Y-106447134D01*
X76940210Y-106661183D01*
X76810267Y-106844480D01*
X76726642Y-106999176D01*
X76698434Y-107077732D01*
X76686783Y-107146498D01*
X76674749Y-107263799D01*
X76663391Y-107416234D01*
X76653767Y-107590404D01*
X76649238Y-107700537D01*
X76642918Y-107890929D01*
X76640137Y-108030124D01*
X76641715Y-108128819D01*
X76648469Y-108197708D01*
X76661216Y-108247487D01*
X76680773Y-108288850D01*
X76696134Y-108314106D01*
X76784842Y-108411453D01*
X76899147Y-108479291D01*
X77019416Y-108508876D01*
X77109545Y-108498172D01*
X77191152Y-108451861D01*
X77293447Y-108368924D01*
X77402083Y-108263825D01*
X77502713Y-108151032D01*
X77580988Y-108045010D01*
X77609809Y-107993778D01*
X77652982Y-107923628D01*
X77731505Y-107816778D01*
X77838203Y-107681578D01*
X77965903Y-107526381D01*
X78107429Y-107359536D01*
X78255607Y-107189396D01*
X78403263Y-107024311D01*
X78543222Y-106872633D01*
X78668310Y-106742713D01*
X78766520Y-106647339D01*
X78875557Y-106552065D01*
X78967284Y-106481817D01*
X79031621Y-106443898D01*
X79052978Y-106439729D01*
X79085706Y-106456548D01*
X79167341Y-106501692D01*
X79293172Y-106572449D01*
X79458488Y-106666109D01*
X79658578Y-106779962D01*
X79888732Y-106911298D01*
X80144238Y-107057406D01*
X80420387Y-107215576D01*
X80712467Y-107383097D01*
X81015768Y-107557259D01*
X81325579Y-107735352D01*
X81637189Y-107914665D01*
X81945888Y-108092487D01*
X82246964Y-108266109D01*
X82535708Y-108432819D01*
X82807408Y-108589908D01*
X83057354Y-108734666D01*
X83280834Y-108864380D01*
X83473139Y-108976342D01*
X83629557Y-109067841D01*
X83745378Y-109136167D01*
X83815891Y-109178608D01*
X83836329Y-109191927D01*
X83808803Y-109194560D01*
X83722208Y-109197118D01*
X83579428Y-109199592D01*
X83383346Y-109201966D01*
X83136844Y-109204231D01*
X82842806Y-109206373D01*
X82504114Y-109208379D01*
X82123652Y-109210238D01*
X81704301Y-109211937D01*
X81248946Y-109213464D01*
X80760469Y-109214807D01*
X80241753Y-109215952D01*
X79695681Y-109216889D01*
X79125136Y-109217604D01*
X78533000Y-109218085D01*
X77922157Y-109218319D01*
X77665848Y-109218342D01*
X71465939Y-109218342D01*
X71908106Y-108451695D01*
X72001711Y-108289360D01*
X72122204Y-108080332D01*
X72265556Y-107831603D01*
X72427738Y-107550164D01*
X72604723Y-107243007D01*
X72792480Y-106917125D01*
X72986982Y-106579509D01*
X73184200Y-106237151D01*
X73380105Y-105897043D01*
X73429649Y-105811025D01*
X73610304Y-105497715D01*
X73782578Y-105199606D01*
X73943884Y-104921136D01*
X74091632Y-104666743D01*
X74223233Y-104440864D01*
X74336099Y-104247937D01*
X74427641Y-104092401D01*
X74495270Y-103978692D01*
X74536396Y-103911250D01*
X74547905Y-103894080D01*
X74572115Y-103880379D01*
X74612187Y-103884317D01*
G36*
X81943056Y-103771238D02*
G01*
X81965816Y-103809386D01*
X82016975Y-103896843D01*
X82094004Y-104029238D01*
X82194372Y-104202204D01*
X82315549Y-104411370D01*
X82455006Y-104652367D01*
X82610213Y-104920824D01*
X82778640Y-105212374D01*
X82957757Y-105522646D01*
X83141995Y-105842000D01*
X83330152Y-106168235D01*
X83510803Y-106481418D01*
X83681330Y-106777012D01*
X83839114Y-107050480D01*
X83981538Y-107297284D01*
X84105981Y-107512889D01*
X84209826Y-107692755D01*
X84290455Y-107832347D01*
X84345248Y-107927128D01*
X84371013Y-107971573D01*
X84413014Y-108046661D01*
X84435850Y-108093663D01*
X84437102Y-108101841D01*
X84409272Y-108086484D01*
X84331881Y-108042407D01*
X84208973Y-107971942D01*
X84044595Y-107877422D01*
X83842792Y-107761178D01*
X83607609Y-107625542D01*
X83343091Y-107472848D01*
X83053284Y-107305428D01*
X82742233Y-107125613D01*
X82413984Y-106935735D01*
X82289097Y-106863464D01*
X81954974Y-106670167D01*
X81636147Y-106485877D01*
X81336709Y-106312950D01*
X81060752Y-106153743D01*
X80812370Y-106010610D01*
X80595653Y-105885910D01*
X80414696Y-105781996D01*
X80273591Y-105701227D01*
X80176430Y-105645957D01*
X80127307Y-105618544D01*
X80122170Y-105615948D01*
X80137138Y-105592441D01*
X80189227Y-105529591D01*
X80273117Y-105433188D01*
X80383492Y-105309020D01*
X80515034Y-105162879D01*
X80662424Y-105000553D01*
X80820345Y-104827832D01*
X80983479Y-104650506D01*
X81146508Y-104474365D01*
X81304114Y-104305198D01*
X81450979Y-104148795D01*
X81581786Y-104010945D01*
X81691216Y-103897439D01*
X81773953Y-103814065D01*
X81802328Y-103786726D01*
X81896359Y-103698403D01*
X81943056Y-103771238D01*
G37*
X81943056Y-103771238D02*
X81965816Y-103809386D01*
X82016975Y-103896843D01*
X82094004Y-104029238D01*
X82194372Y-104202204D01*
X82315549Y-104411370D01*
X82455006Y-104652367D01*
X82610213Y-104920824D01*
X82778640Y-105212374D01*
X82957757Y-105522646D01*
X83141995Y-105842000D01*
X83330152Y-106168235D01*
X83510803Y-106481418D01*
X83681330Y-106777012D01*
X83839114Y-107050480D01*
X83981538Y-107297284D01*
X84105981Y-107512889D01*
X84209826Y-107692755D01*
X84290455Y-107832347D01*
X84345248Y-107927128D01*
X84371013Y-107971573D01*
X84413014Y-108046661D01*
X84435850Y-108093663D01*
X84437102Y-108101841D01*
X84409272Y-108086484D01*
X84331881Y-108042407D01*
X84208973Y-107971942D01*
X84044595Y-107877422D01*
X83842792Y-107761178D01*
X83607609Y-107625542D01*
X83343091Y-107472848D01*
X83053284Y-107305428D01*
X82742233Y-107125613D01*
X82413984Y-106935735D01*
X82289097Y-106863464D01*
X81954974Y-106670167D01*
X81636147Y-106485877D01*
X81336709Y-106312950D01*
X81060752Y-106153743D01*
X80812370Y-106010610D01*
X80595653Y-105885910D01*
X80414696Y-105781996D01*
X80273591Y-105701227D01*
X80176430Y-105645957D01*
X80127307Y-105618544D01*
X80122170Y-105615948D01*
X80137138Y-105592441D01*
X80189227Y-105529591D01*
X80273117Y-105433188D01*
X80383492Y-105309020D01*
X80515034Y-105162879D01*
X80662424Y-105000553D01*
X80820345Y-104827832D01*
X80983479Y-104650506D01*
X81146508Y-104474365D01*
X81304114Y-104305198D01*
X81450979Y-104148795D01*
X81581786Y-104010945D01*
X81691216Y-103897439D01*
X81773953Y-103814065D01*
X81802328Y-103786726D01*
X81896359Y-103698403D01*
X81943056Y-103771238D01*
G36*
X78296085Y-97473671D02*
G01*
X78342129Y-97548491D01*
X78413067Y-97667028D01*
X78505991Y-97824237D01*
X78617992Y-98015076D01*
X78746162Y-98234501D01*
X78887592Y-98477469D01*
X79039373Y-98738937D01*
X79198597Y-99013860D01*
X79362356Y-99297197D01*
X79527740Y-99583902D01*
X79691842Y-99868934D01*
X79851752Y-100147248D01*
X80004562Y-100413802D01*
X80147363Y-100663552D01*
X80277247Y-100891455D01*
X80391305Y-101092466D01*
X80486629Y-101261544D01*
X80560310Y-101393645D01*
X80609439Y-101483724D01*
X80631108Y-101526740D01*
X80631902Y-101529429D01*
X80605002Y-101565930D01*
X80530227Y-101621764D01*
X80416470Y-101691450D01*
X80272623Y-101769509D01*
X80122029Y-101843687D01*
X79917119Y-101933635D01*
X79701633Y-102014453D01*
X79468146Y-102087938D01*
X79209236Y-102155884D01*
X78917479Y-102220088D01*
X78585451Y-102282346D01*
X78205731Y-102344454D01*
X77812937Y-102402290D01*
X77471668Y-102453600D01*
X77185090Y-102504397D01*
X76946015Y-102557204D01*
X76747259Y-102614546D01*
X76581635Y-102678947D01*
X76441956Y-102752931D01*
X76321036Y-102839024D01*
X76211689Y-102939750D01*
X76176428Y-102977167D01*
X76100000Y-103064279D01*
X76043463Y-103135364D01*
X76017235Y-103177167D01*
X76016536Y-103180594D01*
X76007360Y-103201612D01*
X75975515Y-103201849D01*
X75914531Y-103178509D01*
X75817935Y-103128793D01*
X75679254Y-103049905D01*
X75582878Y-102993175D01*
X75439166Y-102904494D01*
X75327483Y-102828559D01*
X75255334Y-102770832D01*
X75230226Y-102736776D01*
X75230241Y-102736529D01*
X75245811Y-102704075D01*
X75289783Y-102622800D01*
X75359605Y-102497134D01*
X75452725Y-102331505D01*
X75566589Y-102130344D01*
X75698646Y-101898080D01*
X75846343Y-101639143D01*
X76007128Y-101357961D01*
X76178448Y-101058965D01*
X76357751Y-100746584D01*
X76542485Y-100425248D01*
X76730098Y-100099386D01*
X76918036Y-99773427D01*
X77103747Y-99451801D01*
X77284680Y-99138937D01*
X77458281Y-98839266D01*
X77621999Y-98557216D01*
X77773281Y-98297218D01*
X77909574Y-98063699D01*
X78028326Y-97861091D01*
X78126985Y-97693823D01*
X78202999Y-97566324D01*
X78253814Y-97483023D01*
X78276879Y-97448350D01*
X78277845Y-97447610D01*
X78296085Y-97473671D01*
G37*
X78296085Y-97473671D02*
X78342129Y-97548491D01*
X78413067Y-97667028D01*
X78505991Y-97824237D01*
X78617992Y-98015076D01*
X78746162Y-98234501D01*
X78887592Y-98477469D01*
X79039373Y-98738937D01*
X79198597Y-99013860D01*
X79362356Y-99297197D01*
X79527740Y-99583902D01*
X79691842Y-99868934D01*
X79851752Y-100147248D01*
X80004562Y-100413802D01*
X80147363Y-100663552D01*
X80277247Y-100891455D01*
X80391305Y-101092466D01*
X80486629Y-101261544D01*
X80560310Y-101393645D01*
X80609439Y-101483724D01*
X80631108Y-101526740D01*
X80631902Y-101529429D01*
X80605002Y-101565930D01*
X80530227Y-101621764D01*
X80416470Y-101691450D01*
X80272623Y-101769509D01*
X80122029Y-101843687D01*
X79917119Y-101933635D01*
X79701633Y-102014453D01*
X79468146Y-102087938D01*
X79209236Y-102155884D01*
X78917479Y-102220088D01*
X78585451Y-102282346D01*
X78205731Y-102344454D01*
X77812937Y-102402290D01*
X77471668Y-102453600D01*
X77185090Y-102504397D01*
X76946015Y-102557204D01*
X76747259Y-102614546D01*
X76581635Y-102678947D01*
X76441956Y-102752931D01*
X76321036Y-102839024D01*
X76211689Y-102939750D01*
X76176428Y-102977167D01*
X76100000Y-103064279D01*
X76043463Y-103135364D01*
X76017235Y-103177167D01*
X76016536Y-103180594D01*
X76007360Y-103201612D01*
X75975515Y-103201849D01*
X75914531Y-103178509D01*
X75817935Y-103128793D01*
X75679254Y-103049905D01*
X75582878Y-102993175D01*
X75439166Y-102904494D01*
X75327483Y-102828559D01*
X75255334Y-102770832D01*
X75230226Y-102736776D01*
X75230241Y-102736529D01*
X75245811Y-102704075D01*
X75289783Y-102622800D01*
X75359605Y-102497134D01*
X75452725Y-102331505D01*
X75566589Y-102130344D01*
X75698646Y-101898080D01*
X75846343Y-101639143D01*
X76007128Y-101357961D01*
X76178448Y-101058965D01*
X76357751Y-100746584D01*
X76542485Y-100425248D01*
X76730098Y-100099386D01*
X76918036Y-99773427D01*
X77103747Y-99451801D01*
X77284680Y-99138937D01*
X77458281Y-98839266D01*
X77621999Y-98557216D01*
X77773281Y-98297218D01*
X77909574Y-98063699D01*
X78028326Y-97861091D01*
X78126985Y-97693823D01*
X78202999Y-97566324D01*
X78253814Y-97483023D01*
X78276879Y-97448350D01*
X78277845Y-97447610D01*
X78296085Y-97473671D01*
D11*
X180220000Y-130505000D02*
X180220000Y-137305000D01*
X172820000Y-130505000D02*
X172820000Y-137305000D01*
X180220000Y-137305000D02*
X172820000Y-137305000D01*
X180220000Y-130505000D02*
X172820000Y-130505000D01*
D13*
X162860000Y-141120000D02*
G75*
G03X162860000Y-141120000I-4120000J0D01*
G01*
X162820000Y-141120000D02*
X154660000Y-141120000D01*
X162820000Y-141160000D02*
X154660000Y-141160000D01*
X162820000Y-141200000D02*
X154660000Y-141200000D01*
X162819000Y-141240000D02*
X154661000Y-141240000D01*
X162817000Y-141280000D02*
X154663000Y-141280000D01*
X162816000Y-141320000D02*
X154664000Y-141320000D01*
X162814000Y-141360000D02*
X154666000Y-141360000D01*
X162811000Y-141400000D02*
X154669000Y-141400000D01*
X162808000Y-141440000D02*
X154672000Y-141440000D01*
X162805000Y-141480000D02*
X154675000Y-141480000D01*
X162801000Y-141520000D02*
X154679000Y-141520000D01*
X162797000Y-141560000D02*
X154683000Y-141560000D01*
X162792000Y-141600000D02*
X154688000Y-141600000D01*
X162788000Y-141640000D02*
X154692000Y-141640000D01*
X162782000Y-141680000D02*
X154698000Y-141680000D01*
X162777000Y-141720000D02*
X154703000Y-141720000D01*
X162770000Y-141760000D02*
X154710000Y-141760000D01*
X162764000Y-141800000D02*
X154716000Y-141800000D01*
X162757000Y-141841000D02*
X159780000Y-141841000D01*
X157700000Y-141841000D02*
X154723000Y-141841000D01*
X162750000Y-141881000D02*
X159780000Y-141881000D01*
X157700000Y-141881000D02*
X154730000Y-141881000D01*
X162742000Y-141921000D02*
X159780000Y-141921000D01*
X157700000Y-141921000D02*
X154738000Y-141921000D01*
X162734000Y-141961000D02*
X159780000Y-141961000D01*
X157700000Y-141961000D02*
X154746000Y-141961000D01*
X162725000Y-142001000D02*
X159780000Y-142001000D01*
X157700000Y-142001000D02*
X154755000Y-142001000D01*
X162716000Y-142041000D02*
X159780000Y-142041000D01*
X157700000Y-142041000D02*
X154764000Y-142041000D01*
X162707000Y-142081000D02*
X159780000Y-142081000D01*
X157700000Y-142081000D02*
X154773000Y-142081000D01*
X162697000Y-142121000D02*
X159780000Y-142121000D01*
X157700000Y-142121000D02*
X154783000Y-142121000D01*
X162687000Y-142161000D02*
X159780000Y-142161000D01*
X157700000Y-142161000D02*
X154793000Y-142161000D01*
X162676000Y-142201000D02*
X159780000Y-142201000D01*
X157700000Y-142201000D02*
X154804000Y-142201000D01*
X162665000Y-142241000D02*
X159780000Y-142241000D01*
X157700000Y-142241000D02*
X154815000Y-142241000D01*
X162654000Y-142281000D02*
X159780000Y-142281000D01*
X157700000Y-142281000D02*
X154826000Y-142281000D01*
X162642000Y-142321000D02*
X159780000Y-142321000D01*
X157700000Y-142321000D02*
X154838000Y-142321000D01*
X162629000Y-142361000D02*
X159780000Y-142361000D01*
X157700000Y-142361000D02*
X154851000Y-142361000D01*
X162617000Y-142401000D02*
X159780000Y-142401000D01*
X157700000Y-142401000D02*
X154863000Y-142401000D01*
X162603000Y-142441000D02*
X159780000Y-142441000D01*
X157700000Y-142441000D02*
X154877000Y-142441000D01*
X162590000Y-142481000D02*
X159780000Y-142481000D01*
X157700000Y-142481000D02*
X154890000Y-142481000D01*
X162575000Y-142521000D02*
X159780000Y-142521000D01*
X157700000Y-142521000D02*
X154905000Y-142521000D01*
X162561000Y-142561000D02*
X159780000Y-142561000D01*
X157700000Y-142561000D02*
X154919000Y-142561000D01*
X162545000Y-142601000D02*
X159780000Y-142601000D01*
X157700000Y-142601000D02*
X154935000Y-142601000D01*
X162530000Y-142641000D02*
X159780000Y-142641000D01*
X157700000Y-142641000D02*
X154950000Y-142641000D01*
X162514000Y-142681000D02*
X159780000Y-142681000D01*
X157700000Y-142681000D02*
X154966000Y-142681000D01*
X162497000Y-142721000D02*
X159780000Y-142721000D01*
X157700000Y-142721000D02*
X154983000Y-142721000D01*
X162480000Y-142761000D02*
X159780000Y-142761000D01*
X157700000Y-142761000D02*
X155000000Y-142761000D01*
X162462000Y-142801000D02*
X159780000Y-142801000D01*
X157700000Y-142801000D02*
X155018000Y-142801000D01*
X162444000Y-142841000D02*
X159780000Y-142841000D01*
X157700000Y-142841000D02*
X155036000Y-142841000D01*
X162426000Y-142881000D02*
X159780000Y-142881000D01*
X157700000Y-142881000D02*
X155054000Y-142881000D01*
X162406000Y-142921000D02*
X159780000Y-142921000D01*
X157700000Y-142921000D02*
X155074000Y-142921000D01*
X162387000Y-142961000D02*
X159780000Y-142961000D01*
X157700000Y-142961000D02*
X155093000Y-142961000D01*
X162367000Y-143001000D02*
X159780000Y-143001000D01*
X157700000Y-143001000D02*
X155113000Y-143001000D01*
X162346000Y-143041000D02*
X159780000Y-143041000D01*
X157700000Y-143041000D02*
X155134000Y-143041000D01*
X162324000Y-143081000D02*
X159780000Y-143081000D01*
X157700000Y-143081000D02*
X155156000Y-143081000D01*
X162302000Y-143121000D02*
X159780000Y-143121000D01*
X157700000Y-143121000D02*
X155178000Y-143121000D01*
X162280000Y-143161000D02*
X159780000Y-143161000D01*
X157700000Y-143161000D02*
X155200000Y-143161000D01*
X162257000Y-143201000D02*
X159780000Y-143201000D01*
X157700000Y-143201000D02*
X155223000Y-143201000D01*
X162233000Y-143241000D02*
X159780000Y-143241000D01*
X157700000Y-143241000D02*
X155247000Y-143241000D01*
X162209000Y-143281000D02*
X159780000Y-143281000D01*
X157700000Y-143281000D02*
X155271000Y-143281000D01*
X162184000Y-143321000D02*
X159780000Y-143321000D01*
X157700000Y-143321000D02*
X155296000Y-143321000D01*
X162158000Y-143361000D02*
X159780000Y-143361000D01*
X157700000Y-143361000D02*
X155322000Y-143361000D01*
X162132000Y-143401000D02*
X159780000Y-143401000D01*
X157700000Y-143401000D02*
X155348000Y-143401000D01*
X162105000Y-143441000D02*
X159780000Y-143441000D01*
X157700000Y-143441000D02*
X155375000Y-143441000D01*
X162078000Y-143481000D02*
X159780000Y-143481000D01*
X157700000Y-143481000D02*
X155402000Y-143481000D01*
X162049000Y-143521000D02*
X159780000Y-143521000D01*
X157700000Y-143521000D02*
X155431000Y-143521000D01*
X162020000Y-143561000D02*
X159780000Y-143561000D01*
X157700000Y-143561000D02*
X155460000Y-143561000D01*
X161990000Y-143601000D02*
X159780000Y-143601000D01*
X157700000Y-143601000D02*
X155490000Y-143601000D01*
X161960000Y-143641000D02*
X159780000Y-143641000D01*
X157700000Y-143641000D02*
X155520000Y-143641000D01*
X161929000Y-143681000D02*
X159780000Y-143681000D01*
X157700000Y-143681000D02*
X155551000Y-143681000D01*
X161896000Y-143721000D02*
X159780000Y-143721000D01*
X157700000Y-143721000D02*
X155584000Y-143721000D01*
X161864000Y-143761000D02*
X159780000Y-143761000D01*
X157700000Y-143761000D02*
X155616000Y-143761000D01*
X161830000Y-143801000D02*
X159780000Y-143801000D01*
X157700000Y-143801000D02*
X155650000Y-143801000D01*
X161795000Y-143841000D02*
X159780000Y-143841000D01*
X157700000Y-143841000D02*
X155685000Y-143841000D01*
X161759000Y-143881000D02*
X159780000Y-143881000D01*
X157700000Y-143881000D02*
X155721000Y-143881000D01*
X161723000Y-143921000D02*
X155757000Y-143921000D01*
X161685000Y-143961000D02*
X155795000Y-143961000D01*
X161647000Y-144001000D02*
X155833000Y-144001000D01*
X161607000Y-144041000D02*
X155873000Y-144041000D01*
X161566000Y-144081000D02*
X155914000Y-144081000D01*
X161524000Y-144121000D02*
X155956000Y-144121000D01*
X161481000Y-144161000D02*
X155999000Y-144161000D01*
X161437000Y-144201000D02*
X156043000Y-144201000D01*
X161391000Y-144241000D02*
X156089000Y-144241000D01*
X161344000Y-144281000D02*
X156136000Y-144281000D01*
X161296000Y-144321000D02*
X156184000Y-144321000D01*
X161245000Y-144361000D02*
X156235000Y-144361000D01*
X161194000Y-144401000D02*
X156286000Y-144401000D01*
X161140000Y-144441000D02*
X156340000Y-144441000D01*
X161085000Y-144481000D02*
X156395000Y-144481000D01*
X161027000Y-144521000D02*
X156453000Y-144521000D01*
X160968000Y-144561000D02*
X156512000Y-144561000D01*
X160906000Y-144601000D02*
X156574000Y-144601000D01*
X160842000Y-144641000D02*
X156638000Y-144641000D01*
X160774000Y-144681000D02*
X156706000Y-144681000D01*
X160704000Y-144721000D02*
X156776000Y-144721000D01*
X160630000Y-144761000D02*
X156850000Y-144761000D01*
X160553000Y-144801000D02*
X156927000Y-144801000D01*
X160471000Y-144841000D02*
X157009000Y-144841000D01*
X160385000Y-144881000D02*
X157095000Y-144881000D01*
X160292000Y-144921000D02*
X157188000Y-144921000D01*
X160193000Y-144961000D02*
X157287000Y-144961000D01*
X160086000Y-145001000D02*
X157394000Y-145001000D01*
X159969000Y-145041000D02*
X157511000Y-145041000D01*
X159838000Y-145081000D02*
X157642000Y-145081000D01*
X159688000Y-145121000D02*
X157792000Y-145121000D01*
X159508000Y-145161000D02*
X157972000Y-145161000D01*
X159273000Y-145201000D02*
X158207000Y-145201000D01*
X161055000Y-136710302D02*
X161055000Y-137510302D01*
X161455000Y-137110302D02*
X160655000Y-137110302D01*
X219400000Y-58680000D02*
X219700000Y-59280000D01*
X220000000Y-58680000D02*
X219400000Y-58680000D01*
X219700000Y-59280000D02*
X220000000Y-58680000D01*
D10*
X219640000Y-147100000D02*
X224740000Y-147100000D01*
X219640000Y-141900000D02*
X219640000Y-147100000D01*
X220140000Y-141900000D02*
X219640000Y-141900000D01*
X219640000Y-52900000D02*
X224740000Y-52900000D01*
X219640000Y-58100000D02*
X219640000Y-52900000D01*
X220140000Y-58100000D02*
X219640000Y-58100000D01*
D13*
X88470000Y-67734000D02*
X88470000Y-66734000D01*
X86770000Y-66734000D02*
X86770000Y-67734000D01*
X181608000Y-105676000D02*
X182608000Y-105676000D01*
X182608000Y-103976000D02*
X181608000Y-103976000D01*
X182116000Y-74688000D02*
X183116000Y-74688000D01*
X183116000Y-72988000D02*
X182116000Y-72988000D01*
X193450000Y-108898000D02*
X193450000Y-109898000D01*
X195150000Y-109898000D02*
X195150000Y-108898000D01*
X195658000Y-78402000D02*
X195658000Y-77402000D01*
X193958000Y-77402000D02*
X193958000Y-78402000D01*
X190264000Y-107200000D02*
X191264000Y-107200000D01*
X191264000Y-105500000D02*
X190264000Y-105500000D01*
X191244000Y-74004000D02*
X190244000Y-74004000D01*
X190244000Y-75704000D02*
X191244000Y-75704000D01*
X181434000Y-109898000D02*
X181434000Y-108898000D01*
X179734000Y-108898000D02*
X179734000Y-109898000D01*
X184482000Y-78402000D02*
X184482000Y-77402000D01*
X182782000Y-77402000D02*
X182782000Y-78402000D01*
X182274000Y-108898000D02*
X182274000Y-109898000D01*
X183974000Y-109898000D02*
X183974000Y-108898000D01*
X180242000Y-77402000D02*
X180242000Y-78402000D01*
X181942000Y-78402000D02*
X181942000Y-77402000D01*
X188370000Y-118042000D02*
X188370000Y-119042000D01*
X190070000Y-119042000D02*
X190070000Y-118042000D01*
X190578000Y-87546000D02*
X190578000Y-86546000D01*
X188878000Y-86546000D02*
X188878000Y-87546000D01*
X161462000Y-70624000D02*
X162462000Y-70624000D01*
X162462000Y-68924000D02*
X161462000Y-68924000D01*
X162462000Y-66892000D02*
X161462000Y-66892000D01*
X161462000Y-68592000D02*
X162462000Y-68592000D01*
X166876000Y-91970000D02*
X167876000Y-91970000D01*
X167876000Y-90270000D02*
X166876000Y-90270000D01*
X181542000Y-96024000D02*
X182542000Y-96024000D01*
X182542000Y-94324000D02*
X181542000Y-94324000D01*
X158398000Y-56340000D02*
X158398000Y-57340000D01*
X160098000Y-57340000D02*
X160098000Y-56340000D01*
X175222000Y-87212000D02*
X174222000Y-87212000D01*
X174222000Y-88912000D02*
X175222000Y-88912000D01*
X166876000Y-96014000D02*
X167876000Y-96014000D01*
X167876000Y-94314000D02*
X166876000Y-94314000D01*
X181542000Y-100088000D02*
X182542000Y-100088000D01*
X182542000Y-98388000D02*
X181542000Y-98388000D01*
X162130000Y-57300000D02*
X162130000Y-56300000D01*
X160430000Y-56300000D02*
X160430000Y-57300000D01*
X161522000Y-76720000D02*
X162522000Y-76720000D01*
X162522000Y-75020000D02*
X161522000Y-75020000D01*
X161522000Y-78752000D02*
X162522000Y-78752000D01*
X162522000Y-77052000D02*
X161522000Y-77052000D01*
X189780000Y-135280000D02*
X189780000Y-126880000D01*
X196280000Y-135280000D02*
X196280000Y-126880000D01*
X196280000Y-135280000D02*
X189780000Y-135280000D01*
X214060000Y-64160000D02*
X207560000Y-64160000D01*
X214060000Y-64160000D02*
X214060000Y-55760000D01*
X207560000Y-64160000D02*
X207560000Y-55760000D01*
X199940000Y-67970000D02*
X199940000Y-59570000D01*
X206440000Y-67970000D02*
X206440000Y-59570000D01*
X206440000Y-67970000D02*
X199940000Y-67970000D01*
X77750000Y-68694000D02*
X77750000Y-68538000D01*
X77750000Y-71010000D02*
X77750000Y-70854000D01*
X75148870Y-68694163D02*
G75*
G02X77230961Y-68694000I1041130J-1079837D01*
G01*
X75148870Y-70853837D02*
G75*
G03X77230961Y-70854000I1041130J1079837D01*
G01*
X74517665Y-68695392D02*
G75*
G02X77750000Y-68538484I1672335J-1078608D01*
G01*
X74517665Y-70852608D02*
G75*
G03X77750000Y-71009516I1672335J1078608D01*
G01*
X77750000Y-73774000D02*
X77750000Y-73618000D01*
X77750000Y-76090000D02*
X77750000Y-75934000D01*
X75148870Y-73774163D02*
G75*
G02X77230961Y-73774000I1041130J-1079837D01*
G01*
X75148870Y-75933837D02*
G75*
G03X77230961Y-75934000I1041130J1079837D01*
G01*
X74517665Y-73775392D02*
G75*
G02X77750000Y-73618484I1672335J-1078608D01*
G01*
X74517665Y-75932608D02*
G75*
G03X77750000Y-76089516I1672335J1078608D01*
G01*
X74517665Y-81012608D02*
G75*
G03X77750000Y-81169516I1672335J1078608D01*
G01*
X74517665Y-78855392D02*
G75*
G02X77750000Y-78698484I1672335J-1078608D01*
G01*
X75148870Y-81013837D02*
G75*
G03X77230961Y-81014000I1041130J1079837D01*
G01*
X75148870Y-78854163D02*
G75*
G02X77230961Y-78854000I1041130J-1079837D01*
G01*
X77750000Y-81170000D02*
X77750000Y-81014000D01*
X77750000Y-78854000D02*
X77750000Y-78698000D01*
X182420000Y-145160000D02*
X182420000Y-138660000D01*
X182420000Y-145160000D02*
X193620000Y-145160000D01*
X182420000Y-138660000D02*
X193620000Y-138660000D01*
X180190000Y-145160000D02*
X168990000Y-145160000D01*
X180190000Y-138660000D02*
X168990000Y-138660000D01*
X180190000Y-138660000D02*
X180190000Y-145160000D01*
X183630000Y-55800000D02*
X183630000Y-62920000D01*
X189730000Y-55800000D02*
X189730000Y-62920000D01*
X198620000Y-59610000D02*
X198620000Y-66730000D01*
X192520000Y-59610000D02*
X192520000Y-66730000D01*
X182360000Y-127030000D02*
X182360000Y-134150000D01*
X188460000Y-127030000D02*
X188460000Y-134150000D01*
D11*
X99000000Y-127000000D02*
X99000000Y-73000000D01*
X151000000Y-127000000D02*
X151000000Y-73000000D01*
X99000000Y-56500000D02*
X151000000Y-56500000D01*
X99000000Y-143500000D02*
X151000000Y-143500000D01*
X95000000Y-73000000D02*
G75*
G02X95000000Y-67000000I0J3000000D01*
G01*
X95000000Y-67000000D02*
X99000000Y-67000000D01*
X95000000Y-73000000D02*
X99000000Y-73000000D01*
X99000000Y-67000000D02*
X99000000Y-56500000D01*
X95000000Y-133000000D02*
X99000000Y-133000000D01*
X95000000Y-127000000D02*
X99000000Y-127000000D01*
X95000000Y-133000000D02*
G75*
G02X95000000Y-127000000I0J3000000D01*
G01*
X99000000Y-133000000D02*
X99000000Y-143500000D01*
X155000000Y-67000000D02*
X151000000Y-67000000D01*
X155000000Y-73000000D02*
X151000000Y-73000000D01*
X155000000Y-67000000D02*
G75*
G02X155000000Y-73000000I0J-3000000D01*
G01*
X151000000Y-67000000D02*
X151000000Y-56500000D01*
X155000000Y-127000000D02*
X151000000Y-127000000D01*
X155000000Y-133000000D02*
X151000000Y-133000000D01*
X155000000Y-127000000D02*
G75*
G02X155000000Y-133000000I0J-3000000D01*
G01*
X151000000Y-143500000D02*
X151000000Y-133000000D01*
D13*
X202266000Y-69910000D02*
X203466000Y-69910000D01*
X203466000Y-71670000D02*
X202266000Y-71670000D01*
X211330000Y-71670000D02*
X210130000Y-71670000D01*
X210130000Y-69910000D02*
X211330000Y-69910000D01*
X203466000Y-74210000D02*
X202266000Y-74210000D01*
X202266000Y-72450000D02*
X203466000Y-72450000D01*
X211330000Y-74210000D02*
X210130000Y-74210000D01*
X210130000Y-72450000D02*
X211330000Y-72450000D01*
X202266000Y-74990000D02*
X203466000Y-74990000D01*
X203466000Y-76750000D02*
X202266000Y-76750000D01*
X210130000Y-74990000D02*
X211330000Y-74990000D01*
X211330000Y-76750000D02*
X210130000Y-76750000D01*
X202266000Y-77530000D02*
X203466000Y-77530000D01*
X203466000Y-79290000D02*
X202266000Y-79290000D01*
X210130000Y-77530000D02*
X211330000Y-77530000D01*
X211330000Y-79290000D02*
X210130000Y-79290000D01*
X202266000Y-80070000D02*
X203466000Y-80070000D01*
X203466000Y-81830000D02*
X202266000Y-81830000D01*
X211330000Y-81830000D02*
X210130000Y-81830000D01*
X210130000Y-80070000D02*
X211330000Y-80070000D01*
X203466000Y-84370000D02*
X202266000Y-84370000D01*
X202266000Y-82610000D02*
X203466000Y-82610000D01*
X210130000Y-82610000D02*
X211330000Y-82610000D01*
X211330000Y-84370000D02*
X210130000Y-84370000D01*
X203466000Y-86910000D02*
X202266000Y-86910000D01*
X202266000Y-85150000D02*
X203466000Y-85150000D01*
X211330000Y-86910000D02*
X210130000Y-86910000D01*
X210130000Y-85150000D02*
X211330000Y-85150000D01*
X203466000Y-89450000D02*
X202266000Y-89450000D01*
X202266000Y-87690000D02*
X203466000Y-87690000D01*
X210130000Y-87690000D02*
X211330000Y-87690000D01*
X211330000Y-89450000D02*
X210130000Y-89450000D01*
X203466000Y-91990000D02*
X202266000Y-91990000D01*
X202266000Y-90230000D02*
X203466000Y-90230000D01*
X210130000Y-90230000D02*
X211330000Y-90230000D01*
X211330000Y-91990000D02*
X210130000Y-91990000D01*
X202266000Y-92770000D02*
X203466000Y-92770000D01*
X203466000Y-94530000D02*
X202266000Y-94530000D01*
X210130000Y-92770000D02*
X211330000Y-92770000D01*
X211330000Y-94530000D02*
X210130000Y-94530000D01*
X202266000Y-95310000D02*
X203466000Y-95310000D01*
X203466000Y-97070000D02*
X202266000Y-97070000D01*
X211330000Y-97070000D02*
X210130000Y-97070000D01*
X210130000Y-95310000D02*
X211330000Y-95310000D01*
X202266000Y-97850000D02*
X203466000Y-97850000D01*
X203466000Y-99610000D02*
X202266000Y-99610000D01*
X211330000Y-99610000D02*
X210130000Y-99610000D01*
X210130000Y-97850000D02*
X211330000Y-97850000D01*
X202266000Y-100390000D02*
X203466000Y-100390000D01*
X203466000Y-102150000D02*
X202266000Y-102150000D01*
X210130000Y-100390000D02*
X211330000Y-100390000D01*
X211330000Y-102150000D02*
X210130000Y-102150000D01*
X203466000Y-104690000D02*
X202266000Y-104690000D01*
X202266000Y-102930000D02*
X203466000Y-102930000D01*
X211330000Y-104690000D02*
X210130000Y-104690000D01*
X210130000Y-102930000D02*
X211330000Y-102930000D01*
X202266000Y-105470000D02*
X203466000Y-105470000D01*
X203466000Y-107230000D02*
X202266000Y-107230000D01*
X211330000Y-107230000D02*
X210130000Y-107230000D01*
X210130000Y-105470000D02*
X211330000Y-105470000D01*
X202266000Y-108010000D02*
X203466000Y-108010000D01*
X203466000Y-109770000D02*
X202266000Y-109770000D01*
X210130000Y-108010000D02*
X211330000Y-108010000D01*
X211330000Y-109770000D02*
X210130000Y-109770000D01*
X203466000Y-112310000D02*
X202266000Y-112310000D01*
X202266000Y-110550000D02*
X203466000Y-110550000D01*
X210130000Y-110550000D02*
X211330000Y-110550000D01*
X211330000Y-112310000D02*
X210130000Y-112310000D01*
X203466000Y-114850000D02*
X202266000Y-114850000D01*
X202266000Y-113090000D02*
X203466000Y-113090000D01*
X210130000Y-113090000D02*
X211330000Y-113090000D01*
X211330000Y-114850000D02*
X210130000Y-114850000D01*
X203466000Y-117390000D02*
X202266000Y-117390000D01*
X202266000Y-115630000D02*
X203466000Y-115630000D01*
X195180000Y-114386000D02*
X195180000Y-115586000D01*
X193420000Y-115586000D02*
X193420000Y-114386000D01*
X192640000Y-114386000D02*
X192640000Y-115586000D01*
X190880000Y-115586000D02*
X190880000Y-114386000D01*
X195688000Y-83398000D02*
X195688000Y-84598000D01*
X193928000Y-84598000D02*
X193928000Y-83398000D01*
X193148000Y-83398000D02*
X193148000Y-84598000D01*
X191388000Y-84598000D02*
X191388000Y-83398000D01*
X162562000Y-74718000D02*
X161362000Y-74718000D01*
X161362000Y-72958000D02*
X162562000Y-72958000D01*
X68558000Y-68894000D02*
X69758000Y-68894000D01*
X69758000Y-70654000D02*
X68558000Y-70654000D01*
X69758000Y-75734000D02*
X68558000Y-75734000D01*
X68558000Y-73974000D02*
X69758000Y-73974000D01*
X68558000Y-79054000D02*
X69758000Y-79054000D01*
X69758000Y-80814000D02*
X68558000Y-80814000D01*
X161362000Y-70926000D02*
X162562000Y-70926000D01*
X162562000Y-72686000D02*
X161362000Y-72686000D01*
X167976000Y-87926000D02*
X166776000Y-87926000D01*
X166776000Y-86166000D02*
X167976000Y-86166000D01*
X167976000Y-89978000D02*
X166776000Y-89978000D01*
X166776000Y-88218000D02*
X167976000Y-88218000D01*
X189006000Y-98086000D02*
X187806000Y-98086000D01*
X187806000Y-96326000D02*
X189006000Y-96326000D01*
X187806000Y-98358000D02*
X189006000Y-98358000D01*
X189006000Y-100118000D02*
X187806000Y-100118000D01*
X156064000Y-56200000D02*
X156064000Y-57400000D01*
X154304000Y-57400000D02*
X154304000Y-56200000D01*
X158096000Y-56200000D02*
X158096000Y-57400000D01*
X156336000Y-57400000D02*
X156336000Y-56200000D01*
X167976000Y-94022000D02*
X166776000Y-94022000D01*
X166776000Y-92262000D02*
X167976000Y-92262000D01*
X182642000Y-98086000D02*
X181442000Y-98086000D01*
X181442000Y-96326000D02*
X182642000Y-96326000D01*
X166224000Y-56200000D02*
X166224000Y-57400000D01*
X164464000Y-57400000D02*
X164464000Y-56200000D01*
X164192000Y-56200000D02*
X164192000Y-57400000D01*
X162432000Y-57400000D02*
X162432000Y-56200000D01*
X167976000Y-98066000D02*
X166776000Y-98066000D01*
X166776000Y-96306000D02*
X167976000Y-96306000D01*
X167976000Y-100118000D02*
X166776000Y-100118000D01*
X166776000Y-98358000D02*
X167976000Y-98358000D01*
X175322000Y-100118000D02*
X174122000Y-100118000D01*
X174122000Y-98358000D02*
X175322000Y-98358000D01*
X175322000Y-98086000D02*
X174122000Y-98086000D01*
X174122000Y-96326000D02*
X175322000Y-96326000D01*
X162622000Y-80814000D02*
X161422000Y-80814000D01*
X161422000Y-79054000D02*
X162622000Y-79054000D01*
X162622000Y-82846000D02*
X161422000Y-82846000D01*
X161422000Y-81086000D02*
X162622000Y-81086000D01*
D10*
X76226000Y-141676000D02*
X76226000Y-145576000D01*
X88226000Y-141676000D02*
X88226000Y-145576000D01*
X76226000Y-141676000D02*
X88226000Y-141676000D01*
X76226000Y-145576000D02*
X88226000Y-145576000D01*
X82497000Y-69921000D02*
X81122000Y-69921000D01*
X82497000Y-78796000D02*
X86647000Y-78796000D01*
X82497000Y-69896000D02*
X86647000Y-69896000D01*
X82497000Y-78796000D02*
X82497000Y-78681000D01*
X86647000Y-78796000D02*
X86647000Y-78681000D01*
X86647000Y-69896000D02*
X86647000Y-70011000D01*
X82497000Y-69896000D02*
X82497000Y-69921000D01*
D13*
X188828000Y-111008000D02*
X190628000Y-111008000D01*
X190628000Y-107788000D02*
X187678000Y-107788000D01*
X191136000Y-76292000D02*
X188186000Y-76292000D01*
X189336000Y-79512000D02*
X191136000Y-79512000D01*
D10*
X172647000Y-90059000D02*
X172647000Y-90109000D01*
X176797000Y-90059000D02*
X176797000Y-90204000D01*
X176797000Y-95209000D02*
X176797000Y-95064000D01*
X172647000Y-95209000D02*
X172647000Y-95064000D01*
X172647000Y-90059000D02*
X176797000Y-90059000D01*
X172647000Y-95209000D02*
X176797000Y-95209000D01*
X172647000Y-90109000D02*
X171247000Y-90109000D01*
X164037000Y-65695000D02*
X165437000Y-65695000D01*
X164037000Y-60595000D02*
X159887000Y-60595000D01*
X164037000Y-65745000D02*
X159887000Y-65745000D01*
X164037000Y-60595000D02*
X164037000Y-60740000D01*
X159887000Y-60595000D02*
X159887000Y-60740000D01*
X159887000Y-65745000D02*
X159887000Y-65600000D01*
X164037000Y-65745000D02*
X164037000Y-65695000D01*
D11*
X165548000Y-102398000D02*
X178348000Y-102398000D01*
X178348000Y-116398000D02*
X165548000Y-116398000D01*
X165548000Y-102398000D02*
X165548000Y-116398000D01*
X178348000Y-102398000D02*
X178348000Y-116398000D01*
X178856000Y-70940000D02*
X178856000Y-84940000D01*
X166056000Y-70940000D02*
X166056000Y-84940000D01*
X178856000Y-84940000D02*
X166056000Y-84940000D01*
X166056000Y-70940000D02*
X178856000Y-70940000D01*
X186824000Y-115142000D02*
X179424000Y-115142000D01*
X186824000Y-121942000D02*
X179424000Y-121942000D01*
X179424000Y-115142000D02*
X179424000Y-121942000D01*
X186824000Y-115142000D02*
X186824000Y-121942000D01*
X187332000Y-83646000D02*
X187332000Y-90446000D01*
X179932000Y-83646000D02*
X179932000Y-90446000D01*
X187332000Y-90446000D02*
X179932000Y-90446000D01*
X187332000Y-83646000D02*
X179932000Y-83646000D01*
D13*
X70914000Y-66066000D02*
X74374000Y-66066000D01*
X70914000Y-62306000D02*
X74374000Y-62306000D01*
X155964000Y-79370000D02*
X157424000Y-79370000D01*
X155964000Y-82530000D02*
X158124000Y-82530000D01*
X155964000Y-82530000D02*
X155964000Y-81600000D01*
X155964000Y-79370000D02*
X155964000Y-80300000D01*
X81974436Y-57238000D02*
X83178564Y-57238000D01*
X81974436Y-59958000D02*
X83178564Y-59958000D01*
X81974436Y-60794000D02*
X83178564Y-60794000D01*
X81974436Y-63514000D02*
X83178564Y-63514000D01*
X81974436Y-67070000D02*
X83178564Y-67070000D01*
X81974436Y-64350000D02*
X83178564Y-64350000D01*
X76230000Y-132940000D02*
X76230000Y-122940000D01*
X76230000Y-122940000D02*
X81230000Y-122940000D01*
X81230000Y-122940000D02*
X81230000Y-132940000D01*
X81230000Y-132940000D02*
X76230000Y-132940000D01*
X88850000Y-132940000D02*
X83850000Y-132940000D01*
X88850000Y-122940000D02*
X88850000Y-132940000D01*
X83850000Y-122940000D02*
X88850000Y-122940000D01*
X83850000Y-132940000D02*
X83850000Y-122940000D01*
X73610000Y-122940000D02*
X73610000Y-132940000D01*
X73610000Y-132940000D02*
X68610000Y-132940000D01*
X68610000Y-132940000D02*
X68610000Y-122940000D01*
X68610000Y-122940000D02*
X73610000Y-122940000D01*
X81974436Y-53682000D02*
X83178564Y-53682000D01*
X81974436Y-56402000D02*
X83178564Y-56402000D01*
D10*
X88226000Y-140730000D02*
X88226000Y-135330000D01*
X76226000Y-140730000D02*
X76226000Y-135330000D01*
X88226000Y-140730000D02*
X76226000Y-140730000D01*
X88226000Y-135330000D02*
X76226000Y-135330000D01*
D13*
X161507698Y-123289000D02*
X161507698Y-122489000D01*
X161907698Y-122889000D02*
X161107698Y-122889000D01*
X153417000Y-121107000D02*
X153417000Y-120041000D01*
X153457000Y-121342000D02*
X153457000Y-119806000D01*
X153497000Y-121522000D02*
X153497000Y-119626000D01*
X153537000Y-121672000D02*
X153537000Y-119476000D01*
X153577000Y-121803000D02*
X153577000Y-119345000D01*
X153617000Y-121920000D02*
X153617000Y-119228000D01*
X153657000Y-122027000D02*
X153657000Y-119121000D01*
X153697000Y-122126000D02*
X153697000Y-119022000D01*
X153737000Y-122219000D02*
X153737000Y-118929000D01*
X153777000Y-122305000D02*
X153777000Y-118843000D01*
X153817000Y-122387000D02*
X153817000Y-118761000D01*
X153857000Y-122464000D02*
X153857000Y-118684000D01*
X153897000Y-122538000D02*
X153897000Y-118610000D01*
X153937000Y-122608000D02*
X153937000Y-118540000D01*
X153977000Y-122676000D02*
X153977000Y-118472000D01*
X154017000Y-122740000D02*
X154017000Y-118408000D01*
X154057000Y-122802000D02*
X154057000Y-118346000D01*
X154097000Y-122861000D02*
X154097000Y-118287000D01*
X154137000Y-122919000D02*
X154137000Y-118229000D01*
X154177000Y-122974000D02*
X154177000Y-118174000D01*
X154217000Y-123028000D02*
X154217000Y-118120000D01*
X154257000Y-123079000D02*
X154257000Y-118069000D01*
X154297000Y-123130000D02*
X154297000Y-118018000D01*
X154337000Y-123178000D02*
X154337000Y-117970000D01*
X154377000Y-123225000D02*
X154377000Y-117923000D01*
X154417000Y-123271000D02*
X154417000Y-117877000D01*
X154457000Y-123315000D02*
X154457000Y-117833000D01*
X154497000Y-123358000D02*
X154497000Y-117790000D01*
X154537000Y-123400000D02*
X154537000Y-117748000D01*
X154577000Y-123441000D02*
X154577000Y-117707000D01*
X154617000Y-123481000D02*
X154617000Y-117667000D01*
X154657000Y-123519000D02*
X154657000Y-117629000D01*
X154697000Y-123557000D02*
X154697000Y-117591000D01*
X154737000Y-119534000D02*
X154737000Y-117555000D01*
X154737000Y-123593000D02*
X154737000Y-121614000D01*
X154777000Y-119534000D02*
X154777000Y-117519000D01*
X154777000Y-123629000D02*
X154777000Y-121614000D01*
X154817000Y-119534000D02*
X154817000Y-117484000D01*
X154817000Y-123664000D02*
X154817000Y-121614000D01*
X154857000Y-119534000D02*
X154857000Y-117450000D01*
X154857000Y-123698000D02*
X154857000Y-121614000D01*
X154897000Y-119534000D02*
X154897000Y-117418000D01*
X154897000Y-123730000D02*
X154897000Y-121614000D01*
X154937000Y-119534000D02*
X154937000Y-117385000D01*
X154937000Y-123763000D02*
X154937000Y-121614000D01*
X154977000Y-119534000D02*
X154977000Y-117354000D01*
X154977000Y-123794000D02*
X154977000Y-121614000D01*
X155017000Y-119534000D02*
X155017000Y-117324000D01*
X155017000Y-123824000D02*
X155017000Y-121614000D01*
X155057000Y-119534000D02*
X155057000Y-117294000D01*
X155057000Y-123854000D02*
X155057000Y-121614000D01*
X155097000Y-119534000D02*
X155097000Y-117265000D01*
X155097000Y-123883000D02*
X155097000Y-121614000D01*
X155137000Y-119534000D02*
X155137000Y-117236000D01*
X155137000Y-123912000D02*
X155137000Y-121614000D01*
X155177000Y-119534000D02*
X155177000Y-117209000D01*
X155177000Y-123939000D02*
X155177000Y-121614000D01*
X155217000Y-119534000D02*
X155217000Y-117182000D01*
X155217000Y-123966000D02*
X155217000Y-121614000D01*
X155257000Y-119534000D02*
X155257000Y-117156000D01*
X155257000Y-123992000D02*
X155257000Y-121614000D01*
X155297000Y-119534000D02*
X155297000Y-117130000D01*
X155297000Y-124018000D02*
X155297000Y-121614000D01*
X155337000Y-119534000D02*
X155337000Y-117105000D01*
X155337000Y-124043000D02*
X155337000Y-121614000D01*
X155377000Y-119534000D02*
X155377000Y-117081000D01*
X155377000Y-124067000D02*
X155377000Y-121614000D01*
X155417000Y-119534000D02*
X155417000Y-117057000D01*
X155417000Y-124091000D02*
X155417000Y-121614000D01*
X155457000Y-119534000D02*
X155457000Y-117034000D01*
X155457000Y-124114000D02*
X155457000Y-121614000D01*
X155497000Y-119534000D02*
X155497000Y-117012000D01*
X155497000Y-124136000D02*
X155497000Y-121614000D01*
X155537000Y-119534000D02*
X155537000Y-116990000D01*
X155537000Y-124158000D02*
X155537000Y-121614000D01*
X155577000Y-119534000D02*
X155577000Y-116968000D01*
X155577000Y-124180000D02*
X155577000Y-121614000D01*
X155617000Y-119534000D02*
X155617000Y-116947000D01*
X155617000Y-124201000D02*
X155617000Y-121614000D01*
X155657000Y-119534000D02*
X155657000Y-116927000D01*
X155657000Y-124221000D02*
X155657000Y-121614000D01*
X155697000Y-119534000D02*
X155697000Y-116908000D01*
X155697000Y-124240000D02*
X155697000Y-121614000D01*
X155737000Y-119534000D02*
X155737000Y-116888000D01*
X155737000Y-124260000D02*
X155737000Y-121614000D01*
X155777000Y-119534000D02*
X155777000Y-116870000D01*
X155777000Y-124278000D02*
X155777000Y-121614000D01*
X155817000Y-119534000D02*
X155817000Y-116852000D01*
X155817000Y-124296000D02*
X155817000Y-121614000D01*
X155857000Y-119534000D02*
X155857000Y-116834000D01*
X155857000Y-124314000D02*
X155857000Y-121614000D01*
X155897000Y-119534000D02*
X155897000Y-116817000D01*
X155897000Y-124331000D02*
X155897000Y-121614000D01*
X155937000Y-119534000D02*
X155937000Y-116800000D01*
X155937000Y-124348000D02*
X155937000Y-121614000D01*
X155977000Y-119534000D02*
X155977000Y-116784000D01*
X155977000Y-124364000D02*
X155977000Y-121614000D01*
X156017000Y-119534000D02*
X156017000Y-116769000D01*
X156017000Y-124379000D02*
X156017000Y-121614000D01*
X156057000Y-119534000D02*
X156057000Y-116753000D01*
X156057000Y-124395000D02*
X156057000Y-121614000D01*
X156097000Y-119534000D02*
X156097000Y-116739000D01*
X156097000Y-124409000D02*
X156097000Y-121614000D01*
X156137000Y-119534000D02*
X156137000Y-116724000D01*
X156137000Y-124424000D02*
X156137000Y-121614000D01*
X156177000Y-119534000D02*
X156177000Y-116711000D01*
X156177000Y-124437000D02*
X156177000Y-121614000D01*
X156217000Y-119534000D02*
X156217000Y-116697000D01*
X156217000Y-124451000D02*
X156217000Y-121614000D01*
X156257000Y-119534000D02*
X156257000Y-116685000D01*
X156257000Y-124463000D02*
X156257000Y-121614000D01*
X156297000Y-119534000D02*
X156297000Y-116672000D01*
X156297000Y-124476000D02*
X156297000Y-121614000D01*
X156337000Y-119534000D02*
X156337000Y-116660000D01*
X156337000Y-124488000D02*
X156337000Y-121614000D01*
X156377000Y-119534000D02*
X156377000Y-116649000D01*
X156377000Y-124499000D02*
X156377000Y-121614000D01*
X156417000Y-119534000D02*
X156417000Y-116638000D01*
X156417000Y-124510000D02*
X156417000Y-121614000D01*
X156457000Y-119534000D02*
X156457000Y-116627000D01*
X156457000Y-124521000D02*
X156457000Y-121614000D01*
X156497000Y-119534000D02*
X156497000Y-116617000D01*
X156497000Y-124531000D02*
X156497000Y-121614000D01*
X156537000Y-119534000D02*
X156537000Y-116607000D01*
X156537000Y-124541000D02*
X156537000Y-121614000D01*
X156577000Y-119534000D02*
X156577000Y-116598000D01*
X156577000Y-124550000D02*
X156577000Y-121614000D01*
X156617000Y-119534000D02*
X156617000Y-116589000D01*
X156617000Y-124559000D02*
X156617000Y-121614000D01*
X156657000Y-119534000D02*
X156657000Y-116580000D01*
X156657000Y-124568000D02*
X156657000Y-121614000D01*
X156697000Y-119534000D02*
X156697000Y-116572000D01*
X156697000Y-124576000D02*
X156697000Y-121614000D01*
X156737000Y-119534000D02*
X156737000Y-116564000D01*
X156737000Y-124584000D02*
X156737000Y-121614000D01*
X156777000Y-119534000D02*
X156777000Y-116557000D01*
X156777000Y-124591000D02*
X156777000Y-121614000D01*
X156818000Y-124598000D02*
X156818000Y-116550000D01*
X156858000Y-124604000D02*
X156858000Y-116544000D01*
X156898000Y-124611000D02*
X156898000Y-116537000D01*
X156938000Y-124616000D02*
X156938000Y-116532000D01*
X156978000Y-124622000D02*
X156978000Y-116526000D01*
X157018000Y-124626000D02*
X157018000Y-116522000D01*
X157058000Y-124631000D02*
X157058000Y-116517000D01*
X157098000Y-124635000D02*
X157098000Y-116513000D01*
X157138000Y-124639000D02*
X157138000Y-116509000D01*
X157178000Y-124642000D02*
X157178000Y-116506000D01*
X157218000Y-124645000D02*
X157218000Y-116503000D01*
X157258000Y-124648000D02*
X157258000Y-116500000D01*
X157298000Y-124650000D02*
X157298000Y-116498000D01*
X157338000Y-124651000D02*
X157338000Y-116497000D01*
X157378000Y-124653000D02*
X157378000Y-116495000D01*
X157418000Y-124654000D02*
X157418000Y-116494000D01*
X157458000Y-124654000D02*
X157458000Y-116494000D01*
X157498000Y-124654000D02*
X157498000Y-116494000D01*
X161618000Y-120574000D02*
G75*
G03X161618000Y-120574000I-4120000J0D01*
G01*
X161618000Y-110414000D02*
G75*
G03X161618000Y-110414000I-4120000J0D01*
G01*
X157498000Y-114494000D02*
X157498000Y-106334000D01*
X157458000Y-114494000D02*
X157458000Y-106334000D01*
X157418000Y-114494000D02*
X157418000Y-106334000D01*
X157378000Y-114493000D02*
X157378000Y-106335000D01*
X157338000Y-114491000D02*
X157338000Y-106337000D01*
X157298000Y-114490000D02*
X157298000Y-106338000D01*
X157258000Y-114488000D02*
X157258000Y-106340000D01*
X157218000Y-114485000D02*
X157218000Y-106343000D01*
X157178000Y-114482000D02*
X157178000Y-106346000D01*
X157138000Y-114479000D02*
X157138000Y-106349000D01*
X157098000Y-114475000D02*
X157098000Y-106353000D01*
X157058000Y-114471000D02*
X157058000Y-106357000D01*
X157018000Y-114466000D02*
X157018000Y-106362000D01*
X156978000Y-114462000D02*
X156978000Y-106366000D01*
X156938000Y-114456000D02*
X156938000Y-106372000D01*
X156898000Y-114451000D02*
X156898000Y-106377000D01*
X156858000Y-114444000D02*
X156858000Y-106384000D01*
X156818000Y-114438000D02*
X156818000Y-106390000D01*
X156777000Y-114431000D02*
X156777000Y-111454000D01*
X156777000Y-109374000D02*
X156777000Y-106397000D01*
X156737000Y-114424000D02*
X156737000Y-111454000D01*
X156737000Y-109374000D02*
X156737000Y-106404000D01*
X156697000Y-114416000D02*
X156697000Y-111454000D01*
X156697000Y-109374000D02*
X156697000Y-106412000D01*
X156657000Y-114408000D02*
X156657000Y-111454000D01*
X156657000Y-109374000D02*
X156657000Y-106420000D01*
X156617000Y-114399000D02*
X156617000Y-111454000D01*
X156617000Y-109374000D02*
X156617000Y-106429000D01*
X156577000Y-114390000D02*
X156577000Y-111454000D01*
X156577000Y-109374000D02*
X156577000Y-106438000D01*
X156537000Y-114381000D02*
X156537000Y-111454000D01*
X156537000Y-109374000D02*
X156537000Y-106447000D01*
X156497000Y-114371000D02*
X156497000Y-111454000D01*
X156497000Y-109374000D02*
X156497000Y-106457000D01*
X156457000Y-114361000D02*
X156457000Y-111454000D01*
X156457000Y-109374000D02*
X156457000Y-106467000D01*
X156417000Y-114350000D02*
X156417000Y-111454000D01*
X156417000Y-109374000D02*
X156417000Y-106478000D01*
X156377000Y-114339000D02*
X156377000Y-111454000D01*
X156377000Y-109374000D02*
X156377000Y-106489000D01*
X156337000Y-114328000D02*
X156337000Y-111454000D01*
X156337000Y-109374000D02*
X156337000Y-106500000D01*
X156297000Y-114316000D02*
X156297000Y-111454000D01*
X156297000Y-109374000D02*
X156297000Y-106512000D01*
X156257000Y-114303000D02*
X156257000Y-111454000D01*
X156257000Y-109374000D02*
X156257000Y-106525000D01*
X156217000Y-114291000D02*
X156217000Y-111454000D01*
X156217000Y-109374000D02*
X156217000Y-106537000D01*
X156177000Y-114277000D02*
X156177000Y-111454000D01*
X156177000Y-109374000D02*
X156177000Y-106551000D01*
X156137000Y-114264000D02*
X156137000Y-111454000D01*
X156137000Y-109374000D02*
X156137000Y-106564000D01*
X156097000Y-114249000D02*
X156097000Y-111454000D01*
X156097000Y-109374000D02*
X156097000Y-106579000D01*
X156057000Y-114235000D02*
X156057000Y-111454000D01*
X156057000Y-109374000D02*
X156057000Y-106593000D01*
X156017000Y-114219000D02*
X156017000Y-111454000D01*
X156017000Y-109374000D02*
X156017000Y-106609000D01*
X155977000Y-114204000D02*
X155977000Y-111454000D01*
X155977000Y-109374000D02*
X155977000Y-106624000D01*
X155937000Y-114188000D02*
X155937000Y-111454000D01*
X155937000Y-109374000D02*
X155937000Y-106640000D01*
X155897000Y-114171000D02*
X155897000Y-111454000D01*
X155897000Y-109374000D02*
X155897000Y-106657000D01*
X155857000Y-114154000D02*
X155857000Y-111454000D01*
X155857000Y-109374000D02*
X155857000Y-106674000D01*
X155817000Y-114136000D02*
X155817000Y-111454000D01*
X155817000Y-109374000D02*
X155817000Y-106692000D01*
X155777000Y-114118000D02*
X155777000Y-111454000D01*
X155777000Y-109374000D02*
X155777000Y-106710000D01*
X155737000Y-114100000D02*
X155737000Y-111454000D01*
X155737000Y-109374000D02*
X155737000Y-106728000D01*
X155697000Y-114080000D02*
X155697000Y-111454000D01*
X155697000Y-109374000D02*
X155697000Y-106748000D01*
X155657000Y-114061000D02*
X155657000Y-111454000D01*
X155657000Y-109374000D02*
X155657000Y-106767000D01*
X155617000Y-114041000D02*
X155617000Y-111454000D01*
X155617000Y-109374000D02*
X155617000Y-106787000D01*
X155577000Y-114020000D02*
X155577000Y-111454000D01*
X155577000Y-109374000D02*
X155577000Y-106808000D01*
X155537000Y-113998000D02*
X155537000Y-111454000D01*
X155537000Y-109374000D02*
X155537000Y-106830000D01*
X155497000Y-113976000D02*
X155497000Y-111454000D01*
X155497000Y-109374000D02*
X155497000Y-106852000D01*
X155457000Y-113954000D02*
X155457000Y-111454000D01*
X155457000Y-109374000D02*
X155457000Y-106874000D01*
X155417000Y-113931000D02*
X155417000Y-111454000D01*
X155417000Y-109374000D02*
X155417000Y-106897000D01*
X155377000Y-113907000D02*
X155377000Y-111454000D01*
X155377000Y-109374000D02*
X155377000Y-106921000D01*
X155337000Y-113883000D02*
X155337000Y-111454000D01*
X155337000Y-109374000D02*
X155337000Y-106945000D01*
X155297000Y-113858000D02*
X155297000Y-111454000D01*
X155297000Y-109374000D02*
X155297000Y-106970000D01*
X155257000Y-113832000D02*
X155257000Y-111454000D01*
X155257000Y-109374000D02*
X155257000Y-106996000D01*
X155217000Y-113806000D02*
X155217000Y-111454000D01*
X155217000Y-109374000D02*
X155217000Y-107022000D01*
X155177000Y-113779000D02*
X155177000Y-111454000D01*
X155177000Y-109374000D02*
X155177000Y-107049000D01*
X155137000Y-113752000D02*
X155137000Y-111454000D01*
X155137000Y-109374000D02*
X155137000Y-107076000D01*
X155097000Y-113723000D02*
X155097000Y-111454000D01*
X155097000Y-109374000D02*
X155097000Y-107105000D01*
X155057000Y-113694000D02*
X155057000Y-111454000D01*
X155057000Y-109374000D02*
X155057000Y-107134000D01*
X155017000Y-113664000D02*
X155017000Y-111454000D01*
X155017000Y-109374000D02*
X155017000Y-107164000D01*
X154977000Y-113634000D02*
X154977000Y-111454000D01*
X154977000Y-109374000D02*
X154977000Y-107194000D01*
X154937000Y-113603000D02*
X154937000Y-111454000D01*
X154937000Y-109374000D02*
X154937000Y-107225000D01*
X154897000Y-113570000D02*
X154897000Y-111454000D01*
X154897000Y-109374000D02*
X154897000Y-107258000D01*
X154857000Y-113538000D02*
X154857000Y-111454000D01*
X154857000Y-109374000D02*
X154857000Y-107290000D01*
X154817000Y-113504000D02*
X154817000Y-111454000D01*
X154817000Y-109374000D02*
X154817000Y-107324000D01*
X154777000Y-113469000D02*
X154777000Y-111454000D01*
X154777000Y-109374000D02*
X154777000Y-107359000D01*
X154737000Y-113433000D02*
X154737000Y-111454000D01*
X154737000Y-109374000D02*
X154737000Y-107395000D01*
X154697000Y-113397000D02*
X154697000Y-107431000D01*
X154657000Y-113359000D02*
X154657000Y-107469000D01*
X154617000Y-113321000D02*
X154617000Y-107507000D01*
X154577000Y-113281000D02*
X154577000Y-107547000D01*
X154537000Y-113240000D02*
X154537000Y-107588000D01*
X154497000Y-113198000D02*
X154497000Y-107630000D01*
X154457000Y-113155000D02*
X154457000Y-107673000D01*
X154417000Y-113111000D02*
X154417000Y-107717000D01*
X154377000Y-113065000D02*
X154377000Y-107763000D01*
X154337000Y-113018000D02*
X154337000Y-107810000D01*
X154297000Y-112970000D02*
X154297000Y-107858000D01*
X154257000Y-112919000D02*
X154257000Y-107909000D01*
X154217000Y-112868000D02*
X154217000Y-107960000D01*
X154177000Y-112814000D02*
X154177000Y-108014000D01*
X154137000Y-112759000D02*
X154137000Y-108069000D01*
X154097000Y-112701000D02*
X154097000Y-108127000D01*
X154057000Y-112642000D02*
X154057000Y-108186000D01*
X154017000Y-112580000D02*
X154017000Y-108248000D01*
X153977000Y-112516000D02*
X153977000Y-108312000D01*
X153937000Y-112448000D02*
X153937000Y-108380000D01*
X153897000Y-112378000D02*
X153897000Y-108450000D01*
X153857000Y-112304000D02*
X153857000Y-108524000D01*
X153817000Y-112227000D02*
X153817000Y-108601000D01*
X153777000Y-112145000D02*
X153777000Y-108683000D01*
X153737000Y-112059000D02*
X153737000Y-108769000D01*
X153697000Y-111966000D02*
X153697000Y-108862000D01*
X153657000Y-111867000D02*
X153657000Y-108961000D01*
X153617000Y-111760000D02*
X153617000Y-109068000D01*
X153577000Y-111643000D02*
X153577000Y-109185000D01*
X153537000Y-111512000D02*
X153537000Y-109316000D01*
X153497000Y-111362000D02*
X153497000Y-109466000D01*
X153457000Y-111182000D02*
X153457000Y-109646000D01*
X153417000Y-110947000D02*
X153417000Y-109881000D01*
X161907698Y-112729000D02*
X161107698Y-112729000D01*
X161507698Y-113129000D02*
X161507698Y-112329000D01*
X161507698Y-102969000D02*
X161507698Y-102169000D01*
X161907698Y-102569000D02*
X161107698Y-102569000D01*
X153417000Y-100787000D02*
X153417000Y-99721000D01*
X153457000Y-101022000D02*
X153457000Y-99486000D01*
X153497000Y-101202000D02*
X153497000Y-99306000D01*
X153537000Y-101352000D02*
X153537000Y-99156000D01*
X153577000Y-101483000D02*
X153577000Y-99025000D01*
X153617000Y-101600000D02*
X153617000Y-98908000D01*
X153657000Y-101707000D02*
X153657000Y-98801000D01*
X153697000Y-101806000D02*
X153697000Y-98702000D01*
X153737000Y-101899000D02*
X153737000Y-98609000D01*
X153777000Y-101985000D02*
X153777000Y-98523000D01*
X153817000Y-102067000D02*
X153817000Y-98441000D01*
X153857000Y-102144000D02*
X153857000Y-98364000D01*
X153897000Y-102218000D02*
X153897000Y-98290000D01*
X153937000Y-102288000D02*
X153937000Y-98220000D01*
X153977000Y-102356000D02*
X153977000Y-98152000D01*
X154017000Y-102420000D02*
X154017000Y-98088000D01*
X154057000Y-102482000D02*
X154057000Y-98026000D01*
X154097000Y-102541000D02*
X154097000Y-97967000D01*
X154137000Y-102599000D02*
X154137000Y-97909000D01*
X154177000Y-102654000D02*
X154177000Y-97854000D01*
X154217000Y-102708000D02*
X154217000Y-97800000D01*
X154257000Y-102759000D02*
X154257000Y-97749000D01*
X154297000Y-102810000D02*
X154297000Y-97698000D01*
X154337000Y-102858000D02*
X154337000Y-97650000D01*
X154377000Y-102905000D02*
X154377000Y-97603000D01*
X154417000Y-102951000D02*
X154417000Y-97557000D01*
X154457000Y-102995000D02*
X154457000Y-97513000D01*
X154497000Y-103038000D02*
X154497000Y-97470000D01*
X154537000Y-103080000D02*
X154537000Y-97428000D01*
X154577000Y-103121000D02*
X154577000Y-97387000D01*
X154617000Y-103161000D02*
X154617000Y-97347000D01*
X154657000Y-103199000D02*
X154657000Y-97309000D01*
X154697000Y-103237000D02*
X154697000Y-97271000D01*
X154737000Y-99214000D02*
X154737000Y-97235000D01*
X154737000Y-103273000D02*
X154737000Y-101294000D01*
X154777000Y-99214000D02*
X154777000Y-97199000D01*
X154777000Y-103309000D02*
X154777000Y-101294000D01*
X154817000Y-99214000D02*
X154817000Y-97164000D01*
X154817000Y-103344000D02*
X154817000Y-101294000D01*
X154857000Y-99214000D02*
X154857000Y-97130000D01*
X154857000Y-103378000D02*
X154857000Y-101294000D01*
X154897000Y-99214000D02*
X154897000Y-97098000D01*
X154897000Y-103410000D02*
X154897000Y-101294000D01*
X154937000Y-99214000D02*
X154937000Y-97065000D01*
X154937000Y-103443000D02*
X154937000Y-101294000D01*
X154977000Y-99214000D02*
X154977000Y-97034000D01*
X154977000Y-103474000D02*
X154977000Y-101294000D01*
X155017000Y-99214000D02*
X155017000Y-97004000D01*
X155017000Y-103504000D02*
X155017000Y-101294000D01*
X155057000Y-99214000D02*
X155057000Y-96974000D01*
X155057000Y-103534000D02*
X155057000Y-101294000D01*
X155097000Y-99214000D02*
X155097000Y-96945000D01*
X155097000Y-103563000D02*
X155097000Y-101294000D01*
X155137000Y-99214000D02*
X155137000Y-96916000D01*
X155137000Y-103592000D02*
X155137000Y-101294000D01*
X155177000Y-99214000D02*
X155177000Y-96889000D01*
X155177000Y-103619000D02*
X155177000Y-101294000D01*
X155217000Y-99214000D02*
X155217000Y-96862000D01*
X155217000Y-103646000D02*
X155217000Y-101294000D01*
X155257000Y-99214000D02*
X155257000Y-96836000D01*
X155257000Y-103672000D02*
X155257000Y-101294000D01*
X155297000Y-99214000D02*
X155297000Y-96810000D01*
X155297000Y-103698000D02*
X155297000Y-101294000D01*
X155337000Y-99214000D02*
X155337000Y-96785000D01*
X155337000Y-103723000D02*
X155337000Y-101294000D01*
X155377000Y-99214000D02*
X155377000Y-96761000D01*
X155377000Y-103747000D02*
X155377000Y-101294000D01*
X155417000Y-99214000D02*
X155417000Y-96737000D01*
X155417000Y-103771000D02*
X155417000Y-101294000D01*
X155457000Y-99214000D02*
X155457000Y-96714000D01*
X155457000Y-103794000D02*
X155457000Y-101294000D01*
X155497000Y-99214000D02*
X155497000Y-96692000D01*
X155497000Y-103816000D02*
X155497000Y-101294000D01*
X155537000Y-99214000D02*
X155537000Y-96670000D01*
X155537000Y-103838000D02*
X155537000Y-101294000D01*
X155577000Y-99214000D02*
X155577000Y-96648000D01*
X155577000Y-103860000D02*
X155577000Y-101294000D01*
X155617000Y-99214000D02*
X155617000Y-96627000D01*
X155617000Y-103881000D02*
X155617000Y-101294000D01*
X155657000Y-99214000D02*
X155657000Y-96607000D01*
X155657000Y-103901000D02*
X155657000Y-101294000D01*
X155697000Y-99214000D02*
X155697000Y-96588000D01*
X155697000Y-103920000D02*
X155697000Y-101294000D01*
X155737000Y-99214000D02*
X155737000Y-96568000D01*
X155737000Y-103940000D02*
X155737000Y-101294000D01*
X155777000Y-99214000D02*
X155777000Y-96550000D01*
X155777000Y-103958000D02*
X155777000Y-101294000D01*
X155817000Y-99214000D02*
X155817000Y-96532000D01*
X155817000Y-103976000D02*
X155817000Y-101294000D01*
X155857000Y-99214000D02*
X155857000Y-96514000D01*
X155857000Y-103994000D02*
X155857000Y-101294000D01*
X155897000Y-99214000D02*
X155897000Y-96497000D01*
X155897000Y-104011000D02*
X155897000Y-101294000D01*
X155937000Y-99214000D02*
X155937000Y-96480000D01*
X155937000Y-104028000D02*
X155937000Y-101294000D01*
X155977000Y-99214000D02*
X155977000Y-96464000D01*
X155977000Y-104044000D02*
X155977000Y-101294000D01*
X156017000Y-99214000D02*
X156017000Y-96449000D01*
X156017000Y-104059000D02*
X156017000Y-101294000D01*
X156057000Y-99214000D02*
X156057000Y-96433000D01*
X156057000Y-104075000D02*
X156057000Y-101294000D01*
X156097000Y-99214000D02*
X156097000Y-96419000D01*
X156097000Y-104089000D02*
X156097000Y-101294000D01*
X156137000Y-99214000D02*
X156137000Y-96404000D01*
X156137000Y-104104000D02*
X156137000Y-101294000D01*
X156177000Y-99214000D02*
X156177000Y-96391000D01*
X156177000Y-104117000D02*
X156177000Y-101294000D01*
X156217000Y-99214000D02*
X156217000Y-96377000D01*
X156217000Y-104131000D02*
X156217000Y-101294000D01*
X156257000Y-99214000D02*
X156257000Y-96365000D01*
X156257000Y-104143000D02*
X156257000Y-101294000D01*
X156297000Y-99214000D02*
X156297000Y-96352000D01*
X156297000Y-104156000D02*
X156297000Y-101294000D01*
X156337000Y-99214000D02*
X156337000Y-96340000D01*
X156337000Y-104168000D02*
X156337000Y-101294000D01*
X156377000Y-99214000D02*
X156377000Y-96329000D01*
X156377000Y-104179000D02*
X156377000Y-101294000D01*
X156417000Y-99214000D02*
X156417000Y-96318000D01*
X156417000Y-104190000D02*
X156417000Y-101294000D01*
X156457000Y-99214000D02*
X156457000Y-96307000D01*
X156457000Y-104201000D02*
X156457000Y-101294000D01*
X156497000Y-99214000D02*
X156497000Y-96297000D01*
X156497000Y-104211000D02*
X156497000Y-101294000D01*
X156537000Y-99214000D02*
X156537000Y-96287000D01*
X156537000Y-104221000D02*
X156537000Y-101294000D01*
X156577000Y-99214000D02*
X156577000Y-96278000D01*
X156577000Y-104230000D02*
X156577000Y-101294000D01*
X156617000Y-99214000D02*
X156617000Y-96269000D01*
X156617000Y-104239000D02*
X156617000Y-101294000D01*
X156657000Y-99214000D02*
X156657000Y-96260000D01*
X156657000Y-104248000D02*
X156657000Y-101294000D01*
X156697000Y-99214000D02*
X156697000Y-96252000D01*
X156697000Y-104256000D02*
X156697000Y-101294000D01*
X156737000Y-99214000D02*
X156737000Y-96244000D01*
X156737000Y-104264000D02*
X156737000Y-101294000D01*
X156777000Y-99214000D02*
X156777000Y-96237000D01*
X156777000Y-104271000D02*
X156777000Y-101294000D01*
X156818000Y-104278000D02*
X156818000Y-96230000D01*
X156858000Y-104284000D02*
X156858000Y-96224000D01*
X156898000Y-104291000D02*
X156898000Y-96217000D01*
X156938000Y-104296000D02*
X156938000Y-96212000D01*
X156978000Y-104302000D02*
X156978000Y-96206000D01*
X157018000Y-104306000D02*
X157018000Y-96202000D01*
X157058000Y-104311000D02*
X157058000Y-96197000D01*
X157098000Y-104315000D02*
X157098000Y-96193000D01*
X157138000Y-104319000D02*
X157138000Y-96189000D01*
X157178000Y-104322000D02*
X157178000Y-96186000D01*
X157218000Y-104325000D02*
X157218000Y-96183000D01*
X157258000Y-104328000D02*
X157258000Y-96180000D01*
X157298000Y-104330000D02*
X157298000Y-96178000D01*
X157338000Y-104331000D02*
X157338000Y-96177000D01*
X157378000Y-104333000D02*
X157378000Y-96175000D01*
X157418000Y-104334000D02*
X157418000Y-96174000D01*
X157458000Y-104334000D02*
X157458000Y-96174000D01*
X157498000Y-104334000D02*
X157498000Y-96174000D01*
X161618000Y-100254000D02*
G75*
G03X161618000Y-100254000I-4120000J0D01*
G01*
X164915000Y-137819698D02*
X165715000Y-137819698D01*
X165315000Y-138219698D02*
X165315000Y-137419698D01*
X167097000Y-129729000D02*
X168163000Y-129729000D01*
X166862000Y-129769000D02*
X168398000Y-129769000D01*
X166682000Y-129809000D02*
X168578000Y-129809000D01*
X166532000Y-129849000D02*
X168728000Y-129849000D01*
X166401000Y-129889000D02*
X168859000Y-129889000D01*
X166284000Y-129929000D02*
X168976000Y-129929000D01*
X166177000Y-129969000D02*
X169083000Y-129969000D01*
X166078000Y-130009000D02*
X169182000Y-130009000D01*
X165985000Y-130049000D02*
X169275000Y-130049000D01*
X165899000Y-130089000D02*
X169361000Y-130089000D01*
X165817000Y-130129000D02*
X169443000Y-130129000D01*
X165740000Y-130169000D02*
X169520000Y-130169000D01*
X165666000Y-130209000D02*
X169594000Y-130209000D01*
X165596000Y-130249000D02*
X169664000Y-130249000D01*
X165528000Y-130289000D02*
X169732000Y-130289000D01*
X165464000Y-130329000D02*
X169796000Y-130329000D01*
X165402000Y-130369000D02*
X169858000Y-130369000D01*
X165343000Y-130409000D02*
X169917000Y-130409000D01*
X165285000Y-130449000D02*
X169975000Y-130449000D01*
X165230000Y-130489000D02*
X170030000Y-130489000D01*
X165176000Y-130529000D02*
X170084000Y-130529000D01*
X165125000Y-130569000D02*
X170135000Y-130569000D01*
X165074000Y-130609000D02*
X170186000Y-130609000D01*
X165026000Y-130649000D02*
X170234000Y-130649000D01*
X164979000Y-130689000D02*
X170281000Y-130689000D01*
X164933000Y-130729000D02*
X170327000Y-130729000D01*
X164889000Y-130769000D02*
X170371000Y-130769000D01*
X164846000Y-130809000D02*
X170414000Y-130809000D01*
X164804000Y-130849000D02*
X170456000Y-130849000D01*
X164763000Y-130889000D02*
X170497000Y-130889000D01*
X164723000Y-130929000D02*
X170537000Y-130929000D01*
X164685000Y-130969000D02*
X170575000Y-130969000D01*
X164647000Y-131009000D02*
X170613000Y-131009000D01*
X168670000Y-131049000D02*
X170649000Y-131049000D01*
X164611000Y-131049000D02*
X166590000Y-131049000D01*
X168670000Y-131089000D02*
X170685000Y-131089000D01*
X164575000Y-131089000D02*
X166590000Y-131089000D01*
X168670000Y-131129000D02*
X170720000Y-131129000D01*
X164540000Y-131129000D02*
X166590000Y-131129000D01*
X168670000Y-131169000D02*
X170754000Y-131169000D01*
X164506000Y-131169000D02*
X166590000Y-131169000D01*
X168670000Y-131209000D02*
X170786000Y-131209000D01*
X164474000Y-131209000D02*
X166590000Y-131209000D01*
X168670000Y-131249000D02*
X170819000Y-131249000D01*
X164441000Y-131249000D02*
X166590000Y-131249000D01*
X168670000Y-131289000D02*
X170850000Y-131289000D01*
X164410000Y-131289000D02*
X166590000Y-131289000D01*
X168670000Y-131329000D02*
X170880000Y-131329000D01*
X164380000Y-131329000D02*
X166590000Y-131329000D01*
X168670000Y-131369000D02*
X170910000Y-131369000D01*
X164350000Y-131369000D02*
X166590000Y-131369000D01*
X168670000Y-131409000D02*
X170939000Y-131409000D01*
X164321000Y-131409000D02*
X166590000Y-131409000D01*
X168670000Y-131449000D02*
X170968000Y-131449000D01*
X164292000Y-131449000D02*
X166590000Y-131449000D01*
X168670000Y-131489000D02*
X170995000Y-131489000D01*
X164265000Y-131489000D02*
X166590000Y-131489000D01*
X168670000Y-131529000D02*
X171022000Y-131529000D01*
X164238000Y-131529000D02*
X166590000Y-131529000D01*
X168670000Y-131569000D02*
X171048000Y-131569000D01*
X164212000Y-131569000D02*
X166590000Y-131569000D01*
X168670000Y-131609000D02*
X171074000Y-131609000D01*
X164186000Y-131609000D02*
X166590000Y-131609000D01*
X168670000Y-131649000D02*
X171099000Y-131649000D01*
X164161000Y-131649000D02*
X166590000Y-131649000D01*
X168670000Y-131689000D02*
X171123000Y-131689000D01*
X164137000Y-131689000D02*
X166590000Y-131689000D01*
X168670000Y-131729000D02*
X171147000Y-131729000D01*
X164113000Y-131729000D02*
X166590000Y-131729000D01*
X168670000Y-131769000D02*
X171170000Y-131769000D01*
X164090000Y-131769000D02*
X166590000Y-131769000D01*
X168670000Y-131809000D02*
X171192000Y-131809000D01*
X164068000Y-131809000D02*
X166590000Y-131809000D01*
X168670000Y-131849000D02*
X171214000Y-131849000D01*
X164046000Y-131849000D02*
X166590000Y-131849000D01*
X168670000Y-131889000D02*
X171236000Y-131889000D01*
X164024000Y-131889000D02*
X166590000Y-131889000D01*
X168670000Y-131929000D02*
X171257000Y-131929000D01*
X164003000Y-131929000D02*
X166590000Y-131929000D01*
X168670000Y-131969000D02*
X171277000Y-131969000D01*
X163983000Y-131969000D02*
X166590000Y-131969000D01*
X168670000Y-132009000D02*
X171296000Y-132009000D01*
X163964000Y-132009000D02*
X166590000Y-132009000D01*
X168670000Y-132049000D02*
X171316000Y-132049000D01*
X163944000Y-132049000D02*
X166590000Y-132049000D01*
X168670000Y-132089000D02*
X171334000Y-132089000D01*
X163926000Y-132089000D02*
X166590000Y-132089000D01*
X168670000Y-132129000D02*
X171352000Y-132129000D01*
X163908000Y-132129000D02*
X166590000Y-132129000D01*
X168670000Y-132169000D02*
X171370000Y-132169000D01*
X163890000Y-132169000D02*
X166590000Y-132169000D01*
X168670000Y-132209000D02*
X171387000Y-132209000D01*
X163873000Y-132209000D02*
X166590000Y-132209000D01*
X168670000Y-132249000D02*
X171404000Y-132249000D01*
X163856000Y-132249000D02*
X166590000Y-132249000D01*
X168670000Y-132289000D02*
X171420000Y-132289000D01*
X163840000Y-132289000D02*
X166590000Y-132289000D01*
X168670000Y-132329000D02*
X171435000Y-132329000D01*
X163825000Y-132329000D02*
X166590000Y-132329000D01*
X168670000Y-132369000D02*
X171451000Y-132369000D01*
X163809000Y-132369000D02*
X166590000Y-132369000D01*
X168670000Y-132409000D02*
X171465000Y-132409000D01*
X163795000Y-132409000D02*
X166590000Y-132409000D01*
X168670000Y-132449000D02*
X171480000Y-132449000D01*
X163780000Y-132449000D02*
X166590000Y-132449000D01*
X168670000Y-132489000D02*
X171493000Y-132489000D01*
X163767000Y-132489000D02*
X166590000Y-132489000D01*
X168670000Y-132529000D02*
X171507000Y-132529000D01*
X163753000Y-132529000D02*
X166590000Y-132529000D01*
X168670000Y-132569000D02*
X171519000Y-132569000D01*
X163741000Y-132569000D02*
X166590000Y-132569000D01*
X168670000Y-132609000D02*
X171532000Y-132609000D01*
X163728000Y-132609000D02*
X166590000Y-132609000D01*
X168670000Y-132649000D02*
X171544000Y-132649000D01*
X163716000Y-132649000D02*
X166590000Y-132649000D01*
X168670000Y-132689000D02*
X171555000Y-132689000D01*
X163705000Y-132689000D02*
X166590000Y-132689000D01*
X168670000Y-132729000D02*
X171566000Y-132729000D01*
X163694000Y-132729000D02*
X166590000Y-132729000D01*
X168670000Y-132769000D02*
X171577000Y-132769000D01*
X163683000Y-132769000D02*
X166590000Y-132769000D01*
X168670000Y-132809000D02*
X171587000Y-132809000D01*
X163673000Y-132809000D02*
X166590000Y-132809000D01*
X168670000Y-132849000D02*
X171597000Y-132849000D01*
X163663000Y-132849000D02*
X166590000Y-132849000D01*
X168670000Y-132889000D02*
X171606000Y-132889000D01*
X163654000Y-132889000D02*
X166590000Y-132889000D01*
X168670000Y-132929000D02*
X171615000Y-132929000D01*
X163645000Y-132929000D02*
X166590000Y-132929000D01*
X168670000Y-132969000D02*
X171624000Y-132969000D01*
X163636000Y-132969000D02*
X166590000Y-132969000D01*
X168670000Y-133009000D02*
X171632000Y-133009000D01*
X163628000Y-133009000D02*
X166590000Y-133009000D01*
X168670000Y-133049000D02*
X171640000Y-133049000D01*
X163620000Y-133049000D02*
X166590000Y-133049000D01*
X168670000Y-133089000D02*
X171647000Y-133089000D01*
X163613000Y-133089000D02*
X166590000Y-133089000D01*
X163606000Y-133130000D02*
X171654000Y-133130000D01*
X163600000Y-133170000D02*
X171660000Y-133170000D01*
X163593000Y-133210000D02*
X171667000Y-133210000D01*
X163588000Y-133250000D02*
X171672000Y-133250000D01*
X163582000Y-133290000D02*
X171678000Y-133290000D01*
X163578000Y-133330000D02*
X171682000Y-133330000D01*
X163573000Y-133370000D02*
X171687000Y-133370000D01*
X163569000Y-133410000D02*
X171691000Y-133410000D01*
X163565000Y-133450000D02*
X171695000Y-133450000D01*
X163562000Y-133490000D02*
X171698000Y-133490000D01*
X163559000Y-133530000D02*
X171701000Y-133530000D01*
X163556000Y-133570000D02*
X171704000Y-133570000D01*
X163554000Y-133610000D02*
X171706000Y-133610000D01*
X163553000Y-133650000D02*
X171707000Y-133650000D01*
X163551000Y-133690000D02*
X171709000Y-133690000D01*
X163550000Y-133730000D02*
X171710000Y-133730000D01*
X163550000Y-133770000D02*
X171710000Y-133770000D01*
X163550000Y-133810000D02*
X171710000Y-133810000D01*
X171750000Y-133810000D02*
G75*
G03X171750000Y-133810000I-4120000J0D01*
G01*
X161618000Y-90094000D02*
G75*
G03X161618000Y-90094000I-4120000J0D01*
G01*
X157498000Y-94174000D02*
X157498000Y-86014000D01*
X157458000Y-94174000D02*
X157458000Y-86014000D01*
X157418000Y-94174000D02*
X157418000Y-86014000D01*
X157378000Y-94173000D02*
X157378000Y-86015000D01*
X157338000Y-94171000D02*
X157338000Y-86017000D01*
X157298000Y-94170000D02*
X157298000Y-86018000D01*
X157258000Y-94168000D02*
X157258000Y-86020000D01*
X157218000Y-94165000D02*
X157218000Y-86023000D01*
X157178000Y-94162000D02*
X157178000Y-86026000D01*
X157138000Y-94159000D02*
X157138000Y-86029000D01*
X157098000Y-94155000D02*
X157098000Y-86033000D01*
X157058000Y-94151000D02*
X157058000Y-86037000D01*
X157018000Y-94146000D02*
X157018000Y-86042000D01*
X156978000Y-94142000D02*
X156978000Y-86046000D01*
X156938000Y-94136000D02*
X156938000Y-86052000D01*
X156898000Y-94131000D02*
X156898000Y-86057000D01*
X156858000Y-94124000D02*
X156858000Y-86064000D01*
X156818000Y-94118000D02*
X156818000Y-86070000D01*
X156777000Y-94111000D02*
X156777000Y-91134000D01*
X156777000Y-89054000D02*
X156777000Y-86077000D01*
X156737000Y-94104000D02*
X156737000Y-91134000D01*
X156737000Y-89054000D02*
X156737000Y-86084000D01*
X156697000Y-94096000D02*
X156697000Y-91134000D01*
X156697000Y-89054000D02*
X156697000Y-86092000D01*
X156657000Y-94088000D02*
X156657000Y-91134000D01*
X156657000Y-89054000D02*
X156657000Y-86100000D01*
X156617000Y-94079000D02*
X156617000Y-91134000D01*
X156617000Y-89054000D02*
X156617000Y-86109000D01*
X156577000Y-94070000D02*
X156577000Y-91134000D01*
X156577000Y-89054000D02*
X156577000Y-86118000D01*
X156537000Y-94061000D02*
X156537000Y-91134000D01*
X156537000Y-89054000D02*
X156537000Y-86127000D01*
X156497000Y-94051000D02*
X156497000Y-91134000D01*
X156497000Y-89054000D02*
X156497000Y-86137000D01*
X156457000Y-94041000D02*
X156457000Y-91134000D01*
X156457000Y-89054000D02*
X156457000Y-86147000D01*
X156417000Y-94030000D02*
X156417000Y-91134000D01*
X156417000Y-89054000D02*
X156417000Y-86158000D01*
X156377000Y-94019000D02*
X156377000Y-91134000D01*
X156377000Y-89054000D02*
X156377000Y-86169000D01*
X156337000Y-94008000D02*
X156337000Y-91134000D01*
X156337000Y-89054000D02*
X156337000Y-86180000D01*
X156297000Y-93996000D02*
X156297000Y-91134000D01*
X156297000Y-89054000D02*
X156297000Y-86192000D01*
X156257000Y-93983000D02*
X156257000Y-91134000D01*
X156257000Y-89054000D02*
X156257000Y-86205000D01*
X156217000Y-93971000D02*
X156217000Y-91134000D01*
X156217000Y-89054000D02*
X156217000Y-86217000D01*
X156177000Y-93957000D02*
X156177000Y-91134000D01*
X156177000Y-89054000D02*
X156177000Y-86231000D01*
X156137000Y-93944000D02*
X156137000Y-91134000D01*
X156137000Y-89054000D02*
X156137000Y-86244000D01*
X156097000Y-93929000D02*
X156097000Y-91134000D01*
X156097000Y-89054000D02*
X156097000Y-86259000D01*
X156057000Y-93915000D02*
X156057000Y-91134000D01*
X156057000Y-89054000D02*
X156057000Y-86273000D01*
X156017000Y-93899000D02*
X156017000Y-91134000D01*
X156017000Y-89054000D02*
X156017000Y-86289000D01*
X155977000Y-93884000D02*
X155977000Y-91134000D01*
X155977000Y-89054000D02*
X155977000Y-86304000D01*
X155937000Y-93868000D02*
X155937000Y-91134000D01*
X155937000Y-89054000D02*
X155937000Y-86320000D01*
X155897000Y-93851000D02*
X155897000Y-91134000D01*
X155897000Y-89054000D02*
X155897000Y-86337000D01*
X155857000Y-93834000D02*
X155857000Y-91134000D01*
X155857000Y-89054000D02*
X155857000Y-86354000D01*
X155817000Y-93816000D02*
X155817000Y-91134000D01*
X155817000Y-89054000D02*
X155817000Y-86372000D01*
X155777000Y-93798000D02*
X155777000Y-91134000D01*
X155777000Y-89054000D02*
X155777000Y-86390000D01*
X155737000Y-93780000D02*
X155737000Y-91134000D01*
X155737000Y-89054000D02*
X155737000Y-86408000D01*
X155697000Y-93760000D02*
X155697000Y-91134000D01*
X155697000Y-89054000D02*
X155697000Y-86428000D01*
X155657000Y-93741000D02*
X155657000Y-91134000D01*
X155657000Y-89054000D02*
X155657000Y-86447000D01*
X155617000Y-93721000D02*
X155617000Y-91134000D01*
X155617000Y-89054000D02*
X155617000Y-86467000D01*
X155577000Y-93700000D02*
X155577000Y-91134000D01*
X155577000Y-89054000D02*
X155577000Y-86488000D01*
X155537000Y-93678000D02*
X155537000Y-91134000D01*
X155537000Y-89054000D02*
X155537000Y-86510000D01*
X155497000Y-93656000D02*
X155497000Y-91134000D01*
X155497000Y-89054000D02*
X155497000Y-86532000D01*
X155457000Y-93634000D02*
X155457000Y-91134000D01*
X155457000Y-89054000D02*
X155457000Y-86554000D01*
X155417000Y-93611000D02*
X155417000Y-91134000D01*
X155417000Y-89054000D02*
X155417000Y-86577000D01*
X155377000Y-93587000D02*
X155377000Y-91134000D01*
X155377000Y-89054000D02*
X155377000Y-86601000D01*
X155337000Y-93563000D02*
X155337000Y-91134000D01*
X155337000Y-89054000D02*
X155337000Y-86625000D01*
X155297000Y-93538000D02*
X155297000Y-91134000D01*
X155297000Y-89054000D02*
X155297000Y-86650000D01*
X155257000Y-93512000D02*
X155257000Y-91134000D01*
X155257000Y-89054000D02*
X155257000Y-86676000D01*
X155217000Y-93486000D02*
X155217000Y-91134000D01*
X155217000Y-89054000D02*
X155217000Y-86702000D01*
X155177000Y-93459000D02*
X155177000Y-91134000D01*
X155177000Y-89054000D02*
X155177000Y-86729000D01*
X155137000Y-93432000D02*
X155137000Y-91134000D01*
X155137000Y-89054000D02*
X155137000Y-86756000D01*
X155097000Y-93403000D02*
X155097000Y-91134000D01*
X155097000Y-89054000D02*
X155097000Y-86785000D01*
X155057000Y-93374000D02*
X155057000Y-91134000D01*
X155057000Y-89054000D02*
X155057000Y-86814000D01*
X155017000Y-93344000D02*
X155017000Y-91134000D01*
X155017000Y-89054000D02*
X155017000Y-86844000D01*
X154977000Y-93314000D02*
X154977000Y-91134000D01*
X154977000Y-89054000D02*
X154977000Y-86874000D01*
X154937000Y-93283000D02*
X154937000Y-91134000D01*
X154937000Y-89054000D02*
X154937000Y-86905000D01*
X154897000Y-93250000D02*
X154897000Y-91134000D01*
X154897000Y-89054000D02*
X154897000Y-86938000D01*
X154857000Y-93218000D02*
X154857000Y-91134000D01*
X154857000Y-89054000D02*
X154857000Y-86970000D01*
X154817000Y-93184000D02*
X154817000Y-91134000D01*
X154817000Y-89054000D02*
X154817000Y-87004000D01*
X154777000Y-93149000D02*
X154777000Y-91134000D01*
X154777000Y-89054000D02*
X154777000Y-87039000D01*
X154737000Y-93113000D02*
X154737000Y-91134000D01*
X154737000Y-89054000D02*
X154737000Y-87075000D01*
X154697000Y-93077000D02*
X154697000Y-87111000D01*
X154657000Y-93039000D02*
X154657000Y-87149000D01*
X154617000Y-93001000D02*
X154617000Y-87187000D01*
X154577000Y-92961000D02*
X154577000Y-87227000D01*
X154537000Y-92920000D02*
X154537000Y-87268000D01*
X154497000Y-92878000D02*
X154497000Y-87310000D01*
X154457000Y-92835000D02*
X154457000Y-87353000D01*
X154417000Y-92791000D02*
X154417000Y-87397000D01*
X154377000Y-92745000D02*
X154377000Y-87443000D01*
X154337000Y-92698000D02*
X154337000Y-87490000D01*
X154297000Y-92650000D02*
X154297000Y-87538000D01*
X154257000Y-92599000D02*
X154257000Y-87589000D01*
X154217000Y-92548000D02*
X154217000Y-87640000D01*
X154177000Y-92494000D02*
X154177000Y-87694000D01*
X154137000Y-92439000D02*
X154137000Y-87749000D01*
X154097000Y-92381000D02*
X154097000Y-87807000D01*
X154057000Y-92322000D02*
X154057000Y-87866000D01*
X154017000Y-92260000D02*
X154017000Y-87928000D01*
X153977000Y-92196000D02*
X153977000Y-87992000D01*
X153937000Y-92128000D02*
X153937000Y-88060000D01*
X153897000Y-92058000D02*
X153897000Y-88130000D01*
X153857000Y-91984000D02*
X153857000Y-88204000D01*
X153817000Y-91907000D02*
X153817000Y-88281000D01*
X153777000Y-91825000D02*
X153777000Y-88363000D01*
X153737000Y-91739000D02*
X153737000Y-88449000D01*
X153697000Y-91646000D02*
X153697000Y-88542000D01*
X153657000Y-91547000D02*
X153657000Y-88641000D01*
X153617000Y-91440000D02*
X153617000Y-88748000D01*
X153577000Y-91323000D02*
X153577000Y-88865000D01*
X153537000Y-91192000D02*
X153537000Y-88996000D01*
X153497000Y-91042000D02*
X153497000Y-89146000D01*
X153457000Y-90862000D02*
X153457000Y-89326000D01*
X153417000Y-90627000D02*
X153417000Y-89561000D01*
X161907698Y-92409000D02*
X161107698Y-92409000D01*
X161507698Y-92809000D02*
X161507698Y-92009000D01*
X182354748Y-72008000D02*
X182877252Y-72008000D01*
X182354748Y-70588000D02*
X182877252Y-70588000D01*
X181846748Y-101576000D02*
X182369252Y-101576000D01*
X181846748Y-102996000D02*
X182369252Y-102996000D01*
D10*
X104166666Y-135166666D02*
X104166666Y-134690476D01*
X104452380Y-135261904D02*
X103452380Y-134928571D01*
X104452380Y-134595238D01*
X104357142Y-133690476D02*
X104404761Y-133738095D01*
X104452380Y-133880952D01*
X104452380Y-133976190D01*
X104404761Y-134119047D01*
X104309523Y-134214285D01*
X104214285Y-134261904D01*
X104023809Y-134309523D01*
X103880952Y-134309523D01*
X103690476Y-134261904D01*
X103595238Y-134214285D01*
X103500000Y-134119047D01*
X103452380Y-133976190D01*
X103452380Y-133880952D01*
X103500000Y-133738095D01*
X103547619Y-133690476D01*
X103404761Y-132547619D02*
X104690476Y-133404761D01*
X104452380Y-131738095D02*
X104452380Y-132214285D01*
X103452380Y-132214285D01*
X110666666Y-135285714D02*
X110666666Y-134809523D01*
X110952380Y-135380952D02*
X109952380Y-135047619D01*
X110952380Y-134714285D01*
X110857142Y-133809523D02*
X110904761Y-133857142D01*
X110952380Y-134000000D01*
X110952380Y-134095238D01*
X110904761Y-134238095D01*
X110809523Y-134333333D01*
X110714285Y-134380952D01*
X110523809Y-134428571D01*
X110380952Y-134428571D01*
X110190476Y-134380952D01*
X110095238Y-134333333D01*
X110000000Y-134238095D01*
X109952380Y-134095238D01*
X109952380Y-134000000D01*
X110000000Y-133857142D01*
X110047619Y-133809523D01*
X109904761Y-132666666D02*
X111190476Y-133523809D01*
X110952380Y-132333333D02*
X109952380Y-132333333D01*
X110952380Y-131761904D01*
X109952380Y-131761904D01*
X138952380Y-68452380D02*
X139952380Y-68119047D01*
X138952380Y-67785714D01*
X139571428Y-67452380D02*
X139571428Y-66690476D01*
X144952380Y-68452380D02*
X145952380Y-68119047D01*
X144952380Y-67785714D01*
X145571428Y-67452380D02*
X145571428Y-66690476D01*
X145952380Y-67071428D02*
X145190476Y-67071428D01*
M02*
