%TF.GenerationSoftware,KiCad,Pcbnew,(5.1.8)-1*%
%TF.CreationDate,2020-12-10T23:44:26+08:00*%
%TF.ProjectId,HEMAC_DISP,48454d41-435f-4444-9953-502e6b696361,rev?*%
%TF.SameCoordinates,Original*%
%TF.FileFunction,Legend,Top*%
%TF.FilePolarity,Positive*%
%FSLAX46Y46*%
G04 Gerber Fmt 4.6, Leading zero omitted, Abs format (unit mm)*
G04 Created by KiCad (PCBNEW (5.1.8)-1) date 2020-12-10 23:44:26*
%MOMM*%
%LPD*%
G01*
G04 APERTURE LIST*
%ADD10C,0.120000*%
%ADD11C,0.150000*%
G04 APERTURE END LIST*
D10*
%TO.C,R2*%
X223880000Y-47400000D02*
X223880000Y-48600000D01*
X222120000Y-48600000D02*
X222120000Y-47400000D01*
%TO.C,R1*%
X222120000Y-44600000D02*
X222120000Y-43400000D01*
X223880000Y-43400000D02*
X223880000Y-44600000D01*
%TO.C,C3*%
X222150000Y-85000000D02*
X222150000Y-86000000D01*
X223850000Y-86000000D02*
X223850000Y-85000000D01*
%TO.C,C2*%
X222150000Y-81000000D02*
X222150000Y-82000000D01*
X223850000Y-82000000D02*
X223850000Y-81000000D01*
%TO.C,DISP6*%
D11*
X213252380Y-104952380D02*
X212252380Y-104952380D01*
X212252380Y-104714285D01*
X212300000Y-104571428D01*
X212395238Y-104476190D01*
X212490476Y-104428571D01*
X212680952Y-104380952D01*
X212823809Y-104380952D01*
X213014285Y-104428571D01*
X213109523Y-104476190D01*
X213204761Y-104571428D01*
X213252380Y-104714285D01*
X213252380Y-104952380D01*
X213252380Y-103952380D02*
X212252380Y-103952380D01*
X213204761Y-103523809D02*
X213252380Y-103380952D01*
X213252380Y-103142857D01*
X213204761Y-103047619D01*
X213157142Y-103000000D01*
X213061904Y-102952380D01*
X212966666Y-102952380D01*
X212871428Y-103000000D01*
X212823809Y-103047619D01*
X212776190Y-103142857D01*
X212728571Y-103333333D01*
X212680952Y-103428571D01*
X212633333Y-103476190D01*
X212538095Y-103523809D01*
X212442857Y-103523809D01*
X212347619Y-103476190D01*
X212300000Y-103428571D01*
X212252380Y-103333333D01*
X212252380Y-103095238D01*
X212300000Y-102952380D01*
X213252380Y-102523809D02*
X212252380Y-102523809D01*
X212252380Y-102142857D01*
X212300000Y-102047619D01*
X212347619Y-102000000D01*
X212442857Y-101952380D01*
X212585714Y-101952380D01*
X212680952Y-102000000D01*
X212728571Y-102047619D01*
X212776190Y-102142857D01*
X212776190Y-102523809D01*
X212252380Y-101095238D02*
X212252380Y-101285714D01*
X212300000Y-101380952D01*
X212347619Y-101428571D01*
X212490476Y-101523809D01*
X212680952Y-101571428D01*
X213061904Y-101571428D01*
X213157142Y-101523809D01*
X213204761Y-101476190D01*
X213252380Y-101380952D01*
X213252380Y-101190476D01*
X213204761Y-101095238D01*
X213157142Y-101047619D01*
X213061904Y-101000000D01*
X212823809Y-101000000D01*
X212728571Y-101047619D01*
X212680952Y-101095238D01*
X212633333Y-101190476D01*
X212633333Y-101380952D01*
X212680952Y-101476190D01*
X212728571Y-101523809D01*
X212823809Y-101571428D01*
%TO.C,DISP5*%
X213252380Y-91752380D02*
X212252380Y-91752380D01*
X212252380Y-91514285D01*
X212300000Y-91371428D01*
X212395238Y-91276190D01*
X212490476Y-91228571D01*
X212680952Y-91180952D01*
X212823809Y-91180952D01*
X213014285Y-91228571D01*
X213109523Y-91276190D01*
X213204761Y-91371428D01*
X213252380Y-91514285D01*
X213252380Y-91752380D01*
X213252380Y-90752380D02*
X212252380Y-90752380D01*
X213204761Y-90323809D02*
X213252380Y-90180952D01*
X213252380Y-89942857D01*
X213204761Y-89847619D01*
X213157142Y-89800000D01*
X213061904Y-89752380D01*
X212966666Y-89752380D01*
X212871428Y-89800000D01*
X212823809Y-89847619D01*
X212776190Y-89942857D01*
X212728571Y-90133333D01*
X212680952Y-90228571D01*
X212633333Y-90276190D01*
X212538095Y-90323809D01*
X212442857Y-90323809D01*
X212347619Y-90276190D01*
X212300000Y-90228571D01*
X212252380Y-90133333D01*
X212252380Y-89895238D01*
X212300000Y-89752380D01*
X213252380Y-89323809D02*
X212252380Y-89323809D01*
X212252380Y-88942857D01*
X212300000Y-88847619D01*
X212347619Y-88800000D01*
X212442857Y-88752380D01*
X212585714Y-88752380D01*
X212680952Y-88800000D01*
X212728571Y-88847619D01*
X212776190Y-88942857D01*
X212776190Y-89323809D01*
X212252380Y-87847619D02*
X212252380Y-88323809D01*
X212728571Y-88371428D01*
X212680952Y-88323809D01*
X212633333Y-88228571D01*
X212633333Y-87990476D01*
X212680952Y-87895238D01*
X212728571Y-87847619D01*
X212823809Y-87800000D01*
X213061904Y-87800000D01*
X213157142Y-87847619D01*
X213204761Y-87895238D01*
X213252380Y-87990476D01*
X213252380Y-88228571D01*
X213204761Y-88323809D01*
X213157142Y-88371428D01*
%TO.C,DISP4*%
X213252380Y-78552380D02*
X212252380Y-78552380D01*
X212252380Y-78314285D01*
X212300000Y-78171428D01*
X212395238Y-78076190D01*
X212490476Y-78028571D01*
X212680952Y-77980952D01*
X212823809Y-77980952D01*
X213014285Y-78028571D01*
X213109523Y-78076190D01*
X213204761Y-78171428D01*
X213252380Y-78314285D01*
X213252380Y-78552380D01*
X213252380Y-77552380D02*
X212252380Y-77552380D01*
X213204761Y-77123809D02*
X213252380Y-76980952D01*
X213252380Y-76742857D01*
X213204761Y-76647619D01*
X213157142Y-76600000D01*
X213061904Y-76552380D01*
X212966666Y-76552380D01*
X212871428Y-76600000D01*
X212823809Y-76647619D01*
X212776190Y-76742857D01*
X212728571Y-76933333D01*
X212680952Y-77028571D01*
X212633333Y-77076190D01*
X212538095Y-77123809D01*
X212442857Y-77123809D01*
X212347619Y-77076190D01*
X212300000Y-77028571D01*
X212252380Y-76933333D01*
X212252380Y-76695238D01*
X212300000Y-76552380D01*
X213252380Y-76123809D02*
X212252380Y-76123809D01*
X212252380Y-75742857D01*
X212300000Y-75647619D01*
X212347619Y-75600000D01*
X212442857Y-75552380D01*
X212585714Y-75552380D01*
X212680952Y-75600000D01*
X212728571Y-75647619D01*
X212776190Y-75742857D01*
X212776190Y-76123809D01*
X212585714Y-74695238D02*
X213252380Y-74695238D01*
X212204761Y-74933333D02*
X212919047Y-75171428D01*
X212919047Y-74552380D01*
%TO.C,DISP3*%
X213252380Y-65352380D02*
X212252380Y-65352380D01*
X212252380Y-65114285D01*
X212300000Y-64971428D01*
X212395238Y-64876190D01*
X212490476Y-64828571D01*
X212680952Y-64780952D01*
X212823809Y-64780952D01*
X213014285Y-64828571D01*
X213109523Y-64876190D01*
X213204761Y-64971428D01*
X213252380Y-65114285D01*
X213252380Y-65352380D01*
X213252380Y-64352380D02*
X212252380Y-64352380D01*
X213204761Y-63923809D02*
X213252380Y-63780952D01*
X213252380Y-63542857D01*
X213204761Y-63447619D01*
X213157142Y-63400000D01*
X213061904Y-63352380D01*
X212966666Y-63352380D01*
X212871428Y-63400000D01*
X212823809Y-63447619D01*
X212776190Y-63542857D01*
X212728571Y-63733333D01*
X212680952Y-63828571D01*
X212633333Y-63876190D01*
X212538095Y-63923809D01*
X212442857Y-63923809D01*
X212347619Y-63876190D01*
X212300000Y-63828571D01*
X212252380Y-63733333D01*
X212252380Y-63495238D01*
X212300000Y-63352380D01*
X213252380Y-62923809D02*
X212252380Y-62923809D01*
X212252380Y-62542857D01*
X212300000Y-62447619D01*
X212347619Y-62400000D01*
X212442857Y-62352380D01*
X212585714Y-62352380D01*
X212680952Y-62400000D01*
X212728571Y-62447619D01*
X212776190Y-62542857D01*
X212776190Y-62923809D01*
X212252380Y-62019047D02*
X212252380Y-61400000D01*
X212633333Y-61733333D01*
X212633333Y-61590476D01*
X212680952Y-61495238D01*
X212728571Y-61447619D01*
X212823809Y-61400000D01*
X213061904Y-61400000D01*
X213157142Y-61447619D01*
X213204761Y-61495238D01*
X213252380Y-61590476D01*
X213252380Y-61876190D01*
X213204761Y-61971428D01*
X213157142Y-62019047D01*
%TO.C,DISP2*%
X213252380Y-52152380D02*
X212252380Y-52152380D01*
X212252380Y-51914285D01*
X212300000Y-51771428D01*
X212395238Y-51676190D01*
X212490476Y-51628571D01*
X212680952Y-51580952D01*
X212823809Y-51580952D01*
X213014285Y-51628571D01*
X213109523Y-51676190D01*
X213204761Y-51771428D01*
X213252380Y-51914285D01*
X213252380Y-52152380D01*
X213252380Y-51152380D02*
X212252380Y-51152380D01*
X213204761Y-50723809D02*
X213252380Y-50580952D01*
X213252380Y-50342857D01*
X213204761Y-50247619D01*
X213157142Y-50200000D01*
X213061904Y-50152380D01*
X212966666Y-50152380D01*
X212871428Y-50200000D01*
X212823809Y-50247619D01*
X212776190Y-50342857D01*
X212728571Y-50533333D01*
X212680952Y-50628571D01*
X212633333Y-50676190D01*
X212538095Y-50723809D01*
X212442857Y-50723809D01*
X212347619Y-50676190D01*
X212300000Y-50628571D01*
X212252380Y-50533333D01*
X212252380Y-50295238D01*
X212300000Y-50152380D01*
X213252380Y-49723809D02*
X212252380Y-49723809D01*
X212252380Y-49342857D01*
X212300000Y-49247619D01*
X212347619Y-49200000D01*
X212442857Y-49152380D01*
X212585714Y-49152380D01*
X212680952Y-49200000D01*
X212728571Y-49247619D01*
X212776190Y-49342857D01*
X212776190Y-49723809D01*
X212347619Y-48771428D02*
X212300000Y-48723809D01*
X212252380Y-48628571D01*
X212252380Y-48390476D01*
X212300000Y-48295238D01*
X212347619Y-48247619D01*
X212442857Y-48200000D01*
X212538095Y-48200000D01*
X212680952Y-48247619D01*
X213252380Y-48819047D01*
X213252380Y-48200000D01*
%TO.C,DISP1*%
X213252380Y-38952380D02*
X212252380Y-38952380D01*
X212252380Y-38714285D01*
X212300000Y-38571428D01*
X212395238Y-38476190D01*
X212490476Y-38428571D01*
X212680952Y-38380952D01*
X212823809Y-38380952D01*
X213014285Y-38428571D01*
X213109523Y-38476190D01*
X213204761Y-38571428D01*
X213252380Y-38714285D01*
X213252380Y-38952380D01*
X213252380Y-37952380D02*
X212252380Y-37952380D01*
X213204761Y-37523809D02*
X213252380Y-37380952D01*
X213252380Y-37142857D01*
X213204761Y-37047619D01*
X213157142Y-37000000D01*
X213061904Y-36952380D01*
X212966666Y-36952380D01*
X212871428Y-37000000D01*
X212823809Y-37047619D01*
X212776190Y-37142857D01*
X212728571Y-37333333D01*
X212680952Y-37428571D01*
X212633333Y-37476190D01*
X212538095Y-37523809D01*
X212442857Y-37523809D01*
X212347619Y-37476190D01*
X212300000Y-37428571D01*
X212252380Y-37333333D01*
X212252380Y-37095238D01*
X212300000Y-36952380D01*
X213252380Y-36523809D02*
X212252380Y-36523809D01*
X212252380Y-36142857D01*
X212300000Y-36047619D01*
X212347619Y-36000000D01*
X212442857Y-35952380D01*
X212585714Y-35952380D01*
X212680952Y-36000000D01*
X212728571Y-36047619D01*
X212776190Y-36142857D01*
X212776190Y-36523809D01*
X213252380Y-35000000D02*
X213252380Y-35571428D01*
X213252380Y-35285714D02*
X212252380Y-35285714D01*
X212395238Y-35380952D01*
X212490476Y-35476190D01*
X212538095Y-35571428D01*
%TO.C,R2*%
X223452380Y-50766666D02*
X222976190Y-51100000D01*
X223452380Y-51338095D02*
X222452380Y-51338095D01*
X222452380Y-50957142D01*
X222500000Y-50861904D01*
X222547619Y-50814285D01*
X222642857Y-50766666D01*
X222785714Y-50766666D01*
X222880952Y-50814285D01*
X222928571Y-50861904D01*
X222976190Y-50957142D01*
X222976190Y-51338095D01*
X222547619Y-50385714D02*
X222500000Y-50338095D01*
X222452380Y-50242857D01*
X222452380Y-50004761D01*
X222500000Y-49909523D01*
X222547619Y-49861904D01*
X222642857Y-49814285D01*
X222738095Y-49814285D01*
X222880952Y-49861904D01*
X223452380Y-50433333D01*
X223452380Y-49814285D01*
%TO.C,R1*%
X221802380Y-44166666D02*
X221326190Y-44500000D01*
X221802380Y-44738095D02*
X220802380Y-44738095D01*
X220802380Y-44357142D01*
X220850000Y-44261904D01*
X220897619Y-44214285D01*
X220992857Y-44166666D01*
X221135714Y-44166666D01*
X221230952Y-44214285D01*
X221278571Y-44261904D01*
X221326190Y-44357142D01*
X221326190Y-44738095D01*
X221802380Y-43214285D02*
X221802380Y-43785714D01*
X221802380Y-43500000D02*
X220802380Y-43500000D01*
X220945238Y-43595238D01*
X221040476Y-43690476D01*
X221088095Y-43785714D01*
%TO.C,C3*%
X223357142Y-88566666D02*
X223404761Y-88614285D01*
X223452380Y-88757142D01*
X223452380Y-88852380D01*
X223404761Y-88995238D01*
X223309523Y-89090476D01*
X223214285Y-89138095D01*
X223023809Y-89185714D01*
X222880952Y-89185714D01*
X222690476Y-89138095D01*
X222595238Y-89090476D01*
X222500000Y-88995238D01*
X222452380Y-88852380D01*
X222452380Y-88757142D01*
X222500000Y-88614285D01*
X222547619Y-88566666D01*
X222452380Y-88233333D02*
X222452380Y-87614285D01*
X222833333Y-87947619D01*
X222833333Y-87804761D01*
X222880952Y-87709523D01*
X222928571Y-87661904D01*
X223023809Y-87614285D01*
X223261904Y-87614285D01*
X223357142Y-87661904D01*
X223404761Y-87709523D01*
X223452380Y-87804761D01*
X223452380Y-88090476D01*
X223404761Y-88185714D01*
X223357142Y-88233333D01*
%TO.C,C2*%
X221757142Y-81966666D02*
X221804761Y-82014285D01*
X221852380Y-82157142D01*
X221852380Y-82252380D01*
X221804761Y-82395238D01*
X221709523Y-82490476D01*
X221614285Y-82538095D01*
X221423809Y-82585714D01*
X221280952Y-82585714D01*
X221090476Y-82538095D01*
X220995238Y-82490476D01*
X220900000Y-82395238D01*
X220852380Y-82252380D01*
X220852380Y-82157142D01*
X220900000Y-82014285D01*
X220947619Y-81966666D01*
X220947619Y-81585714D02*
X220900000Y-81538095D01*
X220852380Y-81442857D01*
X220852380Y-81204761D01*
X220900000Y-81109523D01*
X220947619Y-81061904D01*
X221042857Y-81014285D01*
X221138095Y-81014285D01*
X221280952Y-81061904D01*
X221852380Y-81633333D01*
X221852380Y-81014285D01*
%TD*%
M02*
