%TF.GenerationSoftware,KiCad,Pcbnew,(5.1.8)-1*%
%TF.CreationDate,2020-12-10T23:44:26+08:00*%
%TF.ProjectId,HEMAC_DISP,48454d41-435f-4444-9953-502e6b696361,rev?*%
%TF.SameCoordinates,Original*%
%TF.FileFunction,Copper,L2,Bot*%
%TF.FilePolarity,Positive*%
%FSLAX46Y46*%
G04 Gerber Fmt 4.6, Leading zero omitted, Abs format (unit mm)*
G04 Created by KiCad (PCBNEW (5.1.8)-1) date 2020-12-10 23:44:26*
%MOMM*%
%LPD*%
G01*
G04 APERTURE LIST*
%TA.AperFunction,ComponentPad*%
%ADD10C,0.500000*%
%TD*%
%TA.AperFunction,SMDPad,CuDef*%
%ADD11R,1.870000X0.670000*%
%TD*%
%TA.AperFunction,ComponentPad*%
%ADD12R,1.700000X1.700000*%
%TD*%
%TA.AperFunction,ComponentPad*%
%ADD13O,1.700000X1.700000*%
%TD*%
%TA.AperFunction,SMDPad,CuDef*%
%ADD14R,1.250000X1.300000*%
%TD*%
%TA.AperFunction,ViaPad*%
%ADD15C,0.500000*%
%TD*%
%TA.AperFunction,Conductor*%
%ADD16C,0.152000*%
%TD*%
%TA.AperFunction,Conductor*%
%ADD17C,0.100000*%
%TD*%
G04 APERTURE END LIST*
D10*
%TO.P,DISP6,10*%
%TO.N,/SEG7*%
X214120000Y-98000000D03*
%TO.P,DISP6,9*%
%TO.N,/SEG6*%
X215560000Y-98000000D03*
%TO.P,DISP6,8*%
%TO.N,/GRID6*%
X217000000Y-98000000D03*
%TO.P,DISP6,7*%
%TO.N,/SEG1*%
X218440000Y-98000000D03*
%TO.P,DISP6,6*%
%TO.N,/SEG2*%
X219880000Y-98000000D03*
%TO.P,DISP6,5*%
%TO.N,/SEG8*%
X219880000Y-108000000D03*
%TO.P,DISP6,4*%
%TO.N,/SEG3*%
X218440000Y-108000000D03*
%TO.P,DISP6,3*%
%TO.N,/GRID6*%
X217000000Y-108000000D03*
%TO.P,DISP6,2*%
%TO.N,/SEG4*%
X215560000Y-108000000D03*
%TO.P,DISP6,1*%
%TO.N,/SEG5*%
X214120000Y-108000000D03*
%TD*%
%TO.P,DISP5,10*%
%TO.N,/SEG7*%
X214120000Y-84800000D03*
%TO.P,DISP5,9*%
%TO.N,/SEG6*%
X215560000Y-84800000D03*
%TO.P,DISP5,8*%
%TO.N,/GRID5*%
X217000000Y-84800000D03*
%TO.P,DISP5,7*%
%TO.N,/SEG1*%
X218440000Y-84800000D03*
%TO.P,DISP5,6*%
%TO.N,/SEG2*%
X219880000Y-84800000D03*
%TO.P,DISP5,5*%
%TO.N,/SEG8*%
X219880000Y-94800000D03*
%TO.P,DISP5,4*%
%TO.N,/SEG3*%
X218440000Y-94800000D03*
%TO.P,DISP5,3*%
%TO.N,/GRID5*%
X217000000Y-94800000D03*
%TO.P,DISP5,2*%
%TO.N,/SEG4*%
X215560000Y-94800000D03*
%TO.P,DISP5,1*%
%TO.N,/SEG5*%
X214120000Y-94800000D03*
%TD*%
%TO.P,DISP4,10*%
%TO.N,/SEG7*%
X214120000Y-71600000D03*
%TO.P,DISP4,9*%
%TO.N,/SEG6*%
X215560000Y-71600000D03*
%TO.P,DISP4,8*%
%TO.N,/GRID4*%
X217000000Y-71600000D03*
%TO.P,DISP4,7*%
%TO.N,/SEG1*%
X218440000Y-71600000D03*
%TO.P,DISP4,6*%
%TO.N,/SEG2*%
X219880000Y-71600000D03*
%TO.P,DISP4,5*%
%TO.N,/SEG8*%
X219880000Y-81600000D03*
%TO.P,DISP4,4*%
%TO.N,/SEG3*%
X218440000Y-81600000D03*
%TO.P,DISP4,3*%
%TO.N,/GRID4*%
X217000000Y-81600000D03*
%TO.P,DISP4,2*%
%TO.N,/SEG4*%
X215560000Y-81600000D03*
%TO.P,DISP4,1*%
%TO.N,/SEG5*%
X214120000Y-81600000D03*
%TD*%
%TO.P,DISP3,10*%
%TO.N,/SEG7*%
X214120000Y-58400000D03*
%TO.P,DISP3,9*%
%TO.N,/SEG6*%
X215560000Y-58400000D03*
%TO.P,DISP3,8*%
%TO.N,/GRID3*%
X217000000Y-58400000D03*
%TO.P,DISP3,7*%
%TO.N,/SEG1*%
X218440000Y-58400000D03*
%TO.P,DISP3,6*%
%TO.N,/SEG2*%
X219880000Y-58400000D03*
%TO.P,DISP3,5*%
%TO.N,/SEG8*%
X219880000Y-68400000D03*
%TO.P,DISP3,4*%
%TO.N,/SEG3*%
X218440000Y-68400000D03*
%TO.P,DISP3,3*%
%TO.N,/GRID3*%
X217000000Y-68400000D03*
%TO.P,DISP3,2*%
%TO.N,/SEG4*%
X215560000Y-68400000D03*
%TO.P,DISP3,1*%
%TO.N,/SEG5*%
X214120000Y-68400000D03*
%TD*%
%TO.P,DISP2,10*%
%TO.N,/SEG7*%
X214120000Y-45200000D03*
%TO.P,DISP2,9*%
%TO.N,/SEG6*%
X215560000Y-45200000D03*
%TO.P,DISP2,8*%
%TO.N,/GRID2*%
X217000000Y-45200000D03*
%TO.P,DISP2,7*%
%TO.N,/SEG1*%
X218440000Y-45200000D03*
%TO.P,DISP2,6*%
%TO.N,/SEG2*%
X219880000Y-45200000D03*
%TO.P,DISP2,5*%
%TO.N,/SEG8*%
X219880000Y-55200000D03*
%TO.P,DISP2,4*%
%TO.N,/SEG3*%
X218440000Y-55200000D03*
%TO.P,DISP2,3*%
%TO.N,/GRID2*%
X217000000Y-55200000D03*
%TO.P,DISP2,2*%
%TO.N,/SEG4*%
X215560000Y-55200000D03*
%TO.P,DISP2,1*%
%TO.N,/SEG5*%
X214120000Y-55200000D03*
%TD*%
%TO.P,DISP1,10*%
%TO.N,/SEG7*%
X214120000Y-32000000D03*
%TO.P,DISP1,9*%
%TO.N,/SEG6*%
X215560000Y-32000000D03*
%TO.P,DISP1,8*%
%TO.N,/GRID1*%
X217000000Y-32000000D03*
%TO.P,DISP1,7*%
%TO.N,/SEG1*%
X218440000Y-32000000D03*
%TO.P,DISP1,6*%
%TO.N,/SEG2*%
X219880000Y-32000000D03*
%TO.P,DISP1,5*%
%TO.N,/SEG8*%
X219880000Y-42000000D03*
%TO.P,DISP1,4*%
%TO.N,/SEG3*%
X218440000Y-42000000D03*
%TO.P,DISP1,3*%
%TO.N,/GRID1*%
X217000000Y-42000000D03*
%TO.P,DISP1,2*%
%TO.N,/SEG4*%
X215560000Y-42000000D03*
%TO.P,DISP1,1*%
%TO.N,/SEG5*%
X214120000Y-42000000D03*
%TD*%
D11*
%TO.P,U1,28*%
%TO.N,Net-(U1-Pad28)*%
X221700000Y-108755000D03*
%TO.P,U1,27*%
%TO.N,Net-(U1-Pad27)*%
X221700000Y-107485000D03*
%TO.P,U1,26*%
%TO.N,Net-(U1-Pad26)*%
X221700000Y-106215000D03*
%TO.P,U1,25*%
%TO.N,Net-(U1-Pad25)*%
X221700000Y-104945000D03*
%TO.P,U1,24*%
%TO.N,Net-(U1-Pad24)*%
X221700000Y-103675000D03*
%TO.P,U1,23*%
%TO.N,/GRID6*%
X221700000Y-102405000D03*
%TO.P,U1,22*%
%TO.N,/GRID5*%
X221700000Y-101135000D03*
%TO.P,U1,21*%
%TO.N,/GRID4*%
X221700000Y-99865000D03*
%TO.P,U1,20*%
%TO.N,/GRID3*%
X221700000Y-98595000D03*
%TO.P,U1,19*%
%TO.N,/GRID2*%
X221700000Y-97325000D03*
%TO.P,U1,18*%
%TO.N,/GRID1*%
X221700000Y-96055000D03*
%TO.P,U1,17*%
%TO.N,+5V*%
X221700000Y-94785000D03*
%TO.P,U1,16*%
%TO.N,/SEG8*%
X221700000Y-93515000D03*
%TO.P,U1,15*%
%TO.N,/SEG7*%
X221700000Y-92245000D03*
%TO.P,U1,14*%
%TO.N,/SEG6*%
X212300000Y-92245000D03*
%TO.P,U1,13*%
%TO.N,/SEG5*%
X212300000Y-93515000D03*
%TO.P,U1,12*%
%TO.N,/SEG4*%
X212300000Y-94785000D03*
%TO.P,U1,11*%
%TO.N,/SEG3*%
X212300000Y-96055000D03*
%TO.P,U1,10*%
%TO.N,/SEG2*%
X212300000Y-97325000D03*
%TO.P,U1,9*%
%TO.N,/SEG1*%
X212300000Y-98595000D03*
%TO.P,U1,8*%
%TO.N,/SCLK*%
X212300000Y-99865000D03*
%TO.P,U1,7*%
%TO.N,/DIN*%
X212300000Y-101135000D03*
%TO.P,U1,6*%
%TO.N,GND*%
X212300000Y-102405000D03*
%TO.P,U1,5*%
%TO.N,Net-(U1-Pad5)*%
X212300000Y-103675000D03*
%TO.P,U1,4*%
%TO.N,Net-(U1-Pad4)*%
X212300000Y-104945000D03*
%TO.P,U1,3*%
%TO.N,Net-(U1-Pad3)*%
X212300000Y-106215000D03*
%TO.P,U1,2*%
%TO.N,Net-(U1-Pad2)*%
X212300000Y-107485000D03*
%TO.P,U1,1*%
%TO.N,Net-(U1-Pad1)*%
X212300000Y-108755000D03*
%TD*%
D12*
%TO.P,J1,1*%
%TO.N,+5V*%
X222000000Y-40000000D03*
D13*
%TO.P,J1,2*%
%TO.N,/DIN*%
X222000000Y-37460000D03*
%TO.P,J1,3*%
%TO.N,/SCLK*%
X222000000Y-34920000D03*
%TO.P,J1,4*%
%TO.N,GND*%
X222000000Y-32380000D03*
%TD*%
D14*
%TO.P,C1,1*%
%TO.N,+5V*%
X223000000Y-80500000D03*
%TO.P,C1,2*%
%TO.N,GND*%
X223000000Y-82500000D03*
%TD*%
D15*
%TO.N,+5V*%
X221857300Y-84500000D03*
X221972600Y-80500000D03*
X221524300Y-83299000D03*
X223000000Y-47902400D03*
%TO.N,GND*%
X222100000Y-50700000D03*
X214000000Y-102400000D03*
X222100000Y-53100000D03*
X222200000Y-55900000D03*
X222200000Y-58800000D03*
X222200000Y-62200000D03*
X222200000Y-65500000D03*
X222200000Y-69300000D03*
X222200000Y-73700000D03*
X222200000Y-77700000D03*
X221500000Y-86300000D03*
X214000000Y-104700000D03*
X215700000Y-102400000D03*
X219000000Y-103100000D03*
X219000000Y-100900000D03*
X219000000Y-105700000D03*
X211400000Y-86300000D03*
X211400000Y-79000000D03*
%TO.N,/SEG5*%
X214120000Y-92951600D03*
X214598400Y-91573100D03*
X212310800Y-56052400D03*
X212310800Y-68400000D03*
%TO.N,/SEG4*%
X216038400Y-66148500D03*
%TO.N,/SEG3*%
X219005100Y-43402400D03*
X214120000Y-99881600D03*
%TO.N,/SEG8*%
X219880000Y-43402400D03*
X219880000Y-96202400D03*
X220836800Y-91284500D03*
%TO.N,/SEG2*%
X221400000Y-56880000D03*
X213919600Y-90600000D03*
%TO.N,/SEG1*%
X213676500Y-99402400D03*
X217283200Y-99402400D03*
X218440000Y-99402400D03*
X218440000Y-43760100D03*
X219842400Y-99402400D03*
X218440000Y-96560100D03*
%TO.N,/SEG6*%
X214603200Y-92245000D03*
X216038400Y-92245000D03*
%TO.N,/SEG7*%
X221700000Y-88204800D03*
%TO.N,/GRID4*%
X223300000Y-99600000D03*
%TO.N,/DIN*%
X213637400Y-100321700D03*
%TO.N,/SCLK*%
X214603200Y-56994100D03*
%TD*%
D16*
%TO.N,+5V*%
X221700000Y-94785000D02*
X222023100Y-94785000D01*
X222023100Y-94785000D02*
X222863400Y-93944700D01*
X222863400Y-93944700D02*
X222863400Y-85506100D01*
X221857300Y-84500000D02*
X221857300Y-83632000D01*
X221857300Y-83632000D02*
X221524300Y-83299000D01*
X223000000Y-80500000D02*
X223000000Y-47902400D01*
X222863400Y-85506100D02*
X221857300Y-84500000D01*
X221972600Y-80500000D02*
X223000000Y-80500000D01*
%TO.N,GND*%
X213995000Y-102405000D02*
X214000000Y-102400000D01*
X212300000Y-102405000D02*
X213995000Y-102405000D01*
%TO.N,/SEG5*%
X214120000Y-108000000D02*
X214598400Y-107521600D01*
X214598400Y-107521600D02*
X214598400Y-95278400D01*
X214598400Y-95278400D02*
X214120000Y-94800000D01*
X212300000Y-93515000D02*
X212863400Y-92951600D01*
X212863400Y-92951600D02*
X214120000Y-92951600D01*
X214120000Y-42000000D02*
X213641600Y-42478400D01*
X213641600Y-42478400D02*
X213641600Y-54721600D01*
X213641600Y-54721600D02*
X214120000Y-55200000D01*
X214120000Y-81600000D02*
X214598400Y-82078400D01*
X214598400Y-82078400D02*
X214598400Y-91573100D01*
X213641600Y-54721600D02*
X212310800Y-56052400D01*
X214120000Y-68400000D02*
X212310800Y-68400000D01*
%TO.N,/SEG4*%
X212300000Y-94785000D02*
X212763400Y-94321600D01*
X212763400Y-94321600D02*
X215081600Y-94321600D01*
X215081600Y-94321600D02*
X215560000Y-94800000D01*
X215081600Y-94321600D02*
X215081600Y-82078400D01*
X215081600Y-82078400D02*
X215560000Y-81600000D01*
X215560000Y-55200000D02*
X216038400Y-54721600D01*
X216038400Y-54721600D02*
X216038400Y-42478400D01*
X216038400Y-42478400D02*
X215560000Y-42000000D01*
X215560000Y-68400000D02*
X216038400Y-67921600D01*
X216038400Y-67921600D02*
X216038400Y-54721600D01*
X215560000Y-108000000D02*
X215081600Y-107521600D01*
X215081600Y-107521600D02*
X215081600Y-94321600D01*
%TO.N,/GRID1*%
X217000000Y-42000000D02*
X217000000Y-32000000D01*
X221700000Y-96055000D02*
X222023100Y-96055000D01*
X222023100Y-96055000D02*
X223167800Y-94910300D01*
X223167800Y-84265900D02*
X220921600Y-82019700D01*
X223167800Y-94910300D02*
X223167800Y-84265900D01*
X220921600Y-82019700D02*
X220921600Y-46918300D01*
X220921600Y-46918300D02*
X217000000Y-42996700D01*
X217000000Y-42996700D02*
X217000000Y-42000000D01*
%TO.N,/SEG3*%
X218440000Y-81600000D02*
X218918400Y-81121600D01*
X218918400Y-81121600D02*
X218918400Y-68878400D01*
X218918400Y-68878400D02*
X218440000Y-68400000D01*
X218918400Y-68878400D02*
X218918400Y-55678400D01*
X218918400Y-55678400D02*
X218440000Y-55200000D01*
X218440000Y-42000000D02*
X218440000Y-42837300D01*
X218440000Y-42837300D02*
X219005100Y-43402400D01*
X212300000Y-96055000D02*
X212623100Y-96055000D01*
X212623100Y-96055000D02*
X213463400Y-96895300D01*
X213463400Y-96895300D02*
X213463400Y-98512600D01*
X213463400Y-98512600D02*
X214294000Y-99343200D01*
X214294000Y-99343200D02*
X214294000Y-99707600D01*
X214294000Y-99707600D02*
X214120000Y-99881600D01*
X218440000Y-93560000D02*
X218440000Y-94800000D01*
X218918400Y-93081600D02*
X218440000Y-93560000D01*
X218918400Y-81121600D02*
X218918400Y-93081600D01*
%TO.N,/SEG8*%
X219880000Y-68400000D02*
X220358400Y-68878400D01*
X220358400Y-68878400D02*
X220358400Y-81121600D01*
X220358400Y-81121600D02*
X219880000Y-81600000D01*
X219880000Y-42000000D02*
X219880000Y-43402400D01*
X220358400Y-68878400D02*
X220358400Y-55678400D01*
X220358400Y-55678400D02*
X219880000Y-55200000D01*
X219880000Y-94800000D02*
X219880000Y-96202400D01*
X220836800Y-91284500D02*
X220836800Y-82556800D01*
X220836800Y-82556800D02*
X219880000Y-81600000D01*
X221165000Y-93515000D02*
X221700000Y-93515000D01*
X219880000Y-94800000D02*
X221165000Y-93515000D01*
%TO.N,/SEG2*%
X219880000Y-58400000D02*
X219401600Y-58878400D01*
X219401600Y-58878400D02*
X219401600Y-71121600D01*
X219401600Y-71121600D02*
X219880000Y-71600000D01*
X219401600Y-71121600D02*
X219401600Y-84321600D01*
X219401600Y-84321600D02*
X219880000Y-84800000D01*
X219880000Y-32000000D02*
X220358400Y-32478400D01*
X220358400Y-32478400D02*
X220358400Y-44721600D01*
X220358400Y-44721600D02*
X219880000Y-45200000D01*
X219880000Y-45200000D02*
X221400000Y-46720000D01*
X221400000Y-46720000D02*
X221400000Y-56880000D01*
X211213000Y-97325000D02*
X210800000Y-96912000D01*
X212300000Y-97325000D02*
X211213000Y-97325000D01*
X210800000Y-96912000D02*
X210800000Y-92064598D01*
X210800000Y-92064598D02*
X210800000Y-91300000D01*
X211500000Y-90600000D02*
X213919600Y-90600000D01*
X210800000Y-91300000D02*
X211500000Y-90600000D01*
X219880000Y-98000000D02*
X219100000Y-97220000D01*
X219222410Y-97097590D02*
X219222410Y-93377590D01*
X219100000Y-97220000D02*
X219222410Y-97097590D01*
X219880000Y-92720000D02*
X219880000Y-84800000D01*
X219222410Y-93377590D02*
X219880000Y-92720000D01*
%TO.N,/SEG1*%
X218440000Y-71600000D02*
X217961600Y-72078400D01*
X217961600Y-72078400D02*
X217961600Y-84321600D01*
X217961600Y-84321600D02*
X218440000Y-84800000D01*
X212300000Y-98595000D02*
X212869100Y-98595000D01*
X212869100Y-98595000D02*
X213676500Y-99402400D01*
X217283200Y-99402400D02*
X218440000Y-99402400D01*
X218440000Y-32000000D02*
X217961600Y-32478400D01*
X217961600Y-32478400D02*
X217961600Y-43281700D01*
X217961600Y-43281700D02*
X218440000Y-43760100D01*
X218440000Y-45200000D02*
X217961600Y-45678400D01*
X217961600Y-45678400D02*
X217961600Y-57921600D01*
X217961600Y-57921600D02*
X218440000Y-58400000D01*
X218440000Y-98000000D02*
X219842400Y-99402400D01*
X217961600Y-57921600D02*
X217961600Y-72078400D01*
X217961600Y-84321600D02*
X217961600Y-96081700D01*
X217961600Y-96081700D02*
X218440000Y-96560100D01*
%TO.N,/SEG6*%
X215560000Y-32000000D02*
X215081600Y-32478400D01*
X215081600Y-32478400D02*
X215081600Y-44721600D01*
X215081600Y-44721600D02*
X215560000Y-45200000D01*
X215560000Y-58400000D02*
X215081600Y-57921600D01*
X215081600Y-57921600D02*
X215081600Y-44721600D01*
X215560000Y-84800000D02*
X216038400Y-84321600D01*
X216038400Y-84321600D02*
X216038400Y-72078400D01*
X216038400Y-72078400D02*
X215560000Y-71600000D01*
X215081600Y-57921600D02*
X215081600Y-71121600D01*
X215081600Y-71121600D02*
X215560000Y-71600000D01*
X215560000Y-98000000D02*
X216038400Y-97521600D01*
X216038400Y-97521600D02*
X216038400Y-84321600D01*
X212300000Y-92245000D02*
X214603200Y-92245000D01*
%TO.N,/SEG7*%
X214120000Y-71600000D02*
X214598400Y-71121600D01*
X214598400Y-71121600D02*
X214598400Y-58878400D01*
X214598400Y-58878400D02*
X214120000Y-58400000D01*
X214120000Y-71600000D02*
X213641600Y-72078400D01*
X213641600Y-72078400D02*
X213641600Y-84800000D01*
X214120000Y-32000000D02*
X214598400Y-32478400D01*
X214598400Y-32478400D02*
X214598400Y-44721600D01*
X214598400Y-44721600D02*
X214120000Y-45200000D01*
X221700000Y-88204800D02*
X221700000Y-92245000D01*
X214120000Y-58400000D02*
X213873900Y-58400000D01*
X214120000Y-84800000D02*
X213650000Y-84800000D01*
%TO.N,/GRID2*%
X221700000Y-97325000D02*
X221231700Y-97325000D01*
X221231700Y-97325000D02*
X220078300Y-98478400D01*
X220078300Y-98478400D02*
X219681700Y-98478400D01*
X219681700Y-98478400D02*
X217657200Y-96453900D01*
X217657200Y-96453900D02*
X217657200Y-55857200D01*
X217657200Y-55857200D02*
X217000000Y-55200000D01*
X217000000Y-55200000D02*
X217000000Y-45200000D01*
%TO.N,/GRID3*%
X217000000Y-58400000D02*
X217000000Y-68400000D01*
X221700000Y-98595000D02*
X221376900Y-98595000D01*
X221376900Y-98595000D02*
X220536600Y-99435300D01*
X220536600Y-99435300D02*
X220536600Y-100294700D01*
X220536600Y-100294700D02*
X220698300Y-100456400D01*
X220698300Y-100456400D02*
X222614500Y-100456400D01*
X222614500Y-100456400D02*
X222863400Y-100705300D01*
X222863400Y-100705300D02*
X222863400Y-106644700D01*
X222863400Y-106644700D02*
X222701700Y-106806400D01*
X222701700Y-106806400D02*
X220396900Y-106806400D01*
X220396900Y-106806400D02*
X218724900Y-108478400D01*
X218724900Y-108478400D02*
X216801700Y-108478400D01*
X216801700Y-108478400D02*
X216342800Y-108019500D01*
X216342800Y-108019500D02*
X216342800Y-98226600D01*
X216342800Y-98226600D02*
X216521600Y-98047800D01*
X216521600Y-98047800D02*
X216521600Y-68878400D01*
X216521600Y-68878400D02*
X217000000Y-68400000D01*
%TO.N,/GRID4*%
X217000000Y-81600000D02*
X217000000Y-71600000D01*
X221700000Y-99865000D02*
X222023100Y-99865000D01*
X223035000Y-99865000D02*
X223300000Y-99600000D01*
X221700000Y-99865000D02*
X223035000Y-99865000D01*
%TO.N,/GRID5*%
X221700000Y-101135000D02*
X220898300Y-101135000D01*
X220898300Y-101135000D02*
X217000000Y-97236700D01*
X217000000Y-97236700D02*
X217000000Y-94800000D01*
X217000000Y-94800000D02*
X217000000Y-84800000D01*
%TO.N,/GRID6*%
X216804800Y-98195200D02*
X217000000Y-98000000D01*
X216804800Y-99600700D02*
X216804800Y-98195200D01*
X216800000Y-102400000D02*
X216804800Y-99600700D01*
X221376900Y-102405000D02*
X216800000Y-102400000D01*
X221700000Y-102405000D02*
X221376900Y-102405000D01*
X216800000Y-107800000D02*
X217000000Y-108000000D01*
X216800000Y-102400000D02*
X216800000Y-107800000D01*
%TO.N,/DIN*%
X213637400Y-100321700D02*
X212824100Y-101135000D01*
X212824100Y-101135000D02*
X212300000Y-101135000D01*
%TO.N,/SCLK*%
X212300000Y-99865000D02*
X211976900Y-99865000D01*
X210400000Y-57000000D02*
X214603200Y-56994100D01*
X210400000Y-99600000D02*
X210400000Y-57000000D01*
X210665000Y-99865000D02*
X210400000Y-99600000D01*
X212300000Y-99865000D02*
X210665000Y-99865000D01*
%TD*%
%TO.N,GND*%
X223674000Y-109674000D02*
X210326000Y-109674000D01*
X210326000Y-108420000D01*
X211135897Y-108420000D01*
X211135897Y-109090000D01*
X211140299Y-109134696D01*
X211153336Y-109177674D01*
X211174508Y-109217283D01*
X211203000Y-109252000D01*
X211237717Y-109280492D01*
X211277326Y-109301664D01*
X211320304Y-109314701D01*
X211365000Y-109319103D01*
X213235000Y-109319103D01*
X213279696Y-109314701D01*
X213322674Y-109301664D01*
X213362283Y-109280492D01*
X213397000Y-109252000D01*
X213425492Y-109217283D01*
X213446664Y-109177674D01*
X213459701Y-109134696D01*
X213464103Y-109090000D01*
X213464103Y-108420000D01*
X213459701Y-108375304D01*
X213446664Y-108332326D01*
X213425492Y-108292717D01*
X213397000Y-108258000D01*
X213362283Y-108229508D01*
X213322674Y-108208336D01*
X213279696Y-108195299D01*
X213235000Y-108190897D01*
X211365000Y-108190897D01*
X211320304Y-108195299D01*
X211277326Y-108208336D01*
X211237717Y-108229508D01*
X211203000Y-108258000D01*
X211174508Y-108292717D01*
X211153336Y-108332326D01*
X211140299Y-108375304D01*
X211135897Y-108420000D01*
X210326000Y-108420000D01*
X210326000Y-107150000D01*
X211135897Y-107150000D01*
X211135897Y-107820000D01*
X211140299Y-107864696D01*
X211153336Y-107907674D01*
X211174508Y-107947283D01*
X211203000Y-107982000D01*
X211237717Y-108010492D01*
X211277326Y-108031664D01*
X211320304Y-108044701D01*
X211365000Y-108049103D01*
X213235000Y-108049103D01*
X213279696Y-108044701D01*
X213322674Y-108031664D01*
X213362283Y-108010492D01*
X213397000Y-107982000D01*
X213425492Y-107947283D01*
X213446664Y-107907674D01*
X213459701Y-107864696D01*
X213464103Y-107820000D01*
X213464103Y-107150000D01*
X213459701Y-107105304D01*
X213446664Y-107062326D01*
X213425492Y-107022717D01*
X213397000Y-106988000D01*
X213362283Y-106959508D01*
X213322674Y-106938336D01*
X213279696Y-106925299D01*
X213235000Y-106920897D01*
X211365000Y-106920897D01*
X211320304Y-106925299D01*
X211277326Y-106938336D01*
X211237717Y-106959508D01*
X211203000Y-106988000D01*
X211174508Y-107022717D01*
X211153336Y-107062326D01*
X211140299Y-107105304D01*
X211135897Y-107150000D01*
X210326000Y-107150000D01*
X210326000Y-105880000D01*
X211135897Y-105880000D01*
X211135897Y-106550000D01*
X211140299Y-106594696D01*
X211153336Y-106637674D01*
X211174508Y-106677283D01*
X211203000Y-106712000D01*
X211237717Y-106740492D01*
X211277326Y-106761664D01*
X211320304Y-106774701D01*
X211365000Y-106779103D01*
X213235000Y-106779103D01*
X213279696Y-106774701D01*
X213322674Y-106761664D01*
X213362283Y-106740492D01*
X213397000Y-106712000D01*
X213425492Y-106677283D01*
X213446664Y-106637674D01*
X213459701Y-106594696D01*
X213464103Y-106550000D01*
X213464103Y-105880000D01*
X213459701Y-105835304D01*
X213446664Y-105792326D01*
X213425492Y-105752717D01*
X213397000Y-105718000D01*
X213362283Y-105689508D01*
X213322674Y-105668336D01*
X213279696Y-105655299D01*
X213235000Y-105650897D01*
X211365000Y-105650897D01*
X211320304Y-105655299D01*
X211277326Y-105668336D01*
X211237717Y-105689508D01*
X211203000Y-105718000D01*
X211174508Y-105752717D01*
X211153336Y-105792326D01*
X211140299Y-105835304D01*
X211135897Y-105880000D01*
X210326000Y-105880000D01*
X210326000Y-104610000D01*
X211135897Y-104610000D01*
X211135897Y-105280000D01*
X211140299Y-105324696D01*
X211153336Y-105367674D01*
X211174508Y-105407283D01*
X211203000Y-105442000D01*
X211237717Y-105470492D01*
X211277326Y-105491664D01*
X211320304Y-105504701D01*
X211365000Y-105509103D01*
X213235000Y-105509103D01*
X213279696Y-105504701D01*
X213322674Y-105491664D01*
X213362283Y-105470492D01*
X213397000Y-105442000D01*
X213425492Y-105407283D01*
X213446664Y-105367674D01*
X213459701Y-105324696D01*
X213464103Y-105280000D01*
X213464103Y-104610000D01*
X213459701Y-104565304D01*
X213446664Y-104522326D01*
X213425492Y-104482717D01*
X213397000Y-104448000D01*
X213362283Y-104419508D01*
X213322674Y-104398336D01*
X213279696Y-104385299D01*
X213235000Y-104380897D01*
X211365000Y-104380897D01*
X211320304Y-104385299D01*
X211277326Y-104398336D01*
X211237717Y-104419508D01*
X211203000Y-104448000D01*
X211174508Y-104482717D01*
X211153336Y-104522326D01*
X211140299Y-104565304D01*
X211135897Y-104610000D01*
X210326000Y-104610000D01*
X210326000Y-103340000D01*
X211135897Y-103340000D01*
X211135897Y-104010000D01*
X211140299Y-104054696D01*
X211153336Y-104097674D01*
X211174508Y-104137283D01*
X211203000Y-104172000D01*
X211237717Y-104200492D01*
X211277326Y-104221664D01*
X211320304Y-104234701D01*
X211365000Y-104239103D01*
X213235000Y-104239103D01*
X213279696Y-104234701D01*
X213322674Y-104221664D01*
X213362283Y-104200492D01*
X213397000Y-104172000D01*
X213425492Y-104137283D01*
X213446664Y-104097674D01*
X213459701Y-104054696D01*
X213464103Y-104010000D01*
X213464103Y-103340000D01*
X213459701Y-103295304D01*
X213446664Y-103252326D01*
X213425492Y-103212717D01*
X213397000Y-103178000D01*
X213362283Y-103149508D01*
X213322674Y-103128336D01*
X213279696Y-103115299D01*
X213235000Y-103110897D01*
X211365000Y-103110897D01*
X211320304Y-103115299D01*
X211277326Y-103128336D01*
X211237717Y-103149508D01*
X211203000Y-103178000D01*
X211174508Y-103212717D01*
X211153336Y-103252326D01*
X211140299Y-103295304D01*
X211135897Y-103340000D01*
X210326000Y-103340000D01*
X210326000Y-102740000D01*
X211133887Y-102740000D01*
X211138328Y-102785088D01*
X211151479Y-102828443D01*
X211172837Y-102868400D01*
X211201578Y-102903422D01*
X211236600Y-102932163D01*
X211276557Y-102953521D01*
X211319912Y-102966672D01*
X211365000Y-102971113D01*
X212241500Y-102970000D01*
X212299000Y-102912500D01*
X212299000Y-102406000D01*
X212301000Y-102406000D01*
X212301000Y-102912500D01*
X212358500Y-102970000D01*
X213235000Y-102971113D01*
X213280088Y-102966672D01*
X213323443Y-102953521D01*
X213363400Y-102932163D01*
X213398422Y-102903422D01*
X213427163Y-102868400D01*
X213448521Y-102828443D01*
X213461672Y-102785088D01*
X213466113Y-102740000D01*
X213465000Y-102463500D01*
X213407500Y-102406000D01*
X212301000Y-102406000D01*
X212299000Y-102406000D01*
X211192500Y-102406000D01*
X211135000Y-102463500D01*
X211133887Y-102740000D01*
X210326000Y-102740000D01*
X210326000Y-102070000D01*
X211133887Y-102070000D01*
X211135000Y-102346500D01*
X211192500Y-102404000D01*
X212299000Y-102404000D01*
X212299000Y-101897500D01*
X212301000Y-101897500D01*
X212301000Y-102404000D01*
X213407500Y-102404000D01*
X213465000Y-102346500D01*
X213466113Y-102070000D01*
X213461672Y-102024912D01*
X213448521Y-101981557D01*
X213427163Y-101941600D01*
X213398422Y-101906578D01*
X213363400Y-101877837D01*
X213323443Y-101856479D01*
X213280088Y-101843328D01*
X213235000Y-101838887D01*
X212358500Y-101840000D01*
X212301000Y-101897500D01*
X212299000Y-101897500D01*
X212241500Y-101840000D01*
X211365000Y-101838887D01*
X211319912Y-101843328D01*
X211276557Y-101856479D01*
X211236600Y-101877837D01*
X211201578Y-101906578D01*
X211172837Y-101941600D01*
X211151479Y-101981557D01*
X211138328Y-102024912D01*
X211133887Y-102070000D01*
X210326000Y-102070000D01*
X210326000Y-99955920D01*
X210439485Y-100069406D01*
X210449000Y-100081000D01*
X210495290Y-100118989D01*
X210548100Y-100147216D01*
X210548102Y-100147217D01*
X210605406Y-100164600D01*
X210665000Y-100170470D01*
X210679924Y-100169000D01*
X211135897Y-100169000D01*
X211135897Y-100200000D01*
X211140299Y-100244696D01*
X211153336Y-100287674D01*
X211174508Y-100327283D01*
X211203000Y-100362000D01*
X211237717Y-100390492D01*
X211277326Y-100411664D01*
X211320304Y-100424701D01*
X211365000Y-100429103D01*
X213100076Y-100429103D01*
X212958283Y-100570897D01*
X211365000Y-100570897D01*
X211320304Y-100575299D01*
X211277326Y-100588336D01*
X211237717Y-100609508D01*
X211203000Y-100638000D01*
X211174508Y-100672717D01*
X211153336Y-100712326D01*
X211140299Y-100755304D01*
X211135897Y-100800000D01*
X211135897Y-101470000D01*
X211140299Y-101514696D01*
X211153336Y-101557674D01*
X211174508Y-101597283D01*
X211203000Y-101632000D01*
X211237717Y-101660492D01*
X211277326Y-101681664D01*
X211320304Y-101694701D01*
X211365000Y-101699103D01*
X213235000Y-101699103D01*
X213279696Y-101694701D01*
X213322674Y-101681664D01*
X213362283Y-101660492D01*
X213397000Y-101632000D01*
X213425492Y-101597283D01*
X213446664Y-101557674D01*
X213459701Y-101514696D01*
X213464103Y-101470000D01*
X213464103Y-100924918D01*
X213589487Y-100799534D01*
X213590321Y-100799700D01*
X213684479Y-100799700D01*
X213776828Y-100781331D01*
X213863818Y-100745298D01*
X213942107Y-100692987D01*
X214008687Y-100626407D01*
X214060998Y-100548118D01*
X214097031Y-100461128D01*
X214115400Y-100368779D01*
X214115400Y-100359600D01*
X214167079Y-100359600D01*
X214259428Y-100341231D01*
X214294401Y-100326745D01*
X214294400Y-107395679D01*
X214167913Y-107522166D01*
X214167079Y-107522000D01*
X214072921Y-107522000D01*
X213980572Y-107540369D01*
X213893582Y-107576402D01*
X213815293Y-107628713D01*
X213748713Y-107695293D01*
X213696402Y-107773582D01*
X213660369Y-107860572D01*
X213642000Y-107952921D01*
X213642000Y-108047079D01*
X213660369Y-108139428D01*
X213696402Y-108226418D01*
X213748713Y-108304707D01*
X213815293Y-108371287D01*
X213893582Y-108423598D01*
X213980572Y-108459631D01*
X214072921Y-108478000D01*
X214167079Y-108478000D01*
X214259428Y-108459631D01*
X214346418Y-108423598D01*
X214424707Y-108371287D01*
X214491287Y-108304707D01*
X214543598Y-108226418D01*
X214579631Y-108139428D01*
X214598000Y-108047079D01*
X214598000Y-107952921D01*
X214597834Y-107952087D01*
X214802807Y-107747113D01*
X214814400Y-107737600D01*
X214840000Y-107706406D01*
X214865600Y-107737600D01*
X214877199Y-107747119D01*
X215082166Y-107952086D01*
X215082000Y-107952921D01*
X215082000Y-108047079D01*
X215100369Y-108139428D01*
X215136402Y-108226418D01*
X215188713Y-108304707D01*
X215255293Y-108371287D01*
X215333582Y-108423598D01*
X215420572Y-108459631D01*
X215512921Y-108478000D01*
X215607079Y-108478000D01*
X215699428Y-108459631D01*
X215786418Y-108423598D01*
X215864707Y-108371287D01*
X215931287Y-108304707D01*
X215983598Y-108226418D01*
X216019631Y-108139428D01*
X216038000Y-108047079D01*
X216038000Y-108026302D01*
X216043200Y-108079094D01*
X216048473Y-108096477D01*
X216060583Y-108136397D01*
X216088811Y-108189209D01*
X216126800Y-108235500D01*
X216138399Y-108245019D01*
X216576185Y-108682806D01*
X216585700Y-108694400D01*
X216631990Y-108732389D01*
X216684800Y-108760616D01*
X216684802Y-108760617D01*
X216742106Y-108778000D01*
X216801700Y-108783870D01*
X216816624Y-108782400D01*
X218709976Y-108782400D01*
X218724900Y-108783870D01*
X218784494Y-108778000D01*
X218841798Y-108760617D01*
X218894610Y-108732389D01*
X218940900Y-108694400D01*
X218950419Y-108682801D01*
X219441874Y-108191346D01*
X219456402Y-108226418D01*
X219508713Y-108304707D01*
X219575293Y-108371287D01*
X219653582Y-108423598D01*
X219740572Y-108459631D01*
X219832921Y-108478000D01*
X219927079Y-108478000D01*
X220019428Y-108459631D01*
X220106418Y-108423598D01*
X220111802Y-108420000D01*
X220535897Y-108420000D01*
X220535897Y-109090000D01*
X220540299Y-109134696D01*
X220553336Y-109177674D01*
X220574508Y-109217283D01*
X220603000Y-109252000D01*
X220637717Y-109280492D01*
X220677326Y-109301664D01*
X220720304Y-109314701D01*
X220765000Y-109319103D01*
X222635000Y-109319103D01*
X222679696Y-109314701D01*
X222722674Y-109301664D01*
X222762283Y-109280492D01*
X222797000Y-109252000D01*
X222825492Y-109217283D01*
X222846664Y-109177674D01*
X222859701Y-109134696D01*
X222864103Y-109090000D01*
X222864103Y-108420000D01*
X222859701Y-108375304D01*
X222846664Y-108332326D01*
X222825492Y-108292717D01*
X222797000Y-108258000D01*
X222762283Y-108229508D01*
X222722674Y-108208336D01*
X222679696Y-108195299D01*
X222635000Y-108190897D01*
X220765000Y-108190897D01*
X220720304Y-108195299D01*
X220677326Y-108208336D01*
X220637717Y-108229508D01*
X220603000Y-108258000D01*
X220574508Y-108292717D01*
X220553336Y-108332326D01*
X220540299Y-108375304D01*
X220535897Y-108420000D01*
X220111802Y-108420000D01*
X220184707Y-108371287D01*
X220251287Y-108304707D01*
X220303598Y-108226418D01*
X220339631Y-108139428D01*
X220358000Y-108047079D01*
X220358000Y-107952921D01*
X220339631Y-107860572D01*
X220303598Y-107773582D01*
X220251287Y-107695293D01*
X220184707Y-107628713D01*
X220106418Y-107576402D01*
X220071346Y-107561875D01*
X220522821Y-107110400D01*
X220539797Y-107110400D01*
X220535897Y-107150000D01*
X220535897Y-107820000D01*
X220540299Y-107864696D01*
X220553336Y-107907674D01*
X220574508Y-107947283D01*
X220603000Y-107982000D01*
X220637717Y-108010492D01*
X220677326Y-108031664D01*
X220720304Y-108044701D01*
X220765000Y-108049103D01*
X222635000Y-108049103D01*
X222679696Y-108044701D01*
X222722674Y-108031664D01*
X222762283Y-108010492D01*
X222797000Y-107982000D01*
X222825492Y-107947283D01*
X222846664Y-107907674D01*
X222859701Y-107864696D01*
X222864103Y-107820000D01*
X222864103Y-107150000D01*
X222859701Y-107105304D01*
X222849611Y-107072041D01*
X222871410Y-107060389D01*
X222917700Y-107022400D01*
X222927219Y-107010801D01*
X223067801Y-106870219D01*
X223079400Y-106860700D01*
X223117389Y-106814410D01*
X223145617Y-106761598D01*
X223157727Y-106721678D01*
X223163000Y-106704295D01*
X223164457Y-106689502D01*
X223167400Y-106659624D01*
X223167400Y-106659617D01*
X223168869Y-106644701D01*
X223167400Y-106629784D01*
X223167400Y-100720224D01*
X223168870Y-100705300D01*
X223163000Y-100645705D01*
X223145617Y-100588401D01*
X223124085Y-100548118D01*
X223117389Y-100535590D01*
X223079400Y-100489300D01*
X223067807Y-100479786D01*
X222853421Y-100265400D01*
X222859701Y-100244696D01*
X222864103Y-100200000D01*
X222864103Y-100169000D01*
X223020076Y-100169000D01*
X223035000Y-100170470D01*
X223094594Y-100164600D01*
X223097178Y-100163816D01*
X223151898Y-100147217D01*
X223204710Y-100118989D01*
X223251000Y-100081000D01*
X223253462Y-100078000D01*
X223347079Y-100078000D01*
X223439428Y-100059631D01*
X223526418Y-100023598D01*
X223604707Y-99971287D01*
X223671287Y-99904707D01*
X223674000Y-99900647D01*
X223674000Y-109674000D01*
%TA.AperFunction,Conductor*%
D17*
G36*
X223674000Y-109674000D02*
G01*
X210326000Y-109674000D01*
X210326000Y-108420000D01*
X211135897Y-108420000D01*
X211135897Y-109090000D01*
X211140299Y-109134696D01*
X211153336Y-109177674D01*
X211174508Y-109217283D01*
X211203000Y-109252000D01*
X211237717Y-109280492D01*
X211277326Y-109301664D01*
X211320304Y-109314701D01*
X211365000Y-109319103D01*
X213235000Y-109319103D01*
X213279696Y-109314701D01*
X213322674Y-109301664D01*
X213362283Y-109280492D01*
X213397000Y-109252000D01*
X213425492Y-109217283D01*
X213446664Y-109177674D01*
X213459701Y-109134696D01*
X213464103Y-109090000D01*
X213464103Y-108420000D01*
X213459701Y-108375304D01*
X213446664Y-108332326D01*
X213425492Y-108292717D01*
X213397000Y-108258000D01*
X213362283Y-108229508D01*
X213322674Y-108208336D01*
X213279696Y-108195299D01*
X213235000Y-108190897D01*
X211365000Y-108190897D01*
X211320304Y-108195299D01*
X211277326Y-108208336D01*
X211237717Y-108229508D01*
X211203000Y-108258000D01*
X211174508Y-108292717D01*
X211153336Y-108332326D01*
X211140299Y-108375304D01*
X211135897Y-108420000D01*
X210326000Y-108420000D01*
X210326000Y-107150000D01*
X211135897Y-107150000D01*
X211135897Y-107820000D01*
X211140299Y-107864696D01*
X211153336Y-107907674D01*
X211174508Y-107947283D01*
X211203000Y-107982000D01*
X211237717Y-108010492D01*
X211277326Y-108031664D01*
X211320304Y-108044701D01*
X211365000Y-108049103D01*
X213235000Y-108049103D01*
X213279696Y-108044701D01*
X213322674Y-108031664D01*
X213362283Y-108010492D01*
X213397000Y-107982000D01*
X213425492Y-107947283D01*
X213446664Y-107907674D01*
X213459701Y-107864696D01*
X213464103Y-107820000D01*
X213464103Y-107150000D01*
X213459701Y-107105304D01*
X213446664Y-107062326D01*
X213425492Y-107022717D01*
X213397000Y-106988000D01*
X213362283Y-106959508D01*
X213322674Y-106938336D01*
X213279696Y-106925299D01*
X213235000Y-106920897D01*
X211365000Y-106920897D01*
X211320304Y-106925299D01*
X211277326Y-106938336D01*
X211237717Y-106959508D01*
X211203000Y-106988000D01*
X211174508Y-107022717D01*
X211153336Y-107062326D01*
X211140299Y-107105304D01*
X211135897Y-107150000D01*
X210326000Y-107150000D01*
X210326000Y-105880000D01*
X211135897Y-105880000D01*
X211135897Y-106550000D01*
X211140299Y-106594696D01*
X211153336Y-106637674D01*
X211174508Y-106677283D01*
X211203000Y-106712000D01*
X211237717Y-106740492D01*
X211277326Y-106761664D01*
X211320304Y-106774701D01*
X211365000Y-106779103D01*
X213235000Y-106779103D01*
X213279696Y-106774701D01*
X213322674Y-106761664D01*
X213362283Y-106740492D01*
X213397000Y-106712000D01*
X213425492Y-106677283D01*
X213446664Y-106637674D01*
X213459701Y-106594696D01*
X213464103Y-106550000D01*
X213464103Y-105880000D01*
X213459701Y-105835304D01*
X213446664Y-105792326D01*
X213425492Y-105752717D01*
X213397000Y-105718000D01*
X213362283Y-105689508D01*
X213322674Y-105668336D01*
X213279696Y-105655299D01*
X213235000Y-105650897D01*
X211365000Y-105650897D01*
X211320304Y-105655299D01*
X211277326Y-105668336D01*
X211237717Y-105689508D01*
X211203000Y-105718000D01*
X211174508Y-105752717D01*
X211153336Y-105792326D01*
X211140299Y-105835304D01*
X211135897Y-105880000D01*
X210326000Y-105880000D01*
X210326000Y-104610000D01*
X211135897Y-104610000D01*
X211135897Y-105280000D01*
X211140299Y-105324696D01*
X211153336Y-105367674D01*
X211174508Y-105407283D01*
X211203000Y-105442000D01*
X211237717Y-105470492D01*
X211277326Y-105491664D01*
X211320304Y-105504701D01*
X211365000Y-105509103D01*
X213235000Y-105509103D01*
X213279696Y-105504701D01*
X213322674Y-105491664D01*
X213362283Y-105470492D01*
X213397000Y-105442000D01*
X213425492Y-105407283D01*
X213446664Y-105367674D01*
X213459701Y-105324696D01*
X213464103Y-105280000D01*
X213464103Y-104610000D01*
X213459701Y-104565304D01*
X213446664Y-104522326D01*
X213425492Y-104482717D01*
X213397000Y-104448000D01*
X213362283Y-104419508D01*
X213322674Y-104398336D01*
X213279696Y-104385299D01*
X213235000Y-104380897D01*
X211365000Y-104380897D01*
X211320304Y-104385299D01*
X211277326Y-104398336D01*
X211237717Y-104419508D01*
X211203000Y-104448000D01*
X211174508Y-104482717D01*
X211153336Y-104522326D01*
X211140299Y-104565304D01*
X211135897Y-104610000D01*
X210326000Y-104610000D01*
X210326000Y-103340000D01*
X211135897Y-103340000D01*
X211135897Y-104010000D01*
X211140299Y-104054696D01*
X211153336Y-104097674D01*
X211174508Y-104137283D01*
X211203000Y-104172000D01*
X211237717Y-104200492D01*
X211277326Y-104221664D01*
X211320304Y-104234701D01*
X211365000Y-104239103D01*
X213235000Y-104239103D01*
X213279696Y-104234701D01*
X213322674Y-104221664D01*
X213362283Y-104200492D01*
X213397000Y-104172000D01*
X213425492Y-104137283D01*
X213446664Y-104097674D01*
X213459701Y-104054696D01*
X213464103Y-104010000D01*
X213464103Y-103340000D01*
X213459701Y-103295304D01*
X213446664Y-103252326D01*
X213425492Y-103212717D01*
X213397000Y-103178000D01*
X213362283Y-103149508D01*
X213322674Y-103128336D01*
X213279696Y-103115299D01*
X213235000Y-103110897D01*
X211365000Y-103110897D01*
X211320304Y-103115299D01*
X211277326Y-103128336D01*
X211237717Y-103149508D01*
X211203000Y-103178000D01*
X211174508Y-103212717D01*
X211153336Y-103252326D01*
X211140299Y-103295304D01*
X211135897Y-103340000D01*
X210326000Y-103340000D01*
X210326000Y-102740000D01*
X211133887Y-102740000D01*
X211138328Y-102785088D01*
X211151479Y-102828443D01*
X211172837Y-102868400D01*
X211201578Y-102903422D01*
X211236600Y-102932163D01*
X211276557Y-102953521D01*
X211319912Y-102966672D01*
X211365000Y-102971113D01*
X212241500Y-102970000D01*
X212299000Y-102912500D01*
X212299000Y-102406000D01*
X212301000Y-102406000D01*
X212301000Y-102912500D01*
X212358500Y-102970000D01*
X213235000Y-102971113D01*
X213280088Y-102966672D01*
X213323443Y-102953521D01*
X213363400Y-102932163D01*
X213398422Y-102903422D01*
X213427163Y-102868400D01*
X213448521Y-102828443D01*
X213461672Y-102785088D01*
X213466113Y-102740000D01*
X213465000Y-102463500D01*
X213407500Y-102406000D01*
X212301000Y-102406000D01*
X212299000Y-102406000D01*
X211192500Y-102406000D01*
X211135000Y-102463500D01*
X211133887Y-102740000D01*
X210326000Y-102740000D01*
X210326000Y-102070000D01*
X211133887Y-102070000D01*
X211135000Y-102346500D01*
X211192500Y-102404000D01*
X212299000Y-102404000D01*
X212299000Y-101897500D01*
X212301000Y-101897500D01*
X212301000Y-102404000D01*
X213407500Y-102404000D01*
X213465000Y-102346500D01*
X213466113Y-102070000D01*
X213461672Y-102024912D01*
X213448521Y-101981557D01*
X213427163Y-101941600D01*
X213398422Y-101906578D01*
X213363400Y-101877837D01*
X213323443Y-101856479D01*
X213280088Y-101843328D01*
X213235000Y-101838887D01*
X212358500Y-101840000D01*
X212301000Y-101897500D01*
X212299000Y-101897500D01*
X212241500Y-101840000D01*
X211365000Y-101838887D01*
X211319912Y-101843328D01*
X211276557Y-101856479D01*
X211236600Y-101877837D01*
X211201578Y-101906578D01*
X211172837Y-101941600D01*
X211151479Y-101981557D01*
X211138328Y-102024912D01*
X211133887Y-102070000D01*
X210326000Y-102070000D01*
X210326000Y-99955920D01*
X210439485Y-100069406D01*
X210449000Y-100081000D01*
X210495290Y-100118989D01*
X210548100Y-100147216D01*
X210548102Y-100147217D01*
X210605406Y-100164600D01*
X210665000Y-100170470D01*
X210679924Y-100169000D01*
X211135897Y-100169000D01*
X211135897Y-100200000D01*
X211140299Y-100244696D01*
X211153336Y-100287674D01*
X211174508Y-100327283D01*
X211203000Y-100362000D01*
X211237717Y-100390492D01*
X211277326Y-100411664D01*
X211320304Y-100424701D01*
X211365000Y-100429103D01*
X213100076Y-100429103D01*
X212958283Y-100570897D01*
X211365000Y-100570897D01*
X211320304Y-100575299D01*
X211277326Y-100588336D01*
X211237717Y-100609508D01*
X211203000Y-100638000D01*
X211174508Y-100672717D01*
X211153336Y-100712326D01*
X211140299Y-100755304D01*
X211135897Y-100800000D01*
X211135897Y-101470000D01*
X211140299Y-101514696D01*
X211153336Y-101557674D01*
X211174508Y-101597283D01*
X211203000Y-101632000D01*
X211237717Y-101660492D01*
X211277326Y-101681664D01*
X211320304Y-101694701D01*
X211365000Y-101699103D01*
X213235000Y-101699103D01*
X213279696Y-101694701D01*
X213322674Y-101681664D01*
X213362283Y-101660492D01*
X213397000Y-101632000D01*
X213425492Y-101597283D01*
X213446664Y-101557674D01*
X213459701Y-101514696D01*
X213464103Y-101470000D01*
X213464103Y-100924918D01*
X213589487Y-100799534D01*
X213590321Y-100799700D01*
X213684479Y-100799700D01*
X213776828Y-100781331D01*
X213863818Y-100745298D01*
X213942107Y-100692987D01*
X214008687Y-100626407D01*
X214060998Y-100548118D01*
X214097031Y-100461128D01*
X214115400Y-100368779D01*
X214115400Y-100359600D01*
X214167079Y-100359600D01*
X214259428Y-100341231D01*
X214294401Y-100326745D01*
X214294400Y-107395679D01*
X214167913Y-107522166D01*
X214167079Y-107522000D01*
X214072921Y-107522000D01*
X213980572Y-107540369D01*
X213893582Y-107576402D01*
X213815293Y-107628713D01*
X213748713Y-107695293D01*
X213696402Y-107773582D01*
X213660369Y-107860572D01*
X213642000Y-107952921D01*
X213642000Y-108047079D01*
X213660369Y-108139428D01*
X213696402Y-108226418D01*
X213748713Y-108304707D01*
X213815293Y-108371287D01*
X213893582Y-108423598D01*
X213980572Y-108459631D01*
X214072921Y-108478000D01*
X214167079Y-108478000D01*
X214259428Y-108459631D01*
X214346418Y-108423598D01*
X214424707Y-108371287D01*
X214491287Y-108304707D01*
X214543598Y-108226418D01*
X214579631Y-108139428D01*
X214598000Y-108047079D01*
X214598000Y-107952921D01*
X214597834Y-107952087D01*
X214802807Y-107747113D01*
X214814400Y-107737600D01*
X214840000Y-107706406D01*
X214865600Y-107737600D01*
X214877199Y-107747119D01*
X215082166Y-107952086D01*
X215082000Y-107952921D01*
X215082000Y-108047079D01*
X215100369Y-108139428D01*
X215136402Y-108226418D01*
X215188713Y-108304707D01*
X215255293Y-108371287D01*
X215333582Y-108423598D01*
X215420572Y-108459631D01*
X215512921Y-108478000D01*
X215607079Y-108478000D01*
X215699428Y-108459631D01*
X215786418Y-108423598D01*
X215864707Y-108371287D01*
X215931287Y-108304707D01*
X215983598Y-108226418D01*
X216019631Y-108139428D01*
X216038000Y-108047079D01*
X216038000Y-108026302D01*
X216043200Y-108079094D01*
X216048473Y-108096477D01*
X216060583Y-108136397D01*
X216088811Y-108189209D01*
X216126800Y-108235500D01*
X216138399Y-108245019D01*
X216576185Y-108682806D01*
X216585700Y-108694400D01*
X216631990Y-108732389D01*
X216684800Y-108760616D01*
X216684802Y-108760617D01*
X216742106Y-108778000D01*
X216801700Y-108783870D01*
X216816624Y-108782400D01*
X218709976Y-108782400D01*
X218724900Y-108783870D01*
X218784494Y-108778000D01*
X218841798Y-108760617D01*
X218894610Y-108732389D01*
X218940900Y-108694400D01*
X218950419Y-108682801D01*
X219441874Y-108191346D01*
X219456402Y-108226418D01*
X219508713Y-108304707D01*
X219575293Y-108371287D01*
X219653582Y-108423598D01*
X219740572Y-108459631D01*
X219832921Y-108478000D01*
X219927079Y-108478000D01*
X220019428Y-108459631D01*
X220106418Y-108423598D01*
X220111802Y-108420000D01*
X220535897Y-108420000D01*
X220535897Y-109090000D01*
X220540299Y-109134696D01*
X220553336Y-109177674D01*
X220574508Y-109217283D01*
X220603000Y-109252000D01*
X220637717Y-109280492D01*
X220677326Y-109301664D01*
X220720304Y-109314701D01*
X220765000Y-109319103D01*
X222635000Y-109319103D01*
X222679696Y-109314701D01*
X222722674Y-109301664D01*
X222762283Y-109280492D01*
X222797000Y-109252000D01*
X222825492Y-109217283D01*
X222846664Y-109177674D01*
X222859701Y-109134696D01*
X222864103Y-109090000D01*
X222864103Y-108420000D01*
X222859701Y-108375304D01*
X222846664Y-108332326D01*
X222825492Y-108292717D01*
X222797000Y-108258000D01*
X222762283Y-108229508D01*
X222722674Y-108208336D01*
X222679696Y-108195299D01*
X222635000Y-108190897D01*
X220765000Y-108190897D01*
X220720304Y-108195299D01*
X220677326Y-108208336D01*
X220637717Y-108229508D01*
X220603000Y-108258000D01*
X220574508Y-108292717D01*
X220553336Y-108332326D01*
X220540299Y-108375304D01*
X220535897Y-108420000D01*
X220111802Y-108420000D01*
X220184707Y-108371287D01*
X220251287Y-108304707D01*
X220303598Y-108226418D01*
X220339631Y-108139428D01*
X220358000Y-108047079D01*
X220358000Y-107952921D01*
X220339631Y-107860572D01*
X220303598Y-107773582D01*
X220251287Y-107695293D01*
X220184707Y-107628713D01*
X220106418Y-107576402D01*
X220071346Y-107561875D01*
X220522821Y-107110400D01*
X220539797Y-107110400D01*
X220535897Y-107150000D01*
X220535897Y-107820000D01*
X220540299Y-107864696D01*
X220553336Y-107907674D01*
X220574508Y-107947283D01*
X220603000Y-107982000D01*
X220637717Y-108010492D01*
X220677326Y-108031664D01*
X220720304Y-108044701D01*
X220765000Y-108049103D01*
X222635000Y-108049103D01*
X222679696Y-108044701D01*
X222722674Y-108031664D01*
X222762283Y-108010492D01*
X222797000Y-107982000D01*
X222825492Y-107947283D01*
X222846664Y-107907674D01*
X222859701Y-107864696D01*
X222864103Y-107820000D01*
X222864103Y-107150000D01*
X222859701Y-107105304D01*
X222849611Y-107072041D01*
X222871410Y-107060389D01*
X222917700Y-107022400D01*
X222927219Y-107010801D01*
X223067801Y-106870219D01*
X223079400Y-106860700D01*
X223117389Y-106814410D01*
X223145617Y-106761598D01*
X223157727Y-106721678D01*
X223163000Y-106704295D01*
X223164457Y-106689502D01*
X223167400Y-106659624D01*
X223167400Y-106659617D01*
X223168869Y-106644701D01*
X223167400Y-106629784D01*
X223167400Y-100720224D01*
X223168870Y-100705300D01*
X223163000Y-100645705D01*
X223145617Y-100588401D01*
X223124085Y-100548118D01*
X223117389Y-100535590D01*
X223079400Y-100489300D01*
X223067807Y-100479786D01*
X222853421Y-100265400D01*
X222859701Y-100244696D01*
X222864103Y-100200000D01*
X222864103Y-100169000D01*
X223020076Y-100169000D01*
X223035000Y-100170470D01*
X223094594Y-100164600D01*
X223097178Y-100163816D01*
X223151898Y-100147217D01*
X223204710Y-100118989D01*
X223251000Y-100081000D01*
X223253462Y-100078000D01*
X223347079Y-100078000D01*
X223439428Y-100059631D01*
X223526418Y-100023598D01*
X223604707Y-99971287D01*
X223671287Y-99904707D01*
X223674000Y-99900647D01*
X223674000Y-109674000D01*
G37*
%TD.AperFunction*%
D16*
X220535897Y-102708081D02*
X220535897Y-102740000D01*
X220540299Y-102784696D01*
X220553336Y-102827674D01*
X220574508Y-102867283D01*
X220603000Y-102902000D01*
X220637717Y-102930492D01*
X220677326Y-102951664D01*
X220720304Y-102964701D01*
X220765000Y-102969103D01*
X222559400Y-102969103D01*
X222559400Y-103110897D01*
X220765000Y-103110897D01*
X220720304Y-103115299D01*
X220677326Y-103128336D01*
X220637717Y-103149508D01*
X220603000Y-103178000D01*
X220574508Y-103212717D01*
X220553336Y-103252326D01*
X220540299Y-103295304D01*
X220535897Y-103340000D01*
X220535897Y-104010000D01*
X220540299Y-104054696D01*
X220553336Y-104097674D01*
X220574508Y-104137283D01*
X220603000Y-104172000D01*
X220637717Y-104200492D01*
X220677326Y-104221664D01*
X220720304Y-104234701D01*
X220765000Y-104239103D01*
X222559401Y-104239103D01*
X222559401Y-104380897D01*
X220765000Y-104380897D01*
X220720304Y-104385299D01*
X220677326Y-104398336D01*
X220637717Y-104419508D01*
X220603000Y-104448000D01*
X220574508Y-104482717D01*
X220553336Y-104522326D01*
X220540299Y-104565304D01*
X220535897Y-104610000D01*
X220535897Y-105280000D01*
X220540299Y-105324696D01*
X220553336Y-105367674D01*
X220574508Y-105407283D01*
X220603000Y-105442000D01*
X220637717Y-105470492D01*
X220677326Y-105491664D01*
X220720304Y-105504701D01*
X220765000Y-105509103D01*
X222559401Y-105509103D01*
X222559401Y-105650897D01*
X220765000Y-105650897D01*
X220720304Y-105655299D01*
X220677326Y-105668336D01*
X220637717Y-105689508D01*
X220603000Y-105718000D01*
X220574508Y-105752717D01*
X220553336Y-105792326D01*
X220540299Y-105835304D01*
X220535897Y-105880000D01*
X220535897Y-106502400D01*
X220411823Y-106502400D01*
X220396899Y-106500930D01*
X220337305Y-106506800D01*
X220319922Y-106512073D01*
X220280002Y-106524183D01*
X220227190Y-106552411D01*
X220180900Y-106590400D01*
X220171386Y-106601993D01*
X218901817Y-107871563D01*
X218899631Y-107860572D01*
X218863598Y-107773582D01*
X218811287Y-107695293D01*
X218744707Y-107628713D01*
X218666418Y-107576402D01*
X218579428Y-107540369D01*
X218487079Y-107522000D01*
X218392921Y-107522000D01*
X218300572Y-107540369D01*
X218213582Y-107576402D01*
X218135293Y-107628713D01*
X218068713Y-107695293D01*
X218016402Y-107773582D01*
X217980369Y-107860572D01*
X217962000Y-107952921D01*
X217962000Y-108047079D01*
X217980369Y-108139428D01*
X217994855Y-108174400D01*
X217445145Y-108174400D01*
X217459631Y-108139428D01*
X217478000Y-108047079D01*
X217478000Y-107952921D01*
X217459631Y-107860572D01*
X217423598Y-107773582D01*
X217371287Y-107695293D01*
X217304707Y-107628713D01*
X217226418Y-107576402D01*
X217139428Y-107540369D01*
X217104000Y-107533322D01*
X217104000Y-102704332D01*
X220535897Y-102708081D01*
%TA.AperFunction,Conductor*%
D17*
G36*
X220535897Y-102708081D02*
G01*
X220535897Y-102740000D01*
X220540299Y-102784696D01*
X220553336Y-102827674D01*
X220574508Y-102867283D01*
X220603000Y-102902000D01*
X220637717Y-102930492D01*
X220677326Y-102951664D01*
X220720304Y-102964701D01*
X220765000Y-102969103D01*
X222559400Y-102969103D01*
X222559400Y-103110897D01*
X220765000Y-103110897D01*
X220720304Y-103115299D01*
X220677326Y-103128336D01*
X220637717Y-103149508D01*
X220603000Y-103178000D01*
X220574508Y-103212717D01*
X220553336Y-103252326D01*
X220540299Y-103295304D01*
X220535897Y-103340000D01*
X220535897Y-104010000D01*
X220540299Y-104054696D01*
X220553336Y-104097674D01*
X220574508Y-104137283D01*
X220603000Y-104172000D01*
X220637717Y-104200492D01*
X220677326Y-104221664D01*
X220720304Y-104234701D01*
X220765000Y-104239103D01*
X222559401Y-104239103D01*
X222559401Y-104380897D01*
X220765000Y-104380897D01*
X220720304Y-104385299D01*
X220677326Y-104398336D01*
X220637717Y-104419508D01*
X220603000Y-104448000D01*
X220574508Y-104482717D01*
X220553336Y-104522326D01*
X220540299Y-104565304D01*
X220535897Y-104610000D01*
X220535897Y-105280000D01*
X220540299Y-105324696D01*
X220553336Y-105367674D01*
X220574508Y-105407283D01*
X220603000Y-105442000D01*
X220637717Y-105470492D01*
X220677326Y-105491664D01*
X220720304Y-105504701D01*
X220765000Y-105509103D01*
X222559401Y-105509103D01*
X222559401Y-105650897D01*
X220765000Y-105650897D01*
X220720304Y-105655299D01*
X220677326Y-105668336D01*
X220637717Y-105689508D01*
X220603000Y-105718000D01*
X220574508Y-105752717D01*
X220553336Y-105792326D01*
X220540299Y-105835304D01*
X220535897Y-105880000D01*
X220535897Y-106502400D01*
X220411823Y-106502400D01*
X220396899Y-106500930D01*
X220337305Y-106506800D01*
X220319922Y-106512073D01*
X220280002Y-106524183D01*
X220227190Y-106552411D01*
X220180900Y-106590400D01*
X220171386Y-106601993D01*
X218901817Y-107871563D01*
X218899631Y-107860572D01*
X218863598Y-107773582D01*
X218811287Y-107695293D01*
X218744707Y-107628713D01*
X218666418Y-107576402D01*
X218579428Y-107540369D01*
X218487079Y-107522000D01*
X218392921Y-107522000D01*
X218300572Y-107540369D01*
X218213582Y-107576402D01*
X218135293Y-107628713D01*
X218068713Y-107695293D01*
X218016402Y-107773582D01*
X217980369Y-107860572D01*
X217962000Y-107952921D01*
X217962000Y-108047079D01*
X217980369Y-108139428D01*
X217994855Y-108174400D01*
X217445145Y-108174400D01*
X217459631Y-108139428D01*
X217478000Y-108047079D01*
X217478000Y-107952921D01*
X217459631Y-107860572D01*
X217423598Y-107773582D01*
X217371287Y-107695293D01*
X217304707Y-107628713D01*
X217226418Y-107576402D01*
X217139428Y-107540369D01*
X217104000Y-107533322D01*
X217104000Y-102704332D01*
X220535897Y-102708081D01*
G37*
%TD.AperFunction*%
D16*
X216217600Y-97921880D02*
X216138394Y-98001086D01*
X216126801Y-98010600D01*
X216088812Y-98056890D01*
X216066839Y-98098000D01*
X216060584Y-98109702D01*
X216043200Y-98167006D01*
X216037330Y-98226600D01*
X216038801Y-98241534D01*
X216038800Y-108004576D01*
X216038000Y-108012698D01*
X216038000Y-107952921D01*
X216019631Y-107860572D01*
X215983598Y-107773582D01*
X215931287Y-107695293D01*
X215864707Y-107628713D01*
X215786418Y-107576402D01*
X215699428Y-107540369D01*
X215607079Y-107522000D01*
X215512921Y-107522000D01*
X215512086Y-107522166D01*
X215385600Y-107395680D01*
X215385600Y-98445145D01*
X215420572Y-98459631D01*
X215512921Y-98478000D01*
X215607079Y-98478000D01*
X215699428Y-98459631D01*
X215786418Y-98423598D01*
X215864707Y-98371287D01*
X215931287Y-98304707D01*
X215983598Y-98226418D01*
X216019631Y-98139428D01*
X216038000Y-98047079D01*
X216038000Y-97952921D01*
X216037834Y-97952087D01*
X216217600Y-97772321D01*
X216217600Y-97921880D01*
%TA.AperFunction,Conductor*%
D17*
G36*
X216217600Y-97921880D02*
G01*
X216138394Y-98001086D01*
X216126801Y-98010600D01*
X216088812Y-98056890D01*
X216066839Y-98098000D01*
X216060584Y-98109702D01*
X216043200Y-98167006D01*
X216037330Y-98226600D01*
X216038801Y-98241534D01*
X216038800Y-108004576D01*
X216038000Y-108012698D01*
X216038000Y-107952921D01*
X216019631Y-107860572D01*
X215983598Y-107773582D01*
X215931287Y-107695293D01*
X215864707Y-107628713D01*
X215786418Y-107576402D01*
X215699428Y-107540369D01*
X215607079Y-107522000D01*
X215512921Y-107522000D01*
X215512086Y-107522166D01*
X215385600Y-107395680D01*
X215385600Y-98445145D01*
X215420572Y-98459631D01*
X215512921Y-98478000D01*
X215607079Y-98478000D01*
X215699428Y-98459631D01*
X215786418Y-98423598D01*
X215864707Y-98371287D01*
X215931287Y-98304707D01*
X215983598Y-98226418D01*
X216019631Y-98139428D01*
X216038000Y-98047079D01*
X216038000Y-97952921D01*
X216037834Y-97952087D01*
X216217600Y-97772321D01*
X216217600Y-97921880D01*
G37*
%TD.AperFunction*%
D16*
X220535897Y-101202518D02*
X220535897Y-101470000D01*
X220540299Y-101514696D01*
X220553336Y-101557674D01*
X220574508Y-101597283D01*
X220603000Y-101632000D01*
X220637717Y-101660492D01*
X220677326Y-101681664D01*
X220720304Y-101694701D01*
X220765000Y-101699103D01*
X222559400Y-101699103D01*
X222559400Y-101840897D01*
X220765000Y-101840897D01*
X220720304Y-101845299D01*
X220677326Y-101858336D01*
X220637717Y-101879508D01*
X220603000Y-101908000D01*
X220574508Y-101942717D01*
X220553336Y-101982326D01*
X220540299Y-102025304D01*
X220535897Y-102070000D01*
X220535897Y-102100082D01*
X217104520Y-102096333D01*
X217108377Y-99847370D01*
X217143772Y-99862031D01*
X217236121Y-99880400D01*
X217330279Y-99880400D01*
X217422628Y-99862031D01*
X217509618Y-99825998D01*
X217587907Y-99773687D01*
X217654487Y-99707107D01*
X217654959Y-99706400D01*
X218068241Y-99706400D01*
X218068713Y-99707107D01*
X218135293Y-99773687D01*
X218213582Y-99825998D01*
X218300572Y-99862031D01*
X218392921Y-99880400D01*
X218487079Y-99880400D01*
X218579428Y-99862031D01*
X218666418Y-99825998D01*
X218744707Y-99773687D01*
X218811287Y-99707107D01*
X218863598Y-99628818D01*
X218892477Y-99559098D01*
X220535897Y-101202518D01*
%TA.AperFunction,Conductor*%
D17*
G36*
X220535897Y-101202518D02*
G01*
X220535897Y-101470000D01*
X220540299Y-101514696D01*
X220553336Y-101557674D01*
X220574508Y-101597283D01*
X220603000Y-101632000D01*
X220637717Y-101660492D01*
X220677326Y-101681664D01*
X220720304Y-101694701D01*
X220765000Y-101699103D01*
X222559400Y-101699103D01*
X222559400Y-101840897D01*
X220765000Y-101840897D01*
X220720304Y-101845299D01*
X220677326Y-101858336D01*
X220637717Y-101879508D01*
X220603000Y-101908000D01*
X220574508Y-101942717D01*
X220553336Y-101982326D01*
X220540299Y-102025304D01*
X220535897Y-102070000D01*
X220535897Y-102100082D01*
X217104520Y-102096333D01*
X217108377Y-99847370D01*
X217143772Y-99862031D01*
X217236121Y-99880400D01*
X217330279Y-99880400D01*
X217422628Y-99862031D01*
X217509618Y-99825998D01*
X217587907Y-99773687D01*
X217654487Y-99707107D01*
X217654959Y-99706400D01*
X218068241Y-99706400D01*
X218068713Y-99707107D01*
X218135293Y-99773687D01*
X218213582Y-99825998D01*
X218300572Y-99862031D01*
X218392921Y-99880400D01*
X218487079Y-99880400D01*
X218579428Y-99862031D01*
X218666418Y-99825998D01*
X218744707Y-99773687D01*
X218811287Y-99707107D01*
X218863598Y-99628818D01*
X218892477Y-99559098D01*
X220535897Y-101202518D01*
G37*
%TD.AperFunction*%
D16*
X223674000Y-79626605D02*
X223669696Y-79625299D01*
X223625000Y-79620897D01*
X223304000Y-79620897D01*
X223304000Y-48274159D01*
X223304707Y-48273687D01*
X223371287Y-48207107D01*
X223423598Y-48128818D01*
X223459631Y-48041828D01*
X223478000Y-47949479D01*
X223478000Y-47855321D01*
X223459631Y-47762972D01*
X223423598Y-47675982D01*
X223371287Y-47597693D01*
X223304707Y-47531113D01*
X223226418Y-47478802D01*
X223139428Y-47442769D01*
X223047079Y-47424400D01*
X222952921Y-47424400D01*
X222860572Y-47442769D01*
X222773582Y-47478802D01*
X222695293Y-47531113D01*
X222628713Y-47597693D01*
X222576402Y-47675982D01*
X222540369Y-47762972D01*
X222522000Y-47855321D01*
X222522000Y-47949479D01*
X222540369Y-48041828D01*
X222576402Y-48128818D01*
X222628713Y-48207107D01*
X222695293Y-48273687D01*
X222696001Y-48274160D01*
X222696000Y-79620897D01*
X222375000Y-79620897D01*
X222330304Y-79625299D01*
X222287326Y-79638336D01*
X222247717Y-79659508D01*
X222213000Y-79688000D01*
X222184508Y-79722717D01*
X222163336Y-79762326D01*
X222150299Y-79805304D01*
X222145897Y-79850000D01*
X222145897Y-80054398D01*
X222112028Y-80040369D01*
X222019679Y-80022000D01*
X221925521Y-80022000D01*
X221833172Y-80040369D01*
X221746182Y-80076402D01*
X221667893Y-80128713D01*
X221601313Y-80195293D01*
X221549002Y-80273582D01*
X221512969Y-80360572D01*
X221494600Y-80452921D01*
X221494600Y-80547079D01*
X221512969Y-80639428D01*
X221549002Y-80726418D01*
X221601313Y-80804707D01*
X221667893Y-80871287D01*
X221746182Y-80923598D01*
X221833172Y-80959631D01*
X221925521Y-80978000D01*
X222019679Y-80978000D01*
X222112028Y-80959631D01*
X222145897Y-80945602D01*
X222145897Y-81150000D01*
X222150299Y-81194696D01*
X222163336Y-81237674D01*
X222184508Y-81277283D01*
X222213000Y-81312000D01*
X222247717Y-81340492D01*
X222287326Y-81361664D01*
X222330304Y-81374701D01*
X222375000Y-81379103D01*
X223625000Y-81379103D01*
X223669696Y-81374701D01*
X223674000Y-81373395D01*
X223674000Y-81624515D01*
X223670088Y-81623328D01*
X223625000Y-81618887D01*
X223058500Y-81620000D01*
X223001000Y-81677500D01*
X223001000Y-82499000D01*
X223021000Y-82499000D01*
X223021000Y-82501000D01*
X223001000Y-82501000D01*
X223001000Y-83322500D01*
X223058500Y-83380000D01*
X223625000Y-83381113D01*
X223670088Y-83376672D01*
X223674000Y-83375485D01*
X223674000Y-99299353D01*
X223671287Y-99295293D01*
X223604707Y-99228713D01*
X223526418Y-99176402D01*
X223439428Y-99140369D01*
X223347079Y-99122000D01*
X223252921Y-99122000D01*
X223160572Y-99140369D01*
X223073582Y-99176402D01*
X222995293Y-99228713D01*
X222928713Y-99295293D01*
X222876402Y-99373582D01*
X222847198Y-99444086D01*
X222846664Y-99442326D01*
X222825492Y-99402717D01*
X222797000Y-99368000D01*
X222762283Y-99339508D01*
X222722674Y-99318336D01*
X222679696Y-99305299D01*
X222635000Y-99300897D01*
X221100923Y-99300897D01*
X221242718Y-99159103D01*
X222635000Y-99159103D01*
X222679696Y-99154701D01*
X222722674Y-99141664D01*
X222762283Y-99120492D01*
X222797000Y-99092000D01*
X222825492Y-99057283D01*
X222846664Y-99017674D01*
X222859701Y-98974696D01*
X222864103Y-98930000D01*
X222864103Y-98260000D01*
X222859701Y-98215304D01*
X222846664Y-98172326D01*
X222825492Y-98132717D01*
X222797000Y-98098000D01*
X222762283Y-98069508D01*
X222722674Y-98048336D01*
X222679696Y-98035299D01*
X222635000Y-98030897D01*
X220955724Y-98030897D01*
X221097518Y-97889103D01*
X222635000Y-97889103D01*
X222679696Y-97884701D01*
X222722674Y-97871664D01*
X222762283Y-97850492D01*
X222797000Y-97822000D01*
X222825492Y-97787283D01*
X222846664Y-97747674D01*
X222859701Y-97704696D01*
X222864103Y-97660000D01*
X222864103Y-96990000D01*
X222859701Y-96945304D01*
X222846664Y-96902326D01*
X222825492Y-96862717D01*
X222797000Y-96828000D01*
X222762283Y-96799508D01*
X222722674Y-96778336D01*
X222679696Y-96765299D01*
X222635000Y-96760897D01*
X220765000Y-96760897D01*
X220720304Y-96765299D01*
X220677326Y-96778336D01*
X220637717Y-96799508D01*
X220603000Y-96828000D01*
X220574508Y-96862717D01*
X220553336Y-96902326D01*
X220540299Y-96945304D01*
X220535897Y-96990000D01*
X220535897Y-97590882D01*
X220318126Y-97808654D01*
X220303598Y-97773582D01*
X220251287Y-97695293D01*
X220184707Y-97628713D01*
X220106418Y-97576402D01*
X220019428Y-97540369D01*
X219927079Y-97522000D01*
X219832921Y-97522000D01*
X219832087Y-97522166D01*
X219509231Y-97199311D01*
X219522010Y-97157185D01*
X219527880Y-97097590D01*
X219526410Y-97082666D01*
X219526410Y-96524804D01*
X219575293Y-96573687D01*
X219653582Y-96625998D01*
X219740572Y-96662031D01*
X219832921Y-96680400D01*
X219927079Y-96680400D01*
X220019428Y-96662031D01*
X220106418Y-96625998D01*
X220184707Y-96573687D01*
X220251287Y-96507107D01*
X220303598Y-96428818D01*
X220339631Y-96341828D01*
X220358000Y-96249479D01*
X220358000Y-96155321D01*
X220339631Y-96062972D01*
X220303598Y-95975982D01*
X220251287Y-95897693D01*
X220184707Y-95831113D01*
X220184000Y-95830641D01*
X220184000Y-95171759D01*
X220184707Y-95171287D01*
X220251287Y-95104707D01*
X220303598Y-95026418D01*
X220339631Y-94939428D01*
X220358000Y-94847079D01*
X220358000Y-94752921D01*
X220357834Y-94752086D01*
X220535897Y-94574023D01*
X220535897Y-95120000D01*
X220540299Y-95164696D01*
X220553336Y-95207674D01*
X220574508Y-95247283D01*
X220603000Y-95282000D01*
X220637717Y-95310492D01*
X220677326Y-95331664D01*
X220720304Y-95344701D01*
X220765000Y-95349103D01*
X222299077Y-95349103D01*
X222157283Y-95490897D01*
X220765000Y-95490897D01*
X220720304Y-95495299D01*
X220677326Y-95508336D01*
X220637717Y-95529508D01*
X220603000Y-95558000D01*
X220574508Y-95592717D01*
X220553336Y-95632326D01*
X220540299Y-95675304D01*
X220535897Y-95720000D01*
X220535897Y-96390000D01*
X220540299Y-96434696D01*
X220553336Y-96477674D01*
X220574508Y-96517283D01*
X220603000Y-96552000D01*
X220637717Y-96580492D01*
X220677326Y-96601664D01*
X220720304Y-96614701D01*
X220765000Y-96619103D01*
X222635000Y-96619103D01*
X222679696Y-96614701D01*
X222722674Y-96601664D01*
X222762283Y-96580492D01*
X222797000Y-96552000D01*
X222825492Y-96517283D01*
X222846664Y-96477674D01*
X222859701Y-96434696D01*
X222864103Y-96390000D01*
X222864103Y-95720000D01*
X222859701Y-95675304D01*
X222853421Y-95654600D01*
X223372208Y-95135813D01*
X223383800Y-95126300D01*
X223421789Y-95080010D01*
X223450017Y-95027198D01*
X223462127Y-94987278D01*
X223467400Y-94969895D01*
X223467969Y-94964116D01*
X223471800Y-94925224D01*
X223471800Y-94925217D01*
X223473269Y-94910301D01*
X223471800Y-94895384D01*
X223471800Y-84280824D01*
X223473270Y-84265900D01*
X223467400Y-84206306D01*
X223450017Y-84149002D01*
X223421789Y-84096190D01*
X223383800Y-84049900D01*
X223372207Y-84040386D01*
X222712271Y-83380450D01*
X222941500Y-83380000D01*
X222999000Y-83322500D01*
X222999000Y-82501000D01*
X222202500Y-82501000D01*
X222145000Y-82558500D01*
X222144522Y-82812701D01*
X221225600Y-81893780D01*
X221225600Y-81850000D01*
X222143887Y-81850000D01*
X222145000Y-82441500D01*
X222202500Y-82499000D01*
X222999000Y-82499000D01*
X222999000Y-81677500D01*
X222941500Y-81620000D01*
X222375000Y-81618887D01*
X222329912Y-81623328D01*
X222286557Y-81636479D01*
X222246600Y-81657837D01*
X222211578Y-81686578D01*
X222182837Y-81721600D01*
X222161479Y-81761557D01*
X222148328Y-81804912D01*
X222143887Y-81850000D01*
X221225600Y-81850000D01*
X221225600Y-57325145D01*
X221260572Y-57339631D01*
X221352921Y-57358000D01*
X221447079Y-57358000D01*
X221539428Y-57339631D01*
X221626418Y-57303598D01*
X221704707Y-57251287D01*
X221771287Y-57184707D01*
X221823598Y-57106418D01*
X221859631Y-57019428D01*
X221878000Y-56927079D01*
X221878000Y-56832921D01*
X221859631Y-56740572D01*
X221823598Y-56653582D01*
X221771287Y-56575293D01*
X221704707Y-56508713D01*
X221704000Y-56508241D01*
X221704000Y-46734924D01*
X221705470Y-46720000D01*
X221699600Y-46660406D01*
X221682217Y-46603102D01*
X221653989Y-46550290D01*
X221616000Y-46504000D01*
X221604408Y-46494487D01*
X220357834Y-45247914D01*
X220358000Y-45247079D01*
X220358000Y-45152921D01*
X220357834Y-45152087D01*
X220562806Y-44947115D01*
X220574400Y-44937600D01*
X220612389Y-44891310D01*
X220630784Y-44856894D01*
X220640617Y-44838499D01*
X220658000Y-44781195D01*
X220663870Y-44721600D01*
X220662400Y-44706676D01*
X220662400Y-39150000D01*
X220920897Y-39150000D01*
X220920897Y-40850000D01*
X220925299Y-40894696D01*
X220938336Y-40937674D01*
X220959508Y-40977283D01*
X220988000Y-41012000D01*
X221022717Y-41040492D01*
X221062326Y-41061664D01*
X221105304Y-41074701D01*
X221150000Y-41079103D01*
X222850000Y-41079103D01*
X222894696Y-41074701D01*
X222937674Y-41061664D01*
X222977283Y-41040492D01*
X223012000Y-41012000D01*
X223040492Y-40977283D01*
X223061664Y-40937674D01*
X223074701Y-40894696D01*
X223079103Y-40850000D01*
X223079103Y-39150000D01*
X223074701Y-39105304D01*
X223061664Y-39062326D01*
X223040492Y-39022717D01*
X223012000Y-38988000D01*
X222977283Y-38959508D01*
X222937674Y-38938336D01*
X222894696Y-38925299D01*
X222850000Y-38920897D01*
X221150000Y-38920897D01*
X221105304Y-38925299D01*
X221062326Y-38938336D01*
X221022717Y-38959508D01*
X220988000Y-38988000D01*
X220959508Y-39022717D01*
X220938336Y-39062326D01*
X220925299Y-39105304D01*
X220920897Y-39150000D01*
X220662400Y-39150000D01*
X220662400Y-37353826D01*
X220922000Y-37353826D01*
X220922000Y-37566174D01*
X220963427Y-37774441D01*
X221044689Y-37970624D01*
X221162663Y-38147185D01*
X221312815Y-38297337D01*
X221489376Y-38415311D01*
X221685559Y-38496573D01*
X221893826Y-38538000D01*
X222106174Y-38538000D01*
X222314441Y-38496573D01*
X222510624Y-38415311D01*
X222687185Y-38297337D01*
X222837337Y-38147185D01*
X222955311Y-37970624D01*
X223036573Y-37774441D01*
X223078000Y-37566174D01*
X223078000Y-37353826D01*
X223036573Y-37145559D01*
X222955311Y-36949376D01*
X222837337Y-36772815D01*
X222687185Y-36622663D01*
X222510624Y-36504689D01*
X222314441Y-36423427D01*
X222106174Y-36382000D01*
X221893826Y-36382000D01*
X221685559Y-36423427D01*
X221489376Y-36504689D01*
X221312815Y-36622663D01*
X221162663Y-36772815D01*
X221044689Y-36949376D01*
X220963427Y-37145559D01*
X220922000Y-37353826D01*
X220662400Y-37353826D01*
X220662400Y-34813826D01*
X220922000Y-34813826D01*
X220922000Y-35026174D01*
X220963427Y-35234441D01*
X221044689Y-35430624D01*
X221162663Y-35607185D01*
X221312815Y-35757337D01*
X221489376Y-35875311D01*
X221685559Y-35956573D01*
X221893826Y-35998000D01*
X222106174Y-35998000D01*
X222314441Y-35956573D01*
X222510624Y-35875311D01*
X222687185Y-35757337D01*
X222837337Y-35607185D01*
X222955311Y-35430624D01*
X223036573Y-35234441D01*
X223078000Y-35026174D01*
X223078000Y-34813826D01*
X223036573Y-34605559D01*
X222955311Y-34409376D01*
X222837337Y-34232815D01*
X222687185Y-34082663D01*
X222510624Y-33964689D01*
X222314441Y-33883427D01*
X222106174Y-33842000D01*
X221893826Y-33842000D01*
X221685559Y-33883427D01*
X221489376Y-33964689D01*
X221312815Y-34082663D01*
X221162663Y-34232815D01*
X221044689Y-34409376D01*
X220963427Y-34605559D01*
X220922000Y-34813826D01*
X220662400Y-34813826D01*
X220662400Y-32549937D01*
X220933453Y-32549937D01*
X220949607Y-32631147D01*
X221018786Y-32831243D01*
X221125673Y-33013998D01*
X221266160Y-33172389D01*
X221434848Y-33300329D01*
X221625255Y-33392901D01*
X221830063Y-33446547D01*
X221999000Y-33402500D01*
X221999000Y-32381000D01*
X222001000Y-32381000D01*
X222001000Y-33402500D01*
X222169937Y-33446547D01*
X222374745Y-33392901D01*
X222565152Y-33300329D01*
X222733840Y-33172389D01*
X222874327Y-33013998D01*
X222981214Y-32831243D01*
X223050393Y-32631147D01*
X223066547Y-32549937D01*
X223022500Y-32381000D01*
X222001000Y-32381000D01*
X221999000Y-32381000D01*
X220977500Y-32381000D01*
X220933453Y-32549937D01*
X220662400Y-32549937D01*
X220662400Y-32493324D01*
X220663870Y-32478400D01*
X220658000Y-32418805D01*
X220640617Y-32361501D01*
X220630784Y-32343106D01*
X220612389Y-32308690D01*
X220574400Y-32262400D01*
X220562807Y-32252887D01*
X220519984Y-32210063D01*
X220933453Y-32210063D01*
X220977500Y-32379000D01*
X221999000Y-32379000D01*
X221999000Y-31357500D01*
X222001000Y-31357500D01*
X222001000Y-32379000D01*
X223022500Y-32379000D01*
X223066547Y-32210063D01*
X223050393Y-32128853D01*
X222981214Y-31928757D01*
X222874327Y-31746002D01*
X222733840Y-31587611D01*
X222565152Y-31459671D01*
X222374745Y-31367099D01*
X222169937Y-31313453D01*
X222001000Y-31357500D01*
X221999000Y-31357500D01*
X221830063Y-31313453D01*
X221625255Y-31367099D01*
X221434848Y-31459671D01*
X221266160Y-31587611D01*
X221125673Y-31746002D01*
X221018786Y-31928757D01*
X220949607Y-32128853D01*
X220933453Y-32210063D01*
X220519984Y-32210063D01*
X220357834Y-32047913D01*
X220358000Y-32047079D01*
X220358000Y-31952921D01*
X220339631Y-31860572D01*
X220303598Y-31773582D01*
X220251287Y-31695293D01*
X220184707Y-31628713D01*
X220106418Y-31576402D01*
X220019428Y-31540369D01*
X219927079Y-31522000D01*
X219832921Y-31522000D01*
X219740572Y-31540369D01*
X219653582Y-31576402D01*
X219575293Y-31628713D01*
X219508713Y-31695293D01*
X219456402Y-31773582D01*
X219420369Y-31860572D01*
X219402000Y-31952921D01*
X219402000Y-32047079D01*
X219420369Y-32139428D01*
X219456402Y-32226418D01*
X219508713Y-32304707D01*
X219575293Y-32371287D01*
X219653582Y-32423598D01*
X219740572Y-32459631D01*
X219832921Y-32478000D01*
X219927079Y-32478000D01*
X219927913Y-32477834D01*
X220054400Y-32604321D01*
X220054401Y-41554855D01*
X220019428Y-41540369D01*
X219927079Y-41522000D01*
X219832921Y-41522000D01*
X219740572Y-41540369D01*
X219653582Y-41576402D01*
X219575293Y-41628713D01*
X219508713Y-41695293D01*
X219456402Y-41773582D01*
X219420369Y-41860572D01*
X219402000Y-41952921D01*
X219402000Y-42047079D01*
X219420369Y-42139428D01*
X219456402Y-42226418D01*
X219508713Y-42304707D01*
X219575293Y-42371287D01*
X219576000Y-42371760D01*
X219576001Y-43030640D01*
X219575293Y-43031113D01*
X219508713Y-43097693D01*
X219456402Y-43175982D01*
X219442550Y-43209423D01*
X219428698Y-43175982D01*
X219376387Y-43097693D01*
X219309807Y-43031113D01*
X219231518Y-42978802D01*
X219144528Y-42942769D01*
X219052179Y-42924400D01*
X218958021Y-42924400D01*
X218957187Y-42924566D01*
X218744000Y-42711380D01*
X218744000Y-42371759D01*
X218744707Y-42371287D01*
X218811287Y-42304707D01*
X218863598Y-42226418D01*
X218899631Y-42139428D01*
X218918000Y-42047079D01*
X218918000Y-41952921D01*
X218899631Y-41860572D01*
X218863598Y-41773582D01*
X218811287Y-41695293D01*
X218744707Y-41628713D01*
X218666418Y-41576402D01*
X218579428Y-41540369D01*
X218487079Y-41522000D01*
X218392921Y-41522000D01*
X218300572Y-41540369D01*
X218265600Y-41554855D01*
X218265600Y-32604320D01*
X218392086Y-32477834D01*
X218392921Y-32478000D01*
X218487079Y-32478000D01*
X218579428Y-32459631D01*
X218666418Y-32423598D01*
X218744707Y-32371287D01*
X218811287Y-32304707D01*
X218863598Y-32226418D01*
X218899631Y-32139428D01*
X218918000Y-32047079D01*
X218918000Y-31952921D01*
X218899631Y-31860572D01*
X218863598Y-31773582D01*
X218811287Y-31695293D01*
X218744707Y-31628713D01*
X218666418Y-31576402D01*
X218579428Y-31540369D01*
X218487079Y-31522000D01*
X218392921Y-31522000D01*
X218300572Y-31540369D01*
X218213582Y-31576402D01*
X218135293Y-31628713D01*
X218068713Y-31695293D01*
X218016402Y-31773582D01*
X217980369Y-31860572D01*
X217962000Y-31952921D01*
X217962000Y-32047079D01*
X217962166Y-32047914D01*
X217757199Y-32252881D01*
X217745600Y-32262400D01*
X217707611Y-32308691D01*
X217679383Y-32361503D01*
X217673469Y-32381000D01*
X217662000Y-32418806D01*
X217656130Y-32478400D01*
X217657600Y-32493324D01*
X217657601Y-43224381D01*
X217304000Y-42870780D01*
X217304000Y-42371759D01*
X217304707Y-42371287D01*
X217371287Y-42304707D01*
X217423598Y-42226418D01*
X217459631Y-42139428D01*
X217478000Y-42047079D01*
X217478000Y-41952921D01*
X217459631Y-41860572D01*
X217423598Y-41773582D01*
X217371287Y-41695293D01*
X217304707Y-41628713D01*
X217304000Y-41628241D01*
X217304000Y-32371759D01*
X217304707Y-32371287D01*
X217371287Y-32304707D01*
X217423598Y-32226418D01*
X217459631Y-32139428D01*
X217478000Y-32047079D01*
X217478000Y-31952921D01*
X217459631Y-31860572D01*
X217423598Y-31773582D01*
X217371287Y-31695293D01*
X217304707Y-31628713D01*
X217226418Y-31576402D01*
X217139428Y-31540369D01*
X217047079Y-31522000D01*
X216952921Y-31522000D01*
X216860572Y-31540369D01*
X216773582Y-31576402D01*
X216695293Y-31628713D01*
X216628713Y-31695293D01*
X216576402Y-31773582D01*
X216540369Y-31860572D01*
X216522000Y-31952921D01*
X216522000Y-32047079D01*
X216540369Y-32139428D01*
X216576402Y-32226418D01*
X216628713Y-32304707D01*
X216695293Y-32371287D01*
X216696001Y-32371760D01*
X216696000Y-41628241D01*
X216695293Y-41628713D01*
X216628713Y-41695293D01*
X216576402Y-41773582D01*
X216540369Y-41860572D01*
X216522000Y-41952921D01*
X216522000Y-42047079D01*
X216540369Y-42139428D01*
X216576402Y-42226418D01*
X216628713Y-42304707D01*
X216695293Y-42371287D01*
X216696001Y-42371760D01*
X216696000Y-42981776D01*
X216694530Y-42996700D01*
X216700390Y-43056187D01*
X216700400Y-43056293D01*
X216717783Y-43113597D01*
X216746011Y-43166409D01*
X216784000Y-43212700D01*
X216795599Y-43222219D01*
X218311563Y-44738183D01*
X218300572Y-44740369D01*
X218213582Y-44776402D01*
X218135293Y-44828713D01*
X218068713Y-44895293D01*
X218016402Y-44973582D01*
X217980369Y-45060572D01*
X217962000Y-45152921D01*
X217962000Y-45247079D01*
X217962166Y-45247914D01*
X217757199Y-45452881D01*
X217745600Y-45462400D01*
X217707611Y-45508691D01*
X217679383Y-45561503D01*
X217667273Y-45601423D01*
X217662000Y-45618806D01*
X217656130Y-45678400D01*
X217657600Y-45693324D01*
X217657601Y-55427680D01*
X217477834Y-55247914D01*
X217478000Y-55247079D01*
X217478000Y-55152921D01*
X217459631Y-55060572D01*
X217423598Y-54973582D01*
X217371287Y-54895293D01*
X217304707Y-54828713D01*
X217304000Y-54828241D01*
X217304000Y-45571759D01*
X217304707Y-45571287D01*
X217371287Y-45504707D01*
X217423598Y-45426418D01*
X217459631Y-45339428D01*
X217478000Y-45247079D01*
X217478000Y-45152921D01*
X217459631Y-45060572D01*
X217423598Y-44973582D01*
X217371287Y-44895293D01*
X217304707Y-44828713D01*
X217226418Y-44776402D01*
X217139428Y-44740369D01*
X217047079Y-44722000D01*
X216952921Y-44722000D01*
X216860572Y-44740369D01*
X216773582Y-44776402D01*
X216695293Y-44828713D01*
X216628713Y-44895293D01*
X216576402Y-44973582D01*
X216540369Y-45060572D01*
X216522000Y-45152921D01*
X216522000Y-45247079D01*
X216540369Y-45339428D01*
X216576402Y-45426418D01*
X216628713Y-45504707D01*
X216695293Y-45571287D01*
X216696001Y-45571760D01*
X216696000Y-54828241D01*
X216695293Y-54828713D01*
X216628713Y-54895293D01*
X216576402Y-54973582D01*
X216540369Y-55060572D01*
X216522000Y-55152921D01*
X216522000Y-55247079D01*
X216540369Y-55339428D01*
X216576402Y-55426418D01*
X216628713Y-55504707D01*
X216695293Y-55571287D01*
X216773582Y-55623598D01*
X216860572Y-55659631D01*
X216952921Y-55678000D01*
X217047079Y-55678000D01*
X217047914Y-55677834D01*
X217353201Y-55983122D01*
X217353201Y-58077207D01*
X217304707Y-58028713D01*
X217226418Y-57976402D01*
X217139428Y-57940369D01*
X217047079Y-57922000D01*
X216952921Y-57922000D01*
X216860572Y-57940369D01*
X216773582Y-57976402D01*
X216695293Y-58028713D01*
X216628713Y-58095293D01*
X216576402Y-58173582D01*
X216540369Y-58260572D01*
X216522000Y-58352921D01*
X216522000Y-58447079D01*
X216540369Y-58539428D01*
X216576402Y-58626418D01*
X216628713Y-58704707D01*
X216695293Y-58771287D01*
X216696000Y-58771759D01*
X216696001Y-68028240D01*
X216695293Y-68028713D01*
X216628713Y-68095293D01*
X216576402Y-68173582D01*
X216540369Y-68260572D01*
X216522000Y-68352921D01*
X216522000Y-68447079D01*
X216522166Y-68447914D01*
X216317194Y-68652886D01*
X216305601Y-68662400D01*
X216267612Y-68708690D01*
X216239385Y-68761501D01*
X216239384Y-68761502D01*
X216222000Y-68818806D01*
X216216130Y-68878400D01*
X216217601Y-68893334D01*
X216217601Y-71827680D01*
X216037834Y-71647913D01*
X216038000Y-71647079D01*
X216038000Y-71552921D01*
X216019631Y-71460572D01*
X215983598Y-71373582D01*
X215931287Y-71295293D01*
X215864707Y-71228713D01*
X215786418Y-71176402D01*
X215699428Y-71140369D01*
X215607079Y-71122000D01*
X215512921Y-71122000D01*
X215512086Y-71122166D01*
X215385600Y-70995680D01*
X215385600Y-68845145D01*
X215420572Y-68859631D01*
X215512921Y-68878000D01*
X215607079Y-68878000D01*
X215699428Y-68859631D01*
X215786418Y-68823598D01*
X215864707Y-68771287D01*
X215931287Y-68704707D01*
X215983598Y-68626418D01*
X216019631Y-68539428D01*
X216038000Y-68447079D01*
X216038000Y-68352921D01*
X216037834Y-68352087D01*
X216242807Y-68147113D01*
X216254400Y-68137600D01*
X216292389Y-68091310D01*
X216310784Y-68056894D01*
X216320617Y-68038499D01*
X216338000Y-67981195D01*
X216343870Y-67921600D01*
X216342400Y-67906676D01*
X216342400Y-66520259D01*
X216343107Y-66519787D01*
X216409687Y-66453207D01*
X216461998Y-66374918D01*
X216498031Y-66287928D01*
X216516400Y-66195579D01*
X216516400Y-66101421D01*
X216498031Y-66009072D01*
X216461998Y-65922082D01*
X216409687Y-65843793D01*
X216343107Y-65777213D01*
X216342400Y-65776741D01*
X216342400Y-54736523D01*
X216343870Y-54721600D01*
X216342400Y-54706676D01*
X216342400Y-42493324D01*
X216343870Y-42478400D01*
X216338000Y-42418805D01*
X216320617Y-42361501D01*
X216310784Y-42343106D01*
X216292389Y-42308690D01*
X216254400Y-42262400D01*
X216242806Y-42252885D01*
X216037834Y-42047913D01*
X216038000Y-42047079D01*
X216038000Y-41952921D01*
X216019631Y-41860572D01*
X215983598Y-41773582D01*
X215931287Y-41695293D01*
X215864707Y-41628713D01*
X215786418Y-41576402D01*
X215699428Y-41540369D01*
X215607079Y-41522000D01*
X215512921Y-41522000D01*
X215420572Y-41540369D01*
X215385600Y-41554855D01*
X215385600Y-32604320D01*
X215512086Y-32477834D01*
X215512921Y-32478000D01*
X215607079Y-32478000D01*
X215699428Y-32459631D01*
X215786418Y-32423598D01*
X215864707Y-32371287D01*
X215931287Y-32304707D01*
X215983598Y-32226418D01*
X216019631Y-32139428D01*
X216038000Y-32047079D01*
X216038000Y-31952921D01*
X216019631Y-31860572D01*
X215983598Y-31773582D01*
X215931287Y-31695293D01*
X215864707Y-31628713D01*
X215786418Y-31576402D01*
X215699428Y-31540369D01*
X215607079Y-31522000D01*
X215512921Y-31522000D01*
X215420572Y-31540369D01*
X215333582Y-31576402D01*
X215255293Y-31628713D01*
X215188713Y-31695293D01*
X215136402Y-31773582D01*
X215100369Y-31860572D01*
X215082000Y-31952921D01*
X215082000Y-32047079D01*
X215082166Y-32047914D01*
X214877199Y-32252881D01*
X214865600Y-32262400D01*
X214840000Y-32293594D01*
X214814400Y-32262400D01*
X214802807Y-32252887D01*
X214597834Y-32047913D01*
X214598000Y-32047079D01*
X214598000Y-31952921D01*
X214579631Y-31860572D01*
X214543598Y-31773582D01*
X214491287Y-31695293D01*
X214424707Y-31628713D01*
X214346418Y-31576402D01*
X214259428Y-31540369D01*
X214167079Y-31522000D01*
X214072921Y-31522000D01*
X213980572Y-31540369D01*
X213893582Y-31576402D01*
X213815293Y-31628713D01*
X213748713Y-31695293D01*
X213696402Y-31773582D01*
X213660369Y-31860572D01*
X213642000Y-31952921D01*
X213642000Y-32047079D01*
X213660369Y-32139428D01*
X213696402Y-32226418D01*
X213748713Y-32304707D01*
X213815293Y-32371287D01*
X213893582Y-32423598D01*
X213980572Y-32459631D01*
X214072921Y-32478000D01*
X214167079Y-32478000D01*
X214167913Y-32477834D01*
X214294400Y-32604321D01*
X214294401Y-41554855D01*
X214259428Y-41540369D01*
X214167079Y-41522000D01*
X214072921Y-41522000D01*
X213980572Y-41540369D01*
X213893582Y-41576402D01*
X213815293Y-41628713D01*
X213748713Y-41695293D01*
X213696402Y-41773582D01*
X213660369Y-41860572D01*
X213642000Y-41952921D01*
X213642000Y-42047079D01*
X213642166Y-42047914D01*
X213437199Y-42252881D01*
X213425600Y-42262400D01*
X213387611Y-42308691D01*
X213359383Y-42361503D01*
X213347273Y-42401423D01*
X213342000Y-42418806D01*
X213336130Y-42478400D01*
X213337600Y-42493324D01*
X213337601Y-54595678D01*
X212358714Y-55574566D01*
X212357879Y-55574400D01*
X212263721Y-55574400D01*
X212171372Y-55592769D01*
X212084382Y-55628802D01*
X212006093Y-55681113D01*
X211939513Y-55747693D01*
X211887202Y-55825982D01*
X211851169Y-55912972D01*
X211832800Y-56005321D01*
X211832800Y-56099479D01*
X211851169Y-56191828D01*
X211887202Y-56278818D01*
X211939513Y-56357107D01*
X212006093Y-56423687D01*
X212084382Y-56475998D01*
X212171372Y-56512031D01*
X212263721Y-56530400D01*
X212357879Y-56530400D01*
X212450228Y-56512031D01*
X212537218Y-56475998D01*
X212615507Y-56423687D01*
X212682087Y-56357107D01*
X212734398Y-56278818D01*
X212770431Y-56191828D01*
X212788800Y-56099479D01*
X212788800Y-56005321D01*
X212788634Y-56004486D01*
X213641600Y-55151521D01*
X213642166Y-55152086D01*
X213642000Y-55152921D01*
X213642000Y-55247079D01*
X213660369Y-55339428D01*
X213696402Y-55426418D01*
X213748713Y-55504707D01*
X213815293Y-55571287D01*
X213893582Y-55623598D01*
X213980572Y-55659631D01*
X214072921Y-55678000D01*
X214167079Y-55678000D01*
X214259428Y-55659631D01*
X214346418Y-55623598D01*
X214424707Y-55571287D01*
X214491287Y-55504707D01*
X214543598Y-55426418D01*
X214579631Y-55339428D01*
X214598000Y-55247079D01*
X214598000Y-55152921D01*
X214579631Y-55060572D01*
X214543598Y-54973582D01*
X214491287Y-54895293D01*
X214424707Y-54828713D01*
X214346418Y-54776402D01*
X214259428Y-54740369D01*
X214167079Y-54722000D01*
X214072921Y-54722000D01*
X214072086Y-54722166D01*
X213945600Y-54595680D01*
X213945600Y-45645145D01*
X213980572Y-45659631D01*
X214072921Y-45678000D01*
X214167079Y-45678000D01*
X214259428Y-45659631D01*
X214346418Y-45623598D01*
X214424707Y-45571287D01*
X214491287Y-45504707D01*
X214543598Y-45426418D01*
X214579631Y-45339428D01*
X214598000Y-45247079D01*
X214598000Y-45152921D01*
X214597834Y-45152087D01*
X214777601Y-44972320D01*
X214777600Y-56548955D01*
X214742628Y-56534469D01*
X214650279Y-56516100D01*
X214556121Y-56516100D01*
X214463772Y-56534469D01*
X214376782Y-56570502D01*
X214298493Y-56622813D01*
X214231913Y-56689393D01*
X214231091Y-56690623D01*
X210414719Y-56695980D01*
X210400000Y-56694530D01*
X210384856Y-56696022D01*
X210384650Y-56696022D01*
X210370366Y-56697449D01*
X210340407Y-56700400D01*
X210340201Y-56700463D01*
X210339986Y-56700484D01*
X210326000Y-56704748D01*
X210326000Y-30326000D01*
X223674000Y-30326000D01*
X223674000Y-79626605D01*
%TA.AperFunction,Conductor*%
D17*
G36*
X223674000Y-79626605D02*
G01*
X223669696Y-79625299D01*
X223625000Y-79620897D01*
X223304000Y-79620897D01*
X223304000Y-48274159D01*
X223304707Y-48273687D01*
X223371287Y-48207107D01*
X223423598Y-48128818D01*
X223459631Y-48041828D01*
X223478000Y-47949479D01*
X223478000Y-47855321D01*
X223459631Y-47762972D01*
X223423598Y-47675982D01*
X223371287Y-47597693D01*
X223304707Y-47531113D01*
X223226418Y-47478802D01*
X223139428Y-47442769D01*
X223047079Y-47424400D01*
X222952921Y-47424400D01*
X222860572Y-47442769D01*
X222773582Y-47478802D01*
X222695293Y-47531113D01*
X222628713Y-47597693D01*
X222576402Y-47675982D01*
X222540369Y-47762972D01*
X222522000Y-47855321D01*
X222522000Y-47949479D01*
X222540369Y-48041828D01*
X222576402Y-48128818D01*
X222628713Y-48207107D01*
X222695293Y-48273687D01*
X222696001Y-48274160D01*
X222696000Y-79620897D01*
X222375000Y-79620897D01*
X222330304Y-79625299D01*
X222287326Y-79638336D01*
X222247717Y-79659508D01*
X222213000Y-79688000D01*
X222184508Y-79722717D01*
X222163336Y-79762326D01*
X222150299Y-79805304D01*
X222145897Y-79850000D01*
X222145897Y-80054398D01*
X222112028Y-80040369D01*
X222019679Y-80022000D01*
X221925521Y-80022000D01*
X221833172Y-80040369D01*
X221746182Y-80076402D01*
X221667893Y-80128713D01*
X221601313Y-80195293D01*
X221549002Y-80273582D01*
X221512969Y-80360572D01*
X221494600Y-80452921D01*
X221494600Y-80547079D01*
X221512969Y-80639428D01*
X221549002Y-80726418D01*
X221601313Y-80804707D01*
X221667893Y-80871287D01*
X221746182Y-80923598D01*
X221833172Y-80959631D01*
X221925521Y-80978000D01*
X222019679Y-80978000D01*
X222112028Y-80959631D01*
X222145897Y-80945602D01*
X222145897Y-81150000D01*
X222150299Y-81194696D01*
X222163336Y-81237674D01*
X222184508Y-81277283D01*
X222213000Y-81312000D01*
X222247717Y-81340492D01*
X222287326Y-81361664D01*
X222330304Y-81374701D01*
X222375000Y-81379103D01*
X223625000Y-81379103D01*
X223669696Y-81374701D01*
X223674000Y-81373395D01*
X223674000Y-81624515D01*
X223670088Y-81623328D01*
X223625000Y-81618887D01*
X223058500Y-81620000D01*
X223001000Y-81677500D01*
X223001000Y-82499000D01*
X223021000Y-82499000D01*
X223021000Y-82501000D01*
X223001000Y-82501000D01*
X223001000Y-83322500D01*
X223058500Y-83380000D01*
X223625000Y-83381113D01*
X223670088Y-83376672D01*
X223674000Y-83375485D01*
X223674000Y-99299353D01*
X223671287Y-99295293D01*
X223604707Y-99228713D01*
X223526418Y-99176402D01*
X223439428Y-99140369D01*
X223347079Y-99122000D01*
X223252921Y-99122000D01*
X223160572Y-99140369D01*
X223073582Y-99176402D01*
X222995293Y-99228713D01*
X222928713Y-99295293D01*
X222876402Y-99373582D01*
X222847198Y-99444086D01*
X222846664Y-99442326D01*
X222825492Y-99402717D01*
X222797000Y-99368000D01*
X222762283Y-99339508D01*
X222722674Y-99318336D01*
X222679696Y-99305299D01*
X222635000Y-99300897D01*
X221100923Y-99300897D01*
X221242718Y-99159103D01*
X222635000Y-99159103D01*
X222679696Y-99154701D01*
X222722674Y-99141664D01*
X222762283Y-99120492D01*
X222797000Y-99092000D01*
X222825492Y-99057283D01*
X222846664Y-99017674D01*
X222859701Y-98974696D01*
X222864103Y-98930000D01*
X222864103Y-98260000D01*
X222859701Y-98215304D01*
X222846664Y-98172326D01*
X222825492Y-98132717D01*
X222797000Y-98098000D01*
X222762283Y-98069508D01*
X222722674Y-98048336D01*
X222679696Y-98035299D01*
X222635000Y-98030897D01*
X220955724Y-98030897D01*
X221097518Y-97889103D01*
X222635000Y-97889103D01*
X222679696Y-97884701D01*
X222722674Y-97871664D01*
X222762283Y-97850492D01*
X222797000Y-97822000D01*
X222825492Y-97787283D01*
X222846664Y-97747674D01*
X222859701Y-97704696D01*
X222864103Y-97660000D01*
X222864103Y-96990000D01*
X222859701Y-96945304D01*
X222846664Y-96902326D01*
X222825492Y-96862717D01*
X222797000Y-96828000D01*
X222762283Y-96799508D01*
X222722674Y-96778336D01*
X222679696Y-96765299D01*
X222635000Y-96760897D01*
X220765000Y-96760897D01*
X220720304Y-96765299D01*
X220677326Y-96778336D01*
X220637717Y-96799508D01*
X220603000Y-96828000D01*
X220574508Y-96862717D01*
X220553336Y-96902326D01*
X220540299Y-96945304D01*
X220535897Y-96990000D01*
X220535897Y-97590882D01*
X220318126Y-97808654D01*
X220303598Y-97773582D01*
X220251287Y-97695293D01*
X220184707Y-97628713D01*
X220106418Y-97576402D01*
X220019428Y-97540369D01*
X219927079Y-97522000D01*
X219832921Y-97522000D01*
X219832087Y-97522166D01*
X219509231Y-97199311D01*
X219522010Y-97157185D01*
X219527880Y-97097590D01*
X219526410Y-97082666D01*
X219526410Y-96524804D01*
X219575293Y-96573687D01*
X219653582Y-96625998D01*
X219740572Y-96662031D01*
X219832921Y-96680400D01*
X219927079Y-96680400D01*
X220019428Y-96662031D01*
X220106418Y-96625998D01*
X220184707Y-96573687D01*
X220251287Y-96507107D01*
X220303598Y-96428818D01*
X220339631Y-96341828D01*
X220358000Y-96249479D01*
X220358000Y-96155321D01*
X220339631Y-96062972D01*
X220303598Y-95975982D01*
X220251287Y-95897693D01*
X220184707Y-95831113D01*
X220184000Y-95830641D01*
X220184000Y-95171759D01*
X220184707Y-95171287D01*
X220251287Y-95104707D01*
X220303598Y-95026418D01*
X220339631Y-94939428D01*
X220358000Y-94847079D01*
X220358000Y-94752921D01*
X220357834Y-94752086D01*
X220535897Y-94574023D01*
X220535897Y-95120000D01*
X220540299Y-95164696D01*
X220553336Y-95207674D01*
X220574508Y-95247283D01*
X220603000Y-95282000D01*
X220637717Y-95310492D01*
X220677326Y-95331664D01*
X220720304Y-95344701D01*
X220765000Y-95349103D01*
X222299077Y-95349103D01*
X222157283Y-95490897D01*
X220765000Y-95490897D01*
X220720304Y-95495299D01*
X220677326Y-95508336D01*
X220637717Y-95529508D01*
X220603000Y-95558000D01*
X220574508Y-95592717D01*
X220553336Y-95632326D01*
X220540299Y-95675304D01*
X220535897Y-95720000D01*
X220535897Y-96390000D01*
X220540299Y-96434696D01*
X220553336Y-96477674D01*
X220574508Y-96517283D01*
X220603000Y-96552000D01*
X220637717Y-96580492D01*
X220677326Y-96601664D01*
X220720304Y-96614701D01*
X220765000Y-96619103D01*
X222635000Y-96619103D01*
X222679696Y-96614701D01*
X222722674Y-96601664D01*
X222762283Y-96580492D01*
X222797000Y-96552000D01*
X222825492Y-96517283D01*
X222846664Y-96477674D01*
X222859701Y-96434696D01*
X222864103Y-96390000D01*
X222864103Y-95720000D01*
X222859701Y-95675304D01*
X222853421Y-95654600D01*
X223372208Y-95135813D01*
X223383800Y-95126300D01*
X223421789Y-95080010D01*
X223450017Y-95027198D01*
X223462127Y-94987278D01*
X223467400Y-94969895D01*
X223467969Y-94964116D01*
X223471800Y-94925224D01*
X223471800Y-94925217D01*
X223473269Y-94910301D01*
X223471800Y-94895384D01*
X223471800Y-84280824D01*
X223473270Y-84265900D01*
X223467400Y-84206306D01*
X223450017Y-84149002D01*
X223421789Y-84096190D01*
X223383800Y-84049900D01*
X223372207Y-84040386D01*
X222712271Y-83380450D01*
X222941500Y-83380000D01*
X222999000Y-83322500D01*
X222999000Y-82501000D01*
X222202500Y-82501000D01*
X222145000Y-82558500D01*
X222144522Y-82812701D01*
X221225600Y-81893780D01*
X221225600Y-81850000D01*
X222143887Y-81850000D01*
X222145000Y-82441500D01*
X222202500Y-82499000D01*
X222999000Y-82499000D01*
X222999000Y-81677500D01*
X222941500Y-81620000D01*
X222375000Y-81618887D01*
X222329912Y-81623328D01*
X222286557Y-81636479D01*
X222246600Y-81657837D01*
X222211578Y-81686578D01*
X222182837Y-81721600D01*
X222161479Y-81761557D01*
X222148328Y-81804912D01*
X222143887Y-81850000D01*
X221225600Y-81850000D01*
X221225600Y-57325145D01*
X221260572Y-57339631D01*
X221352921Y-57358000D01*
X221447079Y-57358000D01*
X221539428Y-57339631D01*
X221626418Y-57303598D01*
X221704707Y-57251287D01*
X221771287Y-57184707D01*
X221823598Y-57106418D01*
X221859631Y-57019428D01*
X221878000Y-56927079D01*
X221878000Y-56832921D01*
X221859631Y-56740572D01*
X221823598Y-56653582D01*
X221771287Y-56575293D01*
X221704707Y-56508713D01*
X221704000Y-56508241D01*
X221704000Y-46734924D01*
X221705470Y-46720000D01*
X221699600Y-46660406D01*
X221682217Y-46603102D01*
X221653989Y-46550290D01*
X221616000Y-46504000D01*
X221604408Y-46494487D01*
X220357834Y-45247914D01*
X220358000Y-45247079D01*
X220358000Y-45152921D01*
X220357834Y-45152087D01*
X220562806Y-44947115D01*
X220574400Y-44937600D01*
X220612389Y-44891310D01*
X220630784Y-44856894D01*
X220640617Y-44838499D01*
X220658000Y-44781195D01*
X220663870Y-44721600D01*
X220662400Y-44706676D01*
X220662400Y-39150000D01*
X220920897Y-39150000D01*
X220920897Y-40850000D01*
X220925299Y-40894696D01*
X220938336Y-40937674D01*
X220959508Y-40977283D01*
X220988000Y-41012000D01*
X221022717Y-41040492D01*
X221062326Y-41061664D01*
X221105304Y-41074701D01*
X221150000Y-41079103D01*
X222850000Y-41079103D01*
X222894696Y-41074701D01*
X222937674Y-41061664D01*
X222977283Y-41040492D01*
X223012000Y-41012000D01*
X223040492Y-40977283D01*
X223061664Y-40937674D01*
X223074701Y-40894696D01*
X223079103Y-40850000D01*
X223079103Y-39150000D01*
X223074701Y-39105304D01*
X223061664Y-39062326D01*
X223040492Y-39022717D01*
X223012000Y-38988000D01*
X222977283Y-38959508D01*
X222937674Y-38938336D01*
X222894696Y-38925299D01*
X222850000Y-38920897D01*
X221150000Y-38920897D01*
X221105304Y-38925299D01*
X221062326Y-38938336D01*
X221022717Y-38959508D01*
X220988000Y-38988000D01*
X220959508Y-39022717D01*
X220938336Y-39062326D01*
X220925299Y-39105304D01*
X220920897Y-39150000D01*
X220662400Y-39150000D01*
X220662400Y-37353826D01*
X220922000Y-37353826D01*
X220922000Y-37566174D01*
X220963427Y-37774441D01*
X221044689Y-37970624D01*
X221162663Y-38147185D01*
X221312815Y-38297337D01*
X221489376Y-38415311D01*
X221685559Y-38496573D01*
X221893826Y-38538000D01*
X222106174Y-38538000D01*
X222314441Y-38496573D01*
X222510624Y-38415311D01*
X222687185Y-38297337D01*
X222837337Y-38147185D01*
X222955311Y-37970624D01*
X223036573Y-37774441D01*
X223078000Y-37566174D01*
X223078000Y-37353826D01*
X223036573Y-37145559D01*
X222955311Y-36949376D01*
X222837337Y-36772815D01*
X222687185Y-36622663D01*
X222510624Y-36504689D01*
X222314441Y-36423427D01*
X222106174Y-36382000D01*
X221893826Y-36382000D01*
X221685559Y-36423427D01*
X221489376Y-36504689D01*
X221312815Y-36622663D01*
X221162663Y-36772815D01*
X221044689Y-36949376D01*
X220963427Y-37145559D01*
X220922000Y-37353826D01*
X220662400Y-37353826D01*
X220662400Y-34813826D01*
X220922000Y-34813826D01*
X220922000Y-35026174D01*
X220963427Y-35234441D01*
X221044689Y-35430624D01*
X221162663Y-35607185D01*
X221312815Y-35757337D01*
X221489376Y-35875311D01*
X221685559Y-35956573D01*
X221893826Y-35998000D01*
X222106174Y-35998000D01*
X222314441Y-35956573D01*
X222510624Y-35875311D01*
X222687185Y-35757337D01*
X222837337Y-35607185D01*
X222955311Y-35430624D01*
X223036573Y-35234441D01*
X223078000Y-35026174D01*
X223078000Y-34813826D01*
X223036573Y-34605559D01*
X222955311Y-34409376D01*
X222837337Y-34232815D01*
X222687185Y-34082663D01*
X222510624Y-33964689D01*
X222314441Y-33883427D01*
X222106174Y-33842000D01*
X221893826Y-33842000D01*
X221685559Y-33883427D01*
X221489376Y-33964689D01*
X221312815Y-34082663D01*
X221162663Y-34232815D01*
X221044689Y-34409376D01*
X220963427Y-34605559D01*
X220922000Y-34813826D01*
X220662400Y-34813826D01*
X220662400Y-32549937D01*
X220933453Y-32549937D01*
X220949607Y-32631147D01*
X221018786Y-32831243D01*
X221125673Y-33013998D01*
X221266160Y-33172389D01*
X221434848Y-33300329D01*
X221625255Y-33392901D01*
X221830063Y-33446547D01*
X221999000Y-33402500D01*
X221999000Y-32381000D01*
X222001000Y-32381000D01*
X222001000Y-33402500D01*
X222169937Y-33446547D01*
X222374745Y-33392901D01*
X222565152Y-33300329D01*
X222733840Y-33172389D01*
X222874327Y-33013998D01*
X222981214Y-32831243D01*
X223050393Y-32631147D01*
X223066547Y-32549937D01*
X223022500Y-32381000D01*
X222001000Y-32381000D01*
X221999000Y-32381000D01*
X220977500Y-32381000D01*
X220933453Y-32549937D01*
X220662400Y-32549937D01*
X220662400Y-32493324D01*
X220663870Y-32478400D01*
X220658000Y-32418805D01*
X220640617Y-32361501D01*
X220630784Y-32343106D01*
X220612389Y-32308690D01*
X220574400Y-32262400D01*
X220562807Y-32252887D01*
X220519984Y-32210063D01*
X220933453Y-32210063D01*
X220977500Y-32379000D01*
X221999000Y-32379000D01*
X221999000Y-31357500D01*
X222001000Y-31357500D01*
X222001000Y-32379000D01*
X223022500Y-32379000D01*
X223066547Y-32210063D01*
X223050393Y-32128853D01*
X222981214Y-31928757D01*
X222874327Y-31746002D01*
X222733840Y-31587611D01*
X222565152Y-31459671D01*
X222374745Y-31367099D01*
X222169937Y-31313453D01*
X222001000Y-31357500D01*
X221999000Y-31357500D01*
X221830063Y-31313453D01*
X221625255Y-31367099D01*
X221434848Y-31459671D01*
X221266160Y-31587611D01*
X221125673Y-31746002D01*
X221018786Y-31928757D01*
X220949607Y-32128853D01*
X220933453Y-32210063D01*
X220519984Y-32210063D01*
X220357834Y-32047913D01*
X220358000Y-32047079D01*
X220358000Y-31952921D01*
X220339631Y-31860572D01*
X220303598Y-31773582D01*
X220251287Y-31695293D01*
X220184707Y-31628713D01*
X220106418Y-31576402D01*
X220019428Y-31540369D01*
X219927079Y-31522000D01*
X219832921Y-31522000D01*
X219740572Y-31540369D01*
X219653582Y-31576402D01*
X219575293Y-31628713D01*
X219508713Y-31695293D01*
X219456402Y-31773582D01*
X219420369Y-31860572D01*
X219402000Y-31952921D01*
X219402000Y-32047079D01*
X219420369Y-32139428D01*
X219456402Y-32226418D01*
X219508713Y-32304707D01*
X219575293Y-32371287D01*
X219653582Y-32423598D01*
X219740572Y-32459631D01*
X219832921Y-32478000D01*
X219927079Y-32478000D01*
X219927913Y-32477834D01*
X220054400Y-32604321D01*
X220054401Y-41554855D01*
X220019428Y-41540369D01*
X219927079Y-41522000D01*
X219832921Y-41522000D01*
X219740572Y-41540369D01*
X219653582Y-41576402D01*
X219575293Y-41628713D01*
X219508713Y-41695293D01*
X219456402Y-41773582D01*
X219420369Y-41860572D01*
X219402000Y-41952921D01*
X219402000Y-42047079D01*
X219420369Y-42139428D01*
X219456402Y-42226418D01*
X219508713Y-42304707D01*
X219575293Y-42371287D01*
X219576000Y-42371760D01*
X219576001Y-43030640D01*
X219575293Y-43031113D01*
X219508713Y-43097693D01*
X219456402Y-43175982D01*
X219442550Y-43209423D01*
X219428698Y-43175982D01*
X219376387Y-43097693D01*
X219309807Y-43031113D01*
X219231518Y-42978802D01*
X219144528Y-42942769D01*
X219052179Y-42924400D01*
X218958021Y-42924400D01*
X218957187Y-42924566D01*
X218744000Y-42711380D01*
X218744000Y-42371759D01*
X218744707Y-42371287D01*
X218811287Y-42304707D01*
X218863598Y-42226418D01*
X218899631Y-42139428D01*
X218918000Y-42047079D01*
X218918000Y-41952921D01*
X218899631Y-41860572D01*
X218863598Y-41773582D01*
X218811287Y-41695293D01*
X218744707Y-41628713D01*
X218666418Y-41576402D01*
X218579428Y-41540369D01*
X218487079Y-41522000D01*
X218392921Y-41522000D01*
X218300572Y-41540369D01*
X218265600Y-41554855D01*
X218265600Y-32604320D01*
X218392086Y-32477834D01*
X218392921Y-32478000D01*
X218487079Y-32478000D01*
X218579428Y-32459631D01*
X218666418Y-32423598D01*
X218744707Y-32371287D01*
X218811287Y-32304707D01*
X218863598Y-32226418D01*
X218899631Y-32139428D01*
X218918000Y-32047079D01*
X218918000Y-31952921D01*
X218899631Y-31860572D01*
X218863598Y-31773582D01*
X218811287Y-31695293D01*
X218744707Y-31628713D01*
X218666418Y-31576402D01*
X218579428Y-31540369D01*
X218487079Y-31522000D01*
X218392921Y-31522000D01*
X218300572Y-31540369D01*
X218213582Y-31576402D01*
X218135293Y-31628713D01*
X218068713Y-31695293D01*
X218016402Y-31773582D01*
X217980369Y-31860572D01*
X217962000Y-31952921D01*
X217962000Y-32047079D01*
X217962166Y-32047914D01*
X217757199Y-32252881D01*
X217745600Y-32262400D01*
X217707611Y-32308691D01*
X217679383Y-32361503D01*
X217673469Y-32381000D01*
X217662000Y-32418806D01*
X217656130Y-32478400D01*
X217657600Y-32493324D01*
X217657601Y-43224381D01*
X217304000Y-42870780D01*
X217304000Y-42371759D01*
X217304707Y-42371287D01*
X217371287Y-42304707D01*
X217423598Y-42226418D01*
X217459631Y-42139428D01*
X217478000Y-42047079D01*
X217478000Y-41952921D01*
X217459631Y-41860572D01*
X217423598Y-41773582D01*
X217371287Y-41695293D01*
X217304707Y-41628713D01*
X217304000Y-41628241D01*
X217304000Y-32371759D01*
X217304707Y-32371287D01*
X217371287Y-32304707D01*
X217423598Y-32226418D01*
X217459631Y-32139428D01*
X217478000Y-32047079D01*
X217478000Y-31952921D01*
X217459631Y-31860572D01*
X217423598Y-31773582D01*
X217371287Y-31695293D01*
X217304707Y-31628713D01*
X217226418Y-31576402D01*
X217139428Y-31540369D01*
X217047079Y-31522000D01*
X216952921Y-31522000D01*
X216860572Y-31540369D01*
X216773582Y-31576402D01*
X216695293Y-31628713D01*
X216628713Y-31695293D01*
X216576402Y-31773582D01*
X216540369Y-31860572D01*
X216522000Y-31952921D01*
X216522000Y-32047079D01*
X216540369Y-32139428D01*
X216576402Y-32226418D01*
X216628713Y-32304707D01*
X216695293Y-32371287D01*
X216696001Y-32371760D01*
X216696000Y-41628241D01*
X216695293Y-41628713D01*
X216628713Y-41695293D01*
X216576402Y-41773582D01*
X216540369Y-41860572D01*
X216522000Y-41952921D01*
X216522000Y-42047079D01*
X216540369Y-42139428D01*
X216576402Y-42226418D01*
X216628713Y-42304707D01*
X216695293Y-42371287D01*
X216696001Y-42371760D01*
X216696000Y-42981776D01*
X216694530Y-42996700D01*
X216700390Y-43056187D01*
X216700400Y-43056293D01*
X216717783Y-43113597D01*
X216746011Y-43166409D01*
X216784000Y-43212700D01*
X216795599Y-43222219D01*
X218311563Y-44738183D01*
X218300572Y-44740369D01*
X218213582Y-44776402D01*
X218135293Y-44828713D01*
X218068713Y-44895293D01*
X218016402Y-44973582D01*
X217980369Y-45060572D01*
X217962000Y-45152921D01*
X217962000Y-45247079D01*
X217962166Y-45247914D01*
X217757199Y-45452881D01*
X217745600Y-45462400D01*
X217707611Y-45508691D01*
X217679383Y-45561503D01*
X217667273Y-45601423D01*
X217662000Y-45618806D01*
X217656130Y-45678400D01*
X217657600Y-45693324D01*
X217657601Y-55427680D01*
X217477834Y-55247914D01*
X217478000Y-55247079D01*
X217478000Y-55152921D01*
X217459631Y-55060572D01*
X217423598Y-54973582D01*
X217371287Y-54895293D01*
X217304707Y-54828713D01*
X217304000Y-54828241D01*
X217304000Y-45571759D01*
X217304707Y-45571287D01*
X217371287Y-45504707D01*
X217423598Y-45426418D01*
X217459631Y-45339428D01*
X217478000Y-45247079D01*
X217478000Y-45152921D01*
X217459631Y-45060572D01*
X217423598Y-44973582D01*
X217371287Y-44895293D01*
X217304707Y-44828713D01*
X217226418Y-44776402D01*
X217139428Y-44740369D01*
X217047079Y-44722000D01*
X216952921Y-44722000D01*
X216860572Y-44740369D01*
X216773582Y-44776402D01*
X216695293Y-44828713D01*
X216628713Y-44895293D01*
X216576402Y-44973582D01*
X216540369Y-45060572D01*
X216522000Y-45152921D01*
X216522000Y-45247079D01*
X216540369Y-45339428D01*
X216576402Y-45426418D01*
X216628713Y-45504707D01*
X216695293Y-45571287D01*
X216696001Y-45571760D01*
X216696000Y-54828241D01*
X216695293Y-54828713D01*
X216628713Y-54895293D01*
X216576402Y-54973582D01*
X216540369Y-55060572D01*
X216522000Y-55152921D01*
X216522000Y-55247079D01*
X216540369Y-55339428D01*
X216576402Y-55426418D01*
X216628713Y-55504707D01*
X216695293Y-55571287D01*
X216773582Y-55623598D01*
X216860572Y-55659631D01*
X216952921Y-55678000D01*
X217047079Y-55678000D01*
X217047914Y-55677834D01*
X217353201Y-55983122D01*
X217353201Y-58077207D01*
X217304707Y-58028713D01*
X217226418Y-57976402D01*
X217139428Y-57940369D01*
X217047079Y-57922000D01*
X216952921Y-57922000D01*
X216860572Y-57940369D01*
X216773582Y-57976402D01*
X216695293Y-58028713D01*
X216628713Y-58095293D01*
X216576402Y-58173582D01*
X216540369Y-58260572D01*
X216522000Y-58352921D01*
X216522000Y-58447079D01*
X216540369Y-58539428D01*
X216576402Y-58626418D01*
X216628713Y-58704707D01*
X216695293Y-58771287D01*
X216696000Y-58771759D01*
X216696001Y-68028240D01*
X216695293Y-68028713D01*
X216628713Y-68095293D01*
X216576402Y-68173582D01*
X216540369Y-68260572D01*
X216522000Y-68352921D01*
X216522000Y-68447079D01*
X216522166Y-68447914D01*
X216317194Y-68652886D01*
X216305601Y-68662400D01*
X216267612Y-68708690D01*
X216239385Y-68761501D01*
X216239384Y-68761502D01*
X216222000Y-68818806D01*
X216216130Y-68878400D01*
X216217601Y-68893334D01*
X216217601Y-71827680D01*
X216037834Y-71647913D01*
X216038000Y-71647079D01*
X216038000Y-71552921D01*
X216019631Y-71460572D01*
X215983598Y-71373582D01*
X215931287Y-71295293D01*
X215864707Y-71228713D01*
X215786418Y-71176402D01*
X215699428Y-71140369D01*
X215607079Y-71122000D01*
X215512921Y-71122000D01*
X215512086Y-71122166D01*
X215385600Y-70995680D01*
X215385600Y-68845145D01*
X215420572Y-68859631D01*
X215512921Y-68878000D01*
X215607079Y-68878000D01*
X215699428Y-68859631D01*
X215786418Y-68823598D01*
X215864707Y-68771287D01*
X215931287Y-68704707D01*
X215983598Y-68626418D01*
X216019631Y-68539428D01*
X216038000Y-68447079D01*
X216038000Y-68352921D01*
X216037834Y-68352087D01*
X216242807Y-68147113D01*
X216254400Y-68137600D01*
X216292389Y-68091310D01*
X216310784Y-68056894D01*
X216320617Y-68038499D01*
X216338000Y-67981195D01*
X216343870Y-67921600D01*
X216342400Y-67906676D01*
X216342400Y-66520259D01*
X216343107Y-66519787D01*
X216409687Y-66453207D01*
X216461998Y-66374918D01*
X216498031Y-66287928D01*
X216516400Y-66195579D01*
X216516400Y-66101421D01*
X216498031Y-66009072D01*
X216461998Y-65922082D01*
X216409687Y-65843793D01*
X216343107Y-65777213D01*
X216342400Y-65776741D01*
X216342400Y-54736523D01*
X216343870Y-54721600D01*
X216342400Y-54706676D01*
X216342400Y-42493324D01*
X216343870Y-42478400D01*
X216338000Y-42418805D01*
X216320617Y-42361501D01*
X216310784Y-42343106D01*
X216292389Y-42308690D01*
X216254400Y-42262400D01*
X216242806Y-42252885D01*
X216037834Y-42047913D01*
X216038000Y-42047079D01*
X216038000Y-41952921D01*
X216019631Y-41860572D01*
X215983598Y-41773582D01*
X215931287Y-41695293D01*
X215864707Y-41628713D01*
X215786418Y-41576402D01*
X215699428Y-41540369D01*
X215607079Y-41522000D01*
X215512921Y-41522000D01*
X215420572Y-41540369D01*
X215385600Y-41554855D01*
X215385600Y-32604320D01*
X215512086Y-32477834D01*
X215512921Y-32478000D01*
X215607079Y-32478000D01*
X215699428Y-32459631D01*
X215786418Y-32423598D01*
X215864707Y-32371287D01*
X215931287Y-32304707D01*
X215983598Y-32226418D01*
X216019631Y-32139428D01*
X216038000Y-32047079D01*
X216038000Y-31952921D01*
X216019631Y-31860572D01*
X215983598Y-31773582D01*
X215931287Y-31695293D01*
X215864707Y-31628713D01*
X215786418Y-31576402D01*
X215699428Y-31540369D01*
X215607079Y-31522000D01*
X215512921Y-31522000D01*
X215420572Y-31540369D01*
X215333582Y-31576402D01*
X215255293Y-31628713D01*
X215188713Y-31695293D01*
X215136402Y-31773582D01*
X215100369Y-31860572D01*
X215082000Y-31952921D01*
X215082000Y-32047079D01*
X215082166Y-32047914D01*
X214877199Y-32252881D01*
X214865600Y-32262400D01*
X214840000Y-32293594D01*
X214814400Y-32262400D01*
X214802807Y-32252887D01*
X214597834Y-32047913D01*
X214598000Y-32047079D01*
X214598000Y-31952921D01*
X214579631Y-31860572D01*
X214543598Y-31773582D01*
X214491287Y-31695293D01*
X214424707Y-31628713D01*
X214346418Y-31576402D01*
X214259428Y-31540369D01*
X214167079Y-31522000D01*
X214072921Y-31522000D01*
X213980572Y-31540369D01*
X213893582Y-31576402D01*
X213815293Y-31628713D01*
X213748713Y-31695293D01*
X213696402Y-31773582D01*
X213660369Y-31860572D01*
X213642000Y-31952921D01*
X213642000Y-32047079D01*
X213660369Y-32139428D01*
X213696402Y-32226418D01*
X213748713Y-32304707D01*
X213815293Y-32371287D01*
X213893582Y-32423598D01*
X213980572Y-32459631D01*
X214072921Y-32478000D01*
X214167079Y-32478000D01*
X214167913Y-32477834D01*
X214294400Y-32604321D01*
X214294401Y-41554855D01*
X214259428Y-41540369D01*
X214167079Y-41522000D01*
X214072921Y-41522000D01*
X213980572Y-41540369D01*
X213893582Y-41576402D01*
X213815293Y-41628713D01*
X213748713Y-41695293D01*
X213696402Y-41773582D01*
X213660369Y-41860572D01*
X213642000Y-41952921D01*
X213642000Y-42047079D01*
X213642166Y-42047914D01*
X213437199Y-42252881D01*
X213425600Y-42262400D01*
X213387611Y-42308691D01*
X213359383Y-42361503D01*
X213347273Y-42401423D01*
X213342000Y-42418806D01*
X213336130Y-42478400D01*
X213337600Y-42493324D01*
X213337601Y-54595678D01*
X212358714Y-55574566D01*
X212357879Y-55574400D01*
X212263721Y-55574400D01*
X212171372Y-55592769D01*
X212084382Y-55628802D01*
X212006093Y-55681113D01*
X211939513Y-55747693D01*
X211887202Y-55825982D01*
X211851169Y-55912972D01*
X211832800Y-56005321D01*
X211832800Y-56099479D01*
X211851169Y-56191828D01*
X211887202Y-56278818D01*
X211939513Y-56357107D01*
X212006093Y-56423687D01*
X212084382Y-56475998D01*
X212171372Y-56512031D01*
X212263721Y-56530400D01*
X212357879Y-56530400D01*
X212450228Y-56512031D01*
X212537218Y-56475998D01*
X212615507Y-56423687D01*
X212682087Y-56357107D01*
X212734398Y-56278818D01*
X212770431Y-56191828D01*
X212788800Y-56099479D01*
X212788800Y-56005321D01*
X212788634Y-56004486D01*
X213641600Y-55151521D01*
X213642166Y-55152086D01*
X213642000Y-55152921D01*
X213642000Y-55247079D01*
X213660369Y-55339428D01*
X213696402Y-55426418D01*
X213748713Y-55504707D01*
X213815293Y-55571287D01*
X213893582Y-55623598D01*
X213980572Y-55659631D01*
X214072921Y-55678000D01*
X214167079Y-55678000D01*
X214259428Y-55659631D01*
X214346418Y-55623598D01*
X214424707Y-55571287D01*
X214491287Y-55504707D01*
X214543598Y-55426418D01*
X214579631Y-55339428D01*
X214598000Y-55247079D01*
X214598000Y-55152921D01*
X214579631Y-55060572D01*
X214543598Y-54973582D01*
X214491287Y-54895293D01*
X214424707Y-54828713D01*
X214346418Y-54776402D01*
X214259428Y-54740369D01*
X214167079Y-54722000D01*
X214072921Y-54722000D01*
X214072086Y-54722166D01*
X213945600Y-54595680D01*
X213945600Y-45645145D01*
X213980572Y-45659631D01*
X214072921Y-45678000D01*
X214167079Y-45678000D01*
X214259428Y-45659631D01*
X214346418Y-45623598D01*
X214424707Y-45571287D01*
X214491287Y-45504707D01*
X214543598Y-45426418D01*
X214579631Y-45339428D01*
X214598000Y-45247079D01*
X214598000Y-45152921D01*
X214597834Y-45152087D01*
X214777601Y-44972320D01*
X214777600Y-56548955D01*
X214742628Y-56534469D01*
X214650279Y-56516100D01*
X214556121Y-56516100D01*
X214463772Y-56534469D01*
X214376782Y-56570502D01*
X214298493Y-56622813D01*
X214231913Y-56689393D01*
X214231091Y-56690623D01*
X210414719Y-56695980D01*
X210400000Y-56694530D01*
X210384856Y-56696022D01*
X210384650Y-56696022D01*
X210370366Y-56697449D01*
X210340407Y-56700400D01*
X210340201Y-56700463D01*
X210339986Y-56700484D01*
X210326000Y-56704748D01*
X210326000Y-30326000D01*
X223674000Y-30326000D01*
X223674000Y-79626605D01*
G37*
%TD.AperFunction*%
D16*
X221153013Y-83603707D02*
X221219593Y-83670287D01*
X221297882Y-83722598D01*
X221384872Y-83758631D01*
X221477221Y-83777000D01*
X221553301Y-83777000D01*
X221553300Y-84128240D01*
X221552593Y-84128713D01*
X221486013Y-84195293D01*
X221433702Y-84273582D01*
X221397669Y-84360572D01*
X221379300Y-84452921D01*
X221379300Y-84547079D01*
X221397669Y-84639428D01*
X221433702Y-84726418D01*
X221486013Y-84804707D01*
X221552593Y-84871287D01*
X221630882Y-84923598D01*
X221717872Y-84959631D01*
X221810221Y-84978000D01*
X221904379Y-84978000D01*
X221905214Y-84977834D01*
X222559401Y-85632022D01*
X222559400Y-91680897D01*
X222004000Y-91680897D01*
X222004000Y-88576559D01*
X222004707Y-88576087D01*
X222071287Y-88509507D01*
X222123598Y-88431218D01*
X222159631Y-88344228D01*
X222178000Y-88251879D01*
X222178000Y-88157721D01*
X222159631Y-88065372D01*
X222123598Y-87978382D01*
X222071287Y-87900093D01*
X222004707Y-87833513D01*
X221926418Y-87781202D01*
X221839428Y-87745169D01*
X221747079Y-87726800D01*
X221652921Y-87726800D01*
X221560572Y-87745169D01*
X221473582Y-87781202D01*
X221395293Y-87833513D01*
X221328713Y-87900093D01*
X221276402Y-87978382D01*
X221240369Y-88065372D01*
X221222000Y-88157721D01*
X221222000Y-88251879D01*
X221240369Y-88344228D01*
X221276402Y-88431218D01*
X221328713Y-88509507D01*
X221395293Y-88576087D01*
X221396000Y-88576559D01*
X221396001Y-91680897D01*
X221103927Y-91680897D01*
X221141507Y-91655787D01*
X221208087Y-91589207D01*
X221260398Y-91510918D01*
X221296431Y-91423928D01*
X221314800Y-91331579D01*
X221314800Y-91237421D01*
X221296431Y-91145072D01*
X221260398Y-91058082D01*
X221208087Y-90979793D01*
X221141507Y-90913213D01*
X221140800Y-90912741D01*
X221140800Y-83585429D01*
X221153013Y-83603707D01*
%TA.AperFunction,Conductor*%
D17*
G36*
X221153013Y-83603707D02*
G01*
X221219593Y-83670287D01*
X221297882Y-83722598D01*
X221384872Y-83758631D01*
X221477221Y-83777000D01*
X221553301Y-83777000D01*
X221553300Y-84128240D01*
X221552593Y-84128713D01*
X221486013Y-84195293D01*
X221433702Y-84273582D01*
X221397669Y-84360572D01*
X221379300Y-84452921D01*
X221379300Y-84547079D01*
X221397669Y-84639428D01*
X221433702Y-84726418D01*
X221486013Y-84804707D01*
X221552593Y-84871287D01*
X221630882Y-84923598D01*
X221717872Y-84959631D01*
X221810221Y-84978000D01*
X221904379Y-84978000D01*
X221905214Y-84977834D01*
X222559401Y-85632022D01*
X222559400Y-91680897D01*
X222004000Y-91680897D01*
X222004000Y-88576559D01*
X222004707Y-88576087D01*
X222071287Y-88509507D01*
X222123598Y-88431218D01*
X222159631Y-88344228D01*
X222178000Y-88251879D01*
X222178000Y-88157721D01*
X222159631Y-88065372D01*
X222123598Y-87978382D01*
X222071287Y-87900093D01*
X222004707Y-87833513D01*
X221926418Y-87781202D01*
X221839428Y-87745169D01*
X221747079Y-87726800D01*
X221652921Y-87726800D01*
X221560572Y-87745169D01*
X221473582Y-87781202D01*
X221395293Y-87833513D01*
X221328713Y-87900093D01*
X221276402Y-87978382D01*
X221240369Y-88065372D01*
X221222000Y-88157721D01*
X221222000Y-88251879D01*
X221240369Y-88344228D01*
X221276402Y-88431218D01*
X221328713Y-88509507D01*
X221395293Y-88576087D01*
X221396000Y-88576559D01*
X221396001Y-91680897D01*
X221103927Y-91680897D01*
X221141507Y-91655787D01*
X221208087Y-91589207D01*
X221260398Y-91510918D01*
X221296431Y-91423928D01*
X221314800Y-91331579D01*
X221314800Y-91237421D01*
X221296431Y-91145072D01*
X221260398Y-91058082D01*
X221208087Y-90979793D01*
X221141507Y-90913213D01*
X221140800Y-90912741D01*
X221140800Y-83585429D01*
X221153013Y-83603707D01*
G37*
%TD.AperFunction*%
D16*
X214231913Y-57298807D02*
X214298493Y-57365387D01*
X214376782Y-57417698D01*
X214463772Y-57453731D01*
X214556121Y-57472100D01*
X214650279Y-57472100D01*
X214742628Y-57453731D01*
X214777600Y-57439245D01*
X214777600Y-57906676D01*
X214776130Y-57921600D01*
X214777600Y-57936523D01*
X214777600Y-58627679D01*
X214597834Y-58447913D01*
X214598000Y-58447079D01*
X214598000Y-58352921D01*
X214579631Y-58260572D01*
X214543598Y-58173582D01*
X214491287Y-58095293D01*
X214424707Y-58028713D01*
X214346418Y-57976402D01*
X214259428Y-57940369D01*
X214167079Y-57922000D01*
X214072921Y-57922000D01*
X213980572Y-57940369D01*
X213893582Y-57976402D01*
X213815293Y-58028713D01*
X213748713Y-58095293D01*
X213720732Y-58137169D01*
X213704190Y-58146011D01*
X213657900Y-58184000D01*
X213619911Y-58230290D01*
X213591683Y-58283102D01*
X213574300Y-58340406D01*
X213568430Y-58400000D01*
X213574300Y-58459594D01*
X213591683Y-58516898D01*
X213619911Y-58569710D01*
X213657900Y-58616000D01*
X213704190Y-58653989D01*
X213720732Y-58662831D01*
X213748713Y-58704707D01*
X213815293Y-58771287D01*
X213893582Y-58823598D01*
X213980572Y-58859631D01*
X214072921Y-58878000D01*
X214167079Y-58878000D01*
X214167913Y-58877834D01*
X214294401Y-59004322D01*
X214294400Y-67954855D01*
X214259428Y-67940369D01*
X214167079Y-67922000D01*
X214072921Y-67922000D01*
X213980572Y-67940369D01*
X213893582Y-67976402D01*
X213815293Y-68028713D01*
X213748713Y-68095293D01*
X213748241Y-68096000D01*
X212682559Y-68096000D01*
X212682087Y-68095293D01*
X212615507Y-68028713D01*
X212537218Y-67976402D01*
X212450228Y-67940369D01*
X212357879Y-67922000D01*
X212263721Y-67922000D01*
X212171372Y-67940369D01*
X212084382Y-67976402D01*
X212006093Y-68028713D01*
X211939513Y-68095293D01*
X211887202Y-68173582D01*
X211851169Y-68260572D01*
X211832800Y-68352921D01*
X211832800Y-68447079D01*
X211851169Y-68539428D01*
X211887202Y-68626418D01*
X211939513Y-68704707D01*
X212006093Y-68771287D01*
X212084382Y-68823598D01*
X212171372Y-68859631D01*
X212263721Y-68878000D01*
X212357879Y-68878000D01*
X212450228Y-68859631D01*
X212537218Y-68823598D01*
X212615507Y-68771287D01*
X212682087Y-68704707D01*
X212682559Y-68704000D01*
X213748241Y-68704000D01*
X213748713Y-68704707D01*
X213815293Y-68771287D01*
X213893582Y-68823598D01*
X213980572Y-68859631D01*
X214072921Y-68878000D01*
X214167079Y-68878000D01*
X214259428Y-68859631D01*
X214294400Y-68845145D01*
X214294400Y-70995679D01*
X214167913Y-71122166D01*
X214167079Y-71122000D01*
X214072921Y-71122000D01*
X213980572Y-71140369D01*
X213893582Y-71176402D01*
X213815293Y-71228713D01*
X213748713Y-71295293D01*
X213696402Y-71373582D01*
X213660369Y-71460572D01*
X213642000Y-71552921D01*
X213642000Y-71647079D01*
X213642166Y-71647914D01*
X213437199Y-71852881D01*
X213425600Y-71862400D01*
X213387611Y-71908691D01*
X213359383Y-71961503D01*
X213347273Y-72001423D01*
X213342000Y-72018806D01*
X213336130Y-72078400D01*
X213337600Y-72093324D01*
X213337601Y-84814924D01*
X213342001Y-84859594D01*
X213359384Y-84916898D01*
X213387612Y-84969710D01*
X213425601Y-85016000D01*
X213471891Y-85053989D01*
X213524703Y-85082217D01*
X213582007Y-85099600D01*
X213641600Y-85105470D01*
X213656524Y-85104000D01*
X213748241Y-85104000D01*
X213748713Y-85104707D01*
X213815293Y-85171287D01*
X213893582Y-85223598D01*
X213980572Y-85259631D01*
X214072921Y-85278000D01*
X214167079Y-85278000D01*
X214259428Y-85259631D01*
X214294400Y-85245145D01*
X214294401Y-90300552D01*
X214290887Y-90295293D01*
X214224307Y-90228713D01*
X214146018Y-90176402D01*
X214059028Y-90140369D01*
X213966679Y-90122000D01*
X213872521Y-90122000D01*
X213780172Y-90140369D01*
X213693182Y-90176402D01*
X213614893Y-90228713D01*
X213548313Y-90295293D01*
X213547841Y-90296000D01*
X211514915Y-90296000D01*
X211499999Y-90294531D01*
X211485083Y-90296000D01*
X211485076Y-90296000D01*
X211446184Y-90299831D01*
X211440405Y-90300400D01*
X211423022Y-90305673D01*
X211383102Y-90317783D01*
X211330290Y-90346011D01*
X211284000Y-90384000D01*
X211274481Y-90395599D01*
X210704000Y-90966080D01*
X210704000Y-57303573D01*
X214231789Y-57298621D01*
X214231913Y-57298807D01*
%TA.AperFunction,Conductor*%
D17*
G36*
X214231913Y-57298807D02*
G01*
X214298493Y-57365387D01*
X214376782Y-57417698D01*
X214463772Y-57453731D01*
X214556121Y-57472100D01*
X214650279Y-57472100D01*
X214742628Y-57453731D01*
X214777600Y-57439245D01*
X214777600Y-57906676D01*
X214776130Y-57921600D01*
X214777600Y-57936523D01*
X214777600Y-58627679D01*
X214597834Y-58447913D01*
X214598000Y-58447079D01*
X214598000Y-58352921D01*
X214579631Y-58260572D01*
X214543598Y-58173582D01*
X214491287Y-58095293D01*
X214424707Y-58028713D01*
X214346418Y-57976402D01*
X214259428Y-57940369D01*
X214167079Y-57922000D01*
X214072921Y-57922000D01*
X213980572Y-57940369D01*
X213893582Y-57976402D01*
X213815293Y-58028713D01*
X213748713Y-58095293D01*
X213720732Y-58137169D01*
X213704190Y-58146011D01*
X213657900Y-58184000D01*
X213619911Y-58230290D01*
X213591683Y-58283102D01*
X213574300Y-58340406D01*
X213568430Y-58400000D01*
X213574300Y-58459594D01*
X213591683Y-58516898D01*
X213619911Y-58569710D01*
X213657900Y-58616000D01*
X213704190Y-58653989D01*
X213720732Y-58662831D01*
X213748713Y-58704707D01*
X213815293Y-58771287D01*
X213893582Y-58823598D01*
X213980572Y-58859631D01*
X214072921Y-58878000D01*
X214167079Y-58878000D01*
X214167913Y-58877834D01*
X214294401Y-59004322D01*
X214294400Y-67954855D01*
X214259428Y-67940369D01*
X214167079Y-67922000D01*
X214072921Y-67922000D01*
X213980572Y-67940369D01*
X213893582Y-67976402D01*
X213815293Y-68028713D01*
X213748713Y-68095293D01*
X213748241Y-68096000D01*
X212682559Y-68096000D01*
X212682087Y-68095293D01*
X212615507Y-68028713D01*
X212537218Y-67976402D01*
X212450228Y-67940369D01*
X212357879Y-67922000D01*
X212263721Y-67922000D01*
X212171372Y-67940369D01*
X212084382Y-67976402D01*
X212006093Y-68028713D01*
X211939513Y-68095293D01*
X211887202Y-68173582D01*
X211851169Y-68260572D01*
X211832800Y-68352921D01*
X211832800Y-68447079D01*
X211851169Y-68539428D01*
X211887202Y-68626418D01*
X211939513Y-68704707D01*
X212006093Y-68771287D01*
X212084382Y-68823598D01*
X212171372Y-68859631D01*
X212263721Y-68878000D01*
X212357879Y-68878000D01*
X212450228Y-68859631D01*
X212537218Y-68823598D01*
X212615507Y-68771287D01*
X212682087Y-68704707D01*
X212682559Y-68704000D01*
X213748241Y-68704000D01*
X213748713Y-68704707D01*
X213815293Y-68771287D01*
X213893582Y-68823598D01*
X213980572Y-68859631D01*
X214072921Y-68878000D01*
X214167079Y-68878000D01*
X214259428Y-68859631D01*
X214294400Y-68845145D01*
X214294400Y-70995679D01*
X214167913Y-71122166D01*
X214167079Y-71122000D01*
X214072921Y-71122000D01*
X213980572Y-71140369D01*
X213893582Y-71176402D01*
X213815293Y-71228713D01*
X213748713Y-71295293D01*
X213696402Y-71373582D01*
X213660369Y-71460572D01*
X213642000Y-71552921D01*
X213642000Y-71647079D01*
X213642166Y-71647914D01*
X213437199Y-71852881D01*
X213425600Y-71862400D01*
X213387611Y-71908691D01*
X213359383Y-71961503D01*
X213347273Y-72001423D01*
X213342000Y-72018806D01*
X213336130Y-72078400D01*
X213337600Y-72093324D01*
X213337601Y-84814924D01*
X213342001Y-84859594D01*
X213359384Y-84916898D01*
X213387612Y-84969710D01*
X213425601Y-85016000D01*
X213471891Y-85053989D01*
X213524703Y-85082217D01*
X213582007Y-85099600D01*
X213641600Y-85105470D01*
X213656524Y-85104000D01*
X213748241Y-85104000D01*
X213748713Y-85104707D01*
X213815293Y-85171287D01*
X213893582Y-85223598D01*
X213980572Y-85259631D01*
X214072921Y-85278000D01*
X214167079Y-85278000D01*
X214259428Y-85259631D01*
X214294400Y-85245145D01*
X214294401Y-90300552D01*
X214290887Y-90295293D01*
X214224307Y-90228713D01*
X214146018Y-90176402D01*
X214059028Y-90140369D01*
X213966679Y-90122000D01*
X213872521Y-90122000D01*
X213780172Y-90140369D01*
X213693182Y-90176402D01*
X213614893Y-90228713D01*
X213548313Y-90295293D01*
X213547841Y-90296000D01*
X211514915Y-90296000D01*
X211499999Y-90294531D01*
X211485083Y-90296000D01*
X211485076Y-90296000D01*
X211446184Y-90299831D01*
X211440405Y-90300400D01*
X211423022Y-90305673D01*
X211383102Y-90317783D01*
X211330290Y-90346011D01*
X211284000Y-90384000D01*
X211274481Y-90395599D01*
X210704000Y-90966080D01*
X210704000Y-57303573D01*
X214231789Y-57298621D01*
X214231913Y-57298807D01*
G37*
%TD.AperFunction*%
%TD*%
M02*
