%TF.GenerationSoftware,KiCad,Pcbnew,(5.1.8)-1*%
%TF.CreationDate,2020-12-10T23:44:26+08:00*%
%TF.ProjectId,HEMAC_DISP,48454d41-435f-4444-9953-502e6b696361,rev?*%
%TF.SameCoordinates,Original*%
%TF.FileFunction,Soldermask,Bot*%
%TF.FilePolarity,Negative*%
%FSLAX46Y46*%
G04 Gerber Fmt 4.6, Leading zero omitted, Abs format (unit mm)*
G04 Created by KiCad (PCBNEW (5.1.8)-1) date 2020-12-10 23:44:26*
%MOMM*%
%LPD*%
G01*
G04 APERTURE LIST*
%ADD10C,0.500000*%
%ADD11R,1.870000X0.670000*%
%ADD12R,1.700000X1.700000*%
%ADD13O,1.700000X1.700000*%
%ADD14R,1.250000X1.300000*%
G04 APERTURE END LIST*
D10*
%TO.C,DISP6*%
X214120000Y-98000000D03*
X215560000Y-98000000D03*
X217000000Y-98000000D03*
X218440000Y-98000000D03*
X219880000Y-98000000D03*
X219880000Y-108000000D03*
X218440000Y-108000000D03*
X217000000Y-108000000D03*
X215560000Y-108000000D03*
X214120000Y-108000000D03*
%TD*%
%TO.C,DISP5*%
X214120000Y-84800000D03*
X215560000Y-84800000D03*
X217000000Y-84800000D03*
X218440000Y-84800000D03*
X219880000Y-84800000D03*
X219880000Y-94800000D03*
X218440000Y-94800000D03*
X217000000Y-94800000D03*
X215560000Y-94800000D03*
X214120000Y-94800000D03*
%TD*%
%TO.C,DISP4*%
X214120000Y-71600000D03*
X215560000Y-71600000D03*
X217000000Y-71600000D03*
X218440000Y-71600000D03*
X219880000Y-71600000D03*
X219880000Y-81600000D03*
X218440000Y-81600000D03*
X217000000Y-81600000D03*
X215560000Y-81600000D03*
X214120000Y-81600000D03*
%TD*%
%TO.C,DISP3*%
X214120000Y-58400000D03*
X215560000Y-58400000D03*
X217000000Y-58400000D03*
X218440000Y-58400000D03*
X219880000Y-58400000D03*
X219880000Y-68400000D03*
X218440000Y-68400000D03*
X217000000Y-68400000D03*
X215560000Y-68400000D03*
X214120000Y-68400000D03*
%TD*%
%TO.C,DISP2*%
X214120000Y-45200000D03*
X215560000Y-45200000D03*
X217000000Y-45200000D03*
X218440000Y-45200000D03*
X219880000Y-45200000D03*
X219880000Y-55200000D03*
X218440000Y-55200000D03*
X217000000Y-55200000D03*
X215560000Y-55200000D03*
X214120000Y-55200000D03*
%TD*%
%TO.C,DISP1*%
X214120000Y-32000000D03*
X215560000Y-32000000D03*
X217000000Y-32000000D03*
X218440000Y-32000000D03*
X219880000Y-32000000D03*
X219880000Y-42000000D03*
X218440000Y-42000000D03*
X217000000Y-42000000D03*
X215560000Y-42000000D03*
X214120000Y-42000000D03*
%TD*%
D11*
%TO.C,U1*%
X221700000Y-108755000D03*
X221700000Y-107485000D03*
X221700000Y-106215000D03*
X221700000Y-104945000D03*
X221700000Y-103675000D03*
X221700000Y-102405000D03*
X221700000Y-101135000D03*
X221700000Y-99865000D03*
X221700000Y-98595000D03*
X221700000Y-97325000D03*
X221700000Y-96055000D03*
X221700000Y-94785000D03*
X221700000Y-93515000D03*
X221700000Y-92245000D03*
X212300000Y-92245000D03*
X212300000Y-93515000D03*
X212300000Y-94785000D03*
X212300000Y-96055000D03*
X212300000Y-97325000D03*
X212300000Y-98595000D03*
X212300000Y-99865000D03*
X212300000Y-101135000D03*
X212300000Y-102405000D03*
X212300000Y-103675000D03*
X212300000Y-104945000D03*
X212300000Y-106215000D03*
X212300000Y-107485000D03*
X212300000Y-108755000D03*
%TD*%
D12*
%TO.C,J1*%
X222000000Y-40000000D03*
D13*
X222000000Y-37460000D03*
X222000000Y-34920000D03*
X222000000Y-32380000D03*
%TD*%
D14*
%TO.C,C1*%
X223000000Y-80500000D03*
X223000000Y-82500000D03*
%TD*%
M02*
