M48
; DRILL file {KiCad (5.1.8)-1} date 12/10/20 23:44:35
; FORMAT={-:-/ absolute / inch / decimal}
; #@! TF.CreationDate,2020-12-10T23:44:35+08:00
; #@! TF.GenerationSoftware,Kicad,Pcbnew,(5.1.8)-1
; #@! TF.FileFunction,Plated,1,2,PTH
FMAT,2
INCH
T1C0.0118
T2C0.0394
%
G90
G05
T1
X8.3228Y-3.1102
X8.3228Y-3.3976
X8.3587Y-2.2068
X8.3587Y-2.6929
X8.4109Y-3.9497
X8.4125Y-3.9135
X8.422Y-3.5669
X8.4252Y-4.0315
X8.4252Y-4.122
X8.4299Y-3.6595
X8.4299Y-3.9323
X8.4488Y-3.6052
X8.4489Y-2.2439
X8.4489Y-3.6317
X8.4921Y-4.0315
X8.5054Y-2.6043
X8.5054Y-3.6317
X8.5545Y-3.9135
X8.6Y-1.7228
X8.6Y-3.8016
X8.6Y-3.9135
X8.622Y-3.9724
X8.622Y-4.0591
X8.622Y-4.1614
X8.6222Y-1.7088
X8.6552Y-3.9135
X8.6567Y-1.7088
X8.6567Y-3.7875
X8.6944Y-3.5939
X8.7165Y-2.2394
X8.7205Y-3.3976
X8.7214Y-3.2795
X8.7283Y-3.4726
X8.7345Y-3.3268
X8.7391Y-3.1693
X8.7441Y-1.9961
X8.7441Y-2.0906
X8.748Y-2.2008
X8.748Y-2.315
X8.748Y-2.4488
X8.748Y-2.5787
X8.748Y-2.7283
X8.748Y-2.9016
X8.748Y-3.0591
X8.7795Y-1.8859
X8.7913Y-3.9213
X8.4299Y-1.2598
X8.4299Y-1.6535
X8.4866Y-1.2598
X8.4866Y-1.6535
X8.5433Y-1.2598
X8.5433Y-1.6535
X8.6Y-1.2598
X8.6Y-1.6535
X8.6567Y-1.2598
X8.6567Y-1.6535
X8.4299Y-2.2992
X8.4299Y-2.6929
X8.4866Y-2.2992
X8.4866Y-2.6929
X8.5433Y-2.2992
X8.5433Y-2.6929
X8.6Y-2.2992
X8.6Y-2.6929
X8.6567Y-2.2992
X8.6567Y-2.6929
X8.4299Y-3.3386
X8.4299Y-3.7323
X8.4866Y-3.3386
X8.4866Y-3.7323
X8.5433Y-3.3386
X8.5433Y-3.7323
X8.6Y-3.3386
X8.6Y-3.7323
X8.6567Y-3.3386
X8.6567Y-3.7323
X8.4299Y-2.8189
X8.4299Y-3.2126
X8.4866Y-2.8189
X8.4866Y-3.2126
X8.5433Y-2.8189
X8.5433Y-3.2126
X8.6Y-2.8189
X8.6Y-3.2126
X8.6567Y-2.8189
X8.6567Y-3.2126
X8.4299Y-3.8583
X8.4299Y-4.252
X8.4866Y-3.8583
X8.4866Y-4.252
X8.5433Y-3.8583
X8.5433Y-4.252
X8.6Y-3.8583
X8.6Y-4.252
X8.6567Y-3.8583
X8.6567Y-4.252
X8.4299Y-1.7795
X8.4299Y-2.1732
X8.4866Y-1.7795
X8.4866Y-2.1732
X8.5433Y-1.7795
X8.5433Y-2.1732
X8.6Y-1.7795
X8.6Y-2.1732
X8.6567Y-1.7795
X8.6567Y-2.1732
T2
X8.7402Y-1.2748
X8.7402Y-1.3748
X8.7402Y-1.4748
X8.7402Y-1.5748
T0
M30
