%TF.GenerationSoftware,KiCad,Pcbnew,(5.1.8)-1*%
%TF.CreationDate,2020-12-10T23:44:26+08:00*%
%TF.ProjectId,HEMAC_DISP,48454d41-435f-4444-9953-502e6b696361,rev?*%
%TF.SameCoordinates,Original*%
%TF.FileFunction,Copper,L1,Top*%
%TF.FilePolarity,Positive*%
%FSLAX46Y46*%
G04 Gerber Fmt 4.6, Leading zero omitted, Abs format (unit mm)*
G04 Created by KiCad (PCBNEW (5.1.8)-1) date 2020-12-10 23:44:26*
%MOMM*%
%LPD*%
G01*
G04 APERTURE LIST*
%TA.AperFunction,ComponentPad*%
%ADD10C,0.500000*%
%TD*%
%TA.AperFunction,SMDPad,CuDef*%
%ADD11R,0.900000X2.000000*%
%TD*%
%TA.AperFunction,SMDPad,CuDef*%
%ADD12R,1.300000X0.900000*%
%TD*%
%TA.AperFunction,ComponentPad*%
%ADD13R,1.700000X1.700000*%
%TD*%
%TA.AperFunction,ComponentPad*%
%ADD14O,1.700000X1.700000*%
%TD*%
%TA.AperFunction,SMDPad,CuDef*%
%ADD15R,1.250000X1.300000*%
%TD*%
%TA.AperFunction,ViaPad*%
%ADD16C,0.500000*%
%TD*%
%TA.AperFunction,Conductor*%
%ADD17C,0.152000*%
%TD*%
%TA.AperFunction,Conductor*%
%ADD18C,0.100000*%
%TD*%
G04 APERTURE END LIST*
D10*
%TO.P,DISP6,10*%
%TO.N,/SEG7*%
X214120000Y-98000000D03*
%TO.P,DISP6,9*%
%TO.N,/SEG6*%
X215560000Y-98000000D03*
%TO.P,DISP6,8*%
%TO.N,/GRID6*%
X217000000Y-98000000D03*
%TO.P,DISP6,7*%
%TO.N,/SEG1*%
X218440000Y-98000000D03*
%TO.P,DISP6,6*%
%TO.N,/SEG2*%
X219880000Y-98000000D03*
%TO.P,DISP6,5*%
%TO.N,/SEG8*%
X219880000Y-108000000D03*
%TO.P,DISP6,4*%
%TO.N,/SEG3*%
X218440000Y-108000000D03*
%TO.P,DISP6,3*%
%TO.N,/GRID6*%
X217000000Y-108000000D03*
%TO.P,DISP6,2*%
%TO.N,/SEG4*%
X215560000Y-108000000D03*
%TO.P,DISP6,1*%
%TO.N,/SEG5*%
X214120000Y-108000000D03*
D11*
%TO.P,DISP6,10*%
%TO.N,/SEG7*%
X214120000Y-98000000D03*
%TO.P,DISP6,9*%
%TO.N,/SEG6*%
X215560000Y-98000000D03*
%TO.P,DISP6,8*%
%TO.N,/GRID6*%
X217000000Y-98000000D03*
%TO.P,DISP6,7*%
%TO.N,/SEG1*%
X218440000Y-98000000D03*
%TO.P,DISP6,6*%
%TO.N,/SEG2*%
X219880000Y-98000000D03*
%TO.P,DISP6,5*%
%TO.N,/SEG8*%
X219880000Y-108000000D03*
%TO.P,DISP6,4*%
%TO.N,/SEG3*%
X218440000Y-108000000D03*
%TO.P,DISP6,3*%
%TO.N,/GRID6*%
X217000000Y-108000000D03*
%TO.P,DISP6,2*%
%TO.N,/SEG4*%
X215560000Y-108000000D03*
%TO.P,DISP6,1*%
%TO.N,/SEG5*%
X214120000Y-108000000D03*
%TD*%
D10*
%TO.P,DISP5,10*%
%TO.N,/SEG7*%
X214120000Y-84800000D03*
%TO.P,DISP5,9*%
%TO.N,/SEG6*%
X215560000Y-84800000D03*
%TO.P,DISP5,8*%
%TO.N,/GRID5*%
X217000000Y-84800000D03*
%TO.P,DISP5,7*%
%TO.N,/SEG1*%
X218440000Y-84800000D03*
%TO.P,DISP5,6*%
%TO.N,/SEG2*%
X219880000Y-84800000D03*
%TO.P,DISP5,5*%
%TO.N,/SEG8*%
X219880000Y-94800000D03*
%TO.P,DISP5,4*%
%TO.N,/SEG3*%
X218440000Y-94800000D03*
%TO.P,DISP5,3*%
%TO.N,/GRID5*%
X217000000Y-94800000D03*
%TO.P,DISP5,2*%
%TO.N,/SEG4*%
X215560000Y-94800000D03*
%TO.P,DISP5,1*%
%TO.N,/SEG5*%
X214120000Y-94800000D03*
D11*
%TO.P,DISP5,10*%
%TO.N,/SEG7*%
X214120000Y-84800000D03*
%TO.P,DISP5,9*%
%TO.N,/SEG6*%
X215560000Y-84800000D03*
%TO.P,DISP5,8*%
%TO.N,/GRID5*%
X217000000Y-84800000D03*
%TO.P,DISP5,7*%
%TO.N,/SEG1*%
X218440000Y-84800000D03*
%TO.P,DISP5,6*%
%TO.N,/SEG2*%
X219880000Y-84800000D03*
%TO.P,DISP5,5*%
%TO.N,/SEG8*%
X219880000Y-94800000D03*
%TO.P,DISP5,4*%
%TO.N,/SEG3*%
X218440000Y-94800000D03*
%TO.P,DISP5,3*%
%TO.N,/GRID5*%
X217000000Y-94800000D03*
%TO.P,DISP5,2*%
%TO.N,/SEG4*%
X215560000Y-94800000D03*
%TO.P,DISP5,1*%
%TO.N,/SEG5*%
X214120000Y-94800000D03*
%TD*%
D10*
%TO.P,DISP4,10*%
%TO.N,/SEG7*%
X214120000Y-71600000D03*
%TO.P,DISP4,9*%
%TO.N,/SEG6*%
X215560000Y-71600000D03*
%TO.P,DISP4,8*%
%TO.N,/GRID4*%
X217000000Y-71600000D03*
%TO.P,DISP4,7*%
%TO.N,/SEG1*%
X218440000Y-71600000D03*
%TO.P,DISP4,6*%
%TO.N,/SEG2*%
X219880000Y-71600000D03*
%TO.P,DISP4,5*%
%TO.N,/SEG8*%
X219880000Y-81600000D03*
%TO.P,DISP4,4*%
%TO.N,/SEG3*%
X218440000Y-81600000D03*
%TO.P,DISP4,3*%
%TO.N,/GRID4*%
X217000000Y-81600000D03*
%TO.P,DISP4,2*%
%TO.N,/SEG4*%
X215560000Y-81600000D03*
%TO.P,DISP4,1*%
%TO.N,/SEG5*%
X214120000Y-81600000D03*
D11*
%TO.P,DISP4,10*%
%TO.N,/SEG7*%
X214120000Y-71600000D03*
%TO.P,DISP4,9*%
%TO.N,/SEG6*%
X215560000Y-71600000D03*
%TO.P,DISP4,8*%
%TO.N,/GRID4*%
X217000000Y-71600000D03*
%TO.P,DISP4,7*%
%TO.N,/SEG1*%
X218440000Y-71600000D03*
%TO.P,DISP4,6*%
%TO.N,/SEG2*%
X219880000Y-71600000D03*
%TO.P,DISP4,5*%
%TO.N,/SEG8*%
X219880000Y-81600000D03*
%TO.P,DISP4,4*%
%TO.N,/SEG3*%
X218440000Y-81600000D03*
%TO.P,DISP4,3*%
%TO.N,/GRID4*%
X217000000Y-81600000D03*
%TO.P,DISP4,2*%
%TO.N,/SEG4*%
X215560000Y-81600000D03*
%TO.P,DISP4,1*%
%TO.N,/SEG5*%
X214120000Y-81600000D03*
%TD*%
D10*
%TO.P,DISP3,10*%
%TO.N,/SEG7*%
X214120000Y-58400000D03*
%TO.P,DISP3,9*%
%TO.N,/SEG6*%
X215560000Y-58400000D03*
%TO.P,DISP3,8*%
%TO.N,/GRID3*%
X217000000Y-58400000D03*
%TO.P,DISP3,7*%
%TO.N,/SEG1*%
X218440000Y-58400000D03*
%TO.P,DISP3,6*%
%TO.N,/SEG2*%
X219880000Y-58400000D03*
%TO.P,DISP3,5*%
%TO.N,/SEG8*%
X219880000Y-68400000D03*
%TO.P,DISP3,4*%
%TO.N,/SEG3*%
X218440000Y-68400000D03*
%TO.P,DISP3,3*%
%TO.N,/GRID3*%
X217000000Y-68400000D03*
%TO.P,DISP3,2*%
%TO.N,/SEG4*%
X215560000Y-68400000D03*
%TO.P,DISP3,1*%
%TO.N,/SEG5*%
X214120000Y-68400000D03*
D11*
%TO.P,DISP3,10*%
%TO.N,/SEG7*%
X214120000Y-58400000D03*
%TO.P,DISP3,9*%
%TO.N,/SEG6*%
X215560000Y-58400000D03*
%TO.P,DISP3,8*%
%TO.N,/GRID3*%
X217000000Y-58400000D03*
%TO.P,DISP3,7*%
%TO.N,/SEG1*%
X218440000Y-58400000D03*
%TO.P,DISP3,6*%
%TO.N,/SEG2*%
X219880000Y-58400000D03*
%TO.P,DISP3,5*%
%TO.N,/SEG8*%
X219880000Y-68400000D03*
%TO.P,DISP3,4*%
%TO.N,/SEG3*%
X218440000Y-68400000D03*
%TO.P,DISP3,3*%
%TO.N,/GRID3*%
X217000000Y-68400000D03*
%TO.P,DISP3,2*%
%TO.N,/SEG4*%
X215560000Y-68400000D03*
%TO.P,DISP3,1*%
%TO.N,/SEG5*%
X214120000Y-68400000D03*
%TD*%
D10*
%TO.P,DISP2,10*%
%TO.N,/SEG7*%
X214120000Y-45200000D03*
%TO.P,DISP2,9*%
%TO.N,/SEG6*%
X215560000Y-45200000D03*
%TO.P,DISP2,8*%
%TO.N,/GRID2*%
X217000000Y-45200000D03*
%TO.P,DISP2,7*%
%TO.N,/SEG1*%
X218440000Y-45200000D03*
%TO.P,DISP2,6*%
%TO.N,/SEG2*%
X219880000Y-45200000D03*
%TO.P,DISP2,5*%
%TO.N,/SEG8*%
X219880000Y-55200000D03*
%TO.P,DISP2,4*%
%TO.N,/SEG3*%
X218440000Y-55200000D03*
%TO.P,DISP2,3*%
%TO.N,/GRID2*%
X217000000Y-55200000D03*
%TO.P,DISP2,2*%
%TO.N,/SEG4*%
X215560000Y-55200000D03*
%TO.P,DISP2,1*%
%TO.N,/SEG5*%
X214120000Y-55200000D03*
D11*
%TO.P,DISP2,10*%
%TO.N,/SEG7*%
X214120000Y-45200000D03*
%TO.P,DISP2,9*%
%TO.N,/SEG6*%
X215560000Y-45200000D03*
%TO.P,DISP2,8*%
%TO.N,/GRID2*%
X217000000Y-45200000D03*
%TO.P,DISP2,7*%
%TO.N,/SEG1*%
X218440000Y-45200000D03*
%TO.P,DISP2,6*%
%TO.N,/SEG2*%
X219880000Y-45200000D03*
%TO.P,DISP2,5*%
%TO.N,/SEG8*%
X219880000Y-55200000D03*
%TO.P,DISP2,4*%
%TO.N,/SEG3*%
X218440000Y-55200000D03*
%TO.P,DISP2,3*%
%TO.N,/GRID2*%
X217000000Y-55200000D03*
%TO.P,DISP2,2*%
%TO.N,/SEG4*%
X215560000Y-55200000D03*
%TO.P,DISP2,1*%
%TO.N,/SEG5*%
X214120000Y-55200000D03*
%TD*%
D10*
%TO.P,DISP1,10*%
%TO.N,/SEG7*%
X214120000Y-32000000D03*
%TO.P,DISP1,9*%
%TO.N,/SEG6*%
X215560000Y-32000000D03*
%TO.P,DISP1,8*%
%TO.N,/GRID1*%
X217000000Y-32000000D03*
%TO.P,DISP1,7*%
%TO.N,/SEG1*%
X218440000Y-32000000D03*
%TO.P,DISP1,6*%
%TO.N,/SEG2*%
X219880000Y-32000000D03*
%TO.P,DISP1,5*%
%TO.N,/SEG8*%
X219880000Y-42000000D03*
%TO.P,DISP1,4*%
%TO.N,/SEG3*%
X218440000Y-42000000D03*
%TO.P,DISP1,3*%
%TO.N,/GRID1*%
X217000000Y-42000000D03*
%TO.P,DISP1,2*%
%TO.N,/SEG4*%
X215560000Y-42000000D03*
%TO.P,DISP1,1*%
%TO.N,/SEG5*%
X214120000Y-42000000D03*
D11*
%TO.P,DISP1,10*%
%TO.N,/SEG7*%
X214120000Y-32000000D03*
%TO.P,DISP1,9*%
%TO.N,/SEG6*%
X215560000Y-32000000D03*
%TO.P,DISP1,8*%
%TO.N,/GRID1*%
X217000000Y-32000000D03*
%TO.P,DISP1,7*%
%TO.N,/SEG1*%
X218440000Y-32000000D03*
%TO.P,DISP1,6*%
%TO.N,/SEG2*%
X219880000Y-32000000D03*
%TO.P,DISP1,5*%
%TO.N,/SEG8*%
X219880000Y-42000000D03*
%TO.P,DISP1,4*%
%TO.N,/SEG3*%
X218440000Y-42000000D03*
%TO.P,DISP1,3*%
%TO.N,/GRID1*%
X217000000Y-42000000D03*
%TO.P,DISP1,2*%
%TO.N,/SEG4*%
X215560000Y-42000000D03*
%TO.P,DISP1,1*%
%TO.N,/SEG5*%
X214120000Y-42000000D03*
%TD*%
D12*
%TO.P,R2,1*%
%TO.N,+5V*%
X223000000Y-47050000D03*
%TO.P,R2,2*%
%TO.N,/SCLK*%
X223000000Y-48950000D03*
%TD*%
%TO.P,R1,1*%
%TO.N,+5V*%
X223000000Y-44950000D03*
%TO.P,R1,2*%
%TO.N,/DIN*%
X223000000Y-43050000D03*
%TD*%
D13*
%TO.P,J1,1*%
%TO.N,+5V*%
X222000000Y-40000000D03*
D14*
%TO.P,J1,2*%
%TO.N,/DIN*%
X222000000Y-37460000D03*
%TO.P,J1,3*%
%TO.N,/SCLK*%
X222000000Y-34920000D03*
%TO.P,J1,4*%
%TO.N,GND*%
X222000000Y-32380000D03*
%TD*%
D15*
%TO.P,C3,1*%
%TO.N,+5V*%
X223000000Y-84500000D03*
%TO.P,C3,2*%
%TO.N,GND*%
X223000000Y-86500000D03*
%TD*%
%TO.P,C2,1*%
%TO.N,+5V*%
X223000000Y-80500000D03*
%TO.P,C2,2*%
%TO.N,GND*%
X223000000Y-82500000D03*
%TD*%
D16*
%TO.N,+5V*%
X221857300Y-84500000D03*
X221972600Y-80500000D03*
X221524300Y-83299000D03*
X223000000Y-47902400D03*
%TO.N,GND*%
X222100000Y-50700000D03*
X214000000Y-102400000D03*
X222100000Y-53100000D03*
X222200000Y-55900000D03*
X222200000Y-58800000D03*
X222200000Y-62200000D03*
X222200000Y-65500000D03*
X222200000Y-69300000D03*
X222200000Y-73700000D03*
X222200000Y-77700000D03*
X221500000Y-86300000D03*
X214000000Y-104700000D03*
X215700000Y-102400000D03*
X219000000Y-103100000D03*
X219000000Y-100900000D03*
X219000000Y-105700000D03*
X211400000Y-86300000D03*
X211400000Y-79000000D03*
%TO.N,/SEG5*%
X214120000Y-92951600D03*
X214598400Y-91573100D03*
X212310800Y-56052400D03*
X212310800Y-68400000D03*
%TO.N,/SEG4*%
X216038400Y-66148500D03*
%TO.N,/SEG3*%
X219005100Y-43402400D03*
X214120000Y-99881600D03*
%TO.N,/SEG8*%
X219880000Y-43402400D03*
X219880000Y-96202400D03*
X220836800Y-91284500D03*
%TO.N,/SEG2*%
X221400000Y-56880000D03*
X213919600Y-90600000D03*
%TO.N,/SEG1*%
X213676500Y-99402400D03*
X217283200Y-99402400D03*
X218440000Y-99402400D03*
X218440000Y-43760100D03*
X219842400Y-99402400D03*
X218440000Y-96560100D03*
%TO.N,/SEG6*%
X214603200Y-92245000D03*
X216038400Y-92245000D03*
%TO.N,/SEG7*%
X221700000Y-88204800D03*
%TO.N,/GRID4*%
X223300000Y-99600000D03*
%TO.N,/DIN*%
X213637400Y-100321700D03*
%TO.N,/SCLK*%
X214603200Y-56994100D03*
%TD*%
D17*
%TO.N,+5V*%
X221857300Y-84500000D02*
X223000000Y-84500000D01*
X223000000Y-80500000D02*
X221972600Y-80500000D01*
X221524300Y-83299000D02*
X221524300Y-80948300D01*
X221524300Y-80948300D02*
X221972600Y-80500000D01*
X222000000Y-40000000D02*
X222000000Y-43950000D01*
X222000000Y-43950000D02*
X223000000Y-44950000D01*
X223000000Y-47902400D02*
X223000000Y-47050000D01*
X223000000Y-47050000D02*
X223000000Y-44950000D01*
%TO.N,/SEG5*%
X214120000Y-92951600D02*
X214120000Y-94800000D01*
X214598400Y-91573100D02*
X214120000Y-92051500D01*
X214120000Y-92051500D02*
X214120000Y-92951600D01*
X214120000Y-69802400D02*
X213441600Y-70480800D01*
X213441600Y-70480800D02*
X213441600Y-80921600D01*
X213441600Y-80921600D02*
X214120000Y-81600000D01*
X212310800Y-56052400D02*
X212310800Y-106190800D01*
X212310800Y-106190800D02*
X214120000Y-108000000D01*
X214120000Y-69802400D02*
X214120000Y-68400000D01*
%TO.N,/SEG4*%
X215560000Y-80197600D02*
X214881600Y-79519200D01*
X214881600Y-79519200D02*
X214881600Y-69078400D01*
X214881600Y-69078400D02*
X215560000Y-68400000D01*
X214881600Y-69078400D02*
X214881600Y-67305300D01*
X214881600Y-67305300D02*
X216038400Y-66148500D01*
X215560000Y-80197600D02*
X215560000Y-81600000D01*
%TO.N,/SEG3*%
X218440000Y-106597600D02*
X217761600Y-105919200D01*
X217761600Y-105919200D02*
X217761600Y-95478400D01*
X217761600Y-95478400D02*
X218440000Y-94800000D01*
X219005100Y-43402400D02*
X219166800Y-43564100D01*
X219166800Y-43564100D02*
X219166800Y-54473200D01*
X219166800Y-54473200D02*
X218440000Y-55200000D01*
X214120000Y-99881600D02*
X217761600Y-99881600D01*
X218440000Y-106597600D02*
X218440000Y-108000000D01*
%TO.N,/SEG8*%
X219880000Y-43402400D02*
X220558400Y-44080800D01*
X220558400Y-44080800D02*
X220558400Y-54521600D01*
X220558400Y-54521600D02*
X219880000Y-55200000D01*
X219880000Y-96202400D02*
X220558400Y-96880800D01*
X220558400Y-96880800D02*
X220558400Y-107321600D01*
X220558400Y-107321600D02*
X219880000Y-108000000D01*
X220558400Y-96880800D02*
X220558400Y-91562900D01*
X220558400Y-91562900D02*
X220836800Y-91284500D01*
%TO.N,/SEG2*%
X221400000Y-56880000D02*
X219880000Y-58400000D01*
X219201999Y-97321999D02*
X219880000Y-98000000D01*
X219201999Y-93617599D02*
X219201999Y-97321999D01*
X216184400Y-90600000D02*
X219201999Y-93617599D01*
X213919600Y-90600000D02*
X216184400Y-90600000D01*
%TO.N,/SEG1*%
X213676500Y-99402400D02*
X217283200Y-99402400D01*
X218440000Y-99402400D02*
X218440000Y-98000000D01*
X218440000Y-43760100D02*
X218440000Y-45200000D01*
X219842400Y-99402400D02*
X218440000Y-99402400D01*
X218440000Y-96560100D02*
X218440000Y-98000000D01*
%TO.N,/SEG6*%
X214603200Y-92245000D02*
X216038400Y-92245000D01*
%TO.N,/SEG7*%
X214120000Y-96597600D02*
X213441600Y-95919200D01*
X213441600Y-85478400D02*
X214120000Y-84800000D01*
X213267600Y-46052400D02*
X214120000Y-45200000D01*
X214120000Y-96597600D02*
X214120000Y-98000000D01*
X213454800Y-88204800D02*
X213441600Y-88191600D01*
X221700000Y-88204800D02*
X213454800Y-88204800D01*
X213441600Y-88191600D02*
X213441600Y-85478400D01*
X213441600Y-95919200D02*
X213441600Y-88191600D01*
X214120000Y-58400000D02*
X213600000Y-58400000D01*
X213267600Y-58067600D02*
X213267600Y-46052400D01*
X213600000Y-58400000D02*
X213267600Y-58067600D01*
%TO.N,/GRID4*%
X219419300Y-87552400D02*
X217678400Y-85811500D01*
X217678400Y-85811500D02*
X217678400Y-82278400D01*
X217678400Y-82278400D02*
X217000000Y-81600000D01*
X222752400Y-99052400D02*
X222752400Y-87552400D01*
X223300000Y-99600000D02*
X222752400Y-99052400D01*
X222752400Y-87552400D02*
X219419300Y-87552400D01*
%TO.N,/DIN*%
X223000000Y-43050000D02*
X223078400Y-42971600D01*
X223078400Y-42971600D02*
X223078400Y-38538400D01*
X223078400Y-38538400D02*
X222000000Y-37460000D01*
X222000000Y-37460000D02*
X223078400Y-36381600D01*
X223078400Y-36381600D02*
X223078400Y-34473200D01*
X223078400Y-34473200D02*
X222446800Y-33841600D01*
X222446800Y-33841600D02*
X220505300Y-33841600D01*
X220505300Y-33841600D02*
X212789200Y-41557700D01*
X212789200Y-41557700D02*
X212789200Y-99473500D01*
X212789200Y-99473500D02*
X213637400Y-100321700D01*
%TO.N,/SCLK*%
X222000000Y-34920000D02*
X220921600Y-35998400D01*
X220921600Y-35998400D02*
X220921600Y-46871600D01*
X220921600Y-46871600D02*
X223000000Y-48950000D01*
X219859000Y-56994100D02*
X223000000Y-53853100D01*
X214603200Y-56994100D02*
X219859000Y-56994100D01*
X223000000Y-53853100D02*
X223000000Y-48950000D01*
%TD*%
%TO.N,GND*%
X223674000Y-42373261D02*
X223650000Y-42370897D01*
X223382400Y-42370897D01*
X223382400Y-38553324D01*
X223383870Y-38538400D01*
X223378000Y-38478805D01*
X223372727Y-38461422D01*
X223360617Y-38421502D01*
X223332389Y-38368690D01*
X223294400Y-38322400D01*
X223282806Y-38312886D01*
X222949396Y-37979476D01*
X222955311Y-37970624D01*
X223036573Y-37774441D01*
X223078000Y-37566174D01*
X223078000Y-37353826D01*
X223036573Y-37145559D01*
X222955311Y-36949376D01*
X222949396Y-36940524D01*
X223282808Y-36607113D01*
X223294400Y-36597600D01*
X223332389Y-36551310D01*
X223360617Y-36498498D01*
X223378000Y-36441194D01*
X223382400Y-36396524D01*
X223382400Y-36396523D01*
X223383870Y-36381600D01*
X223382400Y-36366676D01*
X223382400Y-34488116D01*
X223383869Y-34473199D01*
X223382400Y-34458283D01*
X223382400Y-34458276D01*
X223378000Y-34413606D01*
X223360617Y-34356302D01*
X223332389Y-34303490D01*
X223294400Y-34257200D01*
X223282806Y-34247685D01*
X222672319Y-33637199D01*
X222662800Y-33625600D01*
X222616510Y-33587611D01*
X222563698Y-33559383D01*
X222506394Y-33542000D01*
X222461724Y-33537600D01*
X222446800Y-33536130D01*
X222431876Y-33537600D01*
X220520216Y-33537600D01*
X220505299Y-33536131D01*
X220490383Y-33537600D01*
X220490376Y-33537600D01*
X220451484Y-33541431D01*
X220445705Y-33542000D01*
X220428322Y-33547273D01*
X220388402Y-33559383D01*
X220335590Y-33587611D01*
X220289300Y-33625600D01*
X220279786Y-33637193D01*
X212584799Y-41332181D01*
X212573200Y-41341700D01*
X212535211Y-41387991D01*
X212506983Y-41440803D01*
X212494873Y-41480723D01*
X212489600Y-41498106D01*
X212483730Y-41557700D01*
X212485200Y-41572624D01*
X212485200Y-55607255D01*
X212450228Y-55592769D01*
X212357879Y-55574400D01*
X212263721Y-55574400D01*
X212171372Y-55592769D01*
X212084382Y-55628802D01*
X212006093Y-55681113D01*
X211939513Y-55747693D01*
X211887202Y-55825982D01*
X211851169Y-55912972D01*
X211832800Y-56005321D01*
X211832800Y-56099479D01*
X211851169Y-56191828D01*
X211887202Y-56278818D01*
X211939513Y-56357107D01*
X212006093Y-56423687D01*
X212006800Y-56424159D01*
X212006800Y-68028240D01*
X212006093Y-68028713D01*
X211939513Y-68095293D01*
X211887202Y-68173582D01*
X211851169Y-68260572D01*
X211832800Y-68352921D01*
X211832800Y-68447079D01*
X211851169Y-68539428D01*
X211887202Y-68626418D01*
X211939513Y-68704707D01*
X212006093Y-68771287D01*
X212006800Y-68771760D01*
X212006801Y-106175866D01*
X212005330Y-106190800D01*
X212011200Y-106250394D01*
X212023861Y-106292130D01*
X212028584Y-106307698D01*
X212056812Y-106360510D01*
X212094801Y-106406800D01*
X212106394Y-106416314D01*
X213440897Y-107750818D01*
X213440897Y-109000000D01*
X213445299Y-109044696D01*
X213458336Y-109087674D01*
X213479508Y-109127283D01*
X213508000Y-109162000D01*
X213542717Y-109190492D01*
X213582326Y-109211664D01*
X213625304Y-109224701D01*
X213670000Y-109229103D01*
X214570000Y-109229103D01*
X214614696Y-109224701D01*
X214657674Y-109211664D01*
X214697283Y-109190492D01*
X214732000Y-109162000D01*
X214760492Y-109127283D01*
X214781664Y-109087674D01*
X214794701Y-109044696D01*
X214799103Y-109000000D01*
X214799103Y-107000000D01*
X214880897Y-107000000D01*
X214880897Y-109000000D01*
X214885299Y-109044696D01*
X214898336Y-109087674D01*
X214919508Y-109127283D01*
X214948000Y-109162000D01*
X214982717Y-109190492D01*
X215022326Y-109211664D01*
X215065304Y-109224701D01*
X215110000Y-109229103D01*
X216010000Y-109229103D01*
X216054696Y-109224701D01*
X216097674Y-109211664D01*
X216137283Y-109190492D01*
X216172000Y-109162000D01*
X216200492Y-109127283D01*
X216221664Y-109087674D01*
X216234701Y-109044696D01*
X216239103Y-109000000D01*
X216239103Y-107000000D01*
X216320897Y-107000000D01*
X216320897Y-109000000D01*
X216325299Y-109044696D01*
X216338336Y-109087674D01*
X216359508Y-109127283D01*
X216388000Y-109162000D01*
X216422717Y-109190492D01*
X216462326Y-109211664D01*
X216505304Y-109224701D01*
X216550000Y-109229103D01*
X217450000Y-109229103D01*
X217494696Y-109224701D01*
X217537674Y-109211664D01*
X217577283Y-109190492D01*
X217612000Y-109162000D01*
X217640492Y-109127283D01*
X217661664Y-109087674D01*
X217674701Y-109044696D01*
X217679103Y-109000000D01*
X217679103Y-107000000D01*
X217674701Y-106955304D01*
X217661664Y-106912326D01*
X217640492Y-106872717D01*
X217612000Y-106838000D01*
X217577283Y-106809508D01*
X217537674Y-106788336D01*
X217494696Y-106775299D01*
X217450000Y-106770897D01*
X216550000Y-106770897D01*
X216505304Y-106775299D01*
X216462326Y-106788336D01*
X216422717Y-106809508D01*
X216388000Y-106838000D01*
X216359508Y-106872717D01*
X216338336Y-106912326D01*
X216325299Y-106955304D01*
X216320897Y-107000000D01*
X216239103Y-107000000D01*
X216234701Y-106955304D01*
X216221664Y-106912326D01*
X216200492Y-106872717D01*
X216172000Y-106838000D01*
X216137283Y-106809508D01*
X216097674Y-106788336D01*
X216054696Y-106775299D01*
X216010000Y-106770897D01*
X215110000Y-106770897D01*
X215065304Y-106775299D01*
X215022326Y-106788336D01*
X214982717Y-106809508D01*
X214948000Y-106838000D01*
X214919508Y-106872717D01*
X214898336Y-106912326D01*
X214885299Y-106955304D01*
X214880897Y-107000000D01*
X214799103Y-107000000D01*
X214794701Y-106955304D01*
X214781664Y-106912326D01*
X214760492Y-106872717D01*
X214732000Y-106838000D01*
X214697283Y-106809508D01*
X214657674Y-106788336D01*
X214614696Y-106775299D01*
X214570000Y-106770897D01*
X213670000Y-106770897D01*
X213625304Y-106775299D01*
X213582326Y-106788336D01*
X213542717Y-106809508D01*
X213508000Y-106838000D01*
X213479508Y-106872717D01*
X213459698Y-106909778D01*
X212614800Y-106064880D01*
X212614800Y-99729020D01*
X213159566Y-100273787D01*
X213159400Y-100274621D01*
X213159400Y-100368779D01*
X213177769Y-100461128D01*
X213213802Y-100548118D01*
X213266113Y-100626407D01*
X213332693Y-100692987D01*
X213410982Y-100745298D01*
X213497972Y-100781331D01*
X213590321Y-100799700D01*
X213684479Y-100799700D01*
X213776828Y-100781331D01*
X213863818Y-100745298D01*
X213942107Y-100692987D01*
X214008687Y-100626407D01*
X214060998Y-100548118D01*
X214097031Y-100461128D01*
X214115400Y-100368779D01*
X214115400Y-100359600D01*
X214167079Y-100359600D01*
X214259428Y-100341231D01*
X214346418Y-100305198D01*
X214424707Y-100252887D01*
X214491287Y-100186307D01*
X214491759Y-100185600D01*
X217457601Y-100185600D01*
X217457600Y-105904276D01*
X217456130Y-105919200D01*
X217457600Y-105934123D01*
X217462000Y-105978793D01*
X217479383Y-106036097D01*
X217507611Y-106088909D01*
X217545600Y-106135200D01*
X217557199Y-106144719D01*
X218136000Y-106723520D01*
X218136000Y-106770897D01*
X217990000Y-106770897D01*
X217945304Y-106775299D01*
X217902326Y-106788336D01*
X217862717Y-106809508D01*
X217828000Y-106838000D01*
X217799508Y-106872717D01*
X217778336Y-106912326D01*
X217765299Y-106955304D01*
X217760897Y-107000000D01*
X217760897Y-109000000D01*
X217765299Y-109044696D01*
X217778336Y-109087674D01*
X217799508Y-109127283D01*
X217828000Y-109162000D01*
X217862717Y-109190492D01*
X217902326Y-109211664D01*
X217945304Y-109224701D01*
X217990000Y-109229103D01*
X218890000Y-109229103D01*
X218934696Y-109224701D01*
X218977674Y-109211664D01*
X219017283Y-109190492D01*
X219052000Y-109162000D01*
X219080492Y-109127283D01*
X219101664Y-109087674D01*
X219114701Y-109044696D01*
X219119103Y-109000000D01*
X219119103Y-107000000D01*
X219114701Y-106955304D01*
X219101664Y-106912326D01*
X219080492Y-106872717D01*
X219052000Y-106838000D01*
X219017283Y-106809508D01*
X218977674Y-106788336D01*
X218934696Y-106775299D01*
X218890000Y-106770897D01*
X218744000Y-106770897D01*
X218744000Y-106612515D01*
X218745469Y-106597599D01*
X218744000Y-106582683D01*
X218744000Y-106582676D01*
X218739600Y-106538006D01*
X218722217Y-106480702D01*
X218693989Y-106427890D01*
X218656000Y-106381600D01*
X218644402Y-106372082D01*
X218065600Y-105793280D01*
X218065600Y-99896524D01*
X218067070Y-99881600D01*
X218065600Y-99866676D01*
X218065600Y-99702448D01*
X218068713Y-99707107D01*
X218135293Y-99773687D01*
X218213582Y-99825998D01*
X218300572Y-99862031D01*
X218392921Y-99880400D01*
X218487079Y-99880400D01*
X218579428Y-99862031D01*
X218666418Y-99825998D01*
X218744707Y-99773687D01*
X218811287Y-99707107D01*
X218811759Y-99706400D01*
X219470641Y-99706400D01*
X219471113Y-99707107D01*
X219537693Y-99773687D01*
X219615982Y-99825998D01*
X219702972Y-99862031D01*
X219795321Y-99880400D01*
X219889479Y-99880400D01*
X219981828Y-99862031D01*
X220068818Y-99825998D01*
X220147107Y-99773687D01*
X220213687Y-99707107D01*
X220254400Y-99646175D01*
X220254401Y-106770897D01*
X219430000Y-106770897D01*
X219385304Y-106775299D01*
X219342326Y-106788336D01*
X219302717Y-106809508D01*
X219268000Y-106838000D01*
X219239508Y-106872717D01*
X219218336Y-106912326D01*
X219205299Y-106955304D01*
X219200897Y-107000000D01*
X219200897Y-109000000D01*
X219205299Y-109044696D01*
X219218336Y-109087674D01*
X219239508Y-109127283D01*
X219268000Y-109162000D01*
X219302717Y-109190492D01*
X219342326Y-109211664D01*
X219385304Y-109224701D01*
X219430000Y-109229103D01*
X220330000Y-109229103D01*
X220374696Y-109224701D01*
X220417674Y-109211664D01*
X220457283Y-109190492D01*
X220492000Y-109162000D01*
X220520492Y-109127283D01*
X220541664Y-109087674D01*
X220554701Y-109044696D01*
X220559103Y-109000000D01*
X220559103Y-107750817D01*
X220762801Y-107547119D01*
X220774400Y-107537600D01*
X220812389Y-107491310D01*
X220840617Y-107438498D01*
X220858000Y-107381194D01*
X220862400Y-107336524D01*
X220862400Y-107336517D01*
X220863869Y-107321601D01*
X220862400Y-107306685D01*
X220862400Y-96895715D01*
X220863869Y-96880799D01*
X220862400Y-96865883D01*
X220862400Y-91762500D01*
X220883879Y-91762500D01*
X220976228Y-91744131D01*
X221063218Y-91708098D01*
X221141507Y-91655787D01*
X221208087Y-91589207D01*
X221260398Y-91510918D01*
X221296431Y-91423928D01*
X221314800Y-91331579D01*
X221314800Y-91237421D01*
X221296431Y-91145072D01*
X221260398Y-91058082D01*
X221208087Y-90979793D01*
X221141507Y-90913213D01*
X221063218Y-90860902D01*
X220976228Y-90824869D01*
X220883879Y-90806500D01*
X220789721Y-90806500D01*
X220697372Y-90824869D01*
X220610382Y-90860902D01*
X220532093Y-90913213D01*
X220465513Y-90979793D01*
X220413202Y-91058082D01*
X220377169Y-91145072D01*
X220358800Y-91237421D01*
X220358800Y-91331579D01*
X220358966Y-91332414D01*
X220353994Y-91337386D01*
X220342401Y-91346900D01*
X220304412Y-91393190D01*
X220276184Y-91446002D01*
X220258800Y-91503306D01*
X220252930Y-91562900D01*
X220254401Y-91577834D01*
X220254401Y-93570897D01*
X219502869Y-93570897D01*
X219501599Y-93558005D01*
X219484216Y-93500701D01*
X219455988Y-93447889D01*
X219417999Y-93401599D01*
X219406407Y-93392086D01*
X216409919Y-90395599D01*
X216400400Y-90384000D01*
X216354110Y-90346011D01*
X216301298Y-90317783D01*
X216243994Y-90300400D01*
X216199324Y-90296000D01*
X216184400Y-90294530D01*
X216169476Y-90296000D01*
X214291359Y-90296000D01*
X214290887Y-90295293D01*
X214224307Y-90228713D01*
X214146018Y-90176402D01*
X214059028Y-90140369D01*
X213966679Y-90122000D01*
X213872521Y-90122000D01*
X213780172Y-90140369D01*
X213745600Y-90154689D01*
X213745600Y-88508800D01*
X221328241Y-88508800D01*
X221328713Y-88509507D01*
X221395293Y-88576087D01*
X221473582Y-88628398D01*
X221560572Y-88664431D01*
X221652921Y-88682800D01*
X221747079Y-88682800D01*
X221839428Y-88664431D01*
X221926418Y-88628398D01*
X222004707Y-88576087D01*
X222071287Y-88509507D01*
X222123598Y-88431218D01*
X222159631Y-88344228D01*
X222178000Y-88251879D01*
X222178000Y-88157721D01*
X222159631Y-88065372D01*
X222123598Y-87978382D01*
X222071287Y-87900093D01*
X222027594Y-87856400D01*
X222448401Y-87856400D01*
X222448400Y-99037476D01*
X222446930Y-99052400D01*
X222452800Y-99111994D01*
X222457438Y-99127283D01*
X222470183Y-99169297D01*
X222498411Y-99222109D01*
X222536400Y-99268400D01*
X222547999Y-99277919D01*
X222822166Y-99552087D01*
X222822000Y-99552921D01*
X222822000Y-99647079D01*
X222840369Y-99739428D01*
X222876402Y-99826418D01*
X222928713Y-99904707D01*
X222995293Y-99971287D01*
X223073582Y-100023598D01*
X223160572Y-100059631D01*
X223252921Y-100078000D01*
X223347079Y-100078000D01*
X223439428Y-100059631D01*
X223526418Y-100023598D01*
X223604707Y-99971287D01*
X223671287Y-99904707D01*
X223674000Y-99900647D01*
X223674000Y-109674000D01*
X210326000Y-109674000D01*
X210326000Y-31000000D01*
X213440897Y-31000000D01*
X213440897Y-33000000D01*
X213445299Y-33044696D01*
X213458336Y-33087674D01*
X213479508Y-33127283D01*
X213508000Y-33162000D01*
X213542717Y-33190492D01*
X213582326Y-33211664D01*
X213625304Y-33224701D01*
X213670000Y-33229103D01*
X214570000Y-33229103D01*
X214614696Y-33224701D01*
X214657674Y-33211664D01*
X214697283Y-33190492D01*
X214732000Y-33162000D01*
X214760492Y-33127283D01*
X214781664Y-33087674D01*
X214794701Y-33044696D01*
X214799103Y-33000000D01*
X214799103Y-31000000D01*
X214880897Y-31000000D01*
X214880897Y-33000000D01*
X214885299Y-33044696D01*
X214898336Y-33087674D01*
X214919508Y-33127283D01*
X214948000Y-33162000D01*
X214982717Y-33190492D01*
X215022326Y-33211664D01*
X215065304Y-33224701D01*
X215110000Y-33229103D01*
X216010000Y-33229103D01*
X216054696Y-33224701D01*
X216097674Y-33211664D01*
X216137283Y-33190492D01*
X216172000Y-33162000D01*
X216200492Y-33127283D01*
X216221664Y-33087674D01*
X216234701Y-33044696D01*
X216239103Y-33000000D01*
X216239103Y-31000000D01*
X216320897Y-31000000D01*
X216320897Y-33000000D01*
X216325299Y-33044696D01*
X216338336Y-33087674D01*
X216359508Y-33127283D01*
X216388000Y-33162000D01*
X216422717Y-33190492D01*
X216462326Y-33211664D01*
X216505304Y-33224701D01*
X216550000Y-33229103D01*
X217450000Y-33229103D01*
X217494696Y-33224701D01*
X217537674Y-33211664D01*
X217577283Y-33190492D01*
X217612000Y-33162000D01*
X217640492Y-33127283D01*
X217661664Y-33087674D01*
X217674701Y-33044696D01*
X217679103Y-33000000D01*
X217679103Y-31000000D01*
X217760897Y-31000000D01*
X217760897Y-33000000D01*
X217765299Y-33044696D01*
X217778336Y-33087674D01*
X217799508Y-33127283D01*
X217828000Y-33162000D01*
X217862717Y-33190492D01*
X217902326Y-33211664D01*
X217945304Y-33224701D01*
X217990000Y-33229103D01*
X218890000Y-33229103D01*
X218934696Y-33224701D01*
X218977674Y-33211664D01*
X219017283Y-33190492D01*
X219052000Y-33162000D01*
X219080492Y-33127283D01*
X219101664Y-33087674D01*
X219114701Y-33044696D01*
X219119103Y-33000000D01*
X219119103Y-31000000D01*
X219200897Y-31000000D01*
X219200897Y-33000000D01*
X219205299Y-33044696D01*
X219218336Y-33087674D01*
X219239508Y-33127283D01*
X219268000Y-33162000D01*
X219302717Y-33190492D01*
X219342326Y-33211664D01*
X219385304Y-33224701D01*
X219430000Y-33229103D01*
X220330000Y-33229103D01*
X220374696Y-33224701D01*
X220417674Y-33211664D01*
X220457283Y-33190492D01*
X220492000Y-33162000D01*
X220520492Y-33127283D01*
X220541664Y-33087674D01*
X220554701Y-33044696D01*
X220559103Y-33000000D01*
X220559103Y-32549937D01*
X220933453Y-32549937D01*
X220949607Y-32631147D01*
X221018786Y-32831243D01*
X221125673Y-33013998D01*
X221266160Y-33172389D01*
X221434848Y-33300329D01*
X221625255Y-33392901D01*
X221830063Y-33446547D01*
X221999000Y-33402500D01*
X221999000Y-32381000D01*
X222001000Y-32381000D01*
X222001000Y-33402500D01*
X222169937Y-33446547D01*
X222374745Y-33392901D01*
X222565152Y-33300329D01*
X222733840Y-33172389D01*
X222874327Y-33013998D01*
X222981214Y-32831243D01*
X223050393Y-32631147D01*
X223066547Y-32549937D01*
X223022500Y-32381000D01*
X222001000Y-32381000D01*
X221999000Y-32381000D01*
X220977500Y-32381000D01*
X220933453Y-32549937D01*
X220559103Y-32549937D01*
X220559103Y-32210063D01*
X220933453Y-32210063D01*
X220977500Y-32379000D01*
X221999000Y-32379000D01*
X221999000Y-31357500D01*
X222001000Y-31357500D01*
X222001000Y-32379000D01*
X223022500Y-32379000D01*
X223066547Y-32210063D01*
X223050393Y-32128853D01*
X222981214Y-31928757D01*
X222874327Y-31746002D01*
X222733840Y-31587611D01*
X222565152Y-31459671D01*
X222374745Y-31367099D01*
X222169937Y-31313453D01*
X222001000Y-31357500D01*
X221999000Y-31357500D01*
X221830063Y-31313453D01*
X221625255Y-31367099D01*
X221434848Y-31459671D01*
X221266160Y-31587611D01*
X221125673Y-31746002D01*
X221018786Y-31928757D01*
X220949607Y-32128853D01*
X220933453Y-32210063D01*
X220559103Y-32210063D01*
X220559103Y-31000000D01*
X220554701Y-30955304D01*
X220541664Y-30912326D01*
X220520492Y-30872717D01*
X220492000Y-30838000D01*
X220457283Y-30809508D01*
X220417674Y-30788336D01*
X220374696Y-30775299D01*
X220330000Y-30770897D01*
X219430000Y-30770897D01*
X219385304Y-30775299D01*
X219342326Y-30788336D01*
X219302717Y-30809508D01*
X219268000Y-30838000D01*
X219239508Y-30872717D01*
X219218336Y-30912326D01*
X219205299Y-30955304D01*
X219200897Y-31000000D01*
X219119103Y-31000000D01*
X219114701Y-30955304D01*
X219101664Y-30912326D01*
X219080492Y-30872717D01*
X219052000Y-30838000D01*
X219017283Y-30809508D01*
X218977674Y-30788336D01*
X218934696Y-30775299D01*
X218890000Y-30770897D01*
X217990000Y-30770897D01*
X217945304Y-30775299D01*
X217902326Y-30788336D01*
X217862717Y-30809508D01*
X217828000Y-30838000D01*
X217799508Y-30872717D01*
X217778336Y-30912326D01*
X217765299Y-30955304D01*
X217760897Y-31000000D01*
X217679103Y-31000000D01*
X217674701Y-30955304D01*
X217661664Y-30912326D01*
X217640492Y-30872717D01*
X217612000Y-30838000D01*
X217577283Y-30809508D01*
X217537674Y-30788336D01*
X217494696Y-30775299D01*
X217450000Y-30770897D01*
X216550000Y-30770897D01*
X216505304Y-30775299D01*
X216462326Y-30788336D01*
X216422717Y-30809508D01*
X216388000Y-30838000D01*
X216359508Y-30872717D01*
X216338336Y-30912326D01*
X216325299Y-30955304D01*
X216320897Y-31000000D01*
X216239103Y-31000000D01*
X216234701Y-30955304D01*
X216221664Y-30912326D01*
X216200492Y-30872717D01*
X216172000Y-30838000D01*
X216137283Y-30809508D01*
X216097674Y-30788336D01*
X216054696Y-30775299D01*
X216010000Y-30770897D01*
X215110000Y-30770897D01*
X215065304Y-30775299D01*
X215022326Y-30788336D01*
X214982717Y-30809508D01*
X214948000Y-30838000D01*
X214919508Y-30872717D01*
X214898336Y-30912326D01*
X214885299Y-30955304D01*
X214880897Y-31000000D01*
X214799103Y-31000000D01*
X214794701Y-30955304D01*
X214781664Y-30912326D01*
X214760492Y-30872717D01*
X214732000Y-30838000D01*
X214697283Y-30809508D01*
X214657674Y-30788336D01*
X214614696Y-30775299D01*
X214570000Y-30770897D01*
X213670000Y-30770897D01*
X213625304Y-30775299D01*
X213582326Y-30788336D01*
X213542717Y-30809508D01*
X213508000Y-30838000D01*
X213479508Y-30872717D01*
X213458336Y-30912326D01*
X213445299Y-30955304D01*
X213440897Y-31000000D01*
X210326000Y-31000000D01*
X210326000Y-30326000D01*
X223674000Y-30326000D01*
X223674000Y-42373261D01*
%TA.AperFunction,Conductor*%
D18*
G36*
X223674000Y-42373261D02*
G01*
X223650000Y-42370897D01*
X223382400Y-42370897D01*
X223382400Y-38553324D01*
X223383870Y-38538400D01*
X223378000Y-38478805D01*
X223372727Y-38461422D01*
X223360617Y-38421502D01*
X223332389Y-38368690D01*
X223294400Y-38322400D01*
X223282806Y-38312886D01*
X222949396Y-37979476D01*
X222955311Y-37970624D01*
X223036573Y-37774441D01*
X223078000Y-37566174D01*
X223078000Y-37353826D01*
X223036573Y-37145559D01*
X222955311Y-36949376D01*
X222949396Y-36940524D01*
X223282808Y-36607113D01*
X223294400Y-36597600D01*
X223332389Y-36551310D01*
X223360617Y-36498498D01*
X223378000Y-36441194D01*
X223382400Y-36396524D01*
X223382400Y-36396523D01*
X223383870Y-36381600D01*
X223382400Y-36366676D01*
X223382400Y-34488116D01*
X223383869Y-34473199D01*
X223382400Y-34458283D01*
X223382400Y-34458276D01*
X223378000Y-34413606D01*
X223360617Y-34356302D01*
X223332389Y-34303490D01*
X223294400Y-34257200D01*
X223282806Y-34247685D01*
X222672319Y-33637199D01*
X222662800Y-33625600D01*
X222616510Y-33587611D01*
X222563698Y-33559383D01*
X222506394Y-33542000D01*
X222461724Y-33537600D01*
X222446800Y-33536130D01*
X222431876Y-33537600D01*
X220520216Y-33537600D01*
X220505299Y-33536131D01*
X220490383Y-33537600D01*
X220490376Y-33537600D01*
X220451484Y-33541431D01*
X220445705Y-33542000D01*
X220428322Y-33547273D01*
X220388402Y-33559383D01*
X220335590Y-33587611D01*
X220289300Y-33625600D01*
X220279786Y-33637193D01*
X212584799Y-41332181D01*
X212573200Y-41341700D01*
X212535211Y-41387991D01*
X212506983Y-41440803D01*
X212494873Y-41480723D01*
X212489600Y-41498106D01*
X212483730Y-41557700D01*
X212485200Y-41572624D01*
X212485200Y-55607255D01*
X212450228Y-55592769D01*
X212357879Y-55574400D01*
X212263721Y-55574400D01*
X212171372Y-55592769D01*
X212084382Y-55628802D01*
X212006093Y-55681113D01*
X211939513Y-55747693D01*
X211887202Y-55825982D01*
X211851169Y-55912972D01*
X211832800Y-56005321D01*
X211832800Y-56099479D01*
X211851169Y-56191828D01*
X211887202Y-56278818D01*
X211939513Y-56357107D01*
X212006093Y-56423687D01*
X212006800Y-56424159D01*
X212006800Y-68028240D01*
X212006093Y-68028713D01*
X211939513Y-68095293D01*
X211887202Y-68173582D01*
X211851169Y-68260572D01*
X211832800Y-68352921D01*
X211832800Y-68447079D01*
X211851169Y-68539428D01*
X211887202Y-68626418D01*
X211939513Y-68704707D01*
X212006093Y-68771287D01*
X212006800Y-68771760D01*
X212006801Y-106175866D01*
X212005330Y-106190800D01*
X212011200Y-106250394D01*
X212023861Y-106292130D01*
X212028584Y-106307698D01*
X212056812Y-106360510D01*
X212094801Y-106406800D01*
X212106394Y-106416314D01*
X213440897Y-107750818D01*
X213440897Y-109000000D01*
X213445299Y-109044696D01*
X213458336Y-109087674D01*
X213479508Y-109127283D01*
X213508000Y-109162000D01*
X213542717Y-109190492D01*
X213582326Y-109211664D01*
X213625304Y-109224701D01*
X213670000Y-109229103D01*
X214570000Y-109229103D01*
X214614696Y-109224701D01*
X214657674Y-109211664D01*
X214697283Y-109190492D01*
X214732000Y-109162000D01*
X214760492Y-109127283D01*
X214781664Y-109087674D01*
X214794701Y-109044696D01*
X214799103Y-109000000D01*
X214799103Y-107000000D01*
X214880897Y-107000000D01*
X214880897Y-109000000D01*
X214885299Y-109044696D01*
X214898336Y-109087674D01*
X214919508Y-109127283D01*
X214948000Y-109162000D01*
X214982717Y-109190492D01*
X215022326Y-109211664D01*
X215065304Y-109224701D01*
X215110000Y-109229103D01*
X216010000Y-109229103D01*
X216054696Y-109224701D01*
X216097674Y-109211664D01*
X216137283Y-109190492D01*
X216172000Y-109162000D01*
X216200492Y-109127283D01*
X216221664Y-109087674D01*
X216234701Y-109044696D01*
X216239103Y-109000000D01*
X216239103Y-107000000D01*
X216320897Y-107000000D01*
X216320897Y-109000000D01*
X216325299Y-109044696D01*
X216338336Y-109087674D01*
X216359508Y-109127283D01*
X216388000Y-109162000D01*
X216422717Y-109190492D01*
X216462326Y-109211664D01*
X216505304Y-109224701D01*
X216550000Y-109229103D01*
X217450000Y-109229103D01*
X217494696Y-109224701D01*
X217537674Y-109211664D01*
X217577283Y-109190492D01*
X217612000Y-109162000D01*
X217640492Y-109127283D01*
X217661664Y-109087674D01*
X217674701Y-109044696D01*
X217679103Y-109000000D01*
X217679103Y-107000000D01*
X217674701Y-106955304D01*
X217661664Y-106912326D01*
X217640492Y-106872717D01*
X217612000Y-106838000D01*
X217577283Y-106809508D01*
X217537674Y-106788336D01*
X217494696Y-106775299D01*
X217450000Y-106770897D01*
X216550000Y-106770897D01*
X216505304Y-106775299D01*
X216462326Y-106788336D01*
X216422717Y-106809508D01*
X216388000Y-106838000D01*
X216359508Y-106872717D01*
X216338336Y-106912326D01*
X216325299Y-106955304D01*
X216320897Y-107000000D01*
X216239103Y-107000000D01*
X216234701Y-106955304D01*
X216221664Y-106912326D01*
X216200492Y-106872717D01*
X216172000Y-106838000D01*
X216137283Y-106809508D01*
X216097674Y-106788336D01*
X216054696Y-106775299D01*
X216010000Y-106770897D01*
X215110000Y-106770897D01*
X215065304Y-106775299D01*
X215022326Y-106788336D01*
X214982717Y-106809508D01*
X214948000Y-106838000D01*
X214919508Y-106872717D01*
X214898336Y-106912326D01*
X214885299Y-106955304D01*
X214880897Y-107000000D01*
X214799103Y-107000000D01*
X214794701Y-106955304D01*
X214781664Y-106912326D01*
X214760492Y-106872717D01*
X214732000Y-106838000D01*
X214697283Y-106809508D01*
X214657674Y-106788336D01*
X214614696Y-106775299D01*
X214570000Y-106770897D01*
X213670000Y-106770897D01*
X213625304Y-106775299D01*
X213582326Y-106788336D01*
X213542717Y-106809508D01*
X213508000Y-106838000D01*
X213479508Y-106872717D01*
X213459698Y-106909778D01*
X212614800Y-106064880D01*
X212614800Y-99729020D01*
X213159566Y-100273787D01*
X213159400Y-100274621D01*
X213159400Y-100368779D01*
X213177769Y-100461128D01*
X213213802Y-100548118D01*
X213266113Y-100626407D01*
X213332693Y-100692987D01*
X213410982Y-100745298D01*
X213497972Y-100781331D01*
X213590321Y-100799700D01*
X213684479Y-100799700D01*
X213776828Y-100781331D01*
X213863818Y-100745298D01*
X213942107Y-100692987D01*
X214008687Y-100626407D01*
X214060998Y-100548118D01*
X214097031Y-100461128D01*
X214115400Y-100368779D01*
X214115400Y-100359600D01*
X214167079Y-100359600D01*
X214259428Y-100341231D01*
X214346418Y-100305198D01*
X214424707Y-100252887D01*
X214491287Y-100186307D01*
X214491759Y-100185600D01*
X217457601Y-100185600D01*
X217457600Y-105904276D01*
X217456130Y-105919200D01*
X217457600Y-105934123D01*
X217462000Y-105978793D01*
X217479383Y-106036097D01*
X217507611Y-106088909D01*
X217545600Y-106135200D01*
X217557199Y-106144719D01*
X218136000Y-106723520D01*
X218136000Y-106770897D01*
X217990000Y-106770897D01*
X217945304Y-106775299D01*
X217902326Y-106788336D01*
X217862717Y-106809508D01*
X217828000Y-106838000D01*
X217799508Y-106872717D01*
X217778336Y-106912326D01*
X217765299Y-106955304D01*
X217760897Y-107000000D01*
X217760897Y-109000000D01*
X217765299Y-109044696D01*
X217778336Y-109087674D01*
X217799508Y-109127283D01*
X217828000Y-109162000D01*
X217862717Y-109190492D01*
X217902326Y-109211664D01*
X217945304Y-109224701D01*
X217990000Y-109229103D01*
X218890000Y-109229103D01*
X218934696Y-109224701D01*
X218977674Y-109211664D01*
X219017283Y-109190492D01*
X219052000Y-109162000D01*
X219080492Y-109127283D01*
X219101664Y-109087674D01*
X219114701Y-109044696D01*
X219119103Y-109000000D01*
X219119103Y-107000000D01*
X219114701Y-106955304D01*
X219101664Y-106912326D01*
X219080492Y-106872717D01*
X219052000Y-106838000D01*
X219017283Y-106809508D01*
X218977674Y-106788336D01*
X218934696Y-106775299D01*
X218890000Y-106770897D01*
X218744000Y-106770897D01*
X218744000Y-106612515D01*
X218745469Y-106597599D01*
X218744000Y-106582683D01*
X218744000Y-106582676D01*
X218739600Y-106538006D01*
X218722217Y-106480702D01*
X218693989Y-106427890D01*
X218656000Y-106381600D01*
X218644402Y-106372082D01*
X218065600Y-105793280D01*
X218065600Y-99896524D01*
X218067070Y-99881600D01*
X218065600Y-99866676D01*
X218065600Y-99702448D01*
X218068713Y-99707107D01*
X218135293Y-99773687D01*
X218213582Y-99825998D01*
X218300572Y-99862031D01*
X218392921Y-99880400D01*
X218487079Y-99880400D01*
X218579428Y-99862031D01*
X218666418Y-99825998D01*
X218744707Y-99773687D01*
X218811287Y-99707107D01*
X218811759Y-99706400D01*
X219470641Y-99706400D01*
X219471113Y-99707107D01*
X219537693Y-99773687D01*
X219615982Y-99825998D01*
X219702972Y-99862031D01*
X219795321Y-99880400D01*
X219889479Y-99880400D01*
X219981828Y-99862031D01*
X220068818Y-99825998D01*
X220147107Y-99773687D01*
X220213687Y-99707107D01*
X220254400Y-99646175D01*
X220254401Y-106770897D01*
X219430000Y-106770897D01*
X219385304Y-106775299D01*
X219342326Y-106788336D01*
X219302717Y-106809508D01*
X219268000Y-106838000D01*
X219239508Y-106872717D01*
X219218336Y-106912326D01*
X219205299Y-106955304D01*
X219200897Y-107000000D01*
X219200897Y-109000000D01*
X219205299Y-109044696D01*
X219218336Y-109087674D01*
X219239508Y-109127283D01*
X219268000Y-109162000D01*
X219302717Y-109190492D01*
X219342326Y-109211664D01*
X219385304Y-109224701D01*
X219430000Y-109229103D01*
X220330000Y-109229103D01*
X220374696Y-109224701D01*
X220417674Y-109211664D01*
X220457283Y-109190492D01*
X220492000Y-109162000D01*
X220520492Y-109127283D01*
X220541664Y-109087674D01*
X220554701Y-109044696D01*
X220559103Y-109000000D01*
X220559103Y-107750817D01*
X220762801Y-107547119D01*
X220774400Y-107537600D01*
X220812389Y-107491310D01*
X220840617Y-107438498D01*
X220858000Y-107381194D01*
X220862400Y-107336524D01*
X220862400Y-107336517D01*
X220863869Y-107321601D01*
X220862400Y-107306685D01*
X220862400Y-96895715D01*
X220863869Y-96880799D01*
X220862400Y-96865883D01*
X220862400Y-91762500D01*
X220883879Y-91762500D01*
X220976228Y-91744131D01*
X221063218Y-91708098D01*
X221141507Y-91655787D01*
X221208087Y-91589207D01*
X221260398Y-91510918D01*
X221296431Y-91423928D01*
X221314800Y-91331579D01*
X221314800Y-91237421D01*
X221296431Y-91145072D01*
X221260398Y-91058082D01*
X221208087Y-90979793D01*
X221141507Y-90913213D01*
X221063218Y-90860902D01*
X220976228Y-90824869D01*
X220883879Y-90806500D01*
X220789721Y-90806500D01*
X220697372Y-90824869D01*
X220610382Y-90860902D01*
X220532093Y-90913213D01*
X220465513Y-90979793D01*
X220413202Y-91058082D01*
X220377169Y-91145072D01*
X220358800Y-91237421D01*
X220358800Y-91331579D01*
X220358966Y-91332414D01*
X220353994Y-91337386D01*
X220342401Y-91346900D01*
X220304412Y-91393190D01*
X220276184Y-91446002D01*
X220258800Y-91503306D01*
X220252930Y-91562900D01*
X220254401Y-91577834D01*
X220254401Y-93570897D01*
X219502869Y-93570897D01*
X219501599Y-93558005D01*
X219484216Y-93500701D01*
X219455988Y-93447889D01*
X219417999Y-93401599D01*
X219406407Y-93392086D01*
X216409919Y-90395599D01*
X216400400Y-90384000D01*
X216354110Y-90346011D01*
X216301298Y-90317783D01*
X216243994Y-90300400D01*
X216199324Y-90296000D01*
X216184400Y-90294530D01*
X216169476Y-90296000D01*
X214291359Y-90296000D01*
X214290887Y-90295293D01*
X214224307Y-90228713D01*
X214146018Y-90176402D01*
X214059028Y-90140369D01*
X213966679Y-90122000D01*
X213872521Y-90122000D01*
X213780172Y-90140369D01*
X213745600Y-90154689D01*
X213745600Y-88508800D01*
X221328241Y-88508800D01*
X221328713Y-88509507D01*
X221395293Y-88576087D01*
X221473582Y-88628398D01*
X221560572Y-88664431D01*
X221652921Y-88682800D01*
X221747079Y-88682800D01*
X221839428Y-88664431D01*
X221926418Y-88628398D01*
X222004707Y-88576087D01*
X222071287Y-88509507D01*
X222123598Y-88431218D01*
X222159631Y-88344228D01*
X222178000Y-88251879D01*
X222178000Y-88157721D01*
X222159631Y-88065372D01*
X222123598Y-87978382D01*
X222071287Y-87900093D01*
X222027594Y-87856400D01*
X222448401Y-87856400D01*
X222448400Y-99037476D01*
X222446930Y-99052400D01*
X222452800Y-99111994D01*
X222457438Y-99127283D01*
X222470183Y-99169297D01*
X222498411Y-99222109D01*
X222536400Y-99268400D01*
X222547999Y-99277919D01*
X222822166Y-99552087D01*
X222822000Y-99552921D01*
X222822000Y-99647079D01*
X222840369Y-99739428D01*
X222876402Y-99826418D01*
X222928713Y-99904707D01*
X222995293Y-99971287D01*
X223073582Y-100023598D01*
X223160572Y-100059631D01*
X223252921Y-100078000D01*
X223347079Y-100078000D01*
X223439428Y-100059631D01*
X223526418Y-100023598D01*
X223604707Y-99971287D01*
X223671287Y-99904707D01*
X223674000Y-99900647D01*
X223674000Y-109674000D01*
X210326000Y-109674000D01*
X210326000Y-31000000D01*
X213440897Y-31000000D01*
X213440897Y-33000000D01*
X213445299Y-33044696D01*
X213458336Y-33087674D01*
X213479508Y-33127283D01*
X213508000Y-33162000D01*
X213542717Y-33190492D01*
X213582326Y-33211664D01*
X213625304Y-33224701D01*
X213670000Y-33229103D01*
X214570000Y-33229103D01*
X214614696Y-33224701D01*
X214657674Y-33211664D01*
X214697283Y-33190492D01*
X214732000Y-33162000D01*
X214760492Y-33127283D01*
X214781664Y-33087674D01*
X214794701Y-33044696D01*
X214799103Y-33000000D01*
X214799103Y-31000000D01*
X214880897Y-31000000D01*
X214880897Y-33000000D01*
X214885299Y-33044696D01*
X214898336Y-33087674D01*
X214919508Y-33127283D01*
X214948000Y-33162000D01*
X214982717Y-33190492D01*
X215022326Y-33211664D01*
X215065304Y-33224701D01*
X215110000Y-33229103D01*
X216010000Y-33229103D01*
X216054696Y-33224701D01*
X216097674Y-33211664D01*
X216137283Y-33190492D01*
X216172000Y-33162000D01*
X216200492Y-33127283D01*
X216221664Y-33087674D01*
X216234701Y-33044696D01*
X216239103Y-33000000D01*
X216239103Y-31000000D01*
X216320897Y-31000000D01*
X216320897Y-33000000D01*
X216325299Y-33044696D01*
X216338336Y-33087674D01*
X216359508Y-33127283D01*
X216388000Y-33162000D01*
X216422717Y-33190492D01*
X216462326Y-33211664D01*
X216505304Y-33224701D01*
X216550000Y-33229103D01*
X217450000Y-33229103D01*
X217494696Y-33224701D01*
X217537674Y-33211664D01*
X217577283Y-33190492D01*
X217612000Y-33162000D01*
X217640492Y-33127283D01*
X217661664Y-33087674D01*
X217674701Y-33044696D01*
X217679103Y-33000000D01*
X217679103Y-31000000D01*
X217760897Y-31000000D01*
X217760897Y-33000000D01*
X217765299Y-33044696D01*
X217778336Y-33087674D01*
X217799508Y-33127283D01*
X217828000Y-33162000D01*
X217862717Y-33190492D01*
X217902326Y-33211664D01*
X217945304Y-33224701D01*
X217990000Y-33229103D01*
X218890000Y-33229103D01*
X218934696Y-33224701D01*
X218977674Y-33211664D01*
X219017283Y-33190492D01*
X219052000Y-33162000D01*
X219080492Y-33127283D01*
X219101664Y-33087674D01*
X219114701Y-33044696D01*
X219119103Y-33000000D01*
X219119103Y-31000000D01*
X219200897Y-31000000D01*
X219200897Y-33000000D01*
X219205299Y-33044696D01*
X219218336Y-33087674D01*
X219239508Y-33127283D01*
X219268000Y-33162000D01*
X219302717Y-33190492D01*
X219342326Y-33211664D01*
X219385304Y-33224701D01*
X219430000Y-33229103D01*
X220330000Y-33229103D01*
X220374696Y-33224701D01*
X220417674Y-33211664D01*
X220457283Y-33190492D01*
X220492000Y-33162000D01*
X220520492Y-33127283D01*
X220541664Y-33087674D01*
X220554701Y-33044696D01*
X220559103Y-33000000D01*
X220559103Y-32549937D01*
X220933453Y-32549937D01*
X220949607Y-32631147D01*
X221018786Y-32831243D01*
X221125673Y-33013998D01*
X221266160Y-33172389D01*
X221434848Y-33300329D01*
X221625255Y-33392901D01*
X221830063Y-33446547D01*
X221999000Y-33402500D01*
X221999000Y-32381000D01*
X222001000Y-32381000D01*
X222001000Y-33402500D01*
X222169937Y-33446547D01*
X222374745Y-33392901D01*
X222565152Y-33300329D01*
X222733840Y-33172389D01*
X222874327Y-33013998D01*
X222981214Y-32831243D01*
X223050393Y-32631147D01*
X223066547Y-32549937D01*
X223022500Y-32381000D01*
X222001000Y-32381000D01*
X221999000Y-32381000D01*
X220977500Y-32381000D01*
X220933453Y-32549937D01*
X220559103Y-32549937D01*
X220559103Y-32210063D01*
X220933453Y-32210063D01*
X220977500Y-32379000D01*
X221999000Y-32379000D01*
X221999000Y-31357500D01*
X222001000Y-31357500D01*
X222001000Y-32379000D01*
X223022500Y-32379000D01*
X223066547Y-32210063D01*
X223050393Y-32128853D01*
X222981214Y-31928757D01*
X222874327Y-31746002D01*
X222733840Y-31587611D01*
X222565152Y-31459671D01*
X222374745Y-31367099D01*
X222169937Y-31313453D01*
X222001000Y-31357500D01*
X221999000Y-31357500D01*
X221830063Y-31313453D01*
X221625255Y-31367099D01*
X221434848Y-31459671D01*
X221266160Y-31587611D01*
X221125673Y-31746002D01*
X221018786Y-31928757D01*
X220949607Y-32128853D01*
X220933453Y-32210063D01*
X220559103Y-32210063D01*
X220559103Y-31000000D01*
X220554701Y-30955304D01*
X220541664Y-30912326D01*
X220520492Y-30872717D01*
X220492000Y-30838000D01*
X220457283Y-30809508D01*
X220417674Y-30788336D01*
X220374696Y-30775299D01*
X220330000Y-30770897D01*
X219430000Y-30770897D01*
X219385304Y-30775299D01*
X219342326Y-30788336D01*
X219302717Y-30809508D01*
X219268000Y-30838000D01*
X219239508Y-30872717D01*
X219218336Y-30912326D01*
X219205299Y-30955304D01*
X219200897Y-31000000D01*
X219119103Y-31000000D01*
X219114701Y-30955304D01*
X219101664Y-30912326D01*
X219080492Y-30872717D01*
X219052000Y-30838000D01*
X219017283Y-30809508D01*
X218977674Y-30788336D01*
X218934696Y-30775299D01*
X218890000Y-30770897D01*
X217990000Y-30770897D01*
X217945304Y-30775299D01*
X217902326Y-30788336D01*
X217862717Y-30809508D01*
X217828000Y-30838000D01*
X217799508Y-30872717D01*
X217778336Y-30912326D01*
X217765299Y-30955304D01*
X217760897Y-31000000D01*
X217679103Y-31000000D01*
X217674701Y-30955304D01*
X217661664Y-30912326D01*
X217640492Y-30872717D01*
X217612000Y-30838000D01*
X217577283Y-30809508D01*
X217537674Y-30788336D01*
X217494696Y-30775299D01*
X217450000Y-30770897D01*
X216550000Y-30770897D01*
X216505304Y-30775299D01*
X216462326Y-30788336D01*
X216422717Y-30809508D01*
X216388000Y-30838000D01*
X216359508Y-30872717D01*
X216338336Y-30912326D01*
X216325299Y-30955304D01*
X216320897Y-31000000D01*
X216239103Y-31000000D01*
X216234701Y-30955304D01*
X216221664Y-30912326D01*
X216200492Y-30872717D01*
X216172000Y-30838000D01*
X216137283Y-30809508D01*
X216097674Y-30788336D01*
X216054696Y-30775299D01*
X216010000Y-30770897D01*
X215110000Y-30770897D01*
X215065304Y-30775299D01*
X215022326Y-30788336D01*
X214982717Y-30809508D01*
X214948000Y-30838000D01*
X214919508Y-30872717D01*
X214898336Y-30912326D01*
X214885299Y-30955304D01*
X214880897Y-31000000D01*
X214799103Y-31000000D01*
X214794701Y-30955304D01*
X214781664Y-30912326D01*
X214760492Y-30872717D01*
X214732000Y-30838000D01*
X214697283Y-30809508D01*
X214657674Y-30788336D01*
X214614696Y-30775299D01*
X214570000Y-30770897D01*
X213670000Y-30770897D01*
X213625304Y-30775299D01*
X213582326Y-30788336D01*
X213542717Y-30809508D01*
X213508000Y-30838000D01*
X213479508Y-30872717D01*
X213458336Y-30912326D01*
X213445299Y-30955304D01*
X213440897Y-31000000D01*
X210326000Y-31000000D01*
X210326000Y-30326000D01*
X223674000Y-30326000D01*
X223674000Y-42373261D01*
G37*
%TD.AperFunction*%
D17*
X223674000Y-79626605D02*
X223669696Y-79625299D01*
X223625000Y-79620897D01*
X222375000Y-79620897D01*
X222330304Y-79625299D01*
X222287326Y-79638336D01*
X222247717Y-79659508D01*
X222213000Y-79688000D01*
X222184508Y-79722717D01*
X222163336Y-79762326D01*
X222150299Y-79805304D01*
X222145897Y-79850000D01*
X222145897Y-80054398D01*
X222112028Y-80040369D01*
X222019679Y-80022000D01*
X221925521Y-80022000D01*
X221833172Y-80040369D01*
X221746182Y-80076402D01*
X221667893Y-80128713D01*
X221601313Y-80195293D01*
X221549002Y-80273582D01*
X221512969Y-80360572D01*
X221494600Y-80452921D01*
X221494600Y-80547079D01*
X221494766Y-80547914D01*
X221319894Y-80722786D01*
X221308301Y-80732300D01*
X221270312Y-80778590D01*
X221242084Y-80831402D01*
X221224700Y-80888706D01*
X221218830Y-80948300D01*
X221220301Y-80963234D01*
X221220300Y-82927240D01*
X221219593Y-82927713D01*
X221153013Y-82994293D01*
X221100702Y-83072582D01*
X221064669Y-83159572D01*
X221046300Y-83251921D01*
X221046300Y-83346079D01*
X221064669Y-83438428D01*
X221100702Y-83525418D01*
X221153013Y-83603707D01*
X221219593Y-83670287D01*
X221297882Y-83722598D01*
X221384872Y-83758631D01*
X221477221Y-83777000D01*
X221571379Y-83777000D01*
X221663728Y-83758631D01*
X221750718Y-83722598D01*
X221829007Y-83670287D01*
X221895587Y-83603707D01*
X221947898Y-83525418D01*
X221983931Y-83438428D01*
X222002300Y-83346079D01*
X222002300Y-83251921D01*
X221983931Y-83159572D01*
X221979967Y-83150000D01*
X222143887Y-83150000D01*
X222148328Y-83195088D01*
X222161479Y-83238443D01*
X222182837Y-83278400D01*
X222211578Y-83313422D01*
X222246600Y-83342163D01*
X222286557Y-83363521D01*
X222329912Y-83376672D01*
X222375000Y-83381113D01*
X222941500Y-83380000D01*
X222999000Y-83322500D01*
X222999000Y-82501000D01*
X222202500Y-82501000D01*
X222145000Y-82558500D01*
X222143887Y-83150000D01*
X221979967Y-83150000D01*
X221947898Y-83072582D01*
X221895587Y-82994293D01*
X221829007Y-82927713D01*
X221828300Y-82927241D01*
X221828300Y-81850000D01*
X222143887Y-81850000D01*
X222145000Y-82441500D01*
X222202500Y-82499000D01*
X222999000Y-82499000D01*
X222999000Y-81677500D01*
X222941500Y-81620000D01*
X222375000Y-81618887D01*
X222329912Y-81623328D01*
X222286557Y-81636479D01*
X222246600Y-81657837D01*
X222211578Y-81686578D01*
X222182837Y-81721600D01*
X222161479Y-81761557D01*
X222148328Y-81804912D01*
X222143887Y-81850000D01*
X221828300Y-81850000D01*
X221828300Y-81074220D01*
X221924686Y-80977834D01*
X221925521Y-80978000D01*
X222019679Y-80978000D01*
X222112028Y-80959631D01*
X222145897Y-80945602D01*
X222145897Y-81150000D01*
X222150299Y-81194696D01*
X222163336Y-81237674D01*
X222184508Y-81277283D01*
X222213000Y-81312000D01*
X222247717Y-81340492D01*
X222287326Y-81361664D01*
X222330304Y-81374701D01*
X222375000Y-81379103D01*
X223625000Y-81379103D01*
X223669696Y-81374701D01*
X223674000Y-81373395D01*
X223674000Y-81624515D01*
X223670088Y-81623328D01*
X223625000Y-81618887D01*
X223058500Y-81620000D01*
X223001000Y-81677500D01*
X223001000Y-82499000D01*
X223021000Y-82499000D01*
X223021000Y-82501000D01*
X223001000Y-82501000D01*
X223001000Y-83322500D01*
X223058500Y-83380000D01*
X223625000Y-83381113D01*
X223670088Y-83376672D01*
X223674000Y-83375485D01*
X223674000Y-83626605D01*
X223669696Y-83625299D01*
X223625000Y-83620897D01*
X222375000Y-83620897D01*
X222330304Y-83625299D01*
X222287326Y-83638336D01*
X222247717Y-83659508D01*
X222213000Y-83688000D01*
X222184508Y-83722717D01*
X222163336Y-83762326D01*
X222150299Y-83805304D01*
X222145897Y-83850000D01*
X222145897Y-84117949D01*
X222083718Y-84076402D01*
X221996728Y-84040369D01*
X221904379Y-84022000D01*
X221810221Y-84022000D01*
X221717872Y-84040369D01*
X221630882Y-84076402D01*
X221552593Y-84128713D01*
X221486013Y-84195293D01*
X221433702Y-84273582D01*
X221397669Y-84360572D01*
X221379300Y-84452921D01*
X221379300Y-84547079D01*
X221397669Y-84639428D01*
X221433702Y-84726418D01*
X221486013Y-84804707D01*
X221552593Y-84871287D01*
X221630882Y-84923598D01*
X221717872Y-84959631D01*
X221810221Y-84978000D01*
X221904379Y-84978000D01*
X221996728Y-84959631D01*
X222083718Y-84923598D01*
X222145897Y-84882051D01*
X222145897Y-85150000D01*
X222150299Y-85194696D01*
X222163336Y-85237674D01*
X222184508Y-85277283D01*
X222213000Y-85312000D01*
X222247717Y-85340492D01*
X222287326Y-85361664D01*
X222330304Y-85374701D01*
X222375000Y-85379103D01*
X223625000Y-85379103D01*
X223669696Y-85374701D01*
X223674000Y-85373395D01*
X223674000Y-85624515D01*
X223670088Y-85623328D01*
X223625000Y-85618887D01*
X223058500Y-85620000D01*
X223001000Y-85677500D01*
X223001000Y-86499000D01*
X223021000Y-86499000D01*
X223021000Y-86501000D01*
X223001000Y-86501000D01*
X223001000Y-86521000D01*
X222999000Y-86521000D01*
X222999000Y-86501000D01*
X222202500Y-86501000D01*
X222145000Y-86558500D01*
X222143887Y-87150000D01*
X222148328Y-87195088D01*
X222161479Y-87238443D01*
X222166801Y-87248400D01*
X219545221Y-87248400D01*
X218325923Y-86029103D01*
X218890000Y-86029103D01*
X218934696Y-86024701D01*
X218977674Y-86011664D01*
X219017283Y-85990492D01*
X219052000Y-85962000D01*
X219080492Y-85927283D01*
X219101664Y-85887674D01*
X219114701Y-85844696D01*
X219119103Y-85800000D01*
X219119103Y-83800000D01*
X219200897Y-83800000D01*
X219200897Y-85800000D01*
X219205299Y-85844696D01*
X219218336Y-85887674D01*
X219239508Y-85927283D01*
X219268000Y-85962000D01*
X219302717Y-85990492D01*
X219342326Y-86011664D01*
X219385304Y-86024701D01*
X219430000Y-86029103D01*
X220330000Y-86029103D01*
X220374696Y-86024701D01*
X220417674Y-86011664D01*
X220457283Y-85990492D01*
X220492000Y-85962000D01*
X220520492Y-85927283D01*
X220541664Y-85887674D01*
X220553092Y-85850000D01*
X222143887Y-85850000D01*
X222145000Y-86441500D01*
X222202500Y-86499000D01*
X222999000Y-86499000D01*
X222999000Y-85677500D01*
X222941500Y-85620000D01*
X222375000Y-85618887D01*
X222329912Y-85623328D01*
X222286557Y-85636479D01*
X222246600Y-85657837D01*
X222211578Y-85686578D01*
X222182837Y-85721600D01*
X222161479Y-85761557D01*
X222148328Y-85804912D01*
X222143887Y-85850000D01*
X220553092Y-85850000D01*
X220554701Y-85844696D01*
X220559103Y-85800000D01*
X220559103Y-83800000D01*
X220554701Y-83755304D01*
X220541664Y-83712326D01*
X220520492Y-83672717D01*
X220492000Y-83638000D01*
X220457283Y-83609508D01*
X220417674Y-83588336D01*
X220374696Y-83575299D01*
X220330000Y-83570897D01*
X219430000Y-83570897D01*
X219385304Y-83575299D01*
X219342326Y-83588336D01*
X219302717Y-83609508D01*
X219268000Y-83638000D01*
X219239508Y-83672717D01*
X219218336Y-83712326D01*
X219205299Y-83755304D01*
X219200897Y-83800000D01*
X219119103Y-83800000D01*
X219114701Y-83755304D01*
X219101664Y-83712326D01*
X219080492Y-83672717D01*
X219052000Y-83638000D01*
X219017283Y-83609508D01*
X218977674Y-83588336D01*
X218934696Y-83575299D01*
X218890000Y-83570897D01*
X217990000Y-83570897D01*
X217982400Y-83571646D01*
X217982400Y-82828354D01*
X217990000Y-82829103D01*
X218890000Y-82829103D01*
X218934696Y-82824701D01*
X218977674Y-82811664D01*
X219017283Y-82790492D01*
X219052000Y-82762000D01*
X219080492Y-82727283D01*
X219101664Y-82687674D01*
X219114701Y-82644696D01*
X219119103Y-82600000D01*
X219119103Y-80600000D01*
X219200897Y-80600000D01*
X219200897Y-82600000D01*
X219205299Y-82644696D01*
X219218336Y-82687674D01*
X219239508Y-82727283D01*
X219268000Y-82762000D01*
X219302717Y-82790492D01*
X219342326Y-82811664D01*
X219385304Y-82824701D01*
X219430000Y-82829103D01*
X220330000Y-82829103D01*
X220374696Y-82824701D01*
X220417674Y-82811664D01*
X220457283Y-82790492D01*
X220492000Y-82762000D01*
X220520492Y-82727283D01*
X220541664Y-82687674D01*
X220554701Y-82644696D01*
X220559103Y-82600000D01*
X220559103Y-80600000D01*
X220554701Y-80555304D01*
X220541664Y-80512326D01*
X220520492Y-80472717D01*
X220492000Y-80438000D01*
X220457283Y-80409508D01*
X220417674Y-80388336D01*
X220374696Y-80375299D01*
X220330000Y-80370897D01*
X219430000Y-80370897D01*
X219385304Y-80375299D01*
X219342326Y-80388336D01*
X219302717Y-80409508D01*
X219268000Y-80438000D01*
X219239508Y-80472717D01*
X219218336Y-80512326D01*
X219205299Y-80555304D01*
X219200897Y-80600000D01*
X219119103Y-80600000D01*
X219114701Y-80555304D01*
X219101664Y-80512326D01*
X219080492Y-80472717D01*
X219052000Y-80438000D01*
X219017283Y-80409508D01*
X218977674Y-80388336D01*
X218934696Y-80375299D01*
X218890000Y-80370897D01*
X217990000Y-80370897D01*
X217945304Y-80375299D01*
X217902326Y-80388336D01*
X217862717Y-80409508D01*
X217828000Y-80438000D01*
X217799508Y-80472717D01*
X217778336Y-80512326D01*
X217765299Y-80555304D01*
X217760897Y-80600000D01*
X217760897Y-81930977D01*
X217679103Y-81849183D01*
X217679103Y-80600000D01*
X217674701Y-80555304D01*
X217661664Y-80512326D01*
X217640492Y-80472717D01*
X217612000Y-80438000D01*
X217577283Y-80409508D01*
X217537674Y-80388336D01*
X217494696Y-80375299D01*
X217450000Y-80370897D01*
X216550000Y-80370897D01*
X216505304Y-80375299D01*
X216462326Y-80388336D01*
X216422717Y-80409508D01*
X216388000Y-80438000D01*
X216359508Y-80472717D01*
X216338336Y-80512326D01*
X216325299Y-80555304D01*
X216320897Y-80600000D01*
X216320897Y-82600000D01*
X216325299Y-82644696D01*
X216338336Y-82687674D01*
X216359508Y-82727283D01*
X216388000Y-82762000D01*
X216422717Y-82790492D01*
X216462326Y-82811664D01*
X216505304Y-82824701D01*
X216550000Y-82829103D01*
X217374401Y-82829103D01*
X217374401Y-83570897D01*
X216550000Y-83570897D01*
X216505304Y-83575299D01*
X216462326Y-83588336D01*
X216422717Y-83609508D01*
X216388000Y-83638000D01*
X216359508Y-83672717D01*
X216338336Y-83712326D01*
X216325299Y-83755304D01*
X216320897Y-83800000D01*
X216320897Y-85800000D01*
X216325299Y-85844696D01*
X216338336Y-85887674D01*
X216359508Y-85927283D01*
X216388000Y-85962000D01*
X216422717Y-85990492D01*
X216462326Y-86011664D01*
X216505304Y-86024701D01*
X216550000Y-86029103D01*
X217450000Y-86029103D01*
X217462815Y-86027841D01*
X217473999Y-86037019D01*
X219193786Y-87756807D01*
X219203300Y-87768400D01*
X219249590Y-87806389D01*
X219302402Y-87834617D01*
X219342322Y-87846727D01*
X219359705Y-87852000D01*
X219365484Y-87852569D01*
X219404376Y-87856400D01*
X219404383Y-87856400D01*
X219419299Y-87857869D01*
X219434215Y-87856400D01*
X221372406Y-87856400D01*
X221328713Y-87900093D01*
X221328241Y-87900800D01*
X213745600Y-87900800D01*
X213745600Y-86029103D01*
X214570000Y-86029103D01*
X214614696Y-86024701D01*
X214657674Y-86011664D01*
X214697283Y-85990492D01*
X214732000Y-85962000D01*
X214760492Y-85927283D01*
X214781664Y-85887674D01*
X214794701Y-85844696D01*
X214799103Y-85800000D01*
X214799103Y-83800000D01*
X214880897Y-83800000D01*
X214880897Y-85800000D01*
X214885299Y-85844696D01*
X214898336Y-85887674D01*
X214919508Y-85927283D01*
X214948000Y-85962000D01*
X214982717Y-85990492D01*
X215022326Y-86011664D01*
X215065304Y-86024701D01*
X215110000Y-86029103D01*
X216010000Y-86029103D01*
X216054696Y-86024701D01*
X216097674Y-86011664D01*
X216137283Y-85990492D01*
X216172000Y-85962000D01*
X216200492Y-85927283D01*
X216221664Y-85887674D01*
X216234701Y-85844696D01*
X216239103Y-85800000D01*
X216239103Y-83800000D01*
X216234701Y-83755304D01*
X216221664Y-83712326D01*
X216200492Y-83672717D01*
X216172000Y-83638000D01*
X216137283Y-83609508D01*
X216097674Y-83588336D01*
X216054696Y-83575299D01*
X216010000Y-83570897D01*
X215110000Y-83570897D01*
X215065304Y-83575299D01*
X215022326Y-83588336D01*
X214982717Y-83609508D01*
X214948000Y-83638000D01*
X214919508Y-83672717D01*
X214898336Y-83712326D01*
X214885299Y-83755304D01*
X214880897Y-83800000D01*
X214799103Y-83800000D01*
X214794701Y-83755304D01*
X214781664Y-83712326D01*
X214760492Y-83672717D01*
X214732000Y-83638000D01*
X214697283Y-83609508D01*
X214657674Y-83588336D01*
X214614696Y-83575299D01*
X214570000Y-83570897D01*
X213670000Y-83570897D01*
X213625304Y-83575299D01*
X213582326Y-83588336D01*
X213542717Y-83609508D01*
X213508000Y-83638000D01*
X213479508Y-83672717D01*
X213458336Y-83712326D01*
X213445299Y-83755304D01*
X213440897Y-83800000D01*
X213440897Y-85049183D01*
X213237194Y-85252886D01*
X213225601Y-85262400D01*
X213187612Y-85308690D01*
X213185843Y-85312000D01*
X213159384Y-85361502D01*
X213142000Y-85418806D01*
X213136130Y-85478400D01*
X213137601Y-85493334D01*
X213137600Y-88176676D01*
X213136130Y-88191600D01*
X213137600Y-88206523D01*
X213137601Y-88206533D01*
X213137600Y-95904276D01*
X213136130Y-95919200D01*
X213137600Y-95934123D01*
X213142000Y-95978793D01*
X213159383Y-96036097D01*
X213187611Y-96088909D01*
X213225600Y-96135200D01*
X213237199Y-96144719D01*
X213816000Y-96723520D01*
X213816000Y-96770897D01*
X213670000Y-96770897D01*
X213625304Y-96775299D01*
X213582326Y-96788336D01*
X213542717Y-96809508D01*
X213508000Y-96838000D01*
X213479508Y-96872717D01*
X213458336Y-96912326D01*
X213445299Y-96955304D01*
X213440897Y-97000000D01*
X213440897Y-98984939D01*
X213371793Y-99031113D01*
X213305213Y-99097693D01*
X213252902Y-99175982D01*
X213216869Y-99262972D01*
X213198500Y-99355321D01*
X213198500Y-99449479D01*
X213199344Y-99453724D01*
X213093200Y-99347580D01*
X213093200Y-70480800D01*
X213136130Y-70480800D01*
X213137600Y-70495724D01*
X213137601Y-80906666D01*
X213136130Y-80921600D01*
X213142000Y-80981194D01*
X213150100Y-81007894D01*
X213159384Y-81038498D01*
X213187612Y-81091310D01*
X213225601Y-81137600D01*
X213237194Y-81147114D01*
X213440897Y-81350817D01*
X213440897Y-82600000D01*
X213445299Y-82644696D01*
X213458336Y-82687674D01*
X213479508Y-82727283D01*
X213508000Y-82762000D01*
X213542717Y-82790492D01*
X213582326Y-82811664D01*
X213625304Y-82824701D01*
X213670000Y-82829103D01*
X214570000Y-82829103D01*
X214614696Y-82824701D01*
X214657674Y-82811664D01*
X214697283Y-82790492D01*
X214732000Y-82762000D01*
X214760492Y-82727283D01*
X214781664Y-82687674D01*
X214794701Y-82644696D01*
X214799103Y-82600000D01*
X214799103Y-80600000D01*
X214794701Y-80555304D01*
X214781664Y-80512326D01*
X214760492Y-80472717D01*
X214732000Y-80438000D01*
X214697283Y-80409508D01*
X214657674Y-80388336D01*
X214614696Y-80375299D01*
X214570000Y-80370897D01*
X213745600Y-80370897D01*
X213745600Y-72829103D01*
X214570000Y-72829103D01*
X214577601Y-72828354D01*
X214577600Y-79504276D01*
X214576130Y-79519200D01*
X214577600Y-79534123D01*
X214582000Y-79578793D01*
X214599383Y-79636097D01*
X214627611Y-79688909D01*
X214665600Y-79735200D01*
X214677199Y-79744719D01*
X215256000Y-80323520D01*
X215256000Y-80370897D01*
X215110000Y-80370897D01*
X215065304Y-80375299D01*
X215022326Y-80388336D01*
X214982717Y-80409508D01*
X214948000Y-80438000D01*
X214919508Y-80472717D01*
X214898336Y-80512326D01*
X214885299Y-80555304D01*
X214880897Y-80600000D01*
X214880897Y-82600000D01*
X214885299Y-82644696D01*
X214898336Y-82687674D01*
X214919508Y-82727283D01*
X214948000Y-82762000D01*
X214982717Y-82790492D01*
X215022326Y-82811664D01*
X215065304Y-82824701D01*
X215110000Y-82829103D01*
X216010000Y-82829103D01*
X216054696Y-82824701D01*
X216097674Y-82811664D01*
X216137283Y-82790492D01*
X216172000Y-82762000D01*
X216200492Y-82727283D01*
X216221664Y-82687674D01*
X216234701Y-82644696D01*
X216239103Y-82600000D01*
X216239103Y-80600000D01*
X216234701Y-80555304D01*
X216221664Y-80512326D01*
X216200492Y-80472717D01*
X216172000Y-80438000D01*
X216137283Y-80409508D01*
X216097674Y-80388336D01*
X216054696Y-80375299D01*
X216010000Y-80370897D01*
X215864000Y-80370897D01*
X215864000Y-80212515D01*
X215865469Y-80197599D01*
X215864000Y-80182683D01*
X215864000Y-80182676D01*
X215859600Y-80138006D01*
X215842217Y-80080702D01*
X215813989Y-80027890D01*
X215776000Y-79981600D01*
X215764402Y-79972082D01*
X215185600Y-79393280D01*
X215185600Y-72829103D01*
X216010000Y-72829103D01*
X216054696Y-72824701D01*
X216097674Y-72811664D01*
X216137283Y-72790492D01*
X216172000Y-72762000D01*
X216200492Y-72727283D01*
X216221664Y-72687674D01*
X216234701Y-72644696D01*
X216239103Y-72600000D01*
X216239103Y-70600000D01*
X216320897Y-70600000D01*
X216320897Y-72600000D01*
X216325299Y-72644696D01*
X216338336Y-72687674D01*
X216359508Y-72727283D01*
X216388000Y-72762000D01*
X216422717Y-72790492D01*
X216462326Y-72811664D01*
X216505304Y-72824701D01*
X216550000Y-72829103D01*
X217450000Y-72829103D01*
X217494696Y-72824701D01*
X217537674Y-72811664D01*
X217577283Y-72790492D01*
X217612000Y-72762000D01*
X217640492Y-72727283D01*
X217661664Y-72687674D01*
X217674701Y-72644696D01*
X217679103Y-72600000D01*
X217679103Y-70600000D01*
X217760897Y-70600000D01*
X217760897Y-72600000D01*
X217765299Y-72644696D01*
X217778336Y-72687674D01*
X217799508Y-72727283D01*
X217828000Y-72762000D01*
X217862717Y-72790492D01*
X217902326Y-72811664D01*
X217945304Y-72824701D01*
X217990000Y-72829103D01*
X218890000Y-72829103D01*
X218934696Y-72824701D01*
X218977674Y-72811664D01*
X219017283Y-72790492D01*
X219052000Y-72762000D01*
X219080492Y-72727283D01*
X219101664Y-72687674D01*
X219114701Y-72644696D01*
X219119103Y-72600000D01*
X219119103Y-70600000D01*
X219200897Y-70600000D01*
X219200897Y-72600000D01*
X219205299Y-72644696D01*
X219218336Y-72687674D01*
X219239508Y-72727283D01*
X219268000Y-72762000D01*
X219302717Y-72790492D01*
X219342326Y-72811664D01*
X219385304Y-72824701D01*
X219430000Y-72829103D01*
X220330000Y-72829103D01*
X220374696Y-72824701D01*
X220417674Y-72811664D01*
X220457283Y-72790492D01*
X220492000Y-72762000D01*
X220520492Y-72727283D01*
X220541664Y-72687674D01*
X220554701Y-72644696D01*
X220559103Y-72600000D01*
X220559103Y-70600000D01*
X220554701Y-70555304D01*
X220541664Y-70512326D01*
X220520492Y-70472717D01*
X220492000Y-70438000D01*
X220457283Y-70409508D01*
X220417674Y-70388336D01*
X220374696Y-70375299D01*
X220330000Y-70370897D01*
X219430000Y-70370897D01*
X219385304Y-70375299D01*
X219342326Y-70388336D01*
X219302717Y-70409508D01*
X219268000Y-70438000D01*
X219239508Y-70472717D01*
X219218336Y-70512326D01*
X219205299Y-70555304D01*
X219200897Y-70600000D01*
X219119103Y-70600000D01*
X219114701Y-70555304D01*
X219101664Y-70512326D01*
X219080492Y-70472717D01*
X219052000Y-70438000D01*
X219017283Y-70409508D01*
X218977674Y-70388336D01*
X218934696Y-70375299D01*
X218890000Y-70370897D01*
X217990000Y-70370897D01*
X217945304Y-70375299D01*
X217902326Y-70388336D01*
X217862717Y-70409508D01*
X217828000Y-70438000D01*
X217799508Y-70472717D01*
X217778336Y-70512326D01*
X217765299Y-70555304D01*
X217760897Y-70600000D01*
X217679103Y-70600000D01*
X217674701Y-70555304D01*
X217661664Y-70512326D01*
X217640492Y-70472717D01*
X217612000Y-70438000D01*
X217577283Y-70409508D01*
X217537674Y-70388336D01*
X217494696Y-70375299D01*
X217450000Y-70370897D01*
X216550000Y-70370897D01*
X216505304Y-70375299D01*
X216462326Y-70388336D01*
X216422717Y-70409508D01*
X216388000Y-70438000D01*
X216359508Y-70472717D01*
X216338336Y-70512326D01*
X216325299Y-70555304D01*
X216320897Y-70600000D01*
X216239103Y-70600000D01*
X216234701Y-70555304D01*
X216221664Y-70512326D01*
X216200492Y-70472717D01*
X216172000Y-70438000D01*
X216137283Y-70409508D01*
X216097674Y-70388336D01*
X216054696Y-70375299D01*
X216010000Y-70370897D01*
X215185600Y-70370897D01*
X215185600Y-69629103D01*
X216010000Y-69629103D01*
X216054696Y-69624701D01*
X216097674Y-69611664D01*
X216137283Y-69590492D01*
X216172000Y-69562000D01*
X216200492Y-69527283D01*
X216221664Y-69487674D01*
X216234701Y-69444696D01*
X216239103Y-69400000D01*
X216239103Y-67400000D01*
X216320897Y-67400000D01*
X216320897Y-69400000D01*
X216325299Y-69444696D01*
X216338336Y-69487674D01*
X216359508Y-69527283D01*
X216388000Y-69562000D01*
X216422717Y-69590492D01*
X216462326Y-69611664D01*
X216505304Y-69624701D01*
X216550000Y-69629103D01*
X217450000Y-69629103D01*
X217494696Y-69624701D01*
X217537674Y-69611664D01*
X217577283Y-69590492D01*
X217612000Y-69562000D01*
X217640492Y-69527283D01*
X217661664Y-69487674D01*
X217674701Y-69444696D01*
X217679103Y-69400000D01*
X217679103Y-67400000D01*
X217760897Y-67400000D01*
X217760897Y-69400000D01*
X217765299Y-69444696D01*
X217778336Y-69487674D01*
X217799508Y-69527283D01*
X217828000Y-69562000D01*
X217862717Y-69590492D01*
X217902326Y-69611664D01*
X217945304Y-69624701D01*
X217990000Y-69629103D01*
X218890000Y-69629103D01*
X218934696Y-69624701D01*
X218977674Y-69611664D01*
X219017283Y-69590492D01*
X219052000Y-69562000D01*
X219080492Y-69527283D01*
X219101664Y-69487674D01*
X219114701Y-69444696D01*
X219119103Y-69400000D01*
X219119103Y-67400000D01*
X219200897Y-67400000D01*
X219200897Y-69400000D01*
X219205299Y-69444696D01*
X219218336Y-69487674D01*
X219239508Y-69527283D01*
X219268000Y-69562000D01*
X219302717Y-69590492D01*
X219342326Y-69611664D01*
X219385304Y-69624701D01*
X219430000Y-69629103D01*
X220330000Y-69629103D01*
X220374696Y-69624701D01*
X220417674Y-69611664D01*
X220457283Y-69590492D01*
X220492000Y-69562000D01*
X220520492Y-69527283D01*
X220541664Y-69487674D01*
X220554701Y-69444696D01*
X220559103Y-69400000D01*
X220559103Y-67400000D01*
X220554701Y-67355304D01*
X220541664Y-67312326D01*
X220520492Y-67272717D01*
X220492000Y-67238000D01*
X220457283Y-67209508D01*
X220417674Y-67188336D01*
X220374696Y-67175299D01*
X220330000Y-67170897D01*
X219430000Y-67170897D01*
X219385304Y-67175299D01*
X219342326Y-67188336D01*
X219302717Y-67209508D01*
X219268000Y-67238000D01*
X219239508Y-67272717D01*
X219218336Y-67312326D01*
X219205299Y-67355304D01*
X219200897Y-67400000D01*
X219119103Y-67400000D01*
X219114701Y-67355304D01*
X219101664Y-67312326D01*
X219080492Y-67272717D01*
X219052000Y-67238000D01*
X219017283Y-67209508D01*
X218977674Y-67188336D01*
X218934696Y-67175299D01*
X218890000Y-67170897D01*
X217990000Y-67170897D01*
X217945304Y-67175299D01*
X217902326Y-67188336D01*
X217862717Y-67209508D01*
X217828000Y-67238000D01*
X217799508Y-67272717D01*
X217778336Y-67312326D01*
X217765299Y-67355304D01*
X217760897Y-67400000D01*
X217679103Y-67400000D01*
X217674701Y-67355304D01*
X217661664Y-67312326D01*
X217640492Y-67272717D01*
X217612000Y-67238000D01*
X217577283Y-67209508D01*
X217537674Y-67188336D01*
X217494696Y-67175299D01*
X217450000Y-67170897D01*
X216550000Y-67170897D01*
X216505304Y-67175299D01*
X216462326Y-67188336D01*
X216422717Y-67209508D01*
X216388000Y-67238000D01*
X216359508Y-67272717D01*
X216338336Y-67312326D01*
X216325299Y-67355304D01*
X216320897Y-67400000D01*
X216239103Y-67400000D01*
X216234701Y-67355304D01*
X216221664Y-67312326D01*
X216200492Y-67272717D01*
X216172000Y-67238000D01*
X216137283Y-67209508D01*
X216097674Y-67188336D01*
X216054696Y-67175299D01*
X216010000Y-67170897D01*
X215445923Y-67170897D01*
X215990487Y-66626334D01*
X215991321Y-66626500D01*
X216085479Y-66626500D01*
X216177828Y-66608131D01*
X216264818Y-66572098D01*
X216343107Y-66519787D01*
X216409687Y-66453207D01*
X216461998Y-66374918D01*
X216498031Y-66287928D01*
X216516400Y-66195579D01*
X216516400Y-66101421D01*
X216498031Y-66009072D01*
X216461998Y-65922082D01*
X216409687Y-65843793D01*
X216343107Y-65777213D01*
X216264818Y-65724902D01*
X216177828Y-65688869D01*
X216085479Y-65670500D01*
X215991321Y-65670500D01*
X215898972Y-65688869D01*
X215811982Y-65724902D01*
X215733693Y-65777213D01*
X215667113Y-65843793D01*
X215614802Y-65922082D01*
X215578769Y-66009072D01*
X215560400Y-66101421D01*
X215560400Y-66195579D01*
X215560566Y-66196413D01*
X214677194Y-67079786D01*
X214665601Y-67089300D01*
X214627612Y-67135590D01*
X214606803Y-67174522D01*
X214570000Y-67170897D01*
X213670000Y-67170897D01*
X213625304Y-67175299D01*
X213582326Y-67188336D01*
X213542717Y-67209508D01*
X213508000Y-67238000D01*
X213479508Y-67272717D01*
X213458336Y-67312326D01*
X213445299Y-67355304D01*
X213440897Y-67400000D01*
X213440897Y-69400000D01*
X213445299Y-69444696D01*
X213458336Y-69487674D01*
X213479508Y-69527283D01*
X213508000Y-69562000D01*
X213542717Y-69590492D01*
X213582326Y-69611664D01*
X213625304Y-69624701D01*
X213670000Y-69629103D01*
X213816000Y-69629103D01*
X213816000Y-69676480D01*
X213237199Y-70255281D01*
X213225600Y-70264800D01*
X213187611Y-70311091D01*
X213159383Y-70363903D01*
X213147273Y-70403823D01*
X213142000Y-70421206D01*
X213136130Y-70480800D01*
X213093200Y-70480800D01*
X213093200Y-58323120D01*
X213374485Y-58604406D01*
X213384000Y-58616000D01*
X213430290Y-58653989D01*
X213440897Y-58659658D01*
X213440897Y-59400000D01*
X213445299Y-59444696D01*
X213458336Y-59487674D01*
X213479508Y-59527283D01*
X213508000Y-59562000D01*
X213542717Y-59590492D01*
X213582326Y-59611664D01*
X213625304Y-59624701D01*
X213670000Y-59629103D01*
X214570000Y-59629103D01*
X214614696Y-59624701D01*
X214657674Y-59611664D01*
X214697283Y-59590492D01*
X214732000Y-59562000D01*
X214760492Y-59527283D01*
X214781664Y-59487674D01*
X214794701Y-59444696D01*
X214799103Y-59400000D01*
X214799103Y-57430338D01*
X214829618Y-57417698D01*
X214882643Y-57382268D01*
X214880897Y-57400000D01*
X214880897Y-59400000D01*
X214885299Y-59444696D01*
X214898336Y-59487674D01*
X214919508Y-59527283D01*
X214948000Y-59562000D01*
X214982717Y-59590492D01*
X215022326Y-59611664D01*
X215065304Y-59624701D01*
X215110000Y-59629103D01*
X216010000Y-59629103D01*
X216054696Y-59624701D01*
X216097674Y-59611664D01*
X216137283Y-59590492D01*
X216172000Y-59562000D01*
X216200492Y-59527283D01*
X216221664Y-59487674D01*
X216234701Y-59444696D01*
X216239103Y-59400000D01*
X216239103Y-57400000D01*
X216234701Y-57355304D01*
X216221664Y-57312326D01*
X216214060Y-57298100D01*
X216345940Y-57298100D01*
X216338336Y-57312326D01*
X216325299Y-57355304D01*
X216320897Y-57400000D01*
X216320897Y-59400000D01*
X216325299Y-59444696D01*
X216338336Y-59487674D01*
X216359508Y-59527283D01*
X216388000Y-59562000D01*
X216422717Y-59590492D01*
X216462326Y-59611664D01*
X216505304Y-59624701D01*
X216550000Y-59629103D01*
X217450000Y-59629103D01*
X217494696Y-59624701D01*
X217537674Y-59611664D01*
X217577283Y-59590492D01*
X217612000Y-59562000D01*
X217640492Y-59527283D01*
X217661664Y-59487674D01*
X217674701Y-59444696D01*
X217679103Y-59400000D01*
X217679103Y-57400000D01*
X217674701Y-57355304D01*
X217661664Y-57312326D01*
X217654060Y-57298100D01*
X217785940Y-57298100D01*
X217778336Y-57312326D01*
X217765299Y-57355304D01*
X217760897Y-57400000D01*
X217760897Y-59400000D01*
X217765299Y-59444696D01*
X217778336Y-59487674D01*
X217799508Y-59527283D01*
X217828000Y-59562000D01*
X217862717Y-59590492D01*
X217902326Y-59611664D01*
X217945304Y-59624701D01*
X217990000Y-59629103D01*
X218890000Y-59629103D01*
X218934696Y-59624701D01*
X218977674Y-59611664D01*
X219017283Y-59590492D01*
X219052000Y-59562000D01*
X219080492Y-59527283D01*
X219101664Y-59487674D01*
X219114701Y-59444696D01*
X219119103Y-59400000D01*
X219119103Y-57400000D01*
X219114701Y-57355304D01*
X219101664Y-57312326D01*
X219094060Y-57298100D01*
X219225940Y-57298100D01*
X219218336Y-57312326D01*
X219205299Y-57355304D01*
X219200897Y-57400000D01*
X219200897Y-59400000D01*
X219205299Y-59444696D01*
X219218336Y-59487674D01*
X219239508Y-59527283D01*
X219268000Y-59562000D01*
X219302717Y-59590492D01*
X219342326Y-59611664D01*
X219385304Y-59624701D01*
X219430000Y-59629103D01*
X220330000Y-59629103D01*
X220374696Y-59624701D01*
X220417674Y-59611664D01*
X220457283Y-59590492D01*
X220492000Y-59562000D01*
X220520492Y-59527283D01*
X220541664Y-59487674D01*
X220554701Y-59444696D01*
X220559103Y-59400000D01*
X220559103Y-58150817D01*
X221352087Y-57357834D01*
X221352921Y-57358000D01*
X221447079Y-57358000D01*
X221539428Y-57339631D01*
X221626418Y-57303598D01*
X221704707Y-57251287D01*
X221771287Y-57184707D01*
X221823598Y-57106418D01*
X221859631Y-57019428D01*
X221878000Y-56927079D01*
X221878000Y-56832921D01*
X221859631Y-56740572D01*
X221823598Y-56653582D01*
X221771287Y-56575293D01*
X221704707Y-56508713D01*
X221626418Y-56456402D01*
X221539428Y-56420369D01*
X221447079Y-56402000D01*
X221352921Y-56402000D01*
X221260572Y-56420369D01*
X221173582Y-56456402D01*
X221095293Y-56508713D01*
X221028713Y-56575293D01*
X220976402Y-56653582D01*
X220940369Y-56740572D01*
X220922000Y-56832921D01*
X220922000Y-56927079D01*
X220922166Y-56927913D01*
X220540302Y-57309778D01*
X220520492Y-57272717D01*
X220492000Y-57238000D01*
X220457283Y-57209508D01*
X220417674Y-57188336D01*
X220374696Y-57175299D01*
X220330000Y-57170897D01*
X220112123Y-57170897D01*
X223204408Y-54078613D01*
X223216000Y-54069100D01*
X223253989Y-54022810D01*
X223279384Y-53975299D01*
X223282217Y-53969999D01*
X223299600Y-53912695D01*
X223305470Y-53853100D01*
X223304000Y-53838176D01*
X223304000Y-49629103D01*
X223650000Y-49629103D01*
X223674000Y-49626739D01*
X223674000Y-79626605D01*
%TA.AperFunction,Conductor*%
D18*
G36*
X223674000Y-79626605D02*
G01*
X223669696Y-79625299D01*
X223625000Y-79620897D01*
X222375000Y-79620897D01*
X222330304Y-79625299D01*
X222287326Y-79638336D01*
X222247717Y-79659508D01*
X222213000Y-79688000D01*
X222184508Y-79722717D01*
X222163336Y-79762326D01*
X222150299Y-79805304D01*
X222145897Y-79850000D01*
X222145897Y-80054398D01*
X222112028Y-80040369D01*
X222019679Y-80022000D01*
X221925521Y-80022000D01*
X221833172Y-80040369D01*
X221746182Y-80076402D01*
X221667893Y-80128713D01*
X221601313Y-80195293D01*
X221549002Y-80273582D01*
X221512969Y-80360572D01*
X221494600Y-80452921D01*
X221494600Y-80547079D01*
X221494766Y-80547914D01*
X221319894Y-80722786D01*
X221308301Y-80732300D01*
X221270312Y-80778590D01*
X221242084Y-80831402D01*
X221224700Y-80888706D01*
X221218830Y-80948300D01*
X221220301Y-80963234D01*
X221220300Y-82927240D01*
X221219593Y-82927713D01*
X221153013Y-82994293D01*
X221100702Y-83072582D01*
X221064669Y-83159572D01*
X221046300Y-83251921D01*
X221046300Y-83346079D01*
X221064669Y-83438428D01*
X221100702Y-83525418D01*
X221153013Y-83603707D01*
X221219593Y-83670287D01*
X221297882Y-83722598D01*
X221384872Y-83758631D01*
X221477221Y-83777000D01*
X221571379Y-83777000D01*
X221663728Y-83758631D01*
X221750718Y-83722598D01*
X221829007Y-83670287D01*
X221895587Y-83603707D01*
X221947898Y-83525418D01*
X221983931Y-83438428D01*
X222002300Y-83346079D01*
X222002300Y-83251921D01*
X221983931Y-83159572D01*
X221979967Y-83150000D01*
X222143887Y-83150000D01*
X222148328Y-83195088D01*
X222161479Y-83238443D01*
X222182837Y-83278400D01*
X222211578Y-83313422D01*
X222246600Y-83342163D01*
X222286557Y-83363521D01*
X222329912Y-83376672D01*
X222375000Y-83381113D01*
X222941500Y-83380000D01*
X222999000Y-83322500D01*
X222999000Y-82501000D01*
X222202500Y-82501000D01*
X222145000Y-82558500D01*
X222143887Y-83150000D01*
X221979967Y-83150000D01*
X221947898Y-83072582D01*
X221895587Y-82994293D01*
X221829007Y-82927713D01*
X221828300Y-82927241D01*
X221828300Y-81850000D01*
X222143887Y-81850000D01*
X222145000Y-82441500D01*
X222202500Y-82499000D01*
X222999000Y-82499000D01*
X222999000Y-81677500D01*
X222941500Y-81620000D01*
X222375000Y-81618887D01*
X222329912Y-81623328D01*
X222286557Y-81636479D01*
X222246600Y-81657837D01*
X222211578Y-81686578D01*
X222182837Y-81721600D01*
X222161479Y-81761557D01*
X222148328Y-81804912D01*
X222143887Y-81850000D01*
X221828300Y-81850000D01*
X221828300Y-81074220D01*
X221924686Y-80977834D01*
X221925521Y-80978000D01*
X222019679Y-80978000D01*
X222112028Y-80959631D01*
X222145897Y-80945602D01*
X222145897Y-81150000D01*
X222150299Y-81194696D01*
X222163336Y-81237674D01*
X222184508Y-81277283D01*
X222213000Y-81312000D01*
X222247717Y-81340492D01*
X222287326Y-81361664D01*
X222330304Y-81374701D01*
X222375000Y-81379103D01*
X223625000Y-81379103D01*
X223669696Y-81374701D01*
X223674000Y-81373395D01*
X223674000Y-81624515D01*
X223670088Y-81623328D01*
X223625000Y-81618887D01*
X223058500Y-81620000D01*
X223001000Y-81677500D01*
X223001000Y-82499000D01*
X223021000Y-82499000D01*
X223021000Y-82501000D01*
X223001000Y-82501000D01*
X223001000Y-83322500D01*
X223058500Y-83380000D01*
X223625000Y-83381113D01*
X223670088Y-83376672D01*
X223674000Y-83375485D01*
X223674000Y-83626605D01*
X223669696Y-83625299D01*
X223625000Y-83620897D01*
X222375000Y-83620897D01*
X222330304Y-83625299D01*
X222287326Y-83638336D01*
X222247717Y-83659508D01*
X222213000Y-83688000D01*
X222184508Y-83722717D01*
X222163336Y-83762326D01*
X222150299Y-83805304D01*
X222145897Y-83850000D01*
X222145897Y-84117949D01*
X222083718Y-84076402D01*
X221996728Y-84040369D01*
X221904379Y-84022000D01*
X221810221Y-84022000D01*
X221717872Y-84040369D01*
X221630882Y-84076402D01*
X221552593Y-84128713D01*
X221486013Y-84195293D01*
X221433702Y-84273582D01*
X221397669Y-84360572D01*
X221379300Y-84452921D01*
X221379300Y-84547079D01*
X221397669Y-84639428D01*
X221433702Y-84726418D01*
X221486013Y-84804707D01*
X221552593Y-84871287D01*
X221630882Y-84923598D01*
X221717872Y-84959631D01*
X221810221Y-84978000D01*
X221904379Y-84978000D01*
X221996728Y-84959631D01*
X222083718Y-84923598D01*
X222145897Y-84882051D01*
X222145897Y-85150000D01*
X222150299Y-85194696D01*
X222163336Y-85237674D01*
X222184508Y-85277283D01*
X222213000Y-85312000D01*
X222247717Y-85340492D01*
X222287326Y-85361664D01*
X222330304Y-85374701D01*
X222375000Y-85379103D01*
X223625000Y-85379103D01*
X223669696Y-85374701D01*
X223674000Y-85373395D01*
X223674000Y-85624515D01*
X223670088Y-85623328D01*
X223625000Y-85618887D01*
X223058500Y-85620000D01*
X223001000Y-85677500D01*
X223001000Y-86499000D01*
X223021000Y-86499000D01*
X223021000Y-86501000D01*
X223001000Y-86501000D01*
X223001000Y-86521000D01*
X222999000Y-86521000D01*
X222999000Y-86501000D01*
X222202500Y-86501000D01*
X222145000Y-86558500D01*
X222143887Y-87150000D01*
X222148328Y-87195088D01*
X222161479Y-87238443D01*
X222166801Y-87248400D01*
X219545221Y-87248400D01*
X218325923Y-86029103D01*
X218890000Y-86029103D01*
X218934696Y-86024701D01*
X218977674Y-86011664D01*
X219017283Y-85990492D01*
X219052000Y-85962000D01*
X219080492Y-85927283D01*
X219101664Y-85887674D01*
X219114701Y-85844696D01*
X219119103Y-85800000D01*
X219119103Y-83800000D01*
X219200897Y-83800000D01*
X219200897Y-85800000D01*
X219205299Y-85844696D01*
X219218336Y-85887674D01*
X219239508Y-85927283D01*
X219268000Y-85962000D01*
X219302717Y-85990492D01*
X219342326Y-86011664D01*
X219385304Y-86024701D01*
X219430000Y-86029103D01*
X220330000Y-86029103D01*
X220374696Y-86024701D01*
X220417674Y-86011664D01*
X220457283Y-85990492D01*
X220492000Y-85962000D01*
X220520492Y-85927283D01*
X220541664Y-85887674D01*
X220553092Y-85850000D01*
X222143887Y-85850000D01*
X222145000Y-86441500D01*
X222202500Y-86499000D01*
X222999000Y-86499000D01*
X222999000Y-85677500D01*
X222941500Y-85620000D01*
X222375000Y-85618887D01*
X222329912Y-85623328D01*
X222286557Y-85636479D01*
X222246600Y-85657837D01*
X222211578Y-85686578D01*
X222182837Y-85721600D01*
X222161479Y-85761557D01*
X222148328Y-85804912D01*
X222143887Y-85850000D01*
X220553092Y-85850000D01*
X220554701Y-85844696D01*
X220559103Y-85800000D01*
X220559103Y-83800000D01*
X220554701Y-83755304D01*
X220541664Y-83712326D01*
X220520492Y-83672717D01*
X220492000Y-83638000D01*
X220457283Y-83609508D01*
X220417674Y-83588336D01*
X220374696Y-83575299D01*
X220330000Y-83570897D01*
X219430000Y-83570897D01*
X219385304Y-83575299D01*
X219342326Y-83588336D01*
X219302717Y-83609508D01*
X219268000Y-83638000D01*
X219239508Y-83672717D01*
X219218336Y-83712326D01*
X219205299Y-83755304D01*
X219200897Y-83800000D01*
X219119103Y-83800000D01*
X219114701Y-83755304D01*
X219101664Y-83712326D01*
X219080492Y-83672717D01*
X219052000Y-83638000D01*
X219017283Y-83609508D01*
X218977674Y-83588336D01*
X218934696Y-83575299D01*
X218890000Y-83570897D01*
X217990000Y-83570897D01*
X217982400Y-83571646D01*
X217982400Y-82828354D01*
X217990000Y-82829103D01*
X218890000Y-82829103D01*
X218934696Y-82824701D01*
X218977674Y-82811664D01*
X219017283Y-82790492D01*
X219052000Y-82762000D01*
X219080492Y-82727283D01*
X219101664Y-82687674D01*
X219114701Y-82644696D01*
X219119103Y-82600000D01*
X219119103Y-80600000D01*
X219200897Y-80600000D01*
X219200897Y-82600000D01*
X219205299Y-82644696D01*
X219218336Y-82687674D01*
X219239508Y-82727283D01*
X219268000Y-82762000D01*
X219302717Y-82790492D01*
X219342326Y-82811664D01*
X219385304Y-82824701D01*
X219430000Y-82829103D01*
X220330000Y-82829103D01*
X220374696Y-82824701D01*
X220417674Y-82811664D01*
X220457283Y-82790492D01*
X220492000Y-82762000D01*
X220520492Y-82727283D01*
X220541664Y-82687674D01*
X220554701Y-82644696D01*
X220559103Y-82600000D01*
X220559103Y-80600000D01*
X220554701Y-80555304D01*
X220541664Y-80512326D01*
X220520492Y-80472717D01*
X220492000Y-80438000D01*
X220457283Y-80409508D01*
X220417674Y-80388336D01*
X220374696Y-80375299D01*
X220330000Y-80370897D01*
X219430000Y-80370897D01*
X219385304Y-80375299D01*
X219342326Y-80388336D01*
X219302717Y-80409508D01*
X219268000Y-80438000D01*
X219239508Y-80472717D01*
X219218336Y-80512326D01*
X219205299Y-80555304D01*
X219200897Y-80600000D01*
X219119103Y-80600000D01*
X219114701Y-80555304D01*
X219101664Y-80512326D01*
X219080492Y-80472717D01*
X219052000Y-80438000D01*
X219017283Y-80409508D01*
X218977674Y-80388336D01*
X218934696Y-80375299D01*
X218890000Y-80370897D01*
X217990000Y-80370897D01*
X217945304Y-80375299D01*
X217902326Y-80388336D01*
X217862717Y-80409508D01*
X217828000Y-80438000D01*
X217799508Y-80472717D01*
X217778336Y-80512326D01*
X217765299Y-80555304D01*
X217760897Y-80600000D01*
X217760897Y-81930977D01*
X217679103Y-81849183D01*
X217679103Y-80600000D01*
X217674701Y-80555304D01*
X217661664Y-80512326D01*
X217640492Y-80472717D01*
X217612000Y-80438000D01*
X217577283Y-80409508D01*
X217537674Y-80388336D01*
X217494696Y-80375299D01*
X217450000Y-80370897D01*
X216550000Y-80370897D01*
X216505304Y-80375299D01*
X216462326Y-80388336D01*
X216422717Y-80409508D01*
X216388000Y-80438000D01*
X216359508Y-80472717D01*
X216338336Y-80512326D01*
X216325299Y-80555304D01*
X216320897Y-80600000D01*
X216320897Y-82600000D01*
X216325299Y-82644696D01*
X216338336Y-82687674D01*
X216359508Y-82727283D01*
X216388000Y-82762000D01*
X216422717Y-82790492D01*
X216462326Y-82811664D01*
X216505304Y-82824701D01*
X216550000Y-82829103D01*
X217374401Y-82829103D01*
X217374401Y-83570897D01*
X216550000Y-83570897D01*
X216505304Y-83575299D01*
X216462326Y-83588336D01*
X216422717Y-83609508D01*
X216388000Y-83638000D01*
X216359508Y-83672717D01*
X216338336Y-83712326D01*
X216325299Y-83755304D01*
X216320897Y-83800000D01*
X216320897Y-85800000D01*
X216325299Y-85844696D01*
X216338336Y-85887674D01*
X216359508Y-85927283D01*
X216388000Y-85962000D01*
X216422717Y-85990492D01*
X216462326Y-86011664D01*
X216505304Y-86024701D01*
X216550000Y-86029103D01*
X217450000Y-86029103D01*
X217462815Y-86027841D01*
X217473999Y-86037019D01*
X219193786Y-87756807D01*
X219203300Y-87768400D01*
X219249590Y-87806389D01*
X219302402Y-87834617D01*
X219342322Y-87846727D01*
X219359705Y-87852000D01*
X219365484Y-87852569D01*
X219404376Y-87856400D01*
X219404383Y-87856400D01*
X219419299Y-87857869D01*
X219434215Y-87856400D01*
X221372406Y-87856400D01*
X221328713Y-87900093D01*
X221328241Y-87900800D01*
X213745600Y-87900800D01*
X213745600Y-86029103D01*
X214570000Y-86029103D01*
X214614696Y-86024701D01*
X214657674Y-86011664D01*
X214697283Y-85990492D01*
X214732000Y-85962000D01*
X214760492Y-85927283D01*
X214781664Y-85887674D01*
X214794701Y-85844696D01*
X214799103Y-85800000D01*
X214799103Y-83800000D01*
X214880897Y-83800000D01*
X214880897Y-85800000D01*
X214885299Y-85844696D01*
X214898336Y-85887674D01*
X214919508Y-85927283D01*
X214948000Y-85962000D01*
X214982717Y-85990492D01*
X215022326Y-86011664D01*
X215065304Y-86024701D01*
X215110000Y-86029103D01*
X216010000Y-86029103D01*
X216054696Y-86024701D01*
X216097674Y-86011664D01*
X216137283Y-85990492D01*
X216172000Y-85962000D01*
X216200492Y-85927283D01*
X216221664Y-85887674D01*
X216234701Y-85844696D01*
X216239103Y-85800000D01*
X216239103Y-83800000D01*
X216234701Y-83755304D01*
X216221664Y-83712326D01*
X216200492Y-83672717D01*
X216172000Y-83638000D01*
X216137283Y-83609508D01*
X216097674Y-83588336D01*
X216054696Y-83575299D01*
X216010000Y-83570897D01*
X215110000Y-83570897D01*
X215065304Y-83575299D01*
X215022326Y-83588336D01*
X214982717Y-83609508D01*
X214948000Y-83638000D01*
X214919508Y-83672717D01*
X214898336Y-83712326D01*
X214885299Y-83755304D01*
X214880897Y-83800000D01*
X214799103Y-83800000D01*
X214794701Y-83755304D01*
X214781664Y-83712326D01*
X214760492Y-83672717D01*
X214732000Y-83638000D01*
X214697283Y-83609508D01*
X214657674Y-83588336D01*
X214614696Y-83575299D01*
X214570000Y-83570897D01*
X213670000Y-83570897D01*
X213625304Y-83575299D01*
X213582326Y-83588336D01*
X213542717Y-83609508D01*
X213508000Y-83638000D01*
X213479508Y-83672717D01*
X213458336Y-83712326D01*
X213445299Y-83755304D01*
X213440897Y-83800000D01*
X213440897Y-85049183D01*
X213237194Y-85252886D01*
X213225601Y-85262400D01*
X213187612Y-85308690D01*
X213185843Y-85312000D01*
X213159384Y-85361502D01*
X213142000Y-85418806D01*
X213136130Y-85478400D01*
X213137601Y-85493334D01*
X213137600Y-88176676D01*
X213136130Y-88191600D01*
X213137600Y-88206523D01*
X213137601Y-88206533D01*
X213137600Y-95904276D01*
X213136130Y-95919200D01*
X213137600Y-95934123D01*
X213142000Y-95978793D01*
X213159383Y-96036097D01*
X213187611Y-96088909D01*
X213225600Y-96135200D01*
X213237199Y-96144719D01*
X213816000Y-96723520D01*
X213816000Y-96770897D01*
X213670000Y-96770897D01*
X213625304Y-96775299D01*
X213582326Y-96788336D01*
X213542717Y-96809508D01*
X213508000Y-96838000D01*
X213479508Y-96872717D01*
X213458336Y-96912326D01*
X213445299Y-96955304D01*
X213440897Y-97000000D01*
X213440897Y-98984939D01*
X213371793Y-99031113D01*
X213305213Y-99097693D01*
X213252902Y-99175982D01*
X213216869Y-99262972D01*
X213198500Y-99355321D01*
X213198500Y-99449479D01*
X213199344Y-99453724D01*
X213093200Y-99347580D01*
X213093200Y-70480800D01*
X213136130Y-70480800D01*
X213137600Y-70495724D01*
X213137601Y-80906666D01*
X213136130Y-80921600D01*
X213142000Y-80981194D01*
X213150100Y-81007894D01*
X213159384Y-81038498D01*
X213187612Y-81091310D01*
X213225601Y-81137600D01*
X213237194Y-81147114D01*
X213440897Y-81350817D01*
X213440897Y-82600000D01*
X213445299Y-82644696D01*
X213458336Y-82687674D01*
X213479508Y-82727283D01*
X213508000Y-82762000D01*
X213542717Y-82790492D01*
X213582326Y-82811664D01*
X213625304Y-82824701D01*
X213670000Y-82829103D01*
X214570000Y-82829103D01*
X214614696Y-82824701D01*
X214657674Y-82811664D01*
X214697283Y-82790492D01*
X214732000Y-82762000D01*
X214760492Y-82727283D01*
X214781664Y-82687674D01*
X214794701Y-82644696D01*
X214799103Y-82600000D01*
X214799103Y-80600000D01*
X214794701Y-80555304D01*
X214781664Y-80512326D01*
X214760492Y-80472717D01*
X214732000Y-80438000D01*
X214697283Y-80409508D01*
X214657674Y-80388336D01*
X214614696Y-80375299D01*
X214570000Y-80370897D01*
X213745600Y-80370897D01*
X213745600Y-72829103D01*
X214570000Y-72829103D01*
X214577601Y-72828354D01*
X214577600Y-79504276D01*
X214576130Y-79519200D01*
X214577600Y-79534123D01*
X214582000Y-79578793D01*
X214599383Y-79636097D01*
X214627611Y-79688909D01*
X214665600Y-79735200D01*
X214677199Y-79744719D01*
X215256000Y-80323520D01*
X215256000Y-80370897D01*
X215110000Y-80370897D01*
X215065304Y-80375299D01*
X215022326Y-80388336D01*
X214982717Y-80409508D01*
X214948000Y-80438000D01*
X214919508Y-80472717D01*
X214898336Y-80512326D01*
X214885299Y-80555304D01*
X214880897Y-80600000D01*
X214880897Y-82600000D01*
X214885299Y-82644696D01*
X214898336Y-82687674D01*
X214919508Y-82727283D01*
X214948000Y-82762000D01*
X214982717Y-82790492D01*
X215022326Y-82811664D01*
X215065304Y-82824701D01*
X215110000Y-82829103D01*
X216010000Y-82829103D01*
X216054696Y-82824701D01*
X216097674Y-82811664D01*
X216137283Y-82790492D01*
X216172000Y-82762000D01*
X216200492Y-82727283D01*
X216221664Y-82687674D01*
X216234701Y-82644696D01*
X216239103Y-82600000D01*
X216239103Y-80600000D01*
X216234701Y-80555304D01*
X216221664Y-80512326D01*
X216200492Y-80472717D01*
X216172000Y-80438000D01*
X216137283Y-80409508D01*
X216097674Y-80388336D01*
X216054696Y-80375299D01*
X216010000Y-80370897D01*
X215864000Y-80370897D01*
X215864000Y-80212515D01*
X215865469Y-80197599D01*
X215864000Y-80182683D01*
X215864000Y-80182676D01*
X215859600Y-80138006D01*
X215842217Y-80080702D01*
X215813989Y-80027890D01*
X215776000Y-79981600D01*
X215764402Y-79972082D01*
X215185600Y-79393280D01*
X215185600Y-72829103D01*
X216010000Y-72829103D01*
X216054696Y-72824701D01*
X216097674Y-72811664D01*
X216137283Y-72790492D01*
X216172000Y-72762000D01*
X216200492Y-72727283D01*
X216221664Y-72687674D01*
X216234701Y-72644696D01*
X216239103Y-72600000D01*
X216239103Y-70600000D01*
X216320897Y-70600000D01*
X216320897Y-72600000D01*
X216325299Y-72644696D01*
X216338336Y-72687674D01*
X216359508Y-72727283D01*
X216388000Y-72762000D01*
X216422717Y-72790492D01*
X216462326Y-72811664D01*
X216505304Y-72824701D01*
X216550000Y-72829103D01*
X217450000Y-72829103D01*
X217494696Y-72824701D01*
X217537674Y-72811664D01*
X217577283Y-72790492D01*
X217612000Y-72762000D01*
X217640492Y-72727283D01*
X217661664Y-72687674D01*
X217674701Y-72644696D01*
X217679103Y-72600000D01*
X217679103Y-70600000D01*
X217760897Y-70600000D01*
X217760897Y-72600000D01*
X217765299Y-72644696D01*
X217778336Y-72687674D01*
X217799508Y-72727283D01*
X217828000Y-72762000D01*
X217862717Y-72790492D01*
X217902326Y-72811664D01*
X217945304Y-72824701D01*
X217990000Y-72829103D01*
X218890000Y-72829103D01*
X218934696Y-72824701D01*
X218977674Y-72811664D01*
X219017283Y-72790492D01*
X219052000Y-72762000D01*
X219080492Y-72727283D01*
X219101664Y-72687674D01*
X219114701Y-72644696D01*
X219119103Y-72600000D01*
X219119103Y-70600000D01*
X219200897Y-70600000D01*
X219200897Y-72600000D01*
X219205299Y-72644696D01*
X219218336Y-72687674D01*
X219239508Y-72727283D01*
X219268000Y-72762000D01*
X219302717Y-72790492D01*
X219342326Y-72811664D01*
X219385304Y-72824701D01*
X219430000Y-72829103D01*
X220330000Y-72829103D01*
X220374696Y-72824701D01*
X220417674Y-72811664D01*
X220457283Y-72790492D01*
X220492000Y-72762000D01*
X220520492Y-72727283D01*
X220541664Y-72687674D01*
X220554701Y-72644696D01*
X220559103Y-72600000D01*
X220559103Y-70600000D01*
X220554701Y-70555304D01*
X220541664Y-70512326D01*
X220520492Y-70472717D01*
X220492000Y-70438000D01*
X220457283Y-70409508D01*
X220417674Y-70388336D01*
X220374696Y-70375299D01*
X220330000Y-70370897D01*
X219430000Y-70370897D01*
X219385304Y-70375299D01*
X219342326Y-70388336D01*
X219302717Y-70409508D01*
X219268000Y-70438000D01*
X219239508Y-70472717D01*
X219218336Y-70512326D01*
X219205299Y-70555304D01*
X219200897Y-70600000D01*
X219119103Y-70600000D01*
X219114701Y-70555304D01*
X219101664Y-70512326D01*
X219080492Y-70472717D01*
X219052000Y-70438000D01*
X219017283Y-70409508D01*
X218977674Y-70388336D01*
X218934696Y-70375299D01*
X218890000Y-70370897D01*
X217990000Y-70370897D01*
X217945304Y-70375299D01*
X217902326Y-70388336D01*
X217862717Y-70409508D01*
X217828000Y-70438000D01*
X217799508Y-70472717D01*
X217778336Y-70512326D01*
X217765299Y-70555304D01*
X217760897Y-70600000D01*
X217679103Y-70600000D01*
X217674701Y-70555304D01*
X217661664Y-70512326D01*
X217640492Y-70472717D01*
X217612000Y-70438000D01*
X217577283Y-70409508D01*
X217537674Y-70388336D01*
X217494696Y-70375299D01*
X217450000Y-70370897D01*
X216550000Y-70370897D01*
X216505304Y-70375299D01*
X216462326Y-70388336D01*
X216422717Y-70409508D01*
X216388000Y-70438000D01*
X216359508Y-70472717D01*
X216338336Y-70512326D01*
X216325299Y-70555304D01*
X216320897Y-70600000D01*
X216239103Y-70600000D01*
X216234701Y-70555304D01*
X216221664Y-70512326D01*
X216200492Y-70472717D01*
X216172000Y-70438000D01*
X216137283Y-70409508D01*
X216097674Y-70388336D01*
X216054696Y-70375299D01*
X216010000Y-70370897D01*
X215185600Y-70370897D01*
X215185600Y-69629103D01*
X216010000Y-69629103D01*
X216054696Y-69624701D01*
X216097674Y-69611664D01*
X216137283Y-69590492D01*
X216172000Y-69562000D01*
X216200492Y-69527283D01*
X216221664Y-69487674D01*
X216234701Y-69444696D01*
X216239103Y-69400000D01*
X216239103Y-67400000D01*
X216320897Y-67400000D01*
X216320897Y-69400000D01*
X216325299Y-69444696D01*
X216338336Y-69487674D01*
X216359508Y-69527283D01*
X216388000Y-69562000D01*
X216422717Y-69590492D01*
X216462326Y-69611664D01*
X216505304Y-69624701D01*
X216550000Y-69629103D01*
X217450000Y-69629103D01*
X217494696Y-69624701D01*
X217537674Y-69611664D01*
X217577283Y-69590492D01*
X217612000Y-69562000D01*
X217640492Y-69527283D01*
X217661664Y-69487674D01*
X217674701Y-69444696D01*
X217679103Y-69400000D01*
X217679103Y-67400000D01*
X217760897Y-67400000D01*
X217760897Y-69400000D01*
X217765299Y-69444696D01*
X217778336Y-69487674D01*
X217799508Y-69527283D01*
X217828000Y-69562000D01*
X217862717Y-69590492D01*
X217902326Y-69611664D01*
X217945304Y-69624701D01*
X217990000Y-69629103D01*
X218890000Y-69629103D01*
X218934696Y-69624701D01*
X218977674Y-69611664D01*
X219017283Y-69590492D01*
X219052000Y-69562000D01*
X219080492Y-69527283D01*
X219101664Y-69487674D01*
X219114701Y-69444696D01*
X219119103Y-69400000D01*
X219119103Y-67400000D01*
X219200897Y-67400000D01*
X219200897Y-69400000D01*
X219205299Y-69444696D01*
X219218336Y-69487674D01*
X219239508Y-69527283D01*
X219268000Y-69562000D01*
X219302717Y-69590492D01*
X219342326Y-69611664D01*
X219385304Y-69624701D01*
X219430000Y-69629103D01*
X220330000Y-69629103D01*
X220374696Y-69624701D01*
X220417674Y-69611664D01*
X220457283Y-69590492D01*
X220492000Y-69562000D01*
X220520492Y-69527283D01*
X220541664Y-69487674D01*
X220554701Y-69444696D01*
X220559103Y-69400000D01*
X220559103Y-67400000D01*
X220554701Y-67355304D01*
X220541664Y-67312326D01*
X220520492Y-67272717D01*
X220492000Y-67238000D01*
X220457283Y-67209508D01*
X220417674Y-67188336D01*
X220374696Y-67175299D01*
X220330000Y-67170897D01*
X219430000Y-67170897D01*
X219385304Y-67175299D01*
X219342326Y-67188336D01*
X219302717Y-67209508D01*
X219268000Y-67238000D01*
X219239508Y-67272717D01*
X219218336Y-67312326D01*
X219205299Y-67355304D01*
X219200897Y-67400000D01*
X219119103Y-67400000D01*
X219114701Y-67355304D01*
X219101664Y-67312326D01*
X219080492Y-67272717D01*
X219052000Y-67238000D01*
X219017283Y-67209508D01*
X218977674Y-67188336D01*
X218934696Y-67175299D01*
X218890000Y-67170897D01*
X217990000Y-67170897D01*
X217945304Y-67175299D01*
X217902326Y-67188336D01*
X217862717Y-67209508D01*
X217828000Y-67238000D01*
X217799508Y-67272717D01*
X217778336Y-67312326D01*
X217765299Y-67355304D01*
X217760897Y-67400000D01*
X217679103Y-67400000D01*
X217674701Y-67355304D01*
X217661664Y-67312326D01*
X217640492Y-67272717D01*
X217612000Y-67238000D01*
X217577283Y-67209508D01*
X217537674Y-67188336D01*
X217494696Y-67175299D01*
X217450000Y-67170897D01*
X216550000Y-67170897D01*
X216505304Y-67175299D01*
X216462326Y-67188336D01*
X216422717Y-67209508D01*
X216388000Y-67238000D01*
X216359508Y-67272717D01*
X216338336Y-67312326D01*
X216325299Y-67355304D01*
X216320897Y-67400000D01*
X216239103Y-67400000D01*
X216234701Y-67355304D01*
X216221664Y-67312326D01*
X216200492Y-67272717D01*
X216172000Y-67238000D01*
X216137283Y-67209508D01*
X216097674Y-67188336D01*
X216054696Y-67175299D01*
X216010000Y-67170897D01*
X215445923Y-67170897D01*
X215990487Y-66626334D01*
X215991321Y-66626500D01*
X216085479Y-66626500D01*
X216177828Y-66608131D01*
X216264818Y-66572098D01*
X216343107Y-66519787D01*
X216409687Y-66453207D01*
X216461998Y-66374918D01*
X216498031Y-66287928D01*
X216516400Y-66195579D01*
X216516400Y-66101421D01*
X216498031Y-66009072D01*
X216461998Y-65922082D01*
X216409687Y-65843793D01*
X216343107Y-65777213D01*
X216264818Y-65724902D01*
X216177828Y-65688869D01*
X216085479Y-65670500D01*
X215991321Y-65670500D01*
X215898972Y-65688869D01*
X215811982Y-65724902D01*
X215733693Y-65777213D01*
X215667113Y-65843793D01*
X215614802Y-65922082D01*
X215578769Y-66009072D01*
X215560400Y-66101421D01*
X215560400Y-66195579D01*
X215560566Y-66196413D01*
X214677194Y-67079786D01*
X214665601Y-67089300D01*
X214627612Y-67135590D01*
X214606803Y-67174522D01*
X214570000Y-67170897D01*
X213670000Y-67170897D01*
X213625304Y-67175299D01*
X213582326Y-67188336D01*
X213542717Y-67209508D01*
X213508000Y-67238000D01*
X213479508Y-67272717D01*
X213458336Y-67312326D01*
X213445299Y-67355304D01*
X213440897Y-67400000D01*
X213440897Y-69400000D01*
X213445299Y-69444696D01*
X213458336Y-69487674D01*
X213479508Y-69527283D01*
X213508000Y-69562000D01*
X213542717Y-69590492D01*
X213582326Y-69611664D01*
X213625304Y-69624701D01*
X213670000Y-69629103D01*
X213816000Y-69629103D01*
X213816000Y-69676480D01*
X213237199Y-70255281D01*
X213225600Y-70264800D01*
X213187611Y-70311091D01*
X213159383Y-70363903D01*
X213147273Y-70403823D01*
X213142000Y-70421206D01*
X213136130Y-70480800D01*
X213093200Y-70480800D01*
X213093200Y-58323120D01*
X213374485Y-58604406D01*
X213384000Y-58616000D01*
X213430290Y-58653989D01*
X213440897Y-58659658D01*
X213440897Y-59400000D01*
X213445299Y-59444696D01*
X213458336Y-59487674D01*
X213479508Y-59527283D01*
X213508000Y-59562000D01*
X213542717Y-59590492D01*
X213582326Y-59611664D01*
X213625304Y-59624701D01*
X213670000Y-59629103D01*
X214570000Y-59629103D01*
X214614696Y-59624701D01*
X214657674Y-59611664D01*
X214697283Y-59590492D01*
X214732000Y-59562000D01*
X214760492Y-59527283D01*
X214781664Y-59487674D01*
X214794701Y-59444696D01*
X214799103Y-59400000D01*
X214799103Y-57430338D01*
X214829618Y-57417698D01*
X214882643Y-57382268D01*
X214880897Y-57400000D01*
X214880897Y-59400000D01*
X214885299Y-59444696D01*
X214898336Y-59487674D01*
X214919508Y-59527283D01*
X214948000Y-59562000D01*
X214982717Y-59590492D01*
X215022326Y-59611664D01*
X215065304Y-59624701D01*
X215110000Y-59629103D01*
X216010000Y-59629103D01*
X216054696Y-59624701D01*
X216097674Y-59611664D01*
X216137283Y-59590492D01*
X216172000Y-59562000D01*
X216200492Y-59527283D01*
X216221664Y-59487674D01*
X216234701Y-59444696D01*
X216239103Y-59400000D01*
X216239103Y-57400000D01*
X216234701Y-57355304D01*
X216221664Y-57312326D01*
X216214060Y-57298100D01*
X216345940Y-57298100D01*
X216338336Y-57312326D01*
X216325299Y-57355304D01*
X216320897Y-57400000D01*
X216320897Y-59400000D01*
X216325299Y-59444696D01*
X216338336Y-59487674D01*
X216359508Y-59527283D01*
X216388000Y-59562000D01*
X216422717Y-59590492D01*
X216462326Y-59611664D01*
X216505304Y-59624701D01*
X216550000Y-59629103D01*
X217450000Y-59629103D01*
X217494696Y-59624701D01*
X217537674Y-59611664D01*
X217577283Y-59590492D01*
X217612000Y-59562000D01*
X217640492Y-59527283D01*
X217661664Y-59487674D01*
X217674701Y-59444696D01*
X217679103Y-59400000D01*
X217679103Y-57400000D01*
X217674701Y-57355304D01*
X217661664Y-57312326D01*
X217654060Y-57298100D01*
X217785940Y-57298100D01*
X217778336Y-57312326D01*
X217765299Y-57355304D01*
X217760897Y-57400000D01*
X217760897Y-59400000D01*
X217765299Y-59444696D01*
X217778336Y-59487674D01*
X217799508Y-59527283D01*
X217828000Y-59562000D01*
X217862717Y-59590492D01*
X217902326Y-59611664D01*
X217945304Y-59624701D01*
X217990000Y-59629103D01*
X218890000Y-59629103D01*
X218934696Y-59624701D01*
X218977674Y-59611664D01*
X219017283Y-59590492D01*
X219052000Y-59562000D01*
X219080492Y-59527283D01*
X219101664Y-59487674D01*
X219114701Y-59444696D01*
X219119103Y-59400000D01*
X219119103Y-57400000D01*
X219114701Y-57355304D01*
X219101664Y-57312326D01*
X219094060Y-57298100D01*
X219225940Y-57298100D01*
X219218336Y-57312326D01*
X219205299Y-57355304D01*
X219200897Y-57400000D01*
X219200897Y-59400000D01*
X219205299Y-59444696D01*
X219218336Y-59487674D01*
X219239508Y-59527283D01*
X219268000Y-59562000D01*
X219302717Y-59590492D01*
X219342326Y-59611664D01*
X219385304Y-59624701D01*
X219430000Y-59629103D01*
X220330000Y-59629103D01*
X220374696Y-59624701D01*
X220417674Y-59611664D01*
X220457283Y-59590492D01*
X220492000Y-59562000D01*
X220520492Y-59527283D01*
X220541664Y-59487674D01*
X220554701Y-59444696D01*
X220559103Y-59400000D01*
X220559103Y-58150817D01*
X221352087Y-57357834D01*
X221352921Y-57358000D01*
X221447079Y-57358000D01*
X221539428Y-57339631D01*
X221626418Y-57303598D01*
X221704707Y-57251287D01*
X221771287Y-57184707D01*
X221823598Y-57106418D01*
X221859631Y-57019428D01*
X221878000Y-56927079D01*
X221878000Y-56832921D01*
X221859631Y-56740572D01*
X221823598Y-56653582D01*
X221771287Y-56575293D01*
X221704707Y-56508713D01*
X221626418Y-56456402D01*
X221539428Y-56420369D01*
X221447079Y-56402000D01*
X221352921Y-56402000D01*
X221260572Y-56420369D01*
X221173582Y-56456402D01*
X221095293Y-56508713D01*
X221028713Y-56575293D01*
X220976402Y-56653582D01*
X220940369Y-56740572D01*
X220922000Y-56832921D01*
X220922000Y-56927079D01*
X220922166Y-56927913D01*
X220540302Y-57309778D01*
X220520492Y-57272717D01*
X220492000Y-57238000D01*
X220457283Y-57209508D01*
X220417674Y-57188336D01*
X220374696Y-57175299D01*
X220330000Y-57170897D01*
X220112123Y-57170897D01*
X223204408Y-54078613D01*
X223216000Y-54069100D01*
X223253989Y-54022810D01*
X223279384Y-53975299D01*
X223282217Y-53969999D01*
X223299600Y-53912695D01*
X223305470Y-53853100D01*
X223304000Y-53838176D01*
X223304000Y-49629103D01*
X223650000Y-49629103D01*
X223674000Y-49626739D01*
X223674000Y-79626605D01*
G37*
%TD.AperFunction*%
D17*
X222120897Y-48500817D02*
X222120897Y-49400000D01*
X222125299Y-49444696D01*
X222138336Y-49487674D01*
X222159508Y-49527283D01*
X222188000Y-49562000D01*
X222222717Y-49590492D01*
X222262326Y-49611664D01*
X222305304Y-49624701D01*
X222350000Y-49629103D01*
X222696001Y-49629103D01*
X222696000Y-53727179D01*
X220559103Y-55864077D01*
X220559103Y-54950817D01*
X220762801Y-54747119D01*
X220774400Y-54737600D01*
X220812389Y-54691310D01*
X220840617Y-54638498D01*
X220858000Y-54581194D01*
X220862400Y-54536524D01*
X220862400Y-54536517D01*
X220863869Y-54521601D01*
X220862400Y-54506685D01*
X220862400Y-47242320D01*
X222120897Y-48500817D01*
%TA.AperFunction,Conductor*%
D18*
G36*
X222120897Y-48500817D02*
G01*
X222120897Y-49400000D01*
X222125299Y-49444696D01*
X222138336Y-49487674D01*
X222159508Y-49527283D01*
X222188000Y-49562000D01*
X222222717Y-49590492D01*
X222262326Y-49611664D01*
X222305304Y-49624701D01*
X222350000Y-49629103D01*
X222696001Y-49629103D01*
X222696000Y-53727179D01*
X220559103Y-55864077D01*
X220559103Y-54950817D01*
X220762801Y-54747119D01*
X220774400Y-54737600D01*
X220812389Y-54691310D01*
X220840617Y-54638498D01*
X220858000Y-54581194D01*
X220862400Y-54536524D01*
X220862400Y-54536517D01*
X220863869Y-54521601D01*
X220862400Y-54506685D01*
X220862400Y-47242320D01*
X222120897Y-48500817D01*
G37*
%TD.AperFunction*%
%TD*%
M02*
