G04 #@! TF.GenerationSoftware,KiCad,Pcbnew,(5.1.5)-3*
G04 #@! TF.CreationDate,2020-05-31T16:01:39+08:00*
G04 #@! TF.ProjectId,HEMAC_Backplane,48454d41-435f-4426-9163-6b706c616e65,rev?*
G04 #@! TF.SameCoordinates,Original*
G04 #@! TF.FileFunction,Legend,Top*
G04 #@! TF.FilePolarity,Positive*
%FSLAX46Y46*%
G04 Gerber Fmt 4.6, Leading zero omitted, Abs format (unit mm)*
G04 Created by KiCad (PCBNEW (5.1.5)-3) date 2020-05-31 16:01:39*
%MOMM*%
%LPD*%
G04 APERTURE LIST*
%ADD10C,0.500000*%
%ADD11C,0.200000*%
%ADD12C,0.300000*%
%ADD13C,0.010000*%
%ADD14C,0.120000*%
%ADD15C,0.150000*%
G04 APERTURE END LIST*
D10*
X113292190Y-73719523D02*
X113054095Y-74433809D01*
X113054095Y-75624285D01*
X113292190Y-76100476D01*
X113530285Y-76338571D01*
X114006476Y-76576666D01*
X114482666Y-76576666D01*
X114958857Y-76338571D01*
X115196952Y-76100476D01*
X115435047Y-75624285D01*
X115673142Y-74671904D01*
X115911238Y-74195714D01*
X116149333Y-73957619D01*
X116625523Y-73719523D01*
X117101714Y-73719523D01*
X117577904Y-73957619D01*
X117816000Y-74195714D01*
X118054095Y-74671904D01*
X118054095Y-75862380D01*
X117816000Y-76576666D01*
X113054095Y-81100476D02*
X113054095Y-78719523D01*
X118054095Y-78719523D01*
X118054095Y-83719523D02*
X118054095Y-84671904D01*
X117816000Y-85148095D01*
X117339809Y-85624285D01*
X116387428Y-85862380D01*
X114720761Y-85862380D01*
X113768380Y-85624285D01*
X113292190Y-85148095D01*
X113054095Y-84671904D01*
X113054095Y-83719523D01*
X113292190Y-83243333D01*
X113768380Y-82767142D01*
X114720761Y-82529047D01*
X116387428Y-82529047D01*
X117339809Y-82767142D01*
X117816000Y-83243333D01*
X118054095Y-83719523D01*
X118054095Y-87290952D02*
X118054095Y-90148095D01*
X113054095Y-88719523D02*
X118054095Y-88719523D01*
X114958857Y-91814761D02*
X114958857Y-95624285D01*
X117577904Y-97767142D02*
X117816000Y-98005238D01*
X118054095Y-98481428D01*
X118054095Y-99671904D01*
X117816000Y-100148095D01*
X117577904Y-100386190D01*
X117101714Y-100624285D01*
X116625523Y-100624285D01*
X115911238Y-100386190D01*
X113054095Y-97529047D01*
X113054095Y-100624285D01*
X114958857Y-102767142D02*
X114958857Y-106576666D01*
X113530285Y-111814761D02*
X113292190Y-111576666D01*
X113054095Y-110862380D01*
X113054095Y-110386190D01*
X113292190Y-109671904D01*
X113768380Y-109195714D01*
X114244571Y-108957619D01*
X115196952Y-108719523D01*
X115911238Y-108719523D01*
X116863619Y-108957619D01*
X117339809Y-109195714D01*
X117816000Y-109671904D01*
X118054095Y-110386190D01*
X118054095Y-110862380D01*
X117816000Y-111576666D01*
X117577904Y-111814761D01*
X114482666Y-113719523D02*
X114482666Y-116100476D01*
X113054095Y-113243333D02*
X118054095Y-114910000D01*
X113054095Y-116576666D01*
X113054095Y-121100476D02*
X115435047Y-119433809D01*
X113054095Y-118243333D02*
X118054095Y-118243333D01*
X118054095Y-120148095D01*
X117816000Y-120624285D01*
X117577904Y-120862380D01*
X117101714Y-121100476D01*
X116387428Y-121100476D01*
X115911238Y-120862380D01*
X115673142Y-120624285D01*
X115435047Y-120148095D01*
X115435047Y-118243333D01*
X113054095Y-123243333D02*
X118054095Y-123243333D01*
X118054095Y-124433809D01*
X117816000Y-125148095D01*
X117339809Y-125624285D01*
X116863619Y-125862380D01*
X115911238Y-126100476D01*
X115196952Y-126100476D01*
X114244571Y-125862380D01*
X113768380Y-125624285D01*
X113292190Y-125148095D01*
X113054095Y-124433809D01*
X113054095Y-123243333D01*
D11*
X246126000Y-123952000D02*
X249174000Y-123952000D01*
X246126000Y-75692000D02*
X246126000Y-123952000D01*
X249174000Y-75692000D02*
X246126000Y-75692000D01*
X249174000Y-123952000D02*
X249174000Y-75692000D01*
D12*
X234902857Y-67270285D02*
X237188571Y-67270285D01*
X236045714Y-68413142D02*
X236045714Y-66127428D01*
X240045714Y-65413142D02*
X238617142Y-65413142D01*
X238474285Y-66841714D01*
X238617142Y-66698857D01*
X238902857Y-66556000D01*
X239617142Y-66556000D01*
X239902857Y-66698857D01*
X240045714Y-66841714D01*
X240188571Y-67127428D01*
X240188571Y-67841714D01*
X240045714Y-68127428D01*
X239902857Y-68270285D01*
X239617142Y-68413142D01*
X238902857Y-68413142D01*
X238617142Y-68270285D01*
X238474285Y-68127428D01*
X241045714Y-65413142D02*
X242045714Y-68413142D01*
X243045714Y-65413142D01*
X232760000Y-61174285D02*
X235045714Y-61174285D01*
X233902857Y-62317142D02*
X233902857Y-60031428D01*
X236188571Y-59317142D02*
X238045714Y-59317142D01*
X237045714Y-60460000D01*
X237474285Y-60460000D01*
X237760000Y-60602857D01*
X237902857Y-60745714D01*
X238045714Y-61031428D01*
X238045714Y-61745714D01*
X237902857Y-62031428D01*
X237760000Y-62174285D01*
X237474285Y-62317142D01*
X236617142Y-62317142D01*
X236331428Y-62174285D01*
X236188571Y-62031428D01*
X239331428Y-62031428D02*
X239474285Y-62174285D01*
X239331428Y-62317142D01*
X239188571Y-62174285D01*
X239331428Y-62031428D01*
X239331428Y-62317142D01*
X240474285Y-59317142D02*
X242331428Y-59317142D01*
X241331428Y-60460000D01*
X241760000Y-60460000D01*
X242045714Y-60602857D01*
X242188571Y-60745714D01*
X242331428Y-61031428D01*
X242331428Y-61745714D01*
X242188571Y-62031428D01*
X242045714Y-62174285D01*
X241760000Y-62317142D01*
X240902857Y-62317142D01*
X240617142Y-62174285D01*
X240474285Y-62031428D01*
X243188571Y-59317142D02*
X244188571Y-62317142D01*
X245188571Y-59317142D01*
X233331428Y-126198285D02*
X235617142Y-126198285D01*
X234474285Y-127341142D02*
X234474285Y-125055428D01*
X236617142Y-124341142D02*
X237617142Y-127341142D01*
X238617142Y-124341142D01*
X239617142Y-127341142D02*
X239617142Y-124341142D01*
X240331428Y-124341142D01*
X240760000Y-124484000D01*
X241045714Y-124769714D01*
X241188571Y-125055428D01*
X241331428Y-125626857D01*
X241331428Y-126055428D01*
X241188571Y-126626857D01*
X241045714Y-126912571D01*
X240760000Y-127198285D01*
X240331428Y-127341142D01*
X239617142Y-127341142D01*
X244331428Y-127055428D02*
X244188571Y-127198285D01*
X243760000Y-127341142D01*
X243474285Y-127341142D01*
X243045714Y-127198285D01*
X242760000Y-126912571D01*
X242617142Y-126626857D01*
X242474285Y-126055428D01*
X242474285Y-125626857D01*
X242617142Y-125055428D01*
X242760000Y-124769714D01*
X243045714Y-124484000D01*
X243474285Y-124341142D01*
X243760000Y-124341142D01*
X244188571Y-124484000D01*
X244331428Y-124626857D01*
X233474285Y-118578285D02*
X235760000Y-118578285D01*
X234617142Y-119721142D02*
X234617142Y-117435428D01*
X237045714Y-117006857D02*
X237188571Y-116864000D01*
X237474285Y-116721142D01*
X238188571Y-116721142D01*
X238474285Y-116864000D01*
X238617142Y-117006857D01*
X238760000Y-117292571D01*
X238760000Y-117578285D01*
X238617142Y-118006857D01*
X236902857Y-119721142D01*
X238760000Y-119721142D01*
X241331428Y-117721142D02*
X241331428Y-119721142D01*
X240617142Y-116578285D02*
X239902857Y-118721142D01*
X241760000Y-118721142D01*
X242474285Y-116721142D02*
X243474285Y-119721142D01*
X244474285Y-116721142D01*
X237998285Y-137184000D02*
X237712571Y-137041142D01*
X237284000Y-137041142D01*
X236855428Y-137184000D01*
X236569714Y-137469714D01*
X236426857Y-137755428D01*
X236284000Y-138326857D01*
X236284000Y-138755428D01*
X236426857Y-139326857D01*
X236569714Y-139612571D01*
X236855428Y-139898285D01*
X237284000Y-140041142D01*
X237569714Y-140041142D01*
X237998285Y-139898285D01*
X238141142Y-139755428D01*
X238141142Y-138755428D01*
X237569714Y-138755428D01*
X239426857Y-140041142D02*
X239426857Y-137041142D01*
X241141142Y-140041142D01*
X241141142Y-137041142D01*
X242569714Y-140041142D02*
X242569714Y-137041142D01*
X243284000Y-137041142D01*
X243712571Y-137184000D01*
X243998285Y-137469714D01*
X244141142Y-137755428D01*
X244284000Y-138326857D01*
X244284000Y-138755428D01*
X244141142Y-139326857D01*
X243998285Y-139612571D01*
X243712571Y-139898285D01*
X243284000Y-140041142D01*
X242569714Y-140041142D01*
X73890000Y-136144285D02*
X74032857Y-135858571D01*
X74032857Y-135430000D01*
X73890000Y-135001428D01*
X73604285Y-134715714D01*
X73318571Y-134572857D01*
X72747142Y-134430000D01*
X72318571Y-134430000D01*
X71747142Y-134572857D01*
X71461428Y-134715714D01*
X71175714Y-135001428D01*
X71032857Y-135430000D01*
X71032857Y-135715714D01*
X71175714Y-136144285D01*
X71318571Y-136287142D01*
X72318571Y-136287142D01*
X72318571Y-135715714D01*
X71032857Y-137572857D02*
X74032857Y-137572857D01*
X71032857Y-139287142D01*
X74032857Y-139287142D01*
X71032857Y-140715714D02*
X74032857Y-140715714D01*
X74032857Y-141430000D01*
X73890000Y-141858571D01*
X73604285Y-142144285D01*
X73318571Y-142287142D01*
X72747142Y-142430000D01*
X72318571Y-142430000D01*
X71747142Y-142287142D01*
X71461428Y-142144285D01*
X71175714Y-141858571D01*
X71032857Y-141430000D01*
X71032857Y-140715714D01*
D11*
X247792857Y-77290952D02*
X247697619Y-77576666D01*
X247602380Y-77671904D01*
X247411904Y-77767142D01*
X247126190Y-77767142D01*
X246935714Y-77671904D01*
X246840476Y-77576666D01*
X246745238Y-77386190D01*
X246745238Y-76624285D01*
X248745238Y-76624285D01*
X248745238Y-77290952D01*
X248650000Y-77481428D01*
X248554761Y-77576666D01*
X248364285Y-77671904D01*
X248173809Y-77671904D01*
X247983333Y-77576666D01*
X247888095Y-77481428D01*
X247792857Y-77290952D01*
X247792857Y-76624285D01*
X247316666Y-78529047D02*
X247316666Y-79481428D01*
X246745238Y-78338571D02*
X248745238Y-79005238D01*
X246745238Y-79671904D01*
X246935714Y-81481428D02*
X246840476Y-81386190D01*
X246745238Y-81100476D01*
X246745238Y-80910000D01*
X246840476Y-80624285D01*
X247030952Y-80433809D01*
X247221428Y-80338571D01*
X247602380Y-80243333D01*
X247888095Y-80243333D01*
X248269047Y-80338571D01*
X248459523Y-80433809D01*
X248650000Y-80624285D01*
X248745238Y-80910000D01*
X248745238Y-81100476D01*
X248650000Y-81386190D01*
X248554761Y-81481428D01*
X246745238Y-82338571D02*
X248745238Y-82338571D01*
X246745238Y-83481428D02*
X247888095Y-82624285D01*
X248745238Y-83481428D02*
X247602380Y-82338571D01*
X246745238Y-84338571D02*
X248745238Y-84338571D01*
X248745238Y-85100476D01*
X248650000Y-85290952D01*
X248554761Y-85386190D01*
X248364285Y-85481428D01*
X248078571Y-85481428D01*
X247888095Y-85386190D01*
X247792857Y-85290952D01*
X247697619Y-85100476D01*
X247697619Y-84338571D01*
X246745238Y-87290952D02*
X246745238Y-86338571D01*
X248745238Y-86338571D01*
X247316666Y-87862380D02*
X247316666Y-88814761D01*
X246745238Y-87671904D02*
X248745238Y-88338571D01*
X246745238Y-89005238D01*
X246745238Y-89671904D02*
X248745238Y-89671904D01*
X246745238Y-90814761D01*
X248745238Y-90814761D01*
X247792857Y-91767142D02*
X247792857Y-92433809D01*
X246745238Y-92719523D02*
X246745238Y-91767142D01*
X248745238Y-91767142D01*
X248745238Y-92719523D01*
X248745238Y-94910000D02*
X248745238Y-96148095D01*
X247983333Y-95481428D01*
X247983333Y-95767142D01*
X247888095Y-95957619D01*
X247792857Y-96052857D01*
X247602380Y-96148095D01*
X247126190Y-96148095D01*
X246935714Y-96052857D01*
X246840476Y-95957619D01*
X246745238Y-95767142D01*
X246745238Y-95195714D01*
X246840476Y-95005238D01*
X246935714Y-94910000D01*
X248745238Y-97005238D02*
X247126190Y-97005238D01*
X246935714Y-97100476D01*
X246840476Y-97195714D01*
X246745238Y-97386190D01*
X246745238Y-97767142D01*
X246840476Y-97957619D01*
X246935714Y-98052857D01*
X247126190Y-98148095D01*
X248745238Y-98148095D01*
X246840476Y-99195714D02*
X246745238Y-99195714D01*
X246554761Y-99100476D01*
X246459523Y-99005238D01*
X248078571Y-102433809D02*
X246745238Y-102433809D01*
X248840476Y-101957619D02*
X247411904Y-101481428D01*
X247411904Y-102719523D01*
X248554761Y-103386190D02*
X248650000Y-103481428D01*
X248745238Y-103671904D01*
X248745238Y-104148095D01*
X248650000Y-104338571D01*
X248554761Y-104433809D01*
X248364285Y-104529047D01*
X248173809Y-104529047D01*
X247888095Y-104433809D01*
X246745238Y-103290952D01*
X246745238Y-104529047D01*
X246745238Y-105386190D02*
X248745238Y-105386190D01*
X247792857Y-105386190D02*
X247792857Y-106529047D01*
X246745238Y-106529047D02*
X248745238Y-106529047D01*
X246745238Y-107481428D02*
X248745238Y-107481428D01*
X248745238Y-108243333D01*
X248650000Y-108433809D01*
X248554761Y-108529047D01*
X248364285Y-108624285D01*
X248078571Y-108624285D01*
X247888095Y-108529047D01*
X247792857Y-108433809D01*
X247697619Y-108243333D01*
X247697619Y-107481428D01*
X246840476Y-109576666D02*
X246745238Y-109576666D01*
X246554761Y-109481428D01*
X246459523Y-109386190D01*
X246745238Y-113100476D02*
X247697619Y-112433809D01*
X246745238Y-111957619D02*
X248745238Y-111957619D01*
X248745238Y-112719523D01*
X248650000Y-112910000D01*
X248554761Y-113005238D01*
X248364285Y-113100476D01*
X248078571Y-113100476D01*
X247888095Y-113005238D01*
X247792857Y-112910000D01*
X247697619Y-112719523D01*
X247697619Y-111957619D01*
X247792857Y-113957619D02*
X247792857Y-114624285D01*
X246745238Y-114910000D02*
X246745238Y-113957619D01*
X248745238Y-113957619D01*
X248745238Y-114910000D01*
X248745238Y-115481428D02*
X246745238Y-116148095D01*
X248745238Y-116814761D01*
X246935714Y-117481428D02*
X246840476Y-117576666D01*
X246745238Y-117481428D01*
X246840476Y-117386190D01*
X246935714Y-117481428D01*
X246745238Y-117481428D01*
X246935714Y-118433809D02*
X246840476Y-118529047D01*
X246745238Y-118433809D01*
X246840476Y-118338571D01*
X246935714Y-118433809D01*
X246745238Y-118433809D01*
X247983333Y-118433809D02*
X247888095Y-118529047D01*
X247792857Y-118433809D01*
X247888095Y-118338571D01*
X247983333Y-118433809D01*
X247792857Y-118433809D01*
X248745238Y-119767142D02*
X248745238Y-119957619D01*
X248650000Y-120148095D01*
X248554761Y-120243333D01*
X248364285Y-120338571D01*
X247983333Y-120433809D01*
X247507142Y-120433809D01*
X247126190Y-120338571D01*
X246935714Y-120243333D01*
X246840476Y-120148095D01*
X246745238Y-119957619D01*
X246745238Y-119767142D01*
X246840476Y-119576666D01*
X246935714Y-119481428D01*
X247126190Y-119386190D01*
X247507142Y-119290952D01*
X247983333Y-119290952D01*
X248364285Y-119386190D01*
X248554761Y-119481428D01*
X248650000Y-119576666D01*
X248745238Y-119767142D01*
X246935714Y-121290952D02*
X246840476Y-121386190D01*
X246745238Y-121290952D01*
X246840476Y-121195714D01*
X246935714Y-121290952D01*
X246745238Y-121290952D01*
X246745238Y-123290952D02*
X246745238Y-122148095D01*
X246745238Y-122719523D02*
X248745238Y-122719523D01*
X248459523Y-122529047D01*
X248269047Y-122338571D01*
X248173809Y-122148095D01*
D10*
X194572190Y-73719523D02*
X194334095Y-74433809D01*
X194334095Y-75624285D01*
X194572190Y-76100476D01*
X194810285Y-76338571D01*
X195286476Y-76576666D01*
X195762666Y-76576666D01*
X196238857Y-76338571D01*
X196476952Y-76100476D01*
X196715047Y-75624285D01*
X196953142Y-74671904D01*
X197191238Y-74195714D01*
X197429333Y-73957619D01*
X197905523Y-73719523D01*
X198381714Y-73719523D01*
X198857904Y-73957619D01*
X199096000Y-74195714D01*
X199334095Y-74671904D01*
X199334095Y-75862380D01*
X199096000Y-76576666D01*
X194334095Y-81100476D02*
X194334095Y-78719523D01*
X199334095Y-78719523D01*
X199334095Y-83719523D02*
X199334095Y-84671904D01*
X199096000Y-85148095D01*
X198619809Y-85624285D01*
X197667428Y-85862380D01*
X196000761Y-85862380D01*
X195048380Y-85624285D01*
X194572190Y-85148095D01*
X194334095Y-84671904D01*
X194334095Y-83719523D01*
X194572190Y-83243333D01*
X195048380Y-82767142D01*
X196000761Y-82529047D01*
X197667428Y-82529047D01*
X198619809Y-82767142D01*
X199096000Y-83243333D01*
X199334095Y-83719523D01*
X199334095Y-87290952D02*
X199334095Y-90148095D01*
X194334095Y-88719523D02*
X199334095Y-88719523D01*
X196238857Y-91814761D02*
X196238857Y-95624285D01*
X199334095Y-100148095D02*
X199334095Y-99195714D01*
X199096000Y-98719523D01*
X198857904Y-98481428D01*
X198143619Y-98005238D01*
X197191238Y-97767142D01*
X195286476Y-97767142D01*
X194810285Y-98005238D01*
X194572190Y-98243333D01*
X194334095Y-98719523D01*
X194334095Y-99671904D01*
X194572190Y-100148095D01*
X194810285Y-100386190D01*
X195286476Y-100624285D01*
X196476952Y-100624285D01*
X196953142Y-100386190D01*
X197191238Y-100148095D01*
X197429333Y-99671904D01*
X197429333Y-98719523D01*
X197191238Y-98243333D01*
X196953142Y-98005238D01*
X196476952Y-97767142D01*
X196238857Y-102767142D02*
X196238857Y-106576666D01*
X194810285Y-111814761D02*
X194572190Y-111576666D01*
X194334095Y-110862380D01*
X194334095Y-110386190D01*
X194572190Y-109671904D01*
X195048380Y-109195714D01*
X195524571Y-108957619D01*
X196476952Y-108719523D01*
X197191238Y-108719523D01*
X198143619Y-108957619D01*
X198619809Y-109195714D01*
X199096000Y-109671904D01*
X199334095Y-110386190D01*
X199334095Y-110862380D01*
X199096000Y-111576666D01*
X198857904Y-111814761D01*
X195762666Y-113719523D02*
X195762666Y-116100476D01*
X194334095Y-113243333D02*
X199334095Y-114910000D01*
X194334095Y-116576666D01*
X194334095Y-121100476D02*
X196715047Y-119433809D01*
X194334095Y-118243333D02*
X199334095Y-118243333D01*
X199334095Y-120148095D01*
X199096000Y-120624285D01*
X198857904Y-120862380D01*
X198381714Y-121100476D01*
X197667428Y-121100476D01*
X197191238Y-120862380D01*
X196953142Y-120624285D01*
X196715047Y-120148095D01*
X196715047Y-118243333D01*
X194334095Y-123243333D02*
X199334095Y-123243333D01*
X199334095Y-124433809D01*
X199096000Y-125148095D01*
X198619809Y-125624285D01*
X198143619Y-125862380D01*
X197191238Y-126100476D01*
X196476952Y-126100476D01*
X195524571Y-125862380D01*
X195048380Y-125624285D01*
X194572190Y-125148095D01*
X194334095Y-124433809D01*
X194334095Y-123243333D01*
X174252190Y-73719523D02*
X174014095Y-74433809D01*
X174014095Y-75624285D01*
X174252190Y-76100476D01*
X174490285Y-76338571D01*
X174966476Y-76576666D01*
X175442666Y-76576666D01*
X175918857Y-76338571D01*
X176156952Y-76100476D01*
X176395047Y-75624285D01*
X176633142Y-74671904D01*
X176871238Y-74195714D01*
X177109333Y-73957619D01*
X177585523Y-73719523D01*
X178061714Y-73719523D01*
X178537904Y-73957619D01*
X178776000Y-74195714D01*
X179014095Y-74671904D01*
X179014095Y-75862380D01*
X178776000Y-76576666D01*
X174014095Y-81100476D02*
X174014095Y-78719523D01*
X179014095Y-78719523D01*
X179014095Y-83719523D02*
X179014095Y-84671904D01*
X178776000Y-85148095D01*
X178299809Y-85624285D01*
X177347428Y-85862380D01*
X175680761Y-85862380D01*
X174728380Y-85624285D01*
X174252190Y-85148095D01*
X174014095Y-84671904D01*
X174014095Y-83719523D01*
X174252190Y-83243333D01*
X174728380Y-82767142D01*
X175680761Y-82529047D01*
X177347428Y-82529047D01*
X178299809Y-82767142D01*
X178776000Y-83243333D01*
X179014095Y-83719523D01*
X179014095Y-87290952D02*
X179014095Y-90148095D01*
X174014095Y-88719523D02*
X179014095Y-88719523D01*
X175918857Y-91814761D02*
X175918857Y-95624285D01*
X179014095Y-100386190D02*
X179014095Y-98005238D01*
X176633142Y-97767142D01*
X176871238Y-98005238D01*
X177109333Y-98481428D01*
X177109333Y-99671904D01*
X176871238Y-100148095D01*
X176633142Y-100386190D01*
X176156952Y-100624285D01*
X174966476Y-100624285D01*
X174490285Y-100386190D01*
X174252190Y-100148095D01*
X174014095Y-99671904D01*
X174014095Y-98481428D01*
X174252190Y-98005238D01*
X174490285Y-97767142D01*
X175918857Y-102767142D02*
X175918857Y-106576666D01*
X174490285Y-111814761D02*
X174252190Y-111576666D01*
X174014095Y-110862380D01*
X174014095Y-110386190D01*
X174252190Y-109671904D01*
X174728380Y-109195714D01*
X175204571Y-108957619D01*
X176156952Y-108719523D01*
X176871238Y-108719523D01*
X177823619Y-108957619D01*
X178299809Y-109195714D01*
X178776000Y-109671904D01*
X179014095Y-110386190D01*
X179014095Y-110862380D01*
X178776000Y-111576666D01*
X178537904Y-111814761D01*
X175442666Y-113719523D02*
X175442666Y-116100476D01*
X174014095Y-113243333D02*
X179014095Y-114910000D01*
X174014095Y-116576666D01*
X174014095Y-121100476D02*
X176395047Y-119433809D01*
X174014095Y-118243333D02*
X179014095Y-118243333D01*
X179014095Y-120148095D01*
X178776000Y-120624285D01*
X178537904Y-120862380D01*
X178061714Y-121100476D01*
X177347428Y-121100476D01*
X176871238Y-120862380D01*
X176633142Y-120624285D01*
X176395047Y-120148095D01*
X176395047Y-118243333D01*
X174014095Y-123243333D02*
X179014095Y-123243333D01*
X179014095Y-124433809D01*
X178776000Y-125148095D01*
X178299809Y-125624285D01*
X177823619Y-125862380D01*
X176871238Y-126100476D01*
X176156952Y-126100476D01*
X175204571Y-125862380D01*
X174728380Y-125624285D01*
X174252190Y-125148095D01*
X174014095Y-124433809D01*
X174014095Y-123243333D01*
X153932190Y-73719523D02*
X153694095Y-74433809D01*
X153694095Y-75624285D01*
X153932190Y-76100476D01*
X154170285Y-76338571D01*
X154646476Y-76576666D01*
X155122666Y-76576666D01*
X155598857Y-76338571D01*
X155836952Y-76100476D01*
X156075047Y-75624285D01*
X156313142Y-74671904D01*
X156551238Y-74195714D01*
X156789333Y-73957619D01*
X157265523Y-73719523D01*
X157741714Y-73719523D01*
X158217904Y-73957619D01*
X158456000Y-74195714D01*
X158694095Y-74671904D01*
X158694095Y-75862380D01*
X158456000Y-76576666D01*
X153694095Y-81100476D02*
X153694095Y-78719523D01*
X158694095Y-78719523D01*
X158694095Y-83719523D02*
X158694095Y-84671904D01*
X158456000Y-85148095D01*
X157979809Y-85624285D01*
X157027428Y-85862380D01*
X155360761Y-85862380D01*
X154408380Y-85624285D01*
X153932190Y-85148095D01*
X153694095Y-84671904D01*
X153694095Y-83719523D01*
X153932190Y-83243333D01*
X154408380Y-82767142D01*
X155360761Y-82529047D01*
X157027428Y-82529047D01*
X157979809Y-82767142D01*
X158456000Y-83243333D01*
X158694095Y-83719523D01*
X158694095Y-87290952D02*
X158694095Y-90148095D01*
X153694095Y-88719523D02*
X158694095Y-88719523D01*
X155598857Y-91814761D02*
X155598857Y-95624285D01*
X157027428Y-100148095D02*
X153694095Y-100148095D01*
X158932190Y-98957619D02*
X155360761Y-97767142D01*
X155360761Y-100862380D01*
X155598857Y-102767142D02*
X155598857Y-106576666D01*
X154170285Y-111814761D02*
X153932190Y-111576666D01*
X153694095Y-110862380D01*
X153694095Y-110386190D01*
X153932190Y-109671904D01*
X154408380Y-109195714D01*
X154884571Y-108957619D01*
X155836952Y-108719523D01*
X156551238Y-108719523D01*
X157503619Y-108957619D01*
X157979809Y-109195714D01*
X158456000Y-109671904D01*
X158694095Y-110386190D01*
X158694095Y-110862380D01*
X158456000Y-111576666D01*
X158217904Y-111814761D01*
X155122666Y-113719523D02*
X155122666Y-116100476D01*
X153694095Y-113243333D02*
X158694095Y-114910000D01*
X153694095Y-116576666D01*
X153694095Y-121100476D02*
X156075047Y-119433809D01*
X153694095Y-118243333D02*
X158694095Y-118243333D01*
X158694095Y-120148095D01*
X158456000Y-120624285D01*
X158217904Y-120862380D01*
X157741714Y-121100476D01*
X157027428Y-121100476D01*
X156551238Y-120862380D01*
X156313142Y-120624285D01*
X156075047Y-120148095D01*
X156075047Y-118243333D01*
X153694095Y-123243333D02*
X158694095Y-123243333D01*
X158694095Y-124433809D01*
X158456000Y-125148095D01*
X157979809Y-125624285D01*
X157503619Y-125862380D01*
X156551238Y-126100476D01*
X155836952Y-126100476D01*
X154884571Y-125862380D01*
X154408380Y-125624285D01*
X153932190Y-125148095D01*
X153694095Y-124433809D01*
X153694095Y-123243333D01*
X133612190Y-73719523D02*
X133374095Y-74433809D01*
X133374095Y-75624285D01*
X133612190Y-76100476D01*
X133850285Y-76338571D01*
X134326476Y-76576666D01*
X134802666Y-76576666D01*
X135278857Y-76338571D01*
X135516952Y-76100476D01*
X135755047Y-75624285D01*
X135993142Y-74671904D01*
X136231238Y-74195714D01*
X136469333Y-73957619D01*
X136945523Y-73719523D01*
X137421714Y-73719523D01*
X137897904Y-73957619D01*
X138136000Y-74195714D01*
X138374095Y-74671904D01*
X138374095Y-75862380D01*
X138136000Y-76576666D01*
X133374095Y-81100476D02*
X133374095Y-78719523D01*
X138374095Y-78719523D01*
X138374095Y-83719523D02*
X138374095Y-84671904D01*
X138136000Y-85148095D01*
X137659809Y-85624285D01*
X136707428Y-85862380D01*
X135040761Y-85862380D01*
X134088380Y-85624285D01*
X133612190Y-85148095D01*
X133374095Y-84671904D01*
X133374095Y-83719523D01*
X133612190Y-83243333D01*
X134088380Y-82767142D01*
X135040761Y-82529047D01*
X136707428Y-82529047D01*
X137659809Y-82767142D01*
X138136000Y-83243333D01*
X138374095Y-83719523D01*
X138374095Y-87290952D02*
X138374095Y-90148095D01*
X133374095Y-88719523D02*
X138374095Y-88719523D01*
X135278857Y-91814761D02*
X135278857Y-95624285D01*
X138374095Y-97529047D02*
X138374095Y-100624285D01*
X136469333Y-98957619D01*
X136469333Y-99671904D01*
X136231238Y-100148095D01*
X135993142Y-100386190D01*
X135516952Y-100624285D01*
X134326476Y-100624285D01*
X133850285Y-100386190D01*
X133612190Y-100148095D01*
X133374095Y-99671904D01*
X133374095Y-98243333D01*
X133612190Y-97767142D01*
X133850285Y-97529047D01*
X135278857Y-102767142D02*
X135278857Y-106576666D01*
X133850285Y-111814761D02*
X133612190Y-111576666D01*
X133374095Y-110862380D01*
X133374095Y-110386190D01*
X133612190Y-109671904D01*
X134088380Y-109195714D01*
X134564571Y-108957619D01*
X135516952Y-108719523D01*
X136231238Y-108719523D01*
X137183619Y-108957619D01*
X137659809Y-109195714D01*
X138136000Y-109671904D01*
X138374095Y-110386190D01*
X138374095Y-110862380D01*
X138136000Y-111576666D01*
X137897904Y-111814761D01*
X134802666Y-113719523D02*
X134802666Y-116100476D01*
X133374095Y-113243333D02*
X138374095Y-114910000D01*
X133374095Y-116576666D01*
X133374095Y-121100476D02*
X135755047Y-119433809D01*
X133374095Y-118243333D02*
X138374095Y-118243333D01*
X138374095Y-120148095D01*
X138136000Y-120624285D01*
X137897904Y-120862380D01*
X137421714Y-121100476D01*
X136707428Y-121100476D01*
X136231238Y-120862380D01*
X135993142Y-120624285D01*
X135755047Y-120148095D01*
X135755047Y-118243333D01*
X133374095Y-123243333D02*
X138374095Y-123243333D01*
X138374095Y-124433809D01*
X138136000Y-125148095D01*
X137659809Y-125624285D01*
X137183619Y-125862380D01*
X136231238Y-126100476D01*
X135516952Y-126100476D01*
X134564571Y-125862380D01*
X134088380Y-125624285D01*
X133612190Y-125148095D01*
X133374095Y-124433809D01*
X133374095Y-123243333D01*
X92972190Y-73719523D02*
X92734095Y-74433809D01*
X92734095Y-75624285D01*
X92972190Y-76100476D01*
X93210285Y-76338571D01*
X93686476Y-76576666D01*
X94162666Y-76576666D01*
X94638857Y-76338571D01*
X94876952Y-76100476D01*
X95115047Y-75624285D01*
X95353142Y-74671904D01*
X95591238Y-74195714D01*
X95829333Y-73957619D01*
X96305523Y-73719523D01*
X96781714Y-73719523D01*
X97257904Y-73957619D01*
X97496000Y-74195714D01*
X97734095Y-74671904D01*
X97734095Y-75862380D01*
X97496000Y-76576666D01*
X92734095Y-81100476D02*
X92734095Y-78719523D01*
X97734095Y-78719523D01*
X97734095Y-83719523D02*
X97734095Y-84671904D01*
X97496000Y-85148095D01*
X97019809Y-85624285D01*
X96067428Y-85862380D01*
X94400761Y-85862380D01*
X93448380Y-85624285D01*
X92972190Y-85148095D01*
X92734095Y-84671904D01*
X92734095Y-83719523D01*
X92972190Y-83243333D01*
X93448380Y-82767142D01*
X94400761Y-82529047D01*
X96067428Y-82529047D01*
X97019809Y-82767142D01*
X97496000Y-83243333D01*
X97734095Y-83719523D01*
X97734095Y-87290952D02*
X97734095Y-90148095D01*
X92734095Y-88719523D02*
X97734095Y-88719523D01*
X94638857Y-91814761D02*
X94638857Y-95624285D01*
X92734095Y-100624285D02*
X92734095Y-97767142D01*
X92734095Y-99195714D02*
X97734095Y-99195714D01*
X97019809Y-98719523D01*
X96543619Y-98243333D01*
X96305523Y-97767142D01*
X94638857Y-102767142D02*
X94638857Y-106576666D01*
X93210285Y-111814761D02*
X92972190Y-111576666D01*
X92734095Y-110862380D01*
X92734095Y-110386190D01*
X92972190Y-109671904D01*
X93448380Y-109195714D01*
X93924571Y-108957619D01*
X94876952Y-108719523D01*
X95591238Y-108719523D01*
X96543619Y-108957619D01*
X97019809Y-109195714D01*
X97496000Y-109671904D01*
X97734095Y-110386190D01*
X97734095Y-110862380D01*
X97496000Y-111576666D01*
X97257904Y-111814761D01*
X94162666Y-113719523D02*
X94162666Y-116100476D01*
X92734095Y-113243333D02*
X97734095Y-114910000D01*
X92734095Y-116576666D01*
X92734095Y-121100476D02*
X95115047Y-119433809D01*
X92734095Y-118243333D02*
X97734095Y-118243333D01*
X97734095Y-120148095D01*
X97496000Y-120624285D01*
X97257904Y-120862380D01*
X96781714Y-121100476D01*
X96067428Y-121100476D01*
X95591238Y-120862380D01*
X95353142Y-120624285D01*
X95115047Y-120148095D01*
X95115047Y-118243333D01*
X92734095Y-123243333D02*
X97734095Y-123243333D01*
X97734095Y-124433809D01*
X97496000Y-125148095D01*
X97019809Y-125624285D01*
X96543619Y-125862380D01*
X95591238Y-126100476D01*
X94876952Y-126100476D01*
X93924571Y-125862380D01*
X93448380Y-125624285D01*
X92972190Y-125148095D01*
X92734095Y-124433809D01*
X92734095Y-123243333D01*
X215670095Y-75624285D02*
X220670095Y-75624285D01*
X220670095Y-77529047D01*
X220432000Y-78005238D01*
X220193904Y-78243333D01*
X219717714Y-78481428D01*
X219003428Y-78481428D01*
X218527238Y-78243333D01*
X218289142Y-78005238D01*
X218051047Y-77529047D01*
X218051047Y-75624285D01*
X220670095Y-81576666D02*
X220670095Y-82529047D01*
X220432000Y-83005238D01*
X219955809Y-83481428D01*
X219003428Y-83719523D01*
X217336761Y-83719523D01*
X216384380Y-83481428D01*
X215908190Y-83005238D01*
X215670095Y-82529047D01*
X215670095Y-81576666D01*
X215908190Y-81100476D01*
X216384380Y-80624285D01*
X217336761Y-80386190D01*
X219003428Y-80386190D01*
X219955809Y-80624285D01*
X220432000Y-81100476D01*
X220670095Y-81576666D01*
X220670095Y-85386190D02*
X215670095Y-86576666D01*
X219241523Y-87529047D01*
X215670095Y-88481428D01*
X220670095Y-89671904D01*
X218289142Y-91576666D02*
X218289142Y-93243333D01*
X215670095Y-93957619D02*
X215670095Y-91576666D01*
X220670095Y-91576666D01*
X220670095Y-93957619D01*
X215670095Y-98957619D02*
X218051047Y-97290952D01*
X215670095Y-96100476D02*
X220670095Y-96100476D01*
X220670095Y-98005238D01*
X220432000Y-98481428D01*
X220193904Y-98719523D01*
X219717714Y-98957619D01*
X219003428Y-98957619D01*
X218527238Y-98719523D01*
X218289142Y-98481428D01*
X218051047Y-98005238D01*
X218051047Y-96100476D01*
X217574857Y-101100476D02*
X217574857Y-104910000D01*
X216146285Y-110148095D02*
X215908190Y-109910000D01*
X215670095Y-109195714D01*
X215670095Y-108719523D01*
X215908190Y-108005238D01*
X216384380Y-107529047D01*
X216860571Y-107290952D01*
X217812952Y-107052857D01*
X218527238Y-107052857D01*
X219479619Y-107290952D01*
X219955809Y-107529047D01*
X220432000Y-108005238D01*
X220670095Y-108719523D01*
X220670095Y-109195714D01*
X220432000Y-109910000D01*
X220193904Y-110148095D01*
X217098666Y-112052857D02*
X217098666Y-114433809D01*
X215670095Y-111576666D02*
X220670095Y-113243333D01*
X215670095Y-114910000D01*
X215670095Y-119433809D02*
X218051047Y-117767142D01*
X215670095Y-116576666D02*
X220670095Y-116576666D01*
X220670095Y-118481428D01*
X220432000Y-118957619D01*
X220193904Y-119195714D01*
X219717714Y-119433809D01*
X219003428Y-119433809D01*
X218527238Y-119195714D01*
X218289142Y-118957619D01*
X218051047Y-118481428D01*
X218051047Y-116576666D01*
X215670095Y-121576666D02*
X220670095Y-121576666D01*
X220670095Y-122767142D01*
X220432000Y-123481428D01*
X219955809Y-123957619D01*
X219479619Y-124195714D01*
X218527238Y-124433809D01*
X217812952Y-124433809D01*
X216860571Y-124195714D01*
X216384380Y-123957619D01*
X215908190Y-123481428D01*
X215670095Y-122767142D01*
X215670095Y-121576666D01*
X50538285Y-83600476D02*
X50300190Y-83362380D01*
X50062095Y-82648095D01*
X50062095Y-82171904D01*
X50300190Y-81457619D01*
X50776380Y-80981428D01*
X51252571Y-80743333D01*
X52204952Y-80505238D01*
X52919238Y-80505238D01*
X53871619Y-80743333D01*
X54347809Y-80981428D01*
X54824000Y-81457619D01*
X55062095Y-82171904D01*
X55062095Y-82648095D01*
X54824000Y-83362380D01*
X54585904Y-83600476D01*
X50062095Y-85743333D02*
X55062095Y-85743333D01*
X55062095Y-87648095D01*
X54824000Y-88124285D01*
X54585904Y-88362380D01*
X54109714Y-88600476D01*
X53395428Y-88600476D01*
X52919238Y-88362380D01*
X52681142Y-88124285D01*
X52443047Y-87648095D01*
X52443047Y-85743333D01*
X55062095Y-90743333D02*
X51014476Y-90743333D01*
X50538285Y-90981428D01*
X50300190Y-91219523D01*
X50062095Y-91695714D01*
X50062095Y-92648095D01*
X50300190Y-93124285D01*
X50538285Y-93362380D01*
X51014476Y-93600476D01*
X55062095Y-93600476D01*
X51966857Y-95981428D02*
X51966857Y-99790952D01*
X50538285Y-105029047D02*
X50300190Y-104790952D01*
X50062095Y-104076666D01*
X50062095Y-103600476D01*
X50300190Y-102886190D01*
X50776380Y-102410000D01*
X51252571Y-102171904D01*
X52204952Y-101933809D01*
X52919238Y-101933809D01*
X53871619Y-102171904D01*
X54347809Y-102410000D01*
X54824000Y-102886190D01*
X55062095Y-103600476D01*
X55062095Y-104076666D01*
X54824000Y-104790952D01*
X54585904Y-105029047D01*
X51490666Y-106933809D02*
X51490666Y-109314761D01*
X50062095Y-106457619D02*
X55062095Y-108124285D01*
X50062095Y-109790952D01*
X50062095Y-114314761D02*
X52443047Y-112648095D01*
X50062095Y-111457619D02*
X55062095Y-111457619D01*
X55062095Y-113362380D01*
X54824000Y-113838571D01*
X54585904Y-114076666D01*
X54109714Y-114314761D01*
X53395428Y-114314761D01*
X52919238Y-114076666D01*
X52681142Y-113838571D01*
X52443047Y-113362380D01*
X52443047Y-111457619D01*
X50062095Y-116457619D02*
X55062095Y-116457619D01*
X55062095Y-117648095D01*
X54824000Y-118362380D01*
X54347809Y-118838571D01*
X53871619Y-119076666D01*
X52919238Y-119314761D01*
X52204952Y-119314761D01*
X51252571Y-119076666D01*
X50776380Y-118838571D01*
X50300190Y-118362380D01*
X50062095Y-117648095D01*
X50062095Y-116457619D01*
D13*
G36*
X64844085Y-52591671D02*
G01*
X64890129Y-52666491D01*
X64961067Y-52785028D01*
X65053991Y-52942237D01*
X65165992Y-53133076D01*
X65294162Y-53352501D01*
X65435592Y-53595469D01*
X65587373Y-53856937D01*
X65746597Y-54131860D01*
X65910356Y-54415197D01*
X66075740Y-54701902D01*
X66239842Y-54986934D01*
X66399752Y-55265248D01*
X66552562Y-55531802D01*
X66695363Y-55781552D01*
X66825247Y-56009455D01*
X66939305Y-56210466D01*
X67034629Y-56379544D01*
X67108310Y-56511645D01*
X67157439Y-56601724D01*
X67179108Y-56644740D01*
X67179902Y-56647429D01*
X67153002Y-56683930D01*
X67078227Y-56739764D01*
X66964470Y-56809450D01*
X66820623Y-56887509D01*
X66670029Y-56961687D01*
X66465119Y-57051635D01*
X66249633Y-57132453D01*
X66016146Y-57205938D01*
X65757236Y-57273884D01*
X65465479Y-57338088D01*
X65133451Y-57400346D01*
X64753731Y-57462454D01*
X64360937Y-57520290D01*
X64019668Y-57571600D01*
X63733090Y-57622397D01*
X63494015Y-57675204D01*
X63295259Y-57732546D01*
X63129635Y-57796947D01*
X62989956Y-57870931D01*
X62869036Y-57957024D01*
X62759689Y-58057750D01*
X62724428Y-58095167D01*
X62648000Y-58182279D01*
X62591463Y-58253364D01*
X62565235Y-58295167D01*
X62564536Y-58298594D01*
X62555360Y-58319612D01*
X62523515Y-58319849D01*
X62462531Y-58296509D01*
X62365935Y-58246793D01*
X62227254Y-58167905D01*
X62130878Y-58111175D01*
X61987166Y-58022494D01*
X61875483Y-57946559D01*
X61803334Y-57888832D01*
X61778226Y-57854776D01*
X61778241Y-57854529D01*
X61793811Y-57822075D01*
X61837783Y-57740800D01*
X61907605Y-57615134D01*
X62000725Y-57449505D01*
X62114589Y-57248344D01*
X62246646Y-57016080D01*
X62394343Y-56757143D01*
X62555128Y-56475961D01*
X62726448Y-56176965D01*
X62905751Y-55864584D01*
X63090485Y-55543248D01*
X63278098Y-55217386D01*
X63466036Y-54891427D01*
X63651747Y-54569801D01*
X63832680Y-54256937D01*
X64006281Y-53957266D01*
X64169999Y-53675216D01*
X64321281Y-53415218D01*
X64457574Y-53181699D01*
X64576326Y-52979091D01*
X64674985Y-52811823D01*
X64750999Y-52684324D01*
X64801814Y-52601023D01*
X64824879Y-52566350D01*
X64825845Y-52565610D01*
X64844085Y-52591671D01*
G37*
X64844085Y-52591671D02*
X64890129Y-52666491D01*
X64961067Y-52785028D01*
X65053991Y-52942237D01*
X65165992Y-53133076D01*
X65294162Y-53352501D01*
X65435592Y-53595469D01*
X65587373Y-53856937D01*
X65746597Y-54131860D01*
X65910356Y-54415197D01*
X66075740Y-54701902D01*
X66239842Y-54986934D01*
X66399752Y-55265248D01*
X66552562Y-55531802D01*
X66695363Y-55781552D01*
X66825247Y-56009455D01*
X66939305Y-56210466D01*
X67034629Y-56379544D01*
X67108310Y-56511645D01*
X67157439Y-56601724D01*
X67179108Y-56644740D01*
X67179902Y-56647429D01*
X67153002Y-56683930D01*
X67078227Y-56739764D01*
X66964470Y-56809450D01*
X66820623Y-56887509D01*
X66670029Y-56961687D01*
X66465119Y-57051635D01*
X66249633Y-57132453D01*
X66016146Y-57205938D01*
X65757236Y-57273884D01*
X65465479Y-57338088D01*
X65133451Y-57400346D01*
X64753731Y-57462454D01*
X64360937Y-57520290D01*
X64019668Y-57571600D01*
X63733090Y-57622397D01*
X63494015Y-57675204D01*
X63295259Y-57732546D01*
X63129635Y-57796947D01*
X62989956Y-57870931D01*
X62869036Y-57957024D01*
X62759689Y-58057750D01*
X62724428Y-58095167D01*
X62648000Y-58182279D01*
X62591463Y-58253364D01*
X62565235Y-58295167D01*
X62564536Y-58298594D01*
X62555360Y-58319612D01*
X62523515Y-58319849D01*
X62462531Y-58296509D01*
X62365935Y-58246793D01*
X62227254Y-58167905D01*
X62130878Y-58111175D01*
X61987166Y-58022494D01*
X61875483Y-57946559D01*
X61803334Y-57888832D01*
X61778226Y-57854776D01*
X61778241Y-57854529D01*
X61793811Y-57822075D01*
X61837783Y-57740800D01*
X61907605Y-57615134D01*
X62000725Y-57449505D01*
X62114589Y-57248344D01*
X62246646Y-57016080D01*
X62394343Y-56757143D01*
X62555128Y-56475961D01*
X62726448Y-56176965D01*
X62905751Y-55864584D01*
X63090485Y-55543248D01*
X63278098Y-55217386D01*
X63466036Y-54891427D01*
X63651747Y-54569801D01*
X63832680Y-54256937D01*
X64006281Y-53957266D01*
X64169999Y-53675216D01*
X64321281Y-53415218D01*
X64457574Y-53181699D01*
X64576326Y-52979091D01*
X64674985Y-52811823D01*
X64750999Y-52684324D01*
X64801814Y-52601023D01*
X64824879Y-52566350D01*
X64825845Y-52565610D01*
X64844085Y-52591671D01*
G36*
X68491056Y-58889238D02*
G01*
X68513816Y-58927386D01*
X68564975Y-59014843D01*
X68642004Y-59147238D01*
X68742372Y-59320204D01*
X68863549Y-59529370D01*
X69003006Y-59770367D01*
X69158213Y-60038824D01*
X69326640Y-60330374D01*
X69505757Y-60640646D01*
X69689995Y-60960000D01*
X69878152Y-61286235D01*
X70058803Y-61599418D01*
X70229330Y-61895012D01*
X70387114Y-62168480D01*
X70529538Y-62415284D01*
X70653981Y-62630889D01*
X70757826Y-62810755D01*
X70838455Y-62950347D01*
X70893248Y-63045128D01*
X70919013Y-63089573D01*
X70961014Y-63164661D01*
X70983850Y-63211663D01*
X70985102Y-63219841D01*
X70957272Y-63204484D01*
X70879881Y-63160407D01*
X70756973Y-63089942D01*
X70592595Y-62995422D01*
X70390792Y-62879178D01*
X70155609Y-62743542D01*
X69891091Y-62590848D01*
X69601284Y-62423428D01*
X69290233Y-62243613D01*
X68961984Y-62053735D01*
X68837097Y-61981464D01*
X68502974Y-61788167D01*
X68184147Y-61603877D01*
X67884709Y-61430950D01*
X67608752Y-61271743D01*
X67360370Y-61128610D01*
X67143653Y-61003910D01*
X66962696Y-60899996D01*
X66821591Y-60819227D01*
X66724430Y-60763957D01*
X66675307Y-60736544D01*
X66670170Y-60733948D01*
X66685138Y-60710441D01*
X66737227Y-60647591D01*
X66821117Y-60551188D01*
X66931492Y-60427020D01*
X67063034Y-60280879D01*
X67210424Y-60118553D01*
X67368345Y-59945832D01*
X67531479Y-59768506D01*
X67694508Y-59592365D01*
X67852114Y-59423198D01*
X67998979Y-59266795D01*
X68129786Y-59128945D01*
X68239216Y-59015439D01*
X68321953Y-58932065D01*
X68350328Y-58904726D01*
X68444359Y-58816403D01*
X68491056Y-58889238D01*
G37*
X68491056Y-58889238D02*
X68513816Y-58927386D01*
X68564975Y-59014843D01*
X68642004Y-59147238D01*
X68742372Y-59320204D01*
X68863549Y-59529370D01*
X69003006Y-59770367D01*
X69158213Y-60038824D01*
X69326640Y-60330374D01*
X69505757Y-60640646D01*
X69689995Y-60960000D01*
X69878152Y-61286235D01*
X70058803Y-61599418D01*
X70229330Y-61895012D01*
X70387114Y-62168480D01*
X70529538Y-62415284D01*
X70653981Y-62630889D01*
X70757826Y-62810755D01*
X70838455Y-62950347D01*
X70893248Y-63045128D01*
X70919013Y-63089573D01*
X70961014Y-63164661D01*
X70983850Y-63211663D01*
X70985102Y-63219841D01*
X70957272Y-63204484D01*
X70879881Y-63160407D01*
X70756973Y-63089942D01*
X70592595Y-62995422D01*
X70390792Y-62879178D01*
X70155609Y-62743542D01*
X69891091Y-62590848D01*
X69601284Y-62423428D01*
X69290233Y-62243613D01*
X68961984Y-62053735D01*
X68837097Y-61981464D01*
X68502974Y-61788167D01*
X68184147Y-61603877D01*
X67884709Y-61430950D01*
X67608752Y-61271743D01*
X67360370Y-61128610D01*
X67143653Y-61003910D01*
X66962696Y-60899996D01*
X66821591Y-60819227D01*
X66724430Y-60763957D01*
X66675307Y-60736544D01*
X66670170Y-60733948D01*
X66685138Y-60710441D01*
X66737227Y-60647591D01*
X66821117Y-60551188D01*
X66931492Y-60427020D01*
X67063034Y-60280879D01*
X67210424Y-60118553D01*
X67368345Y-59945832D01*
X67531479Y-59768506D01*
X67694508Y-59592365D01*
X67852114Y-59423198D01*
X67998979Y-59266795D01*
X68129786Y-59128945D01*
X68239216Y-59015439D01*
X68321953Y-58932065D01*
X68350328Y-58904726D01*
X68444359Y-58816403D01*
X68491056Y-58889238D01*
G36*
X61160187Y-59002317D02*
G01*
X61225237Y-59027473D01*
X61324385Y-59077425D01*
X61466747Y-59155752D01*
X61477832Y-59161977D01*
X61608947Y-59236952D01*
X61719596Y-59302638D01*
X61798910Y-59352410D01*
X61836023Y-59379641D01*
X61837061Y-59380974D01*
X61828096Y-59418780D01*
X61786971Y-59503210D01*
X61716366Y-59629665D01*
X61618960Y-59793544D01*
X61497435Y-59990245D01*
X61354471Y-60215170D01*
X61318890Y-60270331D01*
X61226186Y-60423398D01*
X61158683Y-60555112D01*
X61122305Y-60653565D01*
X61118572Y-60673014D01*
X61120229Y-60758624D01*
X61138788Y-60894418D01*
X61171936Y-61071687D01*
X61217360Y-61281719D01*
X61272746Y-61515804D01*
X61335780Y-61765232D01*
X61404150Y-62021290D01*
X61475542Y-62275269D01*
X61547641Y-62518457D01*
X61618136Y-62742145D01*
X61684712Y-62937621D01*
X61745055Y-63096174D01*
X61787121Y-63190244D01*
X61836673Y-63290451D01*
X61883460Y-63386337D01*
X61885993Y-63391586D01*
X61963397Y-63488440D01*
X62076368Y-63553656D01*
X62207878Y-63584909D01*
X62340901Y-63579875D01*
X62458410Y-63536228D01*
X62524516Y-63478764D01*
X62619718Y-63321166D01*
X62689478Y-63124756D01*
X62727753Y-62909559D01*
X62733176Y-62787561D01*
X62711339Y-62559870D01*
X62647247Y-62371320D01*
X62537451Y-62212759D01*
X62503213Y-62177467D01*
X62401322Y-62078470D01*
X62387328Y-60678978D01*
X62565635Y-60409062D01*
X62649307Y-60286891D01*
X62729889Y-60176987D01*
X62795885Y-60094673D01*
X62824252Y-60064384D01*
X62904562Y-59989621D01*
X63013330Y-60048196D01*
X63082077Y-60090168D01*
X63119692Y-60122756D01*
X63122097Y-60128615D01*
X63147806Y-60153456D01*
X63191792Y-60171954D01*
X63234299Y-60188626D01*
X63299387Y-60220299D01*
X63392644Y-60270066D01*
X63519658Y-60341018D01*
X63686016Y-60436247D01*
X63897305Y-60558844D01*
X64012124Y-60625864D01*
X64147187Y-60706143D01*
X64235770Y-60763319D01*
X64285710Y-60804078D01*
X64304846Y-60835107D01*
X64301016Y-60863092D01*
X64297822Y-60869593D01*
X64266752Y-60910533D01*
X64200271Y-60987330D01*
X64106124Y-61091393D01*
X63992056Y-61214132D01*
X63893400Y-61318180D01*
X63666059Y-61565134D01*
X63488210Y-61779183D01*
X63358267Y-61962480D01*
X63274642Y-62117176D01*
X63246434Y-62195732D01*
X63234783Y-62264498D01*
X63222749Y-62381799D01*
X63211391Y-62534234D01*
X63201767Y-62708404D01*
X63197238Y-62818537D01*
X63190918Y-63008929D01*
X63188137Y-63148124D01*
X63189715Y-63246819D01*
X63196469Y-63315708D01*
X63209216Y-63365487D01*
X63228773Y-63406850D01*
X63244134Y-63432106D01*
X63332842Y-63529453D01*
X63447147Y-63597291D01*
X63567416Y-63626876D01*
X63657545Y-63616172D01*
X63739152Y-63569861D01*
X63841447Y-63486924D01*
X63950083Y-63381825D01*
X64050713Y-63269032D01*
X64128988Y-63163010D01*
X64157809Y-63111778D01*
X64200982Y-63041628D01*
X64279505Y-62934778D01*
X64386203Y-62799578D01*
X64513903Y-62644381D01*
X64655429Y-62477536D01*
X64803607Y-62307396D01*
X64951263Y-62142311D01*
X65091222Y-61990633D01*
X65216310Y-61860713D01*
X65314520Y-61765339D01*
X65423557Y-61670065D01*
X65515284Y-61599817D01*
X65579621Y-61561898D01*
X65600978Y-61557729D01*
X65633706Y-61574548D01*
X65715341Y-61619692D01*
X65841172Y-61690449D01*
X66006488Y-61784109D01*
X66206578Y-61897962D01*
X66436732Y-62029298D01*
X66692238Y-62175406D01*
X66968387Y-62333576D01*
X67260467Y-62501097D01*
X67563768Y-62675259D01*
X67873579Y-62853352D01*
X68185189Y-63032665D01*
X68493888Y-63210487D01*
X68794964Y-63384109D01*
X69083708Y-63550819D01*
X69355408Y-63707908D01*
X69605354Y-63852666D01*
X69828834Y-63982380D01*
X70021139Y-64094342D01*
X70177557Y-64185841D01*
X70293378Y-64254167D01*
X70363891Y-64296608D01*
X70384329Y-64309927D01*
X70356803Y-64312560D01*
X70270208Y-64315118D01*
X70127428Y-64317592D01*
X69931346Y-64319966D01*
X69684844Y-64322231D01*
X69390806Y-64324373D01*
X69052114Y-64326379D01*
X68671652Y-64328238D01*
X68252301Y-64329937D01*
X67796946Y-64331464D01*
X67308469Y-64332807D01*
X66789753Y-64333952D01*
X66243681Y-64334889D01*
X65673136Y-64335604D01*
X65081000Y-64336085D01*
X64470157Y-64336319D01*
X64213848Y-64336342D01*
X58013939Y-64336342D01*
X58456106Y-63569695D01*
X58549711Y-63407360D01*
X58670204Y-63198332D01*
X58813556Y-62949603D01*
X58975738Y-62668164D01*
X59152723Y-62361007D01*
X59340480Y-62035125D01*
X59534982Y-61697509D01*
X59732200Y-61355151D01*
X59928105Y-61015043D01*
X59977649Y-60929025D01*
X60158304Y-60615715D01*
X60330578Y-60317606D01*
X60491884Y-60039136D01*
X60639632Y-59784743D01*
X60771233Y-59558864D01*
X60884099Y-59365937D01*
X60975641Y-59210401D01*
X61043270Y-59096692D01*
X61084396Y-59029250D01*
X61095905Y-59012080D01*
X61120115Y-58998379D01*
X61160187Y-59002317D01*
G37*
X61160187Y-59002317D02*
X61225237Y-59027473D01*
X61324385Y-59077425D01*
X61466747Y-59155752D01*
X61477832Y-59161977D01*
X61608947Y-59236952D01*
X61719596Y-59302638D01*
X61798910Y-59352410D01*
X61836023Y-59379641D01*
X61837061Y-59380974D01*
X61828096Y-59418780D01*
X61786971Y-59503210D01*
X61716366Y-59629665D01*
X61618960Y-59793544D01*
X61497435Y-59990245D01*
X61354471Y-60215170D01*
X61318890Y-60270331D01*
X61226186Y-60423398D01*
X61158683Y-60555112D01*
X61122305Y-60653565D01*
X61118572Y-60673014D01*
X61120229Y-60758624D01*
X61138788Y-60894418D01*
X61171936Y-61071687D01*
X61217360Y-61281719D01*
X61272746Y-61515804D01*
X61335780Y-61765232D01*
X61404150Y-62021290D01*
X61475542Y-62275269D01*
X61547641Y-62518457D01*
X61618136Y-62742145D01*
X61684712Y-62937621D01*
X61745055Y-63096174D01*
X61787121Y-63190244D01*
X61836673Y-63290451D01*
X61883460Y-63386337D01*
X61885993Y-63391586D01*
X61963397Y-63488440D01*
X62076368Y-63553656D01*
X62207878Y-63584909D01*
X62340901Y-63579875D01*
X62458410Y-63536228D01*
X62524516Y-63478764D01*
X62619718Y-63321166D01*
X62689478Y-63124756D01*
X62727753Y-62909559D01*
X62733176Y-62787561D01*
X62711339Y-62559870D01*
X62647247Y-62371320D01*
X62537451Y-62212759D01*
X62503213Y-62177467D01*
X62401322Y-62078470D01*
X62387328Y-60678978D01*
X62565635Y-60409062D01*
X62649307Y-60286891D01*
X62729889Y-60176987D01*
X62795885Y-60094673D01*
X62824252Y-60064384D01*
X62904562Y-59989621D01*
X63013330Y-60048196D01*
X63082077Y-60090168D01*
X63119692Y-60122756D01*
X63122097Y-60128615D01*
X63147806Y-60153456D01*
X63191792Y-60171954D01*
X63234299Y-60188626D01*
X63299387Y-60220299D01*
X63392644Y-60270066D01*
X63519658Y-60341018D01*
X63686016Y-60436247D01*
X63897305Y-60558844D01*
X64012124Y-60625864D01*
X64147187Y-60706143D01*
X64235770Y-60763319D01*
X64285710Y-60804078D01*
X64304846Y-60835107D01*
X64301016Y-60863092D01*
X64297822Y-60869593D01*
X64266752Y-60910533D01*
X64200271Y-60987330D01*
X64106124Y-61091393D01*
X63992056Y-61214132D01*
X63893400Y-61318180D01*
X63666059Y-61565134D01*
X63488210Y-61779183D01*
X63358267Y-61962480D01*
X63274642Y-62117176D01*
X63246434Y-62195732D01*
X63234783Y-62264498D01*
X63222749Y-62381799D01*
X63211391Y-62534234D01*
X63201767Y-62708404D01*
X63197238Y-62818537D01*
X63190918Y-63008929D01*
X63188137Y-63148124D01*
X63189715Y-63246819D01*
X63196469Y-63315708D01*
X63209216Y-63365487D01*
X63228773Y-63406850D01*
X63244134Y-63432106D01*
X63332842Y-63529453D01*
X63447147Y-63597291D01*
X63567416Y-63626876D01*
X63657545Y-63616172D01*
X63739152Y-63569861D01*
X63841447Y-63486924D01*
X63950083Y-63381825D01*
X64050713Y-63269032D01*
X64128988Y-63163010D01*
X64157809Y-63111778D01*
X64200982Y-63041628D01*
X64279505Y-62934778D01*
X64386203Y-62799578D01*
X64513903Y-62644381D01*
X64655429Y-62477536D01*
X64803607Y-62307396D01*
X64951263Y-62142311D01*
X65091222Y-61990633D01*
X65216310Y-61860713D01*
X65314520Y-61765339D01*
X65423557Y-61670065D01*
X65515284Y-61599817D01*
X65579621Y-61561898D01*
X65600978Y-61557729D01*
X65633706Y-61574548D01*
X65715341Y-61619692D01*
X65841172Y-61690449D01*
X66006488Y-61784109D01*
X66206578Y-61897962D01*
X66436732Y-62029298D01*
X66692238Y-62175406D01*
X66968387Y-62333576D01*
X67260467Y-62501097D01*
X67563768Y-62675259D01*
X67873579Y-62853352D01*
X68185189Y-63032665D01*
X68493888Y-63210487D01*
X68794964Y-63384109D01*
X69083708Y-63550819D01*
X69355408Y-63707908D01*
X69605354Y-63852666D01*
X69828834Y-63982380D01*
X70021139Y-64094342D01*
X70177557Y-64185841D01*
X70293378Y-64254167D01*
X70363891Y-64296608D01*
X70384329Y-64309927D01*
X70356803Y-64312560D01*
X70270208Y-64315118D01*
X70127428Y-64317592D01*
X69931346Y-64319966D01*
X69684844Y-64322231D01*
X69390806Y-64324373D01*
X69052114Y-64326379D01*
X68671652Y-64328238D01*
X68252301Y-64329937D01*
X67796946Y-64331464D01*
X67308469Y-64332807D01*
X66789753Y-64333952D01*
X66243681Y-64334889D01*
X65673136Y-64335604D01*
X65081000Y-64336085D01*
X64470157Y-64336319D01*
X64213848Y-64336342D01*
X58013939Y-64336342D01*
X58456106Y-63569695D01*
X58549711Y-63407360D01*
X58670204Y-63198332D01*
X58813556Y-62949603D01*
X58975738Y-62668164D01*
X59152723Y-62361007D01*
X59340480Y-62035125D01*
X59534982Y-61697509D01*
X59732200Y-61355151D01*
X59928105Y-61015043D01*
X59977649Y-60929025D01*
X60158304Y-60615715D01*
X60330578Y-60317606D01*
X60491884Y-60039136D01*
X60639632Y-59784743D01*
X60771233Y-59558864D01*
X60884099Y-59365937D01*
X60975641Y-59210401D01*
X61043270Y-59096692D01*
X61084396Y-59029250D01*
X61095905Y-59012080D01*
X61120115Y-58998379D01*
X61160187Y-59002317D01*
D14*
X39900000Y-60840000D02*
X40500000Y-60540000D01*
X39900000Y-60240000D02*
X39900000Y-60840000D01*
X40500000Y-60540000D02*
X39900000Y-60240000D01*
D15*
X48900000Y-52310000D02*
X40600000Y-52310000D01*
X48900000Y-147510000D02*
X48900000Y-52310000D01*
X40600000Y-147510000D02*
X48900000Y-147510000D01*
X40600000Y-52310000D02*
X40600000Y-147510000D01*
D14*
X80540000Y-60840000D02*
X81140000Y-60540000D01*
X80540000Y-60240000D02*
X80540000Y-60840000D01*
X81140000Y-60540000D02*
X80540000Y-60240000D01*
D15*
X89540000Y-52310000D02*
X81240000Y-52310000D01*
X89540000Y-147510000D02*
X89540000Y-52310000D01*
X81240000Y-147510000D02*
X89540000Y-147510000D01*
X81240000Y-52310000D02*
X81240000Y-147510000D01*
D14*
X100860000Y-60840000D02*
X101460000Y-60540000D01*
X100860000Y-60240000D02*
X100860000Y-60840000D01*
X101460000Y-60540000D02*
X100860000Y-60240000D01*
D15*
X109860000Y-52310000D02*
X101560000Y-52310000D01*
X109860000Y-147510000D02*
X109860000Y-52310000D01*
X101560000Y-147510000D02*
X109860000Y-147510000D01*
X101560000Y-52310000D02*
X101560000Y-147510000D01*
D14*
X121180000Y-60840000D02*
X121780000Y-60540000D01*
X121180000Y-60240000D02*
X121180000Y-60840000D01*
X121780000Y-60540000D02*
X121180000Y-60240000D01*
D15*
X130180000Y-52310000D02*
X121880000Y-52310000D01*
X130180000Y-147510000D02*
X130180000Y-52310000D01*
X121880000Y-147510000D02*
X130180000Y-147510000D01*
X121880000Y-52310000D02*
X121880000Y-147510000D01*
D14*
X141500000Y-60840000D02*
X142100000Y-60540000D01*
X141500000Y-60240000D02*
X141500000Y-60840000D01*
X142100000Y-60540000D02*
X141500000Y-60240000D01*
D15*
X150500000Y-52310000D02*
X142200000Y-52310000D01*
X150500000Y-147510000D02*
X150500000Y-52310000D01*
X142200000Y-147510000D02*
X150500000Y-147510000D01*
X142200000Y-52310000D02*
X142200000Y-147510000D01*
D14*
X161820000Y-60840000D02*
X162420000Y-60540000D01*
X161820000Y-60240000D02*
X161820000Y-60840000D01*
X162420000Y-60540000D02*
X161820000Y-60240000D01*
D15*
X170820000Y-52310000D02*
X162520000Y-52310000D01*
X170820000Y-147510000D02*
X170820000Y-52310000D01*
X162520000Y-147510000D02*
X170820000Y-147510000D01*
X162520000Y-52310000D02*
X162520000Y-147510000D01*
D14*
X182140000Y-60840000D02*
X182740000Y-60540000D01*
X182140000Y-60240000D02*
X182140000Y-60840000D01*
X182740000Y-60540000D02*
X182140000Y-60240000D01*
D15*
X191140000Y-52310000D02*
X182840000Y-52310000D01*
X191140000Y-147510000D02*
X191140000Y-52310000D01*
X182840000Y-147510000D02*
X191140000Y-147510000D01*
X182840000Y-52310000D02*
X182840000Y-147510000D01*
D14*
X202460000Y-60840000D02*
X203060000Y-60540000D01*
X202460000Y-60240000D02*
X202460000Y-60840000D01*
X203060000Y-60540000D02*
X202460000Y-60240000D01*
D15*
X211460000Y-52310000D02*
X203160000Y-52310000D01*
X211460000Y-147510000D02*
X211460000Y-52310000D01*
X203160000Y-147510000D02*
X211460000Y-147510000D01*
X203160000Y-52310000D02*
X203160000Y-147510000D01*
X66020000Y-132530000D02*
X66220000Y-132530000D01*
X59720000Y-132530000D02*
X59720000Y-144530000D01*
X69720000Y-132530000D02*
X69720000Y-144530000D01*
X66976103Y-138530000D02*
G75*
G03X66976103Y-138530000I-2256103J0D01*
G01*
X63120000Y-136930000D02*
X66420000Y-139930000D01*
X66320000Y-136980000D02*
X63070000Y-139980000D01*
X59720000Y-132530000D02*
X59920000Y-132530000D01*
X63270000Y-132530000D02*
X66170000Y-132530000D01*
X69720000Y-132530000D02*
X69470000Y-132530000D01*
X59720000Y-144530000D02*
X59920000Y-144530000D01*
X63270000Y-144530000D02*
X66170000Y-144530000D01*
X69720000Y-144530000D02*
X69470000Y-144530000D01*
X228326000Y-132530000D02*
X228526000Y-132530000D01*
X222026000Y-132530000D02*
X222026000Y-144530000D01*
X232026000Y-132530000D02*
X232026000Y-144530000D01*
X229282103Y-138530000D02*
G75*
G03X229282103Y-138530000I-2256103J0D01*
G01*
X225426000Y-136930000D02*
X228726000Y-139930000D01*
X228626000Y-136980000D02*
X225376000Y-139980000D01*
X222026000Y-132530000D02*
X222226000Y-132530000D01*
X225576000Y-132530000D02*
X228476000Y-132530000D01*
X232026000Y-132530000D02*
X231776000Y-132530000D01*
X222026000Y-144530000D02*
X222226000Y-144530000D01*
X225576000Y-144530000D02*
X228476000Y-144530000D01*
X232026000Y-144530000D02*
X231776000Y-144530000D01*
D14*
X222076000Y-63460000D02*
X222076000Y-58460000D01*
X232076000Y-63460000D02*
X222076000Y-63460000D01*
X232076000Y-58460000D02*
X232076000Y-63460000D01*
X222076000Y-58460000D02*
X232076000Y-58460000D01*
X222076000Y-69810000D02*
X222076000Y-64810000D01*
X232076000Y-69810000D02*
X222076000Y-69810000D01*
X232076000Y-64810000D02*
X232076000Y-69810000D01*
X222076000Y-64810000D02*
X232076000Y-64810000D01*
X222076000Y-120610000D02*
X222076000Y-115610000D01*
X232076000Y-120610000D02*
X222076000Y-120610000D01*
X232076000Y-115610000D02*
X232076000Y-120610000D01*
X222076000Y-115610000D02*
X232076000Y-115610000D01*
X222076000Y-128230000D02*
X222076000Y-123230000D01*
X232076000Y-128230000D02*
X222076000Y-128230000D01*
X232076000Y-123230000D02*
X232076000Y-128230000D01*
X222076000Y-123230000D02*
X232076000Y-123230000D01*
D15*
X44416666Y-50862380D02*
X44416666Y-51576666D01*
X44369047Y-51719523D01*
X44273809Y-51814761D01*
X44130952Y-51862380D01*
X44035714Y-51862380D01*
X45416666Y-51862380D02*
X44845238Y-51862380D01*
X45130952Y-51862380D02*
X45130952Y-50862380D01*
X45035714Y-51005238D01*
X44940476Y-51100476D01*
X44845238Y-51148095D01*
X85056666Y-50862380D02*
X85056666Y-51576666D01*
X85009047Y-51719523D01*
X84913809Y-51814761D01*
X84770952Y-51862380D01*
X84675714Y-51862380D01*
X85485238Y-50957619D02*
X85532857Y-50910000D01*
X85628095Y-50862380D01*
X85866190Y-50862380D01*
X85961428Y-50910000D01*
X86009047Y-50957619D01*
X86056666Y-51052857D01*
X86056666Y-51148095D01*
X86009047Y-51290952D01*
X85437619Y-51862380D01*
X86056666Y-51862380D01*
X105376666Y-50862380D02*
X105376666Y-51576666D01*
X105329047Y-51719523D01*
X105233809Y-51814761D01*
X105090952Y-51862380D01*
X104995714Y-51862380D01*
X105757619Y-50862380D02*
X106376666Y-50862380D01*
X106043333Y-51243333D01*
X106186190Y-51243333D01*
X106281428Y-51290952D01*
X106329047Y-51338571D01*
X106376666Y-51433809D01*
X106376666Y-51671904D01*
X106329047Y-51767142D01*
X106281428Y-51814761D01*
X106186190Y-51862380D01*
X105900476Y-51862380D01*
X105805238Y-51814761D01*
X105757619Y-51767142D01*
X125696666Y-50862380D02*
X125696666Y-51576666D01*
X125649047Y-51719523D01*
X125553809Y-51814761D01*
X125410952Y-51862380D01*
X125315714Y-51862380D01*
X126601428Y-51195714D02*
X126601428Y-51862380D01*
X126363333Y-50814761D02*
X126125238Y-51529047D01*
X126744285Y-51529047D01*
X146016666Y-50862380D02*
X146016666Y-51576666D01*
X145969047Y-51719523D01*
X145873809Y-51814761D01*
X145730952Y-51862380D01*
X145635714Y-51862380D01*
X146969047Y-50862380D02*
X146492857Y-50862380D01*
X146445238Y-51338571D01*
X146492857Y-51290952D01*
X146588095Y-51243333D01*
X146826190Y-51243333D01*
X146921428Y-51290952D01*
X146969047Y-51338571D01*
X147016666Y-51433809D01*
X147016666Y-51671904D01*
X146969047Y-51767142D01*
X146921428Y-51814761D01*
X146826190Y-51862380D01*
X146588095Y-51862380D01*
X146492857Y-51814761D01*
X146445238Y-51767142D01*
X166336666Y-50862380D02*
X166336666Y-51576666D01*
X166289047Y-51719523D01*
X166193809Y-51814761D01*
X166050952Y-51862380D01*
X165955714Y-51862380D01*
X167241428Y-50862380D02*
X167050952Y-50862380D01*
X166955714Y-50910000D01*
X166908095Y-50957619D01*
X166812857Y-51100476D01*
X166765238Y-51290952D01*
X166765238Y-51671904D01*
X166812857Y-51767142D01*
X166860476Y-51814761D01*
X166955714Y-51862380D01*
X167146190Y-51862380D01*
X167241428Y-51814761D01*
X167289047Y-51767142D01*
X167336666Y-51671904D01*
X167336666Y-51433809D01*
X167289047Y-51338571D01*
X167241428Y-51290952D01*
X167146190Y-51243333D01*
X166955714Y-51243333D01*
X166860476Y-51290952D01*
X166812857Y-51338571D01*
X166765238Y-51433809D01*
X186656666Y-50862380D02*
X186656666Y-51576666D01*
X186609047Y-51719523D01*
X186513809Y-51814761D01*
X186370952Y-51862380D01*
X186275714Y-51862380D01*
X187037619Y-50862380D02*
X187704285Y-50862380D01*
X187275714Y-51862380D01*
X206976666Y-50862380D02*
X206976666Y-51576666D01*
X206929047Y-51719523D01*
X206833809Y-51814761D01*
X206690952Y-51862380D01*
X206595714Y-51862380D01*
X207595714Y-51290952D02*
X207500476Y-51243333D01*
X207452857Y-51195714D01*
X207405238Y-51100476D01*
X207405238Y-51052857D01*
X207452857Y-50957619D01*
X207500476Y-50910000D01*
X207595714Y-50862380D01*
X207786190Y-50862380D01*
X207881428Y-50910000D01*
X207929047Y-50957619D01*
X207976666Y-51052857D01*
X207976666Y-51100476D01*
X207929047Y-51195714D01*
X207881428Y-51243333D01*
X207786190Y-51290952D01*
X207595714Y-51290952D01*
X207500476Y-51338571D01*
X207452857Y-51386190D01*
X207405238Y-51481428D01*
X207405238Y-51671904D01*
X207452857Y-51767142D01*
X207500476Y-51814761D01*
X207595714Y-51862380D01*
X207786190Y-51862380D01*
X207881428Y-51814761D01*
X207929047Y-51767142D01*
X207976666Y-51671904D01*
X207976666Y-51481428D01*
X207929047Y-51386190D01*
X207881428Y-51338571D01*
X207786190Y-51290952D01*
X226766476Y-62212380D02*
X226766476Y-62926666D01*
X226718857Y-63069523D01*
X226623619Y-63164761D01*
X226480761Y-63212380D01*
X226385523Y-63212380D01*
X227766476Y-63212380D02*
X227195047Y-63212380D01*
X227480761Y-63212380D02*
X227480761Y-62212380D01*
X227385523Y-62355238D01*
X227290285Y-62450476D01*
X227195047Y-62498095D01*
X228718857Y-63212380D02*
X228147428Y-63212380D01*
X228433142Y-63212380D02*
X228433142Y-62212380D01*
X228337904Y-62355238D01*
X228242666Y-62450476D01*
X228147428Y-62498095D01*
X226766476Y-68562380D02*
X226766476Y-69276666D01*
X226718857Y-69419523D01*
X226623619Y-69514761D01*
X226480761Y-69562380D01*
X226385523Y-69562380D01*
X227766476Y-69562380D02*
X227195047Y-69562380D01*
X227480761Y-69562380D02*
X227480761Y-68562380D01*
X227385523Y-68705238D01*
X227290285Y-68800476D01*
X227195047Y-68848095D01*
X228147428Y-68657619D02*
X228195047Y-68610000D01*
X228290285Y-68562380D01*
X228528380Y-68562380D01*
X228623619Y-68610000D01*
X228671238Y-68657619D01*
X228718857Y-68752857D01*
X228718857Y-68848095D01*
X228671238Y-68990952D01*
X228099809Y-69562380D01*
X228718857Y-69562380D01*
X226766476Y-119362380D02*
X226766476Y-120076666D01*
X226718857Y-120219523D01*
X226623619Y-120314761D01*
X226480761Y-120362380D01*
X226385523Y-120362380D01*
X227766476Y-120362380D02*
X227195047Y-120362380D01*
X227480761Y-120362380D02*
X227480761Y-119362380D01*
X227385523Y-119505238D01*
X227290285Y-119600476D01*
X227195047Y-119648095D01*
X228099809Y-119362380D02*
X228718857Y-119362380D01*
X228385523Y-119743333D01*
X228528380Y-119743333D01*
X228623619Y-119790952D01*
X228671238Y-119838571D01*
X228718857Y-119933809D01*
X228718857Y-120171904D01*
X228671238Y-120267142D01*
X228623619Y-120314761D01*
X228528380Y-120362380D01*
X228242666Y-120362380D01*
X228147428Y-120314761D01*
X228099809Y-120267142D01*
X226766476Y-126982380D02*
X226766476Y-127696666D01*
X226718857Y-127839523D01*
X226623619Y-127934761D01*
X226480761Y-127982380D01*
X226385523Y-127982380D01*
X227766476Y-127982380D02*
X227195047Y-127982380D01*
X227480761Y-127982380D02*
X227480761Y-126982380D01*
X227385523Y-127125238D01*
X227290285Y-127220476D01*
X227195047Y-127268095D01*
X228623619Y-127315714D02*
X228623619Y-127982380D01*
X228385523Y-126934761D02*
X228147428Y-127649047D01*
X228766476Y-127649047D01*
M02*
