M48
; DRILL file {KiCad (5.1.5)-3} date 2020-05-31 16:01:56
; FORMAT={-:-/ absolute / metric / decimal}
; #@! TF.CreationDate,2020-05-31T16:01:56+08:00
; #@! TF.GenerationSoftware,Kicad,Pcbnew,(5.1.5)-3
; #@! TF.FileFunction,Plated,1,2,PTH
FMAT,2
METRIC
T1C0.400
T2C0.600
T3C1.000
T4C1.100
T5C1.300
%
G90
G05
T1
X60.37Y-133.03
X60.37Y-144.03
X60.77Y-132.23
X60.77Y-133.83
X60.77Y-143.23
X60.77Y-144.83
X61.57Y-131.93
X61.57Y-134.23
X61.57Y-142.93
X61.57Y-145.23
X62.37Y-132.23
X62.37Y-143.23
X62.47Y-133.83
X62.47Y-144.83
X62.77Y-133.03
X62.77Y-144.03
X66.67Y-133.03
X66.67Y-144.03
X67.07Y-132.23
X67.07Y-133.83
X67.07Y-143.23
X67.07Y-144.83
X67.87Y-131.93
X67.87Y-134.23
X67.87Y-142.93
X67.87Y-145.23
X68.67Y-132.23
X68.67Y-143.23
X68.77Y-133.83
X68.77Y-144.83
X69.07Y-133.03
X69.07Y-144.03
X222.676Y-133.03
X222.676Y-144.03
X223.076Y-132.23
X223.076Y-133.83
X223.076Y-143.23
X223.076Y-144.83
X223.876Y-131.93
X223.876Y-134.23
X223.876Y-142.93
X223.876Y-145.23
X224.676Y-132.23
X224.676Y-143.23
X224.776Y-133.83
X224.776Y-144.83
X225.076Y-133.03
X225.076Y-144.03
X228.976Y-133.03
X228.976Y-144.03
X229.376Y-132.23
X229.376Y-133.83
X229.376Y-143.23
X229.376Y-144.83
X230.176Y-131.93
X230.176Y-134.23
X230.176Y-142.93
X230.176Y-145.23
X230.976Y-132.23
X230.976Y-143.23
X231.076Y-133.83
X231.076Y-144.83
X231.376Y-133.03
X231.376Y-144.03
T2
X40.64Y-43.18
X40.64Y-44.45
X40.64Y-45.72
X40.64Y-46.99
X40.64Y-48.26
X40.64Y-49.53
X40.64Y-50.8
X40.64Y-148.59
X40.64Y-149.86
X40.64Y-151.13
X40.64Y-152.4
X40.64Y-153.67
X40.64Y-154.94
X40.64Y-156.21
X40.64Y-157.48
X41.91Y-43.18
X41.91Y-44.45
X41.91Y-45.72
X41.91Y-46.99
X41.91Y-48.26
X41.91Y-49.53
X41.91Y-50.8
X41.91Y-148.59
X41.91Y-149.86
X41.91Y-151.13
X41.91Y-152.4
X41.91Y-153.67
X41.91Y-154.94
X41.91Y-156.21
X41.91Y-157.48
X43.18Y-43.18
X43.18Y-44.45
X43.18Y-45.72
X43.18Y-46.99
X43.18Y-48.26
X43.18Y-49.53
X43.18Y-50.8
X43.18Y-148.59
X43.18Y-149.86
X43.18Y-151.13
X43.18Y-152.4
X43.18Y-153.67
X43.18Y-154.94
X43.18Y-156.21
X43.18Y-157.48
X44.45Y-43.18
X44.45Y-44.45
X44.45Y-45.72
X44.45Y-46.99
X44.45Y-48.26
X44.45Y-49.53
X44.45Y-50.8
X44.45Y-148.59
X44.45Y-149.86
X44.45Y-151.13
X44.45Y-152.4
X44.45Y-153.67
X44.45Y-154.94
X44.45Y-156.21
X44.45Y-157.48
X45.72Y-43.18
X45.72Y-44.45
X45.72Y-45.72
X45.72Y-46.99
X45.72Y-48.26
X45.72Y-49.53
X45.72Y-50.8
X45.72Y-148.59
X45.72Y-149.86
X45.72Y-151.13
X45.72Y-152.4
X45.72Y-153.67
X45.72Y-154.94
X45.72Y-156.21
X45.72Y-157.48
X46.99Y-43.18
X46.99Y-44.45
X46.99Y-45.72
X46.99Y-46.99
X46.99Y-48.26
X46.99Y-49.53
X46.99Y-50.8
X46.99Y-148.59
X46.99Y-149.86
X46.99Y-151.13
X46.99Y-152.4
X46.99Y-153.67
X46.99Y-154.94
X46.99Y-156.21
X46.99Y-157.48
X48.26Y-43.18
X48.26Y-44.45
X48.26Y-45.72
X48.26Y-46.99
X48.26Y-48.26
X48.26Y-49.53
X48.26Y-50.8
X48.26Y-148.59
X48.26Y-149.86
X48.26Y-151.13
X48.26Y-152.4
X48.26Y-153.67
X48.26Y-154.94
X48.26Y-156.21
X48.26Y-157.48
X49.53Y-43.18
X49.53Y-44.45
X49.53Y-45.72
X49.53Y-46.99
X49.53Y-48.26
X49.53Y-49.53
X49.53Y-50.8
X49.53Y-148.59
X49.53Y-149.86
X49.53Y-151.13
X49.53Y-152.4
X49.53Y-153.67
X49.53Y-154.94
X49.53Y-156.21
X49.53Y-157.48
X50.8Y-43.18
X50.8Y-44.45
X50.8Y-45.72
X50.8Y-46.99
X50.8Y-48.26
X50.8Y-49.53
X50.8Y-50.8
X50.8Y-148.59
X50.8Y-149.86
X50.8Y-151.13
X50.8Y-152.4
X50.8Y-153.67
X50.8Y-154.94
X50.8Y-156.21
X50.8Y-157.48
X52.07Y-43.18
X52.07Y-44.45
X52.07Y-45.72
X52.07Y-46.99
X52.07Y-48.26
X52.07Y-49.53
X52.07Y-50.8
X52.07Y-148.59
X52.07Y-149.86
X52.07Y-151.13
X52.07Y-152.4
X52.07Y-153.67
X52.07Y-154.94
X52.07Y-156.21
X52.07Y-157.48
X53.34Y-43.18
X53.34Y-44.45
X53.34Y-45.72
X53.34Y-46.99
X53.34Y-48.26
X53.34Y-49.53
X53.34Y-50.8
X53.34Y-148.59
X53.34Y-149.86
X53.34Y-151.13
X53.34Y-152.4
X53.34Y-153.67
X53.34Y-154.94
X53.34Y-156.21
X53.34Y-157.48
X54.61Y-43.18
X54.61Y-44.45
X54.61Y-45.72
X54.61Y-46.99
X54.61Y-48.26
X54.61Y-49.53
X54.61Y-50.8
X54.61Y-148.59
X54.61Y-149.86
X54.61Y-151.13
X54.61Y-152.4
X54.61Y-153.67
X54.61Y-154.94
X54.61Y-156.21
X54.61Y-157.48
X55.88Y-43.18
X55.88Y-44.45
X55.88Y-45.72
X55.88Y-46.99
X55.88Y-48.26
X55.88Y-49.53
X55.88Y-50.8
X55.88Y-148.59
X55.88Y-149.86
X55.88Y-151.13
X55.88Y-152.4
X55.88Y-153.67
X55.88Y-154.94
X55.88Y-156.21
X55.88Y-157.48
X57.15Y-43.18
X57.15Y-44.45
X57.15Y-45.72
X57.15Y-46.99
X57.15Y-48.26
X57.15Y-49.53
X57.15Y-50.8
X57.15Y-148.59
X57.15Y-149.86
X57.15Y-151.13
X57.15Y-152.4
X57.15Y-153.67
X57.15Y-154.94
X57.15Y-156.21
X57.15Y-157.48
X58.42Y-43.18
X58.42Y-44.45
X58.42Y-45.72
X58.42Y-46.99
X58.42Y-48.26
X58.42Y-49.53
X58.42Y-50.8
X58.42Y-148.59
X58.42Y-149.86
X58.42Y-151.13
X58.42Y-152.4
X58.42Y-153.67
X58.42Y-154.94
X58.42Y-156.21
X58.42Y-157.48
X59.69Y-43.18
X59.69Y-44.45
X59.69Y-45.72
X59.69Y-46.99
X59.69Y-48.26
X59.69Y-49.53
X59.69Y-50.8
X59.69Y-148.59
X59.69Y-149.86
X59.69Y-151.13
X59.69Y-152.4
X59.69Y-153.67
X59.69Y-154.94
X59.69Y-156.21
X59.69Y-157.48
X60.96Y-43.18
X60.96Y-44.45
X60.96Y-45.72
X60.96Y-46.99
X60.96Y-48.26
X60.96Y-49.53
X60.96Y-50.8
X60.96Y-148.59
X60.96Y-149.86
X60.96Y-151.13
X60.96Y-152.4
X60.96Y-153.67
X60.96Y-154.94
X60.96Y-156.21
X60.96Y-157.48
X62.23Y-43.18
X62.23Y-44.45
X62.23Y-45.72
X62.23Y-46.99
X62.23Y-48.26
X62.23Y-49.53
X62.23Y-50.8
X62.23Y-148.59
X62.23Y-149.86
X62.23Y-151.13
X62.23Y-152.4
X62.23Y-153.67
X62.23Y-154.94
X62.23Y-156.21
X62.23Y-157.48
X63.5Y-43.18
X63.5Y-44.45
X63.5Y-45.72
X63.5Y-46.99
X63.5Y-48.26
X63.5Y-49.53
X63.5Y-50.8
X63.5Y-148.59
X63.5Y-149.86
X63.5Y-151.13
X63.5Y-152.4
X63.5Y-153.67
X63.5Y-154.94
X63.5Y-156.21
X63.5Y-157.48
X64.77Y-43.18
X64.77Y-44.45
X64.77Y-45.72
X64.77Y-46.99
X64.77Y-48.26
X64.77Y-49.53
X64.77Y-50.8
X64.77Y-148.59
X64.77Y-149.86
X64.77Y-151.13
X64.77Y-152.4
X64.77Y-153.67
X64.77Y-154.94
X64.77Y-156.21
X64.77Y-157.48
X66.04Y-43.18
X66.04Y-44.45
X66.04Y-45.72
X66.04Y-46.99
X66.04Y-48.26
X66.04Y-49.53
X66.04Y-50.8
X66.04Y-148.59
X66.04Y-149.86
X66.04Y-151.13
X66.04Y-152.4
X66.04Y-153.67
X66.04Y-154.94
X66.04Y-156.21
X66.04Y-157.48
X67.31Y-43.18
X67.31Y-44.45
X67.31Y-45.72
X67.31Y-46.99
X67.31Y-48.26
X67.31Y-49.53
X67.31Y-50.8
X67.31Y-148.59
X67.31Y-149.86
X67.31Y-151.13
X67.31Y-152.4
X67.31Y-153.67
X67.31Y-154.94
X67.31Y-156.21
X67.31Y-157.48
X68.58Y-43.18
X68.58Y-44.45
X68.58Y-45.72
X68.58Y-46.99
X68.58Y-48.26
X68.58Y-49.53
X68.58Y-50.8
X68.58Y-148.59
X68.58Y-149.86
X68.58Y-151.13
X68.58Y-152.4
X68.58Y-153.67
X68.58Y-154.94
X68.58Y-156.21
X68.58Y-157.48
X69.85Y-43.18
X69.85Y-44.45
X69.85Y-45.72
X69.85Y-46.99
X69.85Y-48.26
X69.85Y-49.53
X69.85Y-50.8
X69.85Y-148.59
X69.85Y-149.86
X69.85Y-151.13
X69.85Y-152.4
X69.85Y-153.67
X69.85Y-154.94
X69.85Y-156.21
X69.85Y-157.48
X71.12Y-43.18
X71.12Y-44.45
X71.12Y-45.72
X71.12Y-46.99
X71.12Y-48.26
X71.12Y-49.53
X71.12Y-50.8
X71.12Y-148.59
X71.12Y-149.86
X71.12Y-151.13
X71.12Y-152.4
X71.12Y-153.67
X71.12Y-154.94
X71.12Y-156.21
X71.12Y-157.48
X72.39Y-43.18
X72.39Y-44.45
X72.39Y-45.72
X72.39Y-46.99
X72.39Y-48.26
X72.39Y-49.53
X72.39Y-50.8
X72.39Y-148.59
X72.39Y-149.86
X72.39Y-151.13
X72.39Y-152.4
X72.39Y-153.67
X72.39Y-154.94
X72.39Y-156.21
X72.39Y-157.48
X73.66Y-43.18
X73.66Y-44.45
X73.66Y-45.72
X73.66Y-46.99
X73.66Y-48.26
X73.66Y-49.53
X73.66Y-50.8
X73.66Y-148.59
X73.66Y-149.86
X73.66Y-151.13
X73.66Y-152.4
X73.66Y-153.67
X73.66Y-154.94
X73.66Y-156.21
X73.66Y-157.48
X74.93Y-43.18
X74.93Y-44.45
X74.93Y-45.72
X74.93Y-46.99
X74.93Y-48.26
X74.93Y-49.53
X74.93Y-50.8
X74.93Y-148.59
X74.93Y-149.86
X74.93Y-151.13
X74.93Y-152.4
X74.93Y-153.67
X74.93Y-154.94
X74.93Y-156.21
X74.93Y-157.48
X76.2Y-43.18
X76.2Y-44.45
X76.2Y-45.72
X76.2Y-46.99
X76.2Y-48.26
X76.2Y-49.53
X76.2Y-50.8
X76.2Y-148.59
X76.2Y-149.86
X76.2Y-151.13
X76.2Y-152.4
X76.2Y-153.67
X76.2Y-154.94
X76.2Y-156.21
X76.2Y-157.48
X77.47Y-43.18
X77.47Y-44.45
X77.47Y-45.72
X77.47Y-46.99
X77.47Y-48.26
X77.47Y-49.53
X77.47Y-50.8
X77.47Y-148.59
X77.47Y-149.86
X77.47Y-151.13
X77.47Y-152.4
X77.47Y-153.67
X77.47Y-154.94
X77.47Y-156.21
X77.47Y-157.48
X78.74Y-43.18
X78.74Y-44.45
X78.74Y-45.72
X78.74Y-46.99
X78.74Y-48.26
X78.74Y-49.53
X78.74Y-50.8
X78.74Y-148.59
X78.74Y-149.86
X78.74Y-151.13
X78.74Y-152.4
X78.74Y-153.67
X78.74Y-154.94
X78.74Y-156.21
X78.74Y-157.48
X80.01Y-43.18
X80.01Y-44.45
X80.01Y-45.72
X80.01Y-46.99
X80.01Y-48.26
X80.01Y-49.53
X80.01Y-50.8
X80.01Y-148.59
X80.01Y-149.86
X80.01Y-151.13
X80.01Y-152.4
X80.01Y-153.67
X80.01Y-154.94
X80.01Y-156.21
X80.01Y-157.48
X81.28Y-43.18
X81.28Y-44.45
X81.28Y-45.72
X81.28Y-46.99
X81.28Y-48.26
X81.28Y-49.53
X81.28Y-50.8
X81.28Y-148.59
X81.28Y-149.86
X81.28Y-151.13
X81.28Y-152.4
X81.28Y-153.67
X81.28Y-154.94
X81.28Y-156.21
X81.28Y-157.48
X82.55Y-43.18
X82.55Y-44.45
X82.55Y-45.72
X82.55Y-46.99
X82.55Y-48.26
X82.55Y-49.53
X82.55Y-50.8
X82.55Y-148.59
X82.55Y-149.86
X82.55Y-151.13
X82.55Y-152.4
X82.55Y-153.67
X82.55Y-154.94
X82.55Y-156.21
X82.55Y-157.48
X83.82Y-43.18
X83.82Y-44.45
X83.82Y-45.72
X83.82Y-46.99
X83.82Y-48.26
X83.82Y-49.53
X83.82Y-50.8
X83.82Y-148.59
X83.82Y-149.86
X83.82Y-151.13
X83.82Y-152.4
X83.82Y-153.67
X83.82Y-154.94
X83.82Y-156.21
X83.82Y-157.48
X85.09Y-43.18
X85.09Y-44.45
X85.09Y-45.72
X85.09Y-46.99
X85.09Y-48.26
X85.09Y-49.53
X85.09Y-50.8
X85.09Y-148.59
X85.09Y-149.86
X85.09Y-151.13
X85.09Y-152.4
X85.09Y-153.67
X85.09Y-154.94
X85.09Y-156.21
X85.09Y-157.48
X86.36Y-43.18
X86.36Y-44.45
X86.36Y-45.72
X86.36Y-46.99
X86.36Y-48.26
X86.36Y-49.53
X86.36Y-50.8
X86.36Y-148.59
X86.36Y-149.86
X86.36Y-151.13
X86.36Y-152.4
X86.36Y-153.67
X86.36Y-154.94
X86.36Y-156.21
X86.36Y-157.48
X87.63Y-43.18
X87.63Y-44.45
X87.63Y-45.72
X87.63Y-46.99
X87.63Y-48.26
X87.63Y-49.53
X87.63Y-50.8
X87.63Y-148.59
X87.63Y-149.86
X87.63Y-151.13
X87.63Y-152.4
X87.63Y-153.67
X87.63Y-154.94
X87.63Y-156.21
X87.63Y-157.48
X88.9Y-43.18
X88.9Y-44.45
X88.9Y-45.72
X88.9Y-46.99
X88.9Y-48.26
X88.9Y-49.53
X88.9Y-50.8
X88.9Y-148.59
X88.9Y-149.86
X88.9Y-151.13
X88.9Y-152.4
X88.9Y-153.67
X88.9Y-154.94
X88.9Y-156.21
X88.9Y-157.48
X90.17Y-43.18
X90.17Y-44.45
X90.17Y-45.72
X90.17Y-46.99
X90.17Y-48.26
X90.17Y-49.53
X90.17Y-50.8
X90.17Y-148.59
X90.17Y-149.86
X90.17Y-151.13
X90.17Y-152.4
X90.17Y-153.67
X90.17Y-154.94
X90.17Y-156.21
X90.17Y-157.48
X91.44Y-43.18
X91.44Y-44.45
X91.44Y-45.72
X91.44Y-46.99
X91.44Y-48.26
X91.44Y-49.53
X91.44Y-50.8
X91.44Y-148.59
X91.44Y-149.86
X91.44Y-151.13
X91.44Y-152.4
X91.44Y-153.67
X91.44Y-154.94
X91.44Y-156.21
X91.44Y-157.48
X92.71Y-43.18
X92.71Y-44.45
X92.71Y-45.72
X92.71Y-46.99
X92.71Y-48.26
X92.71Y-49.53
X92.71Y-50.8
X92.71Y-148.59
X92.71Y-149.86
X92.71Y-151.13
X92.71Y-152.4
X92.71Y-153.67
X92.71Y-154.94
X92.71Y-156.21
X92.71Y-157.48
X93.98Y-43.18
X93.98Y-44.45
X93.98Y-45.72
X93.98Y-46.99
X93.98Y-48.26
X93.98Y-49.53
X93.98Y-50.8
X93.98Y-148.59
X93.98Y-149.86
X93.98Y-151.13
X93.98Y-152.4
X93.98Y-153.67
X93.98Y-154.94
X93.98Y-156.21
X93.98Y-157.48
X95.25Y-43.18
X95.25Y-44.45
X95.25Y-45.72
X95.25Y-46.99
X95.25Y-48.26
X95.25Y-49.53
X95.25Y-50.8
X95.25Y-148.59
X95.25Y-149.86
X95.25Y-151.13
X95.25Y-152.4
X95.25Y-153.67
X95.25Y-154.94
X95.25Y-156.21
X95.25Y-157.48
X96.52Y-43.18
X96.52Y-44.45
X96.52Y-45.72
X96.52Y-46.99
X96.52Y-48.26
X96.52Y-49.53
X96.52Y-50.8
X96.52Y-148.59
X96.52Y-149.86
X96.52Y-151.13
X96.52Y-152.4
X96.52Y-153.67
X96.52Y-154.94
X96.52Y-156.21
X96.52Y-157.48
X97.79Y-43.18
X97.79Y-44.45
X97.79Y-45.72
X97.79Y-46.99
X97.79Y-48.26
X97.79Y-49.53
X97.79Y-50.8
X97.79Y-148.59
X97.79Y-149.86
X97.79Y-151.13
X97.79Y-152.4
X97.79Y-153.67
X97.79Y-154.94
X97.79Y-156.21
X97.79Y-157.48
X99.06Y-43.18
X99.06Y-44.45
X99.06Y-45.72
X99.06Y-46.99
X99.06Y-48.26
X99.06Y-49.53
X99.06Y-50.8
X99.06Y-148.59
X99.06Y-149.86
X99.06Y-151.13
X99.06Y-152.4
X99.06Y-153.67
X99.06Y-154.94
X99.06Y-156.21
X99.06Y-157.48
X100.33Y-43.18
X100.33Y-44.45
X100.33Y-45.72
X100.33Y-46.99
X100.33Y-48.26
X100.33Y-49.53
X100.33Y-50.8
X100.33Y-148.59
X100.33Y-149.86
X100.33Y-151.13
X100.33Y-152.4
X100.33Y-153.67
X100.33Y-154.94
X100.33Y-156.21
X100.33Y-157.48
X101.6Y-43.18
X101.6Y-44.45
X101.6Y-45.72
X101.6Y-46.99
X101.6Y-48.26
X101.6Y-49.53
X101.6Y-50.8
X101.6Y-148.59
X101.6Y-149.86
X101.6Y-151.13
X101.6Y-152.4
X101.6Y-153.67
X101.6Y-154.94
X101.6Y-156.21
X101.6Y-157.48
X102.87Y-43.18
X102.87Y-44.45
X102.87Y-45.72
X102.87Y-46.99
X102.87Y-48.26
X102.87Y-49.53
X102.87Y-50.8
X102.87Y-148.59
X102.87Y-149.86
X102.87Y-151.13
X102.87Y-152.4
X102.87Y-153.67
X102.87Y-154.94
X102.87Y-156.21
X102.87Y-157.48
X104.14Y-43.18
X104.14Y-44.45
X104.14Y-45.72
X104.14Y-46.99
X104.14Y-48.26
X104.14Y-49.53
X104.14Y-50.8
X104.14Y-148.59
X104.14Y-149.86
X104.14Y-151.13
X104.14Y-152.4
X104.14Y-153.67
X104.14Y-154.94
X104.14Y-156.21
X104.14Y-157.48
X105.41Y-43.18
X105.41Y-44.45
X105.41Y-45.72
X105.41Y-46.99
X105.41Y-48.26
X105.41Y-49.53
X105.41Y-50.8
X105.41Y-148.59
X105.41Y-149.86
X105.41Y-151.13
X105.41Y-152.4
X105.41Y-153.67
X105.41Y-154.94
X105.41Y-156.21
X105.41Y-157.48
X106.68Y-43.18
X106.68Y-44.45
X106.68Y-45.72
X106.68Y-46.99
X106.68Y-48.26
X106.68Y-49.53
X106.68Y-50.8
X106.68Y-148.59
X106.68Y-149.86
X106.68Y-151.13
X106.68Y-152.4
X106.68Y-153.67
X106.68Y-154.94
X106.68Y-156.21
X106.68Y-157.48
X107.95Y-43.18
X107.95Y-44.45
X107.95Y-45.72
X107.95Y-46.99
X107.95Y-48.26
X107.95Y-49.53
X107.95Y-50.8
X107.95Y-148.59
X107.95Y-149.86
X107.95Y-151.13
X107.95Y-152.4
X107.95Y-153.67
X107.95Y-154.94
X107.95Y-156.21
X107.95Y-157.48
X109.22Y-43.18
X109.22Y-44.45
X109.22Y-45.72
X109.22Y-46.99
X109.22Y-48.26
X109.22Y-49.53
X109.22Y-50.8
X109.22Y-148.59
X109.22Y-149.86
X109.22Y-151.13
X109.22Y-152.4
X109.22Y-153.67
X109.22Y-154.94
X109.22Y-156.21
X109.22Y-157.48
X110.49Y-43.18
X110.49Y-44.45
X110.49Y-45.72
X110.49Y-46.99
X110.49Y-48.26
X110.49Y-49.53
X110.49Y-50.8
X110.49Y-148.59
X110.49Y-149.86
X110.49Y-151.13
X110.49Y-152.4
X110.49Y-153.67
X110.49Y-154.94
X110.49Y-156.21
X110.49Y-157.48
X111.76Y-43.18
X111.76Y-44.45
X111.76Y-45.72
X111.76Y-46.99
X111.76Y-48.26
X111.76Y-49.53
X111.76Y-50.8
X111.76Y-148.59
X111.76Y-149.86
X111.76Y-151.13
X111.76Y-152.4
X111.76Y-153.67
X111.76Y-154.94
X111.76Y-156.21
X111.76Y-157.48
X113.03Y-43.18
X113.03Y-44.45
X113.03Y-45.72
X113.03Y-46.99
X113.03Y-48.26
X113.03Y-49.53
X113.03Y-50.8
X113.03Y-148.59
X113.03Y-149.86
X113.03Y-151.13
X113.03Y-152.4
X113.03Y-153.67
X113.03Y-154.94
X113.03Y-156.21
X113.03Y-157.48
X114.3Y-43.18
X114.3Y-44.45
X114.3Y-45.72
X114.3Y-46.99
X114.3Y-48.26
X114.3Y-49.53
X114.3Y-50.8
X114.3Y-148.59
X114.3Y-149.86
X114.3Y-151.13
X114.3Y-152.4
X114.3Y-153.67
X114.3Y-154.94
X114.3Y-156.21
X114.3Y-157.48
X115.57Y-43.18
X115.57Y-44.45
X115.57Y-45.72
X115.57Y-46.99
X115.57Y-48.26
X115.57Y-49.53
X115.57Y-50.8
X115.57Y-148.59
X115.57Y-149.86
X115.57Y-151.13
X115.57Y-152.4
X115.57Y-153.67
X115.57Y-154.94
X115.57Y-156.21
X115.57Y-157.48
X116.84Y-43.18
X116.84Y-44.45
X116.84Y-45.72
X116.84Y-46.99
X116.84Y-48.26
X116.84Y-49.53
X116.84Y-50.8
X116.84Y-148.59
X116.84Y-149.86
X116.84Y-151.13
X116.84Y-152.4
X116.84Y-153.67
X116.84Y-154.94
X116.84Y-156.21
X116.84Y-157.48
X118.11Y-43.18
X118.11Y-44.45
X118.11Y-45.72
X118.11Y-46.99
X118.11Y-48.26
X118.11Y-49.53
X118.11Y-50.8
X118.11Y-148.59
X118.11Y-149.86
X118.11Y-151.13
X118.11Y-152.4
X118.11Y-153.67
X118.11Y-154.94
X118.11Y-156.21
X118.11Y-157.48
X119.38Y-43.18
X119.38Y-44.45
X119.38Y-45.72
X119.38Y-46.99
X119.38Y-48.26
X119.38Y-49.53
X119.38Y-50.8
X119.38Y-148.59
X119.38Y-149.86
X119.38Y-151.13
X119.38Y-152.4
X119.38Y-153.67
X119.38Y-154.94
X119.38Y-156.21
X119.38Y-157.48
X120.65Y-43.18
X120.65Y-44.45
X120.65Y-45.72
X120.65Y-46.99
X120.65Y-48.26
X120.65Y-49.53
X120.65Y-50.8
X120.65Y-148.59
X120.65Y-149.86
X120.65Y-151.13
X120.65Y-152.4
X120.65Y-153.67
X120.65Y-154.94
X120.65Y-156.21
X120.65Y-157.48
X121.92Y-43.18
X121.92Y-44.45
X121.92Y-45.72
X121.92Y-46.99
X121.92Y-48.26
X121.92Y-49.53
X121.92Y-50.8
X121.92Y-148.59
X121.92Y-149.86
X121.92Y-151.13
X121.92Y-152.4
X121.92Y-153.67
X121.92Y-154.94
X121.92Y-156.21
X121.92Y-157.48
X123.19Y-43.18
X123.19Y-44.45
X123.19Y-45.72
X123.19Y-46.99
X123.19Y-48.26
X123.19Y-49.53
X123.19Y-50.8
X123.19Y-148.59
X123.19Y-149.86
X123.19Y-151.13
X123.19Y-152.4
X123.19Y-153.67
X123.19Y-154.94
X123.19Y-156.21
X123.19Y-157.48
X124.46Y-43.18
X124.46Y-44.45
X124.46Y-45.72
X124.46Y-46.99
X124.46Y-48.26
X124.46Y-49.53
X124.46Y-50.8
X124.46Y-148.59
X124.46Y-149.86
X124.46Y-151.13
X124.46Y-152.4
X124.46Y-153.67
X124.46Y-154.94
X124.46Y-156.21
X124.46Y-157.48
X125.73Y-43.18
X125.73Y-44.45
X125.73Y-45.72
X125.73Y-46.99
X125.73Y-48.26
X125.73Y-49.53
X125.73Y-50.8
X125.73Y-148.59
X125.73Y-149.86
X125.73Y-151.13
X125.73Y-152.4
X125.73Y-153.67
X125.73Y-154.94
X125.73Y-156.21
X125.73Y-157.48
X127.0Y-43.18
X127.0Y-44.45
X127.0Y-45.72
X127.0Y-46.99
X127.0Y-48.26
X127.0Y-49.53
X127.0Y-50.8
X127.0Y-148.59
X127.0Y-149.86
X127.0Y-151.13
X127.0Y-152.4
X127.0Y-153.67
X127.0Y-154.94
X127.0Y-156.21
X127.0Y-157.48
X128.27Y-43.18
X128.27Y-44.45
X128.27Y-45.72
X128.27Y-46.99
X128.27Y-48.26
X128.27Y-49.53
X128.27Y-50.8
X128.27Y-148.59
X128.27Y-149.86
X128.27Y-151.13
X128.27Y-152.4
X128.27Y-153.67
X128.27Y-154.94
X128.27Y-156.21
X128.27Y-157.48
X129.54Y-43.18
X129.54Y-44.45
X129.54Y-45.72
X129.54Y-46.99
X129.54Y-48.26
X129.54Y-49.53
X129.54Y-50.8
X129.54Y-148.59
X129.54Y-149.86
X129.54Y-151.13
X129.54Y-152.4
X129.54Y-153.67
X129.54Y-154.94
X129.54Y-156.21
X129.54Y-157.48
X130.81Y-43.18
X130.81Y-44.45
X130.81Y-45.72
X130.81Y-46.99
X130.81Y-48.26
X130.81Y-49.53
X130.81Y-50.8
X130.81Y-148.59
X130.81Y-149.86
X130.81Y-151.13
X130.81Y-152.4
X130.81Y-153.67
X130.81Y-154.94
X130.81Y-156.21
X130.81Y-157.48
X132.08Y-43.18
X132.08Y-44.45
X132.08Y-45.72
X132.08Y-46.99
X132.08Y-48.26
X132.08Y-49.53
X132.08Y-50.8
X132.08Y-148.59
X132.08Y-149.86
X132.08Y-151.13
X132.08Y-152.4
X132.08Y-153.67
X132.08Y-154.94
X132.08Y-156.21
X132.08Y-157.48
X133.35Y-43.18
X133.35Y-44.45
X133.35Y-45.72
X133.35Y-46.99
X133.35Y-48.26
X133.35Y-49.53
X133.35Y-50.8
X133.35Y-148.59
X133.35Y-149.86
X133.35Y-151.13
X133.35Y-152.4
X133.35Y-153.67
X133.35Y-154.94
X133.35Y-156.21
X133.35Y-157.48
X134.62Y-43.18
X134.62Y-44.45
X134.62Y-45.72
X134.62Y-46.99
X134.62Y-48.26
X134.62Y-49.53
X134.62Y-50.8
X134.62Y-148.59
X134.62Y-149.86
X134.62Y-151.13
X134.62Y-152.4
X134.62Y-153.67
X134.62Y-154.94
X134.62Y-156.21
X134.62Y-157.48
X135.89Y-43.18
X135.89Y-44.45
X135.89Y-45.72
X135.89Y-46.99
X135.89Y-48.26
X135.89Y-49.53
X135.89Y-50.8
X135.89Y-148.59
X135.89Y-149.86
X135.89Y-151.13
X135.89Y-152.4
X135.89Y-153.67
X135.89Y-154.94
X135.89Y-156.21
X135.89Y-157.48
X137.16Y-43.18
X137.16Y-44.45
X137.16Y-45.72
X137.16Y-46.99
X137.16Y-48.26
X137.16Y-49.53
X137.16Y-50.8
X137.16Y-148.59
X137.16Y-149.86
X137.16Y-151.13
X137.16Y-152.4
X137.16Y-153.67
X137.16Y-154.94
X137.16Y-156.21
X137.16Y-157.48
X138.43Y-43.18
X138.43Y-44.45
X138.43Y-45.72
X138.43Y-46.99
X138.43Y-48.26
X138.43Y-49.53
X138.43Y-50.8
X138.43Y-148.59
X138.43Y-149.86
X138.43Y-151.13
X138.43Y-152.4
X138.43Y-153.67
X138.43Y-154.94
X138.43Y-156.21
X138.43Y-157.48
X139.7Y-43.18
X139.7Y-44.45
X139.7Y-45.72
X139.7Y-46.99
X139.7Y-48.26
X139.7Y-49.53
X139.7Y-50.8
X139.7Y-148.59
X139.7Y-149.86
X139.7Y-151.13
X139.7Y-152.4
X139.7Y-153.67
X139.7Y-154.94
X139.7Y-156.21
X139.7Y-157.48
X140.97Y-43.18
X140.97Y-44.45
X140.97Y-45.72
X140.97Y-46.99
X140.97Y-48.26
X140.97Y-49.53
X140.97Y-50.8
X140.97Y-148.59
X140.97Y-149.86
X140.97Y-151.13
X140.97Y-152.4
X140.97Y-153.67
X140.97Y-154.94
X140.97Y-156.21
X140.97Y-157.48
X142.24Y-43.18
X142.24Y-44.45
X142.24Y-45.72
X142.24Y-46.99
X142.24Y-48.26
X142.24Y-49.53
X142.24Y-50.8
X142.24Y-148.59
X142.24Y-149.86
X142.24Y-151.13
X142.24Y-152.4
X142.24Y-153.67
X142.24Y-154.94
X142.24Y-156.21
X142.24Y-157.48
X143.51Y-43.18
X143.51Y-44.45
X143.51Y-45.72
X143.51Y-46.99
X143.51Y-48.26
X143.51Y-49.53
X143.51Y-50.8
X143.51Y-148.59
X143.51Y-149.86
X143.51Y-151.13
X143.51Y-152.4
X143.51Y-153.67
X143.51Y-154.94
X143.51Y-156.21
X143.51Y-157.48
X144.78Y-43.18
X144.78Y-44.45
X144.78Y-45.72
X144.78Y-46.99
X144.78Y-48.26
X144.78Y-49.53
X144.78Y-50.8
X144.78Y-148.59
X144.78Y-149.86
X144.78Y-151.13
X144.78Y-152.4
X144.78Y-153.67
X144.78Y-154.94
X144.78Y-156.21
X144.78Y-157.48
X146.05Y-43.18
X146.05Y-44.45
X146.05Y-45.72
X146.05Y-46.99
X146.05Y-48.26
X146.05Y-49.53
X146.05Y-50.8
X146.05Y-148.59
X146.05Y-149.86
X146.05Y-151.13
X146.05Y-152.4
X146.05Y-153.67
X146.05Y-154.94
X146.05Y-156.21
X146.05Y-157.48
X147.32Y-43.18
X147.32Y-44.45
X147.32Y-45.72
X147.32Y-46.99
X147.32Y-48.26
X147.32Y-49.53
X147.32Y-50.8
X147.32Y-148.59
X147.32Y-149.86
X147.32Y-151.13
X147.32Y-152.4
X147.32Y-153.67
X147.32Y-154.94
X147.32Y-156.21
X147.32Y-157.48
X148.59Y-43.18
X148.59Y-44.45
X148.59Y-45.72
X148.59Y-46.99
X148.59Y-48.26
X148.59Y-49.53
X148.59Y-50.8
X148.59Y-148.59
X148.59Y-149.86
X148.59Y-151.13
X148.59Y-152.4
X148.59Y-153.67
X148.59Y-154.94
X148.59Y-156.21
X148.59Y-157.48
X149.86Y-43.18
X149.86Y-44.45
X149.86Y-45.72
X149.86Y-46.99
X149.86Y-48.26
X149.86Y-49.53
X149.86Y-50.8
X149.86Y-148.59
X149.86Y-149.86
X149.86Y-151.13
X149.86Y-152.4
X149.86Y-153.67
X149.86Y-154.94
X149.86Y-156.21
X149.86Y-157.48
X151.13Y-43.18
X151.13Y-44.45
X151.13Y-45.72
X151.13Y-46.99
X151.13Y-48.26
X151.13Y-49.53
X151.13Y-50.8
X151.13Y-148.59
X151.13Y-149.86
X151.13Y-151.13
X151.13Y-152.4
X151.13Y-153.67
X151.13Y-154.94
X151.13Y-156.21
X151.13Y-157.48
X152.4Y-43.18
X152.4Y-44.45
X152.4Y-45.72
X152.4Y-46.99
X152.4Y-48.26
X152.4Y-49.53
X152.4Y-50.8
X152.4Y-148.59
X152.4Y-149.86
X152.4Y-151.13
X152.4Y-152.4
X152.4Y-153.67
X152.4Y-154.94
X152.4Y-156.21
X152.4Y-157.48
X153.67Y-43.18
X153.67Y-44.45
X153.67Y-45.72
X153.67Y-46.99
X153.67Y-48.26
X153.67Y-49.53
X153.67Y-50.8
X153.67Y-148.59
X153.67Y-149.86
X153.67Y-151.13
X153.67Y-152.4
X153.67Y-153.67
X153.67Y-154.94
X153.67Y-156.21
X153.67Y-157.48
X154.94Y-43.18
X154.94Y-44.45
X154.94Y-45.72
X154.94Y-46.99
X154.94Y-48.26
X154.94Y-49.53
X154.94Y-50.8
X154.94Y-148.59
X154.94Y-149.86
X154.94Y-151.13
X154.94Y-152.4
X154.94Y-153.67
X154.94Y-154.94
X154.94Y-156.21
X154.94Y-157.48
X156.21Y-43.18
X156.21Y-44.45
X156.21Y-45.72
X156.21Y-46.99
X156.21Y-48.26
X156.21Y-49.53
X156.21Y-50.8
X156.21Y-148.59
X156.21Y-149.86
X156.21Y-151.13
X156.21Y-152.4
X156.21Y-153.67
X156.21Y-154.94
X156.21Y-156.21
X156.21Y-157.48
X157.48Y-43.18
X157.48Y-44.45
X157.48Y-45.72
X157.48Y-46.99
X157.48Y-48.26
X157.48Y-49.53
X157.48Y-50.8
X157.48Y-148.59
X157.48Y-149.86
X157.48Y-151.13
X157.48Y-152.4
X157.48Y-153.67
X157.48Y-154.94
X157.48Y-156.21
X157.48Y-157.48
X158.75Y-43.18
X158.75Y-44.45
X158.75Y-45.72
X158.75Y-46.99
X158.75Y-48.26
X158.75Y-49.53
X158.75Y-50.8
X158.75Y-148.59
X158.75Y-149.86
X158.75Y-151.13
X158.75Y-152.4
X158.75Y-153.67
X158.75Y-154.94
X158.75Y-156.21
X158.75Y-157.48
X160.02Y-43.18
X160.02Y-44.45
X160.02Y-45.72
X160.02Y-46.99
X160.02Y-48.26
X160.02Y-49.53
X160.02Y-50.8
X160.02Y-148.59
X160.02Y-149.86
X160.02Y-151.13
X160.02Y-152.4
X160.02Y-153.67
X160.02Y-154.94
X160.02Y-156.21
X160.02Y-157.48
X161.29Y-43.18
X161.29Y-44.45
X161.29Y-45.72
X161.29Y-46.99
X161.29Y-48.26
X161.29Y-49.53
X161.29Y-50.8
X161.29Y-148.59
X161.29Y-149.86
X161.29Y-151.13
X161.29Y-152.4
X161.29Y-153.67
X161.29Y-154.94
X161.29Y-156.21
X161.29Y-157.48
X162.56Y-43.18
X162.56Y-44.45
X162.56Y-45.72
X162.56Y-46.99
X162.56Y-48.26
X162.56Y-49.53
X162.56Y-50.8
X162.56Y-148.59
X162.56Y-149.86
X162.56Y-151.13
X162.56Y-152.4
X162.56Y-153.67
X162.56Y-154.94
X162.56Y-156.21
X162.56Y-157.48
X163.83Y-43.18
X163.83Y-44.45
X163.83Y-45.72
X163.83Y-46.99
X163.83Y-48.26
X163.83Y-49.53
X163.83Y-50.8
X163.83Y-148.59
X163.83Y-149.86
X163.83Y-151.13
X163.83Y-152.4
X163.83Y-153.67
X163.83Y-154.94
X163.83Y-156.21
X163.83Y-157.48
X165.1Y-43.18
X165.1Y-44.45
X165.1Y-45.72
X165.1Y-46.99
X165.1Y-48.26
X165.1Y-49.53
X165.1Y-50.8
X165.1Y-148.59
X165.1Y-149.86
X165.1Y-151.13
X165.1Y-152.4
X165.1Y-153.67
X165.1Y-154.94
X165.1Y-156.21
X165.1Y-157.48
X166.37Y-43.18
X166.37Y-44.45
X166.37Y-45.72
X166.37Y-46.99
X166.37Y-48.26
X166.37Y-49.53
X166.37Y-50.8
X166.37Y-148.59
X166.37Y-149.86
X166.37Y-151.13
X166.37Y-152.4
X166.37Y-153.67
X166.37Y-154.94
X166.37Y-156.21
X166.37Y-157.48
X167.64Y-43.18
X167.64Y-44.45
X167.64Y-45.72
X167.64Y-46.99
X167.64Y-48.26
X167.64Y-49.53
X167.64Y-50.8
X167.64Y-148.59
X167.64Y-149.86
X167.64Y-151.13
X167.64Y-152.4
X167.64Y-153.67
X167.64Y-154.94
X167.64Y-156.21
X167.64Y-157.48
X168.91Y-43.18
X168.91Y-44.45
X168.91Y-45.72
X168.91Y-46.99
X168.91Y-48.26
X168.91Y-49.53
X168.91Y-50.8
X168.91Y-148.59
X168.91Y-149.86
X168.91Y-151.13
X168.91Y-152.4
X168.91Y-153.67
X168.91Y-154.94
X168.91Y-156.21
X168.91Y-157.48
X170.18Y-43.18
X170.18Y-44.45
X170.18Y-45.72
X170.18Y-46.99
X170.18Y-48.26
X170.18Y-49.53
X170.18Y-50.8
X170.18Y-148.59
X170.18Y-149.86
X170.18Y-151.13
X170.18Y-152.4
X170.18Y-153.67
X170.18Y-154.94
X170.18Y-156.21
X170.18Y-157.48
X171.45Y-43.18
X171.45Y-44.45
X171.45Y-45.72
X171.45Y-46.99
X171.45Y-48.26
X171.45Y-49.53
X171.45Y-50.8
X171.45Y-148.59
X171.45Y-149.86
X171.45Y-151.13
X171.45Y-152.4
X171.45Y-153.67
X171.45Y-154.94
X171.45Y-156.21
X171.45Y-157.48
X172.72Y-43.18
X172.72Y-44.45
X172.72Y-45.72
X172.72Y-46.99
X172.72Y-48.26
X172.72Y-49.53
X172.72Y-50.8
X172.72Y-148.59
X172.72Y-149.86
X172.72Y-151.13
X172.72Y-152.4
X172.72Y-153.67
X172.72Y-154.94
X172.72Y-156.21
X172.72Y-157.48
X173.99Y-43.18
X173.99Y-44.45
X173.99Y-45.72
X173.99Y-46.99
X173.99Y-48.26
X173.99Y-49.53
X173.99Y-50.8
X173.99Y-148.59
X173.99Y-149.86
X173.99Y-151.13
X173.99Y-152.4
X173.99Y-153.67
X173.99Y-154.94
X173.99Y-156.21
X173.99Y-157.48
X175.26Y-43.18
X175.26Y-44.45
X175.26Y-45.72
X175.26Y-46.99
X175.26Y-48.26
X175.26Y-49.53
X175.26Y-50.8
X175.26Y-148.59
X175.26Y-149.86
X175.26Y-151.13
X175.26Y-152.4
X175.26Y-153.67
X175.26Y-154.94
X175.26Y-156.21
X175.26Y-157.48
X176.53Y-43.18
X176.53Y-44.45
X176.53Y-45.72
X176.53Y-46.99
X176.53Y-48.26
X176.53Y-49.53
X176.53Y-50.8
X176.53Y-148.59
X176.53Y-149.86
X176.53Y-151.13
X176.53Y-152.4
X176.53Y-153.67
X176.53Y-154.94
X176.53Y-156.21
X176.53Y-157.48
X177.8Y-43.18
X177.8Y-44.45
X177.8Y-45.72
X177.8Y-46.99
X177.8Y-48.26
X177.8Y-49.53
X177.8Y-50.8
X177.8Y-148.59
X177.8Y-149.86
X177.8Y-151.13
X177.8Y-152.4
X177.8Y-153.67
X177.8Y-154.94
X177.8Y-156.21
X177.8Y-157.48
X179.07Y-43.18
X179.07Y-44.45
X179.07Y-45.72
X179.07Y-46.99
X179.07Y-48.26
X179.07Y-49.53
X179.07Y-50.8
X179.07Y-148.59
X179.07Y-149.86
X179.07Y-151.13
X179.07Y-152.4
X179.07Y-153.67
X179.07Y-154.94
X179.07Y-156.21
X179.07Y-157.48
X180.34Y-43.18
X180.34Y-44.45
X180.34Y-45.72
X180.34Y-46.99
X180.34Y-48.26
X180.34Y-49.53
X180.34Y-50.8
X180.34Y-148.59
X180.34Y-149.86
X180.34Y-151.13
X180.34Y-152.4
X180.34Y-153.67
X180.34Y-154.94
X180.34Y-156.21
X180.34Y-157.48
X181.61Y-43.18
X181.61Y-44.45
X181.61Y-45.72
X181.61Y-46.99
X181.61Y-48.26
X181.61Y-49.53
X181.61Y-50.8
X181.61Y-148.59
X181.61Y-149.86
X181.61Y-151.13
X181.61Y-152.4
X181.61Y-153.67
X181.61Y-154.94
X181.61Y-156.21
X181.61Y-157.48
X182.88Y-43.18
X182.88Y-44.45
X182.88Y-45.72
X182.88Y-46.99
X182.88Y-48.26
X182.88Y-49.53
X182.88Y-50.8
X182.88Y-148.59
X182.88Y-149.86
X182.88Y-151.13
X182.88Y-152.4
X182.88Y-153.67
X182.88Y-154.94
X182.88Y-156.21
X182.88Y-157.48
X184.15Y-43.18
X184.15Y-44.45
X184.15Y-45.72
X184.15Y-46.99
X184.15Y-48.26
X184.15Y-49.53
X184.15Y-50.8
X184.15Y-148.59
X184.15Y-149.86
X184.15Y-151.13
X184.15Y-152.4
X184.15Y-153.67
X184.15Y-154.94
X184.15Y-156.21
X184.15Y-157.48
X185.42Y-43.18
X185.42Y-44.45
X185.42Y-45.72
X185.42Y-46.99
X185.42Y-48.26
X185.42Y-49.53
X185.42Y-50.8
X185.42Y-148.59
X185.42Y-149.86
X185.42Y-151.13
X185.42Y-152.4
X185.42Y-153.67
X185.42Y-154.94
X185.42Y-156.21
X185.42Y-157.48
X186.69Y-43.18
X186.69Y-44.45
X186.69Y-45.72
X186.69Y-46.99
X186.69Y-48.26
X186.69Y-49.53
X186.69Y-50.8
X186.69Y-148.59
X186.69Y-149.86
X186.69Y-151.13
X186.69Y-152.4
X186.69Y-153.67
X186.69Y-154.94
X186.69Y-156.21
X186.69Y-157.48
X187.96Y-43.18
X187.96Y-44.45
X187.96Y-45.72
X187.96Y-46.99
X187.96Y-48.26
X187.96Y-49.53
X187.96Y-50.8
X187.96Y-148.59
X187.96Y-149.86
X187.96Y-151.13
X187.96Y-152.4
X187.96Y-153.67
X187.96Y-154.94
X187.96Y-156.21
X187.96Y-157.48
X189.23Y-43.18
X189.23Y-44.45
X189.23Y-45.72
X189.23Y-46.99
X189.23Y-48.26
X189.23Y-49.53
X189.23Y-50.8
X189.23Y-148.59
X189.23Y-149.86
X189.23Y-151.13
X189.23Y-152.4
X189.23Y-153.67
X189.23Y-154.94
X189.23Y-156.21
X189.23Y-157.48
X190.5Y-43.18
X190.5Y-44.45
X190.5Y-45.72
X190.5Y-46.99
X190.5Y-48.26
X190.5Y-49.53
X190.5Y-50.8
X190.5Y-148.59
X190.5Y-149.86
X190.5Y-151.13
X190.5Y-152.4
X190.5Y-153.67
X190.5Y-154.94
X190.5Y-156.21
X190.5Y-157.48
X191.77Y-43.18
X191.77Y-44.45
X191.77Y-45.72
X191.77Y-46.99
X191.77Y-48.26
X191.77Y-49.53
X191.77Y-50.8
X191.77Y-148.59
X191.77Y-149.86
X191.77Y-151.13
X191.77Y-152.4
X191.77Y-153.67
X191.77Y-154.94
X191.77Y-156.21
X191.77Y-157.48
X193.04Y-43.18
X193.04Y-44.45
X193.04Y-45.72
X193.04Y-46.99
X193.04Y-48.26
X193.04Y-49.53
X193.04Y-50.8
X193.04Y-148.59
X193.04Y-149.86
X193.04Y-151.13
X193.04Y-152.4
X193.04Y-153.67
X193.04Y-154.94
X193.04Y-156.21
X193.04Y-157.48
X194.31Y-43.18
X194.31Y-44.45
X194.31Y-45.72
X194.31Y-46.99
X194.31Y-48.26
X194.31Y-49.53
X194.31Y-50.8
X194.31Y-148.59
X194.31Y-149.86
X194.31Y-151.13
X194.31Y-152.4
X194.31Y-153.67
X194.31Y-154.94
X194.31Y-156.21
X194.31Y-157.48
X195.58Y-43.18
X195.58Y-44.45
X195.58Y-45.72
X195.58Y-46.99
X195.58Y-48.26
X195.58Y-49.53
X195.58Y-50.8
X195.58Y-148.59
X195.58Y-149.86
X195.58Y-151.13
X195.58Y-152.4
X195.58Y-153.67
X195.58Y-154.94
X195.58Y-156.21
X195.58Y-157.48
X196.85Y-43.18
X196.85Y-44.45
X196.85Y-45.72
X196.85Y-46.99
X196.85Y-48.26
X196.85Y-49.53
X196.85Y-50.8
X196.85Y-148.59
X196.85Y-149.86
X196.85Y-151.13
X196.85Y-152.4
X196.85Y-153.67
X196.85Y-154.94
X196.85Y-156.21
X196.85Y-157.48
X198.12Y-43.18
X198.12Y-44.45
X198.12Y-45.72
X198.12Y-46.99
X198.12Y-48.26
X198.12Y-49.53
X198.12Y-50.8
X198.12Y-148.59
X198.12Y-149.86
X198.12Y-151.13
X198.12Y-152.4
X198.12Y-153.67
X198.12Y-154.94
X198.12Y-156.21
X198.12Y-157.48
X199.39Y-43.18
X199.39Y-44.45
X199.39Y-45.72
X199.39Y-46.99
X199.39Y-48.26
X199.39Y-49.53
X199.39Y-50.8
X199.39Y-148.59
X199.39Y-149.86
X199.39Y-151.13
X199.39Y-152.4
X199.39Y-153.67
X199.39Y-154.94
X199.39Y-156.21
X199.39Y-157.48
X200.66Y-43.18
X200.66Y-44.45
X200.66Y-45.72
X200.66Y-46.99
X200.66Y-48.26
X200.66Y-49.53
X200.66Y-50.8
X200.66Y-148.59
X200.66Y-149.86
X200.66Y-151.13
X200.66Y-152.4
X200.66Y-153.67
X200.66Y-154.94
X200.66Y-156.21
X200.66Y-157.48
X201.93Y-43.18
X201.93Y-44.45
X201.93Y-45.72
X201.93Y-46.99
X201.93Y-48.26
X201.93Y-49.53
X201.93Y-50.8
X201.93Y-148.59
X201.93Y-149.86
X201.93Y-151.13
X201.93Y-152.4
X201.93Y-153.67
X201.93Y-154.94
X201.93Y-156.21
X201.93Y-157.48
X203.2Y-43.18
X203.2Y-44.45
X203.2Y-45.72
X203.2Y-46.99
X203.2Y-48.26
X203.2Y-49.53
X203.2Y-50.8
X203.2Y-148.59
X203.2Y-149.86
X203.2Y-151.13
X203.2Y-152.4
X203.2Y-153.67
X203.2Y-154.94
X203.2Y-156.21
X203.2Y-157.48
X204.47Y-43.18
X204.47Y-44.45
X204.47Y-45.72
X204.47Y-46.99
X204.47Y-48.26
X204.47Y-49.53
X204.47Y-50.8
X204.47Y-148.59
X204.47Y-149.86
X204.47Y-151.13
X204.47Y-152.4
X204.47Y-153.67
X204.47Y-154.94
X204.47Y-156.21
X204.47Y-157.48
X205.74Y-43.18
X205.74Y-44.45
X205.74Y-45.72
X205.74Y-46.99
X205.74Y-48.26
X205.74Y-49.53
X205.74Y-50.8
X205.74Y-148.59
X205.74Y-149.86
X205.74Y-151.13
X205.74Y-152.4
X205.74Y-153.67
X205.74Y-154.94
X205.74Y-156.21
X205.74Y-157.48
X207.01Y-43.18
X207.01Y-44.45
X207.01Y-45.72
X207.01Y-46.99
X207.01Y-48.26
X207.01Y-49.53
X207.01Y-50.8
X207.01Y-148.59
X207.01Y-149.86
X207.01Y-151.13
X207.01Y-152.4
X207.01Y-153.67
X207.01Y-154.94
X207.01Y-156.21
X207.01Y-157.48
X208.28Y-43.18
X208.28Y-44.45
X208.28Y-45.72
X208.28Y-46.99
X208.28Y-48.26
X208.28Y-49.53
X208.28Y-50.8
X208.28Y-148.59
X208.28Y-149.86
X208.28Y-151.13
X208.28Y-152.4
X208.28Y-153.67
X208.28Y-154.94
X208.28Y-156.21
X208.28Y-157.48
X209.55Y-43.18
X209.55Y-44.45
X209.55Y-45.72
X209.55Y-46.99
X209.55Y-48.26
X209.55Y-49.53
X209.55Y-50.8
X209.55Y-148.59
X209.55Y-149.86
X209.55Y-151.13
X209.55Y-152.4
X209.55Y-153.67
X209.55Y-154.94
X209.55Y-156.21
X209.55Y-157.48
X210.82Y-43.18
X210.82Y-44.45
X210.82Y-45.72
X210.82Y-46.99
X210.82Y-48.26
X210.82Y-49.53
X210.82Y-50.8
X210.82Y-148.59
X210.82Y-149.86
X210.82Y-151.13
X210.82Y-152.4
X210.82Y-153.67
X210.82Y-154.94
X210.82Y-156.21
X210.82Y-157.48
X212.09Y-43.18
X212.09Y-44.45
X212.09Y-45.72
X212.09Y-46.99
X212.09Y-48.26
X212.09Y-49.53
X212.09Y-50.8
X212.09Y-148.59
X212.09Y-149.86
X212.09Y-151.13
X212.09Y-152.4
X212.09Y-153.67
X212.09Y-154.94
X212.09Y-156.21
X212.09Y-157.48
X212.725Y-70.485
X212.725Y-73.025
X212.725Y-75.565
X212.725Y-78.105
X212.725Y-80.645
X212.725Y-83.185
X212.725Y-85.725
X212.725Y-88.265
X212.725Y-90.805
X212.725Y-93.345
X212.725Y-95.885
X212.725Y-98.425
X212.725Y-100.965
X212.725Y-103.505
X212.725Y-106.045
X212.725Y-108.585
X212.725Y-111.125
X212.725Y-113.665
X213.36Y-43.18
X213.36Y-44.45
X213.36Y-45.72
X213.36Y-46.99
X213.36Y-48.26
X213.36Y-49.53
X213.36Y-50.8
X213.36Y-148.59
X213.36Y-149.86
X213.36Y-151.13
X213.36Y-152.4
X213.36Y-153.67
X213.36Y-154.94
X213.36Y-156.21
X213.36Y-157.48
X214.63Y-43.18
X214.63Y-44.45
X214.63Y-45.72
X214.63Y-46.99
X214.63Y-48.26
X214.63Y-49.53
X214.63Y-50.8
X214.63Y-148.59
X214.63Y-149.86
X214.63Y-151.13
X214.63Y-152.4
X214.63Y-153.67
X214.63Y-154.94
X214.63Y-156.21
X214.63Y-157.48
X215.9Y-43.18
X215.9Y-44.45
X215.9Y-45.72
X215.9Y-46.99
X215.9Y-48.26
X215.9Y-49.53
X215.9Y-50.8
X215.9Y-148.59
X215.9Y-149.86
X215.9Y-151.13
X215.9Y-152.4
X215.9Y-153.67
X215.9Y-154.94
X215.9Y-156.21
X215.9Y-157.48
X217.17Y-43.18
X217.17Y-44.45
X217.17Y-45.72
X217.17Y-46.99
X217.17Y-48.26
X217.17Y-49.53
X217.17Y-50.8
X217.17Y-148.59
X217.17Y-149.86
X217.17Y-151.13
X217.17Y-152.4
X217.17Y-153.67
X217.17Y-154.94
X217.17Y-156.21
X217.17Y-157.48
X218.44Y-43.18
X218.44Y-44.45
X218.44Y-45.72
X218.44Y-46.99
X218.44Y-48.26
X218.44Y-49.53
X218.44Y-50.8
X218.44Y-148.59
X218.44Y-149.86
X218.44Y-151.13
X218.44Y-152.4
X218.44Y-153.67
X218.44Y-154.94
X218.44Y-156.21
X218.44Y-157.48
X219.71Y-43.18
X219.71Y-44.45
X219.71Y-45.72
X219.71Y-46.99
X219.71Y-48.26
X219.71Y-49.53
X219.71Y-50.8
X219.71Y-148.59
X219.71Y-149.86
X219.71Y-151.13
X219.71Y-152.4
X219.71Y-153.67
X219.71Y-154.94
X219.71Y-156.21
X219.71Y-157.48
X220.98Y-43.18
X220.98Y-44.45
X220.98Y-45.72
X220.98Y-46.99
X220.98Y-48.26
X220.98Y-49.53
X220.98Y-50.8
X220.98Y-148.59
X220.98Y-149.86
X220.98Y-151.13
X220.98Y-152.4
X220.98Y-153.67
X220.98Y-154.94
X220.98Y-156.21
X220.98Y-157.48
X222.25Y-43.18
X222.25Y-44.45
X222.25Y-45.72
X222.25Y-46.99
X222.25Y-48.26
X222.25Y-49.53
X222.25Y-50.8
X222.25Y-148.59
X222.25Y-149.86
X222.25Y-151.13
X222.25Y-152.4
X222.25Y-153.67
X222.25Y-154.94
X222.25Y-156.21
X222.25Y-157.48
X223.52Y-43.18
X223.52Y-44.45
X223.52Y-45.72
X223.52Y-46.99
X223.52Y-48.26
X223.52Y-49.53
X223.52Y-50.8
X223.52Y-148.59
X223.52Y-149.86
X223.52Y-151.13
X223.52Y-152.4
X223.52Y-153.67
X223.52Y-154.94
X223.52Y-156.21
X223.52Y-157.48
X224.79Y-148.59
X224.79Y-149.86
X224.79Y-151.13
X224.79Y-152.4
X224.79Y-153.67
X224.79Y-154.94
X224.79Y-156.21
X224.79Y-157.48
X226.06Y-148.59
X226.06Y-149.86
X226.06Y-151.13
X226.06Y-152.4
X226.06Y-153.67
X226.06Y-154.94
X226.06Y-156.21
X226.06Y-157.48
X227.33Y-148.59
X227.33Y-149.86
X227.33Y-151.13
X227.33Y-152.4
X227.33Y-153.67
X227.33Y-154.94
X227.33Y-156.21
X227.33Y-157.48
X228.6Y-148.59
X228.6Y-149.86
X228.6Y-151.13
X228.6Y-152.4
X228.6Y-153.67
X228.6Y-154.94
X228.6Y-156.21
X228.6Y-157.48
X229.87Y-148.59
X229.87Y-149.86
X229.87Y-151.13
X229.87Y-152.4
X229.87Y-153.67
X229.87Y-154.94
X229.87Y-156.21
X229.87Y-157.48
X231.14Y-148.59
X231.14Y-149.86
X231.14Y-151.13
X231.14Y-152.4
X231.14Y-153.67
X231.14Y-154.94
X231.14Y-156.21
X231.14Y-157.48
X232.41Y-148.59
X232.41Y-149.86
X232.41Y-151.13
X232.41Y-152.4
X232.41Y-153.67
X232.41Y-154.94
X232.41Y-156.21
X232.41Y-157.48
X233.68Y-148.59
X233.68Y-149.86
X233.68Y-151.13
X233.68Y-152.4
X233.68Y-153.67
X233.68Y-154.94
X233.68Y-156.21
X233.68Y-157.48
X234.95Y-148.59
X234.95Y-149.86
X234.95Y-151.13
X234.95Y-152.4
X234.95Y-153.67
X234.95Y-154.94
X234.95Y-156.21
X234.95Y-157.48
X236.22Y-148.59
X236.22Y-149.86
X236.22Y-151.13
X236.22Y-152.4
X236.22Y-153.67
X236.22Y-154.94
X236.22Y-156.21
X236.22Y-157.48
X237.49Y-148.59
X237.49Y-149.86
X237.49Y-151.13
X237.49Y-152.4
X237.49Y-153.67
X237.49Y-154.94
X237.49Y-156.21
X237.49Y-157.48
X238.76Y-148.59
X238.76Y-149.86
X238.76Y-151.13
X238.76Y-152.4
X238.76Y-153.67
X238.76Y-154.94
X238.76Y-156.21
X238.76Y-157.48
X240.03Y-148.59
X240.03Y-149.86
X240.03Y-151.13
X240.03Y-152.4
X240.03Y-153.67
X240.03Y-154.94
X240.03Y-156.21
X240.03Y-157.48
X241.3Y-148.59
X241.3Y-149.86
X241.3Y-151.13
X241.3Y-152.4
X241.3Y-153.67
X241.3Y-154.94
X241.3Y-156.21
X241.3Y-157.48
X242.57Y-148.59
X242.57Y-149.86
X242.57Y-151.13
X242.57Y-152.4
X242.57Y-153.67
X242.57Y-154.94
X242.57Y-156.21
X242.57Y-157.48
X243.84Y-148.59
X243.84Y-149.86
X243.84Y-151.13
X243.84Y-152.4
X243.84Y-153.67
X243.84Y-154.94
X243.84Y-156.21
X243.84Y-157.48
X245.11Y-148.59
X245.11Y-149.86
X245.11Y-151.13
X245.11Y-152.4
X245.11Y-153.67
X245.11Y-154.94
X245.11Y-156.21
X245.11Y-157.48
X246.38Y-148.59
X246.38Y-149.86
X246.38Y-151.13
X246.38Y-152.4
X246.38Y-153.67
X246.38Y-154.94
X246.38Y-156.21
X246.38Y-157.48
X247.65Y-148.59
X247.65Y-149.86
X247.65Y-151.13
X247.65Y-152.4
X247.65Y-153.67
X247.65Y-154.94
X247.65Y-156.21
X247.65Y-157.48
X248.92Y-148.59
X248.92Y-149.86
X248.92Y-151.13
X248.92Y-152.4
X248.92Y-153.67
X248.92Y-154.94
X248.92Y-156.21
X248.92Y-157.48
T3
X145.08Y-60.54
X145.08Y-63.08
X145.08Y-65.62
X145.08Y-68.16
X145.08Y-70.7
X145.08Y-73.24
X145.08Y-75.78
X145.08Y-78.32
X145.08Y-80.86
X145.08Y-83.4
X145.08Y-85.94
X145.08Y-88.48
X145.08Y-91.02
X145.08Y-93.56
X145.08Y-96.1
X145.08Y-98.64
X145.08Y-101.18
X145.08Y-103.72
X145.08Y-106.26
X145.08Y-108.8
X145.08Y-111.34
X145.08Y-113.88
X145.08Y-116.42
X145.08Y-118.96
X145.08Y-121.5
X145.08Y-124.04
X145.08Y-126.58
X145.08Y-129.12
X145.08Y-131.66
X145.08Y-134.2
X145.08Y-136.74
X145.08Y-139.28
X147.62Y-60.54
X147.62Y-63.08
X147.62Y-65.62
X147.62Y-68.16
X147.62Y-70.7
X147.62Y-73.24
X147.62Y-75.78
X147.62Y-78.32
X147.62Y-80.86
X147.62Y-83.4
X147.62Y-85.94
X147.62Y-88.48
X147.62Y-91.02
X147.62Y-93.56
X147.62Y-96.1
X147.62Y-98.64
X147.62Y-101.18
X147.62Y-103.72
X147.62Y-106.26
X147.62Y-108.8
X147.62Y-111.34
X147.62Y-113.88
X147.62Y-116.42
X147.62Y-118.96
X147.62Y-121.5
X147.62Y-124.04
X147.62Y-126.58
X147.62Y-129.12
X147.62Y-131.66
X147.62Y-134.2
X147.62Y-136.74
X147.62Y-139.28
X206.04Y-60.54
X206.04Y-63.08
X206.04Y-65.62
X206.04Y-68.16
X206.04Y-70.7
X206.04Y-73.24
X206.04Y-75.78
X206.04Y-78.32
X206.04Y-80.86
X206.04Y-83.4
X206.04Y-85.94
X206.04Y-88.48
X206.04Y-91.02
X206.04Y-93.56
X206.04Y-96.1
X206.04Y-98.64
X206.04Y-101.18
X206.04Y-103.72
X206.04Y-106.26
X206.04Y-108.8
X206.04Y-111.34
X206.04Y-113.88
X206.04Y-116.42
X206.04Y-118.96
X206.04Y-121.5
X206.04Y-124.04
X206.04Y-126.58
X206.04Y-129.12
X206.04Y-131.66
X206.04Y-134.2
X206.04Y-136.74
X206.04Y-139.28
X208.58Y-60.54
X208.58Y-63.08
X208.58Y-65.62
X208.58Y-68.16
X208.58Y-70.7
X208.58Y-73.24
X208.58Y-75.78
X208.58Y-78.32
X208.58Y-80.86
X208.58Y-83.4
X208.58Y-85.94
X208.58Y-88.48
X208.58Y-91.02
X208.58Y-93.56
X208.58Y-96.1
X208.58Y-98.64
X208.58Y-101.18
X208.58Y-103.72
X208.58Y-106.26
X208.58Y-108.8
X208.58Y-111.34
X208.58Y-113.88
X208.58Y-116.42
X208.58Y-118.96
X208.58Y-121.5
X208.58Y-124.04
X208.58Y-126.58
X208.58Y-129.12
X208.58Y-131.66
X208.58Y-134.2
X208.58Y-136.74
X208.58Y-139.28
X185.72Y-60.54
X185.72Y-63.08
X185.72Y-65.62
X185.72Y-68.16
X185.72Y-70.7
X185.72Y-73.24
X185.72Y-75.78
X185.72Y-78.32
X185.72Y-80.86
X185.72Y-83.4
X185.72Y-85.94
X185.72Y-88.48
X185.72Y-91.02
X185.72Y-93.56
X185.72Y-96.1
X185.72Y-98.64
X185.72Y-101.18
X185.72Y-103.72
X185.72Y-106.26
X185.72Y-108.8
X185.72Y-111.34
X185.72Y-113.88
X185.72Y-116.42
X185.72Y-118.96
X185.72Y-121.5
X185.72Y-124.04
X185.72Y-126.58
X185.72Y-129.12
X185.72Y-131.66
X185.72Y-134.2
X185.72Y-136.74
X185.72Y-139.28
X188.26Y-60.54
X188.26Y-63.08
X188.26Y-65.62
X188.26Y-68.16
X188.26Y-70.7
X188.26Y-73.24
X188.26Y-75.78
X188.26Y-78.32
X188.26Y-80.86
X188.26Y-83.4
X188.26Y-85.94
X188.26Y-88.48
X188.26Y-91.02
X188.26Y-93.56
X188.26Y-96.1
X188.26Y-98.64
X188.26Y-101.18
X188.26Y-103.72
X188.26Y-106.26
X188.26Y-108.8
X188.26Y-111.34
X188.26Y-113.88
X188.26Y-116.42
X188.26Y-118.96
X188.26Y-121.5
X188.26Y-124.04
X188.26Y-126.58
X188.26Y-129.12
X188.26Y-131.66
X188.26Y-134.2
X188.26Y-136.74
X188.26Y-139.28
X124.76Y-60.54
X124.76Y-63.08
X124.76Y-65.62
X124.76Y-68.16
X124.76Y-70.7
X124.76Y-73.24
X124.76Y-75.78
X124.76Y-78.32
X124.76Y-80.86
X124.76Y-83.4
X124.76Y-85.94
X124.76Y-88.48
X124.76Y-91.02
X124.76Y-93.56
X124.76Y-96.1
X124.76Y-98.64
X124.76Y-101.18
X124.76Y-103.72
X124.76Y-106.26
X124.76Y-108.8
X124.76Y-111.34
X124.76Y-113.88
X124.76Y-116.42
X124.76Y-118.96
X124.76Y-121.5
X124.76Y-124.04
X124.76Y-126.58
X124.76Y-129.12
X124.76Y-131.66
X124.76Y-134.2
X124.76Y-136.74
X124.76Y-139.28
X127.3Y-60.54
X127.3Y-63.08
X127.3Y-65.62
X127.3Y-68.16
X127.3Y-70.7
X127.3Y-73.24
X127.3Y-75.78
X127.3Y-78.32
X127.3Y-80.86
X127.3Y-83.4
X127.3Y-85.94
X127.3Y-88.48
X127.3Y-91.02
X127.3Y-93.56
X127.3Y-96.1
X127.3Y-98.64
X127.3Y-101.18
X127.3Y-103.72
X127.3Y-106.26
X127.3Y-108.8
X127.3Y-111.34
X127.3Y-113.88
X127.3Y-116.42
X127.3Y-118.96
X127.3Y-121.5
X127.3Y-124.04
X127.3Y-126.58
X127.3Y-129.12
X127.3Y-131.66
X127.3Y-134.2
X127.3Y-136.74
X127.3Y-139.28
X165.4Y-60.54
X165.4Y-63.08
X165.4Y-65.62
X165.4Y-68.16
X165.4Y-70.7
X165.4Y-73.24
X165.4Y-75.78
X165.4Y-78.32
X165.4Y-80.86
X165.4Y-83.4
X165.4Y-85.94
X165.4Y-88.48
X165.4Y-91.02
X165.4Y-93.56
X165.4Y-96.1
X165.4Y-98.64
X165.4Y-101.18
X165.4Y-103.72
X165.4Y-106.26
X165.4Y-108.8
X165.4Y-111.34
X165.4Y-113.88
X165.4Y-116.42
X165.4Y-118.96
X165.4Y-121.5
X165.4Y-124.04
X165.4Y-126.58
X165.4Y-129.12
X165.4Y-131.66
X165.4Y-134.2
X165.4Y-136.74
X165.4Y-139.28
X167.94Y-60.54
X167.94Y-63.08
X167.94Y-65.62
X167.94Y-68.16
X167.94Y-70.7
X167.94Y-73.24
X167.94Y-75.78
X167.94Y-78.32
X167.94Y-80.86
X167.94Y-83.4
X167.94Y-85.94
X167.94Y-88.48
X167.94Y-91.02
X167.94Y-93.56
X167.94Y-96.1
X167.94Y-98.64
X167.94Y-101.18
X167.94Y-103.72
X167.94Y-106.26
X167.94Y-108.8
X167.94Y-111.34
X167.94Y-113.88
X167.94Y-116.42
X167.94Y-118.96
X167.94Y-121.5
X167.94Y-124.04
X167.94Y-126.58
X167.94Y-129.12
X167.94Y-131.66
X167.94Y-134.2
X167.94Y-136.74
X167.94Y-139.28
X104.44Y-60.54
X104.44Y-63.08
X104.44Y-65.62
X104.44Y-68.16
X104.44Y-70.7
X104.44Y-73.24
X104.44Y-75.78
X104.44Y-78.32
X104.44Y-80.86
X104.44Y-83.4
X104.44Y-85.94
X104.44Y-88.48
X104.44Y-91.02
X104.44Y-93.56
X104.44Y-96.1
X104.44Y-98.64
X104.44Y-101.18
X104.44Y-103.72
X104.44Y-106.26
X104.44Y-108.8
X104.44Y-111.34
X104.44Y-113.88
X104.44Y-116.42
X104.44Y-118.96
X104.44Y-121.5
X104.44Y-124.04
X104.44Y-126.58
X104.44Y-129.12
X104.44Y-131.66
X104.44Y-134.2
X104.44Y-136.74
X104.44Y-139.28
X106.98Y-60.54
X106.98Y-63.08
X106.98Y-65.62
X106.98Y-68.16
X106.98Y-70.7
X106.98Y-73.24
X106.98Y-75.78
X106.98Y-78.32
X106.98Y-80.86
X106.98Y-83.4
X106.98Y-85.94
X106.98Y-88.48
X106.98Y-91.02
X106.98Y-93.56
X106.98Y-96.1
X106.98Y-98.64
X106.98Y-101.18
X106.98Y-103.72
X106.98Y-106.26
X106.98Y-108.8
X106.98Y-111.34
X106.98Y-113.88
X106.98Y-116.42
X106.98Y-118.96
X106.98Y-121.5
X106.98Y-124.04
X106.98Y-126.58
X106.98Y-129.12
X106.98Y-131.66
X106.98Y-134.2
X106.98Y-136.74
X106.98Y-139.28
X43.48Y-60.54
X43.48Y-63.08
X43.48Y-65.62
X43.48Y-68.16
X43.48Y-70.7
X43.48Y-73.24
X43.48Y-75.78
X43.48Y-78.32
X43.48Y-80.86
X43.48Y-83.4
X43.48Y-85.94
X43.48Y-88.48
X43.48Y-91.02
X43.48Y-93.56
X43.48Y-96.1
X43.48Y-98.64
X43.48Y-101.18
X43.48Y-103.72
X43.48Y-106.26
X43.48Y-108.8
X43.48Y-111.34
X43.48Y-113.88
X43.48Y-116.42
X43.48Y-118.96
X43.48Y-121.5
X43.48Y-124.04
X43.48Y-126.58
X43.48Y-129.12
X43.48Y-131.66
X43.48Y-134.2
X43.48Y-136.74
X43.48Y-139.28
X46.02Y-60.54
X46.02Y-63.08
X46.02Y-65.62
X46.02Y-68.16
X46.02Y-70.7
X46.02Y-73.24
X46.02Y-75.78
X46.02Y-78.32
X46.02Y-80.86
X46.02Y-83.4
X46.02Y-85.94
X46.02Y-88.48
X46.02Y-91.02
X46.02Y-93.56
X46.02Y-96.1
X46.02Y-98.64
X46.02Y-101.18
X46.02Y-103.72
X46.02Y-106.26
X46.02Y-108.8
X46.02Y-111.34
X46.02Y-113.88
X46.02Y-116.42
X46.02Y-118.96
X46.02Y-121.5
X46.02Y-124.04
X46.02Y-126.58
X46.02Y-129.12
X46.02Y-131.66
X46.02Y-134.2
X46.02Y-136.74
X46.02Y-139.28
X84.12Y-60.54
X84.12Y-63.08
X84.12Y-65.62
X84.12Y-68.16
X84.12Y-70.7
X84.12Y-73.24
X84.12Y-75.78
X84.12Y-78.32
X84.12Y-80.86
X84.12Y-83.4
X84.12Y-85.94
X84.12Y-88.48
X84.12Y-91.02
X84.12Y-93.56
X84.12Y-96.1
X84.12Y-98.64
X84.12Y-101.18
X84.12Y-103.72
X84.12Y-106.26
X84.12Y-108.8
X84.12Y-111.34
X84.12Y-113.88
X84.12Y-116.42
X84.12Y-118.96
X84.12Y-121.5
X84.12Y-124.04
X84.12Y-126.58
X84.12Y-129.12
X84.12Y-131.66
X84.12Y-134.2
X84.12Y-136.74
X84.12Y-139.28
X86.66Y-60.54
X86.66Y-63.08
X86.66Y-65.62
X86.66Y-68.16
X86.66Y-70.7
X86.66Y-73.24
X86.66Y-75.78
X86.66Y-78.32
X86.66Y-80.86
X86.66Y-83.4
X86.66Y-85.94
X86.66Y-88.48
X86.66Y-91.02
X86.66Y-93.56
X86.66Y-96.1
X86.66Y-98.64
X86.66Y-101.18
X86.66Y-103.72
X86.66Y-106.26
X86.66Y-108.8
X86.66Y-111.34
X86.66Y-113.88
X86.66Y-116.42
X86.66Y-118.96
X86.66Y-121.5
X86.66Y-124.04
X86.66Y-126.58
X86.66Y-129.12
X86.66Y-131.66
X86.66Y-134.2
X86.66Y-136.74
X86.66Y-139.28
T4
G00X224.226Y-125.73
M15
G01X224.926Y-125.73
M16
G05
G00X229.226Y-125.73
M15
G01X229.926Y-125.73
M16
G05
G00X224.226Y-67.31
M15
G01X224.926Y-67.31
M16
G05
G00X229.226Y-67.31
M15
G01X229.926Y-67.31
M16
G05
G00X224.226Y-118.11
M15
G01X224.926Y-118.11
M16
G05
G00X229.226Y-118.11
M15
G01X229.926Y-118.11
M16
G05
G00X224.226Y-60.96
M15
G01X224.926Y-60.96
M16
G05
G00X229.226Y-60.96
M15
G01X229.926Y-60.96
M16
G05
T5
G00X61.37Y-133.03
M15
G01X61.77Y-133.03
M16
G05
G00X61.37Y-144.03
M15
G01X61.77Y-144.03
M16
G05
G00X67.67Y-133.03
M15
G01X68.07Y-133.03
M16
G05
G00X67.67Y-133.03
M15
G01X68.07Y-133.03
M16
G05
G00X67.67Y-144.03
M15
G01X68.07Y-144.03
M16
G05
G00X223.676Y-133.03
M15
G01X224.076Y-133.03
M16
G05
G00X223.676Y-144.03
M15
G01X224.076Y-144.03
M16
G05
G00X229.976Y-133.03
M15
G01X230.376Y-133.03
M16
G05
G00X229.976Y-133.03
M15
G01X230.376Y-133.03
M16
G05
G00X229.976Y-144.03
M15
G01X230.376Y-144.03
M16
G05
T0
M30
