M48
; DRILL file {KiCad (5.1.5)-3} date 2020-05-31 16:01:56
; FORMAT={-:-/ absolute / metric / decimal}
; #@! TF.CreationDate,2020-05-31T16:01:56+08:00
; #@! TF.GenerationSoftware,Kicad,Pcbnew,(5.1.5)-3
; #@! TF.FileFunction,NonPlated,1,2,NPTH
FMAT,2
METRIC
T1C2.700
T2C2.800
%
G90
G05
T1
X71.12Y-38.66
X86.36Y-161.16
X121.92Y-38.66
X66.04Y-161.16
X127.0Y-38.66
X223.52Y-161.16
X238.76Y-161.16
X147.32Y-161.16
X121.92Y-161.16
X157.48Y-38.66
X152.4Y-161.16
X167.64Y-38.66
X182.88Y-38.66
X96.52Y-161.16
X81.28Y-38.66
X50.8Y-161.16
X55.88Y-38.66
X55.88Y-161.16
X76.2Y-38.66
X218.44Y-161.16
X243.84Y-161.16
X187.96Y-161.16
X132.08Y-161.16
X172.72Y-38.66
X198.12Y-161.16
X213.36Y-38.66
X137.16Y-38.66
X233.68Y-38.66
X86.36Y-38.66
X76.2Y-161.16
X45.72Y-38.66
X106.68Y-161.16
X66.04Y-38.66
X127.0Y-161.16
X137.16Y-161.16
X198.12Y-38.66
X187.96Y-38.66
X40.64Y-161.16
X228.6Y-38.66
X116.84Y-38.66
X91.44Y-161.16
X50.8Y-38.66
X101.6Y-38.66
X228.6Y-161.16
X193.04Y-161.16
X162.56Y-161.16
X203.2Y-38.66
X208.28Y-38.66
X243.84Y-38.66
X132.08Y-38.66
X238.76Y-38.66
X60.96Y-38.66
X208.28Y-161.16
X172.72Y-161.16
X182.88Y-161.16
X218.44Y-38.66
X193.04Y-38.66
X40.64Y-38.66
X203.2Y-161.16
X248.92Y-38.66
X106.68Y-38.66
X45.72Y-161.16
X91.44Y-38.66
X233.68Y-161.16
X177.8Y-161.16
X111.76Y-161.16
X142.24Y-38.66
X142.24Y-161.16
X223.52Y-38.66
X152.4Y-38.66
X60.96Y-161.16
X71.12Y-161.16
X96.52Y-38.66
X101.6Y-161.16
X111.76Y-38.66
X248.92Y-161.16
X213.36Y-161.16
X167.64Y-161.16
X116.84Y-161.16
X147.32Y-38.66
X157.48Y-161.16
X162.56Y-38.66
X177.8Y-38.66
X81.28Y-161.16
T2
X45.72Y-54.91
X45.72Y-144.91
X86.36Y-54.91
X86.36Y-144.91
X147.32Y-54.91
X147.32Y-144.91
X208.28Y-54.91
X208.28Y-144.91
X187.96Y-54.91
X187.96Y-144.91
X127.0Y-54.91
X127.0Y-144.91
X167.64Y-54.91
X167.64Y-144.91
X106.68Y-54.91
X106.68Y-144.91
T0
M30
